<svg width="327" height="49" viewBox="0 0 327 49" fill="none" xmlns="http://www.w3.org/2000/svg">
<path d="M17.433 40.9583L17.3898 38.7974L17.3466 30.7159C17.4273 30.4359 17.4175 30.1622 17.3172 29.8948C17.2769 29.76 17.1882 29.6879 17.051 29.6787C16.1187 29.6119 15.1339 29.6153 14.0967 29.6891C13.8512 29.7052 13.6732 29.7703 13.5626 29.8844C13.4416 30.0089 13.3332 30.1818 13.2376 30.403C12.1232 32.9776 10.9915 35.5447 9.84246 38.1042C8.69924 40.6488 7.55889 43.243 6.42143 45.8867C6.39086 45.9584 6.34198 46.0209 6.27955 46.0682C6.21713 46.1155 6.14331 46.1459 6.06532 46.1564C4.40119 46.3834 2.70364 46.3972 0.97267 46.1979C0.948865 46.1952 0.926977 46.1837 0.911532 46.1657C0.896088 46.1477 0.888267 46.1245 0.889692 46.1011C0.902369 45.8833 0.965179 45.685 1.07812 45.5064C1.28325 45.1791 1.3887 45.0085 1.39446 44.9947C3.20495 41.1467 4.98721 37.2854 6.74123 33.4109C7.44653 31.8528 8.16969 30.3172 8.91071 28.804C8.9464 28.731 8.95246 28.6471 8.92762 28.57C8.90278 28.4929 8.84899 28.4287 8.7776 28.3909C7.42348 27.6717 6.28198 26.7527 5.35311 25.6336C4.66741 24.8073 4.09637 23.8134 3.64 22.6517C3.17672 21.4704 2.87881 20.2834 2.74628 19.0906C2.5446 17.2675 2.54115 15.6794 2.73591 14.3264C2.83848 13.6154 3.04073 12.7683 3.34267 11.7853C3.63885 10.8207 3.95693 10.0122 4.2969 9.35996C5.41823 7.20719 7.04375 5.57302 9.17347 4.45746C10.1104 3.96651 11.2 3.61156 12.4424 3.3926C13.7043 3.17017 14.9812 3.05839 16.2731 3.05723C17.9418 3.05723 19.6112 3.05723 21.2811 3.05723C21.2949 3.05723 21.3836 3.05205 21.5473 3.04168C21.9506 3.01517 22.1517 3.23644 22.1506 3.70549C22.1356 7.96953 22.1212 12.2336 22.1074 16.4976C22.1062 17.0093 22.116 17.4524 22.1368 17.827C22.1736 18.485 22.1915 18.9258 22.1903 19.1494C22.1615 24.6754 22.1638 30.2019 22.1973 35.7291C22.2019 36.5173 22.1903 37.3056 22.1627 38.0939C22.1327 38.9121 22.1246 39.6987 22.1385 40.4535C22.1627 41.8422 22.146 43.2309 22.0884 44.6196C22.0745 44.9699 22.0843 45.3675 22.1177 45.8124C22.1408 46.1097 22.0036 46.2659 21.7063 46.2808C20.4329 46.3465 19.1104 46.3442 17.739 46.2739C17.6843 46.2711 17.6322 46.2497 17.5913 46.2132C17.5505 46.1768 17.5233 46.1274 17.5143 46.0734C17.4624 45.7634 17.4388 45.4269 17.4434 45.0639C17.4596 43.6948 17.4561 42.3262 17.433 40.9583ZM17.2809 7.0228C16.8776 6.88335 16.465 6.82919 16.0432 6.8603C15.4543 6.90294 14.8694 6.97497 14.2886 7.07639C13.4577 7.22044 12.8803 7.3403 12.5565 7.43595C11.9365 7.61688 11.366 7.8952 10.8451 8.2709C10.3887 8.59934 9.95829 9.05226 9.55378 9.62963C8.34832 11.3502 7.71332 13.2938 7.64878 15.4604C7.61191 16.6797 7.64878 17.8178 7.75942 18.8745C7.87927 20.0166 8.20426 21.1362 8.73439 22.2333C9.68631 24.204 11.2484 25.3605 13.4208 25.7028C14.5802 25.886 15.8139 25.9557 17.1219 25.912C17.1838 25.9102 17.2427 25.8846 17.2861 25.8404C17.3296 25.7963 17.3544 25.7371 17.3553 25.6751C17.4037 21.4722 17.4181 17.2329 17.3985 12.9573C17.3973 12.8524 17.3823 12.679 17.3535 12.437C17.3328 12.2618 17.3287 12.0866 17.3414 11.9115C17.3691 11.5438 17.3789 11.2863 17.3708 11.1388C17.327 10.3597 17.3437 9.58123 17.4209 8.80333C17.4728 8.26975 17.4797 7.74596 17.4417 7.23197C17.438 7.18511 17.4208 7.14037 17.3923 7.10323C17.3637 7.06608 17.325 7.03813 17.2809 7.0228Z" fill="#FE3534"/>
<path d="M28.538 42.0149C28.0805 42.227 27.6189 42.4638 27.1533 42.7254C27.1348 42.7357 27.114 42.7413 27.0929 42.7418C27.0717 42.7424 27.0507 42.7378 27.0317 42.7284C27.0126 42.7191 26.9962 42.7053 26.9836 42.6882C26.9711 42.6711 26.9629 42.6513 26.9597 42.6303C26.9401 42.5082 26.9194 42.3958 26.8975 42.2932C26.8733 42.1722 26.86 42.0587 26.8577 41.9527C26.7183 34.5413 26.6848 27.1299 26.7574 19.7185C26.7747 18.0291 26.8099 17.0074 26.8629 16.6536C27.0104 15.6787 27.3302 14.6939 27.8223 13.6993C29.0681 11.187 30.3289 8.68158 31.6046 6.18308C31.6081 6.17732 31.8126 5.71691 32.2183 4.80187C32.4661 4.24178 32.7882 3.7203 33.1846 3.23743C33.2389 3.17072 33.3106 3.11993 33.3921 3.09049C33.9233 2.89803 34.2645 2.98677 34.4154 3.35671C34.5399 3.6621 34.6903 3.95194 34.8666 4.22623C35.0994 4.58925 35.2613 4.86929 35.3524 5.06636C36.5486 7.64323 37.7771 10.204 39.0379 12.7486C39.7155 14.1177 40.2831 15.1877 40.7406 15.9587C40.97 16.3459 41.2091 16.611 41.458 16.7539C41.7081 16.8968 41.9841 16.9815 42.2861 17.008C42.6272 17.038 42.8018 17.0535 42.8099 17.0547C44.9753 17.3727 47.1419 17.6828 49.3096 17.9847C49.441 18.0031 49.7758 18.0268 50.314 18.0556C50.6171 18.0717 50.953 18.1143 51.3218 18.1835C52.7531 18.4509 54.1828 18.728 55.6106 19.015C55.9126 19.0749 56.1315 19.1896 56.2675 19.359C56.5948 19.7693 56.5245 20.206 56.0566 20.6693C55.6637 21.0588 55.2551 21.4305 54.831 21.7843C54.294 22.2326 53.8808 22.5968 53.5916 22.8768C51.9781 24.4453 50.3538 26.0028 48.7184 27.5494C47.914 28.31 47.1142 29.2251 46.319 30.2945C45.8684 30.9019 45.6985 31.557 45.8091 32.26C46.2816 35.2702 46.8083 38.2706 47.3891 41.2612C47.5896 42.2915 47.7285 43.6531 47.8057 45.3461C47.8207 45.6722 47.7925 45.9113 47.721 46.0635C47.5873 46.347 47.3568 46.4161 47.0295 46.2709C46.7495 46.1476 46.602 46.083 46.587 46.0773C46.0223 45.8779 45.4812 45.6267 44.9638 45.3236C43.907 44.7059 42.8266 44.1337 41.7225 43.607C40.4779 43.0135 39.2603 42.3699 38.0698 41.6761C36.5071 40.7668 35.4826 40.1929 34.9963 39.9543C34.0916 39.5083 33.1656 39.5544 32.2183 40.0926C31.4635 40.5213 30.7028 40.9385 29.9365 41.3442C29.7037 41.4675 29.2375 41.6911 28.538 42.0149Z" fill="#FFDD52"/>
<path d="M80.7506 17.5497L73.0304 28.3885H80.7506V17.5497ZM86.3411 32.0775V37.668H80.7506V32.0775H68.847V28.5786L81.283 11.2366H86.3411V28.3885H89.7639V32.0775H86.3411ZM92.6658 41.6612C93.1982 41.0781 93.6673 40.4189 94.0729 39.6836C94.5039 38.9483 94.8082 38.2384 94.9857 37.5539C94.2757 37.351 93.756 36.9961 93.4264 36.489C93.0968 35.9566 92.932 35.4115 92.932 34.8537C92.932 34.017 93.1982 33.3198 93.7306 32.762C94.2884 32.1789 95.011 31.8873 95.8984 31.8873C96.7858 31.8873 97.5084 32.1789 98.0661 32.762C98.6493 33.3451 98.9408 34.1565 98.9408 35.196C98.9408 35.8298 98.8521 36.4763 98.6746 37.1355C98.4972 37.7694 98.269 38.3652 97.9901 38.923C97.7112 39.5061 97.3943 40.0259 97.0393 40.4822C96.7097 40.964 96.3801 41.3569 96.0505 41.6612H92.6658ZM112.397 38.0483C110.876 38.0483 109.482 37.8835 108.214 37.5539C106.972 37.2243 105.907 36.7426 105.02 36.1087C104.132 35.4749 103.435 34.7016 102.928 33.7888C102.446 32.8507 102.205 31.7986 102.205 30.6323C102.205 28.8829 102.75 27.4377 103.841 26.2968C104.931 25.1305 106.389 24.2938 108.214 23.7868C106.693 23.3557 105.476 22.6458 104.563 21.657C103.676 20.6682 103.232 19.3879 103.232 17.8159C103.232 16.7257 103.448 15.7496 103.879 14.8876C104.335 14.0256 104.969 13.303 105.78 12.7198C106.591 12.1367 107.555 11.693 108.67 11.3888C109.786 11.0592 111.028 10.8944 112.397 10.8944C113.741 10.8944 114.971 11.0465 116.086 11.3507C117.227 11.655 118.203 12.0987 119.015 12.6818C119.826 13.2396 120.447 13.9495 120.878 14.8115C121.335 15.6735 121.563 16.6497 121.563 17.7399C121.563 19.3118 121.107 20.6049 120.194 21.619C119.306 22.6078 118.102 23.3304 116.581 23.7868C118.406 24.2685 119.851 25.0798 120.916 26.2207C121.981 27.3363 122.514 28.7688 122.514 30.5182C122.514 31.7098 122.26 32.7747 121.753 33.7128C121.271 34.6255 120.587 35.4115 119.699 36.0707C118.812 36.7045 117.747 37.1989 116.505 37.5539C115.262 37.8835 113.893 38.0483 112.397 38.0483ZM112.397 21.9233C113.513 21.9233 114.426 21.619 115.136 21.0105C115.871 20.402 116.239 19.5273 116.239 18.3864C116.239 17.1694 115.871 16.244 115.136 15.6102C114.426 14.9763 113.513 14.6594 112.397 14.6594C111.282 14.6594 110.356 14.9763 109.621 15.6102C108.911 16.244 108.556 17.1694 108.556 18.3864C108.556 19.5273 108.911 20.402 109.621 21.0105C110.356 21.619 111.282 21.9233 112.397 21.9233ZM112.359 34.2832C113.627 34.2832 114.667 33.9029 115.478 33.1423C116.315 32.3563 116.733 31.2281 116.733 29.7576C116.733 28.3885 116.315 27.349 115.478 26.6391C114.667 25.9292 113.627 25.5742 112.359 25.5742C111.066 25.5742 110.014 25.9292 109.203 26.6391C108.392 27.349 107.986 28.3885 107.986 29.7576C107.986 31.2281 108.392 32.3563 109.203 33.1423C110.014 33.9029 111.066 34.2832 112.359 34.2832Z" fill="black"/>
<path d="M122.808 42.4503L129.301 24.8386H131.583L125.09 42.4503H122.808ZM136.33 40.2514C135.376 40.2514 134.553 40.1477 133.862 39.9402C133.184 39.719 132.652 39.4493 132.265 39.1312L132.887 37.0568C133.094 37.2089 133.309 37.3541 133.53 37.4924C133.751 37.6307 133.993 37.7552 134.256 37.8658C134.519 37.9626 134.809 38.0387 135.127 38.094C135.445 38.1493 135.812 38.177 136.227 38.177C137.153 38.177 137.859 37.9419 138.343 37.4717C138.827 36.9877 139.069 36.2893 139.069 35.3765C139.069 34.5191 138.854 33.8899 138.426 33.4888C138.011 33.074 137.444 32.8665 136.725 32.8665C136.185 32.8665 135.77 32.9564 135.48 33.1362C135.203 33.3021 135.01 33.4404 134.899 33.5511H132.887V25.6269H141.496V27.805H135.252V31.5596C135.473 31.4075 135.777 31.2554 136.164 31.1033C136.552 30.9512 137.049 30.8751 137.658 30.8751C138.322 30.8751 138.937 30.9719 139.504 31.1655C140.071 31.3453 140.555 31.6219 140.956 31.9953C141.371 32.3548 141.689 32.8112 141.911 33.3644C142.146 33.9175 142.263 34.5606 142.263 35.2936C142.263 36.0818 142.125 36.7871 141.848 37.4095C141.572 38.0179 141.178 38.5365 140.666 38.9653C140.154 39.3801 139.532 39.6982 138.799 39.9195C138.066 40.1408 137.243 40.2514 136.33 40.2514Z" fill="#C0C6CC"/>
<line x1="176.048" y1="0.667969" x2="176.048" y2="48.668" stroke="#C0C6CC" stroke-width="0.5186"/>
<g clip-path="url(#clip0_46_1283)">
<path fill-rule="evenodd" clip-rule="evenodd" d="M228.081 7.54932C227.67 7.54932 227.32 7.71014 227.049 8.01485C224.715 10.715 222.511 18.2228 220.806 18.3667C216.767 18.7222 209.938 18.9169 207.857 19.0269C207.734 19.6786 207.726 21.5408 207.874 22.3449C207.9 22.5057 207.97 22.6581 208.067 22.8104C209.999 25.7983 215.779 30.1828 216.312 31.7572C215.866 33.9156 215.149 38.2916 215.062 40.086C215.062 41.2626 215 42.5153 215.079 43.6918C215.105 44.0896 215.298 44.4198 215.63 44.6483C215.962 44.8853 216.347 44.953 216.74 44.8599C220.273 44.005 226.367 40.0353 228.081 40.0353C229.795 40.0353 235.889 44.005 239.422 44.8599C239.824 44.953 240.2 44.8853 240.532 44.6483C240.865 44.4113 241.057 44.0812 241.083 43.6918C241.171 42.5153 241.101 41.2626 241.101 40.086C241.013 38.2916 240.287 33.924 239.85 31.7572C240.384 30.1744 246.163 25.7983 248.096 22.8104C248.192 22.6665 248.253 22.5057 248.288 22.3449C248.437 21.5323 248.437 19.6702 248.305 19.0269C246.224 18.9253 239.404 18.7222 235.356 18.3667C233.651 18.2143 231.447 10.715 229.113 8.01485C228.851 7.71014 228.492 7.54932 228.081 7.54932Z" fill="url(#paint0_radial_46_1283)"/>
<path fill-rule="evenodd" clip-rule="evenodd" d="M239.422 41.7535C239.824 41.8466 240.2 41.7789 240.532 41.5419C240.865 41.3049 241.057 40.9747 241.083 40.5854C241.337 37.0727 239.317 30.2336 239.85 28.6592C240.384 27.0764 246.163 22.7003 248.096 19.7124C248.314 19.3739 248.358 19.0014 248.236 18.6206C248.104 18.2397 247.842 17.9688 247.466 17.8164C244.091 16.496 236.755 16.2421 235.365 15.2687C233.974 14.2953 231.456 7.61698 229.122 4.91687C228.842 4.60369 228.492 4.44287 228.081 4.44287C227.67 4.44287 227.32 4.60369 227.049 4.90841C224.715 7.60852 222.197 14.2868 220.806 15.2602C219.416 16.2336 212.08 16.496 208.705 17.808C208.32 17.9603 208.058 18.2312 207.935 18.6121C207.813 18.993 207.857 19.3654 208.075 19.704C210.008 22.6919 215.787 27.0764 216.321 28.6507C216.854 30.2336 214.834 37.0642 215.088 40.5769C215.114 40.9747 215.306 41.3048 215.639 41.5334C215.971 41.7704 216.356 41.8381 216.749 41.745C220.282 40.8901 226.376 36.9203 228.09 36.9203C229.804 36.9203 235.898 40.8901 239.431 41.745L239.422 41.7535Z" fill="url(#paint1_radial_46_1283)"/>
<path style="mix-blend-mode:multiply" fill-rule="evenodd" clip-rule="evenodd" d="M246.714 19.5349C242.631 22.3704 240.34 24.0632 236.773 26.3401C236.292 26.6449 235.828 27.3051 236.003 27.8299C237.052 31.114 240.034 36.3703 240.244 39.6545C240.366 41.5843 238.67 41.0003 237.664 40.5855C234.211 39.1466 231.885 37.1152 228.58 35.4816C227.338 34.8637 226.411 35.0499 225.318 35.744C223.325 37.0051 219.766 40.0946 216.802 40.9918C215.962 41.2458 215.438 41.1865 215.105 40.8141C215.175 41.1103 215.35 41.3643 215.621 41.5505C215.954 41.7875 216.338 41.8552 216.732 41.7621C220.264 40.9072 226.359 36.9374 228.072 36.9374C229.786 36.9374 235.881 40.9072 239.413 41.7621C239.815 41.8552 240.191 41.7875 240.524 41.5505C240.856 41.3135 241.048 40.9834 241.074 40.594C241.328 37.0813 239.308 30.2422 239.842 28.6678C240.375 27.085 246.155 22.709 248.087 19.7211C248.306 19.3825 248.349 19.0101 248.227 18.6292C248.096 18.2483 247.833 17.9774 247.457 17.8251C244.082 16.5046 236.746 16.2507 235.356 15.2773C233.966 14.3039 231.448 7.6256 229.113 4.9255C228.851 4.62078 228.492 4.45996 228.081 4.45996C227.67 4.45996 227.32 4.62078 227.049 4.9255C226.682 5.34871 226.315 5.86503 225.948 6.4406C226.971 5.40796 228.029 4.76468 228.973 6.19514C230.731 8.85293 231.491 11.6969 232.436 14.3801C233.03 16.056 233.38 16.7416 236.79 16.9702C240.69 17.2326 243.934 17.4865 246.26 17.8674C247.536 18.079 247.571 18.9508 246.705 19.5433L246.714 19.5349Z" fill="url(#paint2_radial_46_1283)"/>
<path style="mix-blend-mode:screen" fill-rule="evenodd" clip-rule="evenodd" d="M225.825 7.19386C224.715 9.18297 223.753 11.3498 222.721 13.3728C221.838 15.0995 221.514 16.1152 219.311 16.4876C216.592 16.9363 213.811 17.0124 211.083 17.4441C208.128 17.9012 207.437 18.5529 209.579 20.8468C210.847 22.2095 216.662 27.2965 217.038 28.5493C217.379 29.6496 216.74 31.6726 216.688 32.9422C216.662 33.5432 216.898 34.4404 217.93 33.34C225.948 24.7657 227.994 23.166 239.658 19.3994C240.917 18.9931 242.202 18.6968 243.47 18.3244C243.82 18.2228 244.301 17.8843 243.252 17.7404C239.605 17.2579 236.685 17.6473 233.528 17.3679C232.121 17.241 231.22 15.6074 230.783 14.4647C229.865 12.0524 229.384 9.50461 228.51 7.08382C227.819 5.17936 226.551 5.87343 225.808 7.21079L225.825 7.19386Z" fill="url(#paint3_radial_46_1283)"/>
<path style="mix-blend-mode:screen" fill-rule="evenodd" clip-rule="evenodd" d="M216.496 18.3667C215.744 18.2228 215.936 17.4695 216.627 17.3086C217.746 17.0547 218.918 17.0039 220.037 16.75C221.174 16.4876 221.873 16.1236 222.546 14.7778C223.744 12.3824 224.96 9.3099 226.228 7.18536C226.691 6.42357 227.207 6.53361 227.084 7.39697C226.7 10.114 226.035 12.7041 225.239 15.4042C224.837 16.7669 224.391 18.2313 222.45 18.4513C221.034 18.6206 217.973 18.6545 216.496 18.3667ZM213.741 17.4949C212.858 17.5541 211.101 17.7657 210.017 18.1297C208.845 18.5275 209.09 18.773 210.156 18.8322C211.293 18.8915 212.439 18.883 213.575 18.8068C215.175 18.6883 214.957 17.4187 213.75 17.5033L213.741 17.4949Z" fill="url(#paint4_radial_46_1283)"/>
<path style="mix-blend-mode:screen" fill-rule="evenodd" clip-rule="evenodd" d="M236.711 38.5627C236.187 38.7743 234.91 39.0452 236.458 39.8662C237.114 40.2133 237.822 40.4757 238.539 40.6788C240.086 41.102 240.104 40.0271 239.868 38.9352C239.422 36.8191 238.416 34.3306 237.489 32.2738C237.061 31.3342 236.536 30.8433 236.703 32.3415C236.895 34.0343 237.201 35.7103 237.385 37.4031C237.463 38.1734 237.437 38.2834 236.72 38.5627H236.711Z" fill="url(#paint5_radial_46_1283)"/>
<path fill-rule="evenodd" clip-rule="evenodd" d="M216.198 31.5032C216.391 30.1997 216.487 29.1586 216.312 28.6508C215.779 27.0679 209.999 22.6919 208.067 19.704C207.927 19.4924 207.857 19.2554 207.857 19.0269C207.734 19.6786 207.726 21.5407 207.874 22.3449C207.9 22.5057 207.97 22.658 208.067 22.8104C209.903 25.6459 215.219 29.7511 216.198 31.5032Z" fill="url(#paint6_radial_46_1283)"/>
<path fill-rule="evenodd" clip-rule="evenodd" d="M248.087 19.704C246.155 22.6919 240.375 27.0764 239.842 28.6508C239.675 29.1586 239.763 30.1997 239.955 31.5032C240.926 29.7511 246.251 25.6459 248.087 22.8104C248.183 22.6665 248.244 22.5057 248.279 22.3449C248.428 21.5323 248.428 19.6701 248.297 19.0269C248.297 19.2639 248.227 19.4924 248.087 19.704Z" fill="url(#paint7_radial_46_1283)"/>
<path fill-rule="evenodd" clip-rule="evenodd" d="M239.422 41.7538C235.889 40.899 229.795 36.9292 228.081 36.9292C228.623 37.2424 228.614 39.6293 228.081 40.0356C229.795 40.0356 235.889 44.0053 239.422 44.8602C239.824 44.9533 240.2 44.8856 240.532 44.6486C240.864 44.4116 241.057 44.0815 241.083 43.6922C241.162 42.5495 241.101 41.3306 241.101 40.1795C241.101 40.3234 241.092 40.4588 241.083 40.5858C241.057 40.9836 240.864 41.3137 240.532 41.5422C240.2 41.7792 239.815 41.847 239.422 41.7538Z" fill="url(#paint8_radial_46_1283)"/>
<path style="mix-blend-mode:screen" opacity="0.5" fill-rule="evenodd" clip-rule="evenodd" d="M217.291 44.6991C217.073 44.2251 217.047 41.9736 217.256 41.6097C217.081 41.6604 216.907 41.7112 216.74 41.7536C216.338 41.8467 215.962 41.779 215.63 41.542C215.359 41.3557 215.184 41.1018 215.114 40.8056C215.097 40.7378 215.088 40.6617 215.079 40.5855C215.07 40.4585 215.062 40.3146 215.062 40.1792C215.062 41.3303 215 42.5492 215.079 43.6919C215.105 44.0897 215.298 44.4198 215.63 44.6483C215.962 44.8853 216.347 44.9531 216.74 44.86C216.915 44.8176 217.099 44.7668 217.291 44.7076V44.6991Z" fill="url(#paint9_radial_46_1283)"/>
<path style="mix-blend-mode:screen" opacity="0.5" fill-rule="evenodd" clip-rule="evenodd" d="M238.862 44.6991C239.081 44.2251 239.107 41.9736 238.897 41.6097C239.072 41.6604 239.247 41.7112 239.413 41.7536C239.815 41.8467 240.191 41.779 240.524 41.542C240.795 41.3557 240.969 41.1018 241.039 40.8056C241.057 40.7378 241.066 40.6617 241.074 40.5855C241.083 40.4585 241.092 40.3146 241.092 40.1792C241.092 41.3303 241.153 42.5492 241.074 43.6919C241.048 44.0897 240.856 44.4198 240.524 44.6483C240.191 44.8853 239.807 44.9531 239.413 44.86C239.238 44.8176 239.055 44.7668 238.862 44.7076V44.6991Z" fill="url(#paint10_radial_46_1283)"/>
<path style="mix-blend-mode:screen" opacity="0.5" fill-rule="evenodd" clip-rule="evenodd" d="M209.352 24.4357C208.923 23.4285 208.888 21.3378 209.378 21.3632C208.853 20.7791 208.408 20.2205 208.067 19.6957C207.927 19.4841 207.857 19.2471 207.857 19.0186C207.734 19.6703 207.726 21.5324 207.874 22.3366C207.9 22.4974 207.97 22.6497 208.067 22.8021C208.399 23.3099 208.836 23.8601 209.352 24.4357Z" fill="url(#paint11_radial_46_1283)"/>
<path style="mix-blend-mode:screen" opacity="0.5" fill-rule="evenodd" clip-rule="evenodd" d="M246.81 24.4357C247.239 23.4285 247.274 21.3378 246.784 21.3632C247.309 20.7791 247.755 20.2205 248.096 19.6957C248.236 19.4841 248.306 19.2471 248.306 19.0186C248.428 19.6703 248.437 21.5324 248.288 22.3366C248.262 22.4974 248.192 22.6497 248.096 22.8021C247.763 23.3099 247.326 23.8601 246.81 24.4357Z" fill="url(#paint12_radial_46_1283)"/>
</g>
<path d="M262.699 10.1615V14.9326H264.711C265.624 14.9326 266.364 14.7113 266.931 14.2688C267.512 13.8262 267.802 13.1694 267.802 12.2981C267.802 11.5098 267.546 10.9567 267.035 10.6386C266.523 10.3205 265.797 10.1615 264.857 10.1615H262.699ZM262.699 16.3432V21.7574H265.022C265.534 21.7574 265.997 21.709 266.412 21.6122C266.827 21.5015 267.187 21.3356 267.491 21.1143C267.795 20.8792 268.03 20.5888 268.196 20.2431C268.362 19.8973 268.445 19.4755 268.445 18.9777C268.445 18.0649 268.155 17.4011 267.574 16.9863C266.993 16.5575 266.073 16.3432 264.815 16.3432H262.699ZM260.791 8.75088H264.857C266.447 8.75088 267.65 9.03438 268.466 9.60138C269.296 10.1546 269.711 11.0189 269.711 12.1944C269.711 13.1624 269.448 13.9161 268.922 14.4555C268.397 14.981 267.692 15.3406 266.806 15.5342C269.227 15.8522 270.437 16.9863 270.437 18.9362C270.437 19.6553 270.298 20.2846 270.022 20.8239C269.759 21.3494 269.386 21.785 268.902 22.1308C268.418 22.4765 267.844 22.7393 267.18 22.919C266.516 23.085 265.797 23.168 265.022 23.168H260.791V8.75088ZM276.052 22.0893C276.785 22.0893 277.365 21.9095 277.794 21.5499C278.237 21.1765 278.562 20.7547 278.769 20.2846V18.3139H277.856C276.515 18.3139 275.547 18.4591 274.952 18.7495C274.371 19.0261 274.081 19.5654 274.081 20.3675C274.081 20.9345 274.275 21.3632 274.662 21.6537C275.063 21.9441 275.526 22.0893 276.052 22.0893ZM279.101 23.168C279.046 22.9744 278.997 22.7462 278.956 22.4834C278.914 22.2207 278.88 21.9372 278.852 21.6329C278.728 21.8404 278.575 22.0478 278.396 22.2552C278.23 22.4627 278.022 22.6494 277.773 22.8153C277.524 22.9813 277.227 23.1127 276.881 23.2095C276.536 23.3201 276.135 23.3754 275.678 23.3754C275.222 23.3754 274.793 23.3132 274.392 23.1887C273.991 23.0642 273.631 22.8776 273.313 22.6286C273.009 22.3797 272.767 22.0755 272.587 21.7159C272.408 21.3563 272.318 20.9414 272.318 20.4712C272.318 19.3372 272.767 18.5144 273.666 18.0027C274.579 17.4772 275.92 17.2144 277.69 17.2144H278.769V16.3639C278.769 15.5203 278.589 14.8911 278.23 14.4762C277.87 14.0613 277.234 13.8539 276.321 13.8539C275.699 13.8539 275.132 13.9715 274.62 14.2066C274.122 14.4278 273.68 14.6975 273.293 15.0156L272.816 13.5635C272.982 13.439 273.196 13.3146 273.459 13.1901C273.721 13.0656 274.019 12.955 274.351 12.8582C274.683 12.7614 275.035 12.6853 275.409 12.63C275.782 12.5609 276.162 12.5263 276.549 12.5263C277.863 12.5263 278.852 12.8167 279.516 13.3975C280.194 13.9645 280.532 14.8704 280.532 16.115V21.4877C280.532 21.7228 280.546 22.0201 280.574 22.3797C280.601 22.7254 280.636 22.9882 280.678 23.168H279.101ZM283.373 12.7337H285.137V21.9233H288.995V12.7337H290.779V21.9233H294.637V12.7337H296.401V23.168H283.373V12.7337ZM302.427 22.0893C303.16 22.0893 303.741 21.9095 304.17 21.5499C304.612 21.1765 304.937 20.7547 305.145 20.2846V18.3139H304.232C302.891 18.3139 301.923 18.4591 301.328 18.7495C300.747 19.0261 300.457 19.5654 300.457 20.3675C300.457 20.9345 300.65 21.3632 301.037 21.6537C301.439 21.9441 301.902 22.0893 302.427 22.0893ZM305.477 23.168C305.421 22.9744 305.373 22.7462 305.331 22.4834C305.29 22.2207 305.255 21.9372 305.228 21.6329C305.103 21.8404 304.951 22.0478 304.771 22.2552C304.605 22.4627 304.398 22.6494 304.149 22.8153C303.9 22.9813 303.603 23.1127 303.257 23.2095C302.911 23.3201 302.51 23.3754 302.054 23.3754C301.598 23.3754 301.169 23.3132 300.768 23.1887C300.367 23.0642 300.007 22.8776 299.689 22.6286C299.385 22.3797 299.143 22.0755 298.963 21.7159C298.783 21.3563 298.693 20.9414 298.693 20.4712C298.693 19.3372 299.143 18.5144 300.042 18.0027C300.954 17.4772 302.296 17.2144 304.066 17.2144H305.145V16.3639C305.145 15.5203 304.965 14.8911 304.605 14.4762C304.246 14.0613 303.61 13.8539 302.697 13.8539C302.075 13.8539 301.508 13.9715 300.996 14.2066C300.498 14.4278 300.056 14.6975 299.668 15.0156L299.191 13.5635C299.357 13.439 299.572 13.3146 299.834 13.1901C300.097 13.0656 300.394 12.955 300.726 12.8582C301.058 12.7614 301.411 12.6853 301.784 12.63C302.158 12.5609 302.538 12.5263 302.925 12.5263C304.239 12.5263 305.228 12.8167 305.892 13.3975C306.569 13.9645 306.908 14.8704 306.908 16.115V21.4877C306.908 21.7228 306.922 22.0201 306.95 22.3797C306.977 22.7254 307.012 22.9882 307.053 23.168H305.477ZM264.981 40.3754C264.303 40.3754 263.66 40.2579 263.052 40.0228C262.443 39.7738 261.911 39.4212 261.454 38.9648C260.998 38.4946 260.632 37.9276 260.355 37.2638C260.092 36.5862 259.961 35.8117 259.961 34.9405C259.961 34.0692 260.092 33.3017 260.355 32.6379C260.632 31.9603 260.998 31.3932 261.454 30.9369C261.911 30.4805 262.443 30.1348 263.052 29.8997C263.66 29.6508 264.303 29.5263 264.981 29.5263C265.659 29.5263 266.302 29.6508 266.91 29.8997C267.532 30.1348 268.072 30.4805 268.528 30.9369C268.998 31.3932 269.372 31.9603 269.648 32.6379C269.925 33.3017 270.063 34.0692 270.063 34.9405C270.063 35.8117 269.925 36.5862 269.648 37.2638C269.372 37.9276 268.998 38.4946 268.528 38.9648C268.072 39.4212 267.532 39.7738 266.91 40.0228C266.302 40.2579 265.659 40.3754 264.981 40.3754ZM264.981 39.0685C265.396 39.0685 265.797 38.9994 266.184 38.8611C266.585 38.709 266.938 38.467 267.242 38.1351C267.546 37.8032 267.788 37.3744 267.968 36.8489C268.162 36.3234 268.259 35.6873 268.259 34.9405C268.259 34.1937 268.162 33.5645 267.968 33.0528C267.788 32.5273 267.546 32.0985 267.242 31.7666C266.938 31.4347 266.585 31.1996 266.184 31.0613C265.797 30.9092 265.396 30.8332 264.981 30.8332C264.566 30.8332 264.165 30.9092 263.778 31.0613C263.404 31.1996 263.066 31.4347 262.761 31.7666C262.457 32.0985 262.215 32.5273 262.035 33.0528C261.856 33.5645 261.766 34.1937 261.766 34.9405C261.766 35.6873 261.856 36.3234 262.035 36.8489C262.215 37.3744 262.457 37.8032 262.761 38.1351C263.066 38.467 263.404 38.709 263.778 38.8611C264.165 38.9994 264.566 39.0685 264.981 39.0685ZM281.293 43.4663L280.94 40.168H272.394V29.7337H274.157V38.9233H279.301V29.7337H281.065V38.9233H282.641V43.4663H281.293ZM288.495 30.7917C287.748 30.7917 287.105 31.0544 286.566 31.5799C286.04 32.1055 285.708 32.9006 285.57 33.9655H290.86C290.943 32.8868 290.756 32.0916 290.3 31.5799C289.857 31.0544 289.256 30.7917 288.495 30.7917ZM292.333 39.276C291.959 39.5941 291.475 39.8568 290.881 40.0642C290.286 40.2717 289.608 40.3754 288.848 40.3754C287.188 40.3754 285.916 39.9052 285.031 38.9648C284.146 38.0106 283.703 36.6691 283.703 34.9405C283.703 34.0969 283.828 33.3432 284.076 32.6794C284.325 32.0017 284.664 31.4278 285.093 30.9576C285.535 30.4874 286.047 30.1348 286.628 29.8997C287.223 29.6508 287.859 29.5263 288.536 29.5263C289.242 29.5263 289.871 29.6508 290.424 29.8997C290.991 30.1348 291.454 30.4943 291.814 30.9784C292.187 31.4486 292.436 32.0432 292.561 32.7624C292.699 33.4677 292.699 34.2836 292.561 35.2101H285.508C285.591 37.7133 286.759 38.9648 289.014 38.9648C289.608 38.9648 290.141 38.8749 290.611 38.6951C291.081 38.5154 291.517 38.2872 291.918 38.0106L292.333 39.276ZM301.806 35.3968H296.744V40.168H294.981V29.7337H296.744V34.1522H301.806V29.7337H303.569V40.168H301.806V35.3968ZM312.897 40.168L308.541 34.6086L312.835 29.7337H314.681L310.428 34.4011L314.971 40.168H312.897ZM308.271 29.7337V40.168H306.508V29.7337H308.271ZM319.707 39.0893C320.44 39.0893 321.021 38.9095 321.45 38.5499C321.892 38.1765 322.217 37.7547 322.425 37.2846V35.3139H321.512C320.171 35.3139 319.202 35.4591 318.608 35.7495C318.027 36.0261 317.737 36.5654 317.737 37.3675C317.737 37.9345 317.93 38.3632 318.317 38.6537C318.718 38.9441 319.182 39.0893 319.707 39.0893ZM322.757 40.168C322.701 39.9744 322.653 39.7462 322.611 39.4834C322.57 39.2207 322.535 38.9372 322.508 38.6329C322.383 38.8404 322.231 39.0478 322.051 39.2552C321.885 39.4627 321.678 39.6494 321.429 39.8153C321.18 39.9813 320.883 40.1127 320.537 40.2095C320.191 40.3201 319.79 40.3754 319.334 40.3754C318.877 40.3754 318.449 40.3132 318.048 40.1887C317.647 40.0642 317.287 39.8776 316.969 39.6286C316.665 39.3797 316.423 39.0755 316.243 38.7159C316.063 38.3563 315.973 37.9414 315.973 37.4712C315.973 36.3372 316.423 35.5144 317.322 35.0027C318.234 34.4772 319.576 34.2144 321.346 34.2144H322.425V33.3639C322.425 32.5203 322.245 31.8911 321.885 31.4762C321.526 31.0613 320.89 30.8539 319.977 30.8539C319.355 30.8539 318.788 30.9715 318.276 31.2066C317.778 31.4278 317.336 31.6975 316.948 32.0156L316.471 30.5635C316.637 30.439 316.851 30.3146 317.114 30.1901C317.377 30.0656 317.674 29.955 318.006 29.8582C318.338 29.7614 318.691 29.6853 319.064 29.63C319.438 29.5609 319.818 29.5263 320.205 29.5263C321.519 29.5263 322.508 29.8167 323.172 30.3975C323.849 30.9645 324.188 31.8704 324.188 33.115V38.4877C324.188 38.7228 324.202 39.0201 324.229 39.3797C324.257 39.7254 324.292 39.9882 324.333 40.168H322.757Z" fill="#C0C6CC"/>
<defs>
<radialGradient id="paint0_radial_46_1283" cx="0" cy="0" r="1" gradientUnits="userSpaceOnUse" gradientTransform="translate(215.42 45.2323) scale(17.0242 16.48)">
<stop stop-color="#FC8200"/>
<stop offset="1" stop-color="#E34F00"/>
</radialGradient>
<radialGradient id="paint1_radial_46_1283" cx="0" cy="0" r="1" gradientUnits="userSpaceOnUse" gradientTransform="translate(219.74 12.8225) scale(37.6333 36.4303)">
<stop stop-color="#FCF800"/>
<stop offset="1" stop-color="#FC9700"/>
</radialGradient>
<radialGradient id="paint2_radial_46_1283" cx="0" cy="0" r="1" gradientUnits="userSpaceOnUse" gradientTransform="translate(220.658 11.206) scale(39.181 37.9285)">
<stop stop-color="white"/>
<stop offset="0.1" stop-color="#FFFCF9"/>
<stop offset="0.22" stop-color="#FFF6E9"/>
<stop offset="0.36" stop-color="#FFECCE"/>
<stop offset="0.51" stop-color="#FFDEA9"/>
<stop offset="0.67" stop-color="#FFCB7A"/>
<stop offset="0.84" stop-color="#FFB540"/>
<stop offset="1" stop-color="#FF9D00"/>
</radialGradient>
<radialGradient id="paint3_radial_46_1283" cx="0" cy="0" r="1" gradientUnits="userSpaceOnUse" gradientTransform="translate(215.28 5.94961) scale(33.3226 32.2574)">
<stop stop-color="#FFF261"/>
<stop offset="0.11" stop-color="#FAED5F"/>
<stop offset="0.23" stop-color="#ECE05A"/>
<stop offset="0.36" stop-color="#D6CB51"/>
<stop offset="0.5" stop-color="#B6AD45"/>
<stop offset="0.64" stop-color="#8E8636"/>
<stop offset="0.78" stop-color="#5C5723"/>
<stop offset="0.92" stop-color="#22210D"/>
<stop offset="1"/>
</radialGradient>
<radialGradient id="paint4_radial_46_1283" cx="0" cy="0" r="1" gradientUnits="userSpaceOnUse" gradientTransform="translate(220.675 9.74157) scale(19.7872 19.1547)">
<stop stop-color="#FFFACF"/>
<stop offset="1"/>
</radialGradient>
<radialGradient id="paint5_radial_46_1283" cx="0" cy="0" r="1" gradientUnits="userSpaceOnUse" gradientTransform="translate(227.207 34.6692) scale(23.6957 22.9382)">
<stop/>
<stop offset="0.17" stop-color="#251B00"/>
<stop offset="0.54" stop-color="#846100"/>
<stop offset="1" stop-color="#FFBB00"/>
</radialGradient>
<radialGradient id="paint6_radial_46_1283" cx="0" cy="0" r="1" gradientUnits="userSpaceOnUse" gradientTransform="translate(209.404 20.8297) scale(11.7517 11.376)">
<stop stop-color="#FCAC00"/>
<stop offset="1" stop-color="#E36600"/>
</radialGradient>
<radialGradient id="paint7_radial_46_1283" cx="0" cy="0" r="1" gradientUnits="userSpaceOnUse" gradientTransform="translate(267.586 31.2154) scale(28.155 27.255)">
<stop stop-color="#FCAC00"/>
<stop offset="1" stop-color="#E36600"/>
</radialGradient>
<radialGradient id="paint8_radial_46_1283" cx="0" cy="0" r="1" gradientUnits="userSpaceOnUse" gradientTransform="translate(243.243 40.2218) scale(14.9694 14.4909)">
<stop stop-color="#FCAC00"/>
<stop offset="1" stop-color="#FF6600"/>
</radialGradient>
<radialGradient id="paint9_radial_46_1283" cx="0" cy="0" r="1" gradientUnits="userSpaceOnUse" gradientTransform="translate(213.444 38.2917) scale(8.38531 8.11725)">
<stop stop-color="#FFF261"/>
<stop offset="0.11" stop-color="#FAED5F"/>
<stop offset="0.23" stop-color="#ECE05A"/>
<stop offset="0.36" stop-color="#D6CB51"/>
<stop offset="0.5" stop-color="#B6AD45"/>
<stop offset="0.64" stop-color="#8E8636"/>
<stop offset="0.78" stop-color="#5C5723"/>
<stop offset="0.92" stop-color="#22210D"/>
<stop offset="1"/>
</radialGradient>
<radialGradient id="paint10_radial_46_1283" cx="0" cy="0" r="1" gradientUnits="userSpaceOnUse" gradientTransform="translate(243.785 38.8672) scale(8.7438 8.46429)">
<stop stop-color="#FFF261"/>
<stop offset="0.11" stop-color="#FAED5F"/>
<stop offset="0.23" stop-color="#ECE05A"/>
<stop offset="0.36" stop-color="#D6CB51"/>
<stop offset="0.5" stop-color="#B6AD45"/>
<stop offset="0.64" stop-color="#8E8636"/>
<stop offset="0.78" stop-color="#5C5723"/>
<stop offset="0.92" stop-color="#22210D"/>
<stop offset="1"/>
</radialGradient>
<radialGradient id="paint11_radial_46_1283" cx="0" cy="0" r="1" gradientUnits="userSpaceOnUse" gradientTransform="translate(208.04 18.5107) scale(5.88458 5.69647)">
<stop stop-color="#FFF261"/>
<stop offset="0.11" stop-color="#FAED5F"/>
<stop offset="0.23" stop-color="#ECE05A"/>
<stop offset="0.36" stop-color="#D6CB51"/>
<stop offset="0.5" stop-color="#B6AD45"/>
<stop offset="0.64" stop-color="#8E8636"/>
<stop offset="0.78" stop-color="#5C5723"/>
<stop offset="0.92" stop-color="#22210D"/>
<stop offset="1"/>
</radialGradient>
<radialGradient id="paint12_radial_46_1283" cx="0" cy="0" r="1" gradientUnits="userSpaceOnUse" gradientTransform="translate(250.133 18.2229) scale(7.72078 7.47397)">
<stop stop-color="#FFF261"/>
<stop offset="0.11" stop-color="#FAED5F"/>
<stop offset="0.23" stop-color="#ECE05A"/>
<stop offset="0.36" stop-color="#D6CB51"/>
<stop offset="0.5" stop-color="#B6AD45"/>
<stop offset="0.64" stop-color="#8E8636"/>
<stop offset="0.78" stop-color="#5C5723"/>
<stop offset="0.92" stop-color="#22210D"/>
<stop offset="1"/>
</radialGradient>
<clipPath id="clip0_46_1283">
<rect width="40.6237" height="40.4508" fill="white" transform="translate(207.769 4.44238)"/>
</clipPath>
</defs>
</svg>
