<svg width="213" height="49" viewBox="0 0 213 49" fill="none" xmlns="http://www.w3.org/2000/svg">
<g clip-path="url(#clip0_46_1315)">
<path fill-rule="evenodd" clip-rule="evenodd" d="M14.5521 0.671875C14.0796 0.675404 13.4867 0.681546 12.681 0.691358C11.395 0.725311 10.4194 0.803099 9.4633 0.972934C8.29831 1.17955 7.24358 1.51964 6.23516 2.02759C5.21036 2.54261 4.27189 3.21651 3.45765 4.02228C2.64434 4.82543 1.96182 5.75409 1.43834 6.77028C0.92382 7.76945 0.579279 8.81465 0.368361 9.97195C0.196126 10.9192 0.117984 11.882 0.0838192 13.1406L0.0721018 13.6649C0.0689959 13.8449 0.0665956 14.0312 0.0649015 14.2273L0.0593262 15.3662L0.0593962 33.9939L0.062855 34.8062C0.0655373 35.3234 0.0719604 35.7685 0.0838192 36.1961C0.118055 37.4537 0.196196 38.4167 0.36829 39.3626C0.579349 40.5208 0.923961 41.5666 1.43827 42.5653C1.96196 43.5809 2.6442 44.5093 3.45822 45.314C4.27323 46.1197 5.21177 46.7939 6.23636 47.3087C7.24358 47.8161 8.29831 48.1562 9.46373 48.3628C10.3325 48.5172 11.2178 48.5955 12.3225 48.6338L13.1505 48.6539C13.581 48.6599 14.2173 48.6633 15.4876 48.6672L33.5015 48.6644C33.979 48.6611 34.5561 48.6551 35.4375 48.6444C36.7236 48.6104 37.6992 48.5327 38.6553 48.3628C39.8203 48.1562 40.875 47.8161 41.8834 47.3082C42.9072 46.7932 43.8461 46.1189 44.6603 45.314C45.4749 44.5088 46.1572 43.58 46.6796 42.565C47.1945 41.5667 47.5394 40.5202 47.7496 39.3619C47.9061 38.5015 47.9856 37.6243 48.0243 36.5301L48.0348 36.1952C48.0419 35.9392 48.047 35.6765 48.0506 35.396L48.0589 33.1881L48.0576 14.9279L48.0506 13.9398C48.047 13.6592 48.0419 13.3963 48.0347 13.1397C48.0007 11.8871 47.9218 10.9205 47.7495 9.97258C47.5395 8.81515 47.1947 7.76924 46.679 6.76957C46.1573 5.75501 45.4747 4.82592 44.6597 4.02115C43.8475 3.21729 42.9086 2.54324 41.8826 2.02724C40.875 1.51964 39.8203 1.17955 38.6549 0.972864C37.786 0.818558 36.9008 0.740206 35.796 0.702017L34.8452 0.680275C34.7695 0.679357 34.6876 0.678511 34.5976 0.677734L14.5521 0.671875Z" fill="#1A1A1A" fill-opacity="0.01"/>
<path fill-rule="evenodd" clip-rule="evenodd" d="M12.6981 2.10284L14.6305 2.08301L34.7363 2.09077C35.0411 2.09388 35.2307 2.09769 35.4203 2.10284C36.417 2.12931 37.4225 2.18769 38.4083 2.36282C39.409 2.54028 40.3396 2.83061 41.2482 3.2883C42.1411 3.73738 42.9591 4.32425 43.6677 5.02562C44.3764 5.72529 44.97 6.53324 45.4243 7.41666C45.888 8.31567 46.181 9.23571 46.3605 10.225C46.5376 11.1995 46.5967 12.1934 46.6234 13.1788C46.636 13.631 46.6415 14.0833 46.6439 14.5363L46.6466 15.3416L46.6471 33.188C46.6471 33.7251 46.6471 34.2621 46.6439 34.8C46.6415 35.2522 46.636 35.7045 46.6234 36.1567C46.5967 37.1413 46.5376 38.136 46.3605 39.1097C46.181 40.099 45.888 41.0198 45.4243 41.9188C44.97 42.8015 44.3764 43.6094 43.6677 44.3099C42.9591 45.0105 42.1411 45.5981 41.2482 46.0472C40.3396 46.5049 39.409 46.7952 38.4083 46.9727C37.4225 47.1478 36.417 47.2062 35.4203 47.2327L32.4173 47.256L13.3816 47.2447C13.0767 47.2416 12.8875 47.2378 12.6981 47.2327C11.7014 47.2062 10.6959 47.1478 9.71013 46.9727C8.70947 46.7952 7.77884 46.5049 6.87023 46.0472C5.97658 45.5981 5.15931 45.0105 4.45068 44.3099C3.74211 43.6094 3.14839 42.8015 2.69331 41.9188C2.23039 41.0198 1.93745 40.099 1.75717 39.1097C1.57999 38.136 1.52176 37.1413 1.495 36.1567C1.48237 35.7045 1.47686 35.2522 1.47453 34.8L1.47108 33.9937L1.47058 16.1475C1.47058 15.6104 1.47058 15.0726 1.47453 14.5363C1.47686 14.0833 1.48237 13.631 1.495 13.1788C1.52176 12.1934 1.57999 11.1995 1.75717 10.225C1.93745 9.23571 2.23039 8.31567 2.69331 7.41666C3.14839 6.53324 3.74211 5.72529 4.45068 5.02562C5.15931 4.32425 5.97658 3.73738 6.87023 3.2883C7.77884 2.83061 8.70947 2.54028 9.71013 2.36282C10.6959 2.18769 11.7014 2.12931 12.6981 2.10284Z" fill="#1A1A1A" fill-opacity="0.01"/>
<mask id="mask0_46_1315" style="mask-type:alpha" maskUnits="userSpaceOnUse" x="1" y="2" width="46" height="46">
<path fill-rule="evenodd" clip-rule="evenodd" d="M12.6981 2.10284L14.6305 2.08301L34.7363 2.09077C35.0411 2.09388 35.2307 2.09769 35.4203 2.10284C36.417 2.12931 37.4225 2.18769 38.4083 2.36282C39.409 2.54028 40.3396 2.83061 41.2482 3.2883C42.1411 3.73738 42.9591 4.32425 43.6677 5.02562C44.3764 5.72529 44.97 6.53324 45.4243 7.41666C45.888 8.31567 46.181 9.23571 46.3605 10.225C46.5376 11.1995 46.5967 12.1934 46.6234 13.1788C46.636 13.631 46.6415 14.0833 46.6439 14.5363L46.6466 15.3416L46.6471 33.188C46.6471 33.7251 46.6471 34.2621 46.6439 34.8C46.6415 35.2522 46.636 35.7045 46.6234 36.1567C46.5967 37.1413 46.5376 38.136 46.3605 39.1097C46.181 40.099 45.888 41.0198 45.4243 41.9188C44.97 42.8015 44.3764 43.6094 43.6677 44.3099C42.9591 45.0105 42.1411 45.5981 41.2482 46.0472C40.3396 46.5049 39.409 46.7952 38.4083 46.9727C37.4225 47.1478 36.417 47.2062 35.4203 47.2327L32.4173 47.256L13.3816 47.2447C13.0767 47.2416 12.8875 47.2378 12.6981 47.2327C11.7014 47.2062 10.6959 47.1478 9.71013 46.9727C8.70947 46.7952 7.77884 46.5049 6.87023 46.0472C5.97658 45.5981 5.15931 45.0105 4.45068 44.3099C3.74211 43.6094 3.14839 42.8015 2.69331 41.9188C2.23039 41.0198 1.93745 40.099 1.75717 39.1097C1.57999 38.136 1.52176 37.1413 1.495 36.1567C1.48237 35.7045 1.47686 35.2522 1.47453 34.8L1.47108 33.9937L1.47058 16.1475C1.47058 15.6104 1.47058 15.0726 1.47453 14.5363C1.47686 14.0833 1.48237 13.631 1.495 13.1788C1.52176 12.1934 1.57999 11.1995 1.75717 10.225C1.93745 9.23571 2.23039 8.31567 2.69331 7.41666C3.14839 6.53324 3.74211 5.72529 4.45068 5.02562C5.15931 4.32425 5.97658 3.73738 6.87023 3.2883C7.77884 2.83061 8.70947 2.54028 9.71013 2.36282C10.6959 2.18769 11.7014 2.12931 12.6981 2.10284Z" fill="white"/>
</mask>
<g mask="url(#mask0_46_1315)">
<path d="M46.6471 2.07959H1.47058V47.2561H46.6471V2.07959Z" fill="#19AA1E"/>
<path fill-rule="evenodd" clip-rule="evenodd" d="M1.47058 2.07959H46.6471V16.9031L1.47058 9.8443V2.07959Z" fill="#FFB919"/>
<path fill-rule="evenodd" clip-rule="evenodd" d="M1.47058 42.3152L46.6471 35.2563V47.2563H1.47058V42.3152Z" fill="#82D714"/>
<path fill-rule="evenodd" clip-rule="evenodd" d="M1.47058 8.95117L17.2398 11.4151C19.2028 10.1725 21.5381 9.49124 24.0588 9.49124C27.5501 9.49124 30.6859 10.7982 32.9691 13.0931C33.2572 13.3828 33.529 13.6856 33.7838 14.0001L46.6471 16.0099V17.796L35.09 15.9903C35.9486 17.638 36.4118 19.4738 36.4118 21.3472C36.4118 23.7676 35.8703 26.1808 34.7513 28.6036L34.7172 28.6771L34.2419 29.6955H33.118C30.7973 29.6955 29.2579 30.3897 28.2514 31.62C27.4611 32.586 27.0041 33.8882 26.8504 35.3091L26.8457 35.3535L26.8232 35.5805L26.8137 35.6793L26.7954 35.8725C26.7366 36.5068 26.6972 37.0448 26.6772 37.4832L46.6471 34.3629V36.149L1.47058 43.2078V41.4217L21.4629 38.2979L21.4541 37.8969L21.4515 37.7838L21.4498 37.7258L21.4468 37.6363C21.4287 37.1501 21.3842 36.5268 21.3128 35.7715L21.2991 35.6282L21.2747 35.3802C21.1312 33.9518 20.681 32.6331 19.8928 31.6528C18.8969 30.4141 17.3716 29.7097 15.0695 29.6957L14.9996 29.6955H13.8757L13.4004 28.6771C12.2582 26.2295 11.7059 23.7921 11.7059 21.3472C11.7059 18.2728 12.9532 15.2998 15.1485 13.0931C15.2119 13.0295 15.2759 12.9665 15.3406 12.9044L1.47058 10.7372V8.95117Z" fill="white"/>
<path fill-rule="evenodd" clip-rule="evenodd" d="M24.0588 11.2563C30.3659 11.2563 34.6471 16.1109 34.6471 21.3476C34.6471 23.45 34.1884 25.6377 33.118 27.9312C26.9119 27.9312 25.38 32.3757 25.0904 35.1721L25.0718 35.3585C24.9737 36.3565 24.9169 37.1574 24.9014 37.7611L23.2204 38.0237L23.22 37.9693C23.2137 37.3365 23.1539 36.4488 23.0406 35.3062L23.0356 35.2563C22.7681 32.4659 21.2684 27.9312 14.9996 27.9312C13.9293 25.6377 13.4706 23.45 13.4706 21.3476C13.4706 16.1109 17.7518 11.2563 24.0588 11.2563Z" fill="#0073FA"/>
</g>
<path fill-rule="evenodd" clip-rule="evenodd" d="M67.5411 13.021C62.0353 13.021 57.9058 16.3739 57.9411 22.1975H63.0588C62.9882 19.8681 64.4706 17.6092 67.5411 17.6092C69.8706 17.6092 71.3529 19.1622 71.3529 21.1386C71.3529 23.1857 69.7294 24.3151 67.1176 25.5857C63.6941 27.2445 61.647 28.021 57.9411 29.2563V35.9622H77V31.3739H64.8588C66.6277 30.6365 68.3501 29.8267 69.9058 29.0798C74.0353 27.1033 76.4706 24.8798 76.4706 20.8916C76.4706 16.0916 72.8706 13.021 67.5411 13.021ZM84.7647 17.9622H94.647V13.3739H79.8235V35.9622H84.7647V17.9622ZM102.412 13.3739H97.4706V35.9622H102.376L111.588 21.5269V35.9622H116.529V13.3739H111.588L102.412 27.8092V13.3739ZM141.341 27.4916H136.223C135.447 29.9975 133.082 31.7269 130.294 31.7269C126.235 31.7269 123.588 28.2328 123.588 24.6681C123.588 21.1033 126.165 17.6092 130.435 17.6092C133.259 17.6092 135.447 19.3386 136.223 21.8445H141.341C140.6 16.7975 136.612 13.021 130.294 13.021C123.306 13.021 118.647 17.9269 118.647 24.6681C118.647 31.4092 123.306 36.3151 130.294 36.3151C136.612 36.3151 140.6 32.6092 141.341 27.4916Z" fill="#1A1A1A"/>
</g>
<path d="M170.48 38.668V33.4198H158.5V29.9971L171.24 11.8568H175.196V29.6929H179.037V33.4198H175.196V38.668H170.48ZM170.48 29.6929V17.6374H171.393L162.151 30.8338V29.6929H170.48ZM184.118 43.726L182.178 42.2048C182.99 41.3681 183.547 40.5821 183.852 39.8469C184.181 39.137 184.346 38.3764 184.346 37.5651L185.373 38.668H181.798V33.3818H187.122V36.8806C187.122 38.1736 186.894 39.3525 186.438 40.4173C186.007 41.5075 185.233 42.6104 184.118 43.726ZM200.777 39.0483C199.61 39.0483 198.444 38.9215 197.278 38.668C196.137 38.4144 195.06 38.0595 194.045 37.6031C193.057 37.1468 192.207 36.6017 191.497 35.9678L193.095 32.2789C194.286 33.1663 195.503 33.8382 196.745 34.2945C198.013 34.7255 199.332 34.941 200.701 34.941C202.349 34.941 203.629 34.5354 204.542 33.7241C205.48 32.8874 205.949 31.7719 205.949 30.3774C205.949 28.9576 205.505 27.8167 204.618 26.9547C203.73 26.0674 202.513 25.6237 200.967 25.6237C199.877 25.6237 198.875 25.8392 197.962 26.2702C197.075 26.6758 196.276 27.3097 195.567 28.1717H192.334V11.8568H208.991V15.888H196.974V24.4067H195.795C196.454 23.5194 197.329 22.8348 198.419 22.3531C199.534 21.8714 200.777 21.6305 202.146 21.6305C203.87 21.6305 205.366 21.9855 206.633 22.6954C207.901 23.4053 208.89 24.4067 209.6 25.6997C210.31 26.9674 210.664 28.4633 210.664 30.1873C210.664 31.9367 210.259 33.4832 209.448 34.8269C208.662 36.1453 207.521 37.1848 206.025 37.9454C204.554 38.6806 202.805 39.0483 200.777 39.0483Z" fill="#1A1A1A"/>
<defs>
<clipPath id="clip0_46_1315">
<rect width="141.882" height="48" fill="white" transform="translate(0.0588379 0.667969)"/>
</clipPath>
</defs>
</svg>
