<svg width="41" height="40" viewBox="0 0 41 40" fill="none" xmlns="http://www.w3.org/2000/svg">
<path d="M31.4333 19.3548C31.4333 19.0126 31.3016 18.6844 31.0672 18.4424C30.8327 18.2004 30.5148 18.0645 30.1833 18.0645L13.1958 18.0645L14.8208 16.4C15.0562 16.157 15.1884 15.8275 15.1884 15.4838C15.1884 15.1402 15.0562 14.8107 14.8208 14.5677C14.5854 14.3247 14.2662 14.1882 13.9333 14.1882C13.6004 14.1882 13.2812 14.3247 13.0458 14.5677L9.29578 18.4387C9.12233 18.6201 9.00484 18.8506 8.95812 19.1009C8.9114 19.3512 8.93756 19.6102 9.03328 19.8451C9.12705 20.0808 9.2863 20.2825 9.49095 20.4249C9.6956 20.5672 9.9365 20.6439 10.1833 20.6451L30.1833 20.6451C30.5148 20.6451 30.8327 20.5092 31.0672 20.2672C31.3016 20.0252 31.4333 19.697 31.4333 19.3548Z" fill="#1B1B1B"/>
<path d="M15.1838 23.2258C15.1848 23.056 15.1532 22.8876 15.091 22.7304C15.0288 22.5732 14.9372 22.4302 14.8213 22.3097L11.0713 18.4387C10.8359 18.1957 10.5167 18.0592 10.1838 18.0592C10.019 18.0592 9.85579 18.0927 9.70351 18.1578C9.55124 18.223 9.41287 18.3184 9.29633 18.4387C9.17978 18.559 9.08733 18.7018 9.02425 18.859C8.96118 19.0162 8.92871 19.1847 8.92871 19.3548C8.92871 19.6984 9.06095 20.028 9.29633 20.271L13.0463 24.1419C13.1625 24.2629 13.3008 24.3589 13.4531 24.4244C13.6054 24.4899 13.7688 24.5236 13.9338 24.5236C14.0988 24.5236 14.2622 24.4899 14.4145 24.4244C14.5669 24.3589 14.7051 24.2629 14.8213 24.1419C14.9372 24.0213 15.0288 23.8784 15.091 23.7212C15.1532 23.5639 15.1848 23.3956 15.1838 23.2258Z" fill="#1B1B1B"/>
</svg>
