<svg width="40" height="40" viewBox="0 0 40 41" fill="none" xmlns="http://www.w3.org/2000/svg">
<path d="M8.75001 19.523C8.75001 19.1808 8.8817 18.8526 9.11612 18.6106C9.35055 18.3686 9.66849 18.2327 10 18.2327L26.9875 18.2327L25.3625 16.5682C25.1271 16.3252 24.9949 15.9957 24.9949 15.652C24.9949 15.3084 25.1271 14.9789 25.3625 14.7359C25.5979 14.4929 25.9171 14.3564 26.25 14.3564C26.5829 14.3564 26.9021 14.4929 27.1375 14.7359L30.8875 18.6069C31.061 18.7883 31.1785 19.0188 31.2252 19.2691C31.2719 19.5194 31.2457 19.7784 31.15 20.0133C31.0562 20.249 30.897 20.4507 30.6923 20.5931C30.4877 20.7354 30.2468 20.8121 30 20.8133L10 20.8133C9.66849 20.8133 9.35055 20.6774 9.11612 20.4354C8.8817 20.1934 8.75001 19.8652 8.75001 19.523Z" fill="#1B1B1B"/>
<path d="M25 23.394C24.9991 23.2242 25.0306 23.0558 25.0928 22.8986C25.155 22.7414 25.2467 22.5984 25.3625 22.4779L29.1125 18.6069C29.3479 18.3639 29.6671 18.2274 30 18.2274C30.1648 18.2274 30.328 18.2609 30.4803 18.326C30.6326 18.3911 30.771 18.4866 30.8875 18.6069C31.0041 18.7272 31.0965 18.87 31.1596 19.0272C31.2227 19.1844 31.2551 19.3529 31.2551 19.523C31.2551 19.8666 31.1229 20.1962 30.8875 20.4391L27.1375 24.3101C27.0213 24.4311 26.8831 24.527 26.7307 24.5926C26.5784 24.6581 26.415 24.6918 26.25 24.6918C26.085 24.6918 25.9216 24.6581 25.7693 24.5926C25.617 24.527 25.4787 24.4311 25.3625 24.3101C25.2467 24.1895 25.155 24.0466 25.0928 23.8894C25.0306 23.7321 24.9991 23.5638 25 23.394Z" fill="#1B1B1B"/>
</svg>
