<svg width="14" height="15" viewBox="0 0 14 15" fill="none" xmlns="http://www.w3.org/2000/svg">
<path d="M3.9 14.3182C3.27 14.3182 2.68 14.1682 2.16 13.8682C0.93 13.1582 0.25 11.7282 0.25 9.8482V4.4982C0.25 2.6182 0.93 1.1882 2.16 0.478198C3.39 -0.231802 4.96 -0.101802 6.6 0.838198L11.23 3.5082C12.86 4.4482 13.76 5.7482 13.76 7.1682C13.76 8.5882 12.86 9.8882 11.23 10.8282L6.6 13.4982C5.66 14.0482 4.74 14.3182 3.9 14.3182ZM3.9 1.5282C3.53 1.5282 3.19 1.6082 2.9 1.7782C2.16 2.2082 1.75 3.1682 1.75 4.4982V9.8382C1.75 11.1582 2.16 12.1282 2.91 12.5582C3.66 12.9882 4.7 12.8582 5.85 12.1982L10.48 9.5282C11.63 8.8682 12.26 8.0282 12.26 7.1682C12.26 6.3082 11.63 5.4682 10.48 4.8082L5.85 2.1382C5.14 1.7282 4.48 1.5282 3.9 1.5282Z" fill="#912707"/>
<path d="M3.9 1.5282C3.53 1.5282 3.19 1.6082 2.9 1.7782C2.16 2.2082 1.75 3.1682 1.75 4.4982V9.8382C1.75 11.1582 2.16 12.1282 2.91 12.5582C3.66 12.9882 4.7 12.8582 5.85 12.1982L10.48 9.5282C11.63 8.8682 12.26 8.0282 12.26 7.1682C12.26 6.3082 11.63 5.4682 10.48 4.8082L5.85 2.1382C5.14 1.7282 4.48 1.5282 3.9 1.5282Z" fill="#912707"/>
</svg>
