<svg width="14" height="15" viewBox="0 0 14 15" fill="none" xmlns="http://www.w3.org/2000/svg">
<path d="M3.9 14.3182C3.27 14.3182 2.68 14.1682 2.16 13.8682C0.93 13.1582 0.25 11.7282 0.25 9.84821V4.49821C0.25 2.61821 0.93 1.18821 2.16 0.478213C3.39 -0.231787 4.96 -0.101787 6.6 0.838213L11.23 3.50821C12.86 4.44821 13.76 5.74821 13.76 7.16821C13.76 8.58821 12.86 9.88821 11.23 10.8282L6.6 13.4982C5.66 14.0482 4.74 14.3182 3.9 14.3182ZM3.9 1.52821C3.53 1.52821 3.19 1.60821 2.9 1.77821C2.16 2.20821 1.75 3.16821 1.75 4.49821V9.83821C1.75 11.1582 2.16 12.1282 2.91 12.5582C3.66 12.9882 4.7 12.8582 5.85 12.1982L10.48 9.52821C11.63 8.86821 12.26 8.02821 12.26 7.16821C12.26 6.30821 11.63 5.46821 10.48 4.80821L5.85 2.13821C5.14 1.72821 4.48 1.52821 3.9 1.52821Z" fill="#5E710C"/>
</svg>
