<svg width="36" height="36" viewBox="0 0 36 36" fill="none" xmlns="http://www.w3.org/2000/svg">
<g clip-path="url(#clip0_85_245)">
<path d="M33.4627 17.8707C32.1329 18.24 30.6291 18.3525 30.6291 18.3525C30.6291 18.3525 29.7107 4.29965 17.9699 4.24539C6.22909 4.19113 5.1172 17.1426 5.1172 17.1426L3.98588 17.6196L1.86495 18.5161L0.547363 16.2931C0.547363 16.2931 5.62658 1.83292 18.0307 1.20045C30.4355 0.567169 35.1528 14.6176 35.4532 16.2931C35.5917 17.0617 34.5891 17.5581 33.4627 17.8707Z" fill="#FA9225"/>
<g style="mix-blend-mode:multiply" opacity="0.88">
<path d="M33.4626 17.8707C32.1329 18.24 30.629 18.3525 30.629 18.3525C30.629 18.3525 29.7107 4.29965 17.9699 4.24539C6.22904 4.19113 5.11715 17.1426 5.11715 17.1426L3.98583 17.6196L3.04724 17.3564C3.04724 17.3564 3.81172 11.1856 8.87554 6.57039C13.9402 1.95521 20.6439 2.02728 25.7685 4.70699C30.8801 7.38022 33.7137 15.6113 33.4618 17.8707H33.4626Z" fill="#F5E9E1"/>
</g>
<path d="M31.1652 34.0056C31.1652 34.0056 31.1587 34.0113 31.1554 34.0145C30.6404 34.4834 29.982 34.7579 29.2912 34.8106C29.0961 34.8243 30.6299 34.8195 6.94981 34.8195C6.14161 34.8195 5.37794 34.5085 4.83374 34.0056C0.792719 30.3282 -0.368568 24.7145 0.0962706 19.3154C0.251757 17.4844 0.547342 16.2931 0.547342 16.2931C0.561109 16.2931 14.5192 15.9911 16.0935 15.9571C18.7295 15.9004 15.393 15.8607 35.4524 16.2931C35.4524 16.2931 35.7488 17.4844 35.9043 19.3154C36.3683 24.708 35.2021 30.3363 31.1644 34.0056H31.1652Z" fill="#FA9225"/>
<path d="M18.1222 34.8187H16.4296C15.04 28.8689 14.8278 22.5175 16.0944 15.9571L17.7699 15.9214C16.56 21.7481 16.5406 28.3304 18.1222 34.8187Z" fill="#F8B670"/>
<path d="M20.8254 34.8187H19.1312C20.7873 28.4875 21.2084 21.8348 20.5792 15.9716L22.2272 16.0073C22.8459 22.3385 22.3827 28.6195 20.8254 34.8187Z" fill="#F8B670"/>
<path d="M13.7977 34.8187H12.0339C9.7073 28.873 8.44154 22.2907 9.6417 16.0964C9.91461 16.0899 9.60445 16.0964 11.3148 16.0607C11.2686 16.2753 11.2233 16.5118 11.2217 16.5199C10.1179 22.6721 11.4452 29.0697 13.7977 34.8187Z" fill="#F8B670"/>
<path d="M9.59968 34.8187H7.59456C3.95845 29.4706 2.35176 22.6827 3.16563 16.2365C5.41613 16.1871 4.65895 16.2008 4.81848 16.2008C4.81038 16.2089 4.71968 16.9807 4.67109 17.6366C4.21921 23.7516 5.94252 29.8844 9.59968 34.8187Z" fill="#F8B670"/>
<path d="M25.4049 34.8187H23.595C26.3735 29.1726 26.7808 22.4211 26.6634 16.1028L28.309 16.1385C28.4231 22.4996 28.0012 29.039 25.4049 34.8179V34.8187Z" fill="#F8B670"/>
<path d="M29.2912 34.8098C29.1114 34.8219 29.1964 34.8187 27.3622 34.8187C27.3751 34.7984 27.3881 34.779 27.4002 34.7588C30.7529 29.4034 32.3539 22.8705 31.6964 16.2122L33.346 16.2478C33.942 22.3579 32.6422 29.0519 29.2904 34.8098H29.2912Z" fill="#F8B670"/>
<path d="M33.4595 31.2757C33.3202 31.496 33.1728 31.7146 33.0173 31.9292H2.98338C2.82789 31.7138 2.6805 31.496 2.54041 31.2757H33.4595Z" fill="#D08906"/>
<path d="M35.2296 27.2889C35.1681 27.5068 35.1001 27.7246 35.0272 27.9425H0.973285C0.900401 27.7246 0.833186 27.5068 0.77002 27.2889H35.2288H35.2296Z" fill="#D08906"/>
<path d="M35.9311 23.3022C35.9141 23.5176 35.8947 23.7354 35.8712 23.9557H0.131216C0.107731 23.7354 0.0882954 23.5176 0.0712891 23.3022H35.9311Z" fill="#D08906"/>
<path d="M35.952 19.9681H0.0493164C0.0622736 19.7422 0.0784701 19.5243 0.0962862 19.3146H35.9051C35.9229 19.5235 35.9391 19.7422 35.952 19.9681Z" fill="#D08906"/>
<g style="mix-blend-mode:multiply" opacity="0.88">
<path d="M31.1652 34.0056C31.1652 34.0056 31.1587 34.0113 31.1555 34.0145C30.6405 34.4834 29.9821 34.7579 29.2913 34.8106C29.0961 34.8243 30.6299 34.8195 6.94986 34.8195C6.20969 34.8195 5.49299 34.562 4.92773 34.0874C8.67398 34.1085 17.4128 33.4663 23.9837 27.6169C28.1948 23.869 29.7496 19.581 30.2404 16.1814C33.1088 16.2429 31.3069 16.2049 35.4532 16.2939C35.633 17.0163 35.8646 18.478 35.9521 19.9689C36.2663 25.1899 35.0362 30.4877 31.1652 34.0056Z" fill="#F5E9E1"/>
</g>
</g>
<defs>
<clipPath id="clip0_85_245">
<rect width="36" height="33.6406" fill="white" transform="translate(0 1.17969)"/>
</clipPath>
</defs>
</svg>
