<svg width="12" height="9" viewBox="0 0 12 9" fill="none" xmlns="http://www.w3.org/2000/svg">
<g clip-path="url(#clip0_125_388)">
<path fill-rule="evenodd" clip-rule="evenodd" d="M11.4255 0.622691C11.4683 0.665421 11.5023 0.716183 11.5255 0.772068C11.5487 0.827954 11.5607 0.887865 11.5607 0.948371C11.5607 1.00888 11.5487 1.06879 11.5255 1.12467C11.5023 1.18056 11.4683 1.23132 11.4255 1.27405L4.98551 7.71405C4.94278 7.75689 4.89202 7.79088 4.83613 7.81407C4.78025 7.83726 4.72033 7.84919 4.65983 7.84919C4.59932 7.84919 4.53941 7.83726 4.48353 7.81407C4.42764 7.79088 4.37688 7.75689 4.33415 7.71405L1.11415 4.49405C1.02777 4.40768 0.979248 4.29052 0.979248 4.16837C0.979248 4.04622 1.02777 3.92907 1.11415 3.84269C1.20052 3.75632 1.31768 3.70779 1.43983 3.70779C1.56198 3.70779 1.67913 3.75632 1.76551 3.84269L4.65983 6.73793L10.7741 0.622691C10.8169 0.579853 10.8676 0.545866 10.9235 0.522676C10.9794 0.499486 11.0393 0.487549 11.0998 0.487549C11.1603 0.487549 11.2202 0.499486 11.2761 0.522676C11.332 0.545866 11.3828 0.579853 11.4255 0.622691Z" fill="#5C5C5C"/>
</g>
<defs>
<clipPath id="clip0_125_388">
<rect width="11.0408" height="8.28" fill="white" transform="translate(0.52002 0.0283203)"/>
</clipPath>
</defs>
</svg>
