<svg width="21" height="25" viewBox="0 0 21 25" fill="none" xmlns="http://www.w3.org/2000/svg">
<path d="M4.95001 4.56822V8.60778C4.60416 8.53968 4.25249 8.50552 3.90001 8.50578C1.65403 8.50578 0 10.1498 0 12.8183C0 14.9424 2.27518 15.4903 3.69301 16.3671C4.27487 16.7296 4.78599 17.1637 5.25174 17.5788L5.25859 17.585L5.26553 17.591C6.08471 18.3091 6.37501 18.6793 6.37501 19.0058V19.1313C6.14289 19.4007 6.00001 19.7658 6.00001 20.1682V23.1682C6.00001 23.9966 6.60442 24.6682 7.35001 24.6682H18.15C18.8956 24.6682 19.5 23.9966 19.5 23.1682V20.1682C19.5 19.7658 19.3572 19.4007 19.125 19.1313V19.0058C19.125 17.661 21 15.8587 21 13.0432V12.0448C21 9.11318 19.1879 7.41359 16.7276 7.36015C15.8926 6.77505 14.8158 6.49338 13.7843 6.61085C13.4566 6.44389 13.1091 6.31901 12.75 6.23918V4.56822C12.75 2.43845 10.9883 0.668213 8.85002 0.668213C6.736 0.668213 4.95001 2.4542 4.95001 4.56822ZM10.5 4.56822V8.83507C11.1876 8.23334 12.5074 8.15937 13.3617 9.0671C14.2827 8.54084 15.5004 8.98803 15.8754 9.67297C17.7095 9.36715 18.75 10.1453 18.75 12.0448V13.0432C18.75 15.1756 17.0666 16.6625 16.8902 18.6682H8.60491C8.46597 17.4852 7.61012 16.6542 6.74884 15.8991C6.15587 15.3706 5.5629 14.8807 4.8797 14.4554C3.78338 13.7766 2.25 13.2305 2.25 12.8182C2.25 11.7225 2.6625 10.7557 3.90001 10.7557C5.55001 10.7557 6.3879 11.9932 7.20001 11.9932V4.56822C7.20001 3.70455 7.97345 2.91822 8.85002 2.91822C9.73947 2.91822 10.5 3.67877 10.5 4.56822ZM16.5 20.5433C17.1214 20.5433 17.625 21.0469 17.625 21.6683C17.625 22.2896 17.1214 22.7933 16.5 22.7933C15.8787 22.7933 15.375 22.2896 15.375 21.6683C15.375 21.0469 15.8787 20.5433 16.5 20.5433Z" fill="white"/>
</svg>
