<svg width="36" height="34" viewBox="0 0 36 34" fill="none" xmlns="http://www.w3.org/2000/svg">
<g id="_x32_0_2_">
<path id="Vector" d="M10.37 18.9075H6.39717L2 29.6096H34L29.6077 18.9075H25.6348" stroke="#5E710C" stroke-width="2.5" stroke-miterlimit="10" stroke-linecap="square"/>
<g id="Group">
<path id="Vector_2" d="M25.948 9.58052C25.948 10.8254 25.6636 12.0027 25.1525 13.0546C23.8651 15.7084 17.9975 23.916 17.9975 23.916C17.9975 23.916 12.2744 15.8001 10.9437 13.2573C10.3699 12.1571 10.0469 10.9074 10.0469 9.58052C10.0469 5.18966 13.6051 1.6239 17.9975 1.6239C22.3898 1.62873 25.948 5.18966 25.948 9.58052Z" stroke="#5E710C" stroke-width="2.5" stroke-miterlimit="10" stroke-linecap="square"/>
<path id="Vector_3" d="M18.0018 12.8229C19.7912 12.8229 21.2418 11.3712 21.2418 9.58043C21.2418 7.78966 19.7912 6.33795 18.0018 6.33795C16.2123 6.33795 14.7617 7.78966 14.7617 9.58043C14.7617 11.3712 16.2123 12.8229 18.0018 12.8229Z" stroke="#5E710C" stroke-width="2.5" stroke-miterlimit="10" stroke-linecap="square"/>
</g>
<path id="Vector_4" d="M2 32.3792H34" stroke="#5E710C" stroke-width="2.5" stroke-miterlimit="10" stroke-linecap="square"/>
</g>
</svg>
