<svg width="36" height="35" viewBox="0 0 36 35" fill="none" xmlns="http://www.w3.org/2000/svg">
<g id="_x31_2_1_">
<g id="_x38__3_">
<path id="Vector" d="M11.1104 13.4389C10.3887 12.288 10.5236 11.965 10.5236 11.965L12.6712 8.84693C13.2462 8.07181 13.1641 6.99133 12.4834 6.31017L8.03573 1.88846C7.39029 1.24253 6.36345 1.18381 5.64173 1.74166L3.71127 3.23906C3.54697 3.36824 3.39441 3.51504 3.27119 3.68533C-0.536922 9.00547 4.80852 17.385 11.3979 23.9441C17.8054 30.3213 26.4837 36.0055 31.7235 31.942C31.8702 31.8245 31.9993 31.6895 32.1166 31.5368L33.6246 29.5638C34.182 28.8356 34.1116 27.8139 33.4603 27.1679L29.0185 22.7462C28.332 22.0651 27.2523 21.9887 26.4837 22.5701L23.3797 24.7369C23.3797 24.7369 22.1416 25.189 16.1155 19.1936C13.9621 17.0503 12.636 15.5235 11.8204 14.4372C11.5153 14.0496 11.2864 13.7208 11.1104 13.4389Z" stroke="#5E710C" stroke-width="2.5" stroke-miterlimit="10" stroke-linecap="square"/>
</g>
<path id="Vector_2" d="M27.856 16.1988C27.856 14.907 27.5744 13.5975 26.9759 12.3585C25.4738 9.25212 22.3815 7.42588 19.1543 7.37891" stroke="#5E710C" stroke-width="2.5" stroke-miterlimit="10" stroke-linecap="square"/>
<path id="Vector_3" d="M32.9257 16.1987C32.9257 14.167 32.4798 12.1 31.5351 10.1446C29.1587 5.22375 24.2592 2.34642 19.1484 2.29944" stroke="#5E710C" stroke-width="2.5" stroke-miterlimit="10" stroke-linecap="square"/>
<path id="Vector_4" d="M31.5351 10.1446C29.8041 6.12805 24.3883 2.52258 19.1484 2.29944" stroke="#5E710C" stroke-width="2.5" stroke-miterlimit="10" stroke-linecap="square"/>
</g>
</svg>
