<svg width="33" height="33" viewBox="0 0 33 33" fill="none" xmlns="http://www.w3.org/2000/svg">
<g id="Union">
<path d="M17.7308 6.82206C17.7308 6.14232 17.1797 5.59129 16.5 5.59129C15.8203 5.59129 15.2692 6.14232 15.2692 6.82206V17.178L21.7836 23.6923C22.2642 24.173 23.0435 24.173 23.5241 23.6923C24.0048 23.2117 24.0048 22.4324 23.5241 21.9518L17.7308 16.1584V6.82206Z" fill="#5E710C"/>
<path fill-rule="evenodd" clip-rule="evenodd" d="M16.5 0.668213C7.66344 0.668213 0.5 7.83166 0.5 16.6682C0.5 25.5048 7.66344 32.6682 16.5 32.6682C25.3366 32.6682 32.5 25.5048 32.5 16.6682C32.5 7.83166 25.3366 0.668213 16.5 0.668213ZM2.96154 16.6682C2.96154 9.19113 9.02291 3.12975 16.5 3.12975C23.9771 3.12975 30.0385 9.19113 30.0385 16.6682C30.0385 24.1453 23.9771 30.2067 16.5 30.2067C9.02291 30.2067 2.96154 24.1453 2.96154 16.6682Z" fill="#5E710C"/>
</g>
</svg>
