<svg width="24" height="25" viewBox="0 0 24 25" fill="none" xmlns="http://www.w3.org/2000/svg">
<path d="M4.6437 5.16016H20.5437C22.0437 5.16016 22.7997 5.86816 22.7997 7.30816V17.4122C22.7997 18.8402 22.0437 19.5602 20.5437 19.5602H4.6437C3.1437 19.5602 2.3877 18.8402 2.3877 17.4122V7.30816C2.3877 5.86816 3.1437 5.16016 4.6437 5.16016ZM12.5877 15.4802L20.6757 8.84416C20.9637 8.60416 21.1917 8.05216 20.8317 7.56016C20.4837 7.06816 19.8477 7.05616 19.4277 7.35616L12.5877 11.9882L5.7597 7.35616C5.3397 7.05616 4.7037 7.06816 4.3557 7.56016C3.9957 8.05216 4.2237 8.60416 4.5117 8.84416L12.5877 15.4802Z" fill="white"/>
</svg>
