<svg width="24" height="25" viewBox="0 0 24 25" fill="none" xmlns="http://www.w3.org/2000/svg">
<path d="M12 2.16821C6.20156 2.16821 1.5 6.86978 1.5 12.6682C1.5 18.4667 6.20156 23.1682 12 23.1682C17.7984 23.1682 22.5 18.4667 22.5 12.6682C22.5 6.86978 17.7984 2.16821 12 2.16821ZM11.25 7.60571C11.25 7.50259 11.3344 7.41821 11.4375 7.41821H12.5625C12.6656 7.41821 12.75 7.50259 12.75 7.60571V13.9807C12.75 14.0838 12.6656 14.1682 12.5625 14.1682H11.4375C11.3344 14.1682 11.25 14.0838 11.25 13.9807V7.60571ZM12 17.9182C11.7056 17.9122 11.4253 17.791 11.2192 17.5807C11.0132 17.3704 10.8977 17.0877 10.8977 16.7932C10.8977 16.4988 11.0132 16.216 11.2192 16.0057C11.4253 15.7954 11.7056 15.6742 12 15.6682C12.2944 15.6742 12.5747 15.7954 12.7808 16.0057C12.9868 16.216 13.1023 16.4988 13.1023 16.7932C13.1023 17.0877 12.9868 17.3704 12.7808 17.5807C12.5747 17.791 12.2944 17.9122 12 17.9182Z" fill="white"/>
</svg>
