<svg width="20" height="16" viewBox="0 0 20 16" fill="none" xmlns="http://www.w3.org/2000/svg">
<g id="Group">
<path id="Vector" d="M19.8726 7.5512C19.6926 7.27042 15.4369 0.666656 9.99984 0.666656C4.56281 0.666656 0.305715 7.27042 0.127058 7.5512C0.0444956 7.68126 0 7.83816 0 7.99922C0 8.16029 0.0444956 8.31719 0.127058 8.44725C0.305715 8.72803 4.56281 15.3333 9.99984 15.3333C15.4369 15.3333 19.6926 8.72803 19.8726 8.44725C19.9554 8.31728 20 8.16035 20 7.99922C20 7.8381 19.9554 7.68116 19.8726 7.5512ZM9.99984 13.8159C5.99473 13.8159 2.52692 9.43229 1.49898 7.99922C2.52559 6.56462 5.98673 2.18258 9.99984 2.18258C14.005 2.18258 17.4728 6.56616 18.4994 7.99922C17.4741 9.43382 14.013 13.8159 9.99984 13.8159Z" fill="#757575"/>
<path id="Vector_2" d="M9.99875 3.44836C8.94994 3.44958 7.94438 3.9296 7.20276 4.78307C6.46114 5.63653 6.04403 6.79374 6.04297 8.00072C6.04403 9.20771 6.46114 10.3649 7.20276 11.2184C7.94438 12.0719 8.94994 12.5519 9.99875 12.5531C11.0476 12.5519 12.0531 12.0719 12.7947 11.2184C13.5364 10.3649 13.9535 9.20771 13.9545 8.00072C13.9535 6.79374 13.5364 5.63653 12.7947 4.78307C12.0531 3.9296 11.0476 3.44958 9.99875 3.44836ZM9.99875 11.0356C9.29954 11.0348 8.62917 10.7148 8.13476 10.1458C7.64034 9.57685 7.36227 8.80538 7.36156 8.00072C7.36227 7.19607 7.64034 6.4246 8.13476 5.85562C8.62917 5.28664 9.29954 4.96663 9.99875 4.96582C10.698 4.96663 11.3683 5.28664 11.8627 5.85562C12.3572 6.4246 12.6352 7.19607 12.6359 8.00072C12.6352 8.80538 12.3572 9.57685 11.8627 10.1458C11.3683 10.7148 10.698 11.0348 9.99875 11.0356Z" fill="#757575"/>
</g>
</svg>
