<svg width="21" height="17" viewBox="0 0 21 17" fill="none" xmlns="http://www.w3.org/2000/svg">
<path d="M2.31982 12.639C3.42439 12.639 4.31982 13.5405 4.31982 14.6526C4.31971 15.7647 3.42432 16.6663 2.31982 16.6663C1.21533 16.6663 0.319941 15.7647 0.319824 14.6526C0.319824 13.5405 1.21525 12.639 2.31982 12.639ZM20.3198 15.6595H6.31982V13.6458H20.3198V15.6595ZM2.31982 6.59698C3.42425 6.59698 4.31959 7.49868 4.31982 8.61066C4.31982 9.72284 3.42439 10.6253 2.31982 10.6253C1.21525 10.6253 0.319824 9.72284 0.319824 8.61066C0.320057 7.49868 1.2154 6.59698 2.31982 6.59698ZM20.3198 9.61847H6.31982V7.60382H20.3198V9.61847ZM2.31982 0.555969C3.42436 0.555969 4.31977 1.45751 4.31982 2.56964C4.31982 3.68182 3.42439 4.58331 2.31982 4.58331C1.21525 4.58331 0.319824 3.68182 0.319824 2.56964C0.319882 1.45751 1.21529 0.555969 2.31982 0.555969ZM20.3198 3.57648H6.31982V1.56281H20.3198V3.57648Z" fill="#5E710C"/>
</svg>
