<svg width="24" height="25" viewBox="0 0 24 25" fill="none" xmlns="http://www.w3.org/2000/svg">
<path d="M17.79 23.4182H6.21C3.47 23.4182 1.25 21.1882 1.25 18.4482V11.0382C1.25 9.67822 2.09 7.96822 3.17 7.12822L8.56 2.92822C10.18 1.66822 12.77 1.60822 14.45 2.78822L20.63 7.11822C21.82 7.94822 22.75 9.72822 22.75 11.1782V18.4582C22.75 21.1882 20.53 23.4182 17.79 23.4182ZM9.48 4.10822L4.09 8.30822C3.38 8.86822 2.75 10.1382 2.75 11.0382V18.4482C2.75 20.3582 4.3 21.9182 6.21 21.9182H17.79C19.7 21.9182 21.25 20.3682 21.25 18.4582V11.1782C21.25 10.2182 20.56 8.88822 19.77 8.34822L13.59 4.01822C12.45 3.21822 10.57 3.25822 9.48 4.10822Z" fill="#5E710C"/>
<path d="M12 19.4182C11.59 19.4182 11.25 19.0782 11.25 18.6682V15.6682C11.25 15.2582 11.59 14.9182 12 14.9182C12.41 14.9182 12.75 15.2582 12.75 15.6682V18.6682C12.75 19.0782 12.41 19.4182 12 19.4182Z" fill="#5E710C"/>
</svg>
