<svg width="24" height="25" viewBox="0 0 24 25" fill="none" xmlns="http://www.w3.org/2000/svg">
<g clip-path="url(#clip0_25_116)">
<path d="M11.1359 21.8854C9.23281 19.5029 5 13.7287 5 10.4854C5 6.55027 8.13396 3.36035 12 3.36035C15.8646 3.36035 19 6.55027 19 10.4854C19 13.7287 14.7344 19.5029 12.8641 21.8854C12.4156 22.4531 11.5844 22.4531 11.1359 21.8854ZM12 12.8604C13.287 12.8604 14.3333 11.7953 14.3333 10.4854C14.3333 9.17539 13.287 8.11035 12 8.11035C10.713 8.11035 9.66667 9.17539 9.66667 10.4854C9.66667 11.7953 10.713 12.8604 12 12.8604Z" fill="white"/>
</g>
<defs>
<clipPath id="clip0_25_116">
<rect width="14" height="19" fill="white" transform="translate(5 3.36035)"/>
</clipPath>
</defs>
</svg>
