<svg width="25" height="25" viewBox="0 0 25 25" fill="none" xmlns="http://www.w3.org/2000/svg">
<path d="M4.18809 6.15009L6.68418 3.65634C6.98887 3.35165 7.39668 3.18056 7.82793 3.18056C8.25918 3.18056 8.66699 3.34931 8.97168 3.65634L11.66 6.33993C11.9646 6.64462 12.1357 7.05478 12.1357 7.48603C12.1357 7.91962 11.967 8.32509 11.66 8.63212L9.55996 10.7345C10.0384 11.8491 10.7257 12.8619 11.585 13.7181C12.4451 14.5829 13.4506 15.2649 14.5662 15.7477L16.6662 13.6454C16.9709 13.3407 17.3787 13.1696 17.81 13.1696C18.0227 13.1688 18.2334 13.2105 18.4298 13.2922C18.6262 13.3739 18.8043 13.494 18.9537 13.6454L21.6443 16.329C21.949 16.6337 22.1201 17.0438 22.1201 17.4751C22.1201 17.9087 21.9514 18.3141 21.6443 18.6212L19.1506 21.1149C18.6303 21.6352 17.9131 21.9329 17.1771 21.9329C17.0248 21.9329 16.8771 21.9212 16.7271 21.8954C13.624 21.3845 10.5443 19.7321 8.05762 17.2477C5.57324 14.7587 3.92324 11.679 3.40762 8.57353C3.25996 7.69228 3.55527 6.78524 4.18809 6.15009ZM5.06934 8.29462C5.52637 11.0579 7.01231 13.8142 9.25059 16.0524C11.4889 18.2907 14.2428 19.7766 17.0061 20.2337C17.3529 20.2923 17.7092 20.1751 17.9623 19.9243L20.4115 17.4751L17.8146 14.8759L15.0068 17.6884L14.9857 17.7095L14.4795 17.522C12.9445 16.9576 11.5506 16.0662 10.3944 14.9096C9.23812 13.7529 8.34722 12.3587 7.7834 10.8235L7.5959 10.3173L10.4271 7.48837L7.83027 4.88915L5.38105 7.33837C5.12793 7.59149 5.01074 7.94774 5.06934 8.29462Z" fill="#1B1B1B"/>
</svg>
