<svg width="24" height="25" viewBox="0 0 24 25" fill="none" xmlns="http://www.w3.org/2000/svg">
<path d="M3.24375 6.25566L5.73984 3.76191C5.91592 3.58506 6.1252 3.44474 6.35567 3.34902C6.58614 3.25329 6.83325 3.20404 7.08281 3.2041C7.5914 3.2041 8.06953 3.40332 8.42812 3.76191L11.1141 6.44785C11.2909 6.62393 11.4312 6.83321 11.527 7.06368C11.6227 7.29415 11.6719 7.54126 11.6719 7.79082C11.6719 8.29941 11.4727 8.77754 11.1141 9.13613L9.15 11.1002C9.60974 12.1135 10.2489 13.0354 11.0367 13.8213C11.8225 14.611 12.7443 15.2525 13.7578 15.715L15.7219 13.751C15.898 13.5741 16.1072 13.4338 16.3377 13.3381C16.5682 13.2424 16.8153 13.1931 17.0648 13.1932C17.5734 13.1932 18.0516 13.3924 18.4102 13.751L21.0984 16.4346C21.2755 16.611 21.4159 16.8206 21.5117 17.0515C21.6074 17.2824 21.6565 17.5299 21.6562 17.7799C21.6562 18.2885 21.457 18.7666 21.0984 19.1252L18.607 21.6166C18.0352 22.1908 17.2453 22.5166 16.4344 22.5166C16.2633 22.5166 16.0992 22.5025 15.9375 22.4744C12.7781 21.9541 9.64453 20.2736 7.11562 17.7471C4.58906 15.2229 2.91094 12.0916 2.38359 8.92285C2.22422 7.95488 2.54531 6.95879 3.24375 6.25566Z" fill="white"/>
</svg>
