<svg width="22" height="23" viewBox="0 0 22 23" fill="none" xmlns="http://www.w3.org/2000/svg">
<path d="M8.08333 19.2516C7.73722 19.2516 7.39887 19.3543 7.11108 19.5466C6.8233 19.7388 6.599 20.0122 6.46654 20.3319C6.33409 20.6517 6.29943 21.0036 6.36696 21.343C6.43448 21.6825 6.60115 21.9943 6.8459 22.2391C7.09064 22.4838 7.40246 22.6505 7.74192 22.718C8.08139 22.7855 8.43326 22.7509 8.75303 22.6184C9.0728 22.486 9.34611 22.2617 9.53841 21.9739C9.7307 21.6861 9.83333 21.3477 9.83333 21.0016C9.83333 20.5375 9.64896 20.0924 9.32077 19.7642C8.99258 19.436 8.54746 19.2516 8.08333 19.2516ZM20.3333 15.7516H6.33333C6.02391 15.7516 5.72717 15.6287 5.50838 15.4099C5.28958 15.1911 5.16667 14.8944 5.16667 14.585C5.16667 14.2755 5.28958 13.9788 5.50838 13.76C5.72717 13.5412 6.02391 13.4183 6.33333 13.4183H16.2397C16.9997 13.4158 17.7385 13.1672 18.3452 12.7095C18.952 12.2519 19.3941 11.6099 19.6053 10.8799L21.455 4.40568C21.5046 4.23204 21.5133 4.04926 21.4802 3.87172C21.4472 3.69418 21.3734 3.52673 21.2647 3.38255C21.156 3.23837 21.0153 3.12139 20.8536 3.04083C20.692 2.96027 20.5139 2.91832 20.3333 2.91829H6.02891C5.7874 2.23855 5.34218 1.64979 4.75393 1.23224C4.16567 0.814699 3.46299 0.588672 2.74162 0.584961H1.66667C1.35725 0.584961 1.0605 0.707877 0.841709 0.92667C0.622916 1.14546 0.5 1.44221 0.5 1.75163C0.5 2.06105 0.622916 2.35779 0.841709 2.57659C1.0605 2.79538 1.35725 2.91829 1.66667 2.91829H2.74162C2.99488 2.91918 3.24105 3.00208 3.44325 3.15458C3.64545 3.30708 3.79282 3.52098 3.86328 3.76424L4.04472 4.39977L4.045 4.40568L5.95907 11.1049C5.06839 11.2007 4.24835 11.6344 3.66781 12.3166C3.08727 12.9989 2.79042 13.8778 2.83838 14.7723C2.88634 15.6668 3.27547 16.5089 3.92564 17.1252C4.57581 17.7414 5.43752 18.0849 6.33333 18.085H20.3333C20.6428 18.085 20.9395 17.962 21.1583 17.7432C21.3771 17.5245 21.5 17.2277 21.5 16.9183C21.5 16.6089 21.3771 16.3121 21.1583 16.0933C20.9395 15.8745 20.6428 15.7516 20.3333 15.7516ZM18.7867 5.25163L17.362 10.2384C17.2916 10.4819 17.1442 10.696 16.9419 10.8486C16.7395 11.0012 16.4932 11.0842 16.2397 11.085H8.38012L8.08269 10.044L6.71416 5.25163H18.7867ZM17.4167 19.2516C17.0705 19.2516 16.7322 19.3543 16.4444 19.5466C16.1566 19.7388 15.9323 20.0122 15.7999 20.3319C15.6674 20.6517 15.6328 21.0036 15.7003 21.343C15.7678 21.6825 15.9345 21.9943 16.1792 22.2391C16.424 22.4838 16.7358 22.6505 17.0753 22.718C17.4147 22.7855 17.7666 22.7509 18.0864 22.6184C18.4061 22.486 18.6794 22.2617 18.8717 21.9739C19.064 21.6861 19.1667 21.3477 19.1667 21.0016C19.1667 20.5375 18.9823 20.0924 18.6541 19.7642C18.3259 19.436 17.8808 19.2516 17.4167 19.2516Z" fill="white"/>
</svg>
