<svg width="17" height="16" viewBox="0 0 17 16" fill="none" xmlns="http://www.w3.org/2000/svg">
<path id="Vector" d="M15.9083 5.71913L10.9895 4.96664L8.78474 0.263405C8.62007 -0.0878018 8.04471 -0.0878018 7.88004 0.263405L5.67596 4.96664L0.757103 5.71913C0.666284 5.73311 0.581066 5.77187 0.510805 5.83117C0.440543 5.89047 0.387956 5.96802 0.358817 6.05529C0.329678 6.14256 0.325114 6.23619 0.345626 6.32589C0.366138 6.41559 0.410933 6.49789 0.475092 6.56377L4.04856 10.2321L3.20386 15.4181C3.18878 15.5108 3.20006 15.6059 3.23641 15.6926C3.27276 15.7792 3.33271 15.8538 3.40942 15.908C3.48613 15.9621 3.57649 15.9935 3.67018 15.9986C3.76387 16.0037 3.8571 15.9823 3.93922 15.9369L8.33272 13.5051L12.7262 15.9375C12.8083 15.983 12.9016 16.0044 12.9953 15.9993C13.089 15.9941 13.1793 15.9627 13.256 15.9086C13.3327 15.8545 13.3927 15.7799 13.429 15.6932C13.4654 15.6066 13.4767 15.5115 13.4616 15.4187L12.6169 10.2327L16.1904 6.56444C16.2547 6.49858 16.2997 6.41623 16.3203 6.32643C16.3409 6.23663 16.3364 6.14288 16.3072 6.05549C16.2781 5.9681 16.2254 5.89046 16.155 5.83111C16.0847 5.77177 15.9993 5.73302 15.9083 5.71913Z" fill="#FFA600"/>
</svg>
