<svg width="24" height="24" viewBox="0 0 24 24" fill="none" xmlns="http://www.w3.org/2000/svg">
<g clip-path="url(#clip0_10_489)">
<rect width="24" height="24" rx="12" fill="#419FD9"/>
<path fill-rule="evenodd" clip-rule="evenodd" d="M14.6677 17.942C15.5064 18.309 15.821 17.5401 15.821 17.5401L18.0402 6.39167C18.0227 5.64029 17.0092 6.09461 17.0092 6.09461L4.58513 10.9699C4.58513 10.9699 3.99101 11.1796 4.04344 11.5465C4.09586 11.9135 4.56766 12.0882 4.56766 12.0882L7.69552 13.1367C7.69552 13.1367 8.63911 16.2296 8.83133 16.8237C9.00607 17.4003 9.16334 17.4178 9.16334 17.4178C9.33808 17.4877 9.49534 17.3654 9.49534 17.3654L11.5223 15.5306L14.6677 17.942ZM15.2094 8.36629C15.2094 8.36629 15.6462 8.10418 15.6288 8.36629C15.6288 8.36629 15.6987 8.40124 15.4715 8.64588C15.2618 8.85557 10.3167 13.294 9.65264 13.8881C9.60022 13.923 9.56527 13.9755 9.56527 14.0454L9.37306 15.6879C9.33811 15.8627 9.11095 15.8801 9.05852 15.7229L8.23724 13.0319C8.20229 12.927 8.23724 12.8047 8.34209 12.7348L15.2094 8.36629Z" fill="white"/>
</g>
<defs>
<clipPath id="clip0_10_489">
<rect width="24" height="24" fill="white"/>
</clipPath>
</defs>
</svg>
