<svg width="24" height="24" viewBox="0 0 24 24" fill="none" xmlns="http://www.w3.org/2000/svg">
<g clip-path="url(#clip0_10_481)">
<rect width="24" height="24" rx="12" fill="#5181B8"/>
<path fill-rule="evenodd" clip-rule="evenodd" d="M19.6328 8.26718C19.7441 7.89634 19.6328 7.62378 19.1035 7.62378H17.3531C16.908 7.62378 16.7029 7.85921 16.5916 8.11889C16.5916 8.11889 15.7014 10.2885 14.4404 11.6979C14.0324 12.1058 13.847 12.2355 13.6244 12.2355C13.5132 12.2355 13.3521 12.1058 13.3521 11.735V8.26718C13.3521 7.82208 13.223 7.62378 12.852 7.62378H10.1014C9.8233 7.62378 9.65601 7.83033 9.65601 8.02612C9.65601 8.4481 10.2864 8.54537 10.3514 9.73215V12.3099C10.3514 12.875 10.2494 12.9775 10.0268 12.9775C9.43346 12.9775 7.99012 10.798 7.13392 8.30431C6.96613 7.81958 6.79784 7.62378 6.35049 7.62378H4.60008C4.09996 7.62378 3.99994 7.85921 3.99994 8.11889C3.99994 8.5825 4.59345 10.882 6.76308 13.9233C8.20967 16 10.2474 17.126 12.1018 17.126C13.2146 17.126 13.3521 16.8759 13.3521 16.4452V14.8755C13.3521 14.3754 13.4575 14.2756 13.8097 14.2756C14.0695 14.2756 14.5145 14.4054 15.5531 15.4067C16.7399 16.5934 16.9355 17.126 17.6031 17.126H19.3535C19.8536 17.126 20.1037 16.8759 19.9594 16.3824C19.8016 15.8906 19.235 15.1772 18.4831 14.3312C18.0751 13.849 17.4631 13.3297 17.2778 13.0702C17.0181 12.7363 17.0922 12.5881 17.2778 12.2915C17.2778 12.2915 19.4103 9.28729 19.6328 8.26731V8.26718Z" fill="white"/>
</g>
<defs>
<clipPath id="clip0_10_481">
<rect width="24" height="24" fill="white"/>
</clipPath>
</defs>
</svg>
