<svg width="25" height="24" viewBox="0 0 25 24" fill="none" xmlns="http://www.w3.org/2000/svg">
<g clip-path="url(#clip0_10_485)">
<rect x="0.5" width="24" height="24" rx="12" fill="#0DC143"/>
<path d="M17.8753 6.60574C16.5889 5.28142 14.8105 4.5625 12.9943 4.5625C9.1348 4.5625 6.0321 7.70304 6.06994 11.5247C6.06994 12.7355 6.41048 13.9084 6.97805 14.9679L5.99426 18.5625L9.66453 17.6166C10.6862 18.1841 11.8213 18.449 12.9564 18.449C16.778 18.449 19.8807 15.3084 19.8807 11.4868C19.8807 9.63277 19.1618 7.89223 17.8753 6.60574ZM12.9943 17.276C11.9726 17.276 10.951 17.0111 10.0807 16.4814L9.85372 16.3679L7.65913 16.9355L8.2267 14.7787L8.07534 14.5517C6.41048 11.8652 7.20507 8.30844 9.9294 6.64358C12.6537 4.97871 16.1726 5.77331 17.8375 8.49763C19.5024 11.222 18.7078 14.7409 15.9835 16.4057C15.1132 16.9733 14.0537 17.276 12.9943 17.276ZM16.324 13.076L15.9078 12.8868C15.9078 12.8868 15.3024 12.622 14.924 12.4328C14.8862 12.4328 14.8483 12.3949 14.8105 12.3949C14.697 12.3949 14.6213 12.4328 14.5456 12.4706C14.5456 12.4706 14.5078 12.5084 13.978 13.1138C13.9402 13.1895 13.8645 13.2274 13.7889 13.2274H13.751C13.7132 13.2274 13.6375 13.1895 13.5997 13.1517L13.4105 13.076C12.9943 12.8868 12.6159 12.6598 12.3132 12.3571C12.2375 12.2814 12.124 12.2057 12.0483 12.1301C11.7835 11.8652 11.5186 11.5625 11.3294 11.222L11.2916 11.1463C11.2537 11.1084 11.2537 11.0706 11.2159 10.9949C11.2159 10.9193 11.2159 10.8436 11.2537 10.8057C11.2537 10.8057 11.4051 10.6166 11.5186 10.503C11.5943 10.4274 11.6321 10.3138 11.7078 10.2382C11.7835 10.1247 11.8213 9.97331 11.7835 9.85979C11.7456 9.6706 11.2916 8.64898 11.178 8.42196C11.1024 8.30844 11.0267 8.2706 10.9132 8.23277H10.7997C10.724 8.23277 10.6105 8.23277 10.497 8.23277C10.4213 8.23277 10.3456 8.2706 10.2699 8.2706L10.2321 8.30844C10.1564 8.34628 10.0807 8.42196 10.0051 8.45979C9.9294 8.53547 9.89156 8.61115 9.81588 8.68682C9.55102 9.02736 9.39967 9.44358 9.39967 9.85979C9.39967 10.1625 9.47534 10.4652 9.58886 10.7301L9.6267 10.8436C9.96724 11.5625 10.4213 12.2057 11.0267 12.7733L11.178 12.9247C11.2916 13.0382 11.4051 13.1138 11.4807 13.2274C12.2753 13.9084 13.1835 14.4003 14.2051 14.6652C14.3186 14.703 14.4699 14.703 14.5835 14.7409C14.697 14.7409 14.8483 14.7409 14.9618 14.7409C15.151 14.7409 15.378 14.6652 15.5294 14.5895C15.6429 14.5138 15.7186 14.5138 15.7943 14.4382L15.8699 14.3625C15.9456 14.2868 16.0213 14.249 16.097 14.1733C16.1726 14.0976 16.2483 14.022 16.2862 13.9463C16.3618 13.7949 16.3997 13.6057 16.4375 13.4166C16.4375 13.3409 16.4375 13.2274 16.4375 13.1517C16.4375 13.1517 16.3997 13.1138 16.324 13.076Z" fill="white"/>
</g>
<defs>
<clipPath id="clip0_10_485">
<rect width="24" height="24" fill="white" transform="translate(0.5)"/>
</clipPath>
</defs>
</svg>
