<svg width="24" height="17" viewBox="0 0 24 17" fill="none" xmlns="http://www.w3.org/2000/svg">
<g id="Group">
<g id="Group_2">
<g id="Group_3">
<path id="Vector" d="M10.9067 15.1512C9.82965 15.1512 8.86613 14.3174 8.86613 13.3168V12.0012H8.44922V13.0968C8.44922 14.4262 9.53086 15.5079 10.8603 15.5079H11.6617V15.1512H10.9067Z" fill="#AA652C"/>
<path id="Vector_2" d="M10.9067 15.1512H11.6618V14.7065H10.8604C9.97333 14.7065 9.25069 13.9838 9.25069 13.0968V12.0012H8.86621V13.3168C8.86621 14.3174 9.82973 15.1512 10.9067 15.1512Z" fill="#823D09"/>
</g>
<g id="Group_4">
<path id="Vector_3" d="M12.5605 16.3741C13.6375 16.3741 14.601 15.5403 14.601 14.5397V13.2241H15.0179V14.3197C15.0179 15.6491 13.9363 16.7308 12.6068 16.7308H11.8054V16.3741H12.5605Z" fill="#823D09"/>
<path id="Vector_4" d="M12.5605 16.3741H11.8054V15.9294H12.6068C13.4939 15.9294 14.2165 15.2067 14.2165 14.3197V13.2241H14.601V14.5397C14.601 15.5403 13.6375 16.3741 12.5605 16.3741Z" fill="#AA652C"/>
</g>
<g id="Group_5">
<path id="Vector_5" d="M12.4979 10.4795H11.6201V16.9171H12.4979V10.4795Z" fill="#AA652C"/>
<path id="Vector_6" d="M12.0579 16.9182H12.5188L12.5188 10.4806H12.0579L12.0579 16.9182Z" fill="#823D09"/>
</g>
</g>
<g id="Group_6">
<g id="Group_7">
<path id="Vector_7" d="M5.85978 6.64637C5.85978 6.51435 5.87136 6.38696 5.87831 6.25725C5.66291 6.22714 5.44518 6.2063 5.22283 6.2063C2.64264 6.2063 0.553467 8.29779 0.553467 10.8757H7.52741C6.49672 9.76391 5.85978 8.28157 5.85978 6.64405V6.64637Z" fill="#969300"/>
<path id="Vector_8" d="M18.7747 6.2063C18.6102 6.2063 18.4504 6.21556 18.2906 6.23178C18.2999 6.36843 18.3114 6.5074 18.3114 6.64637C18.3114 8.28157 17.6768 9.76623 16.6438 10.878H23.444C23.444 8.29779 21.3525 6.20861 18.7747 6.20861V6.2063Z" fill="#969300"/>
<path id="Vector_9" d="M9.89219 10.8757H14.103C14.103 8.4599 15.9374 6.47264 18.2882 6.22945C18.0752 2.98452 15.3815 0.418213 12.0833 0.418213C8.78506 0.418213 6.07748 2.99841 5.87598 6.25724C8.14349 6.57687 9.88987 8.52012 9.88987 10.8757H9.89219Z" fill="#969300"/>
<path id="Vector_10" d="M7.52518 10.8757H9.89229C9.89229 8.52021 8.14591 6.57695 5.8784 6.25732C5.87145 6.38703 5.85986 6.51442 5.85986 6.64644C5.85986 8.28164 6.49449 9.7663 7.5275 10.8781L7.52518 10.8757Z" fill="#969300"/>
<path id="Vector_11" d="M14.1052 10.8757H16.6437C17.6744 9.76394 18.3114 8.2816 18.3114 6.64408C18.3114 6.50511 18.2998 6.36615 18.2905 6.22949C15.9396 6.47269 14.1052 8.45995 14.1052 10.8757Z" fill="#969300"/>
</g>
<path id="Vector_12" d="M18.7747 6.20616C18.6103 6.20616 18.4505 6.21543 18.2907 6.23164C18.0776 2.98671 15.3839 0.42041 12.0857 0.42041V10.8778H14.1054H23.4464C23.4464 8.29765 21.3549 6.20848 18.7771 6.20848L18.7747 6.20616Z" fill="#5E710C"/>
</g>
<g id="Group_8">
<g id="Group_9">
<path id="Vector_13" d="M12.1459 12.988C12.1459 12.9509 12.1482 12.9162 12.1505 12.8791C12.0903 12.8699 12.0301 12.8652 11.9676 12.8652C11.2472 12.8652 10.6636 13.4489 10.6636 14.1692H12.6115C12.3243 13.8589 12.1459 13.4443 12.1459 12.988Z" fill="#969300"/>
<path id="Vector_14" d="M15.7521 12.8652C15.7058 12.8652 15.6618 12.8676 15.6178 12.8722C15.6201 12.9116 15.6247 12.9486 15.6247 12.988C15.6247 13.4443 15.4464 13.8589 15.1592 14.1692H17.0584C17.0584 13.4489 16.4748 12.8652 15.7544 12.8652H15.7521Z" fill="#969300"/>
<path id="Vector_15" d="M13.2715 14.1692H14.4481C14.4481 13.4952 14.96 12.9393 15.6178 12.8722C15.5576 11.9665 14.8071 11.2485 13.8853 11.2485C12.9635 11.2485 12.2084 11.9689 12.1528 12.8791C12.7851 12.9694 13.2739 13.5114 13.2739 14.1692H13.2715Z" fill="#969300"/>
<path id="Vector_16" d="M12.6113 14.1693H13.2714C13.2714 13.5115 12.7827 12.9695 12.1504 12.8792C12.1504 12.9162 12.1458 12.951 12.1458 12.988C12.1458 13.4443 12.3241 13.8589 12.6113 14.1693Z" fill="#969300"/>
<path id="Vector_17" d="M14.4481 14.1691H15.1569C15.4441 13.8588 15.6224 13.4442 15.6224 12.9879C15.6224 12.9485 15.6201 12.9114 15.6155 12.8721C14.9577 12.9392 14.4458 13.4951 14.4458 14.1691H14.4481Z" fill="#969300"/>
</g>
<path id="Vector_18" d="M15.7521 12.8652C15.7058 12.8652 15.6617 12.8675 15.6177 12.8722C15.5575 11.9665 14.8071 11.2485 13.8853 11.2485V14.1692H17.0584C17.0584 13.4489 16.4747 12.8652 15.7544 12.8652H15.7521Z" fill="#5E710C"/>
</g>
</g>
</svg>
