<svg width="24" height="12" viewBox="0 0 24 12" fill="none" xmlns="http://www.w3.org/2000/svg">
<g id="Group">
<g id="Group_2">
<path id="Vector" d="M5.56293 6.71477C5.56293 6.57636 5.57507 6.44282 5.58236 6.30684C5.35654 6.27527 5.12829 6.25342 4.89518 6.25342C2.1902 6.25342 0 8.44605 0 11.1486H7.31121C6.23068 9.98308 5.56293 8.42906 5.56293 6.71234V6.71477Z" fill="#969300"/>
<path id="Vector_2" d="M19.1023 6.25342C18.9299 6.25342 18.7624 6.26313 18.5948 6.28013C18.6046 6.42339 18.6167 6.56908 18.6167 6.71477C18.6167 8.42905 17.9514 9.98551 16.8684 11.151H23.9975C23.9975 8.44605 21.8049 6.25584 19.1023 6.25584V6.25342Z" fill="#969300"/>
<path id="Vector_3" d="M9.79027 11.1485H14.2047C14.2047 8.6159 16.1278 6.53253 18.5924 6.27758C18.369 2.87571 15.545 0.185303 12.0873 0.185303C8.62961 0.185303 5.79108 2.89028 5.57983 6.30671C7.95701 6.6418 9.78784 8.67903 9.78784 11.1485H9.79027Z" fill="#969300"/>
<path id="Vector_4" d="M7.30884 11.1487H9.79043C9.79043 8.6792 7.95959 6.64197 5.58242 6.30688C5.57513 6.44286 5.56299 6.57641 5.56299 6.71482C5.56299 8.4291 6.22831 9.98556 7.31127 11.1511L7.30884 11.1487Z" fill="#969300"/>
<path id="Vector_5" d="M14.207 11.1485H16.8683C17.9488 9.98297 18.6166 8.42894 18.6166 6.71223C18.6166 6.56654 18.6044 6.42085 18.5947 6.27759C16.1301 6.53255 14.207 8.61591 14.207 11.1485Z" fill="#969300"/>
</g>
<path id="Vector_6" d="M19.1024 6.25306C18.93 6.25306 18.7624 6.26277 18.5949 6.27977C18.3715 2.87791 15.5476 0.1875 12.0898 0.1875V11.1507H14.2072H24C24 8.44569 21.8074 6.25549 19.1048 6.25549L19.1024 6.25306Z" fill="#5E710C"/>
</g>
</svg>
