<svg width="18" height="25" viewBox="0 0 18 25" fill="none" xmlns="http://www.w3.org/2000/svg">
<g id="Group">
<g id="Group_2">
<path id="Vector" d="M17.197 9.77707C17.5318 10.3506 17.7214 11.0201 17.7214 11.7342C17.7214 13.8926 15.9656 15.6483 13.8049 15.6483C13.4818 15.6483 13.1705 15.6085 12.8732 15.5359C12.5946 17.4275 10.9699 18.8766 9.00116 18.8766C7.03237 18.8766 5.40303 17.4275 5.12445 15.5359C4.8248 15.6085 4.5111 15.6483 4.19273 15.6483C2.02964 15.6483 0.278564 13.8926 0.278564 11.7342C0.278564 11.0201 0.468187 10.3506 0.802951 9.77707C0.468187 9.20118 0.278564 8.53165 0.278564 7.81531C0.278564 5.65222 2.02964 3.90114 4.19273 3.90114C4.5111 3.90114 4.82714 3.94094 5.12445 4.01351C5.40303 2.12198 7.03237 0.668213 9.00116 0.668213C10.9699 0.668213 12.5946 2.11964 12.8732 4.01351C13.1728 3.94094 13.4818 3.90114 13.8049 3.90114C15.968 3.90114 17.7214 5.65222 17.7214 7.81531C17.7214 8.52931 17.5318 9.19884 17.197 9.77707Z" fill="#969300"/>
<path id="Vector_2" d="M17.7215 7.81531C17.7215 5.65222 15.9657 3.90114 13.805 3.90114C13.4819 3.90114 13.1706 3.94094 12.8732 4.01351C12.5947 2.12198 10.97 0.668213 9.00122 0.668213V18.8695C10.97 18.8695 12.5947 17.4205 12.8732 15.5289C13.1729 15.6015 13.4819 15.6413 13.805 15.6413C15.9681 15.6413 17.7215 13.8855 17.7215 11.7271C17.7215 11.0131 17.5318 10.3436 17.1971 9.77005C17.5318 9.19416 17.7215 8.52463 17.7215 7.80828V7.81531Z" fill="#5E710C"/>
</g>
<g id="Group_3">
<g id="Group_4">
<path id="Vector_3" d="M14.7065 12.9621L14.4189 12.394L8.79845 15.2393L9.08604 15.8074L14.7065 12.9621Z" fill="#AA652C"/>
<path id="Vector_4" d="M8.93927 15.5235L9.08936 15.8201L14.7103 12.9758L14.5603 12.6792L8.93927 15.5235Z" fill="#823D09"/>
</g>
<g id="Group_5">
<path id="Vector_5" d="M8.91578 14.2099L9.20337 13.6418L3.58287 10.7966L3.29528 11.3647L8.91578 14.2099Z" fill="#AA652C"/>
<path id="Vector_6" d="M3.44091 11.0892L3.29077 11.3857L8.91127 14.231L9.06141 13.9344L3.44091 11.0892Z" fill="#823D09"/>
</g>
<g id="Group_6">
<path id="Vector_7" d="M9.41556 10.5801H8.52832V24.6659H9.41556V10.5801Z" fill="#AA652C"/>
<path id="Vector_8" d="M8.9731 24.6682H9.43896L9.43896 10.5824H8.9731L8.9731 24.6682Z" fill="#823D09"/>
</g>
</g>
</g>
</svg>
