<svg width="10" height="25" viewBox="0 0 10 25" fill="none" xmlns="http://www.w3.org/2000/svg">
<g id="Group">
<g id="Group_2">
<g id="Group_3">
<path id="Vector" d="M4.37642 16.7099L4.83377 16.2979L4.00105 15.5471L3.5437 15.9592L4.37642 16.7099Z" fill="#AA652C"/>
<path id="Vector_2" d="M4.84464 16.2872L4.60518 16.5029L3.77246 15.7543L4.01192 15.5386L4.84464 16.2872Z" fill="#823D09"/>
</g>
<g id="Group_4">
<path id="Vector_3" d="M4.37642 19.0937L4.83377 18.6817L4.00105 17.9331L3.5437 18.3452L4.37642 19.0937Z" fill="#AA652C"/>
<path id="Vector_4" d="M4.84464 18.6731L4.60518 18.8888L3.77246 18.1381L4.01192 17.9224L4.84464 18.6731Z" fill="#823D09"/>
</g>
<g id="Group_5">
<path id="Vector_5" d="M4.37642 21.4797L4.83377 21.0676L4.00105 20.3169L3.5437 20.7289L4.37642 21.4797Z" fill="#AA652C"/>
<path id="Vector_6" d="M4.84464 21.0569L4.60518 21.2727L3.77246 20.5241L4.01192 20.3083L4.84464 21.0569Z" fill="#823D09"/>
</g>
<g id="Group_6">
<path id="Vector_7" d="M5.62556 17.4931L5.16821 17.0811L6.00093 16.3325L6.45828 16.7446L5.62556 17.4931Z" fill="#AA652C"/>
<path id="Vector_8" d="M5.15747 17.0723L5.39693 17.288L6.22965 16.5373L5.99019 16.3215L5.15747 17.0723Z" fill="#823D09"/>
</g>
<g id="Group_7">
<path id="Vector_9" d="M5.62556 19.8791L5.16821 19.4671L6.00093 18.7163L6.45828 19.1284L5.62556 19.8791Z" fill="#AA652C"/>
<path id="Vector_10" d="M5.15747 19.4561L5.39693 19.6718L6.22965 18.9232L5.99019 18.7075L5.15747 19.4561Z" fill="#823D09"/>
</g>
<g id="Group_8">
<path id="Vector_11" d="M5.62556 22.2629L5.16821 21.8509L6.00093 21.1023L6.45828 21.5143L5.62556 22.2629Z" fill="#AA652C"/>
<path id="Vector_12" d="M5.15747 21.842L5.39693 22.0578L6.22965 21.307L5.99019 21.0913L5.15747 21.842Z" fill="#823D09"/>
</g>
<g id="Group_9">
<path id="Vector_13" d="M5.06029 14.626H4.36133V24.6682H5.06029V14.626Z" fill="#AA652C"/>
<path id="Vector_14" d="M5.74193 14.626H5.04297V24.6682H5.74193V14.626Z" fill="#823D09"/>
</g>
</g>
<g id="Group_10">
<path id="Vector_15" d="M4.99989 17.8382C7.74736 17.8382 9.97463 13.9951 9.97463 9.25432C9.97463 4.51356 7.74736 0.67041 4.99989 0.67041C2.25242 0.67041 0.0251465 4.51356 0.0251465 9.25432C0.0251465 13.9951 2.25242 17.8382 4.99989 17.8382Z" fill="#969300"/>
<path id="Vector_16" d="M5 0.670371V17.836C7.7484 17.836 9.97474 13.9939 9.97474 9.25212C9.97474 4.51037 7.74625 0.668213 5 0.668213V0.670371Z" fill="#5E710C"/>
</g>
</g>
</svg>
