<svg width="24" height="20" viewBox="0 0 24 20" fill="none" xmlns="http://www.w3.org/2000/svg">
<g id="OBJECTS">
<g id="Group 557">
<g id="Group">
<path id="Vector" d="M9.28973 8.23533C9.77645 10.2892 8.50579 12.3486 6.45164 12.8353C4.3975 13.3219 2.33772 12.0515 1.851 9.99762C1.36429 7.94378 2.63494 5.88431 4.68909 5.39766C6.74324 4.91102 8.80302 6.18149 9.28973 8.23533Z" fill="#969300"/>
<path id="Vector_2" d="M9.39437 9.12525C11.5054 9.12525 13.2167 10.8363 13.2167 12.947C13.2167 15.0577 11.5054 16.7688 9.39437 16.7688C7.28334 16.7688 5.57202 15.0577 5.57202 12.947C5.57202 10.8363 7.28334 9.12525 9.39437 9.12525Z" fill="#969300"/>
<path id="Vector_3" d="M14.535 7.84791C16.646 7.84791 18.3573 9.55897 18.3573 11.6697C18.3573 13.7804 16.646 15.4915 14.535 15.4915C12.424 15.4915 10.7126 13.7804 10.7126 11.6697C10.7126 9.55897 12.424 7.84791 14.535 7.84791Z" fill="#969300"/>
<path id="Vector_4" d="M19.5018 3.90882C21.4506 4.7203 22.3724 6.95769 21.5608 8.90617C20.7492 10.8547 18.5115 11.7764 16.5628 10.9649C14.614 10.1534 13.6921 7.91605 14.5037 5.96756C15.3153 4.01908 17.553 3.09735 19.5018 3.90882Z" fill="#969300"/>
<path id="Vector_5" d="M10.7076 0.932136C12.8186 0.932136 14.5299 2.6432 14.5299 4.75391C14.5299 6.86462 12.8186 8.57568 10.7076 8.57568C8.59658 8.57568 6.88525 6.86462 6.88525 4.75391C6.88525 2.6432 8.59658 0.932136 10.7076 0.932136Z" fill="#969300"/>
<path id="Vector_6" d="M11.7357 3.07447C13.8467 3.07447 15.558 4.78554 15.558 6.89624C15.558 9.00695 13.8467 10.718 11.7357 10.718C9.62465 10.718 7.91333 9.00695 7.91333 6.89624C7.91333 4.78554 9.62465 3.07447 11.7357 3.07447Z" fill="#969300"/>
</g>
<path id="Vector_7" d="M22.0677 7.51472C22.0677 9.52484 20.5153 11.1686 18.5456 11.3212C18.5609 11.4637 18.5711 11.6011 18.5711 11.7487C18.5711 13.8606 16.861 15.5705 14.7487 15.5705C14.0515 15.5705 13.4051 15.3822 12.8401 15.0565C12.6162 15.4076 12.3362 15.718 12.0105 15.9827V1.16884C12.4024 1.28589 12.7739 1.464 13.1048 1.693C14.4084 2.42133 14.4217 4.02231 15.1719 4.20183C16.7031 3.375 18.0027 3.02946 20.1406 4.03125C21.2756 4.69281 22.0677 6.09491 22.0677 7.50454V7.51472Z" fill="#5E710C"/>
</g>
<g id="Group_2">
<g id="Group_3">
<path id="Vector_8" d="M15.5397 10.2493L14.9299 10.0471L11.8327 18.9082L12.4426 19.1103L15.5397 10.2493Z" fill="#AA652C"/>
<path id="Vector_9" d="M12.1207 19.0356L12.4595 19.1479L15.5582 10.2874L15.2195 10.1751L12.1207 19.0356Z" fill="#823D09"/>
</g>
<g id="Group_4">
<path id="Vector_10" d="M11.5884 19.2224L12.1646 18.8564L7.60851 10.4725L7.03239 10.8384L11.5884 19.2224Z" fill="#AA652C"/>
<path id="Vector_11" d="M7.28661 10.6863L7.01025 10.8618L11.5663 19.2458L11.8427 19.0702L7.28661 10.6863Z" fill="#823D09"/>
</g>
<g id="Group_5">
<path id="Vector_12" d="M12.4424 5.26562H11.5552V19.3951H12.4424V5.26562Z" fill="#AA652C"/>
<path id="Vector_13" d="M12 19.3975H12.4658L12.4658 5.26798H12L12 19.3975Z" fill="#823D09"/>
</g>
</g>
</g>
</svg>
