<svg width="24" height="25" viewBox="0 0 24 25" fill="none" xmlns="http://www.w3.org/2000/svg">
<g id="Group">
<g id="Group_2">
<g id="Group_3">
<path id="Vector" d="M10.9067 15.4012C9.82965 15.4012 8.86613 14.5674 8.86613 13.5668V12.2512H8.44922V13.3468C8.44922 14.6762 9.53086 15.7579 10.8603 15.7579H11.6617V15.4012H10.9067Z" fill="#AA652C"/>
<path id="Vector_2" d="M10.9067 15.4012H11.6618V14.9565H10.8604C9.97333 14.9565 9.25069 14.2338 9.25069 13.3468V12.2512H8.86621V13.5668C8.86621 14.5674 9.82973 15.4012 10.9067 15.4012Z" fill="#823D09"/>
</g>
<g id="Group_4">
<path id="Vector_3" d="M12.5605 16.6241C13.6375 16.6241 14.601 15.7903 14.601 14.7897V13.4741H15.0179V14.5697C15.0179 15.8991 13.9363 16.9808 12.6068 16.9808H11.8054V16.6241H12.5605Z" fill="#823D09"/>
<path id="Vector_4" d="M12.5605 16.6241H11.8054V16.1794H12.6068C13.4939 16.1794 14.2165 15.4567 14.2165 14.5697V13.4741H14.601V14.7897C14.601 15.7903 13.6375 16.6241 12.5605 16.6241Z" fill="#AA652C"/>
</g>
<g id="Group_5">
<path id="Vector_5" d="M12.4979 10.7295H11.6201V24.6658H12.4979V10.7295Z" fill="#AA652C"/>
<path id="Vector_6" d="M12.0579 24.6682H12.5188L12.5188 10.7319H12.0579L12.0579 24.6682Z" fill="#823D09"/>
</g>
</g>
<g id="Group_6">
<g id="Group_7">
<path id="Vector_7" d="M5.85978 6.89637C5.85978 6.76435 5.87136 6.63696 5.87831 6.50725C5.66291 6.47714 5.44518 6.4563 5.22283 6.4563C2.64264 6.4563 0.553467 8.54779 0.553467 11.1257H7.52741C6.49672 10.0139 5.85978 8.53157 5.85978 6.89405V6.89637Z" fill="#969300"/>
<path id="Vector_8" d="M18.7747 6.4563C18.6102 6.4563 18.4504 6.46556 18.2906 6.48178C18.2999 6.61843 18.3114 6.7574 18.3114 6.89637C18.3114 8.53157 17.6768 10.0162 16.6438 11.128H23.444C23.444 8.54779 21.3525 6.45861 18.7747 6.45861V6.4563Z" fill="#969300"/>
<path id="Vector_9" d="M9.89219 11.1257H14.103C14.103 8.7099 15.9374 6.72264 18.2882 6.47945C18.0752 3.23452 15.3815 0.668213 12.0833 0.668213C8.78506 0.668213 6.07748 3.24841 5.87598 6.50724C8.14349 6.82687 9.88987 8.77012 9.88987 11.1257H9.89219Z" fill="#969300"/>
<path id="Vector_10" d="M7.52518 11.1257H9.89229C9.89229 8.77021 8.14591 6.82695 5.8784 6.50732C5.87145 6.63703 5.85986 6.76442 5.85986 6.89644C5.85986 8.53164 6.49449 10.0163 7.5275 11.1281L7.52518 11.1257Z" fill="#969300"/>
<path id="Vector_11" d="M14.1052 11.1257H16.6437C17.6744 10.0139 18.3114 8.5316 18.3114 6.89408C18.3114 6.75511 18.2998 6.61615 18.2905 6.47949C15.9396 6.72269 14.1052 8.70995 14.1052 11.1257Z" fill="#969300"/>
</g>
<path id="Vector_12" d="M18.7747 6.45616C18.6103 6.45616 18.4505 6.46543 18.2907 6.48164C18.0776 3.23671 15.3839 0.67041 12.0857 0.67041V11.1278H14.1054H23.4464C23.4464 8.54765 21.3549 6.45848 18.7771 6.45848L18.7747 6.45616Z" fill="#5E710C"/>
</g>
<g id="Group_8">
<g id="Group_9">
<path id="Vector_13" d="M12.1459 13.238C12.1459 13.2009 12.1482 13.1662 12.1505 13.1291C12.0903 13.1199 12.0301 13.1152 11.9676 13.1152C11.2472 13.1152 10.6636 13.6989 10.6636 14.4192H12.6115C12.3243 14.1089 12.1459 13.6943 12.1459 13.238Z" fill="#969300"/>
<path id="Vector_14" d="M15.7521 13.1152C15.7058 13.1152 15.6618 13.1176 15.6178 13.1222C15.6201 13.1616 15.6247 13.1986 15.6247 13.238C15.6247 13.6943 15.4464 14.1089 15.1592 14.4192H17.0584C17.0584 13.6989 16.4748 13.1152 15.7544 13.1152H15.7521Z" fill="#969300"/>
<path id="Vector_15" d="M13.2715 14.4192H14.4481C14.4481 13.7452 14.96 13.1893 15.6178 13.1222C15.5576 12.2165 14.8071 11.4985 13.8853 11.4985C12.9635 11.4985 12.2084 12.2189 12.1528 13.1291C12.7851 13.2194 13.2739 13.7614 13.2739 14.4192H13.2715Z" fill="#969300"/>
<path id="Vector_16" d="M12.6113 14.4193H13.2714C13.2714 13.7615 12.7827 13.2195 12.1504 13.1292C12.1504 13.1662 12.1458 13.201 12.1458 13.238C12.1458 13.6943 12.3241 14.1089 12.6113 14.4193Z" fill="#969300"/>
<path id="Vector_17" d="M14.4481 14.4191H15.1569C15.4441 14.1088 15.6224 13.6942 15.6224 13.2379C15.6224 13.1985 15.6201 13.1614 15.6155 13.1221C14.9577 13.1892 14.4458 13.7451 14.4458 14.4191H14.4481Z" fill="#969300"/>
</g>
<path id="Vector_18" d="M15.7521 13.1152C15.7058 13.1152 15.6617 13.1175 15.6177 13.1222C15.5575 12.2165 14.8071 11.4985 13.8853 11.4985V14.4192H17.0584C17.0584 13.6989 16.4747 13.1152 15.7544 13.1152H15.7521Z" fill="#5E710C"/>
</g>
</g>
</svg>
