<svg width="8" height="24" viewBox="0 0 8 24" fill="none" xmlns="http://www.w3.org/2000/svg">
<g id="Group">
<g id="Group_2">
<g id="Group_3">
<path id="Vector" d="M3.99991 7.41193C5.99717 7.41193 7.61627 5.79282 7.61627 3.79556C7.61627 1.7983 5.99717 0.179199 3.99991 0.179199C2.00265 0.179199 0.383545 1.7983 0.383545 3.79556C0.383545 5.79282 2.00265 7.41193 3.99991 7.41193Z" fill="#969300"/>
<path id="Vector_2" d="M3.99991 12.8411C5.99717 12.8411 7.61627 11.222 7.61627 9.22476C7.61627 7.2275 5.99717 5.6084 3.99991 5.6084C2.00265 5.6084 0.383545 7.2275 0.383545 9.22476C0.383545 11.222 2.00265 12.8411 3.99991 12.8411Z" fill="#969300"/>
<path id="Vector_3" d="M3.99991 18.2684C5.99717 18.2684 7.61627 16.6493 7.61627 14.652C7.61627 12.6547 5.99717 11.0356 3.99991 11.0356C2.00265 11.0356 0.383545 12.6547 0.383545 14.652C0.383545 16.6493 2.00265 18.2684 3.99991 18.2684Z" fill="#969300"/>
</g>
<path id="Vector_4" d="M7.54532 9.22465C7.54532 8.14284 7.06714 7.17374 6.31259 6.51011C7.06714 5.84829 7.54532 4.8792 7.54532 3.79556C7.54532 1.7992 5.92714 0.179199 3.92896 0.179199V18.2665C5.92532 18.2665 7.54532 16.6483 7.54532 14.6501C7.54532 13.5683 7.06714 12.5992 6.31259 11.9356C7.06714 11.2737 7.54532 10.3047 7.54532 9.22102V9.22465Z" fill="#5E710C"/>
</g>
<g id="Group_4">
<path id="Vector_5" d="M4.21257 13.9592H3.63257V23.1574H4.21257V13.9592Z" fill="#AA652C"/>
<path id="Vector_6" d="M3.92171 23.1575H4.22534L4.22534 13.9593H3.92171L3.92171 23.1575Z" fill="#823D09"/>
</g>
</g>
</svg>
