<svg width="8" height="25" viewBox="0 0 8 25" fill="none" xmlns="http://www.w3.org/2000/svg">
<g id="Group">
<g id="Group_2">
<g id="Group_3">
<path id="Vector" d="M6.16988 16.9416L5.86133 16.6331L3.78372 18.7107L4.09228 19.0192L6.16988 16.9416Z" fill="#AA652C"/>
<path id="Vector_2" d="M3.93689 18.8661L4.09888 19.0281L6.17649 16.9505L6.01449 16.7885L3.93689 18.8661Z" fill="#823D09"/>
</g>
<g id="Group_4">
<path id="Vector_3" d="M2.00265 16.0835L1.69409 16.3921L3.7717 18.4697L4.08026 18.1611L2.00265 16.0835Z" fill="#AA652C"/>
<path id="Vector_4" d="M3.92517 18.3168L4.08716 18.1548L2.00955 16.0772L1.84756 16.2392L3.92517 18.3168Z" fill="#823D09"/>
</g>
<g id="Group_5">
<path id="Vector_5" d="M4.29279 14.9226H3.68188V24.5972H4.29279V14.9226Z" fill="#AA652C"/>
<path id="Vector_6" d="M3.98737 24.5972H4.30737L4.30737 14.9226H3.98737L3.98737 24.5972Z" fill="#823D09"/>
</g>
</g>
<g id="Group_6">
<path id="Vector_7" d="M7.16538 3.90447C7.16538 2.16265 5.73993 0.739014 3.99993 0.739014C2.25811 0.739014 0.834473 2.16447 0.834473 3.90447V17.0299H7.16538V3.90447Z" fill="#969300"/>
<path id="Vector_8" d="M7.15081 3.90447C7.15081 2.16265 5.72535 0.739014 3.98535 0.739014V17.0299H7.15081V3.90447Z" fill="#5E710C"/>
</g>
</g>
</svg>
