<svg width="16" height="25" viewBox="0 0 16 25" fill="none" xmlns="http://www.w3.org/2000/svg">
<g id="Group">
<g id="Group_2">
<g id="Group_3">
<path id="Vector" d="M6.18155 15.4206C5.10545 15.4206 4.14511 14.5889 4.14511 13.59V12.2781H3.72925V13.3713C3.72925 14.6982 4.80963 15.7786 6.13654 15.7786H6.93611V15.4228H6.1837L6.18155 15.4206Z" fill="#AA652C"/>
<path id="Vector_2" d="M6.1817 15.4206H6.93412V14.9769H6.13455C5.24923 14.9769 4.52897 14.2566 4.52897 13.3713V12.2781H4.14526V13.59C4.14526 14.5889 5.10775 15.4206 6.1817 15.4206Z" fill="#823D09"/>
</g>
<g id="Group_4">
<path id="Vector_3" d="M7.83219 16.6404C8.90829 16.6404 9.86863 15.8086 9.86863 14.8097V13.4978H10.2845V14.5911C10.2845 15.918 9.20411 16.9983 7.87721 16.9983H7.07764V16.6425H7.83005L7.83219 16.6404Z" fill="#823D09"/>
<path id="Vector_4" d="M7.83225 16.6404H7.07983V16.1966H7.87941C8.76472 16.1966 9.48498 15.4764 9.48498 14.5911V13.4978H9.86869V14.8097C9.86869 15.8086 8.9062 16.6404 7.83225 16.6404Z" fill="#AA652C"/>
</g>
<g id="Group_5">
<path id="Vector_5" d="M7.77005 10.7583H6.89331V24.6683H7.77005V10.7583Z" fill="#AA652C"/>
<path id="Vector_6" d="M7.33277 24.666H7.7915L7.7915 10.756H7.33277L7.33277 24.666Z" fill="#823D09"/>
</g>
</g>
<g id="Group_6">
<g id="Group_7">
<path id="Vector_7" d="M3.10131 13.2341C4.66405 13.2341 5.93089 11.9673 5.93089 10.4045C5.93089 8.8418 4.66405 7.57495 3.10131 7.57495C1.53858 7.57495 0.271729 8.8418 0.271729 10.4045C0.271729 11.9673 1.53858 13.2341 3.10131 13.2341Z" fill="#969300"/>
<path id="Vector_8" d="M3.10131 9.15697C4.66405 9.15697 5.93089 7.89012 5.93089 6.32738C5.93089 4.76465 4.66405 3.4978 3.10131 3.4978C1.53858 3.4978 0.271729 4.76465 0.271729 6.32738C0.271729 7.89012 1.53858 9.15697 3.10131 9.15697Z" fill="#969300"/>
<path id="Vector_9" d="M5.9309 6.32738C7.49364 6.32738 8.76048 5.06053 8.76048 3.49779C8.76048 1.93506 7.49364 0.668213 5.9309 0.668213C4.36817 0.668213 3.10132 1.93506 3.10132 3.49779C3.10132 5.06053 4.36817 6.32738 5.9309 6.32738Z" fill="#969300"/>
<path id="Vector_10" d="M9.73583 7.27049C11.2986 7.27049 12.5654 6.00364 12.5654 4.44091C12.5654 2.87818 11.2986 1.61133 9.73583 1.61133C8.1731 1.61133 6.90625 2.87818 6.90625 4.44091C6.90625 6.00364 8.1731 7.27049 9.73583 7.27049Z" fill="#969300"/>
<path id="Vector_11" d="M15.0744 8.23043C15.4355 6.70999 14.4957 5.1847 12.9752 4.8236C11.4548 4.4625 9.92948 5.40233 9.56838 6.92278C9.20728 8.44322 10.1471 9.96851 11.6676 10.3296C13.188 10.6907 14.7133 9.75087 15.0744 8.23043Z" fill="#969300"/>
<path id="Vector_12" d="M14.1106 11.921C14.3599 10.3783 13.3114 8.92558 11.7687 8.67626C10.226 8.42695 8.77324 9.47546 8.52393 11.0182C8.27462 12.5609 9.32313 14.0136 10.8658 14.2629C12.4086 14.5123 13.8613 13.4637 14.1106 11.921Z" fill="#969300"/>
<path id="Vector_13" d="M9.69865 10.0101C9.94688 8.46718 8.89736 7.01518 7.35446 6.76695C5.81157 6.51871 4.35957 7.56824 4.11134 9.11113C3.8631 10.654 4.91263 12.106 6.45552 12.3543C7.99841 12.6025 9.45041 11.553 9.69865 10.0101Z" fill="#969300"/>
<path id="Vector_14" d="M7.66503 10.8054C9.22777 10.8054 10.4946 9.53856 10.4946 7.97582C10.4946 6.41309 9.22777 5.14624 7.66503 5.14624C6.1023 5.14624 4.83545 6.41309 4.83545 7.97582C4.83545 9.53856 6.1023 10.8054 7.66503 10.8054Z" fill="#969300"/>
</g>
<path id="Vector_15" d="M15.1505 7.56214C15.1505 6.07447 14.0037 4.85903 12.546 4.74328C12.5567 4.64038 12.5653 4.53535 12.5653 4.42817C12.5653 2.86546 11.2984 1.59858 9.73574 1.59858C9.22127 1.59858 8.7411 1.73792 8.32523 1.978C8.16018 1.71648 7.95224 1.48926 7.71216 1.29419V12.2567C8.00369 12.1688 8.27593 12.038 8.5203 11.8687C8.71966 13.2363 9.89437 14.2888 11.3177 14.2888C12.8804 14.2888 14.1473 13.0219 14.1473 11.4592C14.1473 10.9276 13.9973 10.4325 13.7443 10.008C14.5846 9.51713 15.1527 8.60823 15.1527 7.56429L15.1505 7.56214Z" fill="#5E710C"/>
</g>
</g>
</svg>
