<svg width="18" height="20" viewBox="0 0 18 20" fill="none" xmlns="http://www.w3.org/2000/svg">
<g id="Group">
<g id="Group_2">
<path id="Vector" d="M17.197 9.3569C17.5318 9.93045 17.7214 10.6 17.7214 11.314C17.7214 13.4724 15.9656 15.2282 13.8049 15.2282C13.4818 15.2282 13.1705 15.1884 12.8732 15.1158C12.5946 17.0073 10.9699 18.4564 9.00116 18.4564C7.03237 18.4564 5.40303 17.0073 5.12445 15.1158C4.8248 15.1884 4.5111 15.2282 4.19273 15.2282C2.02964 15.2282 0.278564 13.4724 0.278564 11.314C0.278564 10.6 0.468187 9.93045 0.802951 9.3569C0.468187 8.78102 0.278564 8.11149 0.278564 7.39514C0.278564 5.23205 2.02964 3.48098 4.19273 3.48098C4.5111 3.48098 4.82714 3.52077 5.12445 3.59334C5.40303 1.70181 7.03237 0.248047 9.00116 0.248047C10.9699 0.248047 12.5946 1.69947 12.8732 3.59334C13.1728 3.52077 13.4818 3.48098 13.8049 3.48098C15.968 3.48098 17.7214 5.23205 17.7214 7.39514C17.7214 8.10915 17.5318 8.77868 17.197 9.3569Z" fill="#969300"/>
<path id="Vector_2" d="M17.7215 7.39514C17.7215 5.23205 15.9657 3.48098 13.805 3.48098C13.4819 3.48098 13.1706 3.52077 12.8732 3.59334C12.5947 1.70181 10.97 0.248047 9.00122 0.248047V18.4494C10.97 18.4494 12.5947 17.0003 12.8732 15.1088C13.1729 15.1813 13.4819 15.2211 13.805 15.2211C15.9681 15.2211 17.7215 13.4654 17.7215 11.307C17.7215 10.593 17.5318 9.92343 17.1971 9.34988C17.5318 8.77399 17.7215 8.10447 17.7215 7.38812V7.39514Z" fill="#5E710C"/>
</g>
<g id="Group_3">
<g id="Group_4">
<path id="Vector_3" d="M12.5397 9.93334L11.9299 9.7312L8.83274 18.5922L9.44255 18.7944L12.5397 9.93334Z" fill="#AA652C"/>
<path id="Vector_4" d="M9.12074 18.7197L9.45947 18.832L12.5582 9.97152L12.2195 9.85917L9.12074 18.7197Z" fill="#823D09"/>
</g>
<g id="Group_5">
<path id="Vector_5" d="M8.58843 18.9065L9.16455 18.5405L4.60851 10.1566L4.03239 10.5225L8.58843 18.9065Z" fill="#AA652C"/>
<path id="Vector_6" d="M4.28661 10.3704L4.01025 10.5459L8.56629 18.9298L8.84265 18.7543L4.28661 10.3704Z" fill="#823D09"/>
</g>
<g id="Group_6">
<path id="Vector_7" d="M9.44242 4.94971H8.55518V19.0792H9.44242V4.94971Z" fill="#AA652C"/>
<path id="Vector_8" d="M8.99996 19.0815H9.46582L9.46582 4.95206H8.99996L8.99996 19.0815Z" fill="#823D09"/>
</g>
</g>
</g>
</svg>
