<svg width="24" height="25" viewBox="0 0 24 25" fill="none" xmlns="http://www.w3.org/2000/svg">
<g id="Black">
<path id="Vector" d="M22.9262 0.71804C22.7623 0.832792 21.7852 1.30163 21.2967 1.49835C20.0509 1.99997 18.8411 2.34422 17.4772 2.58356C16.8805 2.68848 16.4083 2.74749 15.3133 2.84913C12.2314 3.14092 10.1331 3.54747 8.55938 4.16057C7.2709 4.66219 6.35617 5.23267 5.55619 6.02937C2.98249 8.59651 1.74318 12.1538 2.30054 15.3734C2.40218 15.9733 2.55955 16.5209 2.7825 17.0618C2.90708 17.3733 3.11691 17.7962 3.19232 17.8979C3.2415 17.9602 3.24478 17.9602 3.30379 17.852C3.33658 17.793 3.471 17.5864 3.60542 17.393C5.29718 14.9734 9.10035 12.1505 13.9461 9.71451C14.4182 9.47845 14.792 9.29813 14.7723 9.31452C14.7559 9.33419 14.3854 9.60631 13.9527 9.92434C11.4544 11.7604 9.45116 13.4455 7.54302 15.3111C5.03817 17.7569 2.9202 20.2355 0.687475 23.3404C0.107163 24.1469 -0.0403737 24.3731 0.00880523 24.3862C0.0448698 24.3993 2.34644 24.6715 2.3989 24.6682C2.40874 24.6682 2.5366 24.4715 2.67758 24.2321C3.43494 22.9568 4.28409 21.7043 4.84801 21.0289C5.12341 20.7044 5.40865 20.406 5.448 20.406C5.46767 20.406 5.54308 20.4486 5.61848 20.4978C6.566 21.1371 7.85776 21.5929 9.18232 21.7568C9.89705 21.842 11.0216 21.806 11.8544 21.665C14.0412 21.2978 16.3165 20.1011 17.9427 18.4684C19.5886 16.8094 20.8607 13.7275 21.8902 8.88175C22.3131 6.8818 22.7426 4.08516 22.9688 1.83276C23.0114 1.38032 23.0573 0.934429 23.0672 0.83935C23.0868 0.65247 23.0573 0.629519 22.9262 0.71804Z" fill="#969300"/>
</g>
</svg>
