<svg width="24" height="25" viewBox="0 0 24 25" fill="none" xmlns="http://www.w3.org/2000/svg">
<g id="Black">
<path id="Vector" d="M11.4172 0.694305C11.2388 0.731853 10.9478 0.971216 10.8305 1.17773L10.7132 1.38893L10.6991 2.88143L10.685 4.37393L10.2579 3.79665C10.0279 3.4775 9.73693 3.08794 9.6149 2.92837C9.2582 2.44495 8.81702 2.31353 8.43686 2.58575C8.26789 2.70778 8.10832 3.00815 8.10832 3.21936C8.10832 3.42587 8.21157 3.58075 9.50695 5.34547L10.6897 6.95531L10.6803 7.73911L10.6662 8.51821L9.57735 7.15712C8.87804 6.28415 8.42747 5.76318 8.32891 5.70686C8.08485 5.58014 7.68122 5.62707 7.49348 5.80542C7.21188 6.06825 7.14148 6.38741 7.29167 6.6784C7.33391 6.75818 8.11301 7.75788 9.02823 8.90307L10.6897 10.9869L10.6803 11.7473L10.6662 12.5076L9.57735 11.1465C8.94374 10.3533 8.42747 9.75258 8.33829 9.70095C8.11771 9.57423 7.79386 9.57892 7.57327 9.71503C7.25881 9.91215 7.1274 10.3486 7.29167 10.6678C7.33391 10.7476 8.11301 11.7426 9.02823 12.8878L10.6897 14.9669L10.6803 18.0646L10.6662 21.1622L9.58674 19.9701L8.50726 18.778L8.45094 18.1585C8.41808 17.8158 8.31952 16.619 8.22565 15.4973C8.10363 14.0048 8.03792 13.4181 7.9816 13.3008C7.83141 12.9816 7.44186 12.808 7.10393 12.9112C6.86457 12.9816 6.62051 13.2398 6.57827 13.4557C6.5595 13.5495 6.60643 14.3286 6.67683 15.1875C6.74723 16.0511 6.79417 16.7786 6.78478 16.8068C6.7707 16.8537 6.44216 16.5158 5.89303 15.8869C5.81794 15.8024 5.7757 15.502 5.61612 13.925C5.49879 12.7094 5.40961 12.0148 5.36268 11.9256C5.07638 11.3718 4.26911 11.3906 4.01567 11.9585C3.9218 12.1744 3.9218 12.1838 4.00159 12.991C4.04383 13.4416 4.07199 13.8171 4.0626 13.8311C4.04852 13.8405 3.55572 13.3149 2.96435 12.6625C1.81916 11.4047 1.65958 11.2685 1.27472 11.2685C0.875783 11.2685 0.528472 11.4704 0.354816 11.7989C0.2234 12.0477 0.214013 12.4888 0.331349 12.7141C0.378283 12.7939 0.932104 13.4369 1.56571 14.1362C2.19932 14.8355 2.7109 15.4128 2.70152 15.4222C2.69213 15.4269 2.27442 15.3706 1.77222 15.2955C1.27003 15.2204 0.767835 15.1688 0.659887 15.1782C0.411136 15.2063 0.143612 15.3987 0.0497443 15.6287C-0.0957512 15.976 0.091985 16.4548 0.42991 16.5956C0.509698 16.6284 1.42491 16.7786 2.45746 16.9288L4.33952 17.2057L4.84171 17.7548C5.11393 18.0552 5.33921 18.3087 5.33921 18.3227C5.33921 18.3321 5.03883 18.2899 4.67275 18.2289C2.94088 17.9473 1.9318 17.7924 1.83324 17.7924C1.77222 17.7924 1.64081 17.8346 1.54225 17.8862C0.997812 18.1632 1.01189 18.9939 1.56571 19.2286C1.6455 19.2614 2.37298 19.3975 3.18494 19.5242C6.50787 20.064 7.00537 20.1485 7.057 20.2001C7.08516 20.2329 7.49818 20.6882 7.97221 21.2186C9.84018 23.3024 10.9009 24.4382 11.0839 24.5509C11.2482 24.6494 11.3327 24.6682 11.6518 24.6682C11.8912 24.6635 12.0883 24.6401 12.1963 24.5884C12.3793 24.5086 12.797 24.0675 14.8011 21.8522C15.5004 21.0778 16.134 20.3784 16.2091 20.294L16.3452 20.1438L19.044 19.7073C21.1701 19.3647 21.7708 19.252 21.8788 19.1769C22.2073 18.9563 22.3059 18.487 22.0994 18.1491C21.982 17.9613 21.7004 17.7924 21.508 17.7924C21.4376 17.7924 20.6585 17.9097 19.7667 18.0552C18.875 18.196 18.1194 18.3087 18.0865 18.2993C18.0489 18.2899 18.2226 18.0646 18.5136 17.7454L19.0064 17.2057L20.8181 16.9429C21.8178 16.7974 22.7048 16.666 22.7893 16.6425C23.3431 16.5205 23.5402 15.7977 23.1319 15.394C22.8785 15.1406 22.747 15.1265 21.6769 15.2767C21.1701 15.3471 20.7289 15.4128 20.7007 15.4269C20.6679 15.4363 20.6397 15.4316 20.6397 15.4222C20.6397 15.4081 21.156 14.8308 21.7849 14.1362C22.4185 13.4416 22.9723 12.7986 23.0193 12.7141C23.0709 12.6156 23.0991 12.456 23.0991 12.2776C23.1037 11.7332 22.7283 11.3155 22.1932 11.2779C21.7004 11.2404 21.63 11.2967 20.405 12.6484C19.8043 13.3102 19.3021 13.8405 19.2927 13.8311C19.2833 13.8218 19.3068 13.4416 19.349 12.9957C19.4288 12.1838 19.4288 12.1744 19.3349 11.9585C19.1331 11.4985 18.584 11.3765 18.1757 11.6956C17.9504 11.8787 17.9269 11.9913 17.7533 13.742C17.6641 14.6666 17.5796 15.5114 17.5655 15.6146C17.5421 15.7789 17.467 15.8915 17.0586 16.3374C16.8005 16.6284 16.5752 16.8396 16.5658 16.8068C16.5564 16.7786 16.6034 16.0511 16.6738 15.1922C16.7442 14.3333 16.7911 13.5542 16.7723 13.4604C16.7301 13.2304 16.486 12.9816 16.2373 12.9159C15.8853 12.8174 15.5192 12.9816 15.369 13.2961C15.3221 13.3994 15.2705 13.7701 15.2235 14.3662C14.895 18.4119 14.8621 18.7451 14.7823 18.8531C14.6697 18.9986 12.6985 21.1716 12.6797 21.1716C12.6703 21.1716 12.6609 19.7824 12.6609 18.0834V14.9904L14.3693 12.8502C15.308 11.6769 16.0871 10.6631 16.1059 10.6021C16.242 10.0811 15.8947 9.60239 15.3784 9.61177C15.2141 9.61177 15.0968 9.64932 14.9842 9.72441C14.895 9.78543 14.3552 10.4284 13.7826 11.1512C13.21 11.874 12.7266 12.4841 12.7032 12.5076C12.6797 12.5358 12.6609 12.226 12.6609 11.7801V11.001L14.3646 8.86552C15.3033 7.69217 16.0871 6.68309 16.1012 6.61738C16.1951 6.26538 16.0496 5.88052 15.7586 5.72094C15.5239 5.59422 15.1015 5.62238 14.9325 5.78196C14.8621 5.84297 14.3412 6.47658 13.7733 7.18528C13.2054 7.89399 12.7219 8.49474 12.7032 8.51821C12.6797 8.54637 12.6609 8.21314 12.6609 7.76727V6.97408L13.8859 5.30792C14.5617 4.39271 15.1437 3.57606 15.1766 3.49158C15.4159 2.93306 14.9372 2.35108 14.3271 2.46372C14.083 2.51065 13.9516 2.64676 13.2898 3.5479L12.6844 4.37393L12.6609 2.85797C12.6375 1.20589 12.6375 1.20589 12.3465 0.93367C12.1071 0.708385 11.7739 0.619211 11.4172 0.694305Z" fill="#B3CBE7"/>
</g>
</svg>
