<svg width="24" height="25" viewBox="0 0 24 25" fill="none" xmlns="http://www.w3.org/2000/svg">
<path d="M11.2053 3.59818C11.2053 3.86385 11.2008 6.19856 11.1917 6.31113C11.3043 6.4192 11.4709 6.52726 11.7096 6.60832C12.0518 6.73439 12.5291 6.78618 13.0694 6.84696C13.3418 6.87848 13.6323 6.91451 13.9385 6.9888C13.961 6.99556 13.9857 7.00006 14.0083 7.00682C14.0083 7.00682 14.069 7.00681 14.1749 7.01132C14.2739 7.01132 14.418 7.01357 14.5238 6.97079C14.5801 6.95503 14.6432 6.9055 14.7197 6.84471C14.8053 6.76366 14.8953 6.67586 14.9876 6.5858C15.1857 6.40119 15.3906 6.22332 15.5707 6.03421C15.6135 5.98468 15.6585 5.9374 15.6991 5.88787L15.7576 5.81132C15.7689 5.80006 15.8184 5.72576 15.8432 5.68299C15.8724 5.63346 15.8994 5.58618 15.9287 5.5389L15.9715 5.4691C15.9715 5.4691 15.9827 5.43983 15.994 5.43983L16.03 5.45334C16.0773 5.47135 16.1268 5.49162 16.1741 5.50963L16.2439 5.53665C16.2664 5.54565 16.2867 5.55466 16.325 5.56591C16.5253 5.6312 16.7437 5.61545 16.9328 5.59293C17.122 5.57042 17.2886 5.5389 17.4056 5.52314C17.525 5.50963 17.5925 5.50062 17.5925 5.50062L17.624 5.76854C17.624 5.76854 17.561 5.7843 17.4529 5.81132C17.3426 5.84059 17.185 5.89237 16.9846 5.9419C16.9801 5.9419 16.9756 5.9419 16.9711 5.9464C16.9779 5.9509 16.9824 5.95541 16.9891 5.95991C17.0837 6.0252 17.194 6.095 17.3246 6.13777C17.3516 6.14903 17.3809 6.15578 17.4101 6.16479C17.4326 6.15803 17.4597 6.15578 17.4889 6.14678C17.5475 6.12651 17.615 6.095 17.6871 6.05672C17.7591 6.01845 17.8356 5.97342 17.9167 5.93965C17.9572 5.92164 18 5.91038 18.0405 5.89687C18.0856 5.89012 18.1261 5.89012 18.1666 5.89237C18.2477 5.89912 18.3197 5.91488 18.3827 5.92614C18.5088 5.95316 18.5899 5.98018 18.5899 5.98018V5.99143C18.5899 5.99143 18.5043 5.96892 18.3782 5.9464C18.3152 5.9374 18.2432 5.92389 18.1621 5.92164C18.1238 5.92164 18.0833 5.92164 18.0428 5.93064C18.0045 5.9464 17.964 5.95766 17.9257 5.97792C17.8492 6.0162 17.7771 6.06348 17.7051 6.10625C17.651 6.14002 17.5993 6.16929 17.5475 6.19406C17.6128 6.20531 17.678 6.21207 17.7456 6.22107C18.045 6.25935 18.3467 6.30212 18.5719 6.31338C18.797 6.32914 18.9478 6.3404 18.9478 6.3404V6.41694C18.9478 6.41694 18.797 6.41019 18.5696 6.40119C18.34 6.39894 18.0405 6.36516 17.7388 6.33364C17.5902 6.32014 17.4304 6.30663 17.2908 6.25935C17.2863 6.25935 17.2841 6.25935 17.2841 6.25935C17.1422 6.21432 17.0206 6.14227 16.9216 6.07698C16.8698 6.04321 16.8248 6.01169 16.7865 5.98242C16.6266 6.01169 16.4443 6.02971 16.2439 5.99368C16.2529 5.99593 16.2417 5.99368 16.2349 5.99368L16.2146 5.98918L16.1764 5.98242H16.1674C16.1674 5.98242 16.1629 5.98693 16.1629 5.98918L16.1538 6.01169L16.1358 6.05447C16.1268 6.07473 16.1358 6.06122 16.1066 6.1085L16.0458 6.20982C16.003 6.27511 15.958 6.3359 15.9129 6.39894C15.7306 6.64209 15.5325 6.85372 15.3659 7.04959C15.2803 7.15316 15.197 7.25447 15.1159 7.34903C15.0709 7.39631 15.0214 7.44584 14.9696 7.49087C15.1947 7.67323 15.3884 7.87135 15.5707 8.06723C15.6045 8.06272 15.6405 8.05597 15.6788 8.04246C15.7824 8.01319 15.9062 7.96591 16.021 7.89612C16.1448 7.82182 16.2799 7.74303 16.4128 7.66423C16.5456 7.58768 16.6784 7.50438 16.8045 7.43684C16.9328 7.37154 17.0522 7.3085 17.1535 7.25672C17.3584 7.15091 17.4934 7.08111 17.4934 7.08111L17.5205 7.15091C17.5205 7.15091 17.3854 7.2252 17.185 7.33552C17.0837 7.3918 16.9666 7.4571 16.8405 7.52689C16.8045 7.54715 16.7685 7.57192 16.7302 7.59218C16.7527 7.61019 16.7842 7.63045 16.8225 7.65522C16.8653 7.67998 16.9148 7.70925 16.9711 7.73402C16.9981 7.74528 17.0274 7.75653 17.0567 7.76554C17.0882 7.77229 17.1129 7.7768 17.1467 7.77229C17.1782 7.77004 17.212 7.76554 17.2413 7.76329C17.2728 7.75653 17.3021 7.74978 17.3336 7.74528C17.3944 7.73402 17.4462 7.7115 17.4934 7.698C17.5407 7.68224 17.5767 7.66197 17.6038 7.65297C17.6308 7.64171 17.6443 7.63496 17.6443 7.63496L17.6488 7.64621C17.6488 7.64621 17.633 7.65297 17.6083 7.66648C17.5812 7.67773 17.5452 7.70025 17.4979 7.71826C17.4507 7.73402 17.3966 7.76104 17.3381 7.77455C17.3088 7.78355 17.2773 7.7903 17.2458 7.79931C17.2143 7.80381 17.1805 7.81057 17.149 7.81507C17.1174 7.82408 17.0792 7.82182 17.0454 7.81507C17.0139 7.80832 16.9801 7.79931 16.9508 7.78805C16.8901 7.76779 16.836 7.74303 16.791 7.72051C16.746 7.698 16.7077 7.67774 16.6807 7.66198C16.6672 7.65297 16.6582 7.64847 16.6492 7.63946C16.5839 7.67999 16.5186 7.72276 16.4533 7.76329C16.3227 7.84659 16.1944 7.92764 16.0728 8.00419C15.949 8.08524 15.8296 8.13252 15.7238 8.16854C15.7373 8.1753 15.7508 8.1843 15.7666 8.19105C15.9107 8.27436 16.1358 8.34865 16.4285 8.35991C16.7212 8.37342 17.0837 8.29237 17.4709 8.15954C17.8604 8.0267 18.2792 7.82858 18.7114 7.65972C18.734 7.65072 18.7565 7.64171 18.779 7.63271C18.8668 7.55616 18.9433 7.45935 18.9996 7.34227C19.1437 7.04509 19.1978 6.69387 19.2495 6.43721C19.2968 6.1783 19.3396 6.00719 19.3396 6.00719L19.4049 6.02745C19.4049 6.02745 19.3689 6.19631 19.3283 6.45522C19.3058 6.5813 19.2856 6.72989 19.2518 6.88749C19.2833 6.85597 19.3216 6.8177 19.3734 6.77267C19.4026 6.74565 19.4432 6.72089 19.4814 6.69612C19.5287 6.67586 19.576 6.67136 19.6233 6.67136C19.6705 6.67136 19.7201 6.67135 19.7651 6.66685C19.8124 6.66235 19.8484 6.63984 19.8822 6.60156C19.9452 6.52276 19.9722 6.41019 19.9925 6.30888C20.0128 6.20531 20.0308 6.1085 20.0623 6.02745C20.0758 5.98693 20.0938 5.95316 20.1118 5.92389C20.1298 5.89462 20.1478 5.87436 20.1659 5.85635C20.1816 5.83834 20.1996 5.83158 20.2086 5.82257C20.2176 5.81582 20.2244 5.81132 20.2244 5.81132L20.2289 5.82257C20.2289 5.82257 20.2244 5.82708 20.2131 5.83383C20.2041 5.84284 20.1884 5.84959 20.1726 5.8676C20.1568 5.88336 20.1388 5.90363 20.1231 5.93289C20.1073 5.96216 20.0916 5.99593 20.078 6.03421C20.051 6.11301 20.0375 6.20982 20.0195 6.31338C20.0105 6.36516 19.9993 6.4192 19.9835 6.47323C19.9655 6.52726 19.9452 6.5813 19.9092 6.62633C19.8754 6.67136 19.8214 6.70513 19.7696 6.71413C19.7178 6.72314 19.6705 6.72314 19.6233 6.72764C19.5782 6.73214 19.5355 6.7389 19.5017 6.75466C19.4679 6.77942 19.4364 6.79968 19.4094 6.82895C19.3553 6.88299 19.3126 6.93252 19.2811 6.96629C19.2495 7.00231 19.2293 7.02257 19.2293 7.02257L19.2203 7.00907C19.1887 7.1374 19.146 7.26798 19.0897 7.39631C19.0672 7.44359 19.0401 7.49087 19.0131 7.53589C19.0199 7.53589 19.0244 7.53139 19.0311 7.52914C19.137 7.48636 19.2473 7.43909 19.3598 7.40081C19.5805 7.31751 19.8259 7.26798 20.0645 7.26573C20.1118 7.26798 20.1591 7.27023 20.2041 7.27473C20.2356 7.24547 20.2694 7.21619 20.3032 7.18017C20.3325 7.15315 20.3685 7.12389 20.4045 7.09912C20.4383 7.07211 20.472 7.04734 20.5058 7.02032C20.5756 6.96629 20.6477 6.90325 20.7197 6.84021C20.7917 6.77492 20.8615 6.70288 20.9336 6.62633C21.0034 6.54528 21.0687 6.46648 21.143 6.38317C21.152 6.37192 21.1655 6.36066 21.179 6.34941C21.1947 6.3404 21.2128 6.32689 21.2308 6.32464C21.251 6.32014 21.269 6.32013 21.2826 6.32239C21.2983 6.32239 21.3118 6.32689 21.3253 6.32914C21.3771 6.3404 21.4244 6.35166 21.4739 6.36967C21.5707 6.40119 21.6675 6.4327 21.7553 6.46648C21.9332 6.53627 22.1021 6.57455 22.2484 6.60607C22.5433 6.66235 22.7437 6.69162 22.7437 6.69162L22.7347 6.76591C22.7347 6.76591 22.5366 6.74115 22.2371 6.69162C22.0886 6.6646 21.9107 6.62858 21.7306 6.56103C21.6743 6.54077 21.6203 6.52276 21.564 6.50475C21.5955 6.53402 21.6293 6.56554 21.6675 6.60156C21.7508 6.68486 21.8477 6.78618 21.9377 6.91C21.9827 6.97079 22.0255 7.03834 22.0615 7.11263C22.0976 7.18693 22.1268 7.27023 22.1268 7.36028C22.1268 7.40531 22.1178 7.45034 22.0998 7.49087L22.0863 7.51788L22.0795 7.52689C22.0795 7.52689 22.0841 7.52914 22.0863 7.53139L22.1021 7.53589C22.1696 7.55841 22.2417 7.56516 22.3092 7.57417C22.3767 7.57867 22.4443 7.58092 22.5073 7.58543C22.5704 7.58768 22.6311 7.59443 22.6852 7.60119C22.7392 7.6147 22.791 7.61469 22.8338 7.63496C22.8765 7.65297 22.9171 7.65972 22.9441 7.68224C23.0004 7.71826 23.0341 7.73852 23.0341 7.73852L23.0274 7.74978C23.0274 7.74978 22.9959 7.72952 22.9396 7.69575C22.9126 7.67548 22.8743 7.66873 22.8315 7.65297C22.791 7.63496 22.7392 7.63496 22.6852 7.62145C22.6311 7.61695 22.5704 7.61244 22.5073 7.61019C22.4443 7.61019 22.3767 7.60569 22.3069 7.60569C22.2372 7.59894 22.1651 7.59443 22.0931 7.57192L22.057 7.56291L22.0368 7.55841H22.0255C22.0255 7.55841 22.0278 7.5494 22.03 7.54715L22.057 7.50663C22.0638 7.49312 22.066 7.48862 22.0705 7.47961C22.0841 7.44359 22.0931 7.40756 22.0908 7.36704C22.0886 7.28824 22.0593 7.21169 22.0233 7.14415C21.9872 7.07436 21.9445 7.01132 21.8994 6.95503C21.8094 6.84021 21.7126 6.7434 21.627 6.6646C21.5122 6.55878 21.4199 6.48899 21.3704 6.45522C21.3523 6.45072 21.3321 6.44622 21.3141 6.44396C21.3028 6.44171 21.2916 6.43946 21.2826 6.43946C21.2713 6.43946 21.2645 6.43946 21.26 6.43946C21.2533 6.43946 21.251 6.44396 21.2443 6.44846C21.2375 6.45747 21.2308 6.45972 21.2218 6.47098C21.1542 6.54753 21.0844 6.63533 21.0169 6.71638C20.9448 6.79518 20.8728 6.87398 20.7985 6.94152C20.7242 7.00907 20.6522 7.07661 20.5801 7.13289C20.5441 7.16216 20.5103 7.19143 20.4765 7.21845C20.4428 7.24321 20.4158 7.26573 20.3887 7.29274C20.3842 7.29725 20.3797 7.30175 20.3752 7.30625C20.3887 7.31076 20.4045 7.31301 20.418 7.31526C20.5306 7.33552 20.6319 7.38505 20.7332 7.42558C20.9313 7.51563 21.0934 7.63271 21.2398 7.73177C21.5302 7.93665 21.7644 8.09199 21.9377 8.16629C22.0233 8.21132 22.0931 8.22933 22.1403 8.24509C22.1876 8.26085 22.2124 8.26986 22.2124 8.26986L22.1674 8.53552C22.1674 8.53552 22.1381 8.52877 22.0818 8.51526C22.0255 8.50175 21.9445 8.48374 21.8454 8.44321C21.645 8.37342 21.3794 8.22032 21.0822 8.04021C20.9336 7.95241 20.776 7.85785 20.6071 7.79706C20.5216 7.77229 20.4383 7.73402 20.3482 7.72727C20.3032 7.72276 20.2582 7.70925 20.2131 7.70925C20.1681 7.70925 20.1231 7.70925 20.0758 7.70925C19.7043 7.72952 19.3193 7.95691 18.8938 8.16404C18.4818 8.35991 18.0765 8.5873 17.6623 8.76516C17.2863 8.92501 16.9036 9.04884 16.5456 9.08036C16.6041 9.12989 16.6627 9.17717 16.7212 9.21545L16.7842 9.25372L16.8158 9.27398L16.8428 9.28524C16.8743 9.30325 16.9148 9.31451 16.9553 9.32802C17.0386 9.34828 17.1287 9.36179 17.2233 9.36179C17.4101 9.36629 17.5992 9.34377 17.7681 9.32351C17.9392 9.30325 18.0946 9.28074 18.2274 9.26948C18.3602 9.25597 18.4705 9.25372 18.5471 9.25597C18.6259 9.26047 18.6687 9.26272 18.6687 9.26272L18.6552 9.51713C18.7385 9.50137 18.8375 9.49012 18.9231 9.47886C19.0987 9.45409 19.2833 9.41582 19.4702 9.37755C19.648 9.34153 19.8349 9.3055 20.0263 9.28524C20.1141 9.26047 20.2131 9.23346 20.3212 9.20419C20.5238 9.1479 20.7602 9.08486 21.0146 9.01507C21.0777 8.99706 21.143 8.9813 21.2083 8.96329C21.278 8.95654 21.3501 8.93627 21.4221 8.94077C21.4942 8.94528 21.5662 8.94528 21.636 8.96554L21.7418 8.98806L21.8432 9.02182C21.9445 9.0556 22.0435 9.09837 22.1403 9.1434C22.1516 9.13439 22.1674 9.12764 22.1854 9.11638C22.2101 9.09837 22.2439 9.09162 22.2822 9.07811C22.3205 9.06235 22.3632 9.05785 22.4105 9.04884C22.4578 9.03983 22.5096 9.04209 22.5636 9.03758C22.6176 9.04209 22.6739 9.03984 22.7325 9.05109C22.791 9.05785 22.8518 9.0691 22.9103 9.08486C22.9711 9.10062 23.0296 9.12088 23.0882 9.13665C23.1467 9.15466 23.2075 9.16592 23.266 9.17042C23.3246 9.17042 23.3809 9.15691 23.4326 9.13439C23.4844 9.10963 23.534 9.07811 23.579 9.04659C23.6263 9.01507 23.669 8.99256 23.7096 8.96329C23.7884 8.90926 23.8604 8.87098 23.9144 8.85972C23.9685 8.84621 24 8.85072 24 8.84846V8.86197C24 8.86197 23.9685 8.86198 23.9167 8.87548C23.8649 8.88899 23.7951 8.92726 23.7186 8.9813C23.678 9.00831 23.6353 9.03758 23.5902 9.06685C23.5452 9.10062 23.4979 9.13439 23.4439 9.16141C23.3899 9.18843 23.3291 9.20644 23.266 9.20644C23.203 9.20644 23.14 9.19518 23.0792 9.17942C23.0184 9.16366 22.9599 9.1479 22.9013 9.13439C22.8428 9.12314 22.7842 9.11413 22.728 9.10963C22.6717 9.10062 22.6154 9.10513 22.5636 9.10288C22.5118 9.10963 22.4623 9.10738 22.4195 9.12089C22.3767 9.13214 22.3362 9.13665 22.3024 9.15466C22.2754 9.16817 22.2507 9.17492 22.2326 9.18618C22.361 9.24696 22.4848 9.31001 22.6064 9.36404C22.8495 9.47436 23.0747 9.57567 23.2683 9.65672C23.3674 9.69274 23.4574 9.72651 23.5362 9.75578C23.615 9.7873 23.6893 9.79631 23.7456 9.81432C23.8627 9.84359 23.9302 9.8616 23.9302 9.8616L23.9212 9.93815C23.9212 9.93815 23.8537 9.92239 23.7321 9.89537C23.6735 9.87961 23.597 9.86835 23.5159 9.83909C23.4349 9.80982 23.3426 9.7783 23.2435 9.74227C23.1152 9.69274 22.9756 9.63195 22.827 9.56891C22.827 9.57792 22.8315 9.58468 22.8338 9.59593C22.8405 9.62295 22.8495 9.65447 22.8608 9.69049C22.8698 9.72426 22.8788 9.76029 22.8901 9.80081C22.8923 9.81207 22.8968 9.82558 22.8991 9.83683C22.8991 9.83683 22.9036 9.83683 22.9058 9.83683C22.9148 9.83683 22.9283 9.83233 22.9396 9.83683C22.9644 9.84134 22.9869 9.84809 23.0049 9.86385C23.0251 9.87511 23.0409 9.89312 23.0567 9.91113C23.0882 9.94715 23.1129 9.98543 23.1355 10.0282C23.1805 10.1115 23.2143 10.1993 23.2458 10.2804C23.275 10.3637 23.3021 10.4402 23.3246 10.5055C23.3471 10.5708 23.3674 10.6271 23.3831 10.6631C23.3989 10.7014 23.4101 10.7194 23.4101 10.7194L23.4011 10.7261C23.4011 10.7261 23.3899 10.7059 23.3719 10.6699C23.3538 10.6338 23.3336 10.5775 23.3088 10.5123C23.2841 10.447 23.2548 10.3704 23.221 10.2916C23.1872 10.2128 23.149 10.1273 23.1039 10.0507C23.0814 10.0124 23.0544 9.97642 23.0274 9.94715C23.0004 9.91788 22.9666 9.89537 22.9351 9.89537C22.9261 9.89312 22.9216 9.89537 22.9103 9.89762C22.8946 9.89762 22.8765 9.90663 22.863 9.90438C22.854 9.87736 22.845 9.85034 22.836 9.82333C22.8225 9.78505 22.8113 9.74903 22.8 9.71526C22.7887 9.68149 22.7775 9.65222 22.7685 9.6252C22.7595 9.59818 22.7505 9.57342 22.7437 9.55766C22.7392 9.5464 22.7347 9.5374 22.7302 9.53064C22.6784 9.50813 22.6266 9.48562 22.5749 9.4631C22.3295 9.35729 22.0796 9.21995 21.8161 9.1389L21.7193 9.10738L21.6203 9.08711C21.555 9.0691 21.4897 9.07135 21.4244 9.06685C21.3591 9.06235 21.2961 9.08261 21.2353 9.08937C21.17 9.10738 21.1069 9.12764 21.0439 9.14565C20.875 9.19518 20.7152 9.24021 20.5666 9.28524C20.6071 9.28974 20.6477 9.29425 20.6882 9.301C20.9133 9.33927 21.125 9.44959 21.2961 9.58468C21.4694 9.71976 21.6135 9.87511 21.7508 10.0237C22.0233 10.3209 22.2822 10.6068 22.6176 10.6924L22.5771 10.9603C22.3677 10.931 22.1696 10.8342 21.9962 10.7149C21.8229 10.5956 21.6698 10.456 21.5212 10.3231C21.2285 10.0552 20.9358 9.83008 20.6319 9.82107C20.3054 9.80306 19.9587 9.90437 19.5985 10.0192C19.4184 10.0755 19.2315 10.1363 19.0356 10.1881C18.8285 10.2376 18.6844 10.2804 18.3039 10.2916C18.2724 10.2533 18.2409 10.2196 18.2094 10.1858L18.1328 10.1002C18.1036 10.0642 18.072 10.026 18.0338 9.98768C17.9775 9.99893 17.9167 10.0102 17.8537 10.0215C17.678 10.053 17.4754 10.0912 17.23 10.1002C17.1084 10.107 16.9734 10.098 16.8293 10.0732C16.755 10.0552 16.6807 10.0372 16.6019 10.0034C16.5816 9.99443 16.5613 9.98768 16.5433 9.97867L16.4938 9.95166C16.46 9.93365 16.4263 9.91563 16.3925 9.89762C16.1381 9.74227 15.9152 9.5464 15.6991 9.34377C15.4829 9.1389 15.278 8.92501 15.0709 8.72464C14.8638 8.52426 14.6499 8.33064 14.4405 8.1888C14.0668 7.92989 13.5265 7.89162 12.9996 7.85785C12.4705 7.82858 11.937 7.81057 11.4484 7.66873C11.3246 7.63271 11.203 7.58993 11.0882 7.53815C11.0994 7.58993 11.1107 7.64171 11.1242 7.69124C11.158 7.82407 11.194 7.9479 11.2345 8.05372C11.275 8.15953 11.3223 8.24284 11.3516 8.28111L11.4056 8.30813C11.4642 8.38918 11.5565 8.47023 11.6848 8.54227C11.8109 8.61432 11.964 8.67961 12.1306 8.7449C12.2994 8.81244 12.4818 8.87774 12.6777 8.9768C12.8713 9.07586 13.0874 9.21094 13.2698 9.43608C13.3148 9.49237 13.3576 9.55991 13.3981 9.62295C13.4319 9.68149 13.4544 9.73327 13.4837 9.78956C13.5332 9.89762 13.5782 10.0057 13.6165 10.1138C13.6931 10.3276 13.7471 10.5303 13.8034 10.6946C13.8709 10.8927 13.9385 11.0233 14.0398 11.1291C14.0668 11.1291 14.0938 11.1314 14.1253 11.1336C14.3077 11.1449 14.5711 11.1517 14.8998 11.1674C15.1993 11.1877 15.555 11.2057 15.9355 11.298C15.949 11.2935 15.9602 11.2912 15.9737 11.2867C16.1133 11.244 16.2867 11.1922 16.469 11.1381C16.4781 11.1269 16.4848 11.1111 16.4938 11.0931C16.5343 10.9896 16.5388 10.8207 16.5231 10.6608L16.5186 10.6271C16.5186 10.6271 16.5141 10.6091 16.5186 10.6046L16.5388 10.5911L16.5861 10.5618C16.6154 10.5393 16.6447 10.519 16.6717 10.4942C16.7257 10.447 16.7752 10.4019 16.8203 10.3659C16.8653 10.3299 16.9036 10.3029 16.9328 10.2871C16.9621 10.2714 16.9801 10.2646 16.9801 10.2646L16.9846 10.2759C16.9846 10.2759 16.9689 10.2849 16.9396 10.3006C16.9126 10.3164 16.8743 10.3434 16.8315 10.3817C16.7887 10.4199 16.7415 10.4672 16.6897 10.5168C16.6627 10.5415 16.6356 10.5663 16.6064 10.5911L16.5614 10.6226C16.5614 10.6226 16.5614 10.6316 16.5614 10.6563C16.5861 10.8184 16.5929 10.9851 16.5568 11.1134C16.5929 11.1021 16.6289 11.0931 16.6649 11.0819C16.9126 11.0008 17.1557 10.9017 17.3246 10.8004C17.3696 10.7802 17.4079 10.7532 17.4394 10.7306C17.4732 10.7081 17.5024 10.6879 17.525 10.6721C17.5722 10.6383 17.5992 10.6203 17.5992 10.6203L17.6375 10.6811C17.6375 10.6811 17.6105 10.7014 17.561 10.7374C17.5362 10.7554 17.5069 10.7779 17.4732 10.8027C17.4394 10.8297 17.4011 10.8567 17.3561 10.8792C17.1827 10.9896 16.9373 11.0976 16.6897 11.1899C16.5118 11.2507 16.3317 11.3115 16.1764 11.3633C16.2326 11.3813 16.2889 11.4016 16.3452 11.4218C16.451 11.4578 16.5568 11.4939 16.6604 11.5479L16.737 11.5862C16.7595 11.5974 16.7977 11.6154 16.7955 11.6154C16.809 11.6199 16.8225 11.638 16.836 11.6357L16.8585 11.6267L16.8698 11.6222H16.8765L16.8946 11.6109L17.0432 11.5321C17.2413 11.4286 17.4417 11.3318 17.6465 11.2462C17.8514 11.1607 18.054 11.0841 18.2724 11.0346C18.3287 11.0256 18.3827 11.0121 18.4413 11.0098C18.4683 11.0076 18.4998 11.0053 18.5336 11.0076C18.5651 11.0076 18.6011 11.0076 18.6281 11.0166C18.6867 11.0301 18.743 11.0413 18.7947 11.0638C18.8488 11.0819 18.8961 11.1044 18.9433 11.1314C18.9478 11.1314 18.9501 11.1359 18.9546 11.1381C19.0131 11.1381 19.0762 11.1426 19.1415 11.1381C19.2653 11.1269 19.4049 11.0661 19.5602 10.9941C19.639 10.958 19.7201 10.922 19.8101 10.8972C19.8529 10.886 19.8957 10.877 19.9385 10.8725C19.943 10.868 19.9475 10.8635 19.952 10.8612C19.97 10.8477 19.9925 10.8342 20.0195 10.8207C20.0465 10.8094 20.0781 10.8004 20.1118 10.7937C20.1794 10.7824 20.2559 10.7892 20.337 10.7959C20.4158 10.8027 20.5013 10.8139 20.5801 10.8004C20.6206 10.7892 20.6589 10.7757 20.6972 10.7577C20.7355 10.7419 20.7715 10.7194 20.8075 10.6991C20.8413 10.6766 20.875 10.6563 20.9066 10.6338C20.9381 10.6113 20.9674 10.5911 20.9921 10.5685C21.0439 10.528 21.0844 10.4875 21.1114 10.4582C21.1385 10.429 21.1542 10.4132 21.1542 10.4132L21.1632 10.4222C21.1632 10.4222 21.1475 10.4402 21.1227 10.4695C21.0957 10.4987 21.0574 10.5415 21.0056 10.5843C20.9809 10.6068 20.9516 10.6293 20.9223 10.6541C20.8931 10.6789 20.8593 10.7014 20.8255 10.7261C20.7895 10.7464 20.7535 10.7734 20.7152 10.7914C20.6769 10.8139 20.6364 10.8297 20.5936 10.8432C20.5058 10.8635 20.418 10.8567 20.3392 10.8545C20.2604 10.8522 20.1861 10.8545 20.1298 10.8657C20.1208 10.8657 20.1163 10.8702 20.1096 10.8725C20.2942 10.8927 20.463 10.9693 20.6094 11.0548C20.7602 11.1426 20.8931 11.2395 21.0056 11.3228C21.1182 11.4061 21.2105 11.4736 21.2758 11.5231C21.3411 11.5682 21.3794 11.5952 21.3794 11.5952L21.3456 11.6605C21.3456 11.6605 21.3073 11.6357 21.2398 11.5907C21.1745 11.5434 21.0799 11.4781 20.9651 11.3971C20.8525 11.3183 20.7197 11.226 20.5711 11.1449C20.4248 11.0638 20.2582 10.9963 20.0893 10.9851C19.9205 10.967 19.7606 11.0368 19.6098 11.1111C19.4612 11.1832 19.3148 11.253 19.173 11.2732C19.263 11.3385 19.3418 11.4083 19.4161 11.4736C19.5174 11.5659 19.6075 11.6515 19.6886 11.728L19.7088 11.7078L19.7674 11.6447C19.7876 11.6244 19.8146 11.6064 19.8394 11.5884C19.8394 11.5884 19.8394 11.5907 19.8394 11.5929C19.8552 11.5794 19.8732 11.5659 19.8957 11.5614C19.9159 11.5524 19.9385 11.5524 19.961 11.5547C20.0038 11.5614 20.0375 11.5817 20.0713 11.5974C20.1051 11.6154 20.1388 11.629 20.1749 11.6402L20.2266 11.6582C20.2447 11.6627 20.2604 11.6717 20.2784 11.674L20.3887 11.6852C20.4248 11.692 20.463 11.683 20.4991 11.6807C20.5351 11.6807 20.5734 11.674 20.6094 11.6627L20.7174 11.6357L20.722 11.6492L20.6139 11.6807C20.5779 11.6942 20.5418 11.6987 20.5036 11.7033C20.4653 11.7055 20.4293 11.719 20.391 11.7145L20.2784 11.7078C20.2604 11.7078 20.2424 11.6987 20.2221 11.6942L20.1659 11.6785C20.1276 11.6695 20.0916 11.656 20.0578 11.6425C20.0218 11.629 19.988 11.6109 19.9565 11.6109C19.9407 11.6109 19.9272 11.6109 19.9114 11.6199C19.8957 11.6244 19.8822 11.6357 19.8687 11.6447H19.8664C19.8484 11.6627 19.8304 11.6762 19.8124 11.6965L19.7606 11.7618L19.7471 11.7775C19.8507 11.8721 19.9407 11.9464 20.0173 11.9982C20.0533 12.0252 20.0871 12.0455 20.1163 12.0612C20.1456 12.0792 20.1704 12.0927 20.1906 12.1017C20.2311 12.1198 20.2537 12.131 20.2537 12.131L20.1861 12.3922C20.1861 12.3922 20.1591 12.3832 20.1051 12.3629C20.078 12.3539 20.0465 12.3404 20.0105 12.3224C19.9722 12.3066 19.9317 12.2841 19.8889 12.2571C19.7088 12.1558 19.4859 11.9644 19.2315 11.7595C19.1032 11.6605 18.9659 11.5592 18.8173 11.4961C18.743 11.4624 18.6664 11.4421 18.5921 11.4331C18.5719 11.4286 18.5583 11.4331 18.5426 11.4331C18.5291 11.4331 18.5088 11.4331 18.4886 11.4398C18.4503 11.4443 18.4075 11.4578 18.3647 11.4691C18.0158 11.5794 17.6308 11.7956 17.266 12.0184C17.1467 12.095 17.0251 12.1715 16.9058 12.2458L16.8765 12.2661C16.8765 12.2661 16.8563 12.2571 16.845 12.2548L16.782 12.2278L16.6537 12.1738C16.5996 12.1535 16.5478 12.131 16.4938 12.1108C16.4038 12.068 16.3069 12.0477 16.2146 12.023C16.1201 11.9982 16.03 11.9689 15.9355 11.9599C15.7463 11.9239 15.5595 11.9081 15.3794 11.9036C15.528 11.9892 15.6765 12.0792 15.8206 12.1873L15.8972 12.2413C15.9265 12.2639 15.9557 12.2841 15.985 12.3134L16.1538 12.4687L16.3204 12.6241L16.3835 12.6916C16.4263 12.6961 16.469 12.7006 16.5186 12.7051C16.6221 12.7141 16.7392 12.7457 16.8675 12.7704C17.1355 12.8154 17.3809 12.9168 17.6555 12.883C17.7906 12.874 17.946 12.8267 18.1148 12.7974C18.1846 12.7817 18.2544 12.7749 18.3265 12.7637C18.367 12.7502 18.4098 12.7366 18.4525 12.7231C18.4976 12.7074 18.5448 12.6939 18.5921 12.6849C18.6394 12.6736 18.6889 12.6646 18.7385 12.6533C18.788 12.6443 18.8353 12.6308 18.8803 12.6173C18.9253 12.5971 18.9681 12.579 19.0086 12.5498C19.0874 12.498 19.155 12.435 19.218 12.3877C19.2788 12.3381 19.3328 12.3021 19.3734 12.2819C19.4139 12.2616 19.4364 12.2503 19.4364 12.2503L19.4409 12.2616C19.4409 12.2616 19.4184 12.2729 19.3801 12.2931C19.3418 12.3134 19.2878 12.3517 19.2293 12.4012C19.1685 12.4507 19.1032 12.516 19.0244 12.5723C18.9861 12.6038 18.9411 12.6241 18.8938 12.6488C18.8465 12.6646 18.797 12.6826 18.7497 12.6939C18.7024 12.7074 18.6529 12.7186 18.6056 12.7321C18.5854 12.7366 18.5674 12.7411 18.5493 12.7479C18.5809 12.7479 18.6124 12.7479 18.6439 12.7524C19.0086 12.7839 19.3283 12.9438 19.612 13.1014C19.6818 13.1419 19.7493 13.1824 19.8146 13.223C19.8597 13.223 19.9137 13.2252 19.979 13.2275C19.9902 13.2275 19.9993 13.2275 20.0105 13.2275L20.0375 13.223C20.0578 13.223 20.0803 13.2162 20.1028 13.2094C20.1478 13.1982 20.1951 13.1802 20.2447 13.1622C20.2942 13.1464 20.346 13.1261 20.4023 13.1171C20.4293 13.1104 20.4585 13.1104 20.4878 13.1104L20.5734 13.1261L20.6544 13.1554L20.731 13.1914C20.7805 13.2184 20.8278 13.2455 20.8728 13.2725C20.9651 13.3265 21.0507 13.3738 21.1295 13.3963C21.2938 13.4166 21.4041 13.4278 21.4041 13.4278V13.4413C21.4041 13.4413 21.2916 13.4301 21.1272 13.4166C21.0439 13.3963 20.9561 13.349 20.8615 13.2995C20.8143 13.2747 20.767 13.2477 20.7174 13.2252L20.6432 13.1914L20.5666 13.1667L20.4878 13.1554C20.4608 13.1577 20.436 13.1577 20.4113 13.1667C20.3595 13.1779 20.3099 13.1982 20.2627 13.2184C20.2154 13.2387 20.1681 13.259 20.1208 13.2747C20.0961 13.2815 20.0735 13.2905 20.051 13.2927C20.0375 13.2927 20.0308 13.2972 20.015 13.2995C20.0038 13.2995 19.9947 13.2995 19.9835 13.2995C19.97 13.2995 19.9565 13.2995 19.943 13.2995C20.0938 13.3986 20.2334 13.4954 20.3595 13.5832C20.5711 13.7318 20.7467 13.8556 20.8705 13.9344C20.9336 13.9749 20.9831 14.0042 21.0169 14.0245C21.0507 14.0447 21.0687 14.056 21.0687 14.056L21.0259 14.1618C21.0259 14.1618 21.0079 14.1528 20.9696 14.1348C20.9336 14.1168 20.8795 14.092 20.8143 14.0537C20.6814 13.9839 20.4968 13.8736 20.2784 13.7408C20.0578 13.6102 19.8034 13.4548 19.5242 13.3198C19.2518 13.1914 18.9501 13.0744 18.6552 13.0676C18.6709 13.0789 18.6867 13.0901 18.7047 13.1014C18.9411 13.2635 19.2608 13.4751 19.5625 13.725C19.7111 13.8533 19.8552 13.9884 19.9767 14.1325C20.0961 14.2789 20.2019 14.4252 20.2694 14.5648C20.2874 14.5986 20.3054 14.6323 20.3212 14.6639C20.3347 14.6976 20.346 14.7291 20.3595 14.7584C20.3842 14.8169 20.4023 14.871 20.4135 14.916C20.4383 15.0061 20.4518 15.0556 20.4518 15.0556L20.3865 15.0736C20.3865 15.0736 20.373 15.0263 20.346 14.9408C20.3347 14.898 20.3167 14.8485 20.2919 14.7922C20.2807 14.7652 20.2672 14.7336 20.2537 14.7021C20.2402 14.6706 20.2199 14.6413 20.2041 14.6076C20.1366 14.4747 20.033 14.3374 19.9159 14.1978C19.7944 14.0627 19.6525 13.9344 19.5039 13.8128C19.5017 13.8128 19.4994 13.8083 19.4949 13.8061C19.5017 13.8511 19.5084 13.9051 19.5152 13.9704C19.5197 14.0109 19.5242 14.0515 19.531 14.0965C19.5377 14.1393 19.54 14.1888 19.5535 14.2338C19.567 14.2789 19.5715 14.3306 19.5917 14.3734C19.6098 14.4162 19.639 14.4567 19.666 14.4972C19.6976 14.5378 19.7268 14.576 19.7561 14.6143C19.7854 14.6526 19.8146 14.6931 19.8394 14.7336C19.8507 14.7562 19.8619 14.7764 19.8732 14.7967C19.8822 14.8192 19.8889 14.8395 19.8979 14.862C19.9137 14.9025 19.9295 14.943 19.943 14.979C19.9587 15.0151 19.9632 15.0511 19.9722 15.0826C19.979 15.1141 19.9857 15.1411 19.9902 15.1637C20.0015 15.2087 20.006 15.2335 20.006 15.2335H19.9947C19.9947 15.2335 19.988 15.2109 19.9767 15.1682C19.97 15.1457 19.9632 15.1186 19.9565 15.0894C19.9475 15.0601 19.943 15.0241 19.925 14.9881C19.9092 14.952 19.8934 14.9138 19.8777 14.8732C19.8687 14.853 19.8597 14.8327 19.8507 14.8124C19.8394 14.7922 19.8281 14.7742 19.8169 14.7539C19.7899 14.7156 19.7606 14.6774 19.7313 14.6413C19.6998 14.6031 19.6683 14.5648 19.6368 14.5288C19.6053 14.4882 19.5737 14.4477 19.5512 14.4004C19.5265 14.3532 19.5197 14.3014 19.5017 14.2541C19.4859 14.2046 19.4814 14.1573 19.4724 14.1145C19.4634 14.0695 19.4567 14.0267 19.4499 13.9884C19.4387 13.9096 19.4274 13.8466 19.4184 13.8038C19.4116 13.7723 19.4071 13.752 19.4049 13.7408C19.1347 13.5359 18.8555 13.3603 18.6417 13.2207C18.5629 13.1689 18.4931 13.1216 18.4345 13.0834C18.4278 13.0834 18.421 13.0834 18.4143 13.0856C18.3355 13.1036 18.2589 13.1171 18.1824 13.1396C18.0315 13.1779 17.8762 13.2387 17.7028 13.268C17.3561 13.3355 17.0319 13.232 16.809 13.2184C16.6897 13.2049 16.5839 13.1824 16.4871 13.1824C16.4826 13.1824 16.478 13.1824 16.4713 13.1824C16.397 13.2792 16.325 13.376 16.2439 13.4684C16.2439 13.4841 16.2484 13.4999 16.2484 13.5179C16.2552 13.5562 16.2642 13.5922 16.2732 13.635C16.2889 13.671 16.2979 13.716 16.3182 13.7543C16.388 13.9141 16.5388 14.0762 16.755 14.1933C16.8608 14.2541 16.9801 14.3059 17.1039 14.3509C17.2345 14.3959 17.3651 14.441 17.4979 14.486C17.5069 14.4882 17.5137 14.4927 17.5227 14.495C17.5407 14.495 17.5587 14.495 17.5745 14.4927L17.6916 14.4837L17.8041 14.4635C17.8379 14.45 17.8762 14.4342 17.9077 14.4117C17.9415 14.3914 17.9752 14.3667 18.0068 14.3419C18.072 14.2901 18.1306 14.2316 18.1959 14.1775C18.2589 14.1213 18.3265 14.074 18.3962 14.0267C18.4345 14.0087 18.4728 13.9907 18.5111 13.9794C18.5516 13.9749 18.5921 13.9637 18.6326 13.9749C18.6732 13.9772 18.7114 13.9929 18.7497 14.0042L18.8645 14.0447C18.9028 14.056 18.9411 14.0695 18.9794 14.0785L19.0964 14.101V14.1145L18.9771 14.0942C18.9388 14.0852 18.9006 14.074 18.86 14.0627L18.7452 14.0267C18.7069 14.0154 18.6687 14.0042 18.6304 14.0019C18.5921 13.9929 18.5538 14.0042 18.5156 14.0109C18.4795 14.0245 18.4435 14.0425 18.4075 14.0605C18.3422 14.1078 18.2769 14.155 18.2161 14.2158C18.1553 14.2721 18.0968 14.3351 18.0315 14.3892C18 14.4162 17.9662 14.4432 17.9302 14.468C17.8942 14.4927 17.8582 14.5108 17.8176 14.5288L17.6961 14.558H17.6916C17.7614 14.5828 17.8311 14.6053 17.8987 14.6323C17.9752 14.6684 18.0518 14.7044 18.1261 14.7381C18.1553 14.7381 18.1846 14.7381 18.2184 14.7381C18.3062 14.7404 18.403 14.7607 18.5088 14.7832C18.5606 14.7944 18.6146 14.8079 18.6687 14.8214C18.7227 14.8327 18.7767 14.8462 18.833 14.8507C19.0559 14.8777 19.2833 14.88 19.4499 14.9183C19.4927 14.925 19.5287 14.9363 19.5625 14.9498C19.5962 14.961 19.6255 14.97 19.648 14.9835C19.6931 15.0061 19.7201 15.0196 19.7201 15.0196L19.7133 15.0308C19.7133 15.0308 19.6886 15.0196 19.6435 14.9971C19.621 14.9858 19.594 14.9768 19.5602 14.9678C19.5287 14.9565 19.4904 14.9475 19.4499 14.9408C19.3666 14.9228 19.2698 14.9183 19.164 14.9115C19.0582 14.907 18.9456 14.907 18.833 14.8957C18.7767 14.8912 18.7204 14.8822 18.6664 14.8732C18.6124 14.8642 18.5583 14.853 18.5066 14.844C18.4345 14.8327 18.367 14.8237 18.3039 14.8192C18.358 14.8462 18.412 14.8687 18.4638 14.898C18.5201 14.9318 18.5741 14.9655 18.6281 14.9971C18.734 15.0623 18.8353 15.1231 18.9276 15.1794C19.1099 15.2987 19.2518 15.4181 19.3553 15.4924C19.4567 15.5689 19.5152 15.6139 19.5152 15.6139L19.4589 15.7108C19.4589 15.7108 19.3981 15.6725 19.2923 15.6072C19.1865 15.5442 19.0401 15.4406 18.8533 15.3415C18.7587 15.2942 18.6574 15.2447 18.5493 15.1907C18.4953 15.1637 18.4413 15.1366 18.385 15.1096C18.4233 15.1794 18.4615 15.2537 18.4998 15.3325C18.5268 15.3866 18.5561 15.4428 18.5831 15.4991L18.6056 15.5396C18.6146 15.5554 18.6214 15.5734 18.6281 15.5869L18.6709 15.677C18.6822 15.7017 18.6934 15.7265 18.7069 15.7513C18.7295 15.7738 18.7542 15.8031 18.7902 15.8346C18.833 15.8751 18.8826 15.9201 18.9388 15.9652C18.9929 16.0124 19.0559 16.053 19.1189 16.098C19.1842 16.1385 19.245 16.1813 19.3081 16.2128C19.3689 16.2488 19.4296 16.2736 19.4814 16.2961C19.5332 16.3209 19.576 16.3321 19.6075 16.3434C19.639 16.3547 19.6548 16.3592 19.6548 16.3592V16.3727C19.6548 16.3727 19.6345 16.3682 19.603 16.3569C19.5715 16.3457 19.5265 16.3366 19.4747 16.3141C19.4229 16.2939 19.3598 16.2691 19.2968 16.2376C19.2315 16.2083 19.1662 16.17 19.0987 16.134C19.0334 16.0935 18.9681 16.0552 18.9096 16.0102C18.8645 15.9809 18.8263 15.9494 18.7902 15.9224C18.8623 16.071 18.9276 16.2128 18.9839 16.3231C19.0694 16.4987 19.128 16.6136 19.128 16.6136L19.0717 16.6563C19.0717 16.6563 19.0109 16.5415 18.9186 16.3682C18.824 16.1948 18.7047 15.9629 18.5876 15.7333L18.5426 15.6477C18.5336 15.632 18.5291 15.6207 18.5223 15.6094L18.4953 15.5667C18.4615 15.5104 18.4323 15.4541 18.403 15.4001C18.3445 15.292 18.2904 15.1952 18.2409 15.1141C18.2229 15.0849 18.2071 15.0601 18.1891 15.0376C18.072 14.9948 17.9527 14.952 17.8289 14.907C17.6983 14.8687 17.5632 14.8417 17.4304 14.8057C17.2931 14.7719 17.158 14.7381 17.0229 14.7066C16.8856 14.6706 16.7482 14.6256 16.6154 14.5648C16.352 14.4522 16.1066 14.2496 15.9715 13.9974C15.94 13.9457 15.9197 13.8916 15.8972 13.8398L15.8184 13.9141L15.7734 13.9569L15.7396 13.9907C15.7261 14.0042 15.7216 14.0087 15.7148 14.0177C15.7081 14.0245 15.7013 14.0312 15.6946 14.0402C15.6833 14.056 15.672 14.074 15.6653 14.0942C15.654 14.1348 15.6495 14.1798 15.6653 14.2226C15.6765 14.2879 15.7824 14.4635 15.8814 14.6053L15.7711 14.7134L15.8859 14.979C15.9422 15.1164 16.0075 15.2425 16.0548 15.3911L16.1291 15.6072L16.1471 15.659V15.668C16.1471 15.668 16.1471 15.6747 16.1493 15.677L16.1583 15.6837C16.1583 15.6837 16.1629 15.6882 16.1696 15.6905L16.2101 15.7108C16.2371 15.7243 16.2642 15.7378 16.2934 15.749L16.4713 15.8143C16.7144 15.8931 16.9689 15.9562 17.2278 16.026C17.4934 16.1025 17.7163 16.1588 18.063 16.3344C18.0698 16.3659 18.0608 16.4087 18.0473 16.4515C18.0878 16.474 18.1396 16.501 18.1981 16.5348C18.3422 16.6248 18.5516 16.7059 18.7565 16.8004C18.77 16.8049 18.7835 16.8117 18.7947 16.8162C18.8105 16.8162 18.824 16.8162 18.842 16.8207C18.8916 16.8207 18.9478 16.8117 19.0109 16.8004C19.0739 16.7892 19.1415 16.7757 19.2113 16.7712C19.245 16.7689 19.2811 16.7644 19.3148 16.7622C19.3486 16.7622 19.3824 16.7622 19.4139 16.7644C19.4769 16.7644 19.5377 16.7689 19.5895 16.7712C19.6413 16.7712 19.6841 16.7667 19.7133 16.7667C19.7426 16.7667 19.7606 16.7644 19.7606 16.7644V16.7779C19.7606 16.7779 19.7448 16.7779 19.7156 16.7824C19.6863 16.7824 19.6435 16.7914 19.5917 16.7914C19.54 16.7914 19.4792 16.7914 19.4161 16.7959C19.3846 16.7959 19.3508 16.7982 19.3193 16.8004C19.2856 16.8049 19.2518 16.8117 19.2203 16.8162C19.155 16.8252 19.0874 16.8432 19.0244 16.859C18.9974 16.8657 18.9726 16.8725 18.9478 16.877C19.2946 17.0121 19.6007 17.1246 19.6007 17.1246L19.5805 17.1967C19.5805 17.1967 19.1527 17.0593 18.7272 16.9108C18.5178 16.8229 18.3039 16.7509 18.1508 16.6654C18.1013 16.6406 18.0563 16.6181 18.018 16.5978C18.018 16.6091 18.0135 16.6181 18.0135 16.6203C18.0068 16.6789 18.009 16.7374 18.0203 16.7959C18.0428 16.913 18.1036 17.0233 18.1824 17.1269C18.2612 17.2305 18.3512 17.325 18.4458 17.4218C18.5381 17.5209 18.6349 17.6199 18.7114 17.7483L18.6281 17.8158C18.4908 17.6357 18.2972 17.5096 18.1193 17.3385C18.1148 17.4241 18.1013 17.5231 18.1013 17.6177C18.1013 17.6425 18.1081 17.6762 18.1103 17.7055C18.1148 17.7348 18.1171 17.764 18.1216 17.7933C18.1283 17.8496 18.1373 17.9036 18.1418 17.9487C18.1553 18.0387 18.1644 18.0995 18.1644 18.0995H18.1531C18.1531 18.0995 18.1418 18.041 18.1261 17.9509C18.1171 17.9059 18.1081 17.8541 18.0968 17.7978C18.0923 17.7708 18.0856 17.7415 18.0788 17.7123C18.0743 17.6807 18.0653 17.656 18.063 17.6199C18.0563 17.5569 18.0608 17.4939 18.0608 17.4376C18.0608 17.3813 18.0608 17.3273 18.0563 17.2845C18.0563 17.28 18.0563 17.2755 18.0563 17.271C18.0563 17.271 18.054 17.2687 18.0518 17.2665C17.955 17.1607 17.8604 17.0301 17.8109 16.8612C17.7861 16.7779 17.7749 16.6879 17.7771 16.5978C17.7771 16.5415 17.7794 16.5303 17.7816 16.5055C17.8019 16.4605 17.7568 16.4515 17.7253 16.4402L17.7006 16.4312L17.6555 16.4199L17.5632 16.3974C17.4417 16.3637 17.3111 16.3434 17.185 16.3186C17.0319 16.2916 16.8743 16.2669 16.7167 16.2398C16.719 16.2488 16.7235 16.2578 16.7257 16.2691C16.7595 16.3659 16.791 16.4807 16.818 16.6023H16.827C16.827 16.6023 16.8338 16.6271 16.8473 16.6766C16.8608 16.7261 16.8743 16.7982 16.9036 16.8815C16.9306 16.967 16.9621 17.0639 17.0049 17.1652C17.0432 17.2687 17.0927 17.3745 17.14 17.4826C17.1895 17.5884 17.239 17.6942 17.2908 17.7911C17.3403 17.8879 17.3899 17.9779 17.4326 18.0545C17.5182 18.2076 17.5767 18.3066 17.5767 18.3066L17.5677 18.3134C17.5677 18.3134 17.5069 18.2143 17.4169 18.0657C17.3719 17.9914 17.3201 17.9036 17.2683 17.8068C17.2143 17.7123 17.1602 17.6064 17.1062 17.5029C17.0567 17.3971 17.0004 17.2935 16.9576 17.1899C16.9396 17.1517 16.9261 17.1179 16.9103 17.0819C16.9553 17.3565 16.9914 17.629 17.0206 17.8338C17.0544 18.0477 17.0769 18.1896 17.0769 18.1896L17.0116 18.2053C17.0116 18.2053 16.9846 18.0635 16.9463 17.8496C16.9171 17.6807 16.8811 17.4646 16.8405 17.244C16.8225 17.3498 16.8 17.4714 16.7797 17.5952C16.7617 17.6785 16.746 17.7618 16.728 17.8406C16.7122 17.9194 16.6964 17.9914 16.6784 18.0545C16.6469 18.1783 16.6266 18.2593 16.6266 18.2593L16.6109 18.2548C16.6109 18.2548 16.6289 18.1715 16.6537 18.0477C16.6672 17.9847 16.6807 17.9126 16.6919 17.8338C16.7032 17.755 16.7144 17.6717 16.7257 17.5862C16.7415 17.4173 16.7617 17.2485 16.7617 17.1201C16.7662 16.9941 16.7707 16.9085 16.7707 16.9085C16.7212 16.6879 16.6672 16.4762 16.6086 16.3209C16.5974 16.2804 16.5839 16.2466 16.5704 16.2151C16.5141 16.2038 16.4555 16.1926 16.3993 16.179L16.1989 16.1273C16.1651 16.1183 16.1313 16.1025 16.0976 16.0912L15.967 16.0417L15.8837 16.0079C15.8657 15.9832 15.8567 15.9472 15.8432 15.9156L15.8026 15.8211L15.7824 15.7715L15.6991 15.5802C15.6495 15.4518 15.573 15.328 15.5099 15.2019L15.3141 14.8305C15.2961 14.8057 15.2803 14.7787 15.2623 14.7494C15.206 14.6661 15.1272 14.5198 15.0844 14.3712C15.0326 14.2226 15.0326 14.056 15.0687 13.9029C15.1047 13.7498 15.1992 13.6124 15.2893 13.5044L15.3546 13.4323C15.3771 13.4076 15.3906 13.3941 15.4109 13.3738L15.5144 13.268L15.5572 13.2252L15.5752 13.2049C15.5887 13.1914 15.6 13.1779 15.6113 13.1622C15.6338 13.1351 15.6563 13.1059 15.6743 13.0766C15.6833 13.0631 15.6946 13.0473 15.6991 13.0338L15.6585 12.9956C15.6315 12.9708 15.6068 12.9483 15.5775 12.9303L15.537 12.901C15.537 12.901 15.5212 12.892 15.5122 12.8875L15.4987 12.8807L15.4717 12.865C15.3321 12.7704 15.1767 12.6894 15.0191 12.6106C14.7782 12.489 14.5193 12.3787 14.2582 12.2571C14.2717 12.3066 14.2852 12.3562 14.2987 12.4079C14.346 12.5588 14.3685 12.7321 14.3797 12.9123C14.3842 12.9235 14.3887 12.937 14.3932 12.955C14.4068 12.9956 14.4248 13.0518 14.4428 13.1171C14.4811 13.25 14.5306 13.4278 14.5801 13.6057C14.6071 13.6912 14.6341 13.779 14.6657 13.8578C14.6814 13.8961 14.6927 13.9366 14.7107 13.9704C14.7265 14.0042 14.7422 14.038 14.7557 14.0672C14.7827 14.1303 14.8165 14.173 14.8345 14.2068C14.8548 14.2406 14.866 14.2586 14.866 14.2586L14.848 14.2766C14.848 14.2766 14.8345 14.2586 14.812 14.2248C14.7917 14.1911 14.7535 14.1505 14.722 14.0897C14.7039 14.0605 14.6882 14.0267 14.6679 13.9929C14.6477 13.9592 14.6319 13.9209 14.6139 13.8826C14.5756 13.8061 14.5418 13.7205 14.5036 13.6372C14.4653 13.5449 14.4293 13.4526 14.3932 13.367C14.3977 13.6485 14.4023 13.9411 14.472 14.2158C14.5351 14.522 14.7265 14.7719 14.866 15.0533C14.9336 15.1929 14.9854 15.3348 15.0394 15.4654C15.0844 15.6004 15.125 15.7265 15.1632 15.8436C15.2353 16.0777 15.2916 16.2759 15.3388 16.4087C15.3816 16.5438 15.4086 16.6203 15.4086 16.6203L15.3163 16.6654C15.3163 16.6654 15.2893 16.5888 15.242 16.4515C15.1925 16.3164 15.1317 16.1205 15.0552 15.8886C15.0146 15.7738 14.9719 15.65 14.9268 15.5194C14.8705 15.3956 14.8188 15.2582 14.7535 15.1276C14.7197 15.0623 14.6814 14.9948 14.6409 14.9295C14.6409 14.9475 14.6409 14.9655 14.6454 14.9858C14.6567 15.1524 14.6747 15.3753 14.6859 15.6004C14.6904 15.713 14.6949 15.8256 14.6949 15.9291C14.6949 15.9809 14.6949 16.0327 14.6949 16.08C14.6949 16.1273 14.6904 16.1745 14.6904 16.2151C14.6904 16.2984 14.6769 16.3682 14.6724 16.4177C14.6679 16.4672 14.6657 16.4942 14.6657 16.4942H14.6499C14.6499 16.4942 14.6499 16.465 14.6544 16.4154C14.6544 16.3659 14.6657 16.2984 14.6634 16.2151V16.08C14.6634 16.0327 14.6589 15.9809 14.6589 15.9291C14.6567 15.8256 14.6432 15.7153 14.6341 15.6049C14.6094 15.3843 14.5779 15.1637 14.5553 14.9993C14.5328 14.8327 14.5171 14.7224 14.5171 14.7224H14.5216C14.4428 14.5851 14.373 14.4297 14.3347 14.2654C14.2447 13.9321 14.2424 13.5877 14.2311 13.2792C14.2199 12.9708 14.1996 12.6916 14.1276 12.471C14.0938 12.3517 14.0645 12.2413 14.0353 12.1468C14.033 12.1468 14.0308 12.1445 14.0285 12.1423C13.8462 12.0567 13.6233 11.9216 13.4499 11.7235C13.272 11.5276 13.1527 11.28 13.0717 11.0706C12.9884 10.8567 12.9298 10.6676 12.8623 10.5055C12.8285 10.4244 12.7947 10.3479 12.7565 10.2781C12.7385 10.2466 12.7182 10.2061 12.7024 10.1836C12.6867 10.1678 12.6754 10.1498 12.6597 10.1318C12.5944 10.0575 12.4863 9.98993 12.349 9.92689C12.2116 9.8661 12.0473 9.81432 11.8717 9.75578C11.6961 9.69499 11.5047 9.63196 11.3021 9.52839C11.1445 9.44959 10.9756 9.33927 10.8225 9.18618C10.7257 10.08 10.6064 12.6398 10.6064 13.1216C10.6064 13.295 10.5276 13.5111 10.415 13.7318C10.424 13.7836 10.4353 13.8511 10.4578 13.9344C10.5073 14.1258 10.6154 14.4027 10.8203 14.6571C10.9216 14.7832 11.0477 14.9025 11.1962 14.9858C11.2345 15.0038 11.2705 15.0286 11.3133 15.0421L11.3741 15.0669L11.4529 15.0939C11.561 15.1299 11.669 15.1659 11.7816 15.2064C12.0045 15.283 12.2499 15.3798 12.4841 15.5216C12.5426 15.5599 12.6034 15.5892 12.6574 15.6342L12.824 15.7625C12.8443 15.7783 12.8623 15.7963 12.8826 15.8143C12.9388 15.7986 12.9974 15.7805 13.0582 15.7625C13.0694 15.7558 13.0762 15.7468 13.0874 15.74C13.191 15.6635 13.3373 15.5847 13.4747 15.4946L13.5242 15.4586L13.5692 15.4158C13.5985 15.3866 13.63 15.3618 13.657 15.3325C13.7111 15.274 13.7629 15.2199 13.8056 15.1727C13.8484 15.1254 13.8889 15.0894 13.9159 15.0624C13.943 15.0376 13.9587 15.0218 13.9587 15.0218L13.9655 15.0331C13.9655 15.0331 13.9497 15.0488 13.925 15.0736C13.8979 15.1006 13.8597 15.1366 13.8191 15.1862C13.7764 15.2357 13.7268 15.292 13.675 15.3528C13.6503 15.3843 13.6188 15.4113 13.5895 15.4428L13.5445 15.4879L13.4949 15.5261C13.4094 15.5892 13.3216 15.6477 13.245 15.704C13.3013 15.6882 13.3576 15.6702 13.4139 15.6545C13.8844 15.5216 14.3572 15.3888 14.3572 15.3888L14.3707 15.4631C14.3707 15.4631 13.9069 15.6139 13.4409 15.7625C13.2923 15.8121 13.146 15.8616 13.0131 15.9066C13.0086 15.9134 13.0041 15.9179 13.0019 15.9224C13.0447 15.9629 13.0874 16.0034 13.1257 16.0485C13.2203 16.1543 13.3171 16.2556 13.3936 16.3727C13.4747 16.4875 13.558 16.5978 13.6255 16.7194C13.6615 16.7802 13.6976 16.8387 13.7313 16.8995C13.7674 16.958 13.7921 17.0256 13.8236 17.0886C13.8529 17.1517 13.8822 17.2147 13.9114 17.2777C13.9295 17.3183 13.943 17.3588 13.9565 17.3993C13.9925 17.4151 14.0353 17.4331 14.0826 17.4466C14.1614 17.4736 14.2559 17.4961 14.3572 17.5164C14.3662 17.5164 14.3865 17.5119 14.4158 17.5074C14.436 17.5074 14.463 17.4984 14.4923 17.4894C14.5216 17.4826 14.5553 17.4736 14.5891 17.4578C14.6589 17.4331 14.7422 17.3971 14.8255 17.3498C14.8683 17.3273 14.9111 17.3003 14.9516 17.2687C14.9944 17.2417 15.0326 17.2057 15.0709 17.1697C15.0912 17.1517 15.1092 17.1336 15.125 17.1134L15.179 17.0481C15.1835 17.0346 15.1993 17.0458 15.206 17.0436H15.224L15.26 17.0503C15.2848 17.0526 15.3073 17.0503 15.3321 17.0503C15.3794 17.0503 15.4244 17.0436 15.4672 17.0368C15.5099 17.0301 15.5505 17.0211 15.5887 17.0143C15.7373 16.9805 15.8409 16.9738 15.8409 16.9738V16.9873C15.8409 16.9873 15.7418 16.9963 15.5932 17.0346C15.555 17.0436 15.5167 17.0526 15.4717 17.0616C15.4289 17.0706 15.3816 17.0774 15.3343 17.0796C15.3096 17.0796 15.2848 17.0841 15.26 17.0796H15.2218L15.2038 17.0751C15.2015 17.0751 15.1993 17.0751 15.197 17.0751L15.152 17.1381C15.1362 17.1629 15.1182 17.1832 15.0979 17.2012C15.0597 17.2417 15.0214 17.2777 14.9786 17.3093C14.9381 17.343 14.8953 17.3723 14.8525 17.3993C14.7692 17.4533 14.6859 17.4961 14.6139 17.5276C14.5981 17.5344 14.5846 17.5411 14.5711 17.5457C14.6454 17.5547 14.722 17.5614 14.7985 17.5637C15.0619 17.5727 15.3298 17.5682 15.5302 17.5704C15.7306 17.5749 15.8657 17.5817 15.8657 17.5817V17.6582C15.8657 17.6582 15.7306 17.656 15.5302 17.6582C15.4266 17.6582 15.3073 17.665 15.179 17.6695C15.188 17.6762 15.1947 17.6852 15.2038 17.692C15.269 17.7528 15.3636 17.8293 15.4582 17.9014C15.555 17.9734 15.654 18.041 15.7306 18.086C15.7689 18.1085 15.8004 18.1288 15.8251 18.1355C15.8477 18.1445 15.8612 18.1513 15.8612 18.1513V18.1648C15.8612 18.1648 15.8454 18.1603 15.8206 18.1513C15.7959 18.1445 15.7621 18.1265 15.7238 18.1063C15.645 18.0657 15.5415 18.0027 15.4402 17.9396C15.3388 17.8744 15.2398 17.8091 15.1655 17.7528C15.1295 17.7235 15.0979 17.7032 15.0777 17.6785C15.0777 17.6785 15.0754 17.6762 15.0732 17.674C14.9831 17.6762 14.8908 17.6785 14.7985 17.6785C14.5283 17.674 14.2582 17.638 14.0578 17.5794C14.0465 17.5772 14.0353 17.5727 14.0218 17.5682C14.0533 17.6605 14.0848 17.7528 14.1118 17.8496C14.1208 17.8811 14.1276 17.9149 14.1366 17.9487L14.1478 17.9982L14.1546 18.0342L14.1614 18.0702L14.1681 18.0927C14.1681 18.1085 14.1794 18.1198 14.1861 18.1333C14.2019 18.158 14.2199 18.176 14.2582 18.1986C14.2852 18.2211 14.3302 18.2436 14.373 18.2684C14.4158 18.2931 14.4563 18.3134 14.4968 18.3314C14.5373 18.3494 14.5756 18.3697 14.6184 18.3832C14.8075 18.453 14.9854 18.5002 15.1475 18.5408C15.1857 18.5363 15.2263 18.5318 15.269 18.525C15.3456 18.5138 15.4266 18.4957 15.5054 18.48C15.6675 18.444 15.8274 18.4057 15.949 18.3832C16.0705 18.3584 16.1538 18.3494 16.1538 18.3494V18.3629C16.1538 18.3629 16.075 18.3764 15.9535 18.4057C15.8319 18.435 15.6743 18.48 15.5144 18.525C15.4401 18.5453 15.3659 18.5655 15.2961 18.5813C15.3568 18.5971 15.4154 18.6128 15.4672 18.6263C15.573 18.6556 15.6563 18.6826 15.7148 18.7029C15.7711 18.7231 15.8026 18.7321 15.8026 18.7321L15.7328 18.9911C15.7328 18.9911 15.7036 18.9843 15.6518 18.9685C15.6 18.9528 15.519 18.9348 15.4154 18.9123C15.2128 18.8672 14.9178 18.8335 14.5508 18.7299C14.5666 18.7704 14.5869 18.8109 14.6094 18.8515C14.6229 18.874 14.6386 18.8942 14.6544 18.9168L14.6814 18.9438L14.6949 18.9573L14.7017 18.964C14.7017 18.964 14.7129 18.9753 14.7129 18.9775C14.7445 19.0293 14.7805 19.0811 14.8098 19.1374C14.8368 19.1959 14.8683 19.2522 14.8931 19.313C14.9156 19.3738 14.9426 19.4346 14.9606 19.4954C14.9786 19.5562 14.9989 19.6169 15.0146 19.6777C15.0462 19.7971 15.0709 19.9074 15.0912 20.0042C15.1317 20.1956 15.1565 20.3239 15.1565 20.3239H15.1452C15.1452 20.3239 15.1159 20.2001 15.0732 20.0087C15.0507 19.9141 15.0236 19.8016 14.9899 19.6867C14.9741 19.6282 14.9516 19.5697 14.9313 19.5089C14.9133 19.4481 14.8841 19.3918 14.8593 19.331C14.8345 19.2725 14.8008 19.2184 14.7737 19.1644C14.7422 19.1126 14.7062 19.0631 14.6747 19.0158C14.6724 19.0113 14.6747 19.0136 14.6747 19.0136L14.6657 19.0068L14.6499 18.9911L14.6184 18.9618C14.6004 18.9393 14.5824 18.9145 14.5644 18.892C14.5351 18.8447 14.5103 18.7952 14.4878 18.7524C14.4811 18.7344 14.4743 18.7209 14.4653 18.7051C14.4405 18.6961 14.4135 18.6849 14.3887 18.6759C14.3392 18.6578 14.2897 18.6376 14.2424 18.6128C14.1951 18.5903 14.1478 18.57 14.0871 18.5295C14.033 18.5002 13.9655 18.4485 13.9159 18.3809C13.8912 18.3449 13.8687 18.3111 13.8552 18.2684C13.8462 18.2481 13.8394 18.2256 13.8326 18.2076L13.8191 18.1558L13.8056 18.104L13.7944 18.0635C13.7854 18.0365 13.7809 18.0094 13.7696 17.9824C13.7336 17.8766 13.6863 17.764 13.6413 17.6515C13.6188 17.5952 13.5985 17.5366 13.5715 17.4826C13.5422 17.4308 13.5152 17.3768 13.4859 17.3228C13.4567 17.271 13.4319 17.2147 13.3981 17.1652C13.3644 17.1156 13.3306 17.0639 13.2946 17.0143C13.2293 16.9108 13.1482 16.8162 13.0717 16.7194C12.9974 16.6181 12.9096 16.5393 12.824 16.4537C12.725 16.3547 12.6191 16.2714 12.5133 16.1993C12.5674 16.3164 12.6146 16.4515 12.6619 16.6001C12.7069 16.7487 12.7452 16.9085 12.7812 17.0684H12.7835C12.7835 17.0684 12.7902 17.0909 12.8015 17.1291C12.815 17.1674 12.824 17.2282 12.8533 17.2935C12.8668 17.3273 12.8803 17.3633 12.8961 17.3993C12.9118 17.4376 12.9321 17.4759 12.9523 17.5141C12.9906 17.5952 13.0401 17.6762 13.0874 17.7595C13.1865 17.9239 13.2878 18.086 13.3576 18.2143C13.3959 18.2774 13.4184 18.3336 13.4387 18.3697C13.4589 18.4079 13.4679 18.4305 13.4679 18.4305L13.4544 18.4395C13.4544 18.4395 13.4432 18.4192 13.4229 18.3809C13.4026 18.3449 13.3756 18.2909 13.3373 18.2301C13.263 18.1085 13.1527 17.9532 13.0447 17.7956C12.9929 17.7145 12.9366 17.638 12.8893 17.5569C12.8848 17.5479 12.878 17.5389 12.8735 17.5299C12.9163 17.7528 12.9568 17.9599 12.9974 18.1288C13.0289 18.2639 13.0582 18.3742 13.0829 18.4485C13.1054 18.525 13.1189 18.5678 13.1189 18.5678L13.0514 18.5971C13.0514 18.5971 13.0356 18.552 13.0109 18.4755C12.9839 18.3989 12.9523 18.2864 12.9163 18.1513C12.8443 17.8811 12.7722 17.5141 12.6889 17.1562C12.6844 17.1381 12.6799 17.1201 12.6754 17.1021C12.6754 17.0999 12.6754 17.0976 12.6754 17.0976C12.6371 16.9378 12.5944 16.7824 12.5471 16.6406C12.4908 16.4807 12.4345 16.3344 12.3737 16.2173C12.3467 16.1565 12.3152 16.1048 12.2882 16.0597C12.0856 15.9539 11.8694 15.8774 11.6443 15.8188C11.543 15.7896 11.4394 15.7625 11.3381 15.7378C11.2255 15.9832 11.131 16.2601 11.0634 16.5348C11.0251 16.6924 10.9936 16.8545 10.9801 17.0098C10.9644 17.1652 10.9666 17.3228 11.0004 17.4353L11.0071 17.4466C11.0116 17.4578 11.0161 17.4714 11.0206 17.4849C11.0274 17.4984 11.0364 17.5096 11.0432 17.5231L11.0814 17.5704C11.0949 17.5862 11.1084 17.5997 11.122 17.6177C11.122 17.6177 11.122 17.6177 11.1265 17.6177C11.149 17.6109 11.1827 17.5974 11.221 17.5907C11.2998 17.5704 11.4034 17.5614 11.5069 17.5547C11.6105 17.5479 11.7118 17.5434 11.7884 17.5344C11.8649 17.5254 11.9144 17.5164 11.9144 17.5164L11.9189 17.5366C11.9189 17.5366 11.8694 17.5502 11.7929 17.5659C11.7186 17.5817 11.6173 17.6019 11.5159 17.6222C11.4169 17.6447 11.3178 17.6717 11.2503 17.7032C11.2458 17.7032 11.2435 17.7055 11.2413 17.7078C11.266 17.7213 11.3043 17.7393 11.3538 17.7663C11.4034 17.7911 11.4619 17.8203 11.5295 17.8563C11.5947 17.8901 11.669 17.9261 11.7523 17.9667C11.8334 18.0094 11.9212 18.0455 12.0158 18.086C12.063 18.1063 12.1103 18.1265 12.1599 18.1468C12.2094 18.1648 12.2589 18.1783 12.3107 18.1941C12.3962 18.2166 12.4841 18.2413 12.5719 18.2661L12.6079 18.2751C12.6079 18.2751 12.6394 18.2751 12.6349 18.2954V18.3809C12.6394 18.4372 12.6417 18.4935 12.6439 18.552L12.6574 18.6421L12.6642 18.6871L12.6777 18.7276L12.7024 18.8087L12.7407 18.8875C12.7947 19.0023 12.869 19.1104 12.9478 19.2139C13.0964 19.3333 13.3238 19.4346 13.558 19.5111C13.8056 19.5899 14.0578 19.644 14.2492 19.6935C14.4383 19.7408 14.5644 19.7836 14.5644 19.7836L14.5463 19.8578C14.5463 19.8578 14.4225 19.8218 14.2334 19.7813C14.0443 19.7385 13.7876 19.6935 13.5332 19.6214C13.4206 19.5899 13.3103 19.5517 13.2045 19.5089C13.3553 19.6665 13.5017 19.8061 13.6278 19.9366C13.7629 20.0762 13.8732 20.1978 13.9452 20.2924C13.9812 20.3374 14.006 20.3802 14.024 20.4049C14.042 20.432 14.051 20.4455 14.051 20.4455L13.97 20.5153C13.97 20.5153 13.961 20.504 13.943 20.4815C13.9227 20.459 13.9002 20.423 13.8597 20.3847C13.7854 20.3036 13.6728 20.1978 13.5287 20.074C13.3846 19.9524 13.2113 19.8151 13.0289 19.6552C12.9726 19.6057 12.9163 19.5539 12.8623 19.4999C12.869 19.5494 12.8803 19.6057 12.8893 19.6642C12.9478 19.8038 13.0402 20.0199 13.1302 20.2361C13.2946 20.5896 13.4612 20.943 13.4612 20.943L13.4522 20.9498C13.4522 20.9498 13.2743 20.6031 13.0987 20.2563C13.0447 20.1483 12.9929 20.0402 12.9456 19.9411C12.9591 20.0087 12.9726 20.0785 12.9884 20.1483C13.0356 20.3892 13.0739 20.6346 13.0874 20.8192C13.0964 20.9115 13.0942 20.9903 13.0964 21.0443C13.0964 21.0984 13.0964 21.1299 13.0964 21.1299H13.0289C13.0289 21.1299 13.0289 21.1006 13.0244 21.0466C13.0199 20.9948 13.0199 20.9183 13.0086 20.8282C12.9906 20.6481 12.9456 20.4117 12.8893 20.1753C12.833 19.9389 12.7745 19.7025 12.7407 19.5201C12.725 19.4503 12.7182 19.3873 12.7092 19.3378C12.6349 19.2522 12.5629 19.1622 12.4998 19.0563L12.4458 18.9595L12.4008 18.8515L12.3782 18.7974L12.3647 18.7434L12.3377 18.6353L12.3332 18.6061V18.5926C12.3332 18.5926 12.322 18.5926 12.3174 18.5903H12.2927H12.2814L12.2409 18.5836C12.1824 18.5723 12.1216 18.5633 12.0675 18.5498C12.0135 18.5318 11.9595 18.516 11.9077 18.5003C11.8019 18.4687 11.7028 18.4395 11.6173 18.4034C11.4844 18.3539 11.3696 18.3111 11.2773 18.2751C11.2683 18.3044 11.257 18.3314 11.248 18.3562C11.2143 18.435 11.1917 18.4867 11.185 18.5475C11.185 18.5475 11.1737 18.5768 11.1625 18.5836C11.1535 18.8154 11.1287 19.0451 11.1445 19.2837C11.1445 19.3423 11.149 19.4031 11.1535 19.4639V19.5291L11.158 19.5539C11.158 19.5584 11.158 19.5629 11.158 19.5674L11.167 19.5742L11.203 19.6034L11.2705 19.6575C11.3156 19.6957 11.3561 19.7408 11.3989 19.7813C11.4709 19.8556 11.5385 19.9321 11.6038 20.0087C11.6758 20.0582 11.7523 20.1325 11.8424 20.1753C11.8694 20.1843 11.8919 20.1978 11.9212 20.2023C11.9482 20.2091 11.973 20.2158 12 20.2203C12.0518 20.2248 12.1013 20.2293 12.1418 20.2293C12.2274 20.2293 12.2837 20.2293 12.2837 20.2293V20.2428C12.2837 20.2428 12.2274 20.2451 12.1441 20.2496C12.1013 20.2541 12.0518 20.2518 11.9977 20.2496C11.9707 20.2496 11.9437 20.2406 11.9144 20.2383C11.8874 20.2361 11.8582 20.2248 11.8289 20.2181C11.7951 20.2046 11.7636 20.1888 11.7343 20.1708C11.9212 20.4049 12.0968 20.6368 12.3129 20.8215L12.2544 20.916C11.9122 20.6593 11.651 20.2991 11.3561 20.0177C11.3719 20.1866 11.3921 20.4252 11.4101 20.6639C11.4214 20.8867 11.4371 21.1096 11.4326 21.2785C11.4326 21.4451 11.4326 21.5577 11.4326 21.5577H11.3651C11.3651 21.5577 11.3606 21.4473 11.3538 21.2807C11.3516 21.1141 11.3268 20.8935 11.3088 20.6751C11.2728 20.3577 11.2323 20.0402 11.212 19.8871C11.1917 19.8714 11.1737 19.8533 11.1535 19.8398L10.9846 19.7228L10.9599 19.7048C10.9599 19.7048 10.9576 19.6822 10.9553 19.6732L10.9486 19.6057L10.9351 19.4886C10.9283 19.4278 10.9193 19.367 10.9148 19.3018C10.8856 19.0518 10.8946 18.7884 10.9238 18.5318C10.9238 18.525 10.9193 18.5385 10.9193 18.5205C10.9261 18.4102 10.9621 18.3044 10.9869 18.2323C11.0139 18.1558 11.0184 18.1017 11.0116 18.0972V18.077C10.9936 17.9982 10.9756 17.9599 10.9171 17.9036C10.9058 17.8901 10.8833 17.8699 10.8653 17.8541C10.845 17.8361 10.8225 17.8091 10.8 17.7866C10.7775 17.7573 10.755 17.7258 10.7347 17.692C10.7167 17.656 10.7009 17.6177 10.6852 17.5794C10.6852 17.5839 10.6829 17.5907 10.6784 17.5997C10.6199 17.3745 10.6176 17.1787 10.6221 16.9873C10.6289 16.7982 10.6537 16.6158 10.6852 16.4357C10.7392 16.1453 10.8113 15.8638 10.9148 15.5847C10.7077 15.4744 10.5321 15.328 10.3902 15.1749C10.1944 14.9588 10.057 14.7314 9.96023 14.5265C9.8364 14.7089 9.74184 14.8462 9.72608 14.9002C9.67655 15.0714 9.37261 15.9854 9.27355 16.8995C9.25779 17.0368 9.23302 17.1404 9.20375 17.2192C9.19475 17.2642 9.18574 17.316 9.18349 17.3723C9.17448 17.4781 9.16323 17.5952 9.14972 17.7258C9.14071 17.8609 9.13171 18.0049 9.1227 18.1603C9.11595 18.2413 9.10919 18.3246 9.10244 18.4102C9.09794 18.498 9.07993 18.5723 9.07092 18.6533C9.04841 18.8064 9.05066 18.9753 9.08218 19.0203C9.10694 19.0766 9.28705 19.1419 9.4334 19.2139C9.58874 19.286 9.73508 19.3896 9.86567 19.4886C9.9985 19.5877 10.1313 19.7002 10.2417 19.8421C10.352 19.9839 10.4195 20.173 10.433 20.3396C10.4398 20.4072 10.442 20.4725 10.442 20.5355C10.4465 20.5445 10.4488 20.5535 10.4533 20.5625C10.4668 20.6031 10.4893 20.6413 10.5141 20.6819C10.5388 20.7224 10.5591 20.7652 10.5884 20.8034C10.6154 20.844 10.6447 20.8845 10.6717 20.925C10.7009 20.9633 10.7257 21.0128 10.7482 21.0556C10.7685 21.1029 10.7887 21.1479 10.8023 21.1952C10.818 21.2402 10.827 21.2875 10.8383 21.3303C10.8473 21.373 10.854 21.4158 10.8608 21.4541C10.8878 21.6072 10.9081 21.7063 10.9081 21.7063H10.8968C10.8968 21.7063 10.872 21.6094 10.8428 21.4586C10.836 21.4203 10.8248 21.3798 10.8158 21.337C10.8045 21.2942 10.7932 21.2492 10.7775 21.2064C10.7617 21.1614 10.7415 21.1186 10.7212 21.0736C10.6964 21.0331 10.6739 20.9903 10.6402 20.952C10.6109 20.9138 10.5794 20.8732 10.5523 20.835C10.5231 20.7967 10.4983 20.7539 10.4713 20.7134C10.46 20.6976 10.451 20.6819 10.4398 20.6661C10.4398 20.7111 10.4353 20.7539 10.433 20.7944C10.4285 20.862 10.424 20.925 10.4195 20.9858C10.4195 21.0421 10.4218 21.0939 10.4263 21.1457C10.4375 21.2537 10.4465 21.3483 10.4555 21.4271C10.4645 21.5059 10.4623 21.5712 10.4645 21.6139C10.4645 21.6567 10.4645 21.6815 10.4645 21.6815H10.3632C10.3632 21.6815 10.3632 21.659 10.3587 21.6184C10.3542 21.5779 10.3542 21.5194 10.3385 21.4428C10.325 21.3663 10.3114 21.2717 10.2912 21.1637C10.2844 21.1074 10.2777 21.0421 10.2732 20.9768C10.2732 20.916 10.2732 20.8507 10.2732 20.7832C10.2732 20.6503 10.2732 20.5063 10.2484 20.3689C10.2394 20.3126 10.2236 20.2586 10.2034 20.2068C10.1921 20.2383 10.1809 20.2721 10.1674 20.3104C10.1516 20.3577 10.1336 20.4072 10.1156 20.459C10.0953 20.5108 10.0705 20.5625 10.0458 20.6188C9.99625 20.7291 9.94447 20.8462 9.89043 20.9655C9.76886 21.1907 9.65629 21.4226 9.55272 21.5802C9.45366 21.7423 9.38837 21.8503 9.38837 21.8503L9.33433 21.8053C9.33433 21.8053 9.39512 21.695 9.48968 21.5306C9.58874 21.3708 9.69006 21.1366 9.80263 20.9115C9.84991 20.7944 9.89719 20.6751 9.94221 20.5648C9.96473 20.5085 9.98724 20.4567 10.0053 20.4049C10.021 20.3532 10.0368 20.3036 10.0503 20.2563C10.0773 20.1708 10.0998 20.101 10.1156 20.0492C10.1043 20.0312 10.0931 20.0154 10.0773 19.9997C9.98499 19.8939 9.86341 19.8061 9.73058 19.7205C9.5955 19.635 9.46717 19.5562 9.32533 19.5044C9.30732 19.4976 9.28706 19.4909 9.26679 19.4819C9.23752 19.5854 9.17448 19.8106 9.10019 20.0695C9.10019 20.0785 9.10019 20.0875 9.10019 20.0965C9.10019 20.137 9.10019 20.1798 9.11144 20.2248C9.1182 20.2699 9.13171 20.3194 9.14522 20.3689C9.17223 20.468 9.21276 20.5738 9.23302 20.6886C9.23977 20.7156 9.24203 20.7449 9.24428 20.7742C9.24428 20.8034 9.25103 20.8327 9.24428 20.862C9.24203 20.8912 9.23752 20.9183 9.23527 20.9453C9.23077 20.9723 9.22402 20.9993 9.21726 21.0241C9.1925 21.1276 9.16323 21.2199 9.14972 21.3033C9.14071 21.3438 9.13621 21.3821 9.13396 21.4158C9.13171 21.4496 9.12946 21.4789 9.13396 21.5036C9.13846 21.5532 9.14296 21.5802 9.14296 21.5802H9.13171C9.13171 21.5802 9.1272 21.5554 9.12045 21.5059C9.11595 21.4811 9.11595 21.4496 9.12045 21.4158C9.12045 21.3798 9.12495 21.3415 9.13171 21.2987C9.14522 21.2132 9.17223 21.1186 9.1925 21.0173C9.197 20.9926 9.2015 20.9655 9.206 20.9385C9.206 20.9115 9.21051 20.8845 9.21276 20.8575C9.21726 20.8305 9.21276 20.8034 9.20825 20.7764C9.20825 20.7494 9.20375 20.7224 9.19475 20.6954C9.17223 20.5873 9.12946 20.486 9.09569 20.3847C9.07767 20.3351 9.06191 20.2856 9.05291 20.2361C9.05291 20.2338 9.05291 20.2293 9.05291 20.2271C9.0439 20.2631 9.03265 20.2991 9.02364 20.3329C8.94484 20.5603 8.87505 20.7899 8.794 20.9498C8.7197 21.1119 8.67242 21.2222 8.67242 21.2222L8.61388 21.1839C8.61388 21.1839 8.65891 21.0759 8.7242 20.9115C8.7985 20.7562 8.85704 20.531 8.92683 20.3081C8.92007 20.3126 8.91557 20.3171 8.90657 20.3239C8.8863 20.3419 8.85929 20.3577 8.83677 20.3824C8.78949 20.432 8.73321 20.486 8.67467 20.5513C8.61613 20.6166 8.55535 20.6841 8.48781 20.7494C8.45403 20.7787 8.42477 20.8215 8.38199 20.8395C8.34371 20.862 8.30544 20.8867 8.26942 20.9048C8.19287 20.9385 8.12308 20.97 8.06229 20.9971C8.0015 21.0218 7.95422 21.0511 7.92045 21.0691C7.88668 21.0871 7.86642 21.0984 7.86642 21.0984L7.85966 21.0871C7.85966 21.0871 7.87992 21.0759 7.9137 21.0556C7.94747 21.0353 7.99475 21.0038 8.05553 20.9768C8.11407 20.9475 8.18387 20.9115 8.25816 20.8755C8.29418 20.8575 8.33021 20.8305 8.36623 20.8079C8.40675 20.7877 8.42927 20.7494 8.46304 20.7156C8.52608 20.6481 8.58462 20.576 8.63865 20.5085C8.69268 20.441 8.74897 20.3802 8.794 20.3261C8.81651 20.2991 8.84353 20.2789 8.86379 20.2586C8.8863 20.2383 8.90431 20.2226 8.92008 20.2091C8.94034 20.1911 8.9561 20.1775 8.96285 20.1708C9.02814 19.9006 9.09118 19.6462 9.1272 19.4976C9.10019 19.5111 9.07092 19.5314 9.0349 19.5426C8.99887 19.5562 8.96285 19.5742 8.92233 19.5832C8.8818 19.5944 8.83902 19.6079 8.79625 19.6169C8.70844 19.6372 8.61613 19.6597 8.52158 19.68C8.4743 19.6912 8.42927 19.707 8.38424 19.7205C8.33921 19.7363 8.29644 19.752 8.25816 19.7768C8.21989 19.7993 8.18161 19.8241 8.15009 19.8511C8.11632 19.8781 8.08706 19.9051 8.05779 19.9299C7.94747 20.0335 7.86642 20.092 7.86642 20.092L7.85966 20.0807C7.85966 20.0807 7.93846 20.0222 8.04653 19.9141C8.07355 19.8894 8.10281 19.8601 8.13659 19.8308C8.16811 19.8016 8.20638 19.7745 8.2469 19.7498C8.28518 19.7228 8.33021 19.7048 8.37523 19.6867C8.42026 19.6687 8.46529 19.653 8.51257 19.6395C8.60488 19.6124 8.69719 19.5854 8.78499 19.5607C8.82777 19.5494 8.86829 19.5336 8.90657 19.5201C8.94484 19.5066 8.97861 19.4886 9.01238 19.4751C9.04615 19.4616 9.07092 19.4413 9.09569 19.4278C9.10244 19.4256 9.10694 19.4211 9.11144 19.4166C9.10919 19.4166 9.10694 19.4166 9.10469 19.4143C9.02589 19.3828 8.92458 19.3445 8.83677 19.2342C8.75122 19.1216 8.73096 18.9911 8.72195 18.8875C8.71745 18.8357 8.71745 18.7884 8.71745 18.7389C8.71745 18.6916 8.72195 18.6466 8.7242 18.6016C8.72871 18.516 8.74221 18.4282 8.73996 18.3539C8.73996 18.2841 8.73996 18.2166 8.74221 18.1513C8.70169 18.2323 8.66116 18.3134 8.61163 18.3944C8.57111 18.4597 8.53058 18.525 8.4788 18.5881C8.45629 18.6196 8.42477 18.6511 8.3955 18.6804C8.36623 18.7096 8.33921 18.7321 8.31219 18.7569C8.08255 18.955 7.82364 19.0699 7.58949 19.1532C7.58949 19.1532 7.58724 19.1532 7.58499 19.1532C7.49268 19.2995 7.39137 19.4976 7.28555 19.6935C7.18199 19.9074 7.07392 20.119 7.00413 20.2856C6.93208 20.45 6.88255 20.558 6.88255 20.558L6.82176 20.5265C6.82176 20.5265 6.86679 20.4139 6.93433 20.2451C6.99962 20.0762 7.10094 19.8578 7.19775 19.635C7.27204 19.4886 7.34184 19.34 7.40938 19.2117C7.24278 19.2657 7.08968 19.313 6.9546 19.3603C6.77223 19.4233 6.62814 19.4841 6.53133 19.5381C6.4818 19.5629 6.44578 19.5877 6.42101 19.6012C6.39625 19.6169 6.38274 19.626 6.38274 19.626L6.29268 19.4661C6.29268 19.4661 6.30619 19.4548 6.33321 19.4368C6.36022 19.4188 6.3985 19.3873 6.45028 19.3558C6.55159 19.2882 6.70244 19.2072 6.8848 19.1261C6.97936 19.0834 7.08293 19.0406 7.19099 18.9956C7.17298 18.9956 7.15722 18.9911 7.13921 18.9888C7.08518 18.9821 7.0334 18.9775 6.97486 18.973C6.92533 18.9663 6.87355 18.9595 6.82401 18.955C6.806 18.955 6.79024 18.955 6.77223 18.955C6.70469 18.9595 6.63715 18.964 6.56961 18.9775C6.53584 18.9866 6.50206 18.9933 6.47054 19.0068C6.43677 19.0181 6.41651 19.0383 6.38049 19.0608C6.31745 19.1059 6.25216 19.1509 6.18462 19.1779C6.11932 19.2117 6.05178 19.2387 5.98874 19.2635C5.9257 19.2905 5.86492 19.3175 5.80638 19.3423C5.75235 19.3738 5.70056 19.4031 5.65553 19.4346C5.61276 19.4729 5.57223 19.5066 5.53846 19.5381C5.52045 19.5539 5.50469 19.5697 5.48893 19.5809C5.47092 19.5922 5.45516 19.6012 5.44165 19.6102C5.38537 19.644 5.35385 19.6642 5.35385 19.6642L5.34709 19.6462C5.34709 19.6462 5.37861 19.626 5.43264 19.5899C5.44615 19.5809 5.46191 19.5719 5.47767 19.5607C5.49343 19.5472 5.50919 19.5336 5.52495 19.5179C5.55872 19.4864 5.59925 19.4503 5.63977 19.4098C5.6848 19.376 5.73884 19.3423 5.79512 19.3085C5.85366 19.2815 5.91445 19.2522 5.97749 19.2207C6.04053 19.1914 6.10582 19.1622 6.16886 19.1261C6.23415 19.0946 6.29268 19.0496 6.35122 19.0046C6.37824 18.9866 6.41426 18.9528 6.45028 18.9393C6.4863 18.9213 6.52233 18.91 6.55835 18.8987C6.41651 18.8672 6.28368 18.8357 6.17111 18.8222C6.08555 18.8087 6.01801 18.8087 5.97298 18.8177C5.92795 18.8267 5.90544 18.8425 5.90544 18.8425L5.87617 18.7749C5.87617 18.7749 5.90544 18.7547 5.95947 18.7411C6.01351 18.7254 6.09231 18.7254 6.18011 18.7344C6.35572 18.7524 6.58762 18.8042 6.81501 18.838C6.86229 18.8425 6.90957 18.847 6.95685 18.8492C7.02439 18.8492 7.08743 18.847 7.14822 18.8492C7.30131 18.8515 7.41614 18.8627 7.47467 18.8672C7.48143 18.8672 7.49043 18.8672 7.49719 18.865C7.49719 18.865 7.50169 18.865 7.50394 18.8627C7.54897 18.8425 7.59174 18.8199 7.63677 18.7974C7.64578 18.7862 7.65028 18.7772 7.65253 18.7772L7.66154 18.7839C7.82364 18.6984 7.98124 18.5948 8.10957 18.462C8.12983 18.4395 8.1546 18.4169 8.17036 18.3967C8.18612 18.3742 8.20413 18.3584 8.21989 18.3314C8.25141 18.2841 8.28293 18.2278 8.30994 18.1715C8.36623 18.059 8.41576 17.9351 8.46079 17.8158C8.54859 17.5749 8.61613 17.3385 8.66567 17.1359C8.71745 16.9333 8.74897 16.7622 8.76923 16.6428C8.77599 16.6091 8.78049 16.5798 8.78274 16.555C8.75797 16.5821 8.73546 16.6068 8.70844 16.6338C8.65666 16.6789 8.60488 16.7261 8.55084 16.7734C8.49681 16.8184 8.44503 16.8725 8.38424 16.913C8.26717 16.9963 8.1546 17.0864 8.03977 17.1584C7.92495 17.2282 7.81689 17.2845 7.72683 17.343C7.63677 17.3993 7.56923 17.4578 7.5242 17.5006C7.48368 17.5502 7.46116 17.5772 7.46116 17.5772L7.4454 17.5659C7.4454 17.5659 7.46792 17.5366 7.50844 17.4826C7.55347 17.4353 7.62101 17.3723 7.71107 17.3138C7.79887 17.2507 7.90694 17.1899 8.01726 17.1156C8.12533 17.0391 8.2334 16.9445 8.34597 16.8567C8.4045 16.8139 8.45178 16.7577 8.50356 16.7104C8.55535 16.6608 8.60488 16.6113 8.65216 16.564C8.69493 16.5123 8.73546 16.4627 8.77373 16.4177C8.7985 16.3727 8.82101 16.3321 8.84353 16.2916C8.92683 15.8931 9.02589 15.4744 9.11595 15.2695C9.17673 15.1299 9.27355 14.9453 9.37711 14.7291C9.30732 14.7539 9.23978 14.7719 9.17899 14.7877C8.86154 14.862 8.5531 14.8507 8.3167 14.8867C8.19737 14.907 8.09606 14.9385 8.00375 14.9971C7.91144 15.0556 7.82589 15.1411 7.74709 15.2447L7.74034 15.2672C7.6818 15.3325 7.62777 15.4113 7.57824 15.4969C7.56473 15.5869 7.55572 15.6815 7.55122 15.7783C7.54221 16.0124 7.55347 16.2511 7.56023 16.429C7.56698 16.6068 7.56698 16.7261 7.56698 16.7261H7.54897C7.54897 16.7261 7.54897 16.6091 7.53096 16.4312C7.51745 16.2533 7.49493 16.0169 7.49043 15.7783C7.49043 15.74 7.49043 15.6995 7.49043 15.6612C7.43415 15.776 7.38011 15.9021 7.32608 16.0327C7.26079 16.1836 7.19099 16.3411 7.09869 16.4942C7.0334 16.6046 6.95009 16.7126 6.85554 16.8072C6.84653 16.8567 6.83978 16.9063 6.83077 16.958C6.79475 17.2124 6.76323 17.4759 6.71595 17.674C6.69343 17.773 6.66867 17.8541 6.64841 17.9081C6.62814 17.9644 6.61689 17.9959 6.61689 17.9959L6.49306 17.9374C6.49306 17.9374 6.50206 17.9081 6.51557 17.8563C6.53133 17.8046 6.54934 17.7303 6.56285 17.6357C6.59212 17.4646 6.60788 17.2327 6.62589 16.9918C6.56961 17.0436 6.51332 17.0931 6.45478 17.1404C6.44128 17.1742 6.42552 17.2124 6.4075 17.253C6.33996 17.4061 6.23415 17.5974 6.11032 17.7753C5.98424 17.9509 5.84015 18.1085 5.72308 18.2121C5.66679 18.2684 5.61276 18.3044 5.57899 18.3336C5.54296 18.3629 5.5227 18.3787 5.5227 18.3787L5.48443 18.3156C5.48443 18.3156 5.50244 18.2999 5.53621 18.2684C5.56773 18.2368 5.61951 18.2008 5.67129 18.1423C5.78161 18.0365 5.9122 17.8766 6.02927 17.7032C6.11482 17.5659 6.19137 17.4218 6.24991 17.2935C6.13058 17.379 6.00901 17.4601 5.88518 17.5344C5.73208 17.6245 5.57448 17.7078 5.40788 17.7775C5.24128 17.8451 5.06792 17.9014 4.8788 17.9126L4.86304 17.6425C5.00938 17.6222 5.16022 17.5637 5.30431 17.4894C5.45066 17.4151 5.5925 17.3273 5.72983 17.2305C5.97073 17.0593 6.20263 16.8657 6.41876 16.6586C6.4075 16.6496 6.394 16.6428 6.38274 16.6338C6.36023 16.6203 6.34897 16.6113 6.31745 16.5933L6.28593 16.5775L6.22289 16.5438C6.17786 16.5303 6.13283 16.5078 6.08555 16.4965C5.96398 16.465 5.83565 16.456 5.70957 16.4582C5.6803 16.4717 5.64653 16.4875 5.60826 16.5078C5.54071 16.5483 5.45966 16.5933 5.37636 16.6428C5.33358 16.6676 5.29081 16.6924 5.24578 16.7194C5.20075 16.7442 5.15797 16.7734 5.1152 16.8049C5.02964 16.868 4.94184 16.9265 4.86529 16.9896C4.78649 17.0526 4.71445 17.1111 4.65141 17.1607C4.52758 17.2642 4.44653 17.3318 4.44653 17.3318L4.43978 17.3205C4.43978 17.3205 4.52083 17.2507 4.6424 17.1449C4.70319 17.0931 4.77523 17.0301 4.84953 16.9648C4.92383 16.8972 5.01163 16.8342 5.09493 16.7667C5.13546 16.7329 5.18049 16.7014 5.22326 16.6744C5.26829 16.6451 5.31107 16.6181 5.35159 16.5911C5.42139 16.546 5.48443 16.5055 5.54296 16.4672C5.52495 16.4672 5.50469 16.4695 5.48668 16.4717C5.28856 16.4942 5.10169 16.537 4.94409 16.5753C4.62439 16.6586 4.41051 16.7149 4.41051 16.7149L4.38349 16.6046C4.38349 16.6046 4.59062 16.5235 4.90356 16.4019C4.93508 16.3907 4.9666 16.3794 5.00038 16.3659C4.95985 16.3547 4.91707 16.3434 4.87655 16.3321C4.73021 16.2871 4.58612 16.2421 4.47355 16.2196C4.41951 16.2038 4.37223 16.2061 4.33846 16.1993C4.30469 16.1948 4.28668 16.1926 4.28668 16.1926V16.179C4.28668 16.179 4.30469 16.179 4.33846 16.1836C4.37223 16.1881 4.41951 16.1835 4.4758 16.1971C4.58837 16.2128 4.73696 16.2533 4.8833 16.2871C4.9576 16.3006 5.02964 16.3209 5.09944 16.3254C5.09944 16.3254 5.09944 16.3254 5.10169 16.3254C5.20976 16.2894 5.32683 16.2533 5.45291 16.2241C5.66004 16.1768 5.89193 16.1453 6.13508 16.1768C6.19587 16.1813 6.25666 16.2016 6.3152 16.2151C6.36248 16.2331 6.40976 16.2511 6.45478 16.2691L6.4773 16.2781C6.4773 16.2781 6.48856 16.2669 6.49531 16.2601C6.51107 16.2376 6.52683 16.2151 6.54259 16.1948C6.65966 16.0372 6.75422 15.8571 6.83752 15.6972C6.88255 15.6162 6.92083 15.5419 6.95685 15.4766C6.99737 15.4091 7.0334 15.3505 7.06041 15.301C7.10544 15.238 7.13696 15.1952 7.15497 15.1682C7.10769 15.1727 7.05816 15.1794 7.00413 15.1862C6.8758 15.1997 6.73846 15.2222 6.60113 15.2267C6.3242 15.247 6.04953 15.2492 5.84465 15.2492C5.63977 15.2447 5.50244 15.2425 5.50244 15.2425V15.0894C5.50244 15.0894 5.63752 15.0826 5.8424 15.0736C5.89644 15.0691 5.95722 15.0669 6.02026 15.0601C5.95722 15.0286 5.89418 14.9858 5.82889 14.9475C5.70056 14.8642 5.57674 14.7787 5.47993 14.7246C5.43265 14.6954 5.38987 14.6774 5.3606 14.6616C5.33133 14.6481 5.31332 14.6391 5.31332 14.6391L5.31782 14.6278C5.31782 14.6278 5.33583 14.6346 5.3651 14.6481C5.39437 14.6616 5.4394 14.6774 5.48668 14.7066C5.58799 14.7584 5.71632 14.8372 5.8469 14.9093C5.91219 14.943 5.97749 14.9813 6.04278 15.0061C6.0743 15.0196 6.10582 15.0331 6.13283 15.0443C6.13734 15.0443 6.14409 15.0466 6.14859 15.0488C6.28593 15.0376 6.43452 15.0218 6.58311 14.9993C6.6439 14.9926 6.70469 14.9813 6.76548 14.9723C6.71595 14.916 6.67317 14.8552 6.62364 14.8102H6.62139L6.33996 14.5288L6.04728 14.2654L6.05403 14.2541L6.35797 14.504L6.65291 14.7674C6.65291 14.7674 6.65291 14.7674 6.65291 14.7652C6.7182 14.8192 6.76773 14.8822 6.82401 14.9363L6.84653 14.9565C6.89156 14.9475 6.93659 14.9385 6.97936 14.9318C7.0424 14.9205 7.10319 14.9093 7.15947 14.898C7.21351 14.8867 7.26304 14.8755 7.30582 14.8597C7.34184 14.8462 7.37111 14.8327 7.39587 14.8192C7.50169 14.7111 7.6075 14.5963 7.73358 14.5017C7.88218 14.3892 8.05779 14.3194 8.21764 14.2811C8.37749 14.2428 8.52608 14.2271 8.66116 14.2068C8.79625 14.1866 8.92233 14.1618 9.0394 14.1235C9.16773 14.083 9.26004 14.0425 9.34334 13.9794C9.42664 13.9164 9.49644 13.8376 9.56398 13.734C9.68105 13.5539 9.78011 13.3017 9.92195 13.0338C9.92871 12.9708 9.93321 12.9078 9.93771 12.847C9.98724 11.8181 9.9152 10.8522 9.9152 10.053C9.9152 9.25372 10.1606 8.64359 9.23527 8.88224C9.23978 8.87098 9.24203 8.85972 9.24428 8.84846C9.24428 8.84846 9.23977 8.84847 9.23752 8.85297C9.20825 8.86648 9.19024 8.87998 9.16773 8.89349L9.07542 8.95654C9.01689 8.99931 8.95835 9.03984 8.89981 9.08486C8.66792 9.26498 8.44953 9.47436 8.26266 9.6995C8.17036 9.81432 8.0848 9.93139 8.01501 10.053L7.99024 10.098L7.97674 10.1205L7.96998 10.1318L7.96098 10.1588L7.88218 10.3727C7.86867 10.4222 7.85516 10.4717 7.84165 10.519C7.86191 10.6113 7.88893 10.7104 7.91595 10.8072C7.97223 10.9963 8.03527 11.1899 8.09831 11.3881C8.1591 11.5862 8.21989 11.7866 8.26266 12.0004C8.28293 12.1063 8.30319 12.2166 8.30769 12.3359V12.426C8.30769 12.4575 8.30544 12.489 8.30094 12.5205C8.30094 12.5408 8.29644 12.561 8.29193 12.5813C8.30319 12.6714 8.3122 12.7614 8.31895 12.856C8.33021 13.0901 8.3212 13.3243 8.29869 13.4999C8.29193 13.5877 8.27167 13.6575 8.26492 13.707C8.25591 13.7565 8.24916 13.7858 8.24916 13.7858L8.18386 13.7678C8.18386 13.7678 8.18837 13.7408 8.19512 13.6912C8.19962 13.6417 8.21764 13.5719 8.22214 13.4886C8.24015 13.3198 8.2379 13.0924 8.22214 12.865C8.22214 12.8425 8.21538 12.8199 8.21313 12.7952C8.1546 12.9685 8.05328 13.0991 7.94972 13.2207C7.82589 13.3648 7.69306 13.4909 7.56023 13.6124C7.29681 13.8578 7.01313 14.0762 6.78574 14.3442L6.70694 14.2699C6.92758 13.9592 7.19325 13.7138 7.43189 13.4458C7.55122 13.313 7.66829 13.1779 7.77186 13.0361C7.80113 12.9956 7.82814 12.955 7.85516 12.9123C7.75835 12.9866 7.64803 13.0541 7.53996 13.1104C7.32608 13.2252 7.10994 13.3198 6.9546 13.4053C6.797 13.4886 6.71144 13.5697 6.71144 13.5697L6.66867 13.5111C6.66867 13.5111 6.76098 13.4166 6.91857 13.3265C7.07392 13.232 7.29006 13.1261 7.49493 13.0068C7.69981 12.8897 7.89343 12.7434 7.98124 12.5948C8.00375 12.5588 8.01726 12.525 8.02852 12.4935C8.03302 12.3787 8.006 12.2301 7.96323 12.0882C7.90919 11.9059 7.8394 11.7213 7.7651 11.5366C7.70657 11.3903 7.64578 11.244 7.58499 11.0931C7.55572 11.2057 7.52195 11.325 7.48143 11.4533C7.45441 11.5299 7.42739 11.6109 7.39137 11.6942C7.38236 11.7145 7.37561 11.7348 7.36435 11.7573L7.32833 11.8316C7.29906 11.8969 7.25854 11.9509 7.21801 12.0072C7.18199 12.0657 7.13246 12.113 7.08968 12.1648C7.02889 12.176 6.96135 12.1738 6.89831 12.1805L6.8015 12.1873C6.77223 12.1873 6.73621 12.1851 6.72045 12.1828C6.67992 12.1783 6.63715 12.1738 6.59437 12.1693C6.43227 12.1445 6.27242 12.1108 6.11932 12.0725C6.04503 12.0545 5.97073 12.0365 5.89644 12.0184C5.8379 12.0049 5.78161 11.9937 5.72308 11.9802C5.6848 11.9622 5.66454 11.9892 5.63977 12.0049C5.60375 12.032 5.56773 12.0657 5.53396 12.0995C5.42814 12.3246 5.34934 12.6669 5.28856 13.0181C5.22552 13.3828 5.16698 13.7565 5.08368 14.0312C5.06342 14.0987 5.0454 14.1618 5.02289 14.2158C5.00263 14.2699 4.98687 14.3194 4.9666 14.3554C4.93058 14.4297 4.91032 14.4725 4.91032 14.4725L4.79325 14.3959C4.79325 14.3959 4.80901 14.3554 4.83827 14.2856C4.85403 14.2518 4.86754 14.2068 4.8833 14.155C4.90131 14.1033 4.91707 14.0447 4.93283 13.9794C4.98236 13.7903 5.01614 13.5427 5.04991 13.2815L4.45103 14.1753L4.397 14.1303L5.08818 12.9843C5.08818 12.9843 5.08818 12.982 5.08818 12.9798C5.10844 12.8199 5.13321 12.6578 5.16473 12.5025C5.08593 12.5971 5.01163 12.6894 4.94409 12.7772C4.79099 12.973 4.66266 13.1396 4.56811 13.2545C4.47129 13.367 4.41726 13.4323 4.41726 13.4323L4.24165 13.2477C4.24165 13.2477 4.28893 13.1802 4.36998 13.0631C4.45103 12.9438 4.5636 12.7682 4.69869 12.5543C4.83602 12.3404 4.99812 12.0882 5.20525 11.8338C5.25929 11.7708 5.30882 11.7055 5.37411 11.6447C5.41914 11.5997 5.46642 11.5569 5.51144 11.5119L5.54747 11.4781C5.54747 11.4781 5.56098 11.4714 5.56773 11.4714H5.59024L5.67805 11.4804L5.76585 11.4871L5.84015 11.4939L5.95947 11.5074C6.03602 11.5164 6.11482 11.5276 6.19137 11.5366C6.34447 11.5569 6.49081 11.5727 6.63039 11.5772H6.73171C6.76773 11.5772 6.76548 11.5749 6.77674 11.5704C6.78574 11.5682 6.7925 11.5659 6.79925 11.5637C6.80375 11.5547 6.80826 11.5479 6.81051 11.5389C6.81276 11.5299 6.81501 11.5231 6.81726 11.5141C6.81726 11.5141 6.82401 11.4939 6.82852 11.4804C6.83527 11.4669 6.83752 11.4488 6.84428 11.4353C6.86454 11.3745 6.8803 11.307 6.89606 11.2417C6.92533 11.1089 6.95009 10.9783 6.97036 10.8545C6.97936 10.7937 6.98837 10.7374 6.99737 10.6811L6.8848 10.6518C6.70919 10.6068 6.53584 10.564 6.36473 10.5325C6.02477 10.4695 5.6803 10.4447 5.41013 10.5258C5.34259 10.546 5.2728 10.5775 5.21651 10.6068C5.15347 10.6451 5.08593 10.6901 5.01614 10.7464C4.8788 10.8545 4.74146 10.9783 4.61313 11.1111C4.51182 11.2124 4.41726 11.3205 4.32946 11.4308C4.30469 11.4623 4.27992 11.4939 4.25741 11.5254C4.20338 11.5974 4.15835 11.6695 4.12008 11.737L4.09756 11.7843C4.08856 11.8001 4.0818 11.8158 4.07955 11.8248C4.07955 11.8338 4.07054 11.8496 4.07054 11.8518C4.07054 11.8518 4.07054 11.8473 4.06604 11.8451L4.003 11.8518L4.06154 11.8901C4.06154 11.8901 4.04803 11.9171 4.02552 11.9622C4.003 12.0094 3.96698 12.0725 3.93096 12.1513C3.85441 12.3089 3.76435 12.5273 3.69006 12.7524C3.62026 12.9775 3.56398 13.2117 3.54372 13.3896C3.52796 13.4774 3.52796 13.5517 3.5212 13.6057C3.5167 13.6575 3.51445 13.689 3.51445 13.689H3.37936C3.37936 13.689 3.37936 13.6575 3.37936 13.6012C3.38161 13.5472 3.37486 13.4661 3.38612 13.3715C3.39512 13.1802 3.4379 12.9303 3.49644 12.6849C3.55947 12.4417 3.63827 12.2053 3.70582 12.032C3.72833 11.9712 3.74859 11.9216 3.76886 11.8789L3.54372 11.9014C3.54372 11.9014 3.52345 11.9171 3.51219 11.9261C3.4469 11.9869 3.36585 12.0612 3.2758 12.149C3.1925 12.2301 3.10019 12.3201 3.00338 12.4192C2.99437 12.444 2.98311 12.4687 2.97186 12.4957C2.92458 12.6128 2.85929 12.7411 2.79625 12.8807C2.76473 12.9505 2.73321 13.0226 2.70619 13.0969C2.68368 13.1734 2.65891 13.2545 2.6364 13.331L2.60263 13.4503C2.59362 13.4909 2.58462 13.5314 2.57786 13.5719C2.5621 13.653 2.54634 13.7318 2.53058 13.8083C2.51482 13.8849 2.51257 13.9614 2.50356 14.0312C2.49456 14.1033 2.48781 14.1708 2.48105 14.2316C2.47655 14.3577 2.47655 14.4612 2.4743 14.5355C2.4743 14.6076 2.4743 14.6503 2.4743 14.6503H2.45854C2.45854 14.6503 2.45854 14.6098 2.45854 14.5355C2.45854 14.4612 2.45854 14.3554 2.45854 14.2293C2.46304 14.1663 2.46979 14.0987 2.47655 14.0267C2.4833 13.9547 2.48555 13.8781 2.49906 13.7993C2.51257 13.7205 2.52608 13.6417 2.53959 13.5584C2.54634 13.5179 2.5531 13.4774 2.55985 13.4346L2.59137 13.313C2.61163 13.232 2.63189 13.1509 2.65216 13.0699C2.67692 12.9911 2.70619 12.9145 2.73546 12.8425C2.76923 12.7569 2.80525 12.6759 2.83452 12.5993C2.69043 12.7524 2.54409 12.9213 2.4045 13.0946C2.30319 13.2229 2.20638 13.358 2.11632 13.4909L2.12308 13.4976C2.12308 13.4976 2.11182 13.5179 2.09381 13.5517C2.08705 13.5719 2.07805 13.5967 2.06679 13.6237C2.06004 13.6552 2.04878 13.689 2.04203 13.7273C2.01051 13.8826 1.99024 14.1033 1.98799 14.3239C1.98349 14.5445 1.98799 14.7674 1.99475 14.934C2.0015 15.1006 2.00375 15.2132 2.00375 15.2132L1.93621 15.2177C1.93621 15.2177 1.9272 15.1074 1.91595 14.9385C1.90469 14.7719 1.89118 14.5468 1.88668 14.3216C1.88218 14.155 1.88668 13.9884 1.90244 13.8421C1.83265 13.9704 1.77411 14.0942 1.73133 14.2091C1.69981 14.2924 1.66829 14.3689 1.65253 14.441C1.63227 14.5108 1.61201 14.5715 1.60525 14.6256C1.58724 14.7291 1.57599 14.7899 1.57599 14.7899L1.44315 14.7719C1.44315 14.7719 1.45216 14.7066 1.46792 14.5941C1.47242 14.5355 1.49268 14.4702 1.51069 14.3937C1.52645 14.3149 1.55572 14.2316 1.58724 14.1415C1.61651 14.056 1.65253 13.9659 1.69531 13.8736C1.63902 13.9209 1.57824 13.9704 1.5197 14.0199C1.39587 14.119 1.27205 14.2181 1.18424 14.2969C1.09418 14.3757 1.0334 14.4275 1.0334 14.4275L1.02214 14.4139C1.02214 14.4139 1.08068 14.3577 1.16623 14.2744C1.25178 14.1888 1.36886 14.0807 1.48593 13.9704C1.54221 13.9141 1.60075 13.8578 1.65253 13.8061C1.70657 13.7543 1.75385 13.7025 1.79212 13.6575C1.80113 13.6462 1.81013 13.6372 1.81689 13.6282C1.94071 13.4008 2.08931 13.1667 2.25141 12.946C2.34146 12.8244 2.43602 12.7051 2.53058 12.5926L2.43602 12.6353C2.37749 12.6601 2.3167 12.6826 2.25816 12.7074C2.17711 12.7389 2.09606 12.7704 2.01726 12.8019C1.88893 12.8762 1.74034 12.9708 1.594 13.0744C1.41839 13.2049 1.25178 13.349 1.14597 13.4796C1.1167 13.5089 1.09193 13.5404 1.07392 13.5674C1.05366 13.5944 1.0379 13.6192 1.02214 13.6395C0.992871 13.68 0.977111 13.7025 0.977111 13.7025L0.920826 13.662C0.920826 13.662 0.936585 13.6372 0.965854 13.5944C0.979362 13.5742 0.997373 13.5472 1.01538 13.5156C1.0334 13.4841 1.05816 13.4526 1.08743 13.4188C1.19325 13.2792 1.3621 13.1216 1.53771 12.9798C1.54221 12.9753 1.54897 12.973 1.55347 12.9685C1.45891 13.0001 1.37111 13.0293 1.28555 13.0518C1.19325 13.0789 1.10994 13.1059 1.0334 13.1284C0.956848 13.1464 0.889306 13.1599 0.833021 13.1734C0.722702 13.1982 0.659662 13.2117 0.659662 13.2117L0.641651 13.0969C0.641651 13.0969 0.702439 13.0766 0.806004 13.0428C0.857786 13.0248 0.920826 13.0046 0.992871 12.982C1.06492 12.955 1.14597 12.919 1.23377 12.883C1.41163 12.8132 1.61426 12.7186 1.83039 12.6151C1.89568 12.5858 1.96098 12.552 2.02627 12.5183C2.01501 12.5183 2.0015 12.5138 1.98799 12.5115C1.9272 12.5025 1.86642 12.4845 1.80113 12.471C1.67505 12.435 1.54221 12.3854 1.41163 12.3314C1.15272 12.2188 0.905066 12.0837 0.715948 11.9937C0.526829 11.9014 0.396248 11.8496 0.396248 11.8496L0.403002 11.8316C0.403002 11.8316 0.533584 11.8789 0.727205 11.9644C0.918574 12.0477 1.17298 12.1693 1.43189 12.2661C1.56248 12.3134 1.69306 12.3539 1.81689 12.3787C1.87993 12.3877 1.93846 12.4034 1.997 12.4057C2.05553 12.4124 2.10957 12.4147 2.1591 12.4147C2.18161 12.4147 2.20413 12.4147 2.22439 12.4147C2.26041 12.3967 2.29418 12.3787 2.33021 12.3607L2.49006 12.2706C2.54409 12.2436 2.59362 12.2053 2.64315 12.167C2.69268 12.1288 2.74221 12.095 2.78949 12.0545C2.88405 11.9689 2.97636 11.8901 3.06642 11.8023C3.24428 11.6312 3.41538 11.4623 3.57749 11.3295C3.59099 11.3183 3.6045 11.307 3.61801 11.2957C3.49644 11.3228 3.37036 11.3453 3.24203 11.361C2.92008 11.3948 2.59812 11.3993 2.35722 11.3948C2.11632 11.3903 1.95647 11.3903 1.95647 11.3903V11.3138C1.95647 11.3138 2.11632 11.3115 2.35722 11.307C2.59812 11.3025 2.91557 11.289 3.23077 11.2485C3.41538 11.2192 3.59775 11.1764 3.7621 11.1269C3.76435 11.1224 3.7666 11.1179 3.77111 11.1134C3.89268 10.9243 4.02326 10.7554 4.16285 10.5933C4.18987 10.564 4.21463 10.5348 4.24165 10.5055C4.19662 10.5123 4.15159 10.5168 4.10432 10.5213C4.06379 10.519 4.02101 10.5213 3.98049 10.5123C3.93996 10.4987 3.89719 10.4897 3.86116 10.4695C3.78462 10.4357 3.71032 10.3907 3.63827 10.3524C3.62026 10.3434 3.60225 10.3321 3.58424 10.3231L3.52795 10.3029C3.48968 10.2894 3.45141 10.2759 3.41313 10.2623C3.33884 10.2331 3.26229 10.2083 3.18799 10.1881C3.1137 10.1633 3.04165 10.1498 2.97411 10.1205C2.90657 10.0935 2.84353 10.0687 2.78724 10.0395C2.67467 9.98768 2.58011 9.93815 2.51257 9.91563C2.44503 9.89087 2.40675 9.87736 2.40675 9.87736L2.41126 9.85935C2.41126 9.85935 2.45178 9.87286 2.51932 9.89537C2.58912 9.91789 2.68368 9.96517 2.79625 10.0147C2.85253 10.0417 2.91557 10.0642 2.98086 10.0867C3.04615 10.1115 3.12045 10.125 3.19475 10.1475C3.26904 10.1655 3.34559 10.1858 3.42439 10.2128C3.46266 10.2263 3.50319 10.2376 3.54372 10.2511L3.60225 10.2691C3.62251 10.2781 3.64053 10.2871 3.65854 10.2961C3.73508 10.3344 3.80713 10.3727 3.88143 10.4019C3.91745 10.4199 3.95572 10.4222 3.99174 10.4335C4.02777 10.438 4.06604 10.4335 4.09981 10.4335C4.17186 10.4245 4.2439 10.4109 4.3137 10.3952C4.3227 10.3952 4.33396 10.3929 4.34296 10.3907C4.42627 10.3029 4.51407 10.2151 4.60638 10.1318C4.68518 10.0597 4.77298 9.98993 4.87205 9.92014C4.98011 9.8526 5.08368 9.79856 5.194 9.75578C5.41689 9.67023 5.63752 9.63871 5.8469 9.62745C6.05854 9.6162 6.26116 9.62745 6.45929 9.64997C6.65741 9.67248 6.85103 9.70175 7.04015 9.73777L7.10994 9.75128H7.12795C7.12795 9.75128 7.13021 9.75353 7.13246 9.75353H7.15947C7.17298 9.75128 7.18874 9.75353 7.19325 9.74453C7.21801 9.76929 7.22251 9.74903 7.22702 9.73327L7.23377 9.70625V9.70175L7.24278 9.68374L7.25854 9.64772L7.29231 9.57792C7.38462 9.39331 7.48593 9.2267 7.59625 9.07136C7.81914 8.76291 8.06454 8.495 8.33246 8.25184C8.4 8.19106 8.46979 8.13252 8.53959 8.07623L8.64315 7.99518C8.68593 7.96366 8.73546 7.92764 8.77598 7.90287C8.91782 7.81507 9.0394 7.74978 9.15872 7.68449C9.12045 7.68224 9.07993 7.67773 9.04165 7.67773L8.79175 7.67323L8.54184 7.68224C8.45854 7.68449 8.37749 7.69575 8.29644 7.7025C8.21313 7.707 8.13884 7.72501 8.05779 7.73627C7.97899 7.74753 7.9137 7.77229 7.84165 7.7903L7.82589 7.81957C7.74484 7.84434 7.64803 7.90963 7.53771 8.0132C7.42739 8.11451 7.30807 8.2541 7.12345 8.37567C7.08293 8.40719 7.02439 8.4297 6.97486 8.45447C6.92308 8.48149 6.86904 8.49274 6.81501 8.50175C6.76098 8.51301 6.70694 8.52201 6.65966 8.51976C6.61238 8.51976 6.5606 8.52201 6.51557 8.51976C6.33096 8.504 6.1621 8.46122 5.99775 8.41395C5.98874 8.40944 5.97749 8.40719 5.96848 8.40269C5.93021 8.41845 5.86492 8.44321 5.77936 8.47473C5.63977 8.52876 5.44165 8.60982 5.21651 8.73364C5.16022 8.76516 5.10169 8.79893 5.0409 8.83496C5.01163 8.85297 4.98011 8.87098 4.94859 8.88899C4.91482 8.90926 4.8833 8.92952 4.84953 8.95203C4.78424 8.99481 4.70994 9.03758 4.63114 9.07811C4.55009 9.11864 4.45553 9.15916 4.34522 9.17267C4.29343 9.17717 4.24165 9.17267 4.18987 9.17267C4.14484 9.16591 4.09756 9.15691 4.05253 9.15015C3.96923 9.13214 3.88368 9.11413 3.79812 9.09387C3.63377 9.05334 3.46266 9.02633 3.29156 8.99706C3.2758 8.99481 3.25779 8.99256 3.24203 8.98806C3.22627 8.99256 3.21276 8.99706 3.197 9.00156C3.06417 9.03083 2.92683 9.09162 2.78949 9.14115C2.51932 9.26272 2.25366 9.40682 2.07355 9.5464C1.97899 9.60719 1.90919 9.67698 1.85741 9.71751C1.80563 9.76029 1.77636 9.78505 1.77636 9.78505L1.73358 9.72652C1.73358 9.72652 1.76285 9.6995 1.81463 9.65447C1.86642 9.60944 1.93621 9.5374 2.03077 9.47211C2.21313 9.32351 2.4788 9.16817 2.75347 9.03533C2.82552 9.00832 2.89756 8.9768 2.96961 8.94753C2.47204 8.87773 1.98574 8.83946 1.58499 8.85972C1.57373 8.86648 1.56023 8.87323 1.54672 8.88449C1.50844 8.91376 1.46116 8.95428 1.41388 8.99931C1.3666 9.04434 1.31707 9.09387 1.26754 9.14115C1.22026 9.19068 1.16623 9.23571 1.1257 9.28974C1.08518 9.34153 1.04465 9.39105 1.01313 9.43158C0.947842 9.51713 0.902814 9.57117 0.902814 9.57117L0.889306 9.55991C0.889306 9.55991 0.929831 9.50137 0.992871 9.41132C1.02439 9.36629 1.05816 9.31451 1.09869 9.25822C1.13696 9.20194 1.18649 9.1524 1.23152 9.09387C1.27655 9.03758 1.32383 8.98355 1.3666 8.93177C1.38687 8.90926 1.40488 8.88899 1.42289 8.86873C1.41614 8.86873 1.41163 8.86873 1.40488 8.86873C1.14822 8.89124 0.941088 8.94978 0.806004 9.01057C0.772233 9.02633 0.740713 9.03758 0.715948 9.05334C0.691182 9.0691 0.670919 9.08261 0.655159 9.09387C0.621388 9.11638 0.603377 9.12764 0.603377 9.12764L0.540338 9.03533C0.540338 9.03533 0.558349 9.01957 0.594372 8.99255C0.612383 8.97905 0.634897 8.96104 0.661914 8.94077C0.688931 8.92051 0.72045 8.907 0.756473 8.88674C0.884803 8.81695 1.06942 8.7494 1.29456 8.70438C1.29006 8.70438 1.28555 8.70212 1.2833 8.69987C1.2 8.67961 1.10994 8.65935 1.01764 8.64584C0.972608 8.63909 0.925328 8.62783 0.878049 8.61657C0.833021 8.60531 0.785741 8.59631 0.745216 8.5828C0.659662 8.55578 0.580863 8.52877 0.513321 8.50625C0.378236 8.46123 0.28818 8.43421 0.28818 8.43421L0.292683 8.41395C0.292683 8.41395 0.384991 8.43421 0.522326 8.47248C0.589869 8.49274 0.670919 8.51526 0.756473 8.53552C0.799249 8.54678 0.844278 8.55353 0.889306 8.56029C0.934334 8.56704 0.979362 8.57605 1.02664 8.5783C1.11895 8.5828 1.21351 8.59631 1.30582 8.60982C1.35084 8.61432 1.39137 8.63008 1.43189 8.63909C1.47017 8.64809 1.50619 8.6571 1.53996 8.66385C2.05103 8.59631 2.69268 8.60982 3.33208 8.67061C3.50769 8.68862 3.68555 8.70213 3.85666 8.73139C4.02552 8.75391 4.20338 8.79443 4.31145 8.76967C4.41726 8.7494 4.54334 8.65935 4.66717 8.56929C4.69869 8.54678 4.72795 8.52426 4.75947 8.504C4.79099 8.48149 4.82477 8.46122 4.85629 8.43871C4.91932 8.39593 4.98011 8.35541 5.03865 8.31713C5.13996 8.25184 5.23452 8.19781 5.32458 8.14828C5.24353 8.11451 5.16248 8.07848 5.08593 8.04246C4.78649 7.90062 4.50281 7.74077 4.21914 7.60119C3.93771 7.4616 3.65403 7.34227 3.3681 7.28599C3.29606 7.27248 3.22401 7.26122 3.15422 7.25897L3.04841 7.25447C3.01238 7.25447 2.97186 7.26122 2.93584 7.26348L2.74447 7.27923C2.6409 7.32201 2.53283 7.37605 2.42702 7.44359C2.25141 7.56291 2.08931 7.71151 1.97448 7.83083C1.91595 7.88937 1.87092 7.9434 1.83715 7.97942C1.80563 8.01544 1.78537 8.03571 1.78537 8.03571L1.73583 7.98393C1.73583 7.98393 1.75385 7.96141 1.78537 7.92314C1.81689 7.88711 1.85966 7.82858 1.9182 7.76779C2.03077 7.63946 2.19287 7.48186 2.37298 7.34678C2.39099 7.33552 2.40901 7.32426 2.42702 7.31301C1.83265 7.40982 1.23827 7.55391 0.659662 7.75653L0.580863 7.50212C0.833021 7.39631 1.08968 7.30625 1.34859 7.22295C1.29006 7.18242 1.22927 7.13515 1.16623 7.08787C1.1212 7.05184 1.07617 7.02032 1.02439 6.99105C0.974859 6.96179 0.923077 6.93027 0.871295 6.901C0.821764 6.86948 0.76773 6.84472 0.713696 6.8177C0.661914 6.79068 0.610131 6.76591 0.5606 6.74115C0.459287 6.69837 0.362477 6.6601 0.281426 6.62633C0.11257 6.57454 0 6.54077 0 6.54077V6.52051C0 6.52051 0.117073 6.54978 0.28818 6.59481C0.371482 6.62408 0.470544 6.6601 0.574109 6.69612C0.625891 6.71863 0.677674 6.74115 0.731707 6.76366C0.785741 6.78843 0.842026 6.80869 0.893809 6.83796C0.947842 6.86498 1.00188 6.89199 1.05366 6.91901C1.10769 6.94378 1.15947 6.97755 1.20675 7.00907C1.30131 7.07211 1.38912 7.12839 1.46567 7.16441C1.47467 7.16892 1.48143 7.17117 1.49043 7.17567C1.79887 7.08111 2.11182 7.00006 2.42702 6.93252L2.67242 6.8965C2.42477 6.76591 2.1546 6.58355 1.90019 6.39443L1.89343 6.40119C1.89343 6.40119 1.88668 6.39218 1.87542 6.37867C1.71107 6.2571 1.52645 6.16929 1.35084 6.09725C1.16848 6.02745 0.990619 5.97342 0.837524 5.93965C0.684428 5.90137 0.553846 5.87886 0.46379 5.8631C0.373734 5.84734 0.3197 5.83608 0.3197 5.83608L0.337711 5.68524C0.337711 5.68524 0.389493 5.69199 0.484052 5.7055C0.57636 5.71676 0.709193 5.73702 0.866792 5.76854C1.06492 5.80682 1.30582 5.86535 1.55347 5.96666C1.52871 5.93064 1.50169 5.89462 1.47692 5.8586C1.38011 5.71226 1.29006 5.55916 1.24278 5.42858C1.21351 5.36779 1.20225 5.30925 1.19099 5.27098C1.17974 5.23271 1.17298 5.21019 1.17298 5.21019L1.23827 5.18993C1.23827 5.18993 1.24503 5.21019 1.25629 5.24621C1.26979 5.27999 1.28105 5.33402 1.31257 5.3903C1.3621 5.50738 1.45666 5.64922 1.55572 5.7843C1.63902 5.89237 1.72458 5.99368 1.80113 6.08149C1.86642 6.11751 1.93396 6.15578 1.99925 6.19856C2.09831 6.2616 2.18161 6.31788 2.27167 6.37642C2.31445 6.40569 2.35947 6.43496 2.40225 6.46198C2.44728 6.48674 2.49231 6.50925 2.53508 6.53177C2.62289 6.5768 2.70619 6.62633 2.78949 6.66235C2.8728 6.69612 2.95159 6.72764 3.02364 6.75691C3.05966 6.77267 3.09568 6.78618 3.1272 6.79969C3.16098 6.8132 3.1925 6.8177 3.22401 6.8267C3.25103 6.83346 3.2758 6.84021 3.29831 6.84696C3.33884 6.84922 3.37711 6.85372 3.41764 6.85822C3.7576 6.9055 4.07505 7.02258 4.37448 7.15091C4.48931 7.19818 4.59963 7.24997 4.7122 7.30175C4.59062 7.16667 4.46454 7.00907 4.34071 6.85147C4.14259 6.5858 3.95572 6.30888 3.82514 6.095C3.7576 5.98918 3.70582 5.89687 3.66754 5.83608C3.62927 5.77304 3.60901 5.73702 3.60901 5.73702L3.66529 5.69424C3.66529 5.69424 3.6878 5.73027 3.72608 5.79105C3.76435 5.85184 3.81839 5.9419 3.88818 6.04321C4.02326 6.25259 4.21463 6.52051 4.41726 6.77717C4.62439 7.02708 4.83602 7.27473 5.01839 7.42332C5.02964 7.43458 5.04315 7.44359 5.05441 7.45484C5.12195 7.48411 5.18724 7.51338 5.25478 7.5404C5.39887 7.59894 5.53621 7.65072 5.68931 7.6935C5.8469 7.74528 5.98874 7.79256 6.13283 7.82858C6.27467 7.86235 6.41651 7.88711 6.54709 7.89162C6.58086 7.89162 6.60788 7.88712 6.63715 7.88712C6.66867 7.88712 6.69343 7.88036 6.71595 7.87361C6.74071 7.8691 6.76323 7.8646 6.78124 7.84884C6.8015 7.83533 6.81951 7.83308 6.84203 7.81057C6.92983 7.74978 7.03114 7.6282 7.15947 7.49537C7.28555 7.36479 7.44991 7.2162 7.6728 7.13514C7.66379 7.1374 7.65478 7.13515 7.64578 7.13064C7.74709 7.11714 7.85066 7.07436 7.94296 7.05409C8.03527 7.03383 8.13208 7.00682 8.22214 6.99331C8.31445 6.9798 8.40675 6.96179 8.49681 6.95278L8.76923 6.92577L9.0439 6.91226C9.13621 6.91001 9.22852 6.91226 9.32083 6.91226C9.41313 6.91226 9.50769 6.92126 9.60225 6.92577C9.61351 6.92577 9.62702 6.92802 9.63827 6.93027C9.62115 6.29775 9.68011 4.39475 9.80263 3.62296C9.80263 3.62296 11.2053 3.33252 11.2053 3.59818Z" fill="#1B1B1B"/>
</svg>
