<svg width="24" height="21" viewBox="0 0 24 21" fill="none" xmlns="http://www.w3.org/2000/svg">
<path d="M2.07541 10.3469L2.21002 10.2501C2.24998 10.2207 2.30467 10.1933 2.31939 10.1933H2.32991C2.35725 10.1975 2.34253 10.1828 2.36146 10.2144C2.36987 10.2291 2.38039 10.2543 2.40352 10.2817C2.43297 10.3132 2.47293 10.3237 2.51079 10.3279C2.50658 10.3279 2.50448 10.3279 2.50027 10.3321C2.63068 10.3406 2.75267 10.3258 2.86625 10.3174C2.97772 10.309 3.09129 10.3174 3.20487 10.3216C3.31424 10.33 3.41941 10.3511 3.52457 10.3826C2.99454 10.5551 2.4519 10.7149 1.93028 10.9526L2.0039 11.1167C2.45821 10.9463 2.93355 10.8327 3.4131 10.7086C3.42782 10.7234 3.44464 10.736 3.45516 10.7507L3.4825 10.797C3.49723 10.8222 3.49302 10.8222 3.50143 10.8348C3.51405 10.879 3.52036 10.9337 3.52036 10.9905C3.51826 11.0473 3.51195 11.1061 3.49933 11.1608L3.49092 11.2008L3.4762 11.2302C3.46568 11.2513 3.46147 11.2744 3.44254 11.2912C3.38575 11.3691 3.27849 11.428 3.1586 11.4932C3.03451 11.5541 2.80945 11.7224 2.74215 11.8318C2.78211 11.8696 2.85993 11.9033 2.93986 11.9369C2.97561 11.9538 3.01137 11.9706 3.03661 11.9895C3.01137 12.0021 2.97982 12.0169 2.94827 12.0274C2.78211 12.0884 2.59913 12.1262 2.41404 12.2125C2.24367 12.3008 2.08172 12.3955 1.93239 12.5259C1.86088 12.5911 1.78726 12.6668 1.7473 12.774C1.72627 12.8266 1.72837 12.8939 1.7452 12.9507C1.75782 12.976 1.77254 13.0033 1.78726 13.0264L1.84405 13.0853L1.92187 12.9991C1.78726 12.8876 1.89242 12.7446 2.02914 12.6373C2.16585 12.5322 2.32991 12.4459 2.49186 12.3744C2.6454 12.3134 2.83049 12.284 3.01768 12.2272C3.06605 12.2125 3.11443 12.1977 3.16701 12.1683C3.19436 12.1515 3.22591 12.1347 3.25956 12.0926C3.27638 12.0673 3.29111 12.0358 3.29531 11.9958C3.29531 11.958 3.2869 11.9243 3.27218 11.8991C3.25114 11.857 3.21118 11.8234 3.20277 11.815L3.18594 11.8002L3.1586 11.7813C3.11443 11.7813 3.13546 11.7708 3.14388 11.7645C3.15439 11.7582 3.16281 11.7498 3.17332 11.7455C3.19856 11.7308 3.19015 11.7371 3.26587 11.7014C3.38155 11.6467 3.52878 11.5899 3.64866 11.4574C3.68232 11.4279 3.70124 11.388 3.72438 11.348L3.75593 11.287L3.77276 11.2302C3.79589 11.1545 3.80851 11.0809 3.81693 11.0031C3.82324 10.9253 3.82113 10.8432 3.80431 10.757L3.78748 10.7002C3.78748 10.6981 3.78748 10.696 3.78748 10.6939C3.77065 10.6855 3.79169 10.6876 3.79379 10.6876H3.8022L3.88002 10.6708L4.07353 10.6182C4.13873 10.5929 4.20603 10.5656 4.27123 10.5383L4.26282 10.5214C4.54046 10.4121 4.81388 10.2943 5.0852 10.1828C5.09151 10.1891 5.09362 10.1912 5.10203 10.1996C5.13358 10.227 5.16723 10.2733 5.2093 10.33C5.28712 10.4457 5.35442 10.635 5.36073 10.839C5.36915 11.043 5.31867 11.2513 5.25347 11.3922C5.22192 11.4637 5.18826 11.5184 5.16092 11.5542C5.13358 11.5878 5.11675 11.6067 5.11675 11.6067L5.19457 11.693C5.19457 11.693 5.21771 11.6719 5.25557 11.6362C5.29132 11.5983 5.3397 11.5394 5.38597 11.4637C5.48062 11.3123 5.56896 11.0893 5.59209 10.8474C5.61733 10.6056 5.56896 10.3511 5.48272 10.1786C5.45748 10.1281 5.43225 10.0861 5.40911 10.0503C5.78349 9.89887 6.15577 9.76426 6.53016 9.66961C6.85827 9.596 7.17166 9.56655 7.48505 9.60651C7.47874 9.61282 7.47032 9.61492 7.46401 9.62123C7.43036 9.64016 7.41143 9.67382 7.38619 9.69906C7.35885 9.7264 7.33992 9.75795 7.32309 9.7916C7.30627 9.82946 7.28524 9.84839 7.27262 9.90097C7.25789 9.94935 7.27472 10.0061 7.29154 10.0377C7.32099 10.105 7.32309 10.1155 7.27893 10.1723C7.25158 10.2228 7.1969 10.2648 7.15483 10.309C7.06018 10.3889 6.96133 10.471 6.88561 10.5193C6.79938 10.5656 6.71945 10.5951 6.66266 10.6182C6.60587 10.6455 6.57433 10.6624 6.57433 10.6624L6.60377 10.7128C6.60377 10.7128 6.63322 10.7002 6.6858 10.6771C6.74048 10.6582 6.82462 10.6329 6.92137 10.5866C7.02233 10.5299 7.11066 10.4604 7.21583 10.3805C7.2642 10.3342 7.32309 10.2985 7.36516 10.2312L7.39881 10.1849C7.41353 10.1702 7.41564 10.1386 7.42195 10.1176C7.42826 10.065 7.40933 10.0209 7.39671 9.99141C7.38409 9.95986 7.38409 9.94724 7.3883 9.92831C7.3883 9.91359 7.41564 9.87994 7.42826 9.8568C7.44298 9.82946 7.45981 9.80632 7.48084 9.78739C7.50187 9.76846 7.51659 9.74322 7.54394 9.7306C7.61124 9.67802 7.68906 9.6591 7.76057 9.65699C7.85102 9.68013 7.94356 9.70326 8.034 9.73271C8.07186 9.75585 8.095 9.77477 8.095 9.77057L8.10551 9.75584C8.3558 9.83577 8.6082 9.93252 8.87111 10.0272C9.07723 10.1008 9.28545 10.1723 9.51471 10.227C9.55467 10.2375 9.59043 10.2438 9.62829 10.2522C9.40113 10.2901 9.16136 10.3153 8.91948 10.3406C8.55141 10.3805 8.17282 10.4121 7.7753 10.5067C7.67645 10.5299 7.57549 10.5593 7.47243 10.5993C7.42195 10.6182 7.36726 10.6413 7.31047 10.6708C7.25579 10.6981 7.22634 10.7234 7.18217 10.7486L6.70473 11.0557C6.08216 11.4658 5.47431 11.8844 4.84333 12.2566C4.27965 12.5911 3.69073 12.8729 3.07447 13.0959C3.00085 13.1043 2.91672 13.1148 2.82208 13.1484L2.91462 13.3756C3.44675 13.241 3.96836 13.058 4.47315 12.8393C4.46474 12.9234 4.46894 13.0012 4.47315 13.079C4.48787 13.2515 4.51522 13.4534 4.39112 13.5375H4.38692C4.36378 13.5586 4.30489 13.5565 4.2481 13.5523C4.19131 13.5502 4.12821 13.5417 4.0588 13.5586L4.00412 13.5817C3.98519 13.5985 3.97677 13.6069 3.96415 13.6217C3.94312 13.6469 3.92419 13.6764 3.91157 13.7037C3.88423 13.7605 3.8653 13.8152 3.84006 13.8614C3.82744 13.8825 3.81272 13.9056 3.79589 13.9203C3.78748 13.933 3.75803 13.9456 3.7349 13.954C3.68652 13.9729 3.62973 13.9855 3.57294 13.9961C3.51616 14.0066 3.45727 14.0171 3.39838 14.036C3.34159 14.0528 3.26587 14.0844 3.23852 14.1664L3.31635 14.1896C3.32686 14.1559 3.36893 14.1307 3.42151 14.1159C3.47409 14.1012 3.53088 14.0907 3.58767 14.0802C3.64446 14.0697 3.70545 14.057 3.76434 14.0339C3.79379 14.0192 3.82324 14.0129 3.85268 13.9834C3.88002 13.9603 3.89685 13.9309 3.91578 13.9035C3.94733 13.8467 3.96626 13.792 3.9894 13.7437C4.01464 13.6974 4.04198 13.6532 4.07773 13.6469C4.1219 13.6364 4.17869 13.6406 4.23548 13.6469C4.29227 13.6469 4.35957 13.6637 4.43739 13.6154C4.43739 13.6154 4.43739 13.6154 4.43529 13.6196C4.53204 13.5586 4.5678 13.4429 4.57411 13.3482C4.58252 13.2515 4.57411 13.159 4.5678 13.0706C4.55938 12.9739 4.55518 12.8666 4.58042 12.7867C4.72554 12.7215 4.87067 12.6542 5.01369 12.5848C5.45328 12.3681 5.87814 12.1326 6.3009 11.8949C6.30931 11.9033 6.32193 11.9096 6.32824 11.9222C6.37031 11.9706 6.40186 12.0779 6.4313 12.1746C6.46496 12.2882 6.50492 12.3913 6.54278 12.4943L6.59746 12.6436C6.60798 12.6731 6.61008 12.6836 6.61639 12.7046C6.6227 12.7236 6.63322 12.7404 6.62691 12.7614C6.61849 12.9297 6.45654 13.0832 6.30931 13.2494C6.2378 13.3356 6.15788 13.4387 6.13895 13.5712C6.12002 13.7037 6.1747 13.8278 6.2378 13.9224L6.33666 13.8593C6.28618 13.771 6.25673 13.6785 6.27566 13.5943C6.29249 13.5102 6.35348 13.4324 6.4271 13.3588C6.46285 13.323 6.50071 13.2873 6.54067 13.2494C6.5596 13.3104 6.60377 13.4071 6.71314 13.4492C6.82672 13.4934 6.95081 13.4808 7.0686 13.4934C7.18217 13.4997 7.28944 13.5817 7.27262 13.6911C7.25579 13.8068 7.17376 13.9245 7.14011 14.0571C7.12328 14.1223 7.12118 14.198 7.14642 14.2632C7.16535 14.3389 7.25368 14.3767 7.29996 14.3831C7.41774 14.4041 7.41353 14.4251 7.39881 14.4882C7.38409 14.5387 7.36726 14.5681 7.36936 14.5681L7.44298 14.6018C7.44298 14.6018 7.45981 14.5724 7.47874 14.5071C7.48505 14.4777 7.50397 14.4314 7.46822 14.3704C7.42405 14.3158 7.36516 14.3115 7.32099 14.2989C7.27261 14.2863 7.23896 14.2737 7.22845 14.2316C7.21162 14.1875 7.21162 14.1349 7.22845 14.0781C7.25579 13.9645 7.33992 13.8551 7.36726 13.7016C7.38409 13.6217 7.34202 13.5291 7.28523 13.4808C7.22634 13.424 7.14642 13.4029 7.08122 13.3945C6.94871 13.3798 6.83093 13.3861 6.75311 13.3525C6.67739 13.3209 6.65215 13.2536 6.63953 13.2031C6.63532 13.1821 6.63322 13.1674 6.63111 13.1547C6.64163 13.1442 6.65215 13.1337 6.66266 13.1232C6.74048 13.0349 6.812 12.9234 6.83303 12.7825C6.84775 12.7173 6.81831 12.6352 6.80779 12.5784L6.76152 12.4186C6.72997 12.3134 6.69842 12.2104 6.67739 12.1136C6.64794 12.0021 6.63532 11.8886 6.54699 11.754C6.67949 11.6803 6.812 11.6046 6.9445 11.531C6.96554 11.531 6.98657 11.531 7.0055 11.531V11.4953L7.4535 11.2534C7.49136 11.2344 7.53763 11.205 7.56707 11.1945C7.59442 11.184 7.62386 11.1735 7.66172 11.1629C7.73323 11.1419 7.81105 11.1251 7.89308 11.1104C8.13496 11.0725 8.39366 11.0578 8.66078 11.0494L8.66709 11.0809V11.1104C8.71546 11.3838 8.55351 11.653 8.42731 11.9559C8.37263 11.9811 8.30112 12.019 8.2233 12.0716C8.05293 12.1788 7.84681 12.3471 7.61124 12.448C7.49556 12.4985 7.36937 12.5217 7.2621 12.4943C7.24527 12.4943 7.24107 12.488 7.21583 12.4796L7.14011 12.4501C7.10646 12.4249 7.11276 12.4691 7.10645 12.4901L7.09594 12.5637C7.09594 12.589 7.08542 12.6121 7.07491 12.6331C7.06439 12.6542 7.06018 12.6773 7.04336 12.6941C7.01601 12.7278 6.99078 12.7614 6.95712 12.7783C6.92978 12.7972 6.90244 12.8161 6.8793 12.8329C6.88982 12.8561 6.91716 12.8876 6.91716 12.896C6.92347 12.936 6.93819 12.9949 6.9403 12.9928L7.01391 12.957C7.01391 12.957 7.01391 12.9486 6.99709 12.8771C6.98867 12.8519 6.98657 12.8624 7.0055 12.8498C7.04546 12.8287 7.07701 12.7888 7.11276 12.7467C7.1338 12.7278 7.14011 12.6962 7.15273 12.671C7.16745 12.6436 7.17797 12.6163 7.18007 12.5848C7.18217 12.5742 7.18007 12.5658 7.18638 12.5679L7.19479 12.5721C7.19479 12.5721 7.22214 12.5848 7.23686 12.5848C7.37147 12.6205 7.5187 12.589 7.64489 12.5385C7.89939 12.4312 8.10972 12.263 8.27588 12.162C8.30953 12.141 8.33898 12.1241 8.36632 12.1073C8.36422 12.1157 8.36001 12.1241 8.35791 12.1326C8.35791 12.1304 8.36211 12.1262 8.36422 12.1241C8.29691 12.2756 8.33057 12.3976 8.29481 12.467L8.2885 12.4712C8.26326 12.5259 8.2254 12.5805 8.16861 12.6436C8.11393 12.6983 8.05924 12.7972 8.02979 12.8687C7.95408 13.0264 7.95828 13.222 8.00035 13.3798L8.11393 13.3546C8.08659 13.201 8.09289 13.0601 8.1644 12.9297C8.20437 12.8561 8.22961 12.8119 8.2906 12.7551C8.34529 12.7025 8.41049 12.631 8.45676 12.5406C8.45676 12.5427 8.45676 12.5469 8.45676 12.549C8.52196 12.4018 8.50514 12.2714 8.5472 12.2167V12.202C8.58927 12.0926 8.64606 11.9853 8.70285 11.8781C8.72178 11.9117 8.74701 11.9433 8.78067 11.9685C8.96996 12.1073 9.23498 12.0968 9.35907 12.3197C9.43479 12.4207 9.5105 12.5238 9.58202 12.6184C9.65563 12.7152 9.71873 12.8119 9.79655 12.8792C9.86806 12.9444 9.88699 12.9865 9.88489 13.037C9.88489 13.0832 9.87858 13.1127 9.87858 13.1127L9.98585 13.1337C9.98585 13.1337 9.99426 13.1001 9.99636 13.0349C9.99636 13.0033 9.99216 12.9591 9.97112 12.9129C9.94799 12.8666 9.91223 12.8308 9.87647 12.7972C9.80917 12.7362 9.75028 12.6415 9.68087 12.5469C9.61146 12.448 9.53574 12.3429 9.46003 12.2398L9.40324 12.1599C9.378 12.1346 9.35276 12.1052 9.32542 12.0863C9.26863 12.0421 9.20763 12.0127 9.14874 11.9874C9.03516 11.939 8.9279 11.9075 8.869 11.857C8.80591 11.8044 8.79749 11.7392 8.7996 11.6909C8.88793 11.5184 8.96155 11.3018 8.94262 11.0893V11.0388C8.94262 11.0388 8.95103 11.0388 8.95524 11.0388C9.32542 11.0262 9.70401 11.0178 10.1099 10.9526C10.0784 11.0178 10.0574 11.0935 10.0574 11.1798C10.0658 11.2323 10.0721 11.2891 10.1057 11.348C10.1394 11.4006 10.1814 11.4406 10.2256 11.4742C10.3119 11.5415 10.4086 11.5941 10.4885 11.6551C10.64 11.7729 10.7073 12.0085 10.7767 12.2314C10.8461 12.4586 10.9702 12.6752 10.9576 12.8792C10.9534 12.9802 10.9176 13.079 10.8776 13.1695C10.8377 13.262 10.7956 13.3419 10.7472 13.4177C10.6547 13.5691 10.5769 13.6974 10.5369 13.7962C10.5159 13.8467 10.5033 13.8888 10.5054 13.9266C10.5096 13.9729 10.5495 13.9876 10.5453 13.9855L10.5685 13.9309C10.5685 13.9309 10.5685 13.933 10.5663 13.9224C10.5663 13.9035 10.5769 13.8678 10.5979 13.8215C10.6379 13.731 10.7178 13.6069 10.8145 13.4576C10.865 13.3861 10.9155 13.2978 10.9597 13.2052C11.0038 13.1106 11.0459 13.0054 11.0564 12.8855C11.0753 12.6373 10.9513 12.4186 10.8924 12.1978C10.8272 11.979 10.7767 11.7203 10.579 11.5478C10.3939 11.4027 10.2004 11.3123 10.2172 11.1735C10.2214 11.0325 10.3098 10.9232 10.3771 10.8958C10.3792 10.8958 10.3813 10.8958 10.3834 10.8937C10.4023 10.8895 10.4212 10.8832 10.4423 10.879C10.4696 10.8769 10.4864 10.879 10.4864 10.8769V10.8643C10.5748 10.8369 10.6652 10.8054 10.7577 10.7612C10.8692 10.7065 10.9828 10.6329 11.0901 10.5362C11.1258 10.5025 11.1553 10.4625 11.1868 10.4226C11.3004 10.4184 11.4077 10.4058 11.517 10.3973L11.6012 10.391C11.6327 10.3868 11.6432 10.391 11.6979 10.3784L11.8388 10.349C11.862 10.3448 11.8851 10.3406 11.9082 10.3342L11.9671 10.2943L12.026 10.2543L12.0534 10.2354L12.0639 10.2291L12.106 10.2038C12.1375 10.187 12.1754 10.1702 12.2132 10.1534C12.3773 10.0861 12.5729 10.0314 12.7727 9.97669C12.8274 9.96197 12.8821 9.94724 12.9367 9.93462C13.0272 10.0377 13.1366 10.2038 13.2312 10.4541C13.3322 10.7065 13.3995 11.0473 13.5362 11.4469C13.5593 11.51 13.5846 11.5731 13.6119 11.6362L13.6161 11.6677C13.6161 11.6677 13.6182 11.6824 13.6161 11.6909C13.614 11.6972 13.6098 11.7056 13.6035 11.7098C13.5993 11.7098 13.5951 11.7098 13.5909 11.7098C13.5867 11.7098 13.5951 11.7098 13.5909 11.7098C13.5804 11.7119 13.5677 11.7161 13.5572 11.7182C13.5383 11.7266 13.5194 11.7371 13.5025 11.7498C13.5046 11.7498 13.5109 11.7519 13.5194 11.7561C13.4584 11.7813 13.3953 11.8129 13.3322 11.8549C13.2733 11.8255 13.2144 11.8023 13.1492 11.7918C13.0398 11.7792 12.941 11.7771 12.8316 11.8128C12.8042 11.8192 12.7769 11.8297 12.7517 11.8507C12.7243 11.8675 12.7012 11.8886 12.6844 11.9138C12.6465 11.9622 12.6297 12.0064 12.6065 12.0421C12.5834 12.0779 12.5624 12.1136 12.5308 12.1389C12.514 12.1515 12.5014 12.1704 12.4909 12.1725C12.4761 12.1767 12.4593 12.1893 12.4425 12.1914C12.2995 12.2209 12.1123 12.0695 11.9019 12.0926C11.7989 12.0989 11.7063 12.1389 11.6201 12.1641C11.5339 12.1893 11.4476 12.1893 11.3677 12.1515L11.3109 12.1262L11.3214 12.1809C11.3256 12.1977 11.3298 12.2104 11.3362 12.2209L11.3298 12.2251C11.3298 12.2251 11.3383 12.2251 11.3425 12.2272C11.3614 12.2482 11.3845 12.2587 11.4035 12.2714L11.4182 12.2419C11.4918 12.2545 11.5696 12.2566 11.6369 12.2419C11.7337 12.2209 11.8199 12.1893 11.9061 12.1872C11.9924 12.1872 12.0744 12.2104 12.1606 12.2461C12.2448 12.2798 12.3436 12.3282 12.4635 12.3113C12.493 12.3071 12.5182 12.2945 12.5476 12.284C12.5813 12.2714 12.596 12.2482 12.6192 12.2335C12.6612 12.202 12.6928 12.1536 12.7222 12.1136C12.779 12.019 12.8063 11.9685 12.8779 11.9538C12.9473 11.9348 13.044 11.9369 13.1197 11.9538C13.145 11.9601 13.1681 11.9706 13.1933 11.9811C13.1765 12.0021 13.1576 12.0295 13.1387 12.0526C13.1092 12.0905 13.0987 12.1347 13.0777 12.1746C13.0608 12.2167 13.0482 12.2587 13.0314 12.3008C13.023 12.3134 13.0335 12.3176 13.044 12.324L13.0735 12.3387L13.1302 12.3702C13.166 12.3913 13.2081 12.4123 13.2501 12.4312C13.2775 12.4438 13.2859 12.4501 13.2943 12.4565C13.2417 12.4985 13.145 12.5469 13.0587 12.5911C12.962 12.6394 12.8442 12.7046 12.7601 12.7825C12.6696 12.854 12.5855 12.9318 12.5077 13.0117C12.4235 13.0895 12.352 13.1779 12.2763 13.262C12.2279 13.3167 12.1796 13.3861 12.1312 13.4471L12.0618 13.5396C12.0492 13.5649 12.0702 13.5712 12.0744 13.5859C12.1333 13.5964 12.2216 13.6048 12.2805 13.6048C12.2763 13.5985 12.2868 13.6091 12.2742 13.6385C12.2574 13.6911 12.2216 13.7563 12.1943 13.8257C12.1669 13.8867 12.1333 13.9918 12.1733 14.0823C12.1859 14.1012 12.2006 14.1201 12.2132 14.1391C12.23 14.1538 12.2511 14.1664 12.27 14.179C12.3079 14.2064 12.3478 14.2085 12.3857 14.2232L12.4151 14.1096C12.3562 14.0865 12.31 14.0676 12.2952 14.0255C12.2826 13.9834 12.2973 13.9456 12.3289 13.8825C12.3583 13.8236 12.3962 13.7689 12.4278 13.6869C12.4425 13.6532 12.4635 13.5796 12.4193 13.5039C12.3941 13.4786 12.3836 13.4765 12.3689 13.4744C12.331 13.4829 12.3058 13.4871 12.3079 13.4786L12.3394 13.4429C12.3604 13.4177 12.3752 13.3987 12.4004 13.3735C12.4782 13.2978 12.5497 13.2157 12.6339 13.1463C12.6675 13.1148 12.7054 13.0874 12.7411 13.058C12.7411 13.058 12.7453 13.0601 12.7475 13.0622L12.7769 13.0811L12.8358 13.1169L12.901 13.1568C12.9389 13.1821 12.9662 13.2178 13.0019 13.2494C13.1239 13.3882 13.1597 13.5838 13.1744 13.7268C13.187 13.872 13.1849 13.9708 13.1849 13.9708H13.267C13.267 13.9708 13.2712 13.872 13.2607 13.7205C13.248 13.5733 13.2165 13.3567 13.0756 13.1905C13.0377 13.1547 13.002 13.1127 12.962 13.0811L12.9052 13.0433C12.9052 13.0433 12.901 13.0433 12.9031 13.0391C12.9073 13.0349 12.901 13.0433 12.9136 13.0285C12.9283 13.0117 12.9452 12.9949 12.9599 12.9802C12.9893 12.9486 13.0146 12.9213 13.0398 12.8939C13.0882 12.8414 13.1345 12.814 13.166 12.7972C13.1997 12.7846 13.2186 12.7783 13.2186 12.7783L13.2144 12.7635C13.2964 12.7278 13.3826 12.6941 13.4815 12.6121C13.4983 12.5932 13.513 12.5806 13.5278 12.5532C13.5404 12.5217 13.5593 12.4943 13.553 12.4522C13.553 12.4123 13.5404 12.3744 13.5257 12.3555C13.5109 12.3324 13.492 12.305 13.4794 12.2966C13.4542 12.2714 13.41 12.2398 13.3995 12.2356C13.3911 12.2293 13.3826 12.2251 13.3763 12.2209C13.3721 12.2167 13.3616 12.2146 13.3595 12.2104L13.37 12.1893C13.37 12.1893 13.3784 12.1767 13.3826 12.1725C13.389 12.1662 13.3868 12.1662 13.4079 12.1494C13.4668 12.0968 13.5551 12.0505 13.6519 11.9937C13.6519 11.9979 13.6519 12 13.6519 11.9937C13.6561 11.9937 13.6582 11.9895 13.6624 11.9874C13.6624 11.9874 13.6708 11.9874 13.675 11.9874C13.7065 11.9874 13.7318 11.979 13.7591 11.9685C13.7696 11.9643 13.776 11.9538 13.7865 11.9475C13.8159 11.9895 13.8454 12.0337 13.8811 12.0758C13.9022 12.1094 13.9358 12.1304 13.9653 12.1578L14.041 12.2167C14.0914 12.2545 14.1482 12.2861 14.2008 12.3176C14.3123 12.3744 14.4259 12.4207 14.5373 12.4501C14.7582 12.5111 14.9622 12.5385 15.141 12.5827C15.2504 12.6079 15.3492 12.6436 15.4439 12.6857C15.4649 12.7173 15.4859 12.7488 15.507 12.7783C15.5827 12.8897 15.6878 12.9844 15.793 13.0832C15.8435 13.1316 15.8876 13.1716 15.8961 13.2178C15.9066 13.2389 15.9045 13.2725 15.9087 13.302L15.9003 13.4071C15.8834 13.5649 15.8561 13.7184 15.8603 13.8699C15.8582 13.9393 15.8603 14.0276 15.854 14.0718C15.8477 14.1286 15.8267 14.1896 15.8119 14.2442C15.7783 14.3557 15.753 14.4546 15.753 14.5324C15.7488 14.6081 15.7783 14.6586 15.7741 14.6565L15.854 14.6228C15.854 14.6228 15.8393 14.5976 15.8477 14.5366C15.8519 14.4777 15.8792 14.3894 15.9213 14.2821C15.9402 14.2253 15.9655 14.1685 15.9802 14.0949C15.9949 14.0087 15.9949 13.9561 16.0033 13.8804C16.0096 13.7395 16.0475 13.5901 16.0727 13.4408L16.0938 13.3146C16.0938 13.302 16.0938 13.2915 16.0938 13.2788C16.1464 13.3546 16.1947 13.4303 16.241 13.5081C16.3987 13.7668 16.5334 13.9918 16.6469 14.1391C16.7605 14.2842 16.8278 14.3662 16.8278 14.3662L16.9645 14.2527C16.9645 14.2527 16.9119 14.1685 16.8194 14.0234C16.729 13.8762 16.6238 13.6511 16.4934 13.3735C16.4282 13.2347 16.3483 13.0811 16.2557 12.9213C16.1674 12.7762 16.0496 12.6331 15.9045 12.5069C15.9465 12.4901 15.9844 12.4733 16.0244 12.4607C16.1527 12.4081 16.2831 12.3555 16.3651 12.3639C16.4072 12.3618 16.4261 12.3786 16.4682 12.4123C16.506 12.448 16.5481 12.509 16.6007 12.57C16.6532 12.6331 16.7227 12.6941 16.8215 12.7383C16.9119 12.7551 16.9898 12.7783 17.0655 12.7783C17.1959 12.7867 17.3032 12.7846 17.4104 12.793V12.8014C17.4294 12.8077 17.4546 12.8098 17.4651 12.8224C17.4819 12.8308 17.5051 12.8582 17.5366 12.8813L17.5598 12.9002C17.5598 12.9002 17.5619 12.9024 17.564 12.9024L17.5682 12.9087L17.5913 12.936L17.6439 13.018C17.6796 13.079 17.7469 13.1463 17.8248 13.1758C17.9047 13.2073 17.9825 13.201 18.0372 13.2073C18.0835 13.2115 18.1403 13.2431 18.1928 13.2725C18.2412 13.3062 18.2854 13.344 18.319 13.3966C18.3863 13.4997 18.4515 13.6322 18.5567 13.7247C18.5567 13.7247 18.5567 13.7205 18.5567 13.7184C18.6051 13.7794 18.6598 13.8068 18.7145 13.8383C18.767 13.8657 18.828 13.9035 18.8659 13.9203L18.9122 13.8972C18.8533 13.8278 18.8049 13.8152 18.7523 13.7752C18.7039 13.7416 18.6493 13.7058 18.6219 13.6679H18.6135C18.5231 13.5754 18.4768 13.4618 18.4053 13.3377C18.3716 13.2767 18.3169 13.2199 18.258 13.1758C18.1992 13.1379 18.1403 13.0937 18.054 13.0769C17.9783 13.0664 17.9194 13.0643 17.8752 13.0433C17.8311 13.0201 17.7995 12.9886 17.7722 12.9339L17.7238 12.8456L17.7049 12.8182C17.7785 12.8266 17.8521 12.8329 17.9215 12.8329L18.134 12.8414C18.176 12.8456 18.1844 12.8414 18.1992 12.8519C18.216 12.8624 18.2475 12.8897 18.2686 12.9087L18.2749 12.9192C18.3043 12.936 18.3317 12.9718 18.3758 13.0222C18.42 13.0727 18.4915 13.1211 18.5651 13.1337C18.725 13.1568 18.8407 13.0685 18.9269 13.0412C19.0152 13.0075 19.0994 13.0328 19.1856 13.0811C19.2592 13.1337 19.3034 13.2242 19.337 13.3293L19.4485 13.2957C19.4191 13.1863 19.3728 13.058 19.2634 12.9718C19.2045 12.9423 19.154 12.9002 19.0825 12.8876C19.0173 12.8687 18.9416 12.8771 18.8785 12.8939C18.7544 12.936 18.664 12.9823 18.5967 12.9633C18.5609 12.9528 18.5378 12.936 18.5104 12.9002C18.4831 12.8666 18.4473 12.8035 18.3779 12.7572C18.3821 12.7593 18.3906 12.7572 18.4011 12.7509C18.3506 12.7446 18.3296 12.7215 18.2875 12.692C18.2454 12.6563 18.1781 12.6563 18.1487 12.6521L17.932 12.631C17.7869 12.6226 17.6544 12.5932 17.5198 12.5721C17.3663 12.5469 17.2085 12.5448 17.0823 12.5301C17.015 12.5301 16.9561 12.5027 16.9056 12.4943C16.8762 12.4754 16.8341 12.4459 16.7984 12.3955C16.7584 12.345 16.7248 12.2861 16.6638 12.2167C16.607 12.1515 16.5018 12.0758 16.3966 12.0716C16.1905 12.0526 16.0475 12.122 15.9108 12.1662C15.7762 12.2125 15.65 12.2587 15.5553 12.2545L15.5196 12.2503C15.4375 12.2104 15.3555 12.1746 15.2714 12.1473C15.0674 12.0758 14.8676 12.0253 14.7035 11.958C14.6194 11.9243 14.5479 11.8865 14.4827 11.8423C14.4532 11.8171 14.4217 11.796 14.3943 11.7708L14.3565 11.7308C14.3565 11.7308 14.3396 11.7161 14.3375 11.7056C14.2639 11.5941 14.2029 11.4322 14.1651 11.2702C14.1524 11.2155 14.1419 11.1587 14.1314 11.1019C14.1924 11.0767 14.2597 11.0557 14.3312 11.0494C14.388 11.0494 14.4595 11.0641 14.5058 11.1062C14.5542 11.1503 14.5857 11.2345 14.6383 11.3249C14.6635 11.3691 14.6972 11.4195 14.7456 11.4553C14.8024 11.5016 14.8528 11.5142 14.9138 11.5268C15.0379 11.5478 15.1452 11.5016 15.2377 11.4805C15.4207 11.4258 15.6205 11.4805 15.8035 11.5289C15.9865 11.5815 16.159 11.6383 16.3125 11.6698C16.4661 11.7035 16.6007 11.7077 16.6953 11.6888C16.79 11.6719 16.8362 11.6404 16.8362 11.6446L16.811 11.592C16.811 11.592 16.7668 11.6172 16.6827 11.6278C16.5986 11.6404 16.4745 11.6341 16.3293 11.5962C16.1821 11.5605 16.016 11.4974 15.8309 11.4385C15.6479 11.3838 15.4333 11.3144 15.2125 11.3691C15.1073 11.3922 15.0148 11.4237 14.9349 11.4048C14.8991 11.3985 14.8486 11.3775 14.8318 11.3585C14.8024 11.3333 14.7792 11.2997 14.7603 11.2618C14.7182 11.1861 14.6888 11.0872 14.611 11.0052C14.5268 10.9232 14.4238 10.9 14.3312 10.8958C14.2408 10.9 14.1651 10.919 14.1041 10.94C14.0683 10.7318 14.0347 10.5193 13.9863 10.3195C14.001 10.3153 14.0136 10.3111 14.0305 10.3069C14.0978 10.2838 14.163 10.2438 14.2429 10.2059C14.5563 10.0545 14.8991 9.75584 15.2588 9.52028C15.305 9.48662 15.3492 9.4677 15.3976 9.44246C15.4439 9.42142 15.4922 9.38567 15.5364 9.37515C15.5806 9.36253 15.6268 9.3457 15.6731 9.32888C15.7194 9.30995 15.772 9.32047 15.8224 9.30995C16.0349 9.29733 16.2494 9.35622 16.4703 9.50135C16.6932 9.63806 16.9162 9.8547 17.1707 10.0755C17.2443 10.1407 17.3284 10.2059 17.4125 10.2711C17.3978 10.2964 17.3831 10.3216 17.3705 10.349C17.3305 10.431 17.2947 10.5172 17.2737 10.6203C17.2464 10.736 17.28 10.9337 17.423 10.9821C17.5009 11.0178 17.5408 11.0346 17.5892 11.0388C17.6355 11.0452 17.6838 11.0557 17.7259 11.0578C17.8164 11.0662 17.9005 11.0704 17.9846 11.0746C18.0183 11.0746 18.0519 11.0788 18.0835 11.0809C18.0835 11.1146 18.0835 11.1503 18.0856 11.1903C18.0919 11.3354 18.1045 11.5268 18.1318 11.7182C18.1571 11.9096 18.1971 12.0989 18.2559 12.2377C18.2833 12.3071 18.3211 12.3618 18.3527 12.3955C18.3884 12.427 18.4179 12.4375 18.4158 12.4396L18.4389 12.3849C18.4389 12.3849 18.4221 12.3744 18.399 12.3513C18.3758 12.3239 18.3464 12.2777 18.3275 12.2104C18.2833 12.0821 18.2602 11.8949 18.2496 11.7077C18.2391 11.5205 18.2391 11.3312 18.2454 11.1924C18.2454 11.1587 18.2475 11.1293 18.2496 11.1019C18.3148 11.1125 18.3737 11.1272 18.4179 11.1503C18.4158 11.1503 18.4179 11.1398 18.4179 11.1314C18.5525 11.2618 18.7481 11.2681 18.8659 11.2786C18.9311 11.2828 18.9837 11.2976 19.0194 11.3102C19.0384 11.3186 19.0678 11.327 19.0741 11.3522C19.0699 11.3775 19.051 11.388 19.0278 11.4132C18.9753 11.4637 18.908 11.531 18.8701 11.6446C18.8533 11.6951 18.8386 11.7477 18.847 11.796C18.8491 11.8444 18.8848 11.8907 18.9248 11.9117C18.9647 11.9348 19.0215 11.9454 19.0741 11.9538C19.1204 11.9622 19.133 11.9685 19.1582 11.9811C19.2066 12.0064 19.2445 12.0358 19.2655 12.08C19.2865 12.1262 19.2992 12.1893 19.316 12.263C19.3307 12.3345 19.3644 12.4228 19.4275 12.488C19.4906 12.5532 19.5768 12.589 19.6525 12.6037C19.8061 12.6331 19.9491 12.6205 20.0837 12.6247C20.2204 12.6268 20.3508 12.6436 20.4581 12.7046L20.4476 12.6962C20.4707 12.7173 20.4791 12.7215 20.4938 12.732L20.5086 12.7425C20.5086 12.7425 20.5212 12.7299 20.5338 12.7173L20.5212 12.7572C20.5212 12.7572 20.5296 12.7614 20.5464 12.7635C20.5443 12.7635 20.578 12.7635 20.5885 12.753C20.6053 12.7488 20.6242 12.6941 20.6116 12.6794C20.6116 12.6752 20.6074 12.671 20.6053 12.6689C20.5927 12.6521 20.5969 12.6563 20.5906 12.6521L20.5674 12.631L20.5485 12.6142L20.5401 12.6079H20.538V12.6037L20.5149 12.6268L20.5212 12.5995C20.2435 12.4333 19.9259 12.5069 19.6862 12.4459C19.5621 12.4144 19.5074 12.3513 19.4864 12.2209C19.4737 12.1578 19.4674 12.0821 19.4317 11.9979C19.3938 11.9117 19.3202 11.8465 19.2466 11.8044C19.2108 11.7834 19.1561 11.7645 19.133 11.7603C19.1162 11.7561 19.1036 11.754 19.0909 11.7498C19.0573 11.7413 19.0741 11.6972 19.0846 11.6782C19.0909 11.6593 19.1225 11.6215 19.173 11.5773C19.255 11.5079 19.3496 11.4259 19.3454 11.3249C19.3391 11.2197 19.2487 11.1524 19.1414 11.0998C19.0489 11.0578 18.9647 11.0346 18.8911 11.0262C18.7334 11.0073 18.6366 10.9947 18.5588 10.9316H18.5483C18.3464 10.8117 18.1697 10.8096 17.9993 10.7865C17.9152 10.778 17.8332 10.7675 17.7554 10.757C17.7133 10.7528 17.6817 10.7423 17.6439 10.736C17.6081 10.7318 17.5703 10.7107 17.5766 10.7149C17.5682 10.7191 17.5661 10.7149 17.5661 10.7107C17.5661 10.7023 17.5661 10.7149 17.5724 10.6834C17.585 10.6287 17.6144 10.5635 17.6502 10.5025C17.6586 10.4857 17.6712 10.4689 17.6817 10.4541C17.81 10.5277 17.9426 10.5951 18.0856 10.6413C18.4221 10.7675 18.8112 10.7991 19.1519 10.7738C19.4969 10.7465 19.8145 10.6771 20.1152 10.6266C20.1804 10.6161 20.2456 10.6056 20.3087 10.5951C20.3235 10.5951 20.3361 10.5972 20.3508 10.5993C20.3845 10.6014 20.4118 10.6077 20.4391 10.6119C20.4665 10.6182 20.4602 10.6119 20.4707 10.6182C20.4833 10.6203 20.5022 10.6392 20.4938 10.6582L20.4896 10.6708C20.4896 10.6708 20.4896 10.6708 20.4896 10.675C20.4854 10.6792 20.4812 10.6855 20.477 10.6918L20.4518 10.7297C20.4349 10.7549 20.4286 10.7843 20.4181 10.8117V10.9C20.3992 10.9358 20.4055 10.9694 20.4181 10.9989C20.437 11.0262 20.4497 11.0599 20.4749 11.0809C20.5212 11.1293 20.5906 11.1608 20.6263 11.1714C20.7126 11.2008 20.7757 11.2113 20.8219 11.2408C20.925 11.2954 20.9776 11.4048 21.0386 11.5562C21.0722 11.632 21.1122 11.7119 21.1753 11.7771C21.2342 11.8465 21.3099 11.8928 21.3751 11.9348C21.4403 11.9748 21.4992 12.0127 21.5307 12.0568C21.5665 12.0989 21.5539 12.1599 21.5434 12.2251L21.6548 12.2651C21.6801 12.1851 21.7095 12.08 21.6506 11.9853C21.5981 11.8991 21.5265 11.8486 21.4634 11.8023C21.373 11.7392 21.3141 11.6719 21.272 11.5899C21.352 11.6193 21.4571 11.6425 21.577 11.6299C21.6612 11.6236 21.7537 11.5857 21.821 11.5584C21.8547 11.5478 21.8841 11.5415 21.9135 11.5499C21.9388 11.5499 21.9851 11.5794 22.004 11.5899C22.0229 11.6088 22.0461 11.6425 22.0608 11.6824C22.0776 11.7245 22.0965 11.7792 22.1344 11.8276C22.2122 11.9327 22.3573 11.9412 22.4478 11.9454C22.4962 11.9496 22.5487 11.9496 22.5887 11.958L22.6518 11.9706L22.7191 11.9979C22.8074 12.0358 22.8958 12.0716 22.9925 12.0989C23.0388 12.1115 23.0851 12.1304 23.1292 12.1389C23.1734 12.1452 23.2176 12.1515 23.2596 12.1578C23.3438 12.1704 23.4237 12.1809 23.4994 12.1914C23.7981 12.2188 24 12.2293 24 12.2293V12.1704C24 12.1704 23.8044 12.1536 23.512 12.1157C23.4384 12.1031 23.3606 12.0884 23.2765 12.0737C23.2344 12.0674 23.1923 12.0589 23.1482 12.0505C23.104 12.0421 23.0661 12.0232 23.022 12.0085C22.9399 11.9832 22.8516 11.9433 22.7612 11.9012L22.6939 11.8696L22.6139 11.8486C22.5593 11.8339 22.5109 11.836 22.4604 11.8276C22.3594 11.8171 22.2837 11.8107 22.2396 11.7476C22.1975 11.6951 22.1912 11.5794 22.1007 11.4826C22.0418 11.4427 22.0082 11.4216 21.9451 11.4048C21.8883 11.3901 21.8273 11.4006 21.7789 11.4132C21.6885 11.4448 21.6275 11.4658 21.5623 11.47C21.434 11.4763 21.333 11.4364 21.2636 11.3964C21.23 11.3775 21.2026 11.3606 21.1858 11.348C21.1753 11.3144 21.1627 11.2828 21.1437 11.2471C21.1059 11.1629 21.0344 11.0851 20.9566 11.0283C20.8745 10.9694 20.7799 10.9442 20.7252 10.9169C20.6894 10.9021 20.6915 10.8979 20.6873 10.8916C20.681 10.8853 20.6873 10.8769 20.6852 10.8727C20.6726 10.8664 20.6768 10.8601 20.6831 10.8538H20.6873L20.6894 10.8474L20.7063 10.8285C20.7315 10.8033 20.7504 10.7759 20.7652 10.7486C20.8051 10.6876 20.8051 10.6161 20.7841 10.5467C20.8451 10.5467 20.904 10.5467 20.9608 10.5467C21.0218 10.5488 21.0996 10.5614 21.1437 10.5635C21.1774 10.5719 21.2489 10.5993 21.3057 10.6245C21.4256 10.675 21.5413 10.7297 21.6527 10.7801C22.0986 10.9884 22.473 11.1671 22.7443 11.2765C22.8811 11.3333 22.9883 11.3712 23.0767 11.3922C23.1208 11.4006 23.1608 11.4111 23.2134 11.3964C23.2996 11.3649 23.2912 11.2786 23.2933 11.2891H23.1713C23.1713 11.2891 23.1734 11.2891 23.1755 11.2891C23.1755 11.2891 23.1776 11.2891 23.1797 11.2891C23.1734 11.2849 23.1713 11.2786 23.1713 11.2702C23.1671 11.2618 23.1587 11.2176 23.1629 11.2218C23.1671 11.2218 23.1608 11.2218 23.1566 11.2218C23.1503 11.2218 23.1355 11.2176 23.1208 11.2134C23.0577 11.1945 22.9547 11.1503 22.8285 11.0872C22.574 10.9631 22.2143 10.7633 21.7789 10.5235C21.6696 10.4647 21.556 10.4037 21.434 10.3406C21.3688 10.309 21.3183 10.2796 21.2216 10.248C21.129 10.2333 21.0701 10.2186 20.9902 10.2102C20.6894 10.1744 20.3718 10.1912 20.0606 10.2249C19.7493 10.2585 19.4359 10.3027 19.133 10.3069C18.828 10.3069 18.5462 10.2669 18.2707 10.1428C18.0057 10.0377 17.7869 9.8568 17.564 9.63596C17.341 9.41932 17.1202 9.16903 16.832 8.9587C16.6932 8.85143 16.5249 8.7652 16.3546 8.69579C16.2662 8.67055 16.1779 8.639 16.0875 8.62428C15.997 8.61376 15.9087 8.59273 15.8182 8.59694C15.7278 8.60114 15.6374 8.59063 15.5511 8.61166C15.4649 8.63059 15.3787 8.65162 15.2966 8.67265C15.2104 8.69158 15.1494 8.72944 15.0758 8.75889C15.0064 8.79044 14.9328 8.81778 14.8781 8.85354C14.7582 8.92084 14.6425 8.98605 14.5479 9.04914C14.5121 9.07228 14.4806 9.09331 14.4469 9.11435C14.4133 8.77992 14.3628 8.35296 14.2934 7.8671C14.205 7.29711 14.1041 6.63458 13.9947 5.92156C13.9842 5.84164 13.9716 5.75961 13.961 5.67969C13.9947 5.92152 12.2952 6.06459 12.2952 6.06459C12.3247 6.78391 12.3499 7.45485 12.3731 8.03115C12.3815 8.34665 12.3857 8.62638 12.3878 8.86826C12.3878 8.86826 12.3836 8.86826 12.3815 8.86826C12.2321 8.84513 12.0639 8.80095 11.8809 8.75679C11.5128 8.66424 11.0859 8.52542 10.6252 8.35926C10.396 8.27303 10.1562 8.1868 9.91644 8.09635C9.79445 8.05219 9.67246 8.00591 9.55047 7.96174C9.49368 7.93861 9.40955 7.91548 9.34014 7.89234C9.26863 7.8671 9.19501 7.84817 9.1193 7.83976C8.82063 7.78297 8.53038 7.80821 8.25905 7.84396C7.98563 7.88182 7.73323 7.94913 7.49136 8.01012C7.0076 8.14263 6.57433 8.27724 6.19573 8.35295C5.81925 8.42867 5.49955 8.45602 5.28291 8.42867C5.17144 8.42867 5.09151 8.39923 5.03262 8.39082C4.97583 8.3803 4.94428 8.37399 4.94428 8.37399L4.8896 8.54435C4.8896 8.54435 4.92325 8.55277 4.98425 8.5717C5.04735 8.58642 5.13778 8.62428 5.25557 8.6348C5.49324 8.68317 5.84028 8.68317 6.24201 8.6348C6.61639 8.59063 7.03915 8.50019 7.48294 8.41605C7.44508 8.48757 7.41143 8.55487 7.37357 8.61797C7.29365 8.75889 7.19479 8.85564 7.08122 8.8956C7.02653 8.91243 6.95081 8.91453 6.8772 8.90402C6.83934 8.89981 6.80148 8.8914 6.76572 8.88298C6.7489 8.87878 6.72366 8.87036 6.71735 8.87036C6.71314 8.86826 6.70894 8.86826 6.70473 8.86405L6.66687 8.82199C6.64163 8.79465 6.61008 8.7673 6.57433 8.75048C6.50492 8.71262 6.42289 8.71262 6.34717 8.73365C6.21887 8.78203 6.15998 8.83671 6.12212 8.84092H6.09688C5.96648 8.88929 5.7898 8.85774 5.57737 8.88929C5.37125 8.92295 5.2135 8.99867 5.07679 8.97343C5.00738 8.9587 4.94639 8.93136 4.88539 8.88298C4.82229 8.83461 4.75289 8.75468 4.63931 8.7042C4.52573 8.65583 4.39953 8.66635 4.30699 8.68948C4.20603 8.70841 4.1198 8.73786 4.02936 8.7673C3.94102 8.79675 3.85268 8.8304 3.76645 8.86616C3.67811 8.90402 3.58977 8.94608 3.50985 8.99656C3.3479 9.09542 3.20697 9.20268 3.04712 9.25316C2.9672 9.2805 2.88517 9.29102 2.79894 9.29943C2.70429 9.31205 2.61175 9.31205 2.5171 9.33519L2.37618 9.37095L2.24367 9.43404C2.17847 9.46349 2.12379 9.50345 2.067 9.54131L2.03335 9.52448L2.00811 9.54762C2.00811 9.54762 1.99128 9.56655 1.98497 9.57707C1.97656 9.59179 1.97235 9.61282 1.96814 9.63175L1.95132 9.75164L2.0712 9.68223C2.22685 9.59179 2.37408 9.48873 2.54444 9.4719C2.62647 9.45297 2.71901 9.45718 2.80735 9.44877C2.902 9.44246 3.00296 9.43404 3.0976 9.4046C3.29111 9.34991 3.44885 9.23423 3.60239 9.1501C3.67811 9.10804 3.75804 9.07228 3.83796 9.04073C3.85268 9.03442 3.86951 9.03021 3.88633 9.0239C3.84006 9.10172 3.80431 9.17744 3.77486 9.26368C3.74121 9.35832 3.74331 9.46349 3.71387 9.52238C3.68863 9.58338 3.6045 9.62334 3.52668 9.65909H3.52036C3.42151 9.69485 3.32266 9.73271 3.21329 9.75584L3.2238 9.81263C3.33528 9.80001 3.44675 9.77057 3.56243 9.74112C3.56243 9.74112 3.56243 9.74743 3.56243 9.75374C3.64236 9.70747 3.74752 9.68013 3.81272 9.57496C3.8653 9.4698 3.8653 9.38356 3.90106 9.30995C3.96836 9.15851 4.07563 8.99236 4.19972 8.94398L4.19341 8.92715C4.33223 8.88929 4.47105 8.85985 4.55518 8.90191C4.60986 8.92715 4.66455 8.98815 4.74237 9.05545C4.82019 9.12276 4.92746 9.18165 5.03893 9.20478C5.2745 9.24895 5.4659 9.15431 5.61944 9.14169C5.76667 9.11855 5.96648 9.16693 6.19153 9.09962C6.18312 9.09962 6.1747 9.10804 6.16839 9.11435C6.30931 9.07438 6.39134 9.00287 6.4292 8.99866C6.43761 8.99656 6.44603 8.99867 6.45233 9.00287C6.45654 9.00498 6.45654 9.00708 6.46075 9.01128C6.47127 9.0218 6.48599 9.04283 6.51123 9.06807C6.53857 9.09542 6.57433 9.11855 6.61219 9.13538C6.64794 9.148 6.66477 9.15431 6.69211 9.16272C6.69842 9.16272 6.70683 9.16482 6.71314 9.16693C6.61219 9.18796 6.51333 9.2132 6.41868 9.24054C5.56896 9.50555 4.8265 9.93252 4.02725 10.1933C4.02725 10.1933 4.01253 10.2059 4.00833 10.2144C3.93892 10.2396 3.86741 10.2648 3.79589 10.2901C3.61291 10.2186 3.41941 10.1723 3.2238 10.1618C3.10392 10.1576 2.98403 10.1534 2.86204 10.1681C2.74425 10.1807 2.63068 10.1954 2.52762 10.187H2.5213H2.5192C2.515 10.187 2.51289 10.187 2.51079 10.187C2.50658 10.1828 2.49817 10.1702 2.48555 10.1492C2.47293 10.1281 2.454 10.0966 2.41614 10.0798C2.37828 10.0587 2.34673 10.0671 2.31518 10.0671C2.31729 10.0671 2.32149 10.0713 2.3257 10.0734C2.23105 10.0734 2.1932 10.1134 2.14272 10.145L2.01231 10.2417C1.93028 10.2901 1.83143 10.3321 1.72837 10.3511C1.52225 10.3973 1.3014 10.4058 1.08266 10.4352L0.916504 10.4647C0.861819 10.4773 0.807134 10.4983 0.752449 10.5151C0.699867 10.5362 0.649386 10.5719 0.598907 10.6014C0.548428 10.6371 0.512674 10.6981 0.495848 10.7507C0.460092 10.858 0.415922 10.9421 0.323378 10.9926C0.298138 11.0052 0.283417 11.0199 0.262384 11.0178C0.239248 11.0199 0.211905 11.0178 0.186666 11.0178C0.161426 11.0157 0.134083 11.0115 0.10674 11.0073L0.0667773 10.9989L0.0457464 10.9947C0.0457464 10.9947 0.0415383 10.9947 0.0310219 10.9947H0.0226102C0.0226102 10.9947 0.0184041 10.9947 0.00999103 11.0031C-0.00473193 11.0115 -0.000526269 11.0431 0.00578357 11.0452C0.0141967 11.0557 0.00998987 11.0494 0.0120932 11.0515L0.0205049 11.0557L0.0310219 11.0367C0.0310219 11.0367 0.0310219 11.0599 0.0310219 11.0557C0.0268153 11.0557 0.0352294 11.0557 0.0352294 11.0557L0.0541581 11.0599L0.0941209 11.0683C0.121464 11.0746 0.148805 11.0788 0.178251 11.083C0.205593 11.0872 0.235042 11.0893 0.266591 11.0872C0.302347 11.0872 0.331792 11.0662 0.357031 11.0536C0.466401 11.0031 0.53581 10.8811 0.567359 10.7822C0.586288 10.7318 0.611528 10.696 0.649387 10.6687C0.695659 10.6455 0.735621 10.6161 0.783996 10.5993C0.834475 10.5866 0.884954 10.5677 0.935433 10.5572L1.09318 10.5341C1.30771 10.5109 1.52856 10.5088 1.75151 10.4668C1.86508 10.4478 1.97235 10.4079 2.07962 10.349L2.07541 10.3469ZM7.65752 8.79254C7.76058 8.63269 7.8384 8.46864 7.92884 8.37399L7.89939 8.34665C8.28009 8.28986 8.6734 8.26041 9.01623 8.35295C9.07302 8.36347 9.12561 8.3824 9.17608 8.40554C9.23077 8.42867 9.27283 8.44129 9.33593 8.47284C9.45582 8.52963 9.5736 8.58432 9.69139 8.639C9.92696 8.74837 10.1604 8.85774 10.3855 8.96291C10.8398 9.17113 11.2752 9.35412 11.6643 9.48662C11.7105 9.50135 11.7505 9.51607 11.7947 9.53079C11.7757 9.54131 11.7547 9.55183 11.7358 9.56234L11.6453 9.62544L11.6222 9.64227C11.6222 9.64227 11.6201 9.64437 11.618 9.64647L11.6138 9.65068C11.6138 9.65068 11.5991 9.65699 11.5906 9.6612L11.456 9.68013C11.3551 9.69275 11.2499 9.71168 11.1511 9.72219L10.865 9.73691C10.7683 9.74322 10.6673 9.7264 10.5685 9.72219C10.4696 9.71799 10.3665 9.70747 10.2593 9.69695C10.051 9.67382 9.826 9.65909 9.64722 9.62123C9.45792 9.58758 9.25811 9.5329 9.0583 9.474C8.65657 9.35622 8.24012 9.2111 7.78792 9.13748C7.6491 9.11224 7.50818 9.10173 7.36726 9.10173C7.49556 9.01759 7.59442 8.90402 7.66172 8.79254H7.65752Z" fill="#1B1B1B"/>
</svg>
