<svg width="24" height="23" viewBox="0 0 24 23" fill="none" xmlns="http://www.w3.org/2000/svg">
<path d="M23.706 8.60472C23.6281 8.59581 23.5434 8.59581 23.461 8.59804C23.294 8.6025 23.1269 8.62031 22.951 8.62477C22.6036 8.61808 22.2628 8.60472 21.9176 8.55127C21.6771 8.51564 21.4388 8.44882 21.2138 8.35973C21.2539 8.41541 21.2984 8.47777 21.3497 8.54681C21.5234 8.78512 21.755 9.10138 22.0111 9.3976C22.2673 9.69381 22.5568 9.9633 22.7996 10.1303C22.8597 10.1749 22.9154 10.2105 22.9688 10.2417C23.02 10.2729 23.0646 10.2996 23.1047 10.3196C23.1804 10.3597 23.2249 10.382 23.2249 10.382L23.1893 10.4533C23.1893 10.4533 23.1425 10.431 23.0624 10.3909C23.0223 10.3731 22.9755 10.3441 22.922 10.313C22.8664 10.284 22.8085 10.2462 22.7461 10.2016C22.49 10.0346 22.1893 9.76508 21.9198 9.4711C21.6503 9.17711 21.4076 8.86308 21.2294 8.627C21.049 8.39314 20.931 8.23724 20.931 8.23724C20.931 8.23724 20.9265 8.23502 20.9243 8.23279C20.7728 8.15484 20.6192 8.07466 20.4722 7.9878C20.3987 7.94548 20.3229 7.90316 20.2517 7.85862L20.1225 7.77621C20.1269 7.92989 20.0935 8.12143 20.0601 8.30851C20.0245 8.50228 19.9978 8.69158 20.0045 8.83412C20.0045 8.86976 20.0089 8.90094 20.0134 8.92989C20.0156 8.95884 20.02 8.98334 20.0267 9.00339C20.0356 9.04348 20.0423 9.06575 20.0423 9.06575L19.9644 9.09024C19.9644 9.09024 19.9577 9.06575 19.9443 9.02343C19.9376 9.00116 19.931 8.97443 19.9265 8.94548C19.9198 8.9143 19.9154 8.88089 19.9131 8.84303C19.8976 8.69158 19.9154 8.48891 19.9421 8.29515C19.9666 8.10139 19.9889 7.90762 19.9755 7.77176C19.9733 7.73613 19.9688 7.70272 19.9621 7.67377C19.4232 7.32187 18.9109 6.94102 18.363 6.64036L18.1448 6.529C18.0735 6.49114 18 6.45328 17.9243 6.42878L17.6993 6.34192L17.6437 6.31964L17.5902 6.30628C17.5546 6.29737 17.5212 6.28624 17.4833 6.28179C17.3363 6.25283 17.1737 6.24392 17.0134 6.24392C16.8731 6.24392 16.7283 6.25283 16.5902 6.26842C16.6169 6.28401 16.6459 6.30183 16.6748 6.31964C16.7795 6.382 16.9065 6.45327 17.0356 6.54236C17.098 6.59136 17.1648 6.64036 17.2227 6.70272C17.2561 6.73167 17.2784 6.76508 17.3029 6.79626L17.3764 6.89426C17.5746 7.15261 17.7439 7.4221 17.8753 7.62477C18.0045 7.82521 18.0935 7.95884 18.0935 7.95884L18.0245 8.00116C18.0245 8.00116 17.9332 7.86976 17.7951 7.67154C17.657 7.47555 17.4788 7.20829 17.2784 6.9633L17.2049 6.86975C17.1804 6.83857 17.1559 6.8074 17.1269 6.78513C17.0757 6.7339 17.0134 6.68935 16.9532 6.64704C16.8285 6.56686 16.7038 6.50005 16.5969 6.43991C16.5412 6.40873 16.4922 6.37978 16.4499 6.35528C16.4165 6.33301 16.3875 6.31519 16.3608 6.29738C16.343 6.30406 16.3229 6.30851 16.3029 6.31519C16.2227 6.33969 16.1381 6.37087 16.0535 6.39982L15.9243 6.44659C15.8797 6.46218 15.8352 6.47555 15.7795 6.49114C15.7461 6.50005 15.7038 6.5045 15.6637 6.51118L15.6347 6.51564C15.6347 6.51564 15.6147 6.51118 15.6036 6.50895L15.5412 6.49559C15.461 6.48 15.4232 6.45773 15.3675 6.43768C15.167 6.34637 15.0156 6.23056 14.8664 6.11475C14.7213 6.00048 14.5872 5.87972 14.4553 5.761L14.4499 5.75617C14.1826 5.51563 13.9332 5.25506 13.6704 5.0702C13.5768 5.00339 13.4855 4.93434 13.3964 4.86753C13.3541 5.22388 13.2695 5.57799 13.2027 5.92989L13.147 6.18602C13.167 6.21497 13.1849 6.24392 13.2049 6.27287C13.3185 6.43991 13.4388 6.63368 13.5991 6.82967C13.6748 6.92989 13.755 7.03234 13.8396 7.13925C13.922 7.24838 14.02 7.34637 14.1136 7.4555C14.1604 7.50895 14.2094 7.56464 14.2584 7.61809C14.294 7.65595 14.3274 7.69826 14.363 7.7339C14.6503 7.79849 15.0401 7.82967 15.4276 7.84526C15.8419 7.86085 16.2584 7.85862 16.5702 7.8564H16.9488C17.0401 7.8564 17.0935 7.85862 17.0935 7.85862L17.0891 7.93657H16.9488C16.8575 7.9388 16.7283 7.94325 16.5724 7.9477C16.2606 7.95661 15.8419 7.96998 15.4254 7.9633C15.1269 7.95884 14.8285 7.94548 14.5679 7.91208C14.6281 7.95885 14.6926 8.00339 14.7572 8.04793C15.0156 8.2261 15.3073 8.39092 15.6013 8.58023C15.7416 8.66931 15.882 8.7673 16.0156 8.88089C16.1292 8.91875 16.2739 8.97666 16.4365 9.05239C16.6281 9.14147 16.8441 9.25728 17.0735 9.38423C17.3051 9.50895 17.5412 9.64927 17.7973 9.75394C17.9243 9.8074 18.0534 9.86085 18.1782 9.9143C18.3051 9.9633 18.4343 10.0056 18.5568 10.0524C18.8018 10.1459 19.0379 10.2083 19.2383 10.2706C19.4388 10.333 19.6102 10.3731 19.7283 10.4065C19.8463 10.4377 19.9131 10.4577 19.9131 10.4577L19.8931 10.5335C19.8931 10.5335 19.8241 10.5156 19.706 10.4867C19.588 10.4555 19.4165 10.4176 19.2138 10.3575C19.0111 10.2974 18.7728 10.2372 18.5234 10.1482C18.3987 10.1058 18.2695 10.0635 18.1381 10.0167C18.0089 9.96552 17.8797 9.91208 17.7483 9.86085C17.4855 9.7584 17.2383 9.61808 17.0089 9.50004C16.7795 9.37755 16.5635 9.26842 16.3742 9.18379C16.3385 9.1682 16.3051 9.15483 16.2739 9.13924C16.294 9.16374 16.314 9.19047 16.3296 9.21942C16.3563 9.26174 16.3831 9.30628 16.4009 9.34192C16.5724 9.64036 16.6971 9.97666 16.8151 10.2773C16.9332 10.5802 17.0846 10.8319 17.3541 10.97C17.5724 11.0969 17.8285 11.1615 18.0779 11.215C18.167 11.1905 18.2762 11.1214 18.3831 11.0479C18.5078 10.9611 18.6459 10.872 18.7706 10.8386C18.7996 10.8274 18.8285 10.823 18.8552 10.8208C18.8797 10.8163 18.9042 10.8141 18.922 10.8141H18.98L18.9755 10.892C18.9755 10.892 18.9577 10.892 18.9265 10.8965C18.9109 10.8965 18.8931 10.8987 18.8708 10.9054C18.8486 10.9098 18.8263 10.9143 18.8018 10.9254C18.6993 10.9611 18.5791 11.0457 18.4588 11.1415L18.4504 11.148C18.4018 11.1861 18.3511 11.2258 18.2984 11.2595C18.5657 11.3085 18.8174 11.3553 19.0535 11.3998C19.5746 11.5 20.0045 11.6114 20.2984 11.7183C20.4454 11.7718 20.559 11.823 20.6325 11.8608C20.706 11.9009 20.7461 11.9232 20.7461 11.9232L20.6815 12.0234C20.6815 12.0234 20.6437 12.0056 20.5746 11.97C20.5033 11.9366 20.3942 11.892 20.2517 11.8453C19.9644 11.7539 19.539 11.6604 19.02 11.5802C18.9644 11.5713 18.9042 11.5624 18.8463 11.5535C18.9154 11.6381 18.9822 11.7339 19.0401 11.8341C19.1353 11.9965 19.22 12.163 19.284 12.2888L19.2895 12.2996C19.3541 12.4265 19.4053 12.5045 19.4053 12.5045L19.3363 12.5468C19.3363 12.5468 19.2784 12.4666 19.2049 12.3419C19.1314 12.2172 19.0379 12.0524 18.9332 11.8943C18.8307 11.7384 18.7105 11.5936 18.6058 11.5201C18.4677 11.5 18.3229 11.4778 18.1737 11.4555C17.8731 11.4043 17.5434 11.3531 17.2249 11.1882C17.0646 11.1103 16.9154 10.9923 16.8018 10.8475C16.686 10.7049 16.608 10.5446 16.5367 10.3887C16.5056 10.3152 16.4722 10.2417 16.441 10.1704C16.4232 10.2617 16.4031 10.3575 16.3786 10.4533C16.3385 10.6181 16.2962 10.7807 16.2829 10.9032C16.2717 10.9655 16.2739 11.0145 16.2717 11.0502C16.2717 11.0858 16.2695 11.1058 16.2695 11.1058L16.1871 11.1103V11.0502C16.1871 11.0123 16.1826 10.9566 16.1893 10.8943C16.196 10.7629 16.2294 10.5958 16.2584 10.4288C16.2895 10.264 16.314 10.0992 16.3185 9.97666C16.3207 9.94771 16.3185 9.92321 16.3185 9.89871C16.2539 9.76062 16.1826 9.62699 16.1002 9.49559C16.078 9.45773 16.0579 9.42878 16.0401 9.39983C16.0223 9.36864 15.9955 9.34414 15.9733 9.31519C15.951 9.28846 15.922 9.26174 15.8931 9.23724C15.8664 9.21051 15.8352 9.18601 15.804 9.16152C15.6793 9.06352 15.5412 8.97443 15.3964 8.8898C15.1091 8.71831 14.8062 8.56464 14.5212 8.38424C14.4877 8.36196 14.4543 8.34192 14.4209 8.31964C14.5278 8.54236 14.6837 8.82521 14.7439 9.14815C14.7706 9.32855 14.7572 9.50227 14.7506 9.66263C14.7416 9.82299 14.735 9.9722 14.7372 10.0992C14.7394 10.2261 14.755 10.3286 14.7751 10.3976C14.7951 10.4666 14.8174 10.5 14.8151 10.5L14.7416 10.5379C14.7416 10.5379 14.7149 10.4978 14.6926 10.4221C14.6682 10.3464 14.6481 10.2372 14.6414 10.1058C14.6347 9.97443 14.637 9.82299 14.6414 9.66263C14.6437 9.50227 14.6503 9.33078 14.6214 9.17043C14.5523 8.84749 14.3675 8.54905 14.2517 8.31519C14.2227 8.25729 14.196 8.2016 14.1759 8.15261C14.1759 8.14815 14.1737 8.14593 14.1715 8.14147C14.1492 8.12366 14.1292 8.10583 14.1069 8.08802C14.0356 8.03234 13.9889 7.97444 13.9332 7.91876C13.8797 7.86308 13.8263 7.80739 13.7751 7.75394C13.6726 7.64258 13.5635 7.54013 13.4744 7.43323C13.3831 7.3241 13.2962 7.21942 13.2116 7.12143C13.1403 7.04125 13.0779 6.96107 13.0178 6.88312C12.9978 7.00784 12.98 7.13257 12.9599 7.25729C12.8931 7.70049 12.8218 8.1437 12.7862 8.58023C12.7795 8.80517 12.7684 9.03011 12.7528 9.25283C12.7416 9.44882 12.7261 9.64704 12.7127 9.84303C12.7595 9.94771 12.8085 10.0524 12.8597 10.1571L12.971 10.3709L13.0312 10.4755L13.0601 10.5268L13.0668 10.5424C13.069 10.5535 13.0757 10.5535 13.0824 10.5557L13.196 10.598L13.3252 10.6448C13.3675 10.6604 13.4053 10.6827 13.4477 10.7005L13.6882 10.8141L13.9154 10.9343L14.363 11.1704C14.6526 11.3196 14.9688 11.4421 15.2851 11.5802C15.5991 11.7205 15.9176 11.8586 16.2138 12.0791L16.3229 12.1637L16.4143 12.264C16.4788 12.3308 16.5256 12.3998 16.5791 12.4689C16.6793 12.607 16.7684 12.7495 16.8575 12.8876L16.8708 12.9076C16.882 12.9165 16.8953 12.9254 16.9109 12.9343C17.0245 13.0212 17.1938 13.1214 17.363 13.2172C17.5345 13.3107 17.7105 13.3998 17.8463 13.4555C17.9131 13.4867 17.971 13.509 18.0111 13.5223C18.0512 13.5379 18.0735 13.5446 18.0735 13.5446L18.049 13.6181C18.049 13.6181 18.0245 13.6114 17.9822 13.598C17.9376 13.5869 17.8775 13.5669 17.8085 13.5379C17.6659 13.4867 17.4833 13.4043 17.3029 13.3174C17.2227 13.2773 17.1448 13.2372 17.0713 13.1971C17.1893 13.3575 17.3163 13.5067 17.4677 13.6337H17.4766C17.6347 13.7896 17.8129 13.9388 17.9822 14.0969C18.0668 14.1749 18.1514 14.2551 18.2316 14.3397C18.3096 14.4265 18.392 14.5112 18.4432 14.6359L18.3252 14.6738C18.2851 14.5936 18.2049 14.509 18.1247 14.4332C18.0445 14.3575 17.9577 14.284 17.8686 14.2127C17.6926 14.068 17.51 13.9321 17.3296 13.7762C17.3318 13.7784 17.3207 13.7963 17.3096 13.8119C17.069 13.5513 16.8552 13.2751 16.6637 13.0034C16.5679 12.8675 16.4722 12.7317 16.3719 12.607C16.3207 12.5446 16.2717 12.48 16.216 12.4288L16.1359 12.3464L16.0423 12.2818C15.9532 12.2217 15.853 12.166 15.7528 12.1147C15.8241 12.2617 15.9042 12.4511 15.9733 12.6448C16.0445 12.8631 16.098 13.088 16.1114 13.2617C16.1136 13.284 16.1158 13.3041 16.118 13.3241V13.3798V13.4711V13.549L16.0379 13.5446C16.0379 13.5446 16.0379 13.5179 16.0356 13.4689C16.0356 13.4444 16.0356 13.4154 16.0312 13.382V13.3286C16.029 13.3107 16.0245 13.2907 16.0223 13.2706C16.0022 13.1058 15.9421 12.892 15.8641 12.6827C15.7795 12.4755 15.6837 12.2729 15.5991 12.1259C15.5768 12.0836 15.5546 12.0457 15.5367 12.0123C15.4165 11.9588 15.2918 11.9098 15.167 11.8608C14.853 11.7406 14.5256 11.6315 14.2049 11.4822L13.7416 11.264L13.5145 11.1548L13.5011 11.1482C13.5813 11.2684 13.6815 11.3798 13.7884 11.4867C13.9644 11.6626 14.1581 11.8319 14.3185 12.0346H14.3118C14.6125 12.3553 14.6793 12.774 14.9198 13.0925L14.8552 13.1392C14.5924 12.8074 14.5078 12.3887 14.2272 12.1103V12.1058C14.069 11.9188 13.8753 11.7584 13.6882 11.5824C13.5278 11.431 13.3653 11.2595 13.265 11.0502C13.2361 11.0368 13.2049 11.0234 13.1759 11.0145L13.0624 10.9789L12.9332 10.9388C12.8619 10.9098 12.7639 10.9076 12.7416 10.8274L12.6147 10.627C12.5546 10.725 12.4922 10.8052 12.441 10.8943C12.3853 10.99 12.3363 11.0858 12.2962 11.1882C12.216 11.3909 12.1693 11.6069 12.1514 11.8252C12.1403 11.9343 12.1425 12.0435 12.1403 12.1526C12.1492 12.2617 12.1492 12.3731 12.167 12.4822C12.1915 12.7005 12.2339 12.9232 12.2606 13.1482C12.2739 13.2595 12.2873 13.3731 12.2918 13.4867C12.2918 13.5201 12.294 13.5535 12.2918 13.5891C12.3519 13.6671 12.4232 13.7495 12.5078 13.8297C12.6437 13.9588 12.8129 14.0836 13.0045 14.2038C13.2027 14.2328 13.4232 14.2484 13.6459 14.2551C14.0223 14.2662 14.3987 14.2573 14.6837 14.264C14.8263 14.2662 14.9465 14.2729 15.029 14.2818C15.1136 14.2907 15.1626 14.3018 15.1626 14.3018L15.1448 14.3776C15.1448 14.3776 15.1002 14.3686 15.02 14.362C14.9399 14.3553 14.8218 14.3531 14.6815 14.3531C14.4009 14.3531 14.0223 14.3731 13.6437 14.3709C13.5212 14.3709 13.3964 14.3664 13.2762 14.3597C13.3898 14.4199 13.5056 14.48 13.6281 14.5379C14.0824 14.7517 14.5991 14.9366 15.1225 15.1014C15.1314 15.1036 15.1425 15.1081 15.1514 15.1103C15.3452 15.1058 15.5768 15.0769 15.804 15.0323C16.099 14.9734 16.3918 14.8951 16.6152 14.8353L16.6281 14.8319C16.853 14.7718 17.0045 14.7384 17.0045 14.7384L17.0245 14.8141C17.0245 14.8141 16.8753 14.8542 16.6548 14.9188C16.4321 14.9833 16.1359 15.0747 15.8307 15.1459C15.7171 15.1727 15.6013 15.1949 15.4878 15.2127C15.6278 15.255 15.7679 15.295 15.908 15.335L15.9087 15.3352C16.1871 15.4132 16.4588 15.4911 16.7238 15.5646C16.755 15.598 16.7795 15.6381 16.8085 15.676L16.8641 15.7495L16.8643 15.7497C16.8999 15.7987 16.9355 15.8476 16.971 15.8943C16.9955 15.9254 17.02 15.9544 17.0445 15.9833C17.0802 16.0056 17.1158 16.0301 17.1581 16.0568C17.3719 16.1971 17.6681 16.3664 17.9733 16.5179C18.1314 16.5847 18.2851 16.6604 18.4365 16.7072C18.5122 16.7317 18.5857 16.7628 18.6548 16.7807C18.7261 16.7985 18.7929 16.8141 18.8552 16.8297C18.8864 16.8363 18.9154 16.8453 18.9443 16.8519C18.9733 16.8586 19 16.8586 19.0267 16.8631C19.078 16.8698 19.1225 16.8742 19.1604 16.8787C19.2339 16.8876 19.2762 16.892 19.2762 16.892V16.97C19.2762 16.97 19.2294 16.9655 19.1514 16.9588C19.1136 16.9566 19.0646 16.9499 19.0111 16.9455L19.005 16.945C18.98 16.9429 18.9533 16.9407 18.9265 16.9366C18.8975 16.9299 18.8664 16.9232 18.833 16.9165C18.7684 16.9032 18.6993 16.8876 18.6236 16.872C18.5501 16.8542 18.4766 16.8274 18.3964 16.8029C18.2361 16.7584 18.078 16.6849 17.9154 16.6225C17.7105 16.529 17.5122 16.4288 17.3363 16.3308C17.3608 16.3575 17.3875 16.3887 17.412 16.4154C17.4878 16.4934 17.559 16.5691 17.6281 16.6426C17.9109 16.9299 18.1581 17.1637 18.3296 17.3286C18.5011 17.4934 18.5991 17.5891 18.5991 17.5891L18.5122 17.6738C18.5122 17.6738 18.4098 17.5847 18.2316 17.4288L18.2164 17.4156C18.0368 17.2604 17.7845 17.0424 17.4922 16.7718C17.4229 16.7046 17.3497 16.6354 17.2744 16.5643L17.2606 16.5513C17.1846 16.4753 17.1064 16.395 17.0262 16.3126L17.02 16.3063C16.9399 16.2194 16.8597 16.1303 16.7751 16.0368C16.735 15.9878 16.6971 15.941 16.657 15.892L16.5969 15.8185C16.5857 15.8074 16.5768 15.794 16.5657 15.7829C16.3252 15.7272 16.0802 15.6715 15.8285 15.6136C15.5612 15.5513 15.2895 15.4867 15.02 15.4154C14.8307 15.3664 14.6414 15.313 14.4543 15.2551C14.5813 15.3531 14.7327 15.4622 14.8797 15.6025C15.0401 15.7517 15.1559 15.9366 15.294 16.1125C15.4254 16.2907 15.539 16.4778 15.6548 16.6493C15.7572 16.8274 15.8508 16.9945 15.9332 17.137C16.0802 17.4288 16.1759 17.6248 16.1759 17.6248L16.1024 17.656C16.1024 17.656 16.0022 17.4644 15.8486 17.1771C15.7639 17.0368 15.6659 16.8742 15.5612 16.7005C15.4432 16.5335 15.3274 16.3508 15.1938 16.1793C15.0557 16.0123 14.9332 15.8274 14.7862 15.696C14.637 15.5602 14.4766 15.4533 14.343 15.353C14.2739 15.3041 14.2138 15.2551 14.1581 15.215C14.1225 15.186 14.0913 15.1593 14.0624 15.1326C13.853 15.0635 13.6459 14.99 13.4499 14.9076C13.2895 14.8408 13.1314 14.7695 12.9822 14.6938C13.0156 14.8742 13.0423 15.0992 13.0601 15.3219C13.078 15.5802 13.0802 15.8386 13.0802 16.0323C13.0779 16.2261 13.0757 16.3553 13.0757 16.3553H12.9933C12.9933 16.3553 12.9889 16.2261 12.9844 16.0346C12.9777 15.843 12.9644 15.5869 12.9376 15.333C12.9087 15.0791 12.8664 14.8274 12.8174 14.6448C12.8151 14.6314 12.8107 14.6181 12.8085 14.6047C12.5702 14.4755 12.3541 14.333 12.1693 14.1771C12 14.0323 11.8575 13.8764 11.7506 13.7183C11.7416 13.7027 11.7327 13.6894 11.7238 13.6738H11.637C11.539 14.0546 11.4209 14.431 11.2829 14.8007L11.1448 15.1526C11.1559 15.2907 11.1915 15.4644 11.2428 15.6359C11.3029 15.8297 11.3808 16.019 11.4588 16.1504C11.4967 16.215 11.5367 16.264 11.5657 16.2929C11.5969 16.3196 11.6147 16.3308 11.6147 16.3308L11.5746 16.3976C11.5746 16.3976 11.5479 16.382 11.5056 16.3486C11.4677 16.313 11.4209 16.2617 11.3786 16.1927C11.2895 16.0568 11.1982 15.8653 11.1247 15.6671C11.0913 15.5735 11.0624 15.4755 11.0401 15.3842C11.0089 15.4444 10.9777 15.5045 10.9465 15.5602C10.882 15.6782 10.8151 15.794 10.7684 15.9076C10.7216 16.0212 10.6904 16.1281 10.706 16.2261C10.7105 16.2662 10.7216 16.3063 10.735 16.3464L10.7595 16.3531C10.7595 16.3531 10.755 16.3642 10.7483 16.3842C10.8129 16.5513 10.9332 16.7139 11.0624 16.8653C11.1492 16.9655 11.2428 17.0657 11.3363 17.166L11.5056 17.3486L11.5947 17.4533L11.637 17.5067L11.6592 17.5335V17.5557C11.6258 17.598 11.5568 17.6292 11.5011 17.6738L11.4143 17.7361C11.392 17.7539 11.3853 17.7695 11.3697 17.7851L11.343 17.8185C11.3385 17.8453 11.3363 17.8742 11.3341 17.9054C11.3229 18.0635 11.3408 18.2818 11.3653 18.4978C11.3987 18.7094 11.4521 18.9232 11.5122 19.0747C11.5345 19.1526 11.5724 19.2105 11.5902 19.2551C11.6102 19.2974 11.6214 19.3219 11.6214 19.3219L11.5501 19.3597C11.5501 19.3597 11.5367 19.3352 11.5145 19.2907C11.4944 19.2462 11.4521 19.186 11.4254 19.1058C11.3563 18.9499 11.2918 18.7339 11.2472 18.5134C11.2249 18.3686 11.2049 18.2261 11.1938 18.0947C11.1359 18.2328 11.0913 18.3775 11.049 18.5268C10.9978 18.7072 10.951 18.892 10.8886 19.0747C10.8263 19.2573 10.755 19.4444 10.6236 19.6047L10.5256 19.5335C10.6281 19.3865 10.6837 19.2105 10.7305 19.0323C10.755 18.9388 10.7751 18.8453 10.7929 18.7495C10.6548 18.892 10.4833 19.0479 10.3073 19.1971C10.0824 19.3865 9.84855 19.5646 9.66815 19.6916C9.57906 19.7562 9.50111 19.8074 9.44543 19.843C9.38976 19.8787 9.35635 19.8965 9.35635 19.8965L9.31626 19.8297C9.31626 19.8297 9.34521 19.8118 9.39866 19.7762C9.44989 19.7406 9.52338 19.6871 9.61024 19.6225C9.78396 19.4911 10.0089 19.3063 10.2249 19.1125C10.441 18.9188 10.6459 18.7161 10.7773 18.5535C10.8085 18.5179 10.833 18.4822 10.8552 18.451C10.8931 18.2751 10.9354 18.0947 11.0067 17.9143C11.0267 17.8675 11.0445 17.8185 11.0735 17.7718L11.1114 17.7005C11.1247 17.676 11.1448 17.6559 11.1604 17.6314L11.2094 17.5669L11.2316 17.5424C11.245 17.5245 11.2606 17.5179 11.2739 17.5067C11.3519 17.5134 11.3586 17.5112 11.3586 17.5067L11.3474 17.4956L11.3274 17.4733L11.2851 17.431L11.1737 17.3241C11.0757 17.2283 10.9755 17.1326 10.8775 17.0301C10.7862 16.9321 10.6971 16.8297 10.6192 16.7161C10.559 16.8274 10.4811 16.9477 10.3987 17.068C10.2806 17.2306 10.1492 17.3842 10.0468 17.4956C9.94432 17.6047 9.87305 17.676 9.87305 17.676L9.81292 17.6225C9.81292 17.6225 9.87973 17.549 9.9755 17.4377C10.069 17.3241 10.1893 17.1682 10.2962 17.0056C10.392 16.8542 10.4788 16.6983 10.5301 16.5713C10.4811 16.48 10.441 16.382 10.4232 16.2773C10.4031 16.1949 10.4098 16.1058 10.4187 16.0279C10.4321 15.9477 10.4521 15.8742 10.4788 15.8052C10.5301 15.6649 10.5924 15.5424 10.6526 15.4199C10.7127 15.2974 10.7661 15.1838 10.804 15.068L10.931 14.6871C10.9822 14.5223 11.029 14.3553 11.0713 14.1882C10.9644 14.264 10.8463 14.3419 10.7305 14.4199C10.6058 14.4889 10.4788 14.558 10.3608 14.6203C10.2428 14.6804 10.1314 14.7361 10.0356 14.7851C9.85078 14.8853 9.72606 14.9522 9.72606 14.9522L9.68151 14.8876C9.68151 14.8876 9.80401 14.8163 9.98886 14.7072C10.0824 14.6559 10.1915 14.5958 10.3073 14.5312C10.4232 14.4666 10.5412 14.3931 10.6637 14.3219C10.7751 14.2395 10.8886 14.1615 10.9911 14.0813C11.0379 14.0435 11.0846 14.0056 11.1247 13.97C11.2049 13.6337 11.2695 13.2951 11.3163 12.9544L11.2851 12.5468L11.2828 12.5221C11.2747 12.432 11.2663 12.3402 11.2561 12.2484C11.1759 12.3976 11.0846 12.5669 10.9844 12.7495C10.9599 12.7963 10.9332 12.843 10.9065 12.892L10.8664 12.9655L10.8463 13.0034L10.8285 13.0346L10.8151 13.0568C10.7506 13.1593 10.6748 13.2684 10.5746 13.3775C10.4766 13.4845 10.3274 13.5936 10.1626 13.6448C10 13.696 9.84855 13.7049 9.70824 13.7161C9.57096 13.7249 9.42928 13.7338 9.28758 13.7427L9.28508 13.7428H9.16704C9.15813 13.7539 9.14699 13.7651 9.13586 13.7762C9.11359 13.8074 9.08463 13.8408 9.06013 13.8831C9.00668 13.9633 8.95768 14.0657 8.90869 14.1793C8.88196 14.235 8.86192 14.2951 8.83296 14.3575C8.80178 14.4176 8.77283 14.4845 8.73719 14.5401C8.59688 14.7762 8.4343 14.9922 8.34299 15.166C8.29844 15.2528 8.26281 15.3263 8.24944 15.382C8.23163 15.4355 8.22272 15.4666 8.22272 15.4666L8.14254 15.451C8.14254 15.451 8.15145 15.4176 8.16704 15.3597C8.1804 15.2996 8.21381 15.2217 8.25835 15.1281C8.34744 14.941 8.50557 14.7183 8.63029 14.4867C8.6637 14.4288 8.68597 14.3709 8.71269 14.313C8.73719 14.2528 8.75724 14.1905 8.78174 14.1326C8.82851 14.0145 8.87751 13.9032 8.93096 13.8119C8.94432 13.7874 8.95991 13.7651 8.97328 13.7428C8.92651 13.7428 8.87973 13.7428 8.83519 13.7406C8.5412 13.7294 8.24944 13.7116 7.96214 13.7116C7.8931 13.7116 7.82405 13.7116 7.75501 13.7139C7.75501 13.725 7.75279 13.7384 7.74833 13.7517C7.73051 13.8386 7.68374 13.9566 7.61024 14.0813C7.53897 14.2083 7.43875 14.3419 7.34298 14.4845C7.2539 14.6337 7.15813 14.794 7.06236 14.9522C6.96882 15.1125 6.86637 15.2684 6.78619 15.4243C6.70601 15.5802 6.63252 15.725 6.57016 15.8475C6.44321 16.0947 6.35857 16.2617 6.35857 16.2617L6.28285 16.2306C6.28285 16.2306 6.36303 16.0613 6.4833 15.8096C6.54343 15.6827 6.6147 15.5357 6.69042 15.3776C6.76615 15.2194 6.86637 15.0591 6.95546 14.8943C7.04677 14.7294 7.14031 14.5669 7.22494 14.4132C7.32071 14.264 7.41426 14.1303 7.47662 14.0101C7.5412 13.892 7.57684 13.7918 7.5902 13.7183C7.43207 13.7294 7.27617 13.7495 7.12695 13.7829C7 13.8163 6.87305 13.8608 6.76837 13.9232C6.65479 13.9878 6.53898 14.0658 6.42762 14.1415C5.98218 14.4444 5.57461 14.7428 5.22272 14.9967C5.13363 15.1014 5.04677 15.2372 4.97327 15.3776C4.8686 15.5802 4.78396 15.794 4.72828 15.9566C4.6726 16.1192 4.64142 16.2306 4.64142 16.2306L4.56125 16.2127C4.56125 16.2127 4.58797 16.0992 4.63697 15.9321C4.68597 15.7651 4.76169 15.5424 4.86192 15.3286C4.87973 15.2907 4.89978 15.2528 4.91759 15.215C4.6971 15.3731 4.51002 15.509 4.36526 15.6136C4.26281 15.6871 4.17817 15.7428 4.12027 15.7829C4.06013 15.8208 4.02895 15.8408 4.02895 15.8408L3.96437 15.7406C3.96437 15.7406 3.99332 15.7205 4.04677 15.6827C4.10022 15.6426 4.1804 15.5847 4.2784 15.5067C4.47662 15.3486 4.75947 15.1259 5.098 14.8564C5.37639 14.6337 5.69488 14.3798 6.04232 14.1147C6.01336 14.1147 5.98441 14.1147 5.95323 14.1103C5.81737 14.0992 5.66592 14.0724 5.50779 14.0368C5.34966 14.0034 5.18486 13.9611 5.02005 13.9433C4.85301 13.9321 4.67929 13.9366 4.52116 13.9343C4.3608 13.9321 4.21158 13.9343 4.08241 13.9343C3.82405 13.9366 3.65033 13.9388 3.65033 13.9388V13.8608C3.65033 13.8608 3.82183 13.8542 4.08018 13.843C4.20936 13.8386 4.35857 13.8319 4.52116 13.8297C4.68374 13.8297 4.85524 13.8185 5.03341 13.8252C5.21158 13.8386 5.38085 13.8787 5.53897 13.9076C5.69488 13.9366 5.84187 13.9611 5.96436 13.9655C6.08686 13.9722 6.18708 13.9588 6.24944 13.941C6.26281 13.9388 6.27172 13.9343 6.28285 13.9321C6.38976 13.8542 6.49666 13.774 6.61693 13.696C6.75056 13.6092 6.89532 13.5513 7.04454 13.5067C7.34521 13.4221 7.65256 13.3909 7.95323 13.3798C8.23831 13.3686 8.51893 13.3709 8.79065 13.3709C8.75278 13.3486 8.7127 13.3241 8.67261 13.2951C8.50334 13.1838 8.30735 13.0568 8.09354 12.9277C7.88419 12.7896 7.64811 12.6738 7.39644 12.5869C7.14477 12.5 6.88419 12.4399 6.63475 12.3998C6.5078 12.3776 6.39421 12.3686 6.26949 12.3486C6.1559 12.3241 6.04677 12.2996 5.94878 12.2796C5.75056 12.2372 5.58575 12.215 5.47216 12.215C5.41426 12.2127 5.36971 12.2172 5.34076 12.2216C5.3118 12.2261 5.29399 12.2261 5.29399 12.2261L5.27617 12.1504C5.27617 12.1504 5.29399 12.1482 5.32739 12.1437L5.32916 12.1435C5.36252 12.139 5.41089 12.1326 5.47216 12.1326C5.59466 12.1326 5.76837 12.1504 5.96882 12.1905C6.06904 12.2105 6.17595 12.2328 6.29176 12.2551C6.39866 12.2707 6.53007 12.2796 6.65479 12.2996C6.90869 12.3352 7.17817 12.3909 7.44098 12.4778C7.70156 12.5624 7.95546 12.6827 8.16704 12.8163C8.38753 12.9433 8.58574 13.068 8.75501 13.1749C8.87973 13.2573 8.99555 13.3152 9.09132 13.362L9.09715 13.3617C9.14881 13.3596 9.20231 13.3573 9.25167 13.3531C9.39198 13.3375 9.53007 13.3219 9.66815 13.3085C9.80178 13.2929 9.92428 13.2751 10.0134 13.2417C10.0646 13.2217 10.1069 13.1949 10.147 13.1615H10.1114C9.81292 13.1415 9.48329 12.9655 9.18931 12.7695C8.89309 12.5713 8.61915 12.3508 8.40535 12.1972C8.29844 12.1192 8.20936 12.0591 8.14477 12.0212C8.08018 11.9833 8.04009 11.9678 8.04009 11.9678L8.0735 11.8965C8.0735 11.8965 8.11804 11.9143 8.18708 11.9522C8.25612 11.99 8.35189 12.0502 8.46103 12.1259C8.68151 12.2751 8.95991 12.4889 9.25612 12.6738C9.40312 12.7673 9.55679 12.8497 9.70379 12.9143C9.85301 12.9744 9.99777 13.0168 10.118 13.019C10.1804 13.0212 10.2339 13.0168 10.2806 13.0056C10.3207 12.9477 10.3608 12.8876 10.3987 12.823L10.407 12.8105C10.407 12.8107 10.4076 12.8096 10.4076 12.8096L10.407 12.8105C10.407 12.8102 10.4076 12.8085 10.4098 12.8029L10.4276 12.7651C10.441 12.7406 10.4521 12.7139 10.4633 12.6894C10.4877 12.6404 10.5122 12.5891 10.5345 12.5424C10.8107 11.9678 11.0178 11.5379 11.1047 11.362C11.098 11.3441 11.0913 11.3196 11.0846 11.2996L11.0757 11.2261C11.069 11.1326 11.069 11.0435 11.069 10.9544C11.069 10.7762 11.0777 10.6023 11.0865 10.4263L11.0869 10.4199C11.1047 10.0635 11.1292 9.7094 11.1537 9.35528L11.2851 7.60472C11.1114 7.72499 10.9198 7.86085 10.7127 7.99448C10.5991 8.0702 10.4788 8.14815 10.3608 8.22833C10.2428 8.31074 10.1203 8.39537 9.99555 8.48445C9.9755 8.49782 9.95768 8.51341 9.93764 8.52677V8.57355C9.94655 8.70272 9.96436 8.85639 9.98664 9.0212C10.0067 9.18601 10.0423 9.3575 10.0601 9.54236C10.069 9.72722 10.0423 9.91208 9.99332 10.0769C9.94209 10.2395 9.88196 10.3865 9.83742 10.509C9.81292 10.5713 9.7951 10.6292 9.77951 10.6804C9.76169 10.7317 9.75056 10.7762 9.74387 10.8141C9.72828 10.8876 9.71715 10.9299 9.71715 10.9299L9.63697 10.9188L9.66147 10.7963C9.66815 10.7562 9.67929 10.7094 9.69488 10.6582C9.71047 10.6047 9.72828 10.5446 9.75056 10.4822C9.79287 10.3531 9.84855 10.2083 9.8931 10.0502C9.93541 9.89203 9.95546 9.72054 9.94209 9.55127C9.92205 9.38423 9.88196 9.20383 9.85523 9.04125C9.83073 8.89871 9.81069 8.76285 9.79733 8.64036C9.74388 8.6849 9.6882 8.73167 9.63252 8.77621C9.57238 8.82744 9.50557 8.87867 9.44766 8.92767C9.39198 8.97666 9.33853 9.03011 9.28285 9.09024C9.17372 9.21051 9.06013 9.34192 8.93318 9.47332C8.80401 9.60249 8.6637 9.73835 8.47439 9.8408C8.38085 9.89425 8.26726 9.92989 8.1559 9.94771C8.04231 9.96775 7.92873 9.96107 7.82851 9.94771C7.80401 9.94548 7.77951 9.9388 7.75501 9.93657L7.7461 9.95216C7.7461 9.95216 7.73942 9.94548 7.69265 9.94548C7.64588 9.9477 7.56793 9.97443 7.47884 10.0234C7.38975 10.0724 7.28953 10.1415 7.18931 10.2239C7.09131 10.3085 6.99332 10.4021 6.92873 10.5201C6.78619 10.7495 6.71938 11.0257 6.61915 11.2172C6.59911 11.2662 6.57015 11.3085 6.54788 11.3464C6.52784 11.3842 6.50334 11.4176 6.4833 11.4421C6.44321 11.4934 6.42094 11.5223 6.42094 11.5223L6.35857 11.4711C6.35857 11.4711 6.37862 11.4444 6.41425 11.3954C6.43207 11.3731 6.45212 11.3419 6.47216 11.3041C6.4922 11.2662 6.5167 11.2283 6.53452 11.1793C6.57684 11.0858 6.61692 10.9722 6.65924 10.8475C6.70378 10.725 6.75056 10.5869 6.82405 10.4622C6.89087 10.3308 6.99777 10.2194 7.09799 10.1281C7.20044 10.0346 7.30512 9.95885 7.40534 9.90094C7.42316 9.8898 7.44098 9.88089 7.4588 9.87198C7.39421 9.85417 7.32739 9.83635 7.26503 9.81853L7.00223 9.74281C6.95991 9.73168 6.91759 9.72054 6.87528 9.71163L6.81292 9.69827L6.74387 9.68713C6.63252 9.66041 6.55679 9.6359 6.46548 9.6114C6.37862 9.5869 6.29176 9.56241 6.20713 9.54014C6.10245 9.51341 5.99777 9.48891 5.89532 9.47332C5.87528 9.48445 5.84855 9.50005 5.81514 9.52009C5.77951 9.54237 5.73274 9.56686 5.68151 9.59804L5.67612 9.60108C5.6261 9.62934 5.56821 9.66203 5.51447 9.70718C5.27171 9.87199 4.98664 10.1392 4.73051 10.431C4.47662 10.7272 4.24276 11.0413 4.06236 11.2729C3.87973 11.5045 3.75724 11.6582 3.75724 11.6582L3.69265 11.6114C3.69265 11.6114 3.81069 11.4555 3.98441 11.2194C4.15813 10.9833 4.3853 10.6626 4.63474 10.3553C4.88864 10.0524 5.17595 9.7673 5.42539 9.59136C5.4833 9.54236 5.54343 9.50673 5.59688 9.47332C5.60579 9.46886 5.61247 9.46441 5.61915 9.45996C5.50334 9.47332 5.38753 9.51564 5.26726 9.56686C4.97105 9.70717 4.6971 9.88757 4.42316 10.0502L4.37194 10.0813C4.35858 10.0902 4.32962 10.1058 4.3118 10.1125L4.2049 10.1593C4.16927 10.1749 4.13586 10.1905 4.10022 10.2061L4.10468 10.215C4.10468 10.215 4.06904 10.2261 4.00891 10.2461C4.00445 10.2461 4 10.2506 3.99555 10.2528C3.87082 10.3063 3.75056 10.3642 3.63029 10.4087L3.64143 10.4243C3.64143 10.4243 3.61915 10.4377 3.58352 10.4622C3.54788 10.4867 3.48998 10.5156 3.42984 10.5646C3.30512 10.6537 3.15145 10.7918 3.00446 10.9388C2.85969 11.0858 2.71938 11.2417 2.61247 11.3553C2.50334 11.4689 2.43207 11.5468 2.43207 11.5468L2.36971 11.4956C2.36971 11.4956 2.43652 11.4176 2.53897 11.2996C2.6392 11.1816 2.77283 11.019 2.91091 10.8631C3.00223 10.7629 3.09799 10.6671 3.18708 10.5825C2.85078 10.7094 2.56125 10.8074 2.34299 10.8853C2.04009 10.99 1.86637 11.0502 1.86637 11.0502L1.82183 10.941C1.82183 10.941 1.99332 10.8742 2.29176 10.7584C2.57461 10.647 2.97327 10.4934 3.44098 10.2907C3.23608 10.2617 3.00891 10.1882 2.79956 10.0992C2.50112 9.9722 2.22049 9.82076 2.00445 9.72054C1.78842 9.61809 1.6392 9.56686 1.6392 9.56686L1.66592 9.49336C1.66592 9.49336 1.82183 9.54237 2.04232 9.63813C2.26503 9.73168 2.55011 9.87421 2.8441 9.99002C3.13809 10.1058 3.44544 10.1793 3.67261 10.1593C3.69488 10.1593 3.71492 10.1548 3.73719 10.1548C3.79065 10.1281 3.8441 10.1014 3.90201 10.0747C3.96882 10.0435 4.03563 10.0101 4.10245 9.97666C4.13586 9.96107 4.17149 9.94325 4.2049 9.92766C4.22495 9.91875 4.2294 9.91653 4.24722 9.90317L4.29622 9.87198C4.55457 9.70495 4.82628 9.51119 5.14477 9.34637C5.18486 9.32633 5.22717 9.30851 5.26949 9.28847C5.30958 9.26842 5.35635 9.25283 5.40312 9.23947L5.4098 9.23724C5.45416 9.22241 5.49709 9.20807 5.55011 9.20383C5.59688 9.19715 5.64365 9.19047 5.6882 9.19047C5.55011 9.13034 5.40534 9.0702 5.26058 9.00784C4.91982 8.86085 4.61024 8.66708 4.37639 8.53345C4.26058 8.46218 4.15813 8.4221 4.08686 8.38424C4.01559 8.35083 3.9755 8.33078 3.9755 8.33078L4.00668 8.25951C4.00668 8.25951 4.049 8.27733 4.12249 8.31073C4.19376 8.34637 4.30512 8.38646 4.42094 8.45551C4.6637 8.58468 4.97328 8.76731 5.30512 8.90094C5.59466 9.0123 5.88641 9.12811 6.12027 9.23056C6.17149 9.23947 6.22272 9.25061 6.27172 9.26174C6.36303 9.28179 6.45211 9.30405 6.5412 9.32632C6.62583 9.3486 6.72606 9.3731 6.7951 9.38646L6.86191 9.39537L6.93541 9.40874C6.98441 9.41764 7.03118 9.42878 7.07795 9.43991L7.34967 9.50672C7.52561 9.55127 7.70156 9.59359 7.86192 9.60918C7.94432 9.61586 8.01559 9.61809 8.08241 9.6025C8.15145 9.58691 8.21158 9.56686 8.27394 9.529C8.28508 9.52232 8.29844 9.51341 8.30958 9.5045C8.2049 9.49114 8.09132 9.46664 7.97105 9.43323C7.90201 9.41319 7.83296 9.39091 7.75946 9.35528C7.69265 9.31519 7.63029 9.27733 7.56793 9.23279C7.32517 9.05907 7.12249 8.85416 6.95323 8.72053C6.8686 8.65595 6.79733 8.60027 6.74387 8.57132C6.69042 8.54014 6.66147 8.52009 6.66147 8.52009L6.69933 8.45105C6.69933 8.45105 6.73274 8.46887 6.78842 8.50227C6.84778 8.53306 6.92017 8.58554 7.00772 8.64901L7.01113 8.65149C7.18931 8.7829 7.40312 8.97889 7.63697 9.13702C7.69488 9.17488 7.75947 9.21052 7.81737 9.2417C7.87528 9.26842 7.94432 9.28624 8.00668 9.30406C8.13586 9.33747 8.26058 9.35751 8.36526 9.36419C8.40534 9.36864 8.44098 9.36864 8.47661 9.36419C8.52784 9.31742 8.57684 9.26619 8.62361 9.21497C8.73497 9.09247 8.83742 8.96107 8.951 8.82744C9.00668 8.76285 9.06904 8.69158 9.13586 8.63145C9.20267 8.56909 9.26281 8.51786 9.32739 8.45996C9.41203 8.38646 9.49443 8.31074 9.57684 8.23947C9.29621 8.23502 8.96882 8.17265 8.65701 8.09248C8.2628 7.99003 7.87528 7.87421 7.57684 7.82744C7.50334 7.81408 7.4343 7.80294 7.37416 7.79849C7.31403 7.79403 7.26058 7.78513 7.21603 7.78735H7.08018L7.07572 7.7094H7.21826C7.26503 7.70718 7.31848 7.71385 7.38085 7.71831C7.44321 7.72053 7.51448 7.73167 7.5902 7.74281C7.89755 7.78512 8.29176 7.89203 8.68374 7.98334C9.0735 8.07465 9.47216 8.13256 9.76169 8.0947C9.86414 8.01675 9.96659 7.94102 10.0646 7.8653C10.1849 7.77621 10.3007 7.69604 10.4098 7.61586C10.6347 7.45773 10.8241 7.31074 11 7.18156L11.0312 7.15706C11.0445 7.14815 11.0445 7.14815 11.0468 7.1437C11.0624 7.12811 11.0757 7.11252 11.0913 7.09693C11.1269 7.0613 11.1604 7.02566 11.1915 6.99225C11.2361 6.94548 11.2806 6.90094 11.3252 6.85639C11.3408 6.64036 11.3541 6.42432 11.3675 6.20828C11.0802 6.29514 10.7238 6.41987 10.3007 6.56018C10.1604 6.60472 10.0156 6.65372 9.85969 6.69381C9.78174 6.71386 9.70601 6.73835 9.62361 6.7584C9.54343 6.77621 9.46102 6.79626 9.37862 6.81408C9.29844 6.83412 9.20713 6.84971 9.11804 6.86753C9.02673 6.87867 8.93096 6.89426 8.83519 6.89426C8.64365 6.90539 8.44766 6.8898 8.25613 6.85639C8.22717 6.85194 8.19822 6.84526 8.17149 6.84081C8.01336 6.86308 7.83964 6.8898 7.65256 6.91653C7.53898 6.93435 7.42094 6.94771 7.3029 6.9633C7.24276 6.96775 7.1804 6.97444 7.11804 6.97889L6.93541 6.98334C6.69265 6.99225 6.44989 6.98334 6.23385 7.03234C6.01336 7.06575 5.8196 7.13924 5.65479 7.21274C5.48998 7.28624 5.35412 7.35082 5.2539 7.39091C5.15367 7.42877 5.09577 7.44882 5.09577 7.44882L5.06904 7.37533C5.06904 7.37533 5.12472 7.35528 5.22049 7.31519C5.31626 7.2751 5.44989 7.20829 5.6147 7.13034C5.77951 7.05239 5.98218 6.9722 6.21381 6.93211C6.44321 6.87866 6.69265 6.88089 6.93319 6.86753C7.17595 6.86308 7.40757 6.82521 7.63474 6.78735C7.70156 6.77621 7.76615 6.76508 7.82851 6.75394C7.59911 6.6849 7.37417 6.59582 7.1559 6.5045C6.98218 6.42878 6.80846 6.35305 6.63252 6.2751C6.54788 6.23501 6.46102 6.20606 6.37416 6.17711C6.2873 6.15038 6.20267 6.11252 6.11358 6.09247C5.4677 5.90762 4.7706 5.94325 4.09799 5.92989H4.09354C4.02895 5.92989 3.96437 5.92766 3.90201 5.92544C3.88642 5.93434 3.86637 5.94326 3.84187 5.95662C3.77506 5.99225 3.67929 6.0457 3.56125 6.09693C3.32517 6.20606 3.00223 6.33078 2.66147 6.41542C2.32294 6.49114 1.98886 6.56018 1.76837 6.67377C1.65924 6.72945 1.57461 6.78958 1.52784 6.83858C1.50111 6.86085 1.48775 6.88535 1.47439 6.89871C1.46325 6.91207 1.45657 6.92098 1.45657 6.92098L1.38753 6.87866L1.40757 6.85194C1.42094 6.83635 1.43653 6.80962 1.46548 6.7829C1.5167 6.72499 1.60579 6.65595 1.72383 6.59359C1.95768 6.46441 2.30067 6.38646 2.63029 6.30183C2.95323 6.21051 3.26949 6.08134 3.49443 5.96775C3.53452 5.94993 3.57238 5.92989 3.60579 5.91207C3.34076 5.89426 3.08463 5.86085 2.8441 5.82299C2.5167 5.76731 2.20713 5.71608 1.92205 5.66931C1.63697 5.62477 1.37639 5.59136 1.14477 5.57577C0.91314 5.56241 0.710467 5.55795 0.545656 5.57577C0.463251 5.578 0.389755 5.59136 0.327394 5.60027C0.262807 5.60695 0.209354 5.61809 0.167038 5.627C0.0801782 5.64481 0.0356356 5.65595 0.0356356 5.65595L0 5.54236C0 5.54236 0.0489967 5.53123 0.138084 5.50673C0.182627 5.49336 0.238306 5.48223 0.305121 5.47109C0.371937 5.45996 0.447661 5.44437 0.532294 5.43769C0.703786 5.41541 0.913142 5.41319 1.15368 5.41764C1.39198 5.42655 1.65924 5.45105 1.94877 5.48668C2 5.49336 2.05345 5.50004 2.10691 5.50673C1.91537 5.3976 1.70378 5.26619 1.48107 5.14593C1.18485 4.98557 0.877507 4.84526 0.634745 4.77621C0.574612 4.75617 0.518932 4.74726 0.467707 4.73613C0.41871 4.72499 0.374166 4.71608 0.338531 4.71608C0.267262 4.71163 0.224943 4.7094 0.224943 4.7094L0.220491 4.63145C0.220491 4.63145 0.265035 4.63145 0.342986 4.6359C0.383075 4.6359 0.429845 4.64259 0.48107 4.65372C0.534522 4.66263 0.594654 4.67154 0.657015 4.69158C0.910912 4.75617 1.23162 4.8898 1.53675 5.0457C1.84187 5.19938 2.13586 5.37755 2.35857 5.48223C2.44321 5.52232 2.51893 5.55127 2.58129 5.57132C2.85969 5.60918 3.14922 5.64481 3.45212 5.66263C3.30958 5.57354 3.16481 5.46441 3.02895 5.34192C2.80846 5.13925 2.62138 4.90316 2.5167 4.70717C2.46102 4.6114 2.42762 4.52455 2.40535 4.46441C2.3853 4.40205 2.37417 4.36865 2.37417 4.36865L2.45211 4.3486C2.45211 4.3486 2.46325 4.382 2.48552 4.43991C2.5078 4.49559 2.54343 4.578 2.59911 4.66709C2.70601 4.85194 2.8931 5.07243 3.11136 5.25951C3.32739 5.44214 3.57238 5.59359 3.7706 5.67376H3.89755C4.25612 5.67376 4.62806 5.65372 5.01559 5.65372C5.3853 5.65372 5.7706 5.67599 6.14476 5.76508C6.03341 5.59581 5.90423 5.38646 5.73719 5.21052C5.53897 5.00339 5.32517 4.80294 5.14477 4.68713C5.05568 4.62922 4.9755 4.59136 4.91759 4.57354C4.85969 4.5535 4.82628 4.55573 4.82628 4.5535L4.83074 4.47554C4.83074 4.47554 4.87305 4.47554 4.93987 4.49559C5.00668 4.51341 5.098 4.5535 5.19599 4.61141C5.39198 4.72945 5.6147 4.92543 5.82628 5.13033C6.04009 5.34414 6.19376 5.59359 6.32294 5.76508C6.33853 5.78512 6.35189 5.80517 6.36526 5.82299C6.40535 5.83635 6.44544 5.84971 6.48775 5.86085C6.58575 5.8898 6.68151 5.92098 6.7706 5.95884C6.94877 6.02788 7.12472 6.09915 7.30067 6.1682C7.64811 6.30183 7.98886 6.41542 8.32071 6.45773C8.48552 6.48001 8.64811 6.48668 8.80624 6.47332C8.84633 6.47332 8.88419 6.46887 8.92205 6.46218C8.95991 6.4555 8.99777 6.45327 9.03564 6.44436C9.11136 6.42655 9.18708 6.41096 9.26503 6.38868C9.34299 6.36864 9.41871 6.3486 9.49443 6.32855C9.57016 6.30851 9.64142 6.28178 9.71492 6.25951C9.77283 6.24169 9.83073 6.22165 9.88641 6.20383C9.84632 6.17265 9.80624 6.13924 9.76615 6.09916C9.65854 5.9937 9.54886 5.8633 9.43509 5.72803L9.42316 5.71385C9.36303 5.64258 9.30067 5.57131 9.23385 5.50673C9.16481 5.44214 9.08909 5.37755 9.00891 5.31742C8.69488 5.07465 8.34744 4.86976 8.0735 4.74949C7.93541 4.68936 7.81737 4.6515 7.73274 4.63368C7.69042 4.62254 7.65701 4.62031 7.63474 4.61809C7.61247 4.61586 7.59911 4.61364 7.59911 4.61364L7.60356 4.53568C7.60356 4.53568 7.61693 4.53568 7.64142 4.54014C7.66592 4.54236 7.70379 4.54459 7.74833 4.55573C7.83964 4.57132 7.96659 4.60918 8.10913 4.66709C8.39644 4.78513 8.75501 4.98557 9.0824 5.22611C9.16481 5.28624 9.24499 5.3486 9.32071 5.41764C9.39644 5.48668 9.46325 5.56018 9.52561 5.62922C9.65033 5.76954 9.76392 5.89871 9.8686 5.99671C9.93541 6.05907 10 6.10584 10.0579 6.14147C10.0802 6.13256 10.1047 6.12366 10.1269 6.11698C10.6281 5.93212 11.0601 5.76285 11.3875 5.6604V5.63368C11.392 5.45996 11.3987 5.2751 11.3786 5.11697L11.4187 5.11029C11.3519 4.66263 11.3073 4.21942 11.2539 3.77399L11.0935 2.43991L13.5367 2.58691L13.4499 4.24838C13.4922 4.27956 13.5323 4.31074 13.5746 4.33969L13.9933 4.67377C14.0557 4.72054 14.1492 4.79626 14.2138 4.85862C14.2851 4.92321 14.3474 4.98557 14.412 5.05016L14.7884 5.42655C14.9131 5.54905 15.0379 5.66931 15.167 5.77844C15.294 5.88757 15.4298 5.99225 15.559 6.05684C15.588 6.0702 15.6281 6.09024 15.6414 6.09024C15.6503 6.0947 15.657 6.0947 15.6771 6.09024C15.7082 6.08134 15.7506 6.07243 15.7929 6.05907L15.9198 6.01898C16.0067 5.99225 16.0935 5.9633 16.1893 5.9388L16.1982 5.93641C16.2869 5.91259 16.3808 5.88735 16.5122 5.88089C16.5078 5.88089 16.5033 5.89203 16.4967 5.90316C16.539 5.88312 16.5857 5.85862 16.637 5.82967C16.7416 5.77176 16.8641 5.70049 16.9955 5.62254C17.0624 5.58468 17.1292 5.54459 17.2027 5.50673C17.2361 5.48891 17.2829 5.46664 17.314 5.45551L17.4276 5.40651C17.5033 5.37533 17.5791 5.33969 17.6548 5.31073C17.7327 5.28401 17.8085 5.25951 17.8797 5.23501C17.9176 5.22165 17.9532 5.21051 17.9889 5.19938L18.0958 5.17265C18.1648 5.15483 18.2294 5.13924 18.2895 5.12365C18.3497 5.10584 18.4053 5.10139 18.4566 5.09248C18.5056 5.08579 18.5501 5.07911 18.5857 5.07465C18.657 5.06575 18.6993 5.05907 18.6993 5.05907L18.706 5.13702C18.706 5.13702 18.6659 5.1437 18.5969 5.15706C18.5612 5.16374 18.5212 5.17043 18.4722 5.17711C18.4232 5.18602 18.3697 5.1927 18.3118 5.21052C18.2539 5.22611 18.1893 5.24392 18.1225 5.26397C18.0891 5.27287 18.0557 5.28401 18.02 5.29292C17.9866 5.30628 17.951 5.31742 17.9154 5.33078C17.8463 5.3575 17.7728 5.38423 17.6971 5.41096C17.6236 5.44214 17.5523 5.47778 17.4811 5.51119L17.3719 5.56241C17.3274 5.58022 17.3029 5.59582 17.265 5.61586C17.1982 5.65372 17.1314 5.69604 17.0668 5.7339C17 5.77622 16.9376 5.81408 16.8775 5.85194H17.0245C17.2027 5.85862 17.3831 5.87421 17.5679 5.91653C17.6125 5.92543 17.6592 5.9388 17.706 5.95439L17.7751 5.97666L17.8352 6.00339L17.9978 6.07466C18.0557 6.07466 18.1247 6.07911 18.2004 6.09024C18.4432 6.11252 18.7617 6.15929 19.0802 6.2016C19.3987 6.23946 19.7149 6.25951 19.9532 6.24615C20.0134 6.24615 20.0668 6.23947 20.1136 6.23279C20.1604 6.2261 20.2027 6.22165 20.2383 6.21719C20.3073 6.20829 20.3452 6.20383 20.3452 6.20383L20.363 6.27956C20.363 6.27956 20.3229 6.28624 20.2517 6.29738C20.216 6.30406 20.1737 6.31074 20.1247 6.31742C20.0757 6.32633 20.02 6.33523 19.9599 6.33523C19.7149 6.35751 19.3898 6.34637 19.0668 6.31742C18.8107 6.29292 18.5568 6.26397 18.343 6.24615L18.5412 6.35528C19.1336 6.7094 19.6526 7.13257 20.1982 7.50896L20.4031 7.64926C20.4477 7.68044 20.4944 7.7094 20.5412 7.73613C20.6214 7.74058 20.7216 7.75171 20.833 7.7673C20.98 7.7918 21.147 7.82744 21.3229 7.86085C21.5011 7.89648 21.686 7.91207 21.8797 7.92098C22.2673 7.95439 22.6503 7.92989 22.9354 7.89425C23.0757 7.86976 23.1938 7.8408 23.2762 7.82298C23.3586 7.80517 23.4053 7.79626 23.4053 7.79626L23.4276 7.86976C23.4276 7.86976 23.3808 7.88089 23.2962 7.90094C23.2116 7.91875 23.0935 7.95216 22.951 7.98112C22.8775 7.99003 22.7996 8.00116 22.7149 8.01007C22.6303 8.02121 22.5434 8.03457 22.4499 8.03457C22.3563 8.03679 22.2628 8.03902 22.1648 8.04348C22.069 8.04348 21.971 8.03902 21.8731 8.0368C21.6793 8.03457 21.4766 8.01898 21.2962 7.9878C21.1203 7.95885 20.9621 7.92989 20.8241 7.90985C20.8931 7.94994 20.9644 7.99003 21.0356 8.03012C21.3252 8.18379 21.6325 8.29738 21.9577 8.35751C22.2806 8.41987 22.6214 8.44437 22.9555 8.46219C23.1203 8.46219 23.2918 8.45105 23.4655 8.45105C23.5523 8.45105 23.6392 8.45551 23.7305 8.46887C23.8196 8.48446 23.9154 8.50227 24 8.57577L23.9131 8.6604C23.8686 8.62254 23.7906 8.60472 23.7127 8.59581L23.706 8.60472Z" fill="#1B1B1B"/>
</svg>
