<svg width="24" height="26" viewBox="0 0 24 26" fill="none" xmlns="http://www.w3.org/2000/svg">
<path d="M23.4816 8.3757C23.332 8.31691 23.1476 8.2608 22.9365 8.18865C22.7255 8.11384 22.4823 8.04971 22.2204 7.97222C22.0895 7.93481 21.9479 7.90809 21.8063 7.87336C21.7341 7.85732 21.662 7.83862 21.5872 7.82259C21.5124 7.80923 21.4349 7.79854 21.3601 7.78518C21.2585 7.77182 21.157 7.75044 21.0554 7.73708C21.1062 7.76647 21.157 7.79854 21.2078 7.8306C21.499 8.03902 21.7528 8.27683 21.9719 8.41043C22.0788 8.47723 22.1777 8.52266 22.2472 8.54136C22.3166 8.56274 22.3567 8.56006 22.3567 8.56273L22.3514 8.64556C22.3514 8.64556 22.3407 8.64557 22.3166 8.6429C22.2953 8.64022 22.2605 8.63755 22.2231 8.62687C22.143 8.61083 22.0361 8.56274 21.9185 8.49327C21.6834 8.35966 21.4162 8.12453 21.1329 7.93482C21.0608 7.88939 20.9886 7.84396 20.9138 7.81457C20.839 7.78518 20.7535 7.76915 20.6787 7.7451C20.6012 7.72105 20.521 7.71571 20.4516 7.69968C20.3794 7.68632 20.31 7.67563 20.2432 7.67296C20.2405 7.67296 20.2351 7.67296 20.2325 7.67296C20.1149 7.67296 19.9973 7.67296 19.8744 7.67296C19.7007 7.67296 19.519 7.69433 19.34 7.70502L19.2037 7.71303C19.185 7.71303 19.153 7.7157 19.1423 7.71838L19.0755 7.72906C18.9846 7.73975 18.8965 7.75312 18.8056 7.76648C18.7174 7.77717 18.6266 7.79053 18.5384 7.80122C18.6934 7.91878 18.8377 8.08177 18.9659 8.24476C19.1583 8.48792 19.332 8.74176 19.4816 8.9101C19.5564 8.9956 19.6259 9.05706 19.6767 9.09447C19.7007 9.11317 19.7221 9.12653 19.7381 9.13455C19.7515 9.14256 19.7595 9.1479 19.7595 9.1479L19.7194 9.22272C19.7194 9.22272 19.7114 9.21738 19.6927 9.20936C19.6767 9.20135 19.65 9.18531 19.6232 9.16661C19.5645 9.12653 19.487 9.05973 19.4068 8.97422C19.2438 8.80322 19.0595 8.55472 18.8644 8.32225C18.688 8.11116 18.4903 7.91878 18.3059 7.8306C18.2899 7.8306 18.2766 7.83595 18.2605 7.83595C18.0788 7.86267 17.8971 7.88939 17.7128 7.91611C17.5337 7.94283 17.3494 7.96955 17.165 7.99093C16.9806 8.0123 16.7989 8.03368 16.6172 8.05773C16.4355 8.08177 16.2645 8.0791 16.0909 8.09246C16.0053 8.09781 15.9198 8.10048 15.8343 8.10582L15.7087 8.11384H15.6767H15.6607H15.6526H15.6313H15.5618C15.4709 8.10849 15.3801 8.10315 15.2919 8.08979C15.2011 8.0791 15.1156 8.06306 15.0301 8.04436C14.6907 7.96687 14.3941 7.84129 14.1403 7.71571C13.8838 7.59012 13.6647 7.46721 13.4696 7.37102C13.328 7.30154 13.2051 7.24276 13.0929 7.19466C13.1009 7.86534 13.1089 8.51197 13.1142 9.08645C13.1677 9.11317 13.2318 9.14523 13.3039 9.18264C13.5605 9.31357 13.9051 9.51664 14.3246 9.72773C14.7415 9.93615 15.2438 10.1472 15.8076 10.1499C15.8771 10.1499 15.9492 10.1499 16.0187 10.1419C16.0908 10.1339 16.1576 10.1312 16.2378 10.1178C16.3901 10.0965 16.5478 10.0724 16.7027 10.051C17.018 10.0083 17.336 9.95752 17.6593 9.92278C17.8223 9.90675 17.9826 9.89073 18.143 9.87202C18.3059 9.86134 18.4689 9.85866 18.6293 9.85064C18.7094 9.84797 18.7896 9.8453 18.8697 9.83995C18.9633 9.8453 19.0247 9.8453 19.1156 9.85598C19.2919 9.88003 19.4469 9.92813 19.5939 9.99226C19.7595 10.0644 19.9065 10.1499 20.0454 10.2354C20.1176 10.2434 20.2138 10.2541 20.3287 10.2702C20.5772 10.2969 20.9218 10.3476 21.2478 10.4305C21.5711 10.5187 21.8998 10.5721 22.1483 10.6042C22.2712 10.6202 22.3754 10.6202 22.4476 10.6255C22.5197 10.6309 22.5625 10.6335 22.5625 10.6335V10.7164C22.5625 10.7164 22.5197 10.7164 22.4449 10.7137C22.3701 10.7084 22.2632 10.7137 22.1376 10.7003C21.8838 10.6763 21.5444 10.6309 21.2184 10.5534C20.9245 10.4893 20.6359 10.4518 20.3955 10.4305C20.6279 10.5454 20.8444 10.6656 21.0528 10.7431C21.1623 10.7885 21.2665 10.8339 21.3681 10.874C21.4696 10.9141 21.5685 10.9515 21.6593 10.9862C21.841 11.0557 22.0013 11.1172 22.1323 11.1706C22.3941 11.2775 22.5438 11.3363 22.5438 11.3363L22.493 11.4512C22.493 11.4512 22.3434 11.3977 22.0815 11.2989C21.9506 11.2508 21.7902 11.1947 21.6059 11.1305C21.5124 11.0985 21.4162 11.0637 21.3093 11.029C21.2051 10.9889 21.0955 10.9488 20.9833 10.9061C20.7508 10.8259 20.521 10.7084 20.2699 10.5935C20.0107 10.4705 19.7702 10.3102 19.5057 10.206C19.4736 10.1927 19.4415 10.182 19.4068 10.1713C19.4576 10.2381 19.503 10.3102 19.5484 10.385C19.5832 10.4438 19.6206 10.4999 19.6607 10.5534C19.7061 10.6202 19.7408 10.6763 19.7809 10.7404C19.8611 10.8633 19.9332 10.9889 20.0027 11.1092C20.0721 11.2267 20.1363 11.3336 20.1924 11.4271C20.3126 11.6062 20.3955 11.7264 20.3955 11.7264L20.326 11.7772C20.326 11.7772 20.2378 11.6569 20.1096 11.4806C19.9866 11.2989 19.8343 11.0477 19.6713 10.8099C19.6313 10.7511 19.5885 10.687 19.5511 10.6362C19.503 10.5774 19.4629 10.5186 19.4228 10.4599C19.3454 10.345 19.2786 10.2461 19.2064 10.174C19.1797 10.1446 19.1503 10.1232 19.1236 10.1072C19.1156 10.1072 19.1076 10.1045 19.0969 10.1045C19.0301 10.0965 18.9365 10.0991 18.8751 10.0965C18.7976 10.1018 18.7201 10.1072 18.6426 10.1125C18.4876 10.1259 18.33 10.1312 18.1723 10.1472C18.0147 10.1686 17.857 10.19 17.6994 10.2114C17.3841 10.2541 17.0688 10.3156 16.7562 10.3663C16.6012 10.3931 16.4462 10.4225 16.2939 10.4492C16.1389 10.4732 15.9706 10.4999 15.8103 10.4999C15.682 10.5026 15.5591 10.4946 15.4362 10.4812C15.495 10.524 15.5538 10.5667 15.6152 10.6095C15.7969 10.7378 15.9786 10.8607 16.1256 10.9408C16.1951 10.9836 16.2619 11.0076 16.3046 11.029C16.3474 11.0504 16.3714 11.0611 16.3714 11.0611L16.3393 11.1386C16.3393 11.1386 16.3126 11.1279 16.2672 11.1092C16.2218 11.0878 16.1523 11.0664 16.0775 11.0263C15.9225 10.9515 15.7301 10.8339 15.5404 10.7137C15.3747 10.6068 15.2144 10.5026 15.0782 10.4251C15.014 10.4118 14.9552 10.3957 14.8938 10.3797C14.6132 10.2995 14.3621 10.1953 14.1403 10.0911C13.7074 9.88538 13.3627 9.70101 13.1169 9.58612C13.1222 9.96554 13.1249 10.3022 13.1249 10.5748C13.1997 10.6442 13.3013 10.7377 13.4269 10.842C13.5685 10.9488 13.7368 11.0771 13.9345 11.1813C14.1323 11.2882 14.3514 11.3657 14.5918 11.4191C15.0648 11.5233 15.5591 11.5714 15.9198 11.6756C16.0107 11.6943 16.0908 11.7317 16.163 11.7531C16.2351 11.7745 16.2966 11.8039 16.3447 11.8279C16.4436 11.876 16.4997 11.9027 16.4997 11.9027L16.4569 11.9749C16.4569 11.9749 16.4035 11.9508 16.3073 11.9054C16.2619 11.8814 16.2031 11.8547 16.1309 11.8359C16.0588 11.8146 15.984 11.7825 15.8958 11.7665C15.5431 11.673 15.0541 11.6329 14.5651 11.5367C14.322 11.4913 14.0762 11.4084 13.8677 11.3015C13.6566 11.1973 13.4803 11.0691 13.3307 10.9595C13.2558 10.9007 13.189 10.8446 13.1303 10.7965C13.1303 11.0878 13.1303 11.2748 13.1222 11.3176C13.1116 11.3844 13.1062 11.8146 13.1035 12.4665C13.1169 12.4719 13.1463 12.4826 13.1864 12.4986C13.2505 12.5227 13.344 12.5601 13.4589 12.6001C13.5765 12.6376 13.7154 12.6883 13.8811 12.7337C14.0468 12.7818 14.2365 12.8273 14.4422 12.87C14.6506 12.9101 14.8778 12.9448 15.1209 12.9662C15.2412 12.9742 15.3667 12.9876 15.495 12.9876C15.6232 12.9876 15.7568 12.9956 15.8798 12.9822C16.1336 12.9582 16.4142 12.8887 16.7188 12.8727C16.8711 12.8647 17.0367 12.8727 17.1971 12.9341L17.2265 12.9448L17.2558 12.9582L17.3039 12.9822C17.336 12.9983 17.3681 13.0116 17.4028 13.033C17.4696 13.0731 17.5418 13.1132 17.6005 13.1559C17.8998 13.2414 18.4048 13.3884 18.9152 13.5353C19.3106 13.6529 19.7034 13.7678 19.9973 13.8667C20.0721 13.8907 20.1389 13.9121 20.1977 13.9308C20.2565 13.9522 20.3073 13.9709 20.35 13.9869C20.4355 14.019 20.4836 14.0377 20.4836 14.0377L20.4649 14.0751C20.4649 14.0751 20.4168 14.0591 20.3313 14.0297C20.2886 14.0163 20.2378 13.9976 20.179 13.9762C20.1202 13.9575 20.0508 13.9388 19.9786 13.9174C19.6847 13.8293 19.2866 13.7251 18.8884 13.6235C18.5304 13.5327 18.1723 13.4472 17.8864 13.3777C18.0174 13.4926 18.143 13.6102 18.2605 13.7304C18.4208 13.8907 18.5758 14.051 18.7308 14.198C18.7361 14.1953 18.7388 14.19 18.7415 14.1846L18.7495 14.174C18.7495 14.174 18.7548 14.1793 18.7629 14.182C18.7736 14.1873 18.7896 14.1953 18.8056 14.2007C18.8377 14.214 18.8724 14.2247 18.9071 14.2354C18.9766 14.2568 19.0488 14.2755 19.1209 14.2942L19.5618 14.4011H19.5671L19.9947 14.5374L20.4382 14.6255C20.5878 14.6416 20.7401 14.6576 20.8898 14.6736L21.344 14.6923V14.7351H20.8871C20.7348 14.7244 20.5825 14.7137 20.4275 14.703L19.9733 14.6309L19.5271 14.5133C19.5271 14.5133 19.5297 14.5133 19.5324 14.5186C19.3881 14.4866 19.2385 14.4625 19.0888 14.4331C19.0434 14.4251 18.998 14.4144 18.9526 14.4038C19.1156 14.5427 19.2839 14.6656 19.4549 14.7565C19.5564 14.8126 19.6767 14.8553 19.7809 14.9034C19.8878 14.9515 19.992 14.9969 20.0935 15.0317C20.2966 15.1065 20.4783 15.176 20.6493 15.2321C20.815 15.2882 20.9619 15.3363 21.0822 15.3764C21.3226 15.4565 21.4616 15.5019 21.4616 15.5019L21.4375 15.5687C21.4375 15.5687 21.2986 15.5287 21.0554 15.4565C20.9325 15.4191 20.7856 15.3764 20.6172 15.3256C20.4489 15.2775 20.2565 15.2107 20.0481 15.1439C19.9412 15.1118 19.837 15.0691 19.7301 15.0237C19.6206 14.9782 19.511 14.9435 19.3908 14.882C19.1583 14.7698 18.9392 14.6122 18.7308 14.4358C18.5224 14.2595 18.322 14.0644 18.1162 13.872C17.9105 13.6796 17.6994 13.4926 17.4669 13.343C17.4082 13.3029 17.352 13.2762 17.2959 13.2414H17.2933H17.2906C17.2639 13.2254 17.2291 13.2147 17.1997 13.1987L17.1516 13.1773L17.1329 13.1693L17.1116 13.1639C16.9993 13.1265 16.8684 13.1212 16.7375 13.1319C16.6172 13.1426 16.4943 13.1639 16.3714 13.188C16.4222 13.2147 16.4756 13.2414 16.5291 13.2735C16.5905 13.3109 16.6546 13.3483 16.7161 13.3991C16.7802 13.4472 16.831 13.5033 16.8898 13.5567C16.9486 13.6102 17.0073 13.6663 17.0635 13.7224C17.1169 13.7838 17.1703 13.8426 17.2211 13.9014C17.2719 13.9629 17.328 14.0163 17.3707 14.0778C17.4162 14.1392 17.4589 14.198 17.499 14.2541C17.5391 14.3102 17.5792 14.361 17.6112 14.4118C17.7368 14.6148 17.8196 14.7511 17.8196 14.7511L17.7822 14.7725C17.7822 14.7725 17.6941 14.6416 17.5631 14.4438C17.5311 14.3957 17.4883 14.3476 17.4456 14.2915C17.4028 14.2381 17.3574 14.182 17.312 14.1259C17.2665 14.0671 17.2104 14.0163 17.157 13.9575C17.1035 13.9014 17.0474 13.8453 16.994 13.7892C16.9352 13.7384 16.8737 13.6877 16.815 13.6369C16.7562 13.5888 16.6974 13.5327 16.6413 13.4953C16.5852 13.4525 16.521 13.4204 16.4623 13.3884C16.4035 13.3563 16.3447 13.3323 16.2913 13.3082C16.2245 13.2815 16.1657 13.2575 16.1149 13.2361C16.0481 13.2468 15.9813 13.2601 15.9145 13.2681C15.7675 13.2895 15.6313 13.2842 15.495 13.2895C15.3614 13.2949 15.2278 13.2842 15.0995 13.2815C14.843 13.2681 14.6025 13.2388 14.3808 13.204C14.1617 13.1666 13.9586 13.1265 13.7849 13.0811C13.6086 13.041 13.4562 12.9903 13.3307 12.9529C13.2371 12.9235 13.1597 12.8967 13.1009 12.878C13.0982 13.6128 13.0982 14.54 13.0982 15.5233C13.1597 15.534 13.2345 15.5474 13.3173 15.5607C13.5845 15.6088 13.9559 15.6917 14.3995 15.8012C14.4449 15.8119 14.4957 15.8253 14.5464 15.8359C14.5731 15.8279 14.6025 15.8199 14.6346 15.8092C14.7308 15.7772 14.843 15.7317 14.9686 15.689C15.0301 15.6676 15.1022 15.6489 15.1663 15.6329C15.2331 15.6168 15.2999 15.5981 15.3667 15.5794C15.5003 15.5447 15.6366 15.51 15.7622 15.4779C15.8904 15.4512 16.0107 15.4271 16.1122 15.4058C16.2164 15.3924 16.3046 15.3844 16.3661 15.379C16.4275 15.3737 16.4623 15.3683 16.4623 15.3683V15.4111C16.4623 15.4111 16.4302 15.4164 16.3714 15.4245C16.3126 15.4325 16.2271 15.4432 16.1256 15.4619C16.0267 15.4859 15.9091 15.5153 15.7836 15.5474C15.6607 15.5848 15.5271 15.6275 15.3961 15.6676C15.3293 15.689 15.2652 15.7104 15.1984 15.7317C15.1316 15.7531 15.0728 15.7718 15.014 15.7985C14.9365 15.8306 14.8644 15.8627 14.7923 15.8947C15.1369 15.9829 15.5137 16.0791 15.9091 16.1887C16.0508 16.2261 16.1924 16.2661 16.3393 16.3089C16.4115 16.3036 16.4836 16.2955 16.5585 16.2875C16.8444 16.2528 17.1303 16.194 17.344 16.1539C17.5578 16.1112 17.7047 16.0925 17.7047 16.0925L17.7128 16.1352C17.7128 16.1352 17.5711 16.1593 17.3574 16.21C17.149 16.2581 16.8684 16.3276 16.5852 16.3784C16.6413 16.3944 16.6974 16.4104 16.7562 16.4265C16.9005 16.4692 17.0448 16.512 17.189 16.5627C17.2077 16.5681 17.2238 16.5734 17.2371 16.5814C17.3547 16.5975 17.5097 16.6215 17.6834 16.6696C18.0735 16.7712 18.5625 16.9662 19.0621 17.1319C19.3106 17.2174 19.5618 17.2949 19.7996 17.3617C19.9198 17.3937 20.0347 17.4258 20.1443 17.4525C20.2538 17.4766 20.3581 17.506 20.4542 17.5247C20.6466 17.5674 20.8096 17.5968 20.9245 17.6155C21.0367 17.6342 21.1035 17.6476 21.1035 17.6476L21.0982 17.677C21.0982 17.677 21.0314 17.6663 20.9192 17.6502C20.8043 17.6342 20.6413 17.6075 20.4462 17.5701C20.3474 17.5541 20.2432 17.5273 20.1336 17.506C20.0214 17.4819 19.9065 17.4525 19.7862 17.4231C19.5458 17.3617 19.2919 17.2895 19.0381 17.2094C18.5331 17.0544 18.0361 16.87 17.6566 16.7792C17.6192 16.7685 17.5818 16.7605 17.5471 16.7551C17.5685 16.7685 17.5898 16.7845 17.6112 16.7979C17.8597 16.9769 18.0868 17.1773 18.314 17.3617C18.5357 17.5407 18.7842 17.6877 19.0354 17.8106C19.5377 18.0537 20.0427 18.2221 20.4596 18.4091C20.668 18.5026 20.855 18.5881 21.0207 18.6683C21.189 18.7458 21.3307 18.8206 21.4482 18.8794C21.6807 19.0023 21.8143 19.0771 21.8143 19.0771L21.7929 19.1145C21.7929 19.1145 21.6593 19.045 21.4215 18.9301C21.3013 18.8767 21.157 18.8072 20.9886 18.7351C20.8203 18.6629 20.6279 18.5828 20.4195 18.4973C20.0027 18.3263 19.495 18.1766 18.9686 17.9468C18.7067 17.8293 18.4422 17.6877 18.1991 17.5033C17.9613 17.3243 17.7288 17.1345 17.4856 16.9716C17.4242 16.9315 17.3627 16.8914 17.3013 16.8593C17.2692 16.8406 17.2398 16.8273 17.2131 16.8166C17.1864 16.8059 17.1383 16.7872 17.1169 16.7818C16.9753 16.7391 16.831 16.7017 16.6867 16.6643C16.3981 16.5895 16.1149 16.52 15.8397 16.4559C15.2892 16.3249 14.7735 16.21 14.33 16.1192C13.8864 16.0283 13.5177 15.9589 13.2585 15.9215C13.1997 15.9134 13.149 15.9054 13.1035 15.9001C13.1035 16.4505 13.1035 17.009 13.1035 17.5541C13.1543 17.5647 13.2238 17.5808 13.3093 17.6022C13.499 17.6476 13.7689 17.7064 14.0949 17.7865C14.2579 17.8266 14.4342 17.8694 14.6186 17.9174C14.8056 17.9602 14.998 18.0217 15.2011 18.0778C15.2011 18.0778 15.2037 18.0778 15.2064 18.0778C15.2198 18.0778 15.2358 18.0804 15.2492 18.0831C15.4095 18.0938 15.5992 18.0991 15.8023 18.0991C16.0053 18.0991 16.2298 18.0991 16.4516 18.1312C16.8924 18.1846 17.3146 18.3022 17.6299 18.3824C17.9452 18.4652 18.1563 18.5133 18.1563 18.5133L18.1376 18.5961C18.1376 18.5961 17.9212 18.5534 17.6032 18.4786C17.2852 18.4064 16.8631 18.2995 16.4329 18.2595C16.2191 18.2354 16.008 18.2408 15.7996 18.2434C15.7809 18.2434 15.7649 18.2434 15.7488 18.2434C15.7702 18.2514 15.7943 18.2568 15.8156 18.2675C16.024 18.3423 16.2351 18.4198 16.4436 18.4973C16.4703 18.508 16.4916 18.5133 16.5264 18.5293L16.6012 18.5641L16.7508 18.6362L16.9005 18.7084L17.0474 18.7885C17.165 18.8527 17.2772 18.9195 17.3841 18.9863C17.3868 18.9863 17.3921 18.9889 17.3975 18.9916C17.4242 18.9996 17.4749 19.0103 17.5364 19.0156C17.6005 19.0237 17.6754 19.029 17.7609 19.0424C17.809 19.0504 17.849 19.0664 17.8918 19.0798C17.9345 19.0931 17.9773 19.1092 18.0174 19.1225C18.183 19.1893 18.338 19.2641 18.4556 19.3229C18.5731 19.3764 18.6506 19.4138 18.6506 19.4138L18.6186 19.4913C18.6186 19.4913 18.5384 19.4592 18.4155 19.4111C18.2953 19.3603 18.1376 19.2962 17.9746 19.2428C17.8945 19.2241 17.809 19.192 17.7422 19.184C17.7261 19.184 17.7074 19.184 17.6914 19.1813C18.004 19.3871 18.2899 19.5875 18.5384 19.7611C18.6747 19.8547 18.7976 19.9402 18.9098 20.0176C19.022 20.0925 19.1156 20.1593 19.1984 20.21C19.3614 20.3142 19.4549 20.373 19.4549 20.373L19.4148 20.4372C19.4148 20.4372 19.3186 20.381 19.1503 20.2848C19.0648 20.2367 18.9686 20.1726 18.8537 20.1005C18.7415 20.0283 18.6106 19.9455 18.4716 19.8573C18.1937 19.6783 17.8704 19.4699 17.515 19.2588C17.3387 19.1546 17.1516 19.0477 16.9619 18.9569L16.8203 18.8847L16.6707 18.8179L16.5184 18.7511L16.4409 18.7191C16.4222 18.711 16.3901 18.703 16.3661 18.695C16.1577 18.6282 15.9492 18.5614 15.7435 18.4946C15.6419 18.4599 15.5377 18.4331 15.4335 18.4091C15.3293 18.3824 15.2278 18.3583 15.1289 18.3343C14.9285 18.2862 14.7361 18.2327 14.5491 18.198C14.3621 18.1579 14.1857 18.1232 14.0254 18.0885C13.7021 18.019 13.4269 17.9709 13.2371 17.9335C13.1864 17.9228 13.1436 17.9148 13.1035 17.9094C13.1035 18.1152 13.1035 18.3209 13.1035 18.5213C13.1596 18.5347 13.2371 18.5667 13.3387 18.5855C13.5364 18.6335 13.8063 18.6683 14.0815 18.6977C14.3567 18.7244 14.6346 18.7458 14.8403 18.7725C14.9446 18.7832 15.0301 18.7992 15.0915 18.8072C15.1503 18.8152 15.185 18.8206 15.185 18.8206L15.1717 18.9034C15.1717 18.9034 15.1369 18.9007 15.0782 18.8927C15.0194 18.8874 14.9339 18.874 14.8297 18.8687C14.6239 18.8527 14.3487 18.8393 14.0708 18.8233C13.8383 18.8072 13.6059 18.7859 13.4135 18.7538C13.5311 18.8072 13.6647 18.8714 13.817 18.9408C14.0655 19.0477 14.3781 19.1332 14.7121 19.2214C14.8003 19.2428 14.8884 19.2641 14.9793 19.2855L14.9873 19.2588C14.9873 19.2588 15.014 19.2695 15.0595 19.2855C15.0808 19.2935 15.1075 19.3042 15.1369 19.3203C15.3454 19.3657 15.5618 19.4084 15.7755 19.4512C15.9572 19.4886 16.1389 19.5233 16.3206 19.5607C16.4997 19.5955 16.6814 19.6222 16.8524 19.689C17.0234 19.7531 17.1703 19.8653 17.2772 19.9883C17.3788 20.1112 17.4776 20.2287 17.5551 20.341C17.6353 20.4532 17.7101 20.5547 17.7742 20.6429C17.8383 20.7311 17.8945 20.8112 17.9479 20.87C18.0494 20.9903 18.1082 21.0597 18.1082 21.0597L18.0468 21.1185C18.0468 21.1185 17.9853 21.049 17.8784 20.9261C17.8223 20.8674 17.7662 20.7872 17.6967 20.699C17.6299 20.6108 17.5551 20.5093 17.4723 20.3997C17.3039 20.1887 17.1276 19.9054 16.8123 19.7959C16.6573 19.7371 16.481 19.713 16.2993 19.681C16.1176 19.6462 15.9359 19.6142 15.7515 19.5794C15.6366 19.5581 15.5244 19.5367 15.4095 19.518C15.4923 19.5955 15.5725 19.6836 15.6419 19.7798C15.7622 19.9428 15.8664 20.1112 15.9519 20.2287C16.0374 20.349 16.0989 20.4211 16.0989 20.4211L16.0321 20.4772C16.0321 20.4772 15.9626 20.4051 15.8691 20.2848C15.7755 20.1673 15.6607 20.0043 15.5377 19.8547C15.4148 19.705 15.2732 19.5741 15.1503 19.51C15.1209 19.4913 15.0915 19.4779 15.0648 19.4672C15.0381 19.4565 15.0167 19.4458 14.998 19.4432C14.9606 19.4325 14.9365 19.4245 14.9365 19.4245C14.4957 19.3283 14.0815 19.2187 13.7475 19.0851C13.4937 18.9702 13.2826 18.8767 13.1356 18.8099C13.1222 18.8046 13.1116 18.7992 13.0982 18.7965C13.0982 19.0798 13.0982 19.3523 13.0982 19.6115C13.1142 19.6275 13.1249 19.6436 13.1436 19.6623C13.2158 19.7424 13.3066 19.8306 13.4028 19.9321C13.499 20.0283 13.6112 20.1325 13.7234 20.2448C13.8383 20.3543 13.9586 20.4719 14.0842 20.5921C14.2098 20.7124 14.3407 20.838 14.4716 20.9635C14.5384 21.0277 14.6052 21.0891 14.672 21.1532L14.7201 21.2014L14.7682 21.2468L14.8697 21.3403C15.1423 21.5915 15.4228 21.8346 15.6794 22.0724C15.8076 22.19 15.9305 22.3049 16.0427 22.4198C16.0989 22.4786 16.155 22.532 16.2057 22.5855C16.2565 22.6416 16.3046 22.6977 16.35 22.7484C16.4462 22.85 16.521 22.9542 16.5905 23.045C16.6253 23.0905 16.6573 23.1332 16.6867 23.1706C16.7134 23.2134 16.7375 23.2508 16.7589 23.2855C16.8444 23.4245 16.8925 23.5019 16.8925 23.5019L16.8631 23.518C16.8631 23.518 16.8123 23.4432 16.7188 23.3096C16.6974 23.2775 16.6707 23.2401 16.644 23.2C16.6119 23.1626 16.5798 23.1225 16.5424 23.0798C16.4703 22.9943 16.3928 22.8954 16.2913 22.7992C16.2432 22.7484 16.1924 22.6977 16.1416 22.6442C16.0882 22.5935 16.0294 22.54 15.9733 22.4866C15.8584 22.377 15.7328 22.2675 15.6019 22.1526C15.34 21.9255 15.0488 21.6903 14.7655 21.4472L14.6586 21.3563L14.6052 21.3082L14.5544 21.2601C14.4876 21.1987 14.4182 21.1345 14.3514 21.0731C14.2178 20.9502 14.0842 20.8273 13.9559 20.7097C13.8277 20.5921 13.7021 20.4799 13.5845 20.3704C13.4669 20.2608 13.3547 20.1646 13.2532 20.0631C13.1997 20.0096 13.1463 19.9589 13.0955 19.9081C13.0955 20.1352 13.0955 20.349 13.0955 20.5467C13.0955 20.7097 13.0955 20.8593 13.0955 20.9956C13.1009 21.0571 13.1062 21.1265 13.1249 21.1987C13.1383 21.2441 13.1516 21.2922 13.1677 21.343C13.1757 21.367 13.181 21.3937 13.1917 21.4205C13.2024 21.4445 13.2158 21.4712 13.2265 21.4953C13.2505 21.546 13.2719 21.5995 13.3013 21.6502C13.336 21.6983 13.3707 21.7491 13.4055 21.7999C13.4375 21.8533 13.4856 21.8961 13.5257 21.9442C13.5685 21.9923 13.6112 22.0404 13.6647 22.0831C13.7154 22.1259 13.7609 22.174 13.817 22.2167L13.98 22.3396C14.0922 22.4171 14.2044 22.4973 14.322 22.5694C14.4369 22.6416 14.5518 22.7137 14.6613 22.7832C14.7709 22.8553 14.8804 22.9195 14.9766 22.9889C15.0755 23.0584 15.169 23.1199 15.2518 23.1867C15.2946 23.2187 15.332 23.2508 15.3721 23.2775C15.4068 23.3096 15.4416 23.339 15.4709 23.3683C15.5351 23.4245 15.5885 23.4752 15.6286 23.5207C15.7114 23.6115 15.7569 23.6623 15.7569 23.6623L15.7435 23.673C15.7435 23.673 15.6954 23.6222 15.6099 23.5367C15.5698 23.4913 15.5137 23.4458 15.4496 23.3924C15.4175 23.3657 15.3828 23.3363 15.348 23.3069C15.3106 23.2802 15.2679 23.2508 15.2278 23.2214C15.145 23.1599 15.0488 23.0985 14.9472 23.037C14.8457 22.9756 14.7361 22.9141 14.6239 22.85C14.509 22.7858 14.3914 22.7191 14.2739 22.6523C14.1536 22.5855 14.0334 22.5106 13.9158 22.4358L13.7422 22.3156C13.7234 22.3022 13.7074 22.2889 13.6914 22.2755C13.7047 22.2995 13.7181 22.3236 13.7341 22.3503C13.8758 22.5961 14.0788 22.9221 14.2605 23.2561C14.3514 23.4245 14.4369 23.5955 14.5063 23.7611C14.5758 23.9268 14.6319 24.0845 14.6667 24.2234C14.6854 24.2929 14.6987 24.3543 14.7094 24.4131C14.7201 24.4692 14.7308 24.52 14.7335 24.5601C14.7442 24.6429 14.7468 24.691 14.7468 24.691H14.7388C14.7388 24.691 14.7335 24.6456 14.7201 24.5627C14.7148 24.5227 14.7041 24.4719 14.6907 24.4158C14.6774 24.3597 14.6613 24.2982 14.6399 24.2287C14.5999 24.0925 14.5357 23.9402 14.4636 23.7798C14.3861 23.6195 14.2953 23.4539 14.1991 23.2909C14.004 22.9649 13.7902 22.6496 13.6353 22.4064C13.5177 22.2247 13.4375 22.0858 13.4055 22.027C13.3627 21.9843 13.3173 21.9442 13.2826 21.8934C13.2425 21.84 13.2024 21.7865 13.1623 21.7358C13.1409 21.701 13.1222 21.6663 13.1009 21.6315C13.1009 21.8319 13.1009 21.9522 13.0982 21.9709C13.018 22.9702 12.7669 23.4432 12.7214 23.3951C12.7108 23.3817 12.7001 22.7458 12.6947 21.8079C12.6172 21.8987 12.521 21.9949 12.4061 22.0938C12.2084 22.2621 11.9599 22.4331 11.6794 22.5881C11.5404 22.6656 11.3908 22.7431 11.2385 22.8126C11.161 22.8473 11.0862 22.882 11.0114 22.9195C10.9419 22.9569 10.8697 22.9969 10.8029 23.0424C10.7148 23.1011 10.6346 23.168 10.5598 23.2401C10.5518 23.2481 10.5464 23.2561 10.5384 23.2641C10.517 23.2909 10.4823 23.3203 10.4476 23.355C10.4369 23.3657 10.4262 23.3764 10.4155 23.3844C10.3193 23.4966 10.2311 23.6142 10.159 23.7344C9.99599 23.9963 9.87041 24.2581 9.75284 24.4772C9.63527 24.699 9.52839 24.878 9.44555 25.001C9.36272 25.1239 9.30929 25.188 9.30929 25.188L9.25317 25.1479C9.25317 25.1479 9.30126 25.0811 9.37875 24.9609C9.45624 24.838 9.55511 24.6589 9.66199 24.4345C9.77154 24.2127 9.88644 23.9428 10.0468 23.6703C10.0521 23.6623 10.0574 23.6543 10.0601 23.6489C10.0361 23.6623 10.0147 23.6783 9.99065 23.6943C9.86506 23.7745 9.72611 23.8466 9.58717 23.9188C9.30661 24.0577 9.01269 24.1726 8.78557 24.2448C8.67334 24.2795 8.57715 24.3036 8.51035 24.3196C8.44088 24.3329 8.40347 24.341 8.40347 24.341L8.39545 24.2955C8.39545 24.2955 8.43287 24.2875 8.49967 24.2715C8.5638 24.2555 8.65732 24.2261 8.76687 24.1887C8.98597 24.1112 9.27188 23.9883 9.54442 23.8413C9.6807 23.7665 9.8143 23.689 9.93454 23.6088C10.0521 23.5313 10.1563 23.4512 10.2418 23.3764C10.3727 23.208 10.5277 23.045 10.7121 22.9195C10.7816 22.8687 10.8564 22.8233 10.9365 22.7805C11.0114 22.7431 11.0862 22.7057 11.161 22.6656C11.3079 22.5908 11.4522 22.516 11.5858 22.4358C11.8557 22.2782 12.0908 22.1125 12.2725 21.9495C12.4569 21.7892 12.5825 21.6315 12.66 21.5166C12.6707 21.5006 12.6787 21.4873 12.6894 21.4739C12.684 20.4612 12.6787 19.1786 12.6787 17.9495C12.668 17.9629 12.6573 17.9762 12.644 17.9896C12.6119 18.0217 12.5772 18.0591 12.5371 18.0991C12.4943 18.1365 12.4409 18.174 12.3901 18.214C12.2832 18.2942 12.1657 18.3904 12.0241 18.4679C11.9546 18.5106 11.8824 18.5561 11.8076 18.6015C11.7301 18.6416 11.65 18.6816 11.5671 18.7244C11.4362 18.7965 11.2946 18.8527 11.1476 18.9114C11.1476 18.9168 11.1476 18.9221 11.145 18.9301C11.1396 18.9595 11.1316 18.9969 11.1236 19.037C11.1182 19.0771 11.1022 19.1252 11.0835 19.1786C11.0648 19.2294 11.0461 19.2855 11.0247 19.347C11.0007 19.4058 10.9713 19.4592 10.9446 19.5207C10.9152 19.5794 10.8884 19.6436 10.851 19.7023C10.8163 19.7611 10.7816 19.8226 10.7468 19.884C10.7094 19.9428 10.6693 20.0016 10.6319 20.0577C10.5945 20.1138 10.5571 20.17 10.517 20.2234C10.4395 20.3276 10.3647 20.4265 10.2953 20.504C10.2311 20.5868 10.1697 20.6482 10.1296 20.6937C10.0895 20.7391 10.0655 20.7631 10.0655 20.7631L10.02 20.7231C10.02 20.7231 10.0414 20.6963 10.0788 20.6509C10.1162 20.6055 10.1723 20.5387 10.2311 20.4532C10.2926 20.3704 10.3621 20.2715 10.4315 20.1646C10.4689 20.1112 10.5037 20.0551 10.5357 19.9963C10.5705 19.9375 10.6052 19.8814 10.6373 19.8199C10.6667 19.7585 10.6987 19.6997 10.7281 19.6382C10.7602 19.5794 10.7842 19.518 10.8056 19.4592C10.8297 19.4004 10.8537 19.3443 10.8724 19.2909C10.8884 19.2374 10.9018 19.1866 10.9152 19.1412C10.9285 19.0958 10.9419 19.0531 10.9446 19.0103C10.9446 19.0023 10.9446 18.9943 10.9472 18.9863C10.7816 19.0424 10.6132 19.1038 10.4395 19.1492C10.2365 19.2107 10.0281 19.2615 9.81964 19.3096L9.74215 19.3283L9.67 19.347L9.5177 19.3871C9.44021 19.4084 9.36272 19.4271 9.28791 19.4539C9.27722 19.4645 9.25851 19.4806 9.23714 19.4993C9.19438 19.5394 9.12224 19.6008 9.04743 19.6676C9.00735 19.6997 8.96994 19.7371 8.92452 19.7772C8.88711 19.8172 8.83901 19.8573 8.80427 19.9054C8.76419 19.9508 8.73213 20.0016 8.69739 20.0551L8.65998 20.1379L8.6493 20.1593V20.1646H8.64662V20.1753L8.63059 20.2261C8.61991 20.2822 8.61456 20.3436 8.6199 20.4078C8.62257 20.4692 8.63326 20.5333 8.64662 20.5948C8.67067 20.7177 8.70541 20.8353 8.71342 20.9422C8.71877 20.9956 8.71877 21.0464 8.7161 21.0891C8.71343 21.1345 8.70541 21.172 8.69472 21.2014C8.68937 21.2334 8.67602 21.2548 8.67067 21.2708C8.66533 21.2869 8.65998 21.2949 8.65998 21.2949L8.59318 21.2655C8.59318 21.2655 8.59318 21.2575 8.6012 21.2441C8.60387 21.2307 8.61723 21.2094 8.6199 21.1826C8.62525 21.1559 8.63059 21.1239 8.63059 21.0838C8.63059 21.0464 8.63059 21.0009 8.6199 20.9528C8.60387 20.8567 8.56646 20.7444 8.5344 20.6188C8.51836 20.5574 8.50234 20.4906 8.49165 20.4184C8.48096 20.349 8.48363 20.2715 8.49165 20.1967L8.50233 20.1459V20.1325C8.50233 20.1325 8.50234 20.1325 8.50768 20.1219V20.1165L8.51836 20.0898C8.53172 20.0551 8.54242 20.0203 8.55845 19.9856C8.59319 19.9215 8.62792 19.8573 8.67067 19.8066C8.71075 19.7478 8.75618 19.705 8.79626 19.6569C8.80694 19.6462 8.81763 19.6329 8.83099 19.6222C8.77488 19.6489 8.71609 19.6756 8.65998 19.6997C8.56913 19.7371 8.48898 19.7879 8.40615 19.8333C8.32331 19.8787 8.24048 19.9215 8.16833 19.9722C8.0187 20.0684 7.87441 20.1619 7.7515 20.2581C7.68737 20.3036 7.62859 20.349 7.5698 20.3917C7.51369 20.4372 7.46292 20.4799 7.41216 20.52C7.31329 20.6001 7.22778 20.6723 7.15831 20.7311C7.01937 20.8513 6.91783 20.8967 6.91783 20.8967L6.8831 20.862C6.8831 20.862 6.93654 20.7658 7.07014 20.6402C7.13694 20.5761 7.22244 20.5013 7.31863 20.4184C7.36673 20.3757 7.42018 20.3303 7.47362 20.2822C7.52973 20.2368 7.59118 20.1913 7.65264 20.1406C7.77555 20.039 7.91984 19.9402 8.07214 19.8359C8.14429 19.7825 8.22979 19.7371 8.31262 19.6863C8.39813 19.6382 8.48096 19.5821 8.57181 19.542C8.66266 19.4966 8.75618 19.4512 8.8497 19.4058C8.94856 19.3684 9.04743 19.3283 9.14896 19.2882C9.2505 19.2454 9.35203 19.2187 9.45357 19.1893L9.60588 19.1439L9.68871 19.1199L9.7662 19.1011C9.97194 19.0504 10.175 18.9996 10.3727 18.9382C10.5731 18.8847 10.7602 18.8099 10.9472 18.7458C11.1263 18.6683 11.3026 18.6042 11.4603 18.516C11.5377 18.4759 11.6152 18.4358 11.69 18.3957C11.7595 18.353 11.829 18.3076 11.8931 18.2675C12.0267 18.19 12.1336 18.1018 12.2325 18.027C12.2832 17.9896 12.3287 17.9549 12.3714 17.9228C12.4115 17.8854 12.4542 17.8533 12.489 17.8266C12.5718 17.7625 12.6386 17.7197 12.684 17.6957C12.684 17.1639 12.684 16.6482 12.6867 16.1753C12.6333 16.17 12.5691 16.1593 12.497 16.1566C12.4409 16.1512 12.3794 16.1486 12.3153 16.1432C12.2485 16.1432 12.1764 16.1406 12.0989 16.1379C11.9439 16.1379 11.7675 16.1432 11.5751 16.1566C11.3828 16.1726 11.1717 16.194 10.9472 16.2234C10.8858 16.2287 10.8243 16.2394 10.7629 16.2474C10.7361 16.3036 10.6987 16.3891 10.6506 16.4933C10.5865 16.6402 10.4983 16.8246 10.4075 17.0143H10.4128C10.4048 17.0464 10.3968 17.0758 10.3888 17.1078C10.3834 17.1239 10.3781 17.1399 10.3701 17.1586L10.338 17.2361L10.3006 17.2307C10.2712 17.2842 10.2445 17.3376 10.2151 17.3911C10.2098 17.4044 10.2044 17.4178 10.1991 17.4311L10.175 17.5273C10.1643 17.5915 10.1536 17.6583 10.151 17.7251C10.1456 17.7919 10.143 17.8613 10.1403 17.9281H10.0975L10.0895 17.7251C10.0895 17.693 10.0895 17.6609 10.0895 17.6289C10.0708 17.6636 10.0521 17.6983 10.0334 17.7304C10.0013 17.7812 9.96927 17.8293 9.93988 17.8747C9.82765 18.0537 9.75017 18.174 9.75017 18.174L9.67803 18.1285C9.67803 18.1285 9.74482 18.0056 9.84635 17.8239C9.8704 17.7785 9.8998 17.7277 9.92652 17.677C9.95591 17.6262 9.97996 17.5647 10.0067 17.5086C10.0601 17.3884 10.1189 17.2628 10.175 17.1372C10.2766 16.878 10.3808 16.6215 10.4529 16.4238C10.4689 16.3837 10.4823 16.3463 10.4957 16.3116C10.4262 16.3303 10.3594 16.3543 10.2899 16.381C10.0761 16.4665 9.87575 16.6028 9.67803 16.7605C9.57916 16.8406 9.48029 16.9235 9.38143 17.0036C9.28256 17.0864 9.17568 17.172 9.04743 17.2388C8.80427 17.3697 8.54776 17.4472 8.29125 17.514C8.03741 17.5781 7.78357 17.6235 7.53774 17.6583C7.51102 17.6636 7.48697 17.6636 7.46025 17.669C7.46025 17.669 7.4362 17.685 7.39345 17.7117C7.37207 17.7224 7.34803 17.7438 7.31863 17.7545C7.28924 17.7651 7.25718 17.7785 7.21977 17.7945C7.18771 17.8079 7.15297 17.8213 7.11556 17.8373C7.07815 17.8507 7.04876 17.8774 7.01135 17.8961C6.97662 17.9148 6.93653 17.9495 6.89913 17.9789C6.86172 18.0083 6.82432 18.0377 6.78691 18.0671C6.71209 18.1285 6.63994 18.19 6.57314 18.2514C6.50634 18.3129 6.45023 18.3717 6.40214 18.4251C6.38076 18.4518 6.35938 18.4786 6.34068 18.4999C6.32197 18.5213 6.30861 18.5427 6.29792 18.5614C6.27388 18.5961 6.26319 18.6148 6.26319 18.6148L6.22311 18.5961C6.22311 18.5961 6.2338 18.5748 6.25785 18.5374C6.26853 18.5187 6.27922 18.4946 6.29792 18.4706C6.31663 18.4465 6.33533 18.4198 6.35671 18.3877C6.40213 18.3289 6.45558 18.2648 6.51971 18.198C6.58116 18.1312 6.65063 18.0617 6.72011 17.9949C6.75484 17.9629 6.79225 17.9281 6.82699 17.8961C6.86439 17.864 6.89111 17.8319 6.93386 17.7999C6.97394 17.7705 7.01135 17.7384 7.05143 17.717C7.05143 17.717 7.0541 17.717 7.05677 17.7144C6.74415 17.7464 6.45023 17.7651 6.1857 17.7732C5.79025 17.7892 5.45891 17.7812 5.22912 17.7732C4.99933 17.7651 4.86573 17.7491 4.86573 17.7491L4.87107 17.6957C4.87107 17.6957 5.002 17.7064 5.22912 17.7064C5.45624 17.7064 5.7849 17.6957 6.17769 17.6716C6.57047 17.6449 7.02471 17.6022 7.50835 17.5193C7.56713 17.5086 7.63126 17.4953 7.69271 17.4846C7.63927 17.4525 7.58049 17.4151 7.51102 17.3697C7.29459 17.2388 7.0167 17.0437 6.73346 16.8567C6.59185 16.7658 6.45023 16.6723 6.3193 16.5868C6.2525 16.544 6.19105 16.4986 6.12692 16.4639C6.06546 16.4265 6.00401 16.3917 5.95057 16.3597C5.73146 16.2314 5.58717 16.1459 5.58717 16.1459L5.59252 16.1352C5.59252 16.1352 5.74482 16.2127 5.96927 16.3276C6.02538 16.357 6.08684 16.3891 6.15364 16.4211C6.22044 16.4532 6.28457 16.4933 6.35404 16.5333C6.49299 16.6108 6.63995 16.6963 6.78691 16.7792C7.08083 16.9475 7.36673 17.1239 7.59118 17.2414C7.76753 17.3376 7.89579 17.4098 7.94122 17.4338C8.04008 17.4124 8.13894 17.3884 8.23781 17.3617C8.48096 17.2922 8.72679 17.2094 8.94055 17.0838C8.99666 17.0517 9.03941 17.0277 9.09285 16.9822L9.13026 16.9529L9.16232 16.9235L9.23447 16.8593C9.33333 16.7738 9.42953 16.6883 9.52572 16.6055C9.70207 16.4532 9.89713 16.3142 10.1082 16.2074C10.0174 16.21 9.91851 16.2154 9.81964 16.2207C9.6326 16.2314 9.42952 16.2341 9.22912 16.2421C9.12758 16.2421 9.02605 16.2421 8.92718 16.2394C8.82832 16.2394 8.72945 16.2314 8.63593 16.2234C8.54241 16.2127 8.4489 16.2154 8.36339 16.1967C8.27789 16.1833 8.19773 16.17 8.12291 16.1566C8.0481 16.1459 7.9813 16.1272 7.92251 16.1112C7.86373 16.0951 7.81296 16.0791 7.77021 16.0684C7.6847 16.0444 7.6366 16.031 7.6366 16.031L7.64996 15.9909C7.64996 15.9909 7.69806 16.0043 7.78356 16.023C7.82631 16.0337 7.87708 16.047 7.93587 16.0604C7.99465 16.0764 8.05878 16.0925 8.13627 16.1005C8.21109 16.1112 8.28858 16.1219 8.37408 16.1325C8.45691 16.1486 8.55044 16.1432 8.64128 16.1486C8.7348 16.1512 8.83099 16.1593 8.92986 16.1539C9.02872 16.1512 9.12759 16.1486 9.22645 16.1459C9.42686 16.1299 9.62725 16.1192 9.81429 16.1005C10.0013 16.0818 10.1777 16.0657 10.3273 16.0524C10.4369 16.0417 10.5331 16.0364 10.6132 16.031C10.7121 16.0096 10.8083 15.9936 10.8991 15.9802C11.1236 15.9455 11.3373 15.9161 11.5377 15.8947C11.6366 15.884 11.7328 15.876 11.8263 15.868C11.9172 15.8653 12.0053 15.8627 12.0882 15.86C12.171 15.86 12.2485 15.86 12.3206 15.86C12.3928 15.8627 12.4596 15.868 12.5184 15.8707C12.5825 15.8707 12.6359 15.8787 12.6814 15.8841C12.6814 15.4298 12.684 15.0263 12.6894 14.6923C12.6253 14.6763 12.5397 14.6496 12.4382 14.6335C12.318 14.6148 12.1764 14.5854 12.0027 14.5614C11.9706 14.5587 11.9359 14.5534 11.9011 14.5507C11.8851 14.5507 11.8717 14.5507 11.853 14.5507C11.7996 14.5507 11.7355 14.5454 11.6633 14.5374C11.6072 14.532 11.5458 14.524 11.4816 14.5106C11.3721 14.5267 11.2492 14.5534 11.1236 14.5854C10.9365 14.6362 10.7495 14.6977 10.6106 14.7431C10.4716 14.7885 10.3781 14.8206 10.3781 14.8206L10.346 14.7431C10.346 14.7431 10.4369 14.7057 10.5758 14.6522C10.7067 14.5988 10.8804 14.5347 11.0621 14.4732C10.9499 14.4652 10.8377 14.4572 10.7174 14.4518C10.5918 14.4438 10.4636 14.4385 10.3327 14.4305C10.2017 14.4251 10.0681 14.4225 9.93186 14.4171C9.65932 14.4064 9.37876 14.4064 9.09018 14.4011C8.80427 14.3957 8.51303 14.4011 8.22178 14.4011C8.03741 14.4064 7.85571 14.4118 7.67134 14.4144C7.66065 14.4198 7.64996 14.4251 7.6366 14.4331C7.59385 14.4518 7.53774 14.4893 7.46559 14.516C7.39345 14.548 7.30795 14.5828 7.21443 14.6122C7.12358 14.6469 7.02471 14.6736 6.92585 14.703C6.72812 14.7565 6.53039 14.8072 6.38076 14.8473C6.2338 14.8901 6.13494 14.9168 6.13494 14.9168L6.12157 14.8767C6.12157 14.8767 6.21776 14.842 6.36472 14.7939C6.51169 14.7458 6.70408 14.6816 6.89646 14.6122C6.98998 14.5748 7.08617 14.54 7.17168 14.4999C7.23313 14.4759 7.28657 14.4465 7.33467 14.4198C7.05678 14.4331 6.78156 14.4412 6.51436 14.4572C6.24181 14.4732 5.97995 14.4866 5.72878 14.508C5.48029 14.524 5.24516 14.548 5.02605 14.5721C4.80962 14.5908 4.61189 14.6255 4.43553 14.6496C4.25918 14.6736 4.10955 14.711 3.98396 14.7324C3.85838 14.7538 3.76486 14.7912 3.70073 14.8072C3.6366 14.8259 3.60187 14.8366 3.60187 14.8366L3.58583 14.7939C3.58583 14.7939 3.62057 14.7832 3.68737 14.7645C3.75417 14.7484 3.85036 14.711 3.97595 14.6897C4.10153 14.6656 4.25384 14.6282 4.43019 14.6042C4.60654 14.5801 4.80427 14.5454 5.0207 14.5213C5.23714 14.4946 5.47227 14.4652 5.72344 14.4412C5.97194 14.4144 6.23647 14.3931 6.50902 14.3717C6.78156 14.3476 7.06479 14.3343 7.3507 14.3156C7.35871 14.3156 7.36406 14.3156 7.37208 14.3156C7.01403 14.2301 6.46092 14.1018 5.90514 13.9709C5.44021 13.864 4.97261 13.7598 4.62258 13.6903C4.44622 13.6556 4.29926 13.6289 4.19505 13.6155C4.14428 13.6075 4.1042 13.6048 4.07748 13.6048C4.05076 13.6048 4.03741 13.6048 4.03741 13.6048L4.03206 13.5701H4.07748C4.10688 13.5701 4.14963 13.5701 4.2004 13.5781C4.30461 13.5888 4.45424 13.6102 4.63059 13.6422C4.98597 13.701 5.45357 13.7945 5.92384 13.8907C6.85905 14.0885 7.79693 14.2835 7.79693 14.2835V14.2942C7.93587 14.2862 8.08016 14.2808 8.22178 14.2728C8.5157 14.2648 8.80428 14.2461 9.09285 14.2408C9.38143 14.2354 9.66466 14.2274 9.9372 14.2274C10.1884 14.2274 10.4342 14.2274 10.6667 14.2274C10.6239 14.206 10.5785 14.1873 10.5357 14.1633C10.4315 14.1125 10.3327 14.0537 10.2311 13.9949C9.83032 13.7571 9.44556 13.4979 9.14362 13.3269C8.99399 13.2388 8.86573 13.1746 8.77488 13.1292C8.68404 13.0864 8.63059 13.0624 8.63059 13.0624L8.64662 13.025C8.64662 13.025 8.70006 13.049 8.79358 13.0891C8.8871 13.1292 9.01803 13.1933 9.17301 13.2788C9.48029 13.4445 9.87308 13.693 10.2792 13.9121C10.3808 13.9655 10.4823 14.0217 10.5865 14.0671C10.688 14.1178 10.7922 14.1579 10.8911 14.198C10.9232 14.2087 10.9552 14.2194 10.9873 14.2327C11.145 14.2354 11.2973 14.2408 11.4389 14.2461C11.658 14.2514 11.8611 14.2728 12.0401 14.2808C12.2191 14.2942 12.3821 14.3182 12.5157 14.3316C12.5878 14.3423 12.6493 14.353 12.7001 14.3637C12.7054 14.0217 12.7108 13.8079 12.7161 13.7812C12.7428 13.6823 12.6787 12.1699 12.6065 10.6603C12.5638 10.671 12.5184 10.679 12.4703 10.687C12.1523 10.7511 11.6981 10.7939 11.169 10.7912C10.6373 10.7912 10.0307 10.7484 9.38677 10.7271C9.13026 10.719 8.87107 10.7137 8.60655 10.719C8.59586 10.7271 8.58517 10.7324 8.57448 10.7431C8.53173 10.7752 8.49165 10.8072 8.4489 10.8366C8.40882 10.8714 8.3714 10.9088 8.334 10.9435C8.29392 10.9782 8.25918 11.0156 8.22712 11.053C8.19505 11.0905 8.16032 11.1225 8.13093 11.1599C8.10154 11.1947 8.07481 11.2294 8.05076 11.2615C7.99999 11.3229 7.96526 11.379 7.93854 11.4164C7.91182 11.4539 7.89579 11.4752 7.89579 11.4752L7.85838 11.4539C7.85838 11.4539 7.87174 11.4325 7.89846 11.3924C7.92518 11.3523 7.95724 11.2935 8.00267 11.2294C8.02672 11.1973 8.05077 11.1599 8.07749 11.1225C8.10153 11.0851 8.13627 11.0477 8.16833 11.0076C8.2004 10.9675 8.23246 10.9275 8.26987 10.8901C8.30728 10.85 8.34469 10.8099 8.3821 10.7725C8.39813 10.7591 8.41416 10.7458 8.43019 10.7324C8.42218 10.7324 8.41149 10.7324 8.40347 10.7324C8.07214 10.7484 7.73547 10.7832 7.41483 10.8607C7.31597 10.882 7.21977 10.9088 7.12625 10.9408C7.11289 10.9488 7.10221 10.9569 7.08885 10.9675C6.84569 11.1546 6.55712 11.4619 6.28724 11.7798C6.0147 12.0978 5.75551 12.4265 5.55244 12.6696C5.45357 12.7899 5.36539 12.8914 5.30394 12.9582C5.24248 13.0277 5.20241 13.0624 5.20241 13.0624L5.17301 13.033C5.17301 13.033 5.21042 12.9956 5.26921 12.9288C5.32799 12.8593 5.41082 12.7578 5.50969 12.6349C5.70207 12.3864 5.95057 12.0497 6.21243 11.7211C6.39412 11.4913 6.58116 11.2695 6.76286 11.0798C6.67468 11.1199 6.58651 11.1626 6.49566 11.208C6.19105 11.3603 5.87842 11.5019 5.57381 11.6195C5.2692 11.7371 4.96994 11.8413 4.67869 11.9215C4.39011 12.0016 4.1149 12.0711 3.85571 12.1165C3.5992 12.1673 3.35872 12.1967 3.14763 12.2154C2.93387 12.2314 2.7495 12.2367 2.59452 12.2367C2.44222 12.2367 2.32197 12.2287 2.23914 12.2207C2.15898 12.2154 2.11355 12.21 2.11355 12.21L2.12157 12.1219C2.12157 12.1219 2.16433 12.1219 2.24449 12.1245C2.32465 12.1299 2.44221 12.1272 2.59185 12.1245C2.74148 12.1192 2.92318 12.1058 3.12892 12.0764C3.33467 12.0497 3.56713 12.0096 3.8183 11.9482C3.90647 11.9295 3.99465 11.9054 4.0855 11.8814C4.06145 11.8814 4.04008 11.8814 4.01603 11.8814C3.94923 11.876 3.88243 11.8707 3.81563 11.8653C3.74883 11.8627 3.6847 11.8466 3.62057 11.8386C3.55912 11.8279 3.49766 11.8226 3.44154 11.8066C3.38543 11.7932 3.33199 11.7825 3.2839 11.7718C3.18503 11.7504 3.10487 11.7237 3.04876 11.7104C2.99265 11.6943 2.96058 11.6863 2.96058 11.6863L2.97394 11.6462C2.97394 11.6462 3.00601 11.6542 3.06212 11.6676C3.11823 11.6783 3.1984 11.7023 3.29726 11.7184C3.34536 11.7264 3.3988 11.7371 3.45491 11.7451C3.51102 11.7558 3.5698 11.7611 3.63393 11.7665C3.69538 11.7718 3.75952 11.7825 3.82365 11.7825C3.88778 11.7825 3.95457 11.7852 4.02137 11.7879C4.0855 11.7879 4.15231 11.7798 4.21643 11.7772C4.28056 11.7772 4.34469 11.7665 4.40347 11.7558C4.46493 11.7451 4.52371 11.7398 4.57715 11.7264C4.62524 11.713 4.668 11.7024 4.71075 11.6917C4.95925 11.6062 5.21309 11.5019 5.47227 11.3897C5.7662 11.2615 6.05477 11.1145 6.34869 10.9488C6.49298 10.866 6.65331 10.7805 6.81897 10.7084C6.98463 10.6389 7.15564 10.5774 7.32932 10.5293C7.67669 10.4305 8.03206 10.3797 8.37942 10.3476C8.67869 10.3209 8.96994 10.3102 9.25584 10.3076C9.23179 10.2995 9.20775 10.2915 9.18103 10.2835C9.07682 10.2514 8.96994 10.2221 8.86573 10.182C8.75885 10.1446 8.65197 10.1072 8.54509 10.0698C8.33133 9.99226 8.11756 9.9121 7.91716 9.8453C7.81563 9.81057 7.71943 9.77316 7.62591 9.74644C7.53239 9.71705 7.44422 9.69032 7.36406 9.66627C7.2839 9.63955 7.20641 9.62086 7.13961 9.60482C7.07281 9.58879 7.01402 9.57542 6.96593 9.56474C6.86973 9.54069 6.81363 9.53 6.81363 9.53L6.82164 9.48725C6.82164 9.48725 6.87775 9.49794 6.97394 9.51932C7.02204 9.53 7.0835 9.54069 7.1503 9.55672C7.21977 9.57008 7.29459 9.58879 7.37742 9.61284C7.46025 9.63689 7.54843 9.66093 7.64462 9.68765C7.74081 9.7117 7.83701 9.74644 7.93854 9.7785C8.14162 9.8453 8.35805 9.91477 8.57448 9.98424C8.68404 10.019 8.79091 10.051 8.89779 10.0858C9.00467 10.1205 9.11155 10.1472 9.21309 10.174C9.3173 10.2007 9.4135 10.2327 9.50969 10.2488C9.60588 10.2675 9.69406 10.2862 9.77689 10.3022C9.79292 10.3049 9.80895 10.3076 9.82498 10.3102C10.314 10.3102 10.7655 10.3156 11.161 10.2995C11.6687 10.2808 12.0775 10.2221 12.3527 10.1553C12.4222 10.1392 12.481 10.1232 12.5291 10.1098C12.5478 10.1045 12.5638 10.0991 12.5852 10.0938C12.5451 9.24944 12.505 8.46119 12.4863 7.99359C12.4729 7.99359 12.4649 7.99359 12.4516 7.99359C12.187 7.98023 11.8343 7.95619 11.4202 7.93482C11.3935 7.94016 11.3667 7.9455 11.3373 7.95085C11.2545 7.96955 11.1717 7.99894 11.0808 8.02299C10.9072 8.08979 10.7174 8.16194 10.5411 8.25011C10.4502 8.29019 10.3674 8.34096 10.2819 8.39173C10.1991 8.43982 10.1189 8.50128 10.0414 8.55205C9.88644 8.65893 9.73948 8.75779 9.61924 8.84596C9.37609 9.02232 9.21576 9.13989 9.21576 9.13989L9.18637 9.10782C9.18637 9.10782 9.34402 8.98491 9.5845 8.80054C9.70207 8.70703 9.84635 8.60549 9.99599 8.49327C10.0735 8.43715 10.1456 8.37836 10.2311 8.32225C10.3166 8.26614 10.4021 8.21003 10.493 8.1646C10.672 8.06841 10.8537 7.98825 11.0274 7.91343C10.7682 7.90275 10.4903 7.89741 10.1991 7.90008C9.88377 7.90008 9.55511 7.92412 9.21844 7.97222C8.88177 8.01764 8.53707 8.08979 8.20039 8.19934C8.11489 8.22339 8.03206 8.25545 7.94656 8.28752L7.82097 8.33294C7.78891 8.34363 7.73814 8.36768 7.69806 8.38371C7.52973 8.45853 7.35337 8.53335 7.18771 8.61083C7.02472 8.69367 6.86172 8.77649 6.7014 8.85666C6.54108 8.94483 6.38076 9.03301 6.22044 9.12386C5.90514 9.30555 5.59519 9.48992 5.29325 9.66895C4.99399 9.84797 4.70273 10.0217 4.4195 10.1766C4.27788 10.2541 4.14161 10.3316 4.00534 10.4011C3.86907 10.4679 3.73814 10.5347 3.61256 10.5961C3.36139 10.719 3.12892 10.8286 2.91516 10.9194C2.8056 10.9622 2.70674 11.005 2.61055 11.0317C2.56246 11.0477 2.51703 11.0611 2.47161 11.0744C2.42619 11.0851 2.38343 11.0931 2.34068 11.1038C2.26052 11.1252 2.18303 11.1305 2.1189 11.1386C2.08684 11.1386 2.05745 11.1466 2.02806 11.1466C1.99866 11.1466 1.97461 11.1466 1.95056 11.1466C1.85972 11.1439 1.81162 11.1412 1.81162 11.1412L1.81964 11.0557C1.81964 11.0557 1.86506 11.0557 1.95056 11.0557C1.97194 11.0557 1.99599 11.0557 2.02004 11.0557C2.04676 11.0557 2.07347 11.0477 2.10554 11.045C2.16699 11.0343 2.23647 11.029 2.31395 11.005C2.35136 10.9943 2.39145 10.9836 2.4342 10.9729C2.47695 10.9569 2.5197 10.9408 2.56512 10.9248C2.65597 10.8954 2.75217 10.8473 2.85371 10.8046C3.05411 10.7084 3.2839 10.5881 3.52705 10.4545C3.64996 10.3877 3.77555 10.3182 3.90648 10.2461C4.03741 10.1713 4.16833 10.0885 4.30461 10.0083C4.57715 9.84263 4.85771 9.65826 5.14896 9.46855C5.33066 9.34831 5.5177 9.22539 5.70741 9.10515L5.67535 9.1105C5.57114 9.12119 5.46426 9.14524 5.35738 9.14524C5.2505 9.15058 5.14362 9.1586 5.03941 9.15325C4.9352 9.15325 4.83099 9.15325 4.73213 9.14524C4.5344 9.13722 4.35003 9.1292 4.19238 9.12653C4.11489 9.12653 4.04275 9.12653 3.97862 9.12653C3.91449 9.12653 3.86106 9.13187 3.81563 9.13455C3.72478 9.13989 3.67134 9.14256 3.67134 9.14256L3.666 9.09981C3.666 9.09981 3.71943 9.09714 3.81028 9.08912C3.85571 9.08645 3.91182 9.08111 3.97595 9.07576C4.04007 9.07576 4.11222 9.07309 4.19238 9.07042C4.35003 9.06775 4.53707 9.07042 4.73213 9.07042C4.83099 9.07042 4.93253 9.07042 5.03407 9.06775C5.13828 9.06775 5.23981 9.05706 5.34402 9.04904C5.44823 9.0437 5.54976 9.01965 5.64863 9.00362L5.72344 8.99026L5.79292 8.96888C5.84101 8.95552 5.88644 8.93949 5.93186 8.92613L5.99866 8.90475L6.02538 8.89139C6.02538 8.89139 6.03874 8.88338 6.04675 8.87804C6.2044 8.78184 6.36205 8.68297 6.52237 8.58678C6.68804 8.49326 6.85371 8.39974 7.01937 8.3089C7.18771 8.22072 7.35337 8.14322 7.52171 8.06039C7.56713 8.03902 7.5992 8.02032 7.65264 7.99894L7.78624 7.94283C7.87441 7.90542 7.96259 7.86801 8.05344 7.83862C8.41149 7.70502 8.77756 7.6115 9.13293 7.54737C9.49098 7.48324 9.83834 7.44316 10.1697 7.42713C10.4983 7.40842 10.8083 7.40308 11.0942 7.40308C11.6607 7.40308 12.1256 7.41644 12.4489 7.41911C12.4249 7.10649 12.358 6.3797 12.2699 5.46587C12.2111 5.47923 12.1496 5.49259 12.0855 5.50595C11.9813 5.53267 11.8691 5.56207 11.7515 5.59413C11.511 5.65826 11.2385 5.73842 10.9312 5.8159C10.7789 5.85599 10.6132 5.88805 10.4449 5.92546C10.2739 5.95485 10.0949 5.98157 9.91049 6.00295C9.81697 6.00829 9.72077 6.01096 9.62458 6.01631C9.57381 6.01631 9.52572 6.02165 9.47495 6.02432C9.42953 6.02432 9.38142 6.02432 9.336 6.01898C9.14896 6.01364 8.95925 6.01363 8.76419 6.00027C8.56914 5.98959 8.36607 5.9789 8.17368 5.97355C8.02672 5.96821 7.87976 5.9602 7.73013 5.96287C7.66333 6.00562 7.57515 6.08311 7.4843 6.19266C7.39078 6.30488 7.29191 6.44917 7.18236 6.60415C7.07014 6.75646 6.94455 6.93281 6.7682 7.05305C6.59986 7.1813 6.41015 7.26948 6.23914 7.35766C6.06813 7.44049 5.90781 7.51798 5.78223 7.59814C5.71543 7.63555 5.66466 7.6783 5.61656 7.71571C5.59252 7.73441 5.57114 7.75044 5.54976 7.76914C5.53106 7.78785 5.51503 7.80388 5.50167 7.81991C5.44289 7.88137 5.41082 7.91878 5.41082 7.91878L5.34135 7.86802C5.34135 7.86802 5.37608 7.82793 5.43754 7.76113C5.45357 7.7451 5.4696 7.72639 5.48831 7.70502C5.50701 7.68631 5.53106 7.66761 5.55511 7.64891C5.60587 7.60883 5.65932 7.56073 5.72612 7.52065C5.98263 7.34163 6.37809 7.19734 6.68537 6.95686C6.84302 6.84464 6.95257 6.68164 7.05945 6.52666C7.16366 6.37168 7.25985 6.22205 7.35605 6.09914C7.39346 6.05104 7.43086 6.00829 7.46827 5.97089C7.40414 5.97089 7.34001 5.97355 7.27588 5.97623C7.18771 5.98157 7.07548 5.99761 6.97662 6.00562C6.87775 6.01898 6.78424 6.03769 6.68804 6.05372C6.59185 6.07242 6.49298 6.09914 6.39679 6.12052C5.61923 6.32626 4.8871 6.70836 4.16299 6.99961C4.07214 7.03702 3.98396 7.07175 3.89311 7.10382C3.84769 7.12252 3.7996 7.14657 3.74616 7.17863C3.5511 7.27482 3.30795 7.43515 3.07281 7.60616C2.84035 7.78251 2.61589 7.96954 2.46626 8.12719C2.3861 8.20201 2.32999 8.27149 2.28724 8.31691C2.24449 8.36501 2.22044 8.39173 2.22044 8.39173L2.15097 8.34096C2.15097 8.34096 2.17501 8.31156 2.21509 8.26347C2.25784 8.21537 2.31396 8.14056 2.39145 8.06307C2.54108 7.8974 2.76018 7.69967 2.98997 7.50996C3.08082 7.44049 3.169 7.37369 3.25985 7.30956C3.20106 7.32559 3.14495 7.34163 3.08617 7.35499C2.99799 7.37903 2.90981 7.3924 2.82431 7.40843C2.78156 7.41644 2.73881 7.42446 2.69606 7.43248C2.64262 7.44049 2.60788 7.44316 2.56512 7.44583C2.39946 7.46186 2.23914 7.4779 2.08417 7.49393C1.77154 7.51263 1.48029 7.5153 1.22912 7.52599C0.97795 7.53401 0.756175 7.53134 0.579822 7.54737C0.221772 7.57409 0.0186979 7.59546 0.0186979 7.59546L0 7.46721C0 7.46721 0.208413 7.45118 0.571806 7.4111C0.753503 7.38972 0.972611 7.38705 1.22645 7.36834C1.47762 7.35231 1.75551 7.34163 2.06546 7.31223C2.21776 7.29353 2.38076 7.27215 2.54375 7.25077C2.58383 7.24543 2.63193 7.24009 2.664 7.23474C2.70408 7.22673 2.74415 7.21605 2.78691 7.20803C2.86974 7.18932 2.95257 7.17329 3.0354 7.14924C3.37207 7.06107 3.71677 6.93013 4.0668 6.77516C4.52906 6.57208 5.00468 6.32626 5.50969 6.10983C5.45892 6.10983 5.40547 6.10448 5.3547 6.10181C4.9352 6.06708 4.51837 6.02699 4.20574 5.96821C4.04809 5.93882 3.91984 5.90409 3.83166 5.86401C3.78624 5.84263 3.7515 5.81858 3.73013 5.79721C3.70875 5.77583 3.70073 5.75178 3.70073 5.75445L3.78089 5.71972C3.78089 5.71972 3.78891 5.74911 3.86907 5.78384C3.94656 5.81591 4.07214 5.84797 4.22445 5.87202C4.52906 5.92279 4.94856 5.94951 5.3654 5.97623C5.54175 5.98692 5.7181 5.97623 5.88911 5.9602C6.02805 5.90943 6.167 5.85866 6.31129 5.8159C6.4155 5.78918 6.51436 5.75712 6.62124 5.73307C6.72545 5.7117 6.83501 5.68498 6.93921 5.66895C7.04342 5.65559 7.13427 5.63955 7.25183 5.62619C7.35604 5.62085 7.46292 5.61283 7.56713 5.60749C7.77822 5.59146 7.98129 5.59413 8.18436 5.59413C8.39011 5.59413 8.5825 5.59947 8.77488 5.60215C8.9646 5.60749 9.15965 5.60215 9.34402 5.60215C9.38945 5.60215 9.43754 5.60215 9.48297 5.60215C9.52572 5.5968 9.5658 5.59413 9.60855 5.58878C9.69405 5.58077 9.77955 5.57275 9.86239 5.56474C10.0281 5.53802 10.191 5.50862 10.3487 5.47389C10.5063 5.43114 10.656 5.3964 10.8029 5.35098C11.0942 5.2628 11.3614 5.17462 11.6045 5.09713C11.7275 5.05972 11.8397 5.02499 11.9466 4.99025C12.0481 4.96353 12.1389 4.93949 12.2245 4.91811C12.147 4.10849 12.0588 3.20001 11.9759 2.33161C11.8637 2.37436 11.7408 2.42245 11.6045 2.45986C11.4175 2.52131 11.2011 2.57208 10.9686 2.6282C10.8537 2.65224 10.7308 2.67629 10.6052 2.70301C10.4796 2.72439 10.3487 2.74577 10.2151 2.76981C10.2044 2.76981 10.1937 2.76981 10.1857 2.77515C10.1777 2.78317 10.1697 2.78585 10.1617 2.79654C10.0762 2.88204 9.97461 3.02098 9.88911 3.16794C9.80093 3.3149 9.72345 3.46988 9.65932 3.58745C9.59786 3.70234 9.55244 3.77983 9.55244 3.77983L9.47495 3.73975C9.47495 3.73975 9.51503 3.66494 9.56847 3.54469C9.62191 3.42713 9.69405 3.2668 9.77421 3.10916C9.82765 3.00228 9.88911 2.89807 9.95324 2.80989C9.90247 2.81791 9.85437 2.82326 9.8036 2.83127C9.65931 2.8473 9.52839 2.86868 9.36807 2.88204L9.25852 2.89272H9.1356C9.05277 2.90074 8.97795 2.8954 8.89779 2.8954C8.74282 2.89005 8.58784 2.88204 8.43287 2.86868C8.42218 2.86868 8.41416 2.86868 8.40347 2.86868C8.37141 2.87936 8.33934 2.89006 8.30461 2.90609C8.19238 2.95686 8.06947 3.03701 7.93854 3.13588C7.87441 3.18397 7.80762 3.23475 7.74082 3.29086C7.67134 3.3443 7.60187 3.39774 7.52973 3.44851C7.24649 3.65425 6.96593 3.85732 6.79492 4.04703C6.70942 4.14055 6.64796 4.22606 6.61589 4.29019C6.59719 4.32225 6.59185 4.34897 6.58116 4.365C6.57314 4.38371 6.57047 4.39173 6.57047 4.39173L6.48764 4.36768C6.48764 4.36768 6.49031 4.35699 6.49833 4.33828C6.50901 4.31958 6.51436 4.28751 6.53574 4.25278C6.57047 4.18063 6.63193 4.08711 6.72011 3.98557C6.89379 3.77983 7.17434 3.5634 7.44956 3.34964C7.67401 3.17596 7.8851 2.97556 8.09619 2.84196C7.90113 2.82592 7.70608 2.80989 7.51102 2.80188C7.30527 2.79386 7.09953 2.79921 6.9018 2.82326V2.83394C6.9018 2.83394 6.88577 2.83394 6.86706 2.82592C6.78958 2.83661 6.71476 2.84997 6.64262 2.86868C6.60788 2.87669 6.57849 2.89006 6.54375 2.89807L6.49566 2.9141L6.48497 2.91945H6.47695L6.46092 2.93014L6.35938 2.9809C6.32465 2.99694 6.28991 3.01297 6.26854 3.03167C6.2151 3.06908 6.16433 3.09847 6.11089 3.14389C6.05745 3.18932 6.00401 3.23207 5.95324 3.27749C5.7475 3.46453 5.55778 3.67295 5.34402 3.84663C5.29325 3.89206 5.23446 3.92946 5.17835 3.96954L5.09552 4.02566C5.07949 4.03368 5.06346 4.04169 5.0501 4.04971C4.95391 4.15926 4.85504 4.28752 4.76419 4.42379C4.61189 4.65358 4.4676 4.89406 4.34736 5.06775C4.29125 5.15592 4.23246 5.22272 4.19505 5.27349C4.15764 5.32158 4.13627 5.35098 4.13627 5.35098L4.0668 5.30021C4.0668 5.30021 4.08817 5.27081 4.12024 5.22272C4.1523 5.17195 4.20841 5.10782 4.26185 5.01698C4.37408 4.84329 4.50768 4.60014 4.65196 4.35966C4.68403 4.3089 4.71877 4.25813 4.75084 4.20736C4.72946 4.21804 4.70541 4.23141 4.68404 4.24209C4.47027 4.33829 4.2672 4.42112 4.09085 4.49059C3.9145 4.55739 3.75951 4.61351 3.63393 4.6616C3.38276 4.75779 3.24382 4.82192 3.24382 4.82192L3.19037 4.70435C3.19037 4.70435 3.33733 4.65091 3.58316 4.54136C3.70607 4.48792 3.85571 4.42379 4.02939 4.34897C4.2004 4.27148 4.38477 4.18598 4.58784 4.08177C4.6867 4.02299 4.79091 3.96153 4.89779 3.8974L4.97261 3.85197L5.04208 3.79586C5.09018 3.75846 5.13828 3.72372 5.1837 3.6783C5.37074 3.50996 5.54442 3.29887 5.75017 3.08778C5.80093 3.03434 5.85972 2.98358 5.91583 2.93281C5.97194 2.87937 6.04409 2.83127 6.11089 2.7805C6.12425 2.76982 6.1376 2.7618 6.14829 2.75378C6.07348 2.75378 5.99599 2.75378 5.91583 2.75111C5.82498 2.75111 5.7181 2.74309 5.62725 2.73775C5.52572 2.73241 5.42418 2.73241 5.32532 2.72439C4.92184 2.695 4.52638 2.64423 4.22979 2.6469C4.08283 2.64957 3.95725 2.65224 3.87442 2.66828C3.78891 2.67896 3.74082 2.68431 3.74082 2.68431L3.72478 2.60147C3.72478 2.60147 3.77555 2.59346 3.86373 2.5801C3.9519 2.56407 4.07749 2.55606 4.22979 2.54804C4.5344 2.53735 4.93787 2.57743 5.33333 2.59613C5.4322 2.60415 5.53106 2.5988 5.62725 2.60147C5.73414 2.60415 5.82231 2.6095 5.91583 2.60682C6.10287 2.60682 6.27922 2.60148 6.43152 2.60682C6.46893 2.59346 6.50635 2.57475 6.54643 2.56674C6.8644 2.47054 7.19305 2.44383 7.51102 2.43849C7.82899 2.43314 8.14161 2.44918 8.44355 2.45719C8.59585 2.45986 8.74282 2.46254 8.8871 2.45719C8.95658 2.45452 9.03139 2.45452 9.09552 2.4465L9.19438 2.43849L9.30127 2.42512C9.42953 2.40642 9.57915 2.37703 9.71275 2.35298C9.84903 2.32626 9.97996 2.29954 10.1082 2.27282C10.2365 2.24343 10.3594 2.21671 10.4796 2.18999C10.5972 2.1606 10.7121 2.1312 10.8216 2.10181C11.0381 2.03768 11.2331 1.9789 11.4015 1.91477C11.5751 1.85865 11.7007 1.79186 11.8156 1.74376C11.8477 1.7304 11.8771 1.71437 11.9065 1.70101C11.8574 1.18785 11.8154 0.705421 11.78 0.252369C11.78 0.252369 13.6486 0.148571 13.1116 0.148571C13.0902 0.199339 13.0741 1.50862 13.0661 1.8827C13.0929 1.90675 13.1222 1.9308 13.1543 1.95752C13.2024 1.99226 13.2532 2.02966 13.3093 2.06707C13.3681 2.10181 13.4269 2.14189 13.4963 2.1793C13.6299 2.25412 13.7822 2.32894 13.9506 2.39841C14.0949 2.45986 14.2525 2.51864 14.4155 2.57743C14.477 2.5801 14.5438 2.58277 14.6159 2.58277C14.7949 2.58277 15.0087 2.57208 15.2358 2.55071C15.348 2.54002 15.4656 2.52666 15.5832 2.51063C15.6419 2.50261 15.7007 2.49192 15.7569 2.47857C15.8103 2.4652 15.8691 2.44382 15.9225 2.42512C16.1443 2.34496 16.3607 2.22473 16.5825 2.14724C16.8016 2.06441 17.0287 2.04035 17.2104 2.03501C17.5765 2.01363 17.8196 2.00027 17.8196 2.00027L17.8303 2.0831C17.8303 2.0831 17.5872 2.10181 17.2211 2.13121C17.0367 2.1419 16.8337 2.16594 16.6253 2.24877C16.4168 2.32626 16.2057 2.44917 15.9733 2.54002C15.9145 2.5614 15.8584 2.58544 15.7916 2.60147C15.7301 2.61751 15.6687 2.6282 15.6099 2.63889C15.4896 2.66026 15.3721 2.6763 15.2572 2.68966C15.1262 2.70302 15.0033 2.71638 14.8831 2.72439C15.1556 2.80455 15.4362 2.88204 15.7221 2.94884C16.0294 3.02366 16.3393 3.09046 16.6413 3.14924C16.8978 3.12519 17.149 3.11183 17.3894 3.05037H17.3948C17.9051 2.96219 18.4235 2.90074 18.9419 2.90609V2.99159C18.4315 3.00228 17.9212 3.07977 17.4215 3.17863C17.4215 3.17863 17.4269 3.17863 17.4295 3.17863C17.3307 3.20535 17.2318 3.22406 17.1356 3.24009C17.483 3.30422 17.8116 3.36033 18.0975 3.40843C18.4235 3.46454 18.6961 3.50996 18.8884 3.54203C19.0782 3.57677 19.1877 3.59814 19.1877 3.59814L19.1637 3.72372C19.1637 3.72372 19.0541 3.71036 18.8644 3.68631C18.672 3.66493 18.3968 3.63555 18.0708 3.60081C17.4108 3.53134 16.5317 3.43515 15.6526 3.28284C14.7762 3.13054 13.8998 2.9141 13.2665 2.60949C13.1971 2.57743 13.1303 2.54002 13.0661 2.50795C13.0635 2.94349 13.0635 3.46186 13.0661 4.02833C13.1784 4.031 13.3013 4.04169 13.4349 4.05505C13.6219 4.07643 13.8303 4.10582 14.0521 4.14323C14.2739 4.18064 14.5117 4.22071 14.7655 4.26347C15.0167 4.30355 15.2786 4.3463 15.5458 4.37035C15.6126 4.37569 15.6794 4.38371 15.7462 4.38103C15.8156 4.38103 15.8878 4.38371 15.9573 4.38638C16.0294 4.38638 16.1015 4.38638 16.1737 4.38905C16.2485 4.39172 16.3287 4.39974 16.4061 4.40776C16.7134 4.43448 17.018 4.49326 17.312 4.5761C17.4429 4.61083 17.5711 4.65091 17.6967 4.69099C17.7154 4.69366 17.7368 4.69634 17.7635 4.70168C17.8009 4.70702 17.8464 4.71504 17.8971 4.72305C17.9479 4.73107 18.0067 4.74176 18.0708 4.74176C18.3273 4.76046 18.6747 4.73107 19.022 4.67763C19.3694 4.62152 19.7194 4.56006 19.9893 4.53602C20.1202 4.51999 20.2351 4.52532 20.3126 4.51998C20.3901 4.51998 20.4355 4.51464 20.4355 4.51464V4.60014C20.4355 4.60014 20.3928 4.60281 20.3153 4.60816C20.2405 4.61617 20.1309 4.6135 20 4.63488C19.7381 4.66694 19.3961 4.73642 19.0461 4.80322C18.7789 4.85131 18.509 4.88872 18.2739 4.89673C18.3086 4.91009 18.3407 4.92078 18.3754 4.93414C18.4422 4.95552 18.509 4.97957 18.5758 5.00094C18.7067 5.03835 18.8377 5.07041 18.9739 5.09713C19.5137 5.20134 20.0347 5.24677 20.4783 5.29753C20.7001 5.32158 20.9058 5.34563 21.0875 5.37502C21.2692 5.40174 21.4269 5.43114 21.5551 5.46587C21.6192 5.47923 21.678 5.49793 21.7261 5.51397C21.7769 5.53 21.817 5.54336 21.849 5.55939C21.9158 5.59146 21.9506 5.60749 21.9506 5.60749L21.9078 5.68498C21.9078 5.68498 21.8758 5.67161 21.8143 5.64757C21.7849 5.63421 21.7448 5.62352 21.6967 5.61016C21.6513 5.5968 21.5952 5.58344 21.5311 5.57275C21.4055 5.54603 21.2505 5.52733 21.0715 5.50863C20.8925 5.48992 20.6894 5.47656 20.4649 5.46321C20.4462 5.46321 20.4222 5.4632 20.4008 5.46053C20.497 5.50863 20.5959 5.56207 20.6894 5.62085C20.9031 5.7598 21.1062 5.90408 21.2639 6.00295C21.3414 6.05372 21.4108 6.08845 21.4589 6.11517C21.5043 6.14189 21.5337 6.15792 21.5337 6.15792L21.4937 6.23274C21.4937 6.23274 21.4643 6.21938 21.4162 6.19266C21.3681 6.16594 21.2933 6.13388 21.2131 6.08578C21.0474 5.99226 20.8363 5.85332 20.6226 5.72773C20.4088 5.60482 20.1817 5.50862 20.0053 5.46587C19.9172 5.43915 19.8424 5.43916 19.7889 5.42847C19.7381 5.42045 19.7087 5.4151 19.7087 5.4151C19.4629 5.3964 19.2011 5.37235 18.9312 5.33495C18.7922 5.31357 18.6453 5.28685 18.4983 5.25211C18.4262 5.23341 18.3567 5.21203 18.2846 5.19333C18.2151 5.17195 18.1456 5.15058 18.0762 5.1292C17.7983 5.0437 17.515 4.95819 17.2318 4.89673C16.9486 4.8326 16.6627 4.79253 16.3848 4.78184C16.3661 4.78184 16.3474 4.78184 16.3287 4.78184C16.3794 4.81925 16.4302 4.85933 16.481 4.89941C16.7161 5.09446 16.9352 5.29753 17.1222 5.4151C17.2158 5.47121 17.2959 5.51932 17.3574 5.53802C17.4162 5.5594 17.4509 5.57275 17.4509 5.57275L17.4295 5.65292C17.4295 5.65292 17.3921 5.63955 17.3253 5.61818C17.2585 5.59947 17.173 5.55138 17.0688 5.49527C16.8657 5.3777 16.6359 5.1773 16.3981 4.9956C16.2886 4.91277 16.1737 4.8326 16.0641 4.77916C16.0294 4.77916 15.9947 4.77917 15.9626 4.78184C15.8904 4.78184 15.8183 4.78718 15.7462 4.78718C15.6687 4.78985 15.5965 4.78718 15.5244 4.78718C15.2331 4.77649 14.9606 4.74443 14.7041 4.71771C14.4876 4.69099 14.2819 4.66961 14.0895 4.64556C14.2098 4.72305 14.33 4.81658 14.4449 4.91811C14.6346 5.08645 14.811 5.2628 14.9526 5.38572C15.022 5.44717 15.0835 5.49527 15.1263 5.53001C15.169 5.56474 15.1931 5.58344 15.1931 5.58344L15.1396 5.65024C15.1396 5.65024 15.1156 5.63154 15.0701 5.59681C15.0274 5.56207 14.9606 5.51664 14.8884 5.45786C14.7415 5.33762 14.5544 5.17195 14.3621 5.0143C14.1697 4.85932 13.9639 4.72573 13.7956 4.65625C13.7421 4.62953 13.6914 4.6135 13.6486 4.60014C13.5578 4.59213 13.4723 4.58411 13.3948 4.58144C13.2745 4.57342 13.1677 4.57075 13.0741 4.57342C13.0795 5.22539 13.0848 5.91744 13.0929 6.60415C13.1356 6.62286 13.1784 6.63889 13.2211 6.66026C13.3814 6.72706 13.5605 6.82593 13.7609 6.93815C13.9613 7.05038 14.175 7.1813 14.4075 7.30956C14.6399 7.43781 14.8911 7.55806 15.1663 7.63288C15.2358 7.65158 15.3053 7.67028 15.3774 7.68097C15.4496 7.697 15.5217 7.70235 15.5965 7.70769L15.6526 7.71303H15.8317C15.9172 7.71303 16.0027 7.71303 16.0882 7.71036C16.1737 7.71036 16.2619 7.71036 16.35 7.71036C16.3874 7.71036 16.4248 7.71036 16.4623 7.71036C16.4729 7.70769 16.4836 7.70502 16.497 7.70234C16.6787 7.66226 16.8871 7.59813 17.1089 7.51797C17.328 7.43781 17.5578 7.33628 17.7822 7.22673C18.2338 7.00762 18.672 6.75645 19.0033 6.57743C19.3347 6.39573 19.5618 6.28351 19.5618 6.28351L19.6019 6.35832C19.6019 6.35832 19.3801 6.47589 19.0514 6.66294C18.7228 6.84998 18.2899 7.10916 17.8383 7.33895C17.6112 7.45385 17.3814 7.56073 17.1597 7.64891C17.1463 7.65425 17.1329 7.65692 17.1222 7.66227C17.1276 7.66227 17.1329 7.66227 17.1383 7.66227C17.3146 7.65158 17.4963 7.63288 17.678 7.61417C17.8597 7.59547 18.0441 7.57676 18.2258 7.56073C18.4102 7.54469 18.5945 7.52867 18.7789 7.51263C18.8697 7.50462 18.9633 7.4966 19.0541 7.48859L19.1236 7.48325C19.1583 7.48057 19.1717 7.48324 19.1984 7.48057H19.3347C19.5164 7.47523 19.6927 7.46186 19.8744 7.46988C20.0561 7.48057 20.2378 7.48859 20.4142 7.49928C20.5878 7.52332 20.7589 7.5447 20.9272 7.56608C21.0928 7.58478 21.2532 7.6302 21.4108 7.65959C21.4883 7.67562 21.5658 7.69166 21.6433 7.71036C21.7181 7.73174 21.7929 7.75311 21.8651 7.77182C22.0094 7.81457 22.151 7.84664 22.2819 7.89206C22.5438 7.98291 22.7869 8.05773 22.9953 8.14323C23.2037 8.22606 23.3881 8.29286 23.5351 8.35699C23.8317 8.48257 24 8.55472 24 8.55472L23.9706 8.62419C23.9706 8.62419 23.7996 8.56006 23.4977 8.44784L23.4816 8.3757ZM10.3514 17.1292H10.346C10.346 17.1292 10.346 17.1319 10.346 17.1346H10.354V17.1319L10.3514 17.1292Z" fill="#1B1B1B"/>
</svg>
