<svg width="24" height="25" viewBox="0 0 24 25" fill="none" xmlns="http://www.w3.org/2000/svg">
<path d="M5.31369 16.8198H5.31814C5.43625 16.6638 5.54321 16.4989 5.67692 16.3496C5.73708 16.2827 5.80617 16.2159 5.8797 16.1579C5.79502 16.1713 5.70812 16.1847 5.62121 16.2025C5.3226 16.2627 5.024 16.3318 4.8123 16.4142C4.70311 16.4476 4.62065 16.4922 4.56272 16.5189C4.50255 16.5479 4.46912 16.5635 4.46912 16.5635L4.44238 16.5256C4.44238 16.5256 4.47581 16.5078 4.53375 16.4744C4.59169 16.4432 4.67414 16.3919 4.7811 16.3496C4.99057 16.2493 5.28695 16.1602 5.58778 16.0799C5.88862 16.0042 6.19614 15.9462 6.42789 15.9084C6.44349 15.9061 6.45686 15.9039 6.47246 15.9017C6.21619 15.8014 5.99335 15.6721 5.75714 15.554C5.62121 15.4827 5.48528 15.4136 5.34489 15.3535C5.20895 15.2978 5.05074 15.2354 4.92595 15.2621L4.89475 15.1997C4.98834 15.1641 5.07525 15.1841 5.15547 15.1953C5.23569 15.2131 5.31369 15.2354 5.38945 15.2599C5.54099 15.3111 5.68583 15.3735 5.82845 15.4359C6.11369 15.5585 6.39669 15.6989 6.67525 15.7858L6.68193 15.7947C6.80672 15.8393 6.95602 15.8571 7.10533 15.8638C7.25463 15.8705 7.40839 15.8682 7.56215 15.8593C7.81619 15.8437 8.07245 15.8125 8.32426 15.7702C8.42008 15.7345 8.53596 15.7189 8.6407 15.7368C8.78777 15.7591 8.89919 15.8237 8.97273 15.8593C9.01061 15.8772 9.04181 15.8883 9.05741 15.8905C9.07451 15.8927 9.08136 15.8907 9.09566 15.8866L9.09752 15.8861H9.10198C9.10198 15.8861 9.09975 15.8772 9.09752 15.8816C9.08192 15.8905 9.09975 15.8772 9.10866 15.866C9.12872 15.8437 9.15323 15.8103 9.17774 15.7791C9.22677 15.7123 9.27802 15.6387 9.34042 15.5652C9.40727 15.4916 9.47189 15.4114 9.62342 15.3446C9.67691 15.329 9.72816 15.3156 9.77941 15.3C9.82844 15.2844 9.87746 15.2777 9.92649 15.2733C10.029 15.2599 10.1048 15.2599 10.185 15.2554C10.4747 15.2354 10.7711 15.1396 10.8981 15.1173C10.9226 15.1017 10.9471 15.0861 10.9694 15.0705C11.0251 15.0348 11.0652 14.9925 11.1053 14.9524C11.1365 14.9078 11.1722 14.8699 11.1922 14.8209C11.2368 14.7251 11.268 14.6025 11.2947 14.4799C11.3215 14.3574 11.3438 14.2304 11.3772 14.1033C11.3928 14.041 11.4128 13.9763 11.4329 13.9117C11.4373 13.8961 11.4418 13.8805 11.4574 13.8493L11.473 13.8137C11.4841 13.7914 11.4931 13.7669 11.502 13.7423C11.5755 13.5485 11.6178 13.3479 11.6713 13.163C11.7226 12.978 11.7827 12.8109 11.8563 12.6727C11.9231 12.5435 12.0011 12.4454 12.0613 12.3786C12.0925 11.9997 12.1415 11.6053 12.2128 11.1997C12.2485 10.9769 12.273 10.7674 12.3042 10.5468C12.3198 10.4376 12.3354 10.3262 12.3488 10.217C12.3644 10.1056 12.3666 9.99194 12.3755 9.88052C12.3777 9.84486 12.38 9.80921 12.3822 9.77578V9.75127H12.3844C12.3956 9.56854 12.4089 9.38358 12.4223 9.19863C12.4223 8.9691 12.4268 8.7418 12.429 8.51228V8.34069C12.429 8.28275 12.4245 8.22704 12.4201 8.17133L12.3978 7.83261C12.3844 7.64097 12.3733 7.45156 12.3599 7.26214C12.3421 7.28443 12.322 7.30894 12.3042 7.33345C12.2708 7.37579 12.2373 7.42036 12.1995 7.46493C12.1683 7.50727 12.146 7.54515 12.117 7.58749L12.0747 7.64989L12.0368 7.72119C12.0145 7.76799 11.9855 7.81479 11.9632 7.86604C11.8719 8.06882 11.7983 8.30281 11.7315 8.55239C11.6981 8.67718 11.6669 8.80643 11.6357 8.94013C11.6045 9.07384 11.571 9.20977 11.5398 9.3457C11.473 9.59528 11.4485 9.86938 11.4151 10.1524L11.4126 10.1729C11.38 10.4496 11.3461 10.7367 11.2613 11.0259C11.2256 11.173 11.1543 11.3223 11.0897 11.4649C11.0474 11.5318 11.0073 11.6008 10.9649 11.6655C10.9181 11.7256 10.8736 11.788 10.8245 11.8482C10.6307 12.0822 10.4145 12.2716 10.2073 12.441C10 12.6103 9.80169 12.7596 9.62565 12.8978C9.61228 12.9089 9.59891 12.9178 9.58554 12.929L9.58458 12.9443C9.58016 13.0147 9.57409 13.1115 9.56994 13.2276C9.5588 13.4772 9.5588 13.8248 9.47189 14.1702L9.42955 14.2972C9.42064 14.3195 9.41841 14.3373 9.40727 14.3618C9.39613 14.3886 9.38276 14.4086 9.36939 14.4309C9.3159 14.5111 9.25796 14.5758 9.20003 14.6382C9.08415 14.763 8.9705 14.8699 8.87022 14.9613C8.76994 15.0526 8.68526 15.1262 8.62287 15.1752C8.59167 15.1997 8.56716 15.2198 8.54933 15.2331C8.53819 15.2398 8.53373 15.2443 8.52259 15.2487C8.51368 15.2487 8.52482 15.2532 8.49362 15.2554C8.47328 15.2517 8.46828 15.245 8.46717 15.244L8.49585 15.2198C8.49585 15.2198 8.50031 15.2198 8.49808 15.2109C8.49362 15.2109 8.47802 15.1774 8.48248 15.1864C8.48471 15.1841 8.48917 15.1797 8.49585 15.1752C8.51145 15.1618 8.53373 15.1418 8.56047 15.115C8.61618 15.0616 8.69195 14.9836 8.78109 14.8855C8.87022 14.7875 8.9705 14.6738 9.06855 14.5468C9.11757 14.4844 9.1666 14.4153 9.20226 14.3507C9.21117 14.3351 9.21785 14.3195 9.22231 14.3061C9.22677 14.2928 9.23122 14.2682 9.23568 14.2504L9.26242 14.1323C9.30922 13.8137 9.27802 13.4838 9.26242 13.2298V13.1964C9.08638 13.3479 8.94822 13.4838 8.85462 13.5997C8.77886 13.6933 8.72092 13.7669 8.68972 13.8203C8.65407 13.8716 8.63624 13.9006 8.63624 13.9006L8.25073 13.7245C8.25073 13.7245 8.27078 13.6911 8.30866 13.6287C8.32426 13.602 8.34655 13.5685 8.36883 13.5329C8.17496 13.5685 7.93652 13.6153 7.68025 13.6532C7.65129 13.6644 7.61786 13.6799 7.58443 13.6978C7.45073 13.7669 7.29474 13.8939 7.14767 14.032C7.00282 14.1702 6.86689 14.3195 6.76215 14.4287C6.65742 14.5379 6.58165 14.6092 6.58165 14.6092L6.55045 14.5825C6.55045 14.5825 6.62176 14.5111 6.71981 14.3997C6.82009 14.2883 6.94934 14.1345 7.08973 13.9875C7.20115 13.8716 7.32148 13.7624 7.43736 13.6822C7.42845 13.6822 7.42176 13.6822 7.41285 13.6844C7.23457 13.6978 7.05407 13.7201 6.88471 13.7134L6.87999 13.7133C6.71473 13.7111 6.56485 13.7091 6.43903 13.729C6.31201 13.7468 6.21619 13.7914 6.16048 13.8315C6.10254 13.8716 6.08472 13.9072 6.08249 13.905L6.04015 13.8805C6.04015 13.8805 6.06243 13.8426 6.1226 13.7936C6.18277 13.7423 6.2875 13.6866 6.42343 13.6621C6.55937 13.6332 6.71758 13.6265 6.88249 13.6198C7.04739 13.6198 7.21897 13.5864 7.39279 13.5641C7.73819 13.5106 8.07691 13.4215 8.33541 13.3591C8.40894 13.3435 8.47357 13.3279 8.5315 13.3145C8.70309 13.1028 8.9705 12.8488 9.29808 12.5769C9.64348 12.2805 10.0713 11.9618 10.3811 11.563C10.4167 11.5117 10.4524 11.4605 10.4903 11.4092C10.5215 11.3557 10.5527 11.3045 10.5816 11.251C10.5861 11.2421 10.5883 11.2332 10.5928 11.222C10.5326 11.3134 10.4658 11.4092 10.3789 11.5095C10.2318 11.6878 9.98665 11.8437 9.7237 11.895C9.58777 11.9195 9.46966 11.9329 9.35379 11.9507C9.23791 11.9685 9.1198 11.9752 9.01061 12.0064C8.90142 12.0309 8.79446 12.0554 8.69418 12.08C8.5939 12.1045 8.50031 12.1357 8.4134 12.1602C8.23958 12.2092 8.09474 12.2582 7.99446 12.2894C7.89418 12.3229 7.83624 12.3407 7.83624 12.3407L7.80727 12.2761C7.80727 12.2761 7.86298 12.2538 7.96103 12.2159C8.05908 12.178 8.19947 12.1201 8.37106 12.0599C8.45797 12.0287 8.54933 11.993 8.64961 11.9618C8.74989 11.9307 8.85908 11.8995 8.96827 11.866C9.07746 11.8281 9.1978 11.8125 9.31813 11.7858C9.43846 11.7613 9.56326 11.7368 9.66799 11.7123C9.88192 11.6521 10.0513 11.5295 10.1672 11.3713C10.2028 11.3245 10.234 11.2777 10.2652 11.2287C10.1894 11.2599 10.0958 11.2956 9.98442 11.3268C9.83289 11.3736 9.65239 11.4137 9.45629 11.4426C9.26019 11.4738 9.04849 11.4917 8.83234 11.4827C8.61841 11.4649 8.4134 11.4159 8.22176 11.378C8.03011 11.3401 7.84961 11.3112 7.69585 11.3134C7.54209 11.3134 7.41507 11.3424 7.33708 11.378C7.29474 11.3914 7.268 11.4137 7.24794 11.4226C7.22789 11.4337 7.21675 11.4404 7.21675 11.4404L7.19223 11.4114C7.19223 11.4114 7.20337 11.4047 7.22566 11.3936C7.24794 11.3825 7.27469 11.3602 7.31925 11.3446C7.40393 11.3045 7.53764 11.2733 7.69808 11.2688C7.85853 11.2644 8.04348 11.2889 8.23736 11.3245C8.43123 11.358 8.63624 11.4025 8.83902 11.4159C9.04181 11.4203 9.25128 11.4003 9.44069 11.3646C9.63234 11.3312 9.80615 11.2889 9.95323 11.2421C10.1003 11.1953 10.2139 11.1463 10.2942 11.1084C10.3187 11.095 10.3387 11.0861 10.3543 11.0749C10.39 11.0125 10.4234 10.9479 10.4591 10.89C10.5438 10.7407 10.6307 10.6137 10.702 10.529C10.7332 10.4911 10.7599 10.4621 10.78 10.4398C10.7911 10.3308 10.8 10.2172 10.8089 10.1037L10.8089 10.1034C10.8312 9.82481 10.8446 9.52843 10.9092 9.23428C10.9204 9.18303 10.9293 9.134 10.9382 9.08275C10.907 9.13623 10.8736 9.18971 10.8379 9.24542C10.7243 9.42147 10.5794 9.62648 10.341 9.74904C10.107 9.8716 9.86186 9.89835 9.64794 9.94514C9.54097 9.96743 9.43847 9.99194 9.3471 10.0209C9.25128 10.0543 9.16214 10.0855 9.07969 10.1167C8.91256 10.1724 8.77886 10.2237 8.68972 10.2683C8.60504 10.3151 8.55602 10.3418 8.55602 10.3418L8.50699 10.2883C8.50699 10.2883 8.55602 10.2571 8.64515 10.1992C8.73429 10.1457 8.87022 10.0855 9.03289 10.0187C9.11312 9.98302 9.20003 9.94514 9.29362 9.90503C9.38053 9.86938 9.47635 9.84041 9.57217 9.81367C9.39167 9.79138 9.19334 9.74681 8.99947 9.70002C8.70978 9.62871 8.41785 9.56409 8.19724 9.55963C8.14153 9.5574 8.09028 9.5574 8.04571 9.55963C8.00114 9.55963 7.96103 9.56409 7.92983 9.57077C7.86521 9.58191 7.82956 9.5886 7.82956 9.5886L7.81841 9.55294C7.81841 9.55294 7.8563 9.54626 7.92092 9.53289C7.95435 9.52397 7.99446 9.52174 8.04125 9.51729C8.08805 9.51283 8.1393 9.5106 8.19724 9.51283C8.42677 9.51283 8.72538 9.57077 9.0173 9.63317C9.30922 9.69556 9.60337 9.75127 9.81952 9.7379H9.84849C9.98442 9.70002 10.1181 9.65545 10.2251 9.5886C10.3989 9.48609 10.5103 9.30782 10.6039 9.13623C10.6953 8.96242 10.7711 8.78637 10.8624 8.63484C10.927 8.52342 11.0073 8.4276 11.0853 8.35629C11.1432 8.10894 11.2078 7.86604 11.3036 7.63206C11.3282 7.56966 11.3616 7.50727 11.3883 7.4471C11.4017 7.4159 11.4173 7.38693 11.4307 7.35574C11.4485 7.32677 11.4663 7.29557 11.4841 7.2666C11.5198 7.20866 11.5555 7.14849 11.5911 7.09724C11.6268 7.05044 11.6602 7.00365 11.6936 6.95908C11.8251 6.78081 11.9454 6.61814 12.0524 6.47552C12.1527 6.33513 12.2396 6.21034 12.3109 6.11006L12.3309 6.07663C12.3309 5.97412 12.3287 5.86939 12.3287 5.76688C12.3265 5.31898 12.3287 4.88666 12.3309 4.47886C12.3153 4.41647 12.2997 4.35853 12.2886 4.30282C12.2752 4.22483 12.2641 4.15797 12.2596 4.09781C12.2106 4.15797 12.1549 4.22037 12.0925 4.28277C12.0301 4.34293 11.9677 4.40533 11.9009 4.46995C11.8385 4.52566 11.7827 4.5992 11.7226 4.66828C11.6624 4.73736 11.6067 4.81758 11.5465 4.89558C11.4908 4.97803 11.4329 5.06271 11.3727 5.14739C11.2568 5.3212 11.1365 5.50616 11.005 5.69335C10.8669 5.88276 10.7243 6.05881 10.5861 6.23485C10.3075 6.58916 10.0646 6.95462 9.90643 7.31562C9.88192 7.40922 9.85295 7.49613 9.83512 7.59418C9.81507 7.69 9.79278 7.78582 9.76604 7.88164C9.75713 7.92844 9.7393 7.97746 9.72147 8.02649C9.72147 8.11117 9.72147 8.20476 9.71702 8.29612V8.42983C9.71924 8.4744 9.7237 8.51674 9.72593 8.55907C9.73261 8.64375 9.73707 8.72398 9.74153 8.79083C9.74376 8.92676 9.74153 9.02035 9.74153 9.02035H9.69919C9.69919 9.02035 9.69919 8.92899 9.68805 8.79529C9.67913 8.72843 9.67022 8.65044 9.66131 8.56576C9.65685 8.52342 9.65016 8.47885 9.64571 8.43428C9.64571 8.38972 9.64348 8.34292 9.64125 8.29612V8.22259C9.62565 8.2471 9.6056 8.26938 9.59223 8.29167C9.56326 8.33178 9.53652 8.37412 9.49863 8.40531L9.49226 8.41129C9.45898 8.44248 9.42755 8.47194 9.39613 8.50336C9.35824 8.53011 9.32036 8.55462 9.28471 8.58136C9.2134 8.63261 9.1354 8.66381 9.06855 8.69946C8.92816 8.76186 8.80337 8.8042 8.70086 8.83985C8.60059 8.87328 8.52259 8.90002 8.46911 8.91785C8.41563 8.93568 8.38889 8.94682 8.38889 8.94682L8.31535 8.79751C8.31535 8.79751 8.34432 8.78637 8.3978 8.76409C8.45128 8.74403 8.52928 8.71283 8.62733 8.67495C8.81897 8.59696 9.10866 8.49891 9.31368 8.26938C9.34265 8.24264 9.36047 8.20922 9.38053 8.17802L9.41173 8.12899C9.42287 8.11339 9.43178 8.09557 9.43624 8.07551C9.45852 7.99752 9.49195 7.92398 9.50532 7.83039C9.54543 7.65434 9.56548 7.45601 9.62119 7.23763C9.76158 6.8588 9.97997 6.48889 10.2206 6.14126C10.2162 6.14126 10.214 6.14348 10.2117 6.14571C9.89083 6.26827 9.44292 6.37524 8.99501 6.45323C8.5471 6.529 8.09919 6.59139 7.76939 6.65379C7.43736 6.71395 7.22343 6.77189 7.22343 6.77189L7.19892 6.70058C7.19892 6.70058 7.41508 6.63596 7.74711 6.56242C8.07914 6.48666 8.52482 6.40866 8.96381 6.31953C9.40281 6.22816 9.83067 6.11006 10.1315 5.98304C10.2073 5.95407 10.2741 5.92287 10.3343 5.8939L10.3376 5.89233C10.3741 5.87515 10.4064 5.85995 10.4346 5.84265C10.5148 5.729 10.595 5.61758 10.6663 5.50839C10.7822 5.32566 10.8914 5.1407 11.0006 4.95797C11.0585 4.86661 11.1142 4.77747 11.1677 4.68834C11.2279 4.60143 11.2836 4.51452 11.346 4.43207C11.4106 4.35185 11.4663 4.2694 11.5398 4.19586C11.6045 4.12678 11.6669 4.05993 11.7248 3.99753C11.9276 3.77469 12.0591 3.52511 12.1772 3.35575C12.2373 3.26884 12.2841 3.20199 12.322 3.15519C12.3332 3.1396 12.3421 0.677206 12.351 0.668293C12.3599 0.65938 13.102 1.40367 13.102 1.40367C13.0931 1.64433 13.0819 3.90617 13.073 4.17357C13.073 4.18694 13.0752 4.20254 13.0775 4.21591C13.0931 4.31396 13.1176 4.4343 13.1599 4.58583C13.2 4.73513 13.2535 4.91118 13.2936 5.12288C13.3003 5.14962 13.3047 5.17636 13.3092 5.2031V5.19864L13.3137 5.21424L13.3226 5.25435C13.3337 5.30775 13.347 5.36337 13.3604 5.419L13.3605 5.41925C13.3805 5.52621 13.3983 5.63541 13.4206 5.74906L13.4219 5.7563C13.4593 5.97232 13.4972 6.19029 13.5655 6.39084C13.5855 6.43763 13.6056 6.48666 13.6256 6.53568C13.6457 6.58471 13.6769 6.62705 13.7014 6.67385C13.7237 6.71841 13.7683 6.76967 13.8017 6.81646C13.8373 6.86549 13.8708 6.91674 13.9109 6.96354C14.0602 7.14404 14.2451 7.32454 14.4345 7.52955L17.6724 8.18916L17.6613 8.22481L14.5281 7.64097C14.595 7.72342 14.6596 7.81033 14.7131 7.9017C14.722 7.91061 14.7309 7.91729 14.7398 7.92621C14.771 7.95518 14.7978 7.98415 14.8267 8.01311C14.8802 8.07105 14.9315 8.12676 14.9805 8.1847C15.0786 8.30058 15.1721 8.41646 15.2657 8.53902C15.3437 8.64153 15.4084 8.74626 15.4641 8.851C15.5153 8.86882 15.5822 8.89779 15.6691 8.92008C15.854 8.97579 16.1103 9.03818 16.371 9.09389C16.6318 9.1496 16.8969 9.20086 17.093 9.25211C17.1911 9.27439 17.2735 9.29891 17.3292 9.31673C17.385 9.33456 17.4184 9.34347 17.4184 9.34347L17.3961 9.41033C17.3961 9.41033 17.3627 9.40587 17.307 9.39473C17.249 9.38581 17.1688 9.37021 17.0685 9.35907C16.8702 9.33233 16.6028 9.31228 16.3332 9.28553C16.0791 9.26102 15.8251 9.22982 15.6245 9.19417C15.6468 9.24319 15.6669 9.29222 15.6891 9.33902C15.8028 9.59751 15.9164 9.84932 16.0769 10.0566L16.1393 10.1301L16.1705 10.168L16.1972 10.1925C16.2373 10.2259 16.2864 10.2549 16.351 10.2839C16.4134 10.3151 16.4914 10.3418 16.5783 10.3953C16.6652 10.4421 16.761 10.5468 16.7833 10.6538C16.7833 10.6493 16.7699 10.6471 16.761 10.6449C16.8189 10.7474 16.81 10.832 16.7967 10.9034C16.7944 10.919 16.79 10.9301 16.7877 10.9457H16.7922C16.7922 10.9457 16.7922 10.9591 16.7877 10.9814C16.7855 11.0036 16.7766 11.0371 16.7766 11.0794C16.7699 11.1641 16.7766 11.2889 16.8256 11.4293C16.8747 11.5719 16.9705 11.7301 17.1109 11.8839C17.1153 11.8883 17.1198 11.8928 17.122 11.8972C17.1799 11.9061 17.2758 11.9217 17.3983 11.9396C17.5989 11.9708 17.8663 12.0064 18.1337 12.0309C18.4011 12.051 18.673 12.0554 18.8735 12.0421C18.9738 12.0376 19.0585 12.0242 19.1164 12.0198C19.1766 12.0131 19.2078 12.0109 19.2078 12.0109L19.2145 12.0488C19.2145 12.0488 19.181 12.0532 19.1231 12.0621C19.0629 12.0688 18.9805 12.0844 18.878 12.0911C18.6752 12.1112 18.4011 12.1134 18.127 12.1C17.8552 12.0844 17.5833 12.0532 17.3805 12.0287C17.3226 12.022 17.2735 12.0153 17.2267 12.0109C17.3426 12.1223 17.4719 12.2315 17.61 12.3362C17.9866 12.6215 18.3944 12.8911 18.6663 13.1295C18.8045 13.2476 18.9092 13.3546 18.976 13.4326C19.0117 13.4705 19.0362 13.5039 19.054 13.5262L19.0808 13.5596L19.0184 13.5997C19.0184 13.5997 19.0095 13.5886 18.9916 13.5685C18.9738 13.5485 18.9471 13.5195 18.9092 13.4838C18.8379 13.4125 18.7287 13.3145 18.5861 13.2075C18.3031 12.9936 17.8841 12.7529 17.4763 12.4833C17.2735 12.3474 17.073 12.2003 16.9058 12.0376C16.8145 11.9507 16.7343 11.8571 16.6696 11.7613C16.6786 11.9173 16.6941 12.0733 16.7142 12.227C16.7521 12.4989 16.8145 12.7685 16.8992 13.0315C16.9348 13.0538 16.9794 13.0805 17.0329 13.1073C17.1153 13.1518 17.2178 13.1986 17.3226 13.2677C17.4295 13.3368 17.5097 13.4281 17.6033 13.5106C17.7772 13.6844 17.951 13.8604 18.0802 13.9919C18.2206 14.1145 18.312 14.1947 18.312 14.1947L18.2852 14.2237C18.2852 14.2237 18.1872 14.1435 18.0423 14.0254C17.9086 13.8983 17.7281 13.729 17.5476 13.5596C17.454 13.4816 17.3649 13.3903 17.2691 13.3345C17.171 13.2744 17.0685 13.2298 16.9816 13.1875C16.966 13.1808 16.9549 13.1741 16.9415 13.1674C17.0061 13.3524 17.0863 13.5351 17.1777 13.7134L17.015 13.7869C16.7343 13.31 16.5493 12.7953 16.4401 12.2671C16.4178 12.1357 16.3889 12.002 16.3755 11.8683C16.3688 11.8014 16.3577 11.7346 16.3532 11.6677L16.3421 11.4627C16.3421 11.427 16.3354 11.4003 16.3421 11.3535L16.3487 11.2889L16.3599 11.2354C16.3733 11.1641 16.3911 11.1017 16.4045 11.0393C16.4178 10.9769 16.4312 10.9145 16.4379 10.861C16.449 10.8031 16.4379 10.7563 16.4379 10.7407L16.4423 10.7229C16.429 10.6961 16.4223 10.685 16.3777 10.6605C16.3354 10.6359 16.2641 10.6114 16.1861 10.5802C16.1081 10.549 16.0212 10.5067 15.9409 10.4465C15.9209 10.4309 15.9031 10.4153 15.883 10.3975L15.8407 10.3529L15.756 10.2616C15.5443 10.0142 15.4106 9.74681 15.2791 9.49055C15.2123 9.3613 15.1499 9.23428 15.0808 9.11172C15.1677 9.57745 15.2724 10.0165 15.3393 10.3975C15.3772 10.5914 15.4106 10.7697 15.4418 10.9256C15.4641 11.0861 15.4841 11.2242 15.4997 11.3379C15.5309 11.5674 15.551 11.6967 15.551 11.6967L15.1209 11.739C15.1209 11.739 15.0986 11.612 15.0563 11.3914C15.0362 11.28 15.0117 11.1463 14.9827 10.9925C14.9582 10.89 14.9315 10.7763 14.9025 10.656C14.8892 10.7183 14.8736 10.7828 14.858 10.8473L14.8579 10.8476C14.8223 11.0393 14.7889 11.2488 14.7733 11.4694C14.7688 11.5251 14.7644 11.5808 14.7621 11.6365V11.8081C14.7599 11.866 14.7666 11.9217 14.7688 11.9774L14.7733 12.0621C14.7777 12.0889 14.7844 12.1112 14.7889 12.1357C14.8334 12.3318 14.985 12.5279 15.1699 12.724C15.3081 12.8733 15.4663 13.0248 15.6089 13.1964H15.6111V13.2008C15.6557 13.2543 15.7003 13.31 15.7404 13.3702C15.8251 13.4928 15.9031 13.6332 15.9409 13.7758C15.9655 13.8471 15.9766 13.9206 15.9922 13.9942C15.9989 14.0677 16.0078 14.1412 16.0033 14.2125C15.9967 14.4955 15.9298 14.754 15.9476 14.9724C15.9499 15.0036 15.9543 15.0415 15.961 15.0772C15.9811 15.0772 16.0056 15.0794 16.039 15.0816C16.1125 15.0883 16.2217 15.0861 16.3487 15.1061C16.605 15.1284 16.9393 15.1975 17.2624 15.2933C17.5855 15.3936 17.8908 15.5295 18.1114 15.6454C18.2228 15.7011 18.3075 15.7591 18.3699 15.7947C18.4323 15.8326 18.468 15.8526 18.468 15.8526L18.4434 15.8838C18.4434 15.8838 18.4078 15.8638 18.3454 15.8281C18.283 15.7947 18.1961 15.739 18.0847 15.6877C17.8641 15.5786 17.5588 15.4493 17.2401 15.3579C16.9192 15.271 16.5894 15.2131 16.3398 15.1953C16.215 15.1797 16.1103 15.1841 16.0368 15.1774H15.9833C15.9944 15.2153 16.0056 15.2443 16.0167 15.2577C16.039 15.2822 16.0591 15.2866 16.1304 15.3134C16.1928 15.3357 16.2596 15.3602 16.322 15.3891C16.556 15.5006 16.7855 15.6209 16.946 15.8036C17.0217 15.895 17.0774 15.9975 17.1064 16.0955C17.1175 16.1357 17.1265 16.1758 17.1331 16.2136C17.2045 16.334 17.327 16.5345 17.4696 16.724C17.5833 16.871 17.7014 17.0181 17.8061 17.1161C17.8552 17.1674 17.9019 17.2031 17.9331 17.2298C17.9643 17.2565 17.9844 17.2699 17.9844 17.2699L17.9577 17.2989C17.9577 17.2989 17.9376 17.2833 17.9042 17.2588C17.8708 17.232 17.8195 17.1964 17.7682 17.1473C17.6568 17.0515 17.532 16.9067 17.4072 16.7618C17.3136 16.646 17.2267 16.5279 17.1554 16.4231C17.1599 16.5702 17.1554 16.695 17.1554 16.7975C17.1577 16.9111 17.1643 17.0003 17.171 17.0604C17.1799 17.1206 17.1844 17.154 17.1844 17.154L17.0061 17.1808C17.0061 17.1808 16.9994 17.1473 16.9883 17.0827C16.9772 17.0181 16.966 16.9245 16.9593 16.8042C16.9504 16.6861 16.9526 16.5412 16.9393 16.3852C16.9259 16.2292 16.8836 16.0688 16.761 15.9329C16.6362 15.7992 16.4312 15.6967 16.2084 15.5986C16.1549 15.5763 16.0992 15.5563 16.039 15.5384C15.9877 15.5228 15.8719 15.4916 15.8072 15.4181C15.776 15.3847 15.7493 15.3401 15.7337 15.3C15.7159 15.2599 15.707 15.2287 15.6981 15.1953C15.6825 15.1284 15.6624 15.0705 15.6579 14.9969C15.6267 14.7117 15.6869 14.4554 15.6802 14.2103C15.6802 14.1479 15.6713 14.0922 15.6624 14.032C15.6468 13.9741 15.6357 13.9162 15.6134 13.8604C15.5933 13.8003 15.5666 13.7423 15.5354 13.6866C15.473 13.9741 15.3682 14.3485 15.2167 14.7095C15.141 14.8922 15.054 15.0705 14.956 15.2309C14.9426 15.2532 14.9203 15.2733 14.9426 15.2955L14.9671 15.3379L15.0006 15.3914C15.0429 15.4627 15.0875 15.5273 15.1298 15.5875C15.2969 15.8281 15.4262 15.9819 15.4262 15.9819L15.366 16.0242C15.366 16.0242 15.2256 15.8794 15.0318 15.6476C14.985 15.5897 14.9315 15.5251 14.8825 15.456C14.8713 15.4426 14.8602 15.427 14.849 15.4114C14.8223 15.5228 14.7777 15.69 14.7176 15.8549C14.6596 15.993 14.6128 16.1357 14.5593 16.2359C14.5103 16.3384 14.4791 16.4053 14.4791 16.4053L14.4412 16.3897C14.4412 16.3897 14.4702 16.3206 14.5103 16.2181C14.5571 16.1156 14.595 15.973 14.644 15.8348C14.6797 15.6922 14.7242 15.5518 14.7376 15.4448C14.7488 15.3758 14.7577 15.3223 14.7644 15.2933C14.7599 15.2866 14.7554 15.2822 14.7532 15.2755L14.7644 15.2532C14.78 15.2242 14.7933 15.1953 14.8089 15.1663C14.8869 15.0058 14.9538 14.8276 15.0117 14.6471C15.1276 14.2861 15.1989 13.9139 15.2323 13.6376C15.2479 13.5128 15.2546 13.4103 15.2591 13.3301C15.1387 13.2031 15.005 13.0805 14.8713 12.9468C14.6708 12.7462 14.4591 12.5145 14.3744 12.2159C14.3655 12.178 14.3543 12.1401 14.3476 12.1045L14.3365 12.0042C14.3298 11.9373 14.3187 11.8705 14.3209 11.8081C14.3209 11.7435 14.3164 11.6811 14.3142 11.6209C14.3142 11.5607 14.3164 11.4983 14.3187 11.4404C14.3254 11.202 14.3521 10.9769 14.3811 10.7719C14.3989 10.6694 14.4167 10.5691 14.4345 10.4755C14.4591 10.3819 14.4791 10.2928 14.5036 10.2059C14.517 10.1635 14.5304 10.1212 14.5437 10.0811C14.5482 10.0655 14.5549 10.0499 14.5593 10.0343C14.566 9.9652 14.5749 9.90057 14.5794 9.84264C14.5928 9.72676 14.6017 9.63539 14.6084 9.573C14.6128 9.5418 14.615 9.51729 14.615 9.50169V9.48609C14.5883 9.38136 14.5638 9.27439 14.5371 9.1652C14.5081 9.04497 14.4792 8.92251 14.4502 8.80005L14.4501 8.79974L14.4279 8.70615L14.4034 8.62593C14.3878 8.57244 14.3722 8.51674 14.3566 8.46103C14.2696 8.25378 14.1582 8.06214 13.98 7.88387C13.8039 7.70114 13.59 7.51395 13.3961 7.2978C13.3471 7.24432 13.3047 7.18638 13.2602 7.13067C13.2156 7.07273 13.1688 7.02593 13.1287 6.95685C13.0908 6.89446 13.0463 6.83429 13.0151 6.77189V7.11284C13.024 7.34014 13.0329 7.56743 13.0418 7.79696C13.0463 7.9173 13.0529 8.0354 13.0574 8.15573C13.0574 8.2159 13.0641 8.27607 13.0641 8.33624L13.0574 8.51451C13.0507 8.75072 13.0418 8.98916 13.0351 9.22537C13.0151 9.44375 12.995 9.66213 12.9749 9.87606C12.9995 9.93846 13.0418 10.0276 13.093 10.1301C13.1666 10.2705 13.2557 10.4332 13.3761 10.6337C13.4273 10.7429 13.4852 10.8632 13.5365 10.988C13.5588 11.0504 13.5811 11.1151 13.6034 11.1819C13.6279 11.2488 13.6457 11.3178 13.6613 11.3869C13.8128 11.9507 13.7972 12.6215 13.7304 13.2989C13.6702 13.9786 13.5922 14.6894 13.7549 15.3758C13.8195 15.71 14 16.0086 14.2295 16.2894C14.3588 16.4499 14.4992 16.6058 14.6396 16.7618C14.6864 16.7707 14.751 16.7819 14.8357 16.7997C14.9159 16.8198 15.0139 16.8421 15.1276 16.8688C15.2368 16.8978 15.3616 16.9312 15.4975 16.9691C15.6312 17.0092 15.7783 17.0515 15.932 17.0983C16.0836 17.1496 16.2462 17.1964 16.4111 17.2588C16.4936 17.29 16.5783 17.3189 16.663 17.3501C16.7476 17.3836 16.8301 17.4237 16.917 17.4593C17.0017 17.4905 17.0864 17.5462 17.171 17.593C17.1822 17.5975 17.1933 17.6042 17.2022 17.6109H17.2423C17.3181 17.6198 17.4206 17.6465 17.5343 17.6955C17.7571 17.8003 17.9933 18.0053 18.2028 18.2237C18.4123 18.442 18.6039 18.6693 18.7599 18.832C18.8379 18.9145 18.9047 18.9769 18.9538 19.0214C19.005 19.0638 19.034 19.0861 19.034 19.0861L19.0072 19.115C19.0072 19.115 18.976 19.0905 18.9226 19.0504C18.8713 19.0081 18.8 18.9434 18.7198 18.8632C18.5593 18.7028 18.3588 18.4799 18.1448 18.2682C17.9331 18.0588 17.6969 17.8649 17.4875 17.7758C17.4384 17.7557 17.3916 17.7401 17.3493 17.729C17.3671 17.7468 17.3827 17.7646 17.3983 17.7824C17.5219 17.9347 17.5733 18.1087 17.6198 18.2657L17.6212 18.2705C17.6657 18.4309 17.7081 18.5824 17.7749 18.7206C17.8752 18.9011 17.9955 19.0638 18.1181 19.2131C18.127 19.2131 18.1382 19.2153 18.1471 19.2175C18.1961 19.2264 18.2629 19.2443 18.3387 19.2732C18.4925 19.329 18.6752 19.4337 18.849 19.5451C19.0228 19.6565 19.1922 19.7702 19.3281 19.8459C19.4618 19.9217 19.5577 19.9618 19.5577 19.9618L19.5398 19.9952C19.5398 19.9952 19.4395 19.9596 19.2992 19.8861C19.1588 19.8147 18.9827 19.7056 18.8067 19.603C18.6284 19.5005 18.4479 19.4047 18.3008 19.3579C18.2696 19.3468 18.2384 19.3401 18.2117 19.3334C18.2362 19.3624 18.2607 19.3936 18.2852 19.4203C18.4546 19.6209 18.6017 19.7813 18.6908 19.9083C18.7822 20.0309 18.8356 20.1 18.8356 20.1L18.771 20.1356C18.771 20.1356 18.7153 20.0688 18.6195 19.9529C18.5304 19.8348 18.3721 19.6788 18.1939 19.4872C18.0134 19.2955 17.8017 19.0682 17.6256 18.7808C17.4607 18.4888 17.4318 18.1278 17.229 17.8961C17.1733 17.8404 17.1265 17.7891 17.044 17.7557C16.9682 17.7178 16.9014 17.6777 16.8145 17.6487C16.732 17.6175 16.6518 17.5841 16.5694 17.5551L16.322 17.4749C16.1616 17.4214 15.9989 17.3813 15.8474 17.3368C15.6958 17.2989 15.551 17.261 15.4173 17.2276C15.2836 17.1986 15.1588 17.1696 15.0496 17.1451C15.0139 17.1384 14.985 17.1317 14.9538 17.1273C15.0652 17.2677 15.1632 17.4192 15.2435 17.573C15.2813 17.6532 15.3215 17.7312 15.3482 17.8136C15.3816 17.8961 15.3994 17.9741 15.4173 18.0521C15.4351 18.1301 15.4552 18.2081 15.473 18.2838L15.4732 18.2852C15.4865 18.3605 15.4998 18.4358 15.5131 18.5089C15.5256 18.5692 15.5342 18.6295 15.5425 18.688L15.5443 18.7005C15.5554 18.7161 15.5688 18.7384 15.5889 18.7652C15.6312 18.8231 15.6936 18.9078 15.7783 19.0036C15.9432 19.1975 16.1972 19.4404 16.4557 19.6788C16.712 19.9195 16.9705 20.1624 17.1421 20.3629C17.2267 20.4632 17.2914 20.5523 17.3337 20.6147C17.3738 20.6794 17.3961 20.7173 17.3961 20.7173L17.3515 20.7373C17.3515 20.7373 17.327 20.7017 17.2847 20.6415C17.2401 20.5813 17.171 20.4989 17.0819 20.4053C16.9036 20.2181 16.6318 19.9908 16.3599 19.7635C16.0858 19.5384 15.8139 19.3067 15.629 19.1128L15.5978 19.0816C15.6557 19.5563 15.707 19.9485 15.7783 20.2248C15.8072 20.3785 15.8518 20.4944 15.8763 20.5746C15.9008 20.6549 15.9142 20.6994 15.9142 20.6994L15.7426 20.7507C15.7426 20.7507 15.727 20.7061 15.6981 20.6237C15.6713 20.5412 15.6223 20.4209 15.5866 20.2627C15.4953 19.9507 15.4262 19.4939 15.346 18.9568C15.3215 18.8231 15.3036 18.6827 15.2702 18.5423C15.2568 18.471 15.2412 18.3997 15.2256 18.3262C15.2056 18.2549 15.1877 18.1813 15.1655 18.1078L15.1628 18.0979C15.1436 18.0275 15.124 17.9554 15.0942 17.8894C15.0852 17.8604 15.0719 17.8337 15.0585 17.8047C15.0228 17.8939 14.9783 18.0075 14.9248 18.1434C14.8602 18.3017 14.7933 18.4866 14.722 18.6849C14.6864 18.7852 14.6485 18.8877 14.6106 18.9925C14.5928 19.0437 14.5727 19.0972 14.5527 19.1507C14.5415 19.1774 14.5393 19.2019 14.5326 19.2287C14.5281 19.2554 14.5215 19.2799 14.5215 19.3067C14.4992 19.5184 14.5504 19.739 14.6084 19.9395C14.6663 20.1423 14.7376 20.3273 14.7911 20.4877C14.9092 20.8086 14.9359 21.0381 14.9359 21.0381L14.8869 21.0448C14.8869 21.0448 14.8513 20.8264 14.7176 20.51C14.6552 20.3518 14.5772 20.1668 14.5059 19.9641C14.4368 19.7613 14.3722 19.5362 14.3833 19.2978C14.3855 19.2398 14.3944 19.1752 14.41 19.1217C14.4279 19.0682 14.4435 19.0125 14.4591 18.959C14.4925 18.8521 14.5237 18.7473 14.5549 18.6448C14.6173 18.4398 14.6752 18.2504 14.7332 18.09C14.8334 17.7936 14.9047 17.5908 14.9159 17.5574C14.8557 17.4616 14.7889 17.3657 14.7109 17.2744C14.4947 17.007 14.2229 16.7529 13.9733 16.461C13.8463 16.3162 13.7304 16.1579 13.6301 15.9863C13.5254 15.817 13.4585 15.6253 13.4095 15.4382C13.3092 15.0727 13.278 14.6939 13.2735 14.3284C13.2691 13.963 13.2936 13.6086 13.3137 13.2699C13.3605 12.5925 13.3493 11.9797 13.2 11.4827C13.1844 11.4203 13.1666 11.3602 13.1421 11.3022C13.1198 11.2443 13.0997 11.1886 13.0775 11.1329C13.0284 11.0259 12.9794 10.9301 12.9326 10.8387L12.8658 10.7318C12.8368 10.9167 12.8078 11.1017 12.7766 11.2733C12.6073 12.1223 12.5359 12.9245 12.527 13.6153C12.5203 14.09 12.5359 14.5134 12.5493 14.8632C12.6028 15.3557 12.6674 15.9329 12.7543 16.5434C12.7655 16.617 12.7766 16.6928 12.79 16.7685C12.8056 16.8464 12.8234 16.9266 12.8412 17.0067L12.8412 17.007C12.8747 17.1652 12.9036 17.3256 12.946 17.4749C12.9638 17.5529 12.9905 17.6242 13.0195 17.6933L13.0596 17.8003L13.1153 17.8939C13.2022 18.0231 13.3203 18.1568 13.4251 18.3106L13.5008 18.4309C13.5231 18.4732 13.5432 18.5178 13.5655 18.5624C13.6011 18.6537 13.6301 18.7496 13.639 18.8409C13.6568 18.9769 13.6546 19.1083 13.6435 19.2376H13.6501C13.6501 19.2376 13.6591 19.3156 13.6769 19.4493C13.6813 19.5161 13.7014 19.6008 13.7215 19.6989C13.7437 19.7969 13.7638 19.9061 13.7928 20.0309C13.8195 20.1557 13.8552 20.2827 13.8797 20.432L13.8798 20.4325C13.8931 20.5059 13.9064 20.5792 13.9198 20.6549C13.9242 20.7329 13.9287 20.8131 13.9309 20.8933C13.9309 20.9089 13.9309 20.9267 13.9332 20.9423C13.9376 20.9423 13.9376 20.9445 13.9421 20.9468C13.9755 20.9668 14.0223 20.9958 14.0758 21.0381C14.1827 21.1228 14.3098 21.2543 14.4323 21.4214C14.5571 21.5863 14.6774 21.7824 14.8156 21.9808C14.8713 22.061 14.9315 22.1412 14.9983 22.2147C15.0228 22.2147 15.0518 22.2147 15.0919 22.217C15.141 22.2192 15.2011 22.2192 15.2702 22.217C15.3393 22.2147 15.4173 22.2147 15.502 22.2058C15.8451 22.1835 16.2975 22.1055 16.761 22.0387C16.8724 22.0209 17.0017 22.0075 17.122 22.0186C17.2423 22.0298 17.3582 22.061 17.4629 22.0989C17.6724 22.1769 17.8396 22.2883 17.9777 22.3841C18.1095 22.4776 18.2149 22.559 18.292 22.6185L18.3031 22.627C18.3811 22.6849 18.4256 22.7184 18.4256 22.7184L18.3944 22.7518C18.3944 22.7518 18.3476 22.7206 18.2674 22.6649C18.1872 22.6092 18.0735 22.5289 17.9331 22.4376C17.7928 22.3484 17.6234 22.2482 17.4273 22.1835C17.3292 22.1523 17.2245 22.1301 17.1153 22.1234C17.0084 22.1189 16.9036 22.1345 16.7877 22.1568C16.3354 22.2415 15.8808 22.3395 15.5265 22.3774C15.4446 22.39 15.3668 22.3947 15.2966 22.3989L15.2836 22.3997C15.2635 22.3997 15.2435 22.4019 15.2234 22.4042C15.2635 22.4287 15.3014 22.451 15.346 22.471C15.5844 22.5668 15.8719 22.6092 16.1326 22.6716C16.1972 22.6849 16.2641 22.7028 16.3265 22.7228C16.3911 22.7384 16.4513 22.7629 16.5114 22.7874C16.5716 22.8097 16.6228 22.8409 16.6741 22.8677C16.7253 22.8966 16.7744 22.9189 16.8189 22.9479C16.9972 23.0571 17.1398 23.1529 17.2401 23.2175C17.3404 23.2821 17.3983 23.32 17.3983 23.32L17.356 23.378C17.356 23.378 17.2958 23.3423 17.1889 23.2821C17.0841 23.222 16.9348 23.1351 16.7521 23.037C16.7075 23.0103 16.6585 22.9902 16.6072 22.9657C16.5582 22.9434 16.507 22.9145 16.4513 22.8989C16.3955 22.881 16.3421 22.861 16.2797 22.8498C16.2596 22.8454 16.2373 22.8409 16.2173 22.8365C16.2752 22.9145 16.3198 23.0125 16.3554 23.1128C16.4 23.2398 16.4334 23.3668 16.4646 23.4604C16.4958 23.554 16.5248 23.6119 16.5248 23.6119L16.4869 23.6275C16.4869 23.6275 16.4513 23.5674 16.4134 23.4738C16.3755 23.3802 16.3309 23.2554 16.2819 23.1328C16.2329 23.0125 16.1638 22.8989 16.0947 22.8365C16.0791 22.8231 16.0613 22.8097 16.0479 22.8008C15.8006 22.7585 15.5309 22.7317 15.2568 22.6404C15.112 22.5802 14.9761 22.5022 14.8713 22.4042C14.7621 22.3083 14.6774 22.2058 14.5972 22.1055C14.439 21.905 14.3053 21.72 14.1805 21.573C14.0891 21.4638 14.0022 21.3791 13.9287 21.3189C13.9287 21.339 13.9287 21.359 13.9265 21.3791C13.9198 21.5462 13.902 21.7089 13.8886 21.876L13.8885 21.8778C13.8841 21.9596 13.8796 22.0415 13.8752 22.1211L13.8685 22.2437V22.2994V22.3618C13.8797 22.5312 13.8663 22.6938 13.8752 22.8409C13.8819 22.988 13.9309 23.1128 14.0156 23.2153C14.1047 23.3178 14.2229 23.3891 14.3387 23.4515C14.5749 23.5718 14.7911 23.6521 14.9404 23.7145C15.0897 23.7746 15.1744 23.8147 15.1744 23.8147L15.1231 23.9083C15.1231 23.9083 15.0407 23.8727 14.8914 23.817C14.7421 23.759 14.5237 23.6877 14.2674 23.5696C14.1983 23.5362 14.127 23.4961 14.0557 23.4493V23.4582C14.0579 23.5652 14.0802 23.7145 14.1092 23.8638C14.1382 24.0153 14.1627 24.1691 14.1649 24.2872C14.1694 24.3451 14.1605 24.3941 14.1605 24.4275C14.1605 24.461 14.1582 24.481 14.1582 24.481H14.1092C14.1092 24.481 14.1092 24.461 14.1047 24.4275C14.1003 24.3941 14.1025 24.3473 14.0891 24.2938C14.0713 24.1824 14.0245 24.0376 13.9755 23.8927C13.9265 23.7457 13.8797 23.5941 13.8596 23.476C13.8462 23.4181 13.8485 23.3646 13.8418 23.3289C13.8396 23.2933 13.8373 23.2732 13.8373 23.2732H13.8574C13.7616 23.1574 13.7014 23.0058 13.688 22.8565C13.668 22.6916 13.6769 22.5312 13.6591 22.3752L13.6546 22.315C13.6524 22.2816 13.6546 22.2704 13.6546 22.2459V22.1211C13.6546 22.0365 13.6546 21.954 13.6568 21.8693C13.6613 21.7044 13.6724 21.5351 13.6724 21.3746C13.6724 21.2142 13.6769 21.0537 13.6568 20.9044C13.6501 20.8287 13.6435 20.7574 13.6368 20.6838C13.6212 20.6125 13.6056 20.5434 13.59 20.4744C13.561 20.3407 13.5187 20.2069 13.4875 20.0866C13.4786 20.0532 13.4696 20.0242 13.463 19.993C13.4251 20.1089 13.385 20.2225 13.3404 20.334C13.2735 20.5078 13.2067 20.6749 13.1421 20.8376L13.1465 20.842C13.1465 20.842 13.1421 20.8443 13.1398 20.8465C13.0953 20.9624 13.0507 21.076 13.0106 21.1874L12.9772 21.2877C12.966 21.3234 12.9527 21.3613 12.9393 21.3947C12.9125 21.4638 12.8836 21.5284 12.8546 21.593C12.7944 21.7178 12.7387 21.8404 12.6852 21.9562C12.6251 22.0833 12.5671 22.2036 12.5159 22.3172V22.3395C12.5226 22.4042 12.5293 22.5 12.5471 22.6114C12.5805 22.8365 12.6229 23.144 12.6295 23.4493C12.6429 24.0599 12.6563 24.6682 12.6563 24.6682H12.6139C12.6139 24.6682 12.5827 24.0599 12.5538 23.4515C12.5382 23.1484 12.4892 22.8498 12.449 22.6225C12.4424 22.5802 12.4357 22.5423 12.4312 22.5067C12.3332 22.7295 12.2529 22.9234 12.2061 23.0794C12.1616 23.2153 12.1437 23.3245 12.146 23.3891C12.146 23.456 12.1638 23.4649 12.1616 23.4671L12.0056 23.5496C12.0056 23.5496 11.9967 23.5362 11.9833 23.5072C11.9722 23.4805 11.9632 23.4404 11.961 23.3936C11.9566 23.3022 11.9766 23.1796 12.0167 23.0326C12.097 22.7384 12.2619 22.344 12.4669 21.8738C12.5181 21.7579 12.5694 21.6354 12.6229 21.5106C12.6474 21.4482 12.6741 21.3835 12.6964 21.3211C12.7075 21.29 12.7164 21.2588 12.7276 21.2276C12.7387 21.1919 12.7499 21.1562 12.7588 21.1206C12.7677 21.0961 12.7766 21.0693 12.7833 21.0448C12.6563 21.1095 12.527 21.1718 12.3933 21.2276L12.1928 21.3056L11.9878 21.3746L11.7761 21.4303C11.6892 21.4482 11.6713 21.4459 11.6268 21.4571C11.6468 21.4816 11.6468 21.4905 11.6446 21.5016V21.5195C11.6401 21.5306 11.6401 21.5462 11.6379 21.5596C11.629 21.6131 11.6178 21.6621 11.6045 21.7133C11.5755 21.8114 11.5399 21.9072 11.502 22.0008L11.3861 22.2749C11.3504 22.364 11.3081 22.4599 11.3059 22.5423L11.2301 22.5512C11.219 22.4354 11.2524 22.3418 11.2769 22.2459L11.3593 21.9607C11.3861 21.8671 11.4084 21.7735 11.4217 21.6822C11.4284 21.6354 11.4329 21.5908 11.4351 21.5462V21.5128L11.4307 21.4504L11.4173 21.3234C11.5354 21.3167 11.6268 21.29 11.7181 21.2654L11.9053 21.1964L12.088 21.1161L12.2663 21.0248C12.5003 20.8978 12.7231 20.7507 12.9393 20.5969C12.9794 20.4855 13.0217 20.3741 13.0619 20.2582C13.1644 19.9618 13.2602 19.6521 13.3003 19.3423L13.307 19.2755C13.307 19.2621 13.3025 19.2532 13.3025 19.2532H13.3092C13.3181 19.1284 13.3181 19.0036 13.2981 18.8855C13.2869 18.8097 13.2646 18.7451 13.2379 18.6805C13.2201 18.6471 13.2045 18.6159 13.1866 18.5824L13.1666 18.5512C13.0908 18.7117 12.9616 18.8833 12.8056 19.0615C12.7098 19.173 12.5983 19.2888 12.4958 19.4136C12.3933 19.5362 12.2931 19.6699 12.2396 19.8125C12.2307 19.8482 12.2106 19.8838 12.2106 19.9195C12.2084 19.9574 12.195 19.9796 12.2106 20.0599L12.224 20.1579C12.224 20.1579 12.2329 20.1757 12.2195 20.1802L12.1905 20.1958L12.1326 20.227C12.0435 20.276 12.0167 20.2894 11.9632 20.3139C11.7716 20.4053 11.5554 20.4632 11.3727 20.5234C11.1878 20.5791 11.0585 20.6838 10.9582 20.8331C10.907 20.9044 10.8624 20.9824 10.8245 21.0604C10.8022 21.1028 10.7822 21.1429 10.7621 21.1852C10.7399 21.2276 10.7131 21.2677 10.6908 21.3078C10.497 21.6042 10.2942 21.856 10.136 22.0855C10.136 22.0989 10.1315 22.1167 10.1293 22.139C10.1248 22.1858 10.1114 22.2504 10.1114 22.3306C10.1003 22.4911 10.1114 22.7072 10.1248 22.9234C10.1404 23.1395 10.1538 23.3579 10.156 23.5206C10.1582 23.603 10.1516 23.6699 10.1516 23.7189C10.1516 23.7657 10.1493 23.7947 10.1493 23.7947H10.107V23.7189C10.107 23.6721 10.1092 23.6053 10.1025 23.5228C10.0958 23.3601 10.0713 23.1462 10.049 22.9278C10.0268 22.7117 10.0089 22.4933 10.0134 22.3284V22.266C9.90197 22.4354 9.81729 22.5824 9.77273 22.6961C9.74376 22.7696 9.73261 22.8253 9.73039 22.8632V22.9189L9.61674 22.939C9.61674 22.939 9.61674 22.9122 9.61005 22.861C9.61005 22.812 9.62342 22.7429 9.65239 22.6604C9.7081 22.4977 9.82843 22.286 9.98665 22.0432C10.0825 21.8916 10.1984 21.7289 10.3142 21.5574C10.2719 21.5796 10.2273 21.5997 10.1761 21.6198C10.1471 21.6309 10.1159 21.6443 10.0825 21.6554C10.058 21.6666 10.0245 21.6844 9.99334 21.7C9.93094 21.7312 9.86409 21.7668 9.79947 21.8092C9.66799 21.8872 9.53429 21.9874 9.39835 22.081C9.11312 22.2704 8.78109 22.3707 8.57162 22.5C8.54488 22.5156 8.51814 22.5289 8.49585 22.5445C8.47357 22.5601 8.45128 22.5757 8.43346 22.5913C8.39335 22.6203 8.35769 22.6448 8.33541 22.6716C8.28638 22.7206 8.25964 22.7496 8.25964 22.7496L8.22621 22.7273C8.22621 22.7273 8.25518 22.6961 8.30421 22.6448C8.32649 22.6159 8.36215 22.5891 8.40226 22.5579C8.42231 22.5423 8.4446 22.5245 8.46688 22.5089C8.49139 22.4933 8.51814 22.4777 8.54488 22.4621C8.7588 22.3239 9.09083 22.217 9.35379 22.0298C9.48749 21.9317 9.61674 21.8315 9.75044 21.7468C9.81506 21.7022 9.88192 21.6643 9.94877 21.6309C9.98219 21.6131 10.0089 21.5975 10.0468 21.5796C10.078 21.5663 10.1092 21.5551 10.1382 21.5418C10.1939 21.5172 10.2451 21.4927 10.2853 21.4682C10.3231 21.4415 10.3633 21.4214 10.3833 21.3991C10.4301 21.3523 10.4568 21.3278 10.4568 21.3278L10.4658 21.3323C10.488 21.2966 10.5103 21.2654 10.5304 21.2298C10.5504 21.1919 10.5727 21.154 10.5906 21.1161C10.6084 21.076 10.6284 21.0359 10.6463 20.9958C10.6841 20.9089 10.7287 20.822 10.7844 20.7373C10.7978 20.7128 10.8156 20.6905 10.8334 20.6682C10.5816 20.7507 10.2585 20.8799 9.94431 21.027C9.61897 21.1763 9.3003 21.3412 9.07301 21.4794C8.95936 21.5484 8.86799 21.6086 8.8056 21.6532C8.74543 21.7 8.70978 21.7245 8.70978 21.7245L8.67635 21.6933C8.67635 21.6933 8.70978 21.6643 8.76994 21.6153C8.83011 21.5663 8.91925 21.4994 9.03067 21.4237C9.25128 21.2721 9.56103 21.0872 9.87969 20.92C10.2006 20.7507 10.5304 20.5969 10.7889 20.4966C10.9181 20.4454 11.0318 20.4097 11.1142 20.3874C11.1543 20.3763 11.1922 20.3718 11.2167 20.3674H11.2212C11.2457 20.3562 11.268 20.3473 11.2925 20.3384C11.4975 20.2649 11.6825 20.2114 11.8496 20.1223C11.8875 20.1044 11.9477 20.0688 11.9432 20.071C11.9454 20.0666 11.9566 20.071 11.9521 20.0576L11.9454 20.022C11.9454 20.022 11.9454 19.9462 11.9499 19.8972C11.9499 19.8437 11.9722 19.7969 11.9833 19.7479C12.0479 19.5563 12.1593 19.4047 12.2619 19.2688C12.3666 19.1329 12.4713 19.0148 12.5627 18.9033C12.7432 18.6827 12.8613 18.4955 12.8925 18.3663L12.8937 18.3594C12.9043 18.2982 12.9123 18.2515 12.9059 18.2214V18.217C12.8724 18.1746 12.8368 18.1301 12.8056 18.0833L12.7254 17.9585L12.6697 17.8315C12.6318 17.7468 12.5961 17.6621 12.5761 17.5774C12.5226 17.4103 12.4869 17.2476 12.449 17.0894C12.429 17.0114 12.4112 16.9334 12.3911 16.8554C12.3756 16.7733 12.36 16.6934 12.3445 16.6135L12.3443 16.6125C12.3376 16.646 12.3287 16.6794 12.3198 16.715C12.2931 16.8465 12.2574 16.9914 12.2151 17.1451C12.195 17.2209 12.1749 17.3011 12.1504 17.3813C12.1215 17.4593 12.0925 17.5395 12.0635 17.622C12.0056 17.7869 11.9365 17.9473 11.8719 18.1145C11.8385 18.1992 11.8095 18.2816 11.7783 18.3663L11.7248 18.5111L11.6869 18.6159C11.6869 18.627 11.6736 18.6248 11.6646 18.627H11.6334L11.5733 18.6359L11.3995 18.6515L11.2524 18.6716C11.1543 18.6827 11.0585 18.7028 10.9627 18.7206C10.7711 18.7585 10.5861 18.8031 10.4078 18.8521C10.0535 18.9524 9.73261 19.0794 9.51423 19.2487C9.29362 19.4181 9.16214 19.612 9.06855 19.7412C9.04627 19.7746 9.02621 19.8058 9.00838 19.8326C8.99947 19.8459 8.99278 19.8571 8.98387 19.8682C8.97941 19.8749 8.97719 19.8794 8.97273 19.8838C8.97541 19.8852 8.92729 19.8607 8.90162 19.8478C8.9039 19.8433 8.90817 19.8369 8.91034 19.8326C8.91702 19.8214 8.9237 19.8081 8.93262 19.7947C8.94822 19.768 8.96827 19.7368 8.98833 19.7011C9.07746 19.5652 9.20226 19.3624 9.43178 19.1685C9.66354 18.9746 9.99334 18.8276 10.3521 18.7117C10.5326 18.6537 10.722 18.6003 10.9159 18.5557C11.0139 18.5356 11.112 18.5089 11.2123 18.4933L11.3638 18.4666L11.4886 18.451C11.4886 18.451 11.5087 18.451 11.5153 18.4443L11.522 18.4198L11.5577 18.3061C11.5866 18.2192 11.6112 18.1323 11.6401 18.0476C11.6981 17.8783 11.7605 17.7111 11.8073 17.5529C11.8318 17.4727 11.8563 17.3947 11.8808 17.3167C11.8986 17.2387 11.9142 17.1629 11.9298 17.0894C11.9632 16.9423 11.99 16.7997 12.0123 16.666C12.0591 16.3986 12.1059 16.1735 12.1593 16.0109C12.1638 15.9953 12.1705 15.9819 12.1749 15.9663H12.1727C12.1727 15.9663 12.1571 15.7345 12.1281 15.3267C12.1281 15.3045 12.1259 15.2799 12.1237 15.2577L12.1236 15.2572C12.1058 15.137 12.088 15.0168 12.0724 14.9033C12.039 14.6538 12.0056 14.4242 11.9833 14.2192C11.9722 14.1345 11.9632 14.0566 11.9543 13.9808C11.9543 13.9808 11.9543 13.9852 11.9521 13.9875L11.9298 14.032C11.9298 14.032 11.9276 14.041 11.9209 14.0543C11.9031 14.1011 11.8853 14.1524 11.8697 14.2081C11.8385 14.3173 11.8095 14.4398 11.7761 14.5691C11.7449 14.6983 11.707 14.8387 11.629 14.9903C11.5956 15.0638 11.5399 15.1284 11.4864 15.193H11.4886C11.4886 15.193 11.4775 15.2175 11.4552 15.2599L11.4525 15.265C11.4303 15.3072 11.3981 15.3681 11.366 15.4538C11.2925 15.6253 11.2078 15.8816 11.1075 16.1936C11.0563 16.3518 11.005 16.5189 10.9248 16.7061C10.8847 16.8086 10.8401 16.8733 10.8112 16.9668C10.7777 17.0538 10.751 17.1496 10.722 17.2476C10.6641 17.4415 10.6106 17.6643 10.4568 17.8671C10.2964 18.0654 10.0736 18.1858 9.8886 18.3128C9.83958 18.344 9.79724 18.3797 9.75044 18.4109C9.70364 18.4443 9.64793 18.4866 9.59668 18.5156C9.49417 18.5802 9.39167 18.6359 9.29585 18.6961L9.28489 18.7028C9.09653 18.8189 8.90036 18.9397 8.84571 19.0927C8.79668 19.2688 8.8212 19.4693 8.80783 19.661C8.80783 19.7078 8.79669 19.7613 8.78777 19.8081C8.7744 19.8549 8.76326 19.8994 8.74766 19.9418C8.71869 20.0264 8.68749 20.1089 8.6563 20.1847L8.64748 20.206C8.52444 20.5038 8.42351 20.7482 8.37997 20.9245C8.35769 21.0159 8.34877 21.0872 8.351 21.134C8.351 21.1585 8.35769 21.1741 8.35769 21.1852C8.35769 21.1964 8.35992 21.203 8.35992 21.203L8.28638 21.2209C8.28638 21.2209 8.28638 21.2142 8.28192 21.1986C8.28192 21.1852 8.27078 21.1629 8.27301 21.1362C8.26633 21.0805 8.27301 21.0047 8.29307 20.9089C8.33318 20.7173 8.43123 20.4565 8.54265 20.149C8.56939 20.071 8.59836 19.9908 8.62287 19.9083C8.63624 19.866 8.64515 19.8237 8.6563 19.7813C8.66075 19.739 8.66966 19.6989 8.66744 19.6543C8.67412 19.4738 8.63624 19.2777 8.68749 19.0526C8.72092 18.9323 8.81228 18.8387 8.89919 18.7607C8.99056 18.6872 9.08638 18.6181 9.18443 18.5557C9.28248 18.4911 9.38276 18.4309 9.47635 18.3685C9.5276 18.3373 9.56326 18.3061 9.61005 18.2727C9.65685 18.2348 9.70365 18.1969 9.75267 18.1635C9.94654 18.0231 10.1426 17.9028 10.2563 17.7446C10.3646 17.5898 10.4138 17.3911 10.4624 17.1942L10.4635 17.1897C10.488 17.0894 10.5126 16.9891 10.546 16.8911C10.5727 16.7953 10.6307 16.6883 10.6552 16.6125C10.7176 16.4499 10.7644 16.2738 10.8112 16.1201C10.8669 15.924 10.9159 15.7479 10.9627 15.5964C10.9003 15.6097 10.8334 15.6231 10.7599 15.6343C10.7064 15.6588 10.6529 15.6811 10.5995 15.7056C10.5304 15.7368 10.4702 15.7769 10.4056 15.8103C10.1516 15.9641 9.93094 16.1713 9.74153 16.4031C9.36716 16.871 9.10421 17.4393 8.75657 17.9251C8.58722 18.1657 8.42231 18.3975 8.26633 18.6181C8.19725 18.7139 8.13262 18.8075 8.06577 18.8966C8.06577 18.91 8.06354 18.9278 8.06577 18.9501C8.06577 19.0058 8.07468 19.0905 8.10365 19.193C8.13039 19.2978 8.17496 19.4203 8.20616 19.5607C8.22176 19.632 8.2329 19.7078 8.22844 19.788C8.22621 19.8682 8.2017 19.9529 8.16605 20.0198L8.11925 20.1267C8.10142 20.1602 8.08359 20.1936 8.06577 20.2248C8.02859 20.2882 7.9957 20.3516 7.965 20.4108L7.96326 20.4142C7.92761 20.4744 7.90532 20.5368 7.88304 20.5947C7.85853 20.6526 7.84293 20.7083 7.82956 20.7618C7.80727 20.871 7.78944 20.9601 7.77607 21.0225C7.75825 21.0872 7.74488 21.125 7.74488 21.125L7.69808 21.1095C7.69808 21.1095 7.70477 21.076 7.71814 21.0159C7.72667 20.954 7.73723 20.8677 7.74984 20.7647L7.75156 20.7507C7.76048 20.695 7.77385 20.6348 7.7939 20.5724C7.81173 20.51 7.83178 20.4432 7.86298 20.3785C7.89195 20.3139 7.92092 20.2448 7.95212 20.1802L7.99891 20.0799L8.03457 19.9796C8.06354 19.9106 8.07691 19.8504 8.07468 19.7858C8.07468 19.7212 8.05686 19.6565 8.03903 19.5941C8.00115 19.4671 7.94766 19.3468 7.91201 19.2376C7.89864 19.2019 7.88972 19.1663 7.88081 19.1351C7.8563 19.1641 7.83179 19.1975 7.8095 19.2264C7.66466 19.4114 7.53095 19.5808 7.41062 19.7323C7.29251 19.8883 7.16772 20.0131 7.08973 20.1134C7.00727 20.2159 6.96716 20.2983 6.95157 20.354C6.94488 20.383 6.94711 20.403 6.94488 20.4164C6.94488 20.4298 6.94265 20.4387 6.94265 20.4387L6.76215 20.4521V20.4186C6.76215 20.3964 6.76215 20.3629 6.77106 20.3206C6.78889 20.2381 6.84014 20.129 6.92705 20.0131C7.01396 19.895 7.12761 19.7769 7.23235 19.6253C7.26132 19.5875 7.29028 19.5473 7.32148 19.505C7.2056 19.5139 7.09195 19.5095 6.98276 19.5117C6.83569 19.5117 6.69307 19.5295 6.56383 19.583V19.5875C6.09809 19.7412 5.68583 20.0019 5.23569 20.1958L5.21787 20.1624C5.65909 19.9574 6.0602 19.6877 6.53262 19.5161H6.52817C6.67079 19.456 6.83123 19.4337 6.98276 19.4292C7.12984 19.4248 7.27246 19.427 7.40616 19.4003C7.47301 19.3089 7.54209 19.2153 7.61563 19.115C7.68471 19.0214 7.75602 18.9212 7.83178 18.8209C7.90755 18.7184 7.9744 18.6092 8.04794 18.4978C8.13039 18.3707 8.2173 18.2393 8.30644 18.1056C8.25964 18.139 8.21284 18.1724 8.16159 18.2036L8.02789 18.2727C7.98332 18.295 7.93207 18.3106 7.88304 18.3284C7.78499 18.3574 7.68471 18.3752 7.59112 18.3863C7.4017 18.4109 7.22343 18.4242 7.07636 18.4955L7.0719 18.5022C6.82678 18.6047 6.6797 18.8833 6.41675 19.0482L6.36995 18.9925C6.479 18.9074 6.56243 18.801 6.6495 18.69L6.65519 18.6827C6.6953 18.6337 6.73764 18.5824 6.78444 18.5312C6.76884 18.5334 6.75324 18.5379 6.73541 18.5401C6.51703 18.5758 6.23179 18.578 5.94656 18.5824C5.66132 18.5869 5.38054 18.6025 5.17553 18.6493C5.12427 18.6604 5.07748 18.6716 5.03959 18.6849C4.99948 18.6983 4.96383 18.7072 4.93709 18.7228C4.88361 18.7473 4.85241 18.7629 4.85241 18.7629L4.83012 18.7317C4.83012 18.7317 4.86132 18.7161 4.91703 18.6872C4.94377 18.6716 4.98165 18.6604 5.02177 18.6448C5.06188 18.6292 5.10867 18.6159 5.16216 18.6025C5.37163 18.5468 5.65909 18.5245 5.94433 18.5134C6.22956 18.5022 6.51257 18.4911 6.71535 18.451C6.76438 18.4398 6.81118 18.4287 6.84906 18.4175C6.88694 18.4019 6.91814 18.3908 6.94488 18.3797C6.96048 18.3707 6.97385 18.3618 6.98499 18.3551C6.98499 18.3551 6.98053 18.3529 6.97831 18.3507C7.1744 18.2682 7.37942 18.2415 7.55323 18.2036C7.5978 18.1947 7.64014 18.1836 7.68248 18.1724C7.72259 18.159 7.7627 18.1479 7.80059 18.1323C7.83624 18.1145 7.87413 18.1011 7.90755 18.0788L8.01229 18.0142C8.14599 17.9161 8.26632 17.7958 8.38889 17.671C8.51145 17.5485 8.62733 17.4192 8.79891 17.3011C8.99279 16.949 9.18443 16.5746 9.44738 16.2181C9.58777 16.0354 9.75044 15.8593 9.9354 15.7056C9.93094 15.7056 9.92649 15.7056 9.92203 15.7078L9.87523 15.7189L9.83512 15.7279C9.83512 15.7279 9.76827 15.7635 9.7237 15.8148C9.67468 15.866 9.62342 15.9306 9.56548 16.0019C9.53429 16.0376 9.50532 16.0755 9.46298 16.1156C9.43847 16.1379 9.42509 16.1557 9.37161 16.1914C9.34264 16.2092 9.33596 16.2114 9.32705 16.2159L9.31813 16.2203C9.30087 16.2271 9.2918 16.2307 9.28737 16.2324C9.28628 16.2328 9.28449 16.2335 9.28387 16.2337H9.28025L9.27356 16.2359L9.2446 16.2426C9.16883 16.2604 9.07524 16.2627 8.99724 16.2426C8.92148 16.2226 8.86131 16.1936 8.81451 16.1691C8.71869 16.1156 8.66075 16.0844 8.6095 16.0733C8.55602 16.0643 8.50922 16.0666 8.44683 16.0978C8.31981 16.1579 8.19724 16.2939 8.0524 16.4298C8.03234 16.4476 8.01452 16.4655 7.99446 16.4811L7.9432 16.5234C7.90532 16.5568 7.86744 16.588 7.82733 16.6148C7.75156 16.6727 7.67357 16.7262 7.59557 16.7774C7.29028 16.9802 7.00282 17.154 6.77329 17.3189C6.54154 17.4816 6.36772 17.6309 6.2719 17.749C6.2251 17.807 6.18945 17.8538 6.17385 17.8894C6.15603 17.9228 6.14488 17.9407 6.14488 17.9407L5.9733 17.8872C5.9733 17.8872 5.98444 17.8649 6.00449 17.8203C6.02232 17.7758 6.0602 17.7178 6.10923 17.6465C6.21174 17.5061 6.39001 17.3368 6.61954 17.1563C6.81563 17.0003 7.04961 16.8376 7.29251 16.6593H7.28806C7.12984 16.6682 6.9226 16.7039 6.71758 16.7551C6.51257 16.8086 6.3031 16.8621 6.14488 16.8911C6.06466 16.9067 5.99781 16.9111 5.95101 16.92C5.90422 16.9267 5.87748 16.929 5.87748 16.929L5.87302 16.8911C5.87302 16.8911 5.89976 16.8866 5.94433 16.8799C5.98889 16.871 6.05575 16.8643 6.13374 16.8443C6.28973 16.8109 6.49252 16.7507 6.6953 16.6883C6.90031 16.6281 7.11424 16.5836 7.27914 16.568C7.33485 16.5613 7.38165 16.5613 7.42176 16.5613C7.48861 16.51 7.55546 16.4588 7.61786 16.4053C7.65129 16.3785 7.68471 16.3496 7.71368 16.3206L7.76716 16.2716C7.78276 16.2582 7.79836 16.2426 7.81173 16.2292C7.84961 16.1914 7.8875 16.149 7.92761 16.1067C7.82064 16.1111 7.71368 16.1134 7.60672 16.1134C7.44627 16.1134 7.2836 16.1045 7.12093 16.0866C7.03848 16.0777 6.95602 16.0643 6.87357 16.0465V16.0554C6.87357 16.0554 6.72204 16.0666 6.49251 16.0889C6.39001 16.1 6.27413 16.1134 6.14934 16.129C6.01118 16.1958 5.89085 16.2939 5.78611 16.4053C5.65241 16.5457 5.54099 16.7061 5.41619 16.8599V16.8554C5.17776 17.2142 4.81676 17.4749 4.47804 17.7423L4.44907 17.7156C4.7811 17.4393 5.12873 17.1719 5.35157 16.8242L5.31369 16.8198Z" fill="#1B1B1B"/>
</svg>
