<svg width="24" height="25" viewBox="0 0 24 25" fill="none" xmlns="http://www.w3.org/2000/svg">
<g clip-path="url(#clip0_253_1539)">
<path d="M18.3309 15.7254C18.0928 15.0529 17.6947 14.4329 17.2159 13.9056C16.9778 13.6434 16.7263 13.3919 16.4587 13.1592C16.3 13.0206 16.1359 12.8875 15.9691 12.7611C15.6624 12.527 15.341 12.3118 15.0088 12.1155C14.7075 11.9379 14.3968 11.7738 14.0726 11.6434C13.306 11.3313 12.608 10.8283 12.3753 10.4181C12.3551 10.3818 12.3376 10.3455 12.3215 10.3091C12.2556 9.88547 12.5125 9.3542 12.3309 9.25333C12.2179 9.39321 12.152 9.27485 12.1251 9.20087C12.1197 8.89556 12.1224 8.57142 12.1399 8.26072C12.2045 7.06503 12.8043 5.84243 12.6322 5.86126C12.5703 5.86799 12.4304 6.0267 12.2771 6.30107C12.3605 5.03544 11.9745 3.80477 11.7969 3.77653C11.7727 3.77249 11.7512 3.77384 11.7297 3.77922C11.614 3.28292 11.4688 2.7772 11.2764 2.28762C10.7828 1.02468 10.764 0.656151 10.6456 0.668255C10.4573 0.68843 10.5959 1.96079 10.6106 2.10067C10.6766 2.72878 10.8245 3.30847 10.9496 3.87202C10.9724 3.97828 11.0034 4.08184 11.0397 4.18406C11.041 4.18944 11.0437 4.19347 11.0451 4.19885C11.0653 4.25265 11.0827 4.30645 11.0989 4.36025C11.1164 4.41405 11.1298 4.4692 11.1446 4.523C11.1594 4.5768 11.1702 4.63329 11.1823 4.68709C11.1971 4.74896 11.2051 4.81082 11.2159 4.87269C11.224 4.92111 11.2307 4.96953 11.2361 5.0193C11.2414 5.07444 11.2495 5.12959 11.2536 5.18608L11.2643 5.35286C11.2697 5.408 11.267 5.46449 11.2683 5.51963C11.2683 5.57478 11.2724 5.63127 11.2683 5.68641L11.263 5.85319C11.2603 5.96348 11.2455 6.07377 11.2374 6.18406C11.232 6.2392 11.2226 6.293 11.2159 6.34815L11.193 6.51224L11.2024 6.3468C11.2051 6.29166 11.2092 6.23651 11.2105 6.18137C11.2105 6.07108 11.2145 5.96214 11.2092 5.85185L11.2011 5.68776C11.2011 5.63261 11.1917 5.57881 11.1876 5.52367C11.1809 5.46987 11.1796 5.41473 11.1702 5.36093L11.146 5.19953C11.1379 5.14573 11.1258 5.09193 11.115 5.03947C11.1056 4.9924 11.0962 4.94667 11.0841 4.89959C11.0693 4.84041 11.0558 4.78123 11.037 4.7234C11.0209 4.67229 11.0074 4.61984 10.9886 4.56873C10.9711 4.51762 10.9536 4.46651 10.9334 4.41809C10.9146 4.36832 10.8931 4.31856 10.8702 4.27014C10.8622 4.24996 10.8527 4.23113 10.842 4.2123C10.7384 4.11816 10.647 4.07915 10.5945 4.10605C10.4761 4.16926 10.6712 4.90901 10.7384 5.85992C10.5568 5.58688 10.3618 5.41338 10.2502 5.48601C10.0215 5.63396 10.6913 5.98231 10.6873 7.08924C10.6873 7.18473 10.6873 7.29099 10.6873 7.40666C10.6214 7.92851 10.6456 8.40867 10.7008 8.79872C10.7035 8.95877 10.7048 9.11479 10.7075 9.26543C10.6039 9.16456 10.5084 9.12824 10.616 9.4887C10.7304 9.87337 10.6779 10.2204 10.616 10.4356C10.6039 10.4638 10.5918 10.4934 10.5811 10.523C10.4667 10.8364 10.2609 11.1309 9.97043 11.3986C9.75927 11.5923 9.42571 11.7765 9.03835 11.989C7.89511 12.6185 6.1668 13.5707 5.5898 16.0482C4.84602 19.2466 7.03297 21.0852 8.40352 21.8962C8.66983 22.0536 9.48085 22.5338 9.66646 22.8942C9.75523 23.0664 9.88435 23.2089 10.0363 23.3139L10.039 23.3192C10.0525 23.3475 10.0646 23.3744 10.0767 23.4013C10.1278 23.5102 10.1776 23.6071 10.2166 23.6918C10.2556 23.7752 10.2798 23.8451 10.2704 23.8949C10.265 23.9191 10.2569 23.9393 10.2488 23.9514C10.2408 23.9635 10.2367 23.9702 10.2367 23.9702C10.2367 23.9702 10.2435 23.9648 10.2542 23.9568C10.2663 23.9473 10.2811 23.9312 10.2959 23.9043C10.3094 23.8774 10.3174 23.8411 10.3188 23.7994C10.3201 23.7577 10.3161 23.7133 10.3107 23.6635C10.3161 23.6757 10.3201 23.6878 10.3255 23.6999C10.3497 23.7577 10.3672 23.8061 10.386 23.8599C10.386 23.8613 10.386 23.8626 10.3874 23.864C10.3874 23.8828 10.3847 23.903 10.3833 23.9231C10.378 23.9608 10.3712 23.9985 10.3605 24.0361C10.3497 24.0724 10.3349 24.1114 10.3201 24.1424C10.3174 24.1451 10.3161 24.1464 10.3147 24.1491C10.3121 24.1531 10.3094 24.1572 10.308 24.1612C10.304 24.1693 10.3026 24.176 10.3013 24.1827C10.2986 24.1962 10.2973 24.2083 10.2986 24.2204C10.2986 24.2432 10.304 24.2634 10.3107 24.2822C10.3228 24.3199 10.3403 24.3522 10.3578 24.3831C10.3954 24.445 10.4385 24.5001 10.4829 24.5539C10.4654 24.5163 10.4492 24.4773 10.4345 24.4396C10.4371 24.4369 10.4412 24.4342 10.4479 24.4275C10.4587 24.4167 10.4735 24.4006 10.4869 24.3764C10.5165 24.328 10.5434 24.2513 10.5609 24.1558C10.5703 24.1087 10.5757 24.0563 10.5797 24.0011C10.5824 23.9568 10.5837 23.911 10.5851 23.864C10.5878 23.8532 10.5918 23.8411 10.5945 23.8303L10.6066 23.7577C10.6093 23.7402 10.6106 23.7227 10.6106 23.7066C10.6187 23.7173 10.6254 23.7281 10.6335 23.7389C10.6483 23.7604 10.6564 23.7738 10.6685 23.79C10.6792 23.8061 10.6887 23.8249 10.6981 23.8424C10.7357 23.9151 10.7586 23.989 10.7694 24.0563C10.7801 24.1235 10.7774 24.1827 10.7734 24.2244C10.768 24.2661 10.7613 24.289 10.7613 24.289C10.7613 24.289 10.7774 24.2701 10.7989 24.2325C10.8205 24.1948 10.8487 24.137 10.8675 24.063C10.8756 24.0321 10.881 23.9985 10.8864 23.9621C10.9012 23.9931 10.916 24.0213 10.9308 24.0455C10.9469 24.0765 10.9657 24.1007 10.9778 24.1208C11.0074 24.1599 11.0236 24.1814 11.0236 24.1814C11.0236 24.1814 11.0155 24.1545 11.002 24.1087C10.9967 24.0845 10.9886 24.0576 10.9846 24.0254C10.9792 23.9931 10.9751 23.9568 10.9711 23.9164C10.9657 23.8371 10.9684 23.7442 10.9819 23.6474C10.9886 23.6003 10.998 23.5519 11.0088 23.5022H11.1096C11.1096 23.5022 11.115 23.5089 11.1177 23.5129L11.1554 23.5613L11.1648 23.5734C11.1702 23.5815 11.1594 23.5627 11.1607 23.5667L11.1634 23.5707L11.1675 23.5761L11.1836 23.599L11.2172 23.6447C11.2226 23.6528 11.2293 23.6609 11.2334 23.6676L11.2441 23.6864C11.2576 23.712 11.2764 23.7335 11.2872 23.7658C11.3141 23.8249 11.3356 23.8868 11.3477 23.9487C11.3612 24.0119 11.3679 24.0751 11.3679 24.1356C11.3679 24.1962 11.3652 24.2553 11.3571 24.3091C11.3504 24.3629 11.3396 24.4127 11.3289 24.4571C11.3181 24.5015 11.306 24.5391 11.2952 24.5701C11.2737 24.6319 11.2562 24.6669 11.2562 24.6669C11.2562 24.6669 11.2818 24.6387 11.3195 24.5835C11.3383 24.5553 11.3598 24.5217 11.3827 24.48C11.4055 24.4383 11.4297 24.3912 11.4526 24.3374C11.458 24.3253 11.462 24.3118 11.4674 24.2997C11.4714 24.3051 11.4768 24.3105 11.4795 24.3132C11.4876 24.3226 11.4916 24.328 11.4916 24.328C11.4916 24.328 11.4889 24.3213 11.4849 24.3091C11.4822 24.3011 11.4782 24.2903 11.4741 24.2782C11.4889 24.2392 11.5024 24.1989 11.5131 24.1545C11.5306 24.0872 11.5427 24.0146 11.5468 23.9366C11.5468 23.9151 11.5481 23.8922 11.5481 23.8693C11.5548 23.8532 11.5616 23.8371 11.5683 23.8196C11.5737 23.8034 11.5804 23.7859 11.5858 23.7685C11.5885 23.7779 11.5911 23.7886 11.5952 23.7967C11.6113 23.8478 11.6355 23.8895 11.653 23.9299C11.6745 23.9675 11.6947 24.0025 11.7122 24.0334C11.7297 24.0644 11.7485 24.0886 11.762 24.1087C11.7902 24.1504 11.8063 24.1733 11.8063 24.1733C11.8063 24.1733 11.7996 24.1451 11.7875 24.098C11.7821 24.0738 11.7727 24.0455 11.7673 24.0119C11.762 23.9783 11.7552 23.9406 11.7472 23.9003C11.7445 23.8586 11.7364 23.8155 11.7391 23.7711C11.7391 23.7268 11.7445 23.681 11.7552 23.638C11.7646 23.599 11.7821 23.5654 11.8023 23.5304V23.5344C11.8198 23.5667 11.84 23.5963 11.8575 23.6259L11.8709 23.6474L11.8776 23.6582C11.8776 23.6582 11.8817 23.6635 11.8817 23.6649C11.8776 23.6568 11.8817 23.6636 11.8817 23.6622V23.6649L11.9086 23.7026C11.9449 23.755 11.9704 23.7967 11.9973 23.8411C12.0094 23.8653 12.0215 23.8882 12.0323 23.911C12.0417 23.9339 12.0511 23.9581 12.0605 23.9796C12.0673 24.0025 12.074 24.0254 12.0807 24.0469C12.0848 24.0684 12.0901 24.0899 12.0928 24.1114C12.0969 24.1531 12.0982 24.1921 12.0928 24.2271C12.0888 24.2621 12.0794 24.2917 12.07 24.3159C12.0498 24.3629 12.0269 24.3858 12.0269 24.3858C12.0269 24.3858 12.0552 24.3724 12.0928 24.3293C12.1103 24.3078 12.1318 24.2796 12.148 24.2446C12.1668 24.2096 12.1802 24.1652 12.191 24.1168C12.1964 24.0926 12.1991 24.067 12.2018 24.0401C12.2018 24.0132 12.2031 23.985 12.2045 23.9568C12.2031 23.9285 12.2004 23.8989 12.1991 23.8693C12.195 23.8397 12.191 23.8088 12.1856 23.7779C12.1735 23.716 12.1574 23.6488 12.1399 23.5936L12.1278 23.5492C12.1278 23.5492 12.1278 23.5465 12.1278 23.5452C12.1278 23.5425 12.1291 23.5492 12.1251 23.5398V23.5344L12.1224 23.525L12.1184 23.5062C12.1184 23.5062 12.1157 23.4954 12.1143 23.49H12.2246C12.2179 23.5116 12.2098 23.5358 12.2045 23.5613C12.1924 23.6219 12.1856 23.6945 12.2018 23.7685C12.2179 23.8424 12.2569 23.9097 12.3026 23.9554C12.3134 23.9662 12.3255 23.9769 12.339 23.9877C12.3416 23.9917 12.3349 23.9837 12.3363 23.985H12.3376L12.3403 23.989L12.347 23.9944L12.3591 24.0038L12.3753 24.0146L12.3928 24.0294C12.4156 24.0509 12.4345 24.0765 12.4492 24.1047C12.4802 24.1612 12.4936 24.2298 12.4963 24.289C12.499 24.3495 12.4936 24.4019 12.4883 24.4383C12.4829 24.4746 12.4761 24.4948 12.4761 24.4948C12.4761 24.4948 12.4909 24.4786 12.5125 24.4477C12.534 24.4167 12.5622 24.3697 12.5878 24.3051C12.6133 24.2419 12.6349 24.1599 12.6308 24.063C12.6281 24.0146 12.6201 23.9635 12.6012 23.9124L12.5864 23.8747L12.5649 23.8344L12.5568 23.8196L12.5528 23.8128V23.8088C12.5528 23.8088 12.5501 23.8075 12.5501 23.8061C12.5501 23.8061 12.5434 23.7994 12.5461 23.8021C12.5461 23.7954 12.5434 23.79 12.5421 23.7846C12.5394 23.7617 12.5474 23.7483 12.5568 23.7402C12.5663 23.7321 12.5784 23.7227 12.5932 23.7106C12.6026 23.7026 12.6133 23.6945 12.6241 23.6864C12.6402 23.712 12.6591 23.7348 12.6752 23.7604L12.7021 23.7967L12.7088 23.8061C12.7088 23.8061 12.7102 23.8088 12.7115 23.8088C12.7115 23.8102 12.7048 23.7954 12.7088 23.8034L12.7115 23.8075L12.7236 23.8249L12.772 23.8935C12.7815 23.9056 12.7868 23.9151 12.7922 23.9245L12.8097 23.9527L12.8272 23.981L12.8406 24.0119C12.8487 24.0321 12.8608 24.0536 12.8648 24.0724C12.8702 24.0926 12.8783 24.1141 12.8783 24.1316C12.8796 24.1504 12.8837 24.1706 12.8796 24.1894C12.8796 24.1989 12.8783 24.2083 12.877 24.2177C12.8743 24.2271 12.8716 24.2352 12.8689 24.2432C12.8648 24.2621 12.8541 24.2769 12.8474 24.293C12.8393 24.3091 12.8258 24.3213 12.8164 24.336C12.8043 24.3482 12.7922 24.3603 12.7801 24.3697C12.7559 24.3898 12.7317 24.406 12.7102 24.4167C12.6685 24.4396 12.6402 24.4477 12.6402 24.4477C12.6402 24.4477 12.6685 24.4504 12.7182 24.4423C12.7425 24.4383 12.7734 24.4315 12.8084 24.4208C12.8258 24.4154 12.8433 24.406 12.8622 24.3979C12.8796 24.3872 12.8998 24.3764 12.9186 24.3603C12.9361 24.3441 12.9577 24.328 12.9724 24.3065C12.9805 24.2957 12.9899 24.2849 12.998 24.2728C13.0047 24.2607 13.0115 24.2473 13.0182 24.2352C13.033 24.2083 13.041 24.18 13.0491 24.1504C13.0599 24.1195 13.0599 24.0899 13.0639 24.059C13.0693 24.0267 13.0639 23.9971 13.0639 23.9648C13.0639 23.9487 13.0626 23.9325 13.0612 23.9164L13.0531 23.868L13.0437 23.8182C13.0397 23.8021 13.037 23.7846 13.033 23.7725L13.0115 23.6918L13.0061 23.6716C13.0061 23.6716 13.0047 23.6662 13.0047 23.6649C13.0074 23.6716 13.0007 23.6555 13.0007 23.6568V23.6541L12.998 23.6447L12.9872 23.6071C12.9805 23.5829 12.9738 23.5573 12.9684 23.5331C12.963 23.5035 12.9577 23.4753 12.9523 23.447C13.2145 23.3717 13.4324 23.1888 13.5911 22.9077C13.8292 22.4853 14.4089 22.1625 15.0787 21.7886C16.4466 21.0274 18.1466 20.0805 18.5232 17.5963C18.6187 16.9668 18.5447 16.3226 18.3322 15.7241L18.3309 15.7254Z" fill="#1B1B1B"/>
<path d="M18.2312 17.4887C18.2312 17.4887 18.2312 17.4914 18.2326 17.4927C18.2285 17.4927 18.2285 17.486 18.2326 17.4873L18.2312 17.4887ZM17.2158 13.9056C17.6946 14.4315 18.0927 15.0529 18.3308 15.7254C18.5433 16.3239 18.6173 16.9682 18.5218 17.5976C18.1465 20.0818 16.4451 21.0287 15.0772 21.79C14.4061 22.1639 13.8277 22.4853 13.5897 22.909C13.431 23.1901 13.2131 23.373 12.9508 23.4483C12.9562 23.4766 12.9616 23.5048 12.9669 23.5344C12.9723 23.5586 12.9804 23.5828 12.9858 23.6084L12.9965 23.6461L12.9992 23.6555V23.6582C12.9992 23.6582 13.0073 23.673 13.0033 23.6662L13.0046 23.673L13.01 23.6931L13.0315 23.7738C13.0355 23.7859 13.0382 23.8034 13.0423 23.8196L13.0517 23.8693L13.0598 23.9177C13.0611 23.9339 13.0624 23.95 13.0624 23.9662C13.0624 23.9984 13.0678 24.028 13.0624 24.0603C13.0584 24.0926 13.0584 24.1222 13.0476 24.1518C13.0396 24.1814 13.0315 24.2096 13.0167 24.2365C13.01 24.25 13.0033 24.2621 12.9965 24.2742C12.9885 24.2849 12.9791 24.297 12.971 24.3078C12.9562 24.3307 12.9347 24.3455 12.9172 24.3616C12.8984 24.3764 12.8782 24.3871 12.8607 24.3993C12.8419 24.4073 12.8244 24.4167 12.8069 24.4221C12.7719 24.4342 12.7423 24.4409 12.7168 24.4436C12.667 24.4504 12.6388 24.449 12.6388 24.449C12.6388 24.449 12.6657 24.4409 12.7087 24.4181C12.7302 24.4073 12.7544 24.3912 12.7787 24.371C12.7908 24.3602 12.8015 24.3481 12.815 24.3374C12.8244 24.3226 12.8378 24.3105 12.8459 24.2943C12.854 24.2782 12.8647 24.2634 12.8674 24.2446C12.8701 24.2365 12.8728 24.2271 12.8755 24.219C12.8755 24.2096 12.8768 24.2002 12.8782 24.1908C12.8822 24.1733 12.8782 24.1531 12.8768 24.1329C12.8768 24.1141 12.8688 24.0926 12.8634 24.0738C12.8593 24.0536 12.8486 24.0334 12.8392 24.0132L12.8257 23.9823L12.8082 23.9541L12.7908 23.9258C12.7854 23.9164 12.78 23.9083 12.7706 23.8949L12.7222 23.8263L12.7101 23.8088L12.7074 23.8048C12.7033 23.7967 12.7114 23.8115 12.7101 23.8101L12.7074 23.8075L12.7006 23.798L12.6737 23.7617C12.6563 23.7375 12.6388 23.7133 12.6226 23.6878C12.6105 23.6958 12.5998 23.7039 12.5917 23.712C12.5769 23.7241 12.5648 23.7335 12.5554 23.7416C12.546 23.7496 12.5379 23.7631 12.5406 23.7859C12.5406 23.7913 12.5433 23.7967 12.5446 23.8034C12.5419 23.8007 12.5487 23.8088 12.5487 23.8075V23.8101V23.8142L12.554 23.8209L12.5608 23.8357L12.5823 23.8761L12.5971 23.9137C12.6146 23.9648 12.624 24.0159 12.6267 24.0643C12.6307 24.1612 12.6078 24.2432 12.5836 24.3064C12.5581 24.3697 12.5285 24.4167 12.5083 24.449C12.4868 24.4799 12.472 24.4961 12.472 24.4961C12.472 24.4961 12.4787 24.4759 12.4841 24.4396C12.4895 24.4033 12.4962 24.3508 12.4922 24.2903C12.4895 24.2311 12.476 24.1625 12.4451 24.106C12.4303 24.0778 12.4101 24.0522 12.3886 24.0307L12.3711 24.0159L12.355 24.0052L12.3429 23.9958L12.3361 23.9904L12.3335 23.9877H12.3321C12.3321 23.9877 12.3375 23.9931 12.3348 23.989C12.3227 23.9783 12.3106 23.9675 12.2985 23.9567C12.2528 23.911 12.2138 23.8438 12.1976 23.7698C12.1815 23.6958 12.1869 23.6232 12.2003 23.5627C12.2057 23.5371 12.2124 23.5129 12.2205 23.49H12.1102C12.1102 23.49 12.1129 23.5021 12.1142 23.5075L12.1183 23.5264L12.1209 23.5358V23.5411C12.1263 23.5506 12.1236 23.5452 12.125 23.5465V23.5506L12.1371 23.5949C12.1546 23.6501 12.1707 23.7173 12.1828 23.7792C12.1869 23.8101 12.1909 23.8411 12.1963 23.8707C12.1976 23.9003 12.2003 23.9299 12.2016 23.9581C12.2016 23.9863 12.199 24.0146 12.199 24.0415C12.1949 24.0684 12.1922 24.0939 12.1882 24.1181C12.1774 24.1666 12.164 24.211 12.1452 24.2459C12.1277 24.2822 12.1075 24.3091 12.09 24.3307C12.0524 24.3724 12.0241 24.3871 12.0241 24.3871C12.0241 24.3871 12.047 24.3643 12.0672 24.3172C12.0766 24.293 12.086 24.2634 12.09 24.2284C12.0954 24.1948 12.094 24.1545 12.09 24.1128C12.0873 24.0912 12.0819 24.0697 12.0779 24.0482C12.0712 24.0267 12.0645 24.0038 12.0577 23.981C12.0483 23.9581 12.0403 23.9352 12.0295 23.9124C12.0187 23.8895 12.0066 23.8666 11.9945 23.8424C11.9676 23.7967 11.9434 23.755 11.9058 23.7039L11.8802 23.6662V23.6635C11.8802 23.6635 11.8762 23.6582 11.8802 23.6662L11.8762 23.6595L11.8694 23.6487L11.856 23.6272C11.8385 23.5976 11.817 23.568 11.8022 23.5358V23.5317C11.7793 23.5667 11.7632 23.6003 11.7538 23.6393C11.743 23.681 11.7376 23.7268 11.7376 23.7725C11.7349 23.8169 11.743 23.8613 11.7457 23.9016C11.7524 23.942 11.7591 23.9796 11.7659 24.0132C11.7726 24.0469 11.7807 24.0751 11.786 24.0993C11.7982 24.1477 11.8049 24.1746 11.8049 24.1746C11.8049 24.1746 11.7887 24.1504 11.7605 24.1101C11.747 24.0886 11.7282 24.0643 11.7107 24.0348C11.6932 24.0038 11.6731 23.9689 11.6515 23.9312C11.6341 23.8908 11.6099 23.8478 11.5937 23.798C11.5897 23.7886 11.5883 23.7792 11.5843 23.7698C11.5789 23.7873 11.5722 23.8048 11.5668 23.8209C11.5601 23.8384 11.5534 23.8545 11.5466 23.8707C11.5466 23.8935 11.5466 23.9164 11.5453 23.9379C11.5413 24.0159 11.5292 24.0886 11.5117 24.1558C11.5009 24.2002 11.4875 24.2405 11.4727 24.2795C11.4767 24.2917 11.4807 24.3024 11.4834 24.3105C11.4875 24.3226 11.4901 24.3293 11.4901 24.3293C11.4901 24.3293 11.4861 24.3239 11.478 24.3145C11.4754 24.3105 11.47 24.3051 11.4659 24.3011C11.4606 24.3132 11.4565 24.3266 11.4511 24.3387C11.4283 24.3925 11.4041 24.4409 11.3812 24.4813C11.3583 24.523 11.3368 24.5566 11.318 24.5849C11.2803 24.64 11.2548 24.6682 11.2548 24.6682C11.2548 24.6682 11.2723 24.6346 11.2938 24.5714C11.3045 24.5405 11.3166 24.5028 11.3274 24.4584C11.3382 24.414 11.3489 24.3656 11.3557 24.3105C11.3637 24.2567 11.3678 24.1975 11.3664 24.137C11.3664 24.0765 11.3597 24.0119 11.3462 23.95C11.3328 23.8868 11.3126 23.8249 11.2857 23.7671C11.275 23.7362 11.2561 23.7147 11.2427 23.6878L11.2319 23.6689C11.2319 23.6689 11.2212 23.6541 11.2158 23.6461L11.1821 23.6003L11.166 23.5775L11.162 23.5721L11.1593 23.5694C11.1593 23.5694 11.1687 23.5828 11.1633 23.5748L11.1539 23.5627L11.1162 23.5142C11.1162 23.5142 11.1109 23.5062 11.1082 23.5035H11.0073C10.9965 23.5533 10.9871 23.6017 10.9804 23.6501C10.9669 23.7469 10.9643 23.8397 10.9696 23.9191C10.9723 23.9594 10.9764 23.9958 10.9831 24.028C10.9871 24.0603 10.9965 24.0886 11.0006 24.1114C11.014 24.1572 11.0221 24.1841 11.0221 24.1841C11.0221 24.1841 11.0046 24.1625 10.9764 24.1235C10.9643 24.1034 10.9454 24.0791 10.9293 24.0482C10.9145 24.024 10.8997 23.9958 10.8849 23.9648C10.8809 24.0011 10.8741 24.0348 10.8661 24.0657C10.8459 24.141 10.819 24.1975 10.7975 24.2352C10.776 24.2728 10.7598 24.2917 10.7598 24.2917C10.7598 24.2917 10.7679 24.2688 10.7719 24.2271C10.7773 24.1854 10.7787 24.1262 10.7679 24.059C10.7571 23.9917 10.7343 23.9164 10.6966 23.8451C10.6872 23.8276 10.6778 23.8088 10.667 23.7927C10.6563 23.7752 10.6482 23.7617 10.632 23.7416C10.624 23.7308 10.6173 23.72 10.6092 23.7093C10.6092 23.7268 10.6078 23.7442 10.6051 23.7604L10.593 23.833C10.5904 23.8451 10.5877 23.8559 10.5836 23.8666C10.5836 23.9137 10.5823 23.9608 10.5782 24.0038C10.5742 24.059 10.5675 24.1114 10.5594 24.1585C10.5419 24.254 10.515 24.3307 10.4854 24.3791C10.472 24.4033 10.4572 24.4208 10.4464 24.4302C10.4397 24.4369 10.4357 24.4396 10.433 24.4423C10.4478 24.4813 10.4639 24.519 10.4814 24.5566C10.437 24.5028 10.3926 24.4477 10.3563 24.3858C10.3375 24.3549 10.3214 24.3226 10.3092 24.2849C10.3039 24.2661 10.2985 24.2459 10.2971 24.2231C10.2971 24.211 10.2971 24.1988 10.2998 24.1854C10.3012 24.1787 10.3039 24.1719 10.3066 24.1639C10.3066 24.1598 10.3106 24.1558 10.3133 24.1518C10.3133 24.1504 10.316 24.1477 10.3187 24.145C10.3335 24.1141 10.3483 24.0751 10.359 24.0388C10.3698 24.0011 10.3778 23.9635 10.3819 23.9258C10.3846 23.9056 10.3859 23.8868 10.3859 23.8666C10.3859 23.8653 10.3859 23.8639 10.3846 23.8626C10.3657 23.8088 10.3483 23.7604 10.324 23.7025C10.3187 23.6904 10.3146 23.6783 10.3092 23.6662C10.3146 23.716 10.3187 23.7604 10.3173 23.8021C10.3173 23.8424 10.3079 23.8801 10.2945 23.907C10.2797 23.9325 10.2635 23.9487 10.2528 23.9594C10.242 23.9689 10.2353 23.9729 10.2353 23.9729C10.2353 23.9729 10.2393 23.9662 10.2474 23.9541C10.2554 23.942 10.2635 23.9231 10.2689 23.8976C10.277 23.8465 10.2541 23.7779 10.2151 23.6945C10.1761 23.6111 10.1263 23.5129 10.0752 23.404C10.0631 23.3771 10.0497 23.3488 10.0376 23.3219L10.0349 23.3165C9.88154 23.2116 9.75377 23.0691 9.665 22.8969C9.47939 22.5378 8.66836 22.0576 8.40205 21.8989C7.03151 21.0879 4.84455 19.2506 5.58833 16.0509C6.16533 13.5734 7.89365 12.6212 9.03689 11.9917C9.42425 11.7779 9.75915 11.5949 9.96897 11.4013C10.2595 11.1336 10.4653 10.8391 10.5796 10.5257C10.5904 10.4961 10.6025 10.4665 10.6146 10.4383C10.6751 10.2231 10.7275 9.87605 10.6146 9.49138C10.507 9.13093 10.6025 9.16724 10.706 9.26812C10.7033 9.11748 10.702 8.96146 10.6993 8.8014C10.6455 8.41136 10.6199 7.9312 10.6858 7.40934C10.6858 7.29367 10.6858 7.18742 10.6858 7.09192C10.6912 5.985 10.0214 5.63799 10.2487 5.48869C10.3604 5.41607 10.5554 5.59091 10.737 5.8626C10.6697 4.91169 10.4733 4.17195 10.593 4.10874C10.6455 4.08049 10.737 4.1195 10.8405 4.21499C10.8499 4.23382 10.8593 4.25399 10.8688 4.27282C10.8916 4.32124 10.9118 4.37101 10.932 4.42077C10.9535 4.47054 10.9696 4.52165 10.9871 4.57141C11.006 4.62252 11.0194 4.67363 11.0355 4.72609C11.0544 4.78392 11.0678 4.8431 11.0826 4.90228C11.0947 4.94801 11.1055 4.99508 11.1136 5.04216C11.123 5.09596 11.1364 5.14841 11.1445 5.20221L11.1687 5.36361C11.1781 5.41741 11.1808 5.47255 11.1862 5.52635C11.1902 5.58015 11.1983 5.6353 11.1996 5.69044L11.2077 5.85453C11.2131 5.96482 11.2077 6.07376 11.209 6.18405C11.209 6.2392 11.2037 6.29434 11.201 6.34949L11.1916 6.51492L11.2144 6.35083C11.2212 6.29569 11.2306 6.24189 11.2359 6.18674C11.244 6.07646 11.2588 5.96617 11.2615 5.85588L11.2669 5.6891C11.2696 5.63395 11.2669 5.57746 11.2669 5.52232C11.2655 5.46718 11.2669 5.41069 11.2628 5.35554L11.2521 5.18876C11.2481 5.13362 11.24 5.07713 11.2346 5.02198C11.2292 4.97356 11.2225 4.9238 11.2144 4.87538C11.2037 4.81351 11.1956 4.75164 11.1808 4.68977C11.1687 4.63463 11.1593 4.57948 11.1431 4.52568C11.1283 4.47054 11.1162 4.41674 11.0974 4.36294C11.0813 4.30914 11.0638 4.25399 11.0436 4.20154C11.0423 4.19616 11.0396 4.19212 11.0382 4.18674C11.0019 4.08453 10.971 3.98096 10.9481 3.87471C10.823 3.31116 10.6751 2.73147 10.6092 2.10336C10.5944 1.96482 10.4572 0.691116 10.6442 0.670941C10.7625 0.658836 10.7813 1.02736 11.2763 2.29031C11.4686 2.77989 11.6139 3.2856 11.7296 3.7819C11.7511 3.77652 11.7726 3.77518 11.7968 3.77921C11.9743 3.80746 12.359 5.03812 12.277 6.30376C12.4303 6.02938 12.5715 5.87067 12.632 5.86395C12.8042 5.84512 12.2043 7.06771 12.1398 8.26341C12.1223 8.5741 12.1196 8.89824 12.125 9.20356C12.1519 9.27619 12.2164 9.39589 12.3308 9.25601C12.5123 9.35554 12.2554 9.88816 12.3214 10.3118C12.3375 10.3481 12.355 10.3845 12.3752 10.4208C12.6078 10.831 13.3059 11.334 14.0725 11.6461C14.3967 11.7779 14.7074 11.942 15.0086 12.1181C15.3409 12.3145 15.6623 12.5297 15.969 12.7637C16.1371 12.8915 16.2998 13.0247 16.4585 13.1619C16.7262 13.3945 16.9777 13.6461 17.2158 13.9083V13.9056ZM10.4559 24.1383C10.4397 24.1612 10.4222 24.1841 10.4021 24.2083L10.3967 24.2136V24.2123C10.3967 24.2123 10.3953 24.2123 10.394 24.215C10.394 24.215 10.394 24.2177 10.3926 24.219H10.3913C10.3899 24.2217 10.3886 24.2244 10.3873 24.2284C10.3846 24.2405 10.3832 24.254 10.3846 24.2701C10.3846 24.3011 10.3926 24.3333 10.4021 24.3656C10.4088 24.3912 10.4182 24.4167 10.429 24.4423C10.4316 24.4396 10.4343 24.4342 10.437 24.4275C10.4424 24.414 10.4518 24.3952 10.4559 24.3697C10.468 24.3186 10.4693 24.2446 10.4559 24.1558C10.4559 24.1504 10.4545 24.145 10.4532 24.1397L10.4559 24.1383ZM6.03487 17.8007C5.99856 17.3663 6.04429 16.9413 6.12364 16.5149C6.20299 16.0859 6.30925 15.6568 6.46392 15.2493C6.74368 14.5122 7.18753 13.8478 7.75108 13.2977C7.88423 13.1672 8.0268 13.0489 8.16937 12.9278C8.26486 12.8471 8.35767 12.7611 8.44913 12.6763C7.42828 13.3031 6.32135 14.2392 5.88423 16.1168C5.4646 17.9218 6.0416 19.2695 6.85128 20.2244C6.8311 20.1867 6.81228 20.1504 6.79345 20.1128C6.69795 19.9231 6.61725 19.7268 6.52714 19.5344C6.44106 19.3515 6.36305 19.1632 6.2958 18.9722C6.16264 18.5943 6.06984 18.2002 6.03622 17.8007H6.03487ZM6.89701 18.3428C6.86338 18.1625 6.82572 17.9823 6.80286 17.8007C6.75848 17.4497 6.77731 17.0852 6.82169 16.7355C6.9118 16.028 7.14718 15.3407 7.4767 14.7099C7.77932 14.1289 8.17878 13.5923 8.6576 13.1444C8.91046 12.909 9.17946 12.6898 9.43635 12.4598C9.44038 12.4557 9.6919 12.2311 9.94476 11.9823C9.30858 12.3629 8.65222 12.7086 8.05908 13.1578C7.82774 13.3327 7.59909 13.5102 7.40676 13.7294C7.2225 13.9366 7.06648 14.1733 6.94139 14.4154C6.5648 15.1417 6.37515 15.9581 6.29714 16.7678C6.25679 17.1861 6.26352 17.5976 6.3496 18.0092C6.42761 18.3871 6.55807 18.7543 6.7262 19.1027C6.8459 19.3528 6.98443 19.5963 7.13642 19.829C7.19425 19.9191 7.25747 20.0052 7.32337 20.0886C7.42425 20.2177 7.52915 20.3441 7.62868 20.4746C7.77394 20.6642 7.92055 20.8565 8.08598 21.0301C7.97435 20.8485 7.88154 20.6561 7.7847 20.4665C7.69593 20.293 7.59102 20.1289 7.49553 19.9581C7.30723 19.6178 7.14583 19.2627 7.03151 18.8902C6.97636 18.7099 6.93198 18.5284 6.89701 18.3428ZM7.84523 18.5499C7.76453 18.2244 7.70804 17.8976 7.65962 17.5667C7.56681 16.9413 7.58699 16.2997 7.71611 15.681C7.84523 15.065 8.08329 14.4746 8.4303 13.9473C8.70737 13.529 9.04496 13.1565 9.38793 12.792C9.42694 12.7516 10.2649 11.9083 10.4949 11.5627C10.4236 11.6313 10.359 11.6945 10.2998 11.751C10.3402 11.7025 10.3805 11.6555 10.4222 11.6084C10.3536 11.6864 10.2823 11.7631 10.2111 11.837C9.8116 12.2244 9.7309 12.3038 9.71611 12.3186C9.45384 12.5566 9.17946 12.7839 8.90239 13.0058C8.6038 13.2439 8.33077 13.5089 8.09002 13.8061C7.62868 14.375 7.28302 15.0381 7.08531 15.7429C6.91584 16.3508 6.84724 17.0139 6.94677 17.6407C7.02075 18.106 7.21039 18.5553 7.41483 18.9763C7.81026 19.7846 8.34153 20.5149 8.81362 21.2775C8.88356 21.3905 8.9535 21.5035 9.02209 21.6178C8.85262 21.2816 8.71678 20.9305 8.57959 20.5795C8.32001 19.911 8.0147 19.2466 7.84254 18.5485L7.84523 18.5499ZM9.04496 19.4726C8.83514 18.7368 8.64684 18.0375 8.56749 17.3233C8.48948 16.6225 8.50965 15.9097 8.6724 15.2224C8.7531 14.8808 8.86876 14.5512 9.02209 14.2352C9.17677 13.9164 9.37717 13.6313 9.57354 13.3394C9.96628 12.7584 10.3738 12.1706 10.6549 11.525C10.5971 11.5936 10.5352 11.6582 10.4801 11.7294C10.4801 11.7281 10.4814 11.7268 10.4801 11.7294C10.2178 12.063 9.9071 12.3576 9.60851 12.6575C9.30723 12.9601 9.00192 13.2614 8.72889 13.5896C8.24738 14.1666 7.90844 14.8552 7.75511 15.5909C7.60447 16.3118 7.63003 17.0529 7.7995 17.7685C7.88558 18.1316 8.00528 18.4853 8.14516 18.835C8.19089 18.9507 8.24065 19.0664 8.29042 19.1807C8.4693 19.5882 8.66433 19.989 8.85397 20.3925C9.04227 20.7933 9.23191 21.1941 9.45518 21.5775C9.56412 21.7658 9.6771 21.9487 9.79277 22.1289C9.59909 21.2614 9.25478 20.3777 9.04496 19.4739V19.4726ZM10.1586 21.1377C10.0443 20.4302 9.92727 19.7227 9.80353 19.022C9.72149 18.5607 9.61792 18.1007 9.54529 17.638C9.47132 17.1619 9.4229 16.6763 9.42694 16.1921C9.42963 15.7079 9.48342 15.2251 9.60985 14.7557C9.60044 14.7893 9.59506 14.8081 9.61523 14.7368C9.63272 14.6723 9.63137 14.6817 9.6233 14.7086C9.69459 14.4571 9.77798 14.2083 9.86675 13.9635C10.1828 13.1 10.6186 12.2849 10.8593 11.3945C10.823 11.4739 10.7854 11.5519 10.745 11.6299C10.5742 11.9635 10.3657 12.2715 10.1559 12.5822C9.93938 12.9036 9.71342 13.221 9.48477 13.5344C9.25881 13.8451 9.05975 14.1666 8.91046 14.5216C8.75982 14.8794 8.65895 15.2587 8.60784 15.6434C8.55673 16.0213 8.55135 16.4019 8.58094 16.7812C8.61053 17.1605 8.67643 17.5371 8.77193 17.9043C8.88087 18.2943 8.99788 18.6871 9.127 19.0798C9.16197 19.1861 9.19694 19.291 9.23326 19.3972C9.38121 19.829 9.55202 20.254 9.70266 20.6844C9.80891 20.987 9.91248 21.2923 10.0241 21.5936V21.5963L10.0281 21.6057C10.0725 21.7254 10.1169 21.8438 10.1653 21.9608C10.1855 22.0119 10.2084 22.0643 10.2353 22.1141L10.4209 22.5728L10.1586 21.1377ZM10.5702 17.7846C10.5164 17.0839 10.429 16.3925 10.4142 15.6972C10.4061 15.3502 10.437 15.0032 10.472 14.6588C10.507 14.3078 10.5433 13.9581 10.5917 13.6097C10.6832 12.9547 10.8849 12.0886 10.9643 11.4322C10.7006 12.1572 10.2662 13.0529 9.973 13.7658C9.70938 14.4046 9.49687 15.0637 9.45787 15.7577C9.42021 16.4423 9.51839 17.1363 9.67576 17.8007C9.99318 19.0327 10.3173 20.2486 10.5998 21.4658L10.7558 22.1572C10.7154 21.9877 10.667 21.7913 10.7813 22.2728C10.7827 22.2795 10.784 22.2863 10.7867 22.2917L10.9037 22.8095C10.9037 22.8095 10.9226 22.4584 10.9131 22.2876C10.8446 20.7893 10.6307 19.2964 10.5702 17.7859V17.7846ZM11.4552 21.8048C11.4659 21.6676 11.4754 21.5317 11.4861 21.3959C11.4861 21.3959 11.4861 21.3945 11.4861 21.3932C11.6166 19.4658 11.4592 17.6972 11.4592 17.6972C11.3866 16.9722 11.2803 16.2674 11.1875 15.56C11.1418 15.2049 11.1297 14.8512 11.1149 14.4947C11.1001 14.1451 11.0799 13.7954 11.0705 13.4443C11.053 12.788 11.1014 11.9837 11.1109 11.3273C10.9831 12.0926 10.7262 12.9857 10.6051 13.7523C10.5487 14.1087 10.5083 14.4692 10.4706 14.8283C10.4384 15.1471 10.4155 15.4672 10.433 15.7873C10.468 16.4167 10.5621 17.0395 10.6509 17.6689C10.8392 19.1592 11.1189 20.6454 11.314 22.18L11.4027 22.9278L11.4552 21.8048ZM12.0201 21.1484C12.2743 19.9621 12.5366 18.7732 12.5285 17.5371C12.5392 16.8041 12.4693 16.0791 12.2931 15.3703C12.2057 15.0153 12.0819 14.6723 11.9878 14.3186C11.8923 13.9581 11.786 13.6017 11.6784 13.2439C11.6744 13.2318 11.6704 13.2197 11.6677 13.2062V13.2036C11.5668 12.866 11.4673 12.5297 11.3879 12.1867C11.3207 11.8922 11.2669 11.2829 11.2602 11.2641C11.2037 11.9594 11.1162 12.6387 11.1122 13.3367C11.1095 13.6985 11.123 14.0603 11.1324 14.4221C11.1418 14.7893 11.1472 15.1538 11.1929 15.5183C11.24 15.8949 11.2951 16.2701 11.353 16.6454C11.4108 17.0206 11.47 17.3959 11.5197 17.7832C11.5682 18.1128 11.6004 18.4894 11.622 18.8794C11.6771 19.3636 11.7336 19.8438 11.7309 20.3347C11.7417 20.7099 11.7444 21.0785 11.7403 21.4376L11.7027 22.2513L11.6717 22.8565L11.6758 22.835L11.6677 23.0139L12.0214 21.1471L12.0201 21.1484ZM16.2245 16.8243C16.2245 16.8243 16.2245 16.8283 16.2245 16.8296C16.2057 17.0435 16.1694 17.2547 16.1183 17.4618C16.047 17.8357 15.9407 18.2069 15.8103 18.5633C15.6368 19.0381 15.4175 19.4914 15.1633 19.9446C14.7612 20.7113 13.5386 22.5418 13.5386 22.5418C13.5386 22.5418 15.1835 20.905 15.5049 20.5324C15.8641 20.1235 16.1828 19.6864 16.4437 19.217C16.4787 19.1538 16.5123 19.0892 16.546 19.026C16.546 19.026 16.546 19.0247 16.5473 19.0233C16.6953 18.7624 16.8889 18.2621 16.8889 18.2621C17.3274 17.1255 17.1687 16.0993 16.9575 15.4389C16.7289 14.7234 16.3926 14.2715 16.3899 14.2674C16.3859 14.2621 16.1344 13.868 15.5063 13.3286C15.209 13.0812 14.8916 12.8525 14.5782 12.6292C13.899 12.1437 13.1996 11.6864 12.5312 11.1861C12.589 11.2681 12.6509 11.3461 12.7181 11.4228C13.0261 11.7738 13.4014 12.059 13.7807 12.328C13.7901 12.3347 13.7995 12.3414 13.8089 12.3481C14.0927 12.5311 14.3469 12.7126 14.5809 12.9036C14.6038 12.9225 14.6267 12.9426 14.6495 12.9615C14.6576 12.9682 14.6643 12.9736 14.6724 12.9803C14.6912 12.9964 14.7101 13.0126 14.7289 13.0287C14.7961 13.0865 14.862 13.1444 14.9253 13.2062C14.9253 13.2062 14.9253 13.2076 14.9279 13.2089C14.975 13.2533 15.0207 13.2991 15.0651 13.3434C15.2481 13.5304 15.4095 13.7321 15.5466 13.9473C15.5359 13.9406 15.5251 13.9339 15.5144 13.9272C15.4538 13.8344 15.3879 13.7429 15.318 13.6541C15.3852 13.7416 15.4485 13.8317 15.509 13.9245C15.5049 13.9218 15.5009 13.9191 15.4969 13.9164C15.361 13.712 15.209 13.5183 15.0396 13.3421C14.9279 13.2291 14.8082 13.1175 14.6805 13.0085C14.2689 12.6656 13.8049 12.3885 13.3731 12.0711C13.3731 12.0711 13.3731 12.0711 13.3745 12.0724C13.2615 11.9944 13.1472 11.9016 13.0342 11.8048C12.975 11.7537 12.9158 11.7025 12.8593 11.6487C12.8432 11.634 12.8284 11.6192 12.8136 11.6044C12.6065 11.408 12.429 11.2197 12.3294 11.1094C12.3483 11.1457 12.3657 11.1834 12.3859 11.2184C12.6509 11.6824 13.0624 12.0307 13.4458 12.3925C13.7847 12.7126 14.1236 13.0395 14.4088 13.4093C14.3967 13.4067 14.3859 13.4026 14.3738 13.3999C14.242 13.2331 14.1008 13.0744 13.9474 12.9251C13.7497 12.7342 13.5547 12.5432 13.3489 12.3602C13.244 12.2674 13.1378 12.1746 13.0342 12.0791C12.5608 11.6797 12.2433 11.3165 12.0846 11.1188C12.1398 11.2829 12.2164 11.4793 12.3173 11.6662C12.3846 11.7806 12.4532 11.8935 12.5204 12.0038C12.6953 12.2903 12.858 12.5862 13.0476 12.8633C13.1795 13.0341 13.2992 13.182 13.3019 13.1861C13.3019 13.1861 13.3113 13.1968 13.3261 13.2143C13.3193 13.2143 13.3113 13.213 13.3045 13.2116C13.2965 13.2022 13.2911 13.1955 13.2911 13.1955C13.283 13.1861 13.2144 13.1 13.127 12.987C12.5608 12.3024 11.6623 11.143 11.6623 11.143C11.7551 11.5169 12.3738 13.0085 12.6657 13.6366C12.6764 13.6555 12.6899 13.6824 12.706 13.7147C12.7033 13.7227 12.6993 13.7321 12.6966 13.7402C12.6751 13.6945 12.6536 13.6487 12.6307 13.6044L12.4881 13.3165C12.476 13.2937 12.4653 13.2708 12.4532 13.2493V13.2533C12.4532 13.2533 11.478 11.6192 11.4404 11.2224C11.4404 11.2224 11.4767 11.755 11.6112 12.6346L11.7995 13.5492C11.817 13.6178 11.8358 13.6878 11.8546 13.7604C11.8331 13.6864 11.8143 13.6138 11.7968 13.5425L11.7807 13.5021C11.8049 13.5882 11.8304 13.6743 11.8546 13.7617C11.9125 13.9689 11.9649 14.1773 12.0187 14.3858C12.0712 14.5862 12.1357 14.7826 12.1949 14.9803C12.3173 15.3851 12.4088 15.8007 12.4733 16.219C12.5379 16.6373 12.5742 17.061 12.585 17.486C12.5944 18.9763 12.2998 20.4194 12.1142 21.8801L11.9663 23.0301C11.9663 23.0301 12.8728 20.0522 13.2279 18.7476C13.2386 18.6992 13.2494 18.6494 13.2588 18.601C13.3826 18.1477 13.4552 17.681 13.4767 17.213C13.5197 16.258 13.3301 15.3233 12.9925 14.4383C13.0033 14.445 13.014 14.4517 13.0261 14.4571C13.2494 15.0516 13.4901 15.8989 13.5036 16.8189C13.5036 16.7664 13.5049 16.7153 13.5049 16.6642C13.5076 16.7301 13.5103 16.796 13.5117 16.8619C13.5211 17.33 13.4821 17.7967 13.4081 18.2728C13.275 19.3206 12.9831 20.3266 12.7222 21.3461L12.7195 21.3555C12.6307 21.7052 12.5446 22.0563 12.4706 22.4127L12.3079 23.1027L13.0127 21.2183C13.3045 20.5566 13.6179 19.8989 13.8708 19.2331C13.8708 19.2331 13.8708 19.2305 13.8721 19.2305C14.238 18.3845 14.4168 17.6326 14.5043 17.0583C14.5446 16.3347 14.4397 15.6918 14.2877 15.1619C14.2945 15.1672 14.3012 15.1726 14.3079 15.178C14.3926 15.4779 14.4545 15.7846 14.4908 16.0939C14.5271 16.4033 14.5366 16.714 14.5218 17.0247C14.5043 17.3744 14.4397 17.7079 14.3604 18.0482C14.316 18.2379 14.2716 18.4275 14.2138 18.6144C13.9179 19.6366 13.4363 20.6925 13.0934 21.72C13.0086 21.9594 12.7733 22.6857 12.7396 22.7974L12.6347 23.182C12.6347 23.182 13.0113 22.4181 13.4471 21.5479C13.7605 20.9225 14.1277 20.3078 14.4532 19.6878C14.6065 19.3945 14.7249 19.0973 14.8499 18.7906C14.9952 18.4356 15.1109 18.0697 15.2306 17.7066C15.3045 17.4578 15.3557 17.2157 15.3893 16.9816C15.3933 16.9857 15.3973 16.9897 15.4 16.9951C15.3785 17.1498 15.3503 17.3044 15.3126 17.4591C15.3274 17.412 14.9791 18.7893 14.6737 19.4887C14.1479 20.6884 13.4659 21.8209 13.0194 23.0879C13.0436 23.0731 14.3577 21.0543 14.9764 20.0751C15.0261 19.9931 15.0759 19.911 15.1243 19.8276C15.1243 19.8276 15.1243 19.8263 15.1243 19.8249C15.2265 19.6609 15.3234 19.486 15.4135 19.3031C15.4633 19.2089 15.5076 19.1108 15.5574 19.0179C15.9058 18.3737 16.1653 17.1995 16.203 16.8458C16.2084 16.8391 16.2151 16.831 16.2205 16.8229L16.2245 16.8243ZM15.8977 20.7758C16.4236 20.3455 16.9091 19.8438 17.2346 19.2426C17.4108 18.9157 17.5413 18.5674 17.6314 18.2083C17.7053 17.9177 17.7511 17.6192 17.7672 17.3192C17.786 16.9763 17.7632 16.6306 17.7 16.293C17.6273 15.9056 17.4996 15.529 17.3261 15.174C17.1203 14.7516 16.8499 14.3616 16.5419 14.0079C16.1586 13.568 15.7148 13.182 15.2427 12.8404L15.2588 12.8713C15.2333 12.8539 15.2064 12.835 15.1795 12.8162C14.9333 12.6414 14.6711 12.4921 14.4142 12.3347C14.3415 12.2903 14.2689 12.2446 14.1976 12.1988C13.852 11.9729 13.5076 11.7456 13.1633 11.5183C14.0174 12.2876 15.0463 12.835 15.8694 13.642C15.9152 13.6878 15.9596 13.7335 16.0039 13.7806C16.32 14.1128 16.5796 14.4934 16.7706 14.9103C17.2319 15.9177 17.314 17.0865 16.9468 18.137C16.893 18.3199 16.8311 18.5001 16.7585 18.6763C16.5823 19.1067 16.359 19.5169 16.0994 19.9016C15.8398 20.2863 15.5413 20.6548 15.2144 21.0287C15.0369 21.2318 14.8513 21.4389 14.667 21.6501C14.6885 21.6366 14.7154 21.6192 14.7477 21.5976C14.8365 21.5425 14.9616 21.4578 15.1189 21.3502C15.2144 21.2856 15.3086 21.217 15.4027 21.1498C15.5009 21.0785 15.6004 21.0072 15.6959 20.9332C15.7632 20.8821 15.8291 20.8296 15.8936 20.7758H15.8977ZM17.6489 14.9964C17.6489 14.9964 17.6515 15.0018 17.6529 15.0032C17.5668 14.8552 17.5063 14.7718 17.5063 14.7718C17.3086 14.4786 17.0853 14.2002 16.8419 13.9406C16.7504 13.8303 16.6294 13.712 16.4922 13.5909C15.6381 12.788 14.6495 12.2029 13.9596 11.9231C13.8829 11.8922 13.8089 11.8586 13.7349 11.8249C13.8412 11.8882 13.9609 11.9594 14.086 12.0388C14.2339 12.1303 14.3913 12.2325 14.546 12.3347C14.5661 12.3481 14.5863 12.3616 14.6065 12.375C14.741 12.4652 14.8741 12.5566 14.9965 12.6454C15.0113 12.6561 15.0261 12.6669 15.0409 12.6777L15.049 12.6656C17.9918 14.6817 18.016 16.9319 17.6381 18.3105C17.4592 18.9615 17.2359 19.599 16.776 20.1087C16.5635 20.3441 16.3483 20.5781 16.1156 20.7947C16.1613 20.7637 16.2057 20.7315 16.2501 20.6992C16.5083 20.5136 16.7517 20.3118 16.975 20.0912C17.1969 19.8707 17.3973 19.6286 17.5682 19.3582C17.7497 19.0744 17.8936 18.7691 18.0039 18.4504C18.0591 18.2917 18.1062 18.1289 18.1438 17.9648C18.1613 17.8882 18.1788 17.8101 18.1922 17.7321C18.1963 17.7093 18.238 17.5237 18.2339 17.4927C18.2366 17.4914 18.238 17.4887 18.238 17.4847C18.2487 17.3986 18.2595 17.3138 18.2635 17.2278C18.2958 16.6669 18.1626 16.1208 17.9474 15.6071C17.8587 15.3959 17.7578 15.1915 17.6489 14.9964Z" fill="#1B1B1B"/>
</g>
<defs>
<clipPath id="clip0_253_1539">
<rect width="13.1244" height="24" fill="white" transform="translate(5.43774 0.668213)"/>
</clipPath>
</defs>
</svg>
