<svg width="24" height="20" viewBox="0 0 24 20" fill="none" xmlns="http://www.w3.org/2000/svg">
<path d="M0.147366 5.81576C0.147366 5.81576 0.155554 5.82804 0.1576 5.83213C0.161694 5.82804 0.16988 5.82599 0.184208 5.8219C0.192394 5.8219 0.198534 5.81781 0.206722 5.81781C0.386833 5.6336 1.1912 5.35729 1.1912 5.35729L2.51339 5.32454C2.51339 5.32454 2.56865 5.49238 2.63005 5.68886C2.71806 5.79734 2.79789 5.91196 2.85929 6.03681C2.94116 6.20464 3.06601 6.30288 3.19495 6.42773C3.23998 6.44206 3.28501 6.45843 3.32799 6.47481C3.55108 6.56282 3.7578 6.66925 3.95634 6.79205L5.24169 6.99059L5.36449 7.08883C5.51799 7.15023 5.65922 7.25257 5.81477 7.28532C6.02968 7.33034 6.21184 7.17275 6.41651 7.13181C6.49633 7.11748 6.57206 7.09292 6.64574 7.06631L6.71124 7.03357C6.71124 7.03357 7.9884 6.33563 8.06413 6.1985C8.13986 6.06137 8.85008 5.49033 8.85008 5.49033L9.40679 5.33478C9.1182 5.81985 8.76821 6.31721 8.65359 6.8555C8.61266 7.04585 8.56967 7.23619 8.5226 7.42654C8.49804 7.44291 8.47552 7.45724 8.4571 7.46952C8.24834 7.6087 7.92291 7.65782 7.68549 7.77244C7.31298 7.95255 6.5823 8.24728 6.54955 8.7037C6.54546 8.76101 6.50247 8.82855 6.43902 8.89609C6.13815 9.09258 5.7636 9.34228 5.73904 9.37503C5.72471 9.38117 5.71039 9.38731 5.69606 9.39345C5.59577 9.41801 5.33993 9.44871 5.09637 9.47327C5.09637 9.47327 5.09432 9.47327 5.09228 9.47327C4.76275 9.45281 4.33089 9.44667 3.92768 9.4876C3.88675 9.47737 3.83967 9.46713 3.79055 9.4569C3.43647 9.44257 3.0701 9.34228 2.74467 9.23381C2.74058 9.23381 2.73648 9.23381 2.73648 9.23381C2.73648 9.23381 2.7283 9.22971 2.72421 9.22767C2.62801 9.19492 2.56046 9.10281 2.5052 9.02913C2.45403 8.96364 2.37012 8.92475 2.27188 8.90019C2.25755 8.91861 2.24322 8.93908 2.23094 8.96159C2.2248 8.97182 2.21866 8.9841 2.21457 8.99434C2.21866 8.99843 2.2248 9.00253 2.22889 9.00662V9.00867C2.38649 9.16422 2.47655 9.45281 2.68327 9.50602C2.74672 9.5224 2.78151 9.56128 2.79175 9.60631L3.86628 9.75163C3.86628 9.75163 4.02593 9.85192 3.63295 9.94402C3.61044 9.95016 3.57769 9.95221 3.54494 9.95426C3.53266 10.0054 3.49378 10.0464 3.41805 10.0525C3.14379 10.0709 2.88999 10.1385 2.61777 10.0545C2.47655 10.0116 2.34351 9.95426 2.21866 9.88262C1.98329 9.86625 1.78885 9.86011 1.69674 9.87853L1.47569 9.97063C1.47569 9.97063 1.46137 9.98086 1.45318 9.98496C1.45318 9.98496 1.45318 9.987 1.45318 9.98905C1.45728 10.0136 1.46546 10.0709 1.47979 10.1262C1.52482 10.118 1.56985 10.1098 1.61078 10.1016C1.89732 10.0566 2.1634 10.0914 2.41719 10.2388C2.55228 10.3165 2.84291 10.3329 3.0701 10.3288L4.36773 10.0341H4.36978C4.3882 10.0341 4.40867 10.03 4.42709 10.03C4.78117 9.99724 5.18028 10.0791 5.52004 9.99314C5.68173 9.95221 5.80454 9.91537 5.92939 9.86625C6.03377 9.82327 6.1402 9.7721 6.27324 9.69637C6.46973 9.5838 6.69077 9.38936 6.85451 9.20515C6.88931 9.16422 6.92205 9.12533 6.95071 9.08849C7.01006 9.01276 7.08579 8.94112 7.09193 8.84083C7.10626 8.63002 7.41736 8.52359 7.59338 8.41511C7.84718 8.26161 8.08665 8.16746 8.34863 8.07331C8.22992 8.51131 8.09893 8.94931 7.96384 9.38526L7.42555 9.69023L6.3592 10.1282L5.52209 10.7689L4.73819 11.4504L4.05867 11.6223H3.87447C3.88061 11.6387 3.8888 11.653 3.89698 11.6674C3.95634 11.6878 3.99318 11.737 4.00341 11.7922C4.04844 11.7922 4.09347 11.7922 4.1385 11.7922C4.1651 11.7881 4.19171 11.784 4.21832 11.7779C4.53966 11.6837 4.86713 11.608 5.19052 11.5098C5.22326 11.4995 5.25192 11.4995 5.27648 11.5057C5.2949 11.4934 5.31128 11.4791 5.32969 11.4668C5.55688 11.2642 5.83319 11.0186 5.87617 10.9756C5.9519 10.8998 6.94457 10.2838 6.94457 10.2838L7.69572 10.2326C7.65683 10.3554 7.08375 11.3235 6.90568 11.7083C6.80744 11.9191 6.67235 12.2937 6.47996 12.5904C6.45745 12.5945 6.43698 12.5986 6.41242 12.6007C5.76974 12.6785 5.27444 12.8054 4.62357 12.8524L3.55313 12.2036H3.10489L2.39058 11.9641L1.93007 11.8577L1.90551 11.8413C1.87686 11.8577 1.85025 11.8741 1.82159 11.8905C1.82159 11.9007 1.82159 11.9109 1.82159 11.9212C1.86048 11.9437 1.90142 11.9682 1.94031 11.9908C1.99966 12.0256 2.05902 12.0624 2.11632 12.1013L2.36193 12.1954C2.61163 12.222 2.8511 12.2916 3.08034 12.3919C3.25226 12.3776 3.41395 12.4492 3.56951 12.5065C3.77213 12.5823 3.9195 12.7153 4.09347 12.8238C4.15692 12.832 4.45369 13.0755 4.42504 13.1513C4.33908 13.2167 4.29814 13.27 4.20809 13.2495C4.15896 13.2393 3.87447 13.0817 3.86014 13.0325C3.85605 13.0285 3.84991 13.0244 3.84377 13.0203C3.8233 13.0428 3.79465 13.0571 3.75576 13.0612C3.74962 13.0612 3.73734 13.0653 3.72915 13.0673C3.74962 13.1083 3.77008 13.1472 3.79055 13.186L3.97885 13.3048C4.01569 13.3396 4.06482 13.3662 4.12622 13.3784C4.18557 13.3907 4.24697 13.403 4.30838 13.4153L4.3841 13.4398L4.3268 13.5319L3.09466 13.9208L2.26983 13.7428L1.93417 13.2331L1.3795 13.0428L0.837116 13.184C0.830975 13.2352 0.845303 13.2822 0.906704 13.3232C0.921032 13.3334 0.935358 13.3416 0.949686 13.3498C0.976294 13.3457 1.0029 13.3416 1.02746 13.3396L1.19325 13.2577L1.41839 13.3232C1.41839 13.3232 1.43067 13.3232 1.43681 13.3232C1.45523 13.3232 1.47365 13.3293 1.49207 13.3314C1.51458 13.3314 1.5371 13.3375 1.55552 13.3457C1.60055 13.36 1.64148 13.3764 1.68242 13.3969L1.69879 13.401H1.6947C1.86867 13.5033 1.99557 13.6773 2.11018 13.8533C2.11633 13.8574 2.12451 13.8594 2.13065 13.8635C2.45199 14.0559 2.80607 14.1337 3.17039 14.1501C3.5081 14.0621 3.84786 13.9781 4.19171 13.9167C4.28996 13.8697 4.38615 13.8123 4.47825 13.7428C4.61948 13.6343 4.75047 13.5422 4.8917 13.4726L4.949 13.4132C5.65103 13.227 5.89459 13.1594 6.58844 13.0673L6.72148 13.5053C6.72148 13.5053 6.27529 14.0375 5.95804 14.3199C5.90073 14.4079 5.84343 14.496 5.77384 14.5737C5.76156 14.7088 5.76156 14.8623 5.75337 14.8848C5.66945 15.1079 5.387 15.4682 5.33174 15.5193C5.31742 15.5418 5.20894 15.6053 5.12093 15.6544C5.13321 15.6626 5.14549 15.6687 5.15572 15.679C5.22122 15.6953 5.29695 15.6913 5.37472 15.6646C5.42794 15.6462 5.47911 15.6524 5.52004 15.6728C5.59168 15.636 5.66331 15.6012 5.7329 15.5623C5.7984 15.4375 5.86389 15.3106 5.92734 15.1837C5.9519 15.1325 5.9826 15.0875 6.01331 15.0445C6.06243 14.8889 6.13611 14.6699 6.14225 14.5983C6.14634 14.541 6.34692 14.3732 6.52908 14.2319C6.9896 14.7313 7.46034 15.3924 7.24544 15.9103C7.18404 16.0597 7.10012 16.1702 7.01825 16.2828C7.00392 16.643 6.94047 16.9971 6.8627 17.3512C6.95275 17.3757 7.04281 17.39 7.13491 17.388C7.13901 17.3716 7.14105 17.3552 7.1431 17.3389C7.05919 16.9152 7.10831 16.5468 7.30684 16.1395C7.33754 16.0453 7.37438 15.9512 7.41941 15.857C7.48695 15.7179 7.5852 15.6012 7.63227 15.4804C7.49719 15.2451 7.3662 15.0097 7.24749 14.7682C7.17994 14.6638 7.13287 14.5574 7.09807 14.4489C7.07351 14.3936 7.04895 14.3363 7.02644 14.279C6.98346 14.1685 6.94457 14.0559 6.92001 13.9433L7.22702 13.7182C7.27205 13.6691 7.31298 13.6179 7.34982 13.5667C7.37234 13.5299 7.39485 13.4931 7.41736 13.4542C7.40918 13.3887 7.37848 13.3252 7.37029 13.2597C7.37029 13.2434 7.3662 13.229 7.3662 13.2147C7.29865 13.1308 7.31093 12.8013 7.24544 12.7235C7.4235 12.1197 8.25038 10.7075 8.34044 10.601C8.68225 10.1958 8.74569 9.81303 8.94423 9.35252C9.17346 8.82036 9.47842 8.2964 9.7445 7.77653C9.85707 7.55548 9.93075 7.32625 9.99829 7.09497C10.0269 7.06222 10.0536 7.02947 10.0822 6.99877C10.0577 7.11134 10.0392 7.22596 10.0249 7.34467C10.0085 7.50432 9.91642 7.63735 9.90415 7.80314L9.84684 8.66072C9.81409 9.14989 9.89186 9.62269 9.98601 10.1037C10.0597 10.4782 10.1395 10.8794 10.248 11.2744C10.3012 11.3726 10.3381 11.4832 10.2746 11.5548C10.2357 11.5998 10.1989 11.6346 10.1641 11.6633C10.1559 11.6837 10.1457 11.7022 10.1272 11.7206C10.031 11.8209 9.90005 11.8577 9.7752 11.9253C9.59509 12.0256 9.41907 12.1299 9.23691 12.2261C9.10183 12.2998 8.96469 12.3694 8.82756 12.441C8.81528 12.4533 8.803 12.4676 8.78868 12.482C8.73955 12.7133 8.69043 12.9425 8.61266 13.1758C8.59628 13.2249 8.58195 13.2761 8.56763 13.3252C8.56763 13.3682 8.56353 13.4112 8.56149 13.4562C8.55535 13.5586 8.49395 13.8656 8.6147 13.9208C8.62903 13.927 8.64131 13.9352 8.65359 13.9413C8.69248 13.8533 8.72523 13.7735 8.73341 13.7243C8.76002 13.5831 9.13457 12.7992 9.13457 12.7992C9.13457 12.7992 9.92052 12.4492 9.97169 12.4369C10.0044 12.4288 10.3135 12.2241 10.5325 12.0767C10.5959 12.2159 10.6635 12.351 10.7413 12.4779C10.9684 12.8442 11.1772 13.2475 11.5927 13.446C11.826 13.5565 12.0512 13.6752 12.3029 13.755L12.3336 13.9884C12.3091 14.1214 12.2415 14.5103 12.1371 14.6085C12.0246 14.715 11.8833 14.7968 11.7319 14.8664C11.648 14.9544 11.5088 15.0117 11.4085 15.0506C11.3614 15.069 11.3143 15.0854 11.2673 15.1018C11.2468 15.1304 11.2141 15.153 11.167 15.1591C11.1424 15.1632 11.1199 15.1652 11.0953 15.1673C11.0728 15.1775 11.0565 15.1918 11.0401 15.2062C11.0585 15.2246 11.0749 15.2451 11.0933 15.2635C11.1629 15.2492 11.2304 15.2348 11.3 15.2246L11.8567 15.0281C11.9304 14.9913 12.0061 14.9606 12.086 14.9319L12.3991 14.674C12.3991 14.674 12.571 14.1501 12.6959 13.8328C12.7143 13.8369 12.8576 13.8697 13.1216 13.972C13.2485 14.1971 13.3856 14.2729 13.4614 14.4755C13.5432 14.6986 13.6231 14.9585 13.7459 15.1816C13.578 15.2717 13.3713 15.3433 13.2158 15.4047C13.0316 15.4784 12.8719 15.6217 12.6775 15.6606C12.6017 15.6749 12.5219 15.7506 12.4933 15.8243C12.5792 16.0228 12.6038 16.2111 12.6058 16.4097L12.4667 16.6246L11.5108 16.9254L10.7208 17.7052L10.3667 18.5014C10.3667 18.5014 10.6205 18.5424 10.6717 18.4134C10.7249 18.2845 11.167 17.5681 11.3041 17.433C11.4412 17.2979 12.0368 17.0912 12.1351 17.0953C12.2047 17.0994 12.4298 17.0237 12.5751 16.9582C12.571 17.0237 12.569 17.0912 12.5669 17.1608C12.5547 17.7564 12.5936 18.3725 12.1433 18.8432C12.1351 18.8514 12.1249 18.8596 12.1146 18.8657C12.0409 19.007 11.9775 19.1605 11.912 19.316L11.9079 19.3263L11.6602 19.9792C11.6807 19.9853 11.7032 19.9914 11.7257 19.9976L12.0716 19.49L12.438 19.0377L12.7061 18.4093C12.7655 18.3561 12.7982 18.2763 12.7962 18.1965L12.8576 17.4801C12.8903 17.3491 12.9128 17.2304 12.9128 17.1772C12.9251 16.8149 12.9906 16.4833 13.0377 16.1293C13.0438 16.1293 13.0479 16.1252 13.0541 16.1231L13.1932 16.5877L13.1625 18.264L12.5465 19.1523L12.2456 20.0078C12.2927 20.0017 12.3418 19.9955 12.3909 19.9914C12.5465 19.6599 12.6857 19.3426 12.6857 19.3426C12.6857 19.3426 13.4491 18.3704 13.4532 18.309L13.5166 17.3675L13.6108 17.5824L14.0038 17.7155L14.2555 17.8956L14.1818 17.693C14.1818 17.693 13.7479 17.4576 13.7274 17.4126C13.7131 17.3798 13.6149 17.2427 13.5289 17.1506C13.5453 16.8988 13.5596 16.7085 13.5596 16.7085L13.619 15.8345C13.8789 15.6994 14.1347 15.6217 14.3578 15.4334C14.4479 15.3576 14.4581 15.1857 14.3824 15.0997C14.2801 14.9851 14.2125 14.8275 14.1532 14.6679L14.7713 14.6965L15.3894 15.4845L15.852 15.6933C15.8765 15.7035 15.9011 15.7158 15.9256 15.726L16.378 15.9307C16.4169 15.945 16.4557 15.9573 16.4967 15.9676C16.8057 16.0494 17.1066 15.9983 17.4157 15.9962C17.4198 15.9901 17.4238 15.9839 17.4259 15.9778C17.4464 15.9205 17.4709 15.8693 17.4975 15.8202C17.4545 15.7956 17.4116 15.7752 17.3686 15.7527C17.3317 15.7383 17.2949 15.724 17.2581 15.7076L16.5847 15.6687L15.8458 15.3474L15.2748 14.5205L14.8265 14.1623L14.0385 14.0641C14.0304 14.0477 13.312 13.3539 13.1052 13.2372C12.7471 13.0325 12.3479 12.8627 11.9775 12.6805C11.2611 12.3305 11.1915 11.4463 10.9951 10.7689C11.4167 10.8753 12.0389 11.0308 12.0594 11.0431C12.0921 11.0615 12.8248 12.0215 12.8699 12.1013C12.9149 12.1831 13.3468 12.5884 13.4225 12.703C13.4859 12.7972 13.9383 13.1206 14.0938 13.229C14.1368 13.229 14.1798 13.227 14.2207 13.2147C14.3087 13.1901 14.2432 13.1758 14.2043 13.1083C14.1716 13.0489 14.1429 12.9896 14.1143 12.9302L14.0692 12.9159L13.7131 12.4206L13.1973 12.0194L12.9395 11.565L13.5207 11.5241C13.5207 11.5241 13.7397 11.6223 13.9628 11.7247C14.0017 11.7144 14.0467 11.7206 14.0918 11.7472C14.2084 11.8168 14.3374 11.8823 14.4684 11.9334C14.5646 11.9294 14.6608 11.9334 14.757 11.9437C14.9698 11.9703 15.1765 12.0153 15.3894 12.0419C15.4058 12.0378 15.4221 12.0358 15.4385 12.0317L15.4487 12.0276C15.4713 11.9867 15.4917 11.9478 15.5122 11.9068C15.4447 11.8516 15.371 11.8086 15.2891 11.7697L15.2502 11.784C15.2502 11.784 15.2257 11.7738 15.1888 11.7574C15.1724 11.7554 15.154 11.7533 15.1356 11.7492C14.7672 11.6633 14.4806 11.4647 14.1798 11.2601C14.0938 11.2007 14.0017 11.1557 13.9157 11.1066C13.4921 10.9879 12.9681 11.1148 12.5485 10.9879C12.3807 10.9367 12.2763 10.8466 12.1944 10.7341C11.9652 10.6379 11.7257 10.5458 11.5231 10.4127C11.298 10.2654 11.1138 10.0771 10.8948 9.92356C10.8395 9.88262 10.7965 9.80689 10.8293 9.73935C10.8334 9.73116 10.8375 9.72093 10.8415 9.71274C10.8027 9.54491 10.8375 9.36275 10.862 9.19082C10.8702 9.12942 10.8804 9.06597 10.8907 9.00457C10.907 8.77534 10.9418 8.54201 10.9623 8.32301C11.0155 7.78472 11.2448 7.29555 11.517 6.8248C11.912 7.05404 12.3091 7.29555 12.7164 7.49817C13.0561 7.66805 13.2096 7.98325 13.5391 8.21249C13.5391 8.73031 13.6558 8.892 13.7172 9.23995C13.8073 9.74958 14.3456 9.72093 14.8081 9.88876C15.2604 10.0525 15.766 10.1282 16.2572 10.2224L16.6584 10.6461L16.9818 11.0984L16.7771 11.6633L16.4721 12.4267L16.3145 12.6273L15.1356 12.6314L14.9944 13.4071C15.0128 13.4194 15.0312 13.4317 15.0496 13.446L15.3034 13.272L15.3648 12.7706L16.3882 12.8299C16.3882 12.8299 16.3923 12.8258 16.3943 12.8258C16.4639 12.7747 16.5376 12.7255 16.6031 12.6682C16.6092 12.6621 16.6154 12.66 16.6215 12.6559L17.2274 11.3829L17.254 10.992L17.0411 10.4025C17.5917 10.5335 18.1484 10.642 18.701 10.7648C18.7419 10.7729 18.7788 10.773 18.8115 10.7689C18.8832 10.8466 18.9343 10.9531 18.9732 11.1127C19.0408 11.3972 19.0142 11.868 19.1738 12.1136C19.2864 12.2875 19.401 12.4021 19.62 12.4492C19.841 12.4983 19.9904 12.572 20.1235 12.6641L20.2565 13.2249L19.9024 13.5811L19.4051 14.0989L19.3457 14.9831L19.4174 15.1878C19.4419 15.1878 19.4644 15.1878 19.489 15.1878C19.5115 15.155 19.532 15.1243 19.5545 15.0916C19.5913 14.7907 19.5545 14.4816 19.6916 14.2012C19.7162 14.1521 19.7551 14.1235 19.8001 14.1112L20.453 13.6118C20.453 13.6118 20.5246 13.4276 20.5676 13.2741L21.1018 14.015L21.4047 14.7886C21.4273 14.8193 21.4416 14.8582 21.4395 14.9033C21.4395 14.9299 21.4293 14.9544 21.415 14.9749C21.4191 14.9892 21.4232 15.0035 21.4252 15.0179C21.4354 15.069 21.417 15.1182 21.3822 15.155C21.3904 15.3126 21.2963 15.4538 21.1673 15.5807C21.0998 15.7015 21.0138 15.8202 20.9156 15.9328C20.7825 16.1988 20.6188 16.4506 20.3691 16.6205C20.408 16.6512 20.4448 16.6819 20.4776 16.7167C20.5799 16.6266 20.6884 16.5447 20.7989 16.4629C20.9524 16.2254 21.1305 15.9553 21.155 15.9369C21.2021 15.9062 21.7936 14.979 21.7261 15.0117C21.6585 15.0424 21.3659 13.8164 21.3659 13.8164L20.9463 12.7071H20.9074C20.7784 12.3755 20.2238 12.0808 19.9311 11.9969C19.5729 11.8925 19.5627 11.2498 19.5033 10.8958L20.5267 10.8712L21.0834 11.0083L21.6483 10.9387L22.2398 10.687L22.5775 10.9019L22.8108 10.9653C22.8252 10.949 22.8436 10.9346 22.8702 10.9224C22.8948 10.9101 22.9214 10.8998 22.9459 10.8896L22.9255 10.8507L22.5448 10.6113L22.9418 10.4004C22.9418 10.4004 23.0421 10.3452 23.1465 10.3002C23.2775 10.2081 23.4269 10.1364 23.5886 10.1057C23.6664 10.0914 23.7442 10.0852 23.826 10.0812C23.8874 10.0382 23.9427 9.98905 24 9.93993L23.9754 9.85192L23.3369 9.81508L22.5673 10.0893L22.0433 10.4025L21.2963 10.6113C21.2963 10.6113 20.5615 10.3718 20.4551 10.3104C20.3486 10.249 19.3232 10.0852 19.3232 10.0852L18.9957 10.161C18.699 10.0116 18.3265 9.97063 18.0072 9.87648C17.5712 9.74549 17.1537 9.59198 16.7034 9.50807C16.3084 9.43643 15.9134 9.30954 15.5245 9.20925C15.3894 9.17445 15.195 9.1765 15.0578 9.16831C14.9125 9.16012 14.7426 9.1151 14.5768 9.07211C14.5809 8.91042 14.5871 8.7078 14.6423 8.60137L15.2236 8.75078C15.2604 8.72826 15.3075 8.72212 15.3628 8.74259C15.9809 8.97387 16.5437 8.61569 17.1291 8.47242L17.3727 8.39055L18.7235 8.60546C18.7235 8.60546 19.2434 9.50193 19.3519 9.57152C19.4112 9.60836 19.6057 9.57152 19.7714 9.52853C19.839 9.47532 19.9147 9.39959 20.0007 9.3914L19.9925 9.37503C19.9823 9.37094 19.97 9.3648 19.9577 9.3607C19.8861 9.31567 19.884 9.25837 19.8533 9.23381L19.706 9.27883C19.6916 9.28702 19.6773 9.29111 19.6609 9.29316L19.4317 9.3648C19.4317 9.3648 19.403 9.25018 19.3641 9.09872C19.356 9.09463 19.3457 9.09053 19.3375 9.08439C19.2065 9.00253 19.1922 8.77124 19.1022 8.66891C18.8954 8.43149 18.6908 8.29231 18.4411 8.22886H18.1996L17.9662 8.18792C17.9355 8.18792 17.9069 8.19202 17.8741 8.19407C17.8168 8.19816 17.7677 8.17974 17.7329 8.14699L17.1046 8.03851C17.1046 8.03851 15.9789 8.37622 15.9359 8.4233C15.7394 8.63002 14.8265 8.07945 14.7754 8.03033C13.928 7.20959 13.5678 6.48709 13.3222 6.09412L14.0447 6.07979L14.4131 6.21692C14.4397 6.21283 14.4684 6.21487 14.5011 6.22511C15.1233 6.45434 15.7987 6.39908 16.4394 6.53826C16.8753 6.57305 17.8618 6.61808 17.9376 6.61603C18.001 6.61603 18.4738 6.84117 18.7726 6.98854C18.8013 6.98035 18.834 6.9783 18.8688 6.98649C18.8954 6.99059 18.9241 6.99673 18.9507 7.00082C18.9753 6.93328 18.9978 6.86573 19.0039 6.80433C18.9937 6.78796 18.9835 6.77158 18.9753 6.75316C18.7972 6.48709 18.5229 6.33972 18.2118 6.24557C18.0481 6.24148 17.8905 6.20873 17.7329 6.18008L18.5332 6.02248C18.5332 6.02248 19.5463 5.96108 19.8308 6.09821C19.9823 6.17189 20.3036 6.31516 20.582 6.43387C20.7252 6.4482 20.8644 6.48095 21.0159 6.51779C21.0793 6.53416 21.0998 6.31926 21.1162 6.27013C21.1509 6.15756 21.2246 6.23125 21.0936 6.17394C21.0773 6.16575 21.0609 6.15757 21.0466 6.14938C20.8173 6.06546 20.5901 5.96926 20.3711 5.86897C20.2975 5.83623 20.2381 5.79529 20.1849 5.75027C20.0723 5.71956 19.97 5.69091 19.925 5.67863C19.8861 5.6684 19.7796 5.63565 19.6486 5.59676C19.4992 5.58243 19.3498 5.55378 19.2025 5.52308C18.8586 5.60699 18.5086 5.67249 18.1607 5.73798C17.9744 5.77278 17.8086 5.79325 17.6388 5.74208C17.1312 5.76255 16.6338 5.84441 16.1446 5.95698C15.9522 5.92424 15.7599 5.89149 15.5675 5.8567C15.4856 5.87921 15.4037 5.89354 15.3178 5.88535C15.0803 5.86283 14.8736 5.78506 14.6751 5.68886L14.4827 5.64179L14.2514 5.46372C14.233 5.45349 14.2166 5.4453 14.1982 5.43507C14.1675 5.41869 14.147 5.39618 14.1347 5.37367L13.6926 5.03186C13.6926 5.03186 13.1278 4.64912 12.6959 4.37281C12.6754 4.23978 12.6529 4.10878 12.6181 3.97984C12.6263 3.87955 12.6345 3.77926 12.6427 3.68306C12.6693 3.27781 12.6222 0.82173 12.6058 0.416477C12.6058 0.416477 10.3544 0.254786 10.3503 0.369402C10.3462 0.48402 10.3606 0.553608 10.3933 0.664131C10.4649 0.903599 10.4547 3.16524 10.4056 3.41085C10.381 3.53365 10.3421 3.65236 10.2951 3.76903C9.64421 4.10469 8.12758 4.93567 8.12758 4.93567C8.12758 4.93567 7.46239 5.83623 7.34777 5.89149C7.23316 5.94675 6.06447 6.69176 6.06447 6.69176L5.45864 6.40522L4.34726 6.25581L3.65547 5.91196C3.37097 5.85055 3.12741 5.70728 3.03735 5.42483C2.96367 5.19765 2.90227 4.96637 2.82449 4.74327L2.17363 4.27457C2.17363 4.27457 1.41634 4.35644 1.27921 4.40965C1.23418 4.42807 1.16255 4.43012 1.08682 4.42603C1.0336 4.45264 0.97834 4.4772 0.925125 4.50176C0.921032 4.50585 0.916937 4.50994 0.912844 4.51404C0.953779 4.54883 0.996759 4.57953 1.03769 4.61637L2.1634 4.46082L2.49088 4.95818H2.45199L1.533 4.98683L0.869864 5.21402L0.45233 5.38185C0.352039 5.43302 0.251749 5.48214 0.155554 5.53945C0.104385 5.59062 0.0511684 5.63769 0 5.68682C0.0491219 5.71752 0.0941505 5.75027 0.130991 5.79734L0.147366 5.81576Z" fill="#1B1B1B"/>
<ellipse cx="11.473" cy="7.97404" rx="0.946614" ry="1.15129" fill="#1B1B1B"/>
<ellipse cx="11.0308" cy="9.76481" rx="0.946614" ry="1.15129" fill="#1B1B1B"/>
<ellipse cx="9.13753" cy="6.11662" rx="0.946614" ry="1.15129" fill="#1B1B1B"/>
<ellipse cx="7.70492" cy="9.12541" rx="0.946614" ry="1.15129" fill="#1B1B1B"/>
<ellipse cx="13.8082" cy="6.56682" rx="0.946614" ry="1.15129" fill="#1B1B1B"/>
<ellipse cx="15.241" cy="8.86955" rx="0.946614" ry="1.15129" fill="#1B1B1B"/>
<ellipse cx="15.1613" cy="7.36516" rx="1.02651" ry="1.24846" fill="#1B1B1B"/>
<ellipse cx="12.1613" cy="8.36516" rx="1.02651" ry="1.24846" fill="#1B1B1B"/>
<ellipse cx="9.16127" cy="7.36516" rx="1.02651" ry="1.24846" fill="#1B1B1B"/>
<ellipse cx="9.16127" cy="8.9196" rx="1.02651" ry="1.24846" fill="#1B1B1B"/>
<ellipse cx="11.1613" cy="11.3652" rx="1.02651" ry="1.24846" fill="#1B1B1B"/>
<ellipse cx="16.4602" cy="10.4628" rx="1.02651" ry="1.24846" transform="rotate(-29.7279 16.4602 10.4628)" fill="#1B1B1B"/>
<ellipse cx="20.4114" cy="11.5117" rx="1.02651" ry="1.24846" transform="rotate(-28.5907 20.4114 11.5117)" fill="#1B1B1B"/>
<ellipse cx="8.0979" cy="6.98447" rx="1.3396" ry="1.62924" fill="#1B1B1B"/>
</svg>
