<svg width="85" height="25" viewBox="0 0 85 25" fill="none" xmlns="http://www.w3.org/2000/svg">
<path d="M36.2163 8.14893C37.6262 8.14904 38.8911 8.71654 39.8071 9.64697C39.8346 9.67493 39.8347 9.7197 39.8071 9.74756L38.6313 10.9233C38.6179 10.9367 38.5995 10.9448 38.5806 10.9448C38.5618 10.9447 38.5441 10.9366 38.5308 10.9233C37.9419 10.3345 37.114 9.96935 36.2163 9.96924C35.3086 9.96924 34.4918 10.2866 33.9028 10.8687C33.3144 11.4503 32.9478 12.3019 32.9478 13.3813C32.9478 14.5918 33.3158 15.4419 33.9019 15.9897C34.4889 16.5383 35.3046 16.7925 36.2163 16.7925C37.189 16.7924 38.0505 16.3794 38.6528 15.7036V14.356H37.0474C37.0079 14.356 36.9763 14.324 36.9761 14.2847V12.6929C36.9762 12.6534 37.0079 12.6216 37.0474 12.6216H40.4019C40.4411 12.6218 40.473 12.6536 40.4731 12.6929V18.4409C40.4731 18.4803 40.4412 18.5129 40.4019 18.5132H38.939C38.9021 18.513 38.8711 18.4845 38.8677 18.4478L38.7944 17.6431C37.9945 18.3449 37.1538 18.6128 36.0005 18.6128C34.6365 18.6127 33.4171 18.1374 32.5386 17.2427C31.6598 16.3475 31.1275 15.0382 31.1274 13.3813C31.1274 10.361 33.4096 8.14893 36.2163 8.14893ZM26.3599 8.00635C26.3894 8.00633 26.4165 8.02381 26.4272 8.05127L30.4399 18.3716C30.4485 18.3936 30.4465 18.4194 30.4331 18.439C30.4197 18.4584 30.3971 18.4692 30.3735 18.4692H28.5679C28.5382 18.4692 28.5111 18.4511 28.5005 18.4233L28.0737 17.3091H24.647L24.2339 18.4233C24.2234 18.4512 24.1963 18.4692 24.1665 18.4692H22.3608C22.3372 18.4692 22.3146 18.4584 22.3013 18.439C22.288 18.4195 22.286 18.3946 22.2944 18.3726L26.2935 8.05127L26.3198 8.01807C26.3314 8.01028 26.3453 8.00637 26.3599 8.00635ZM49.2808 8.29248C49.3202 8.2927 49.3521 8.3253 49.3521 8.36475V10.0415C49.352 10.0809 49.3201 10.1126 49.2808 10.1128H44.3354V12.478H48.4351C48.4744 12.4783 48.5063 12.5108 48.5063 12.5503V14.2124C48.5063 14.2518 48.4745 14.2844 48.4351 14.2847H44.3354V16.6489H49.2808C49.3202 16.6491 49.3521 16.6817 49.3521 16.7212V18.3979C49.3521 18.4374 49.3202 18.469 49.2808 18.4692H42.5864C42.5468 18.4692 42.5151 18.4375 42.5151 18.3979V8.36475C42.5151 8.32516 42.5468 8.29248 42.5864 8.29248H49.2808ZM52.6899 8.29248C52.7295 8.29248 52.7622 8.32516 52.7622 8.36475V16.6489H56.4028C56.4424 16.649 56.4741 16.6816 56.4741 16.7212V18.3979C56.4741 18.4375 56.4424 18.4692 56.4028 18.4692H51.0132C50.9736 18.4692 50.9419 18.4375 50.9419 18.3979V8.36475C50.9419 8.32516 50.9736 8.29248 51.0132 8.29248H52.6899ZM61.061 8.00635C61.0904 8.0064 61.1166 8.024 61.1274 8.05127L65.1411 18.3716C65.1497 18.3936 65.1467 18.4194 65.1333 18.439C65.12 18.4581 65.0981 18.4691 65.0747 18.4692H63.2681C63.2385 18.4691 63.2122 18.451 63.2017 18.4233L62.7749 17.3091H59.3472L58.9351 18.4233C58.9246 18.4513 58.8975 18.4692 58.8677 18.4692H57.062C57.0385 18.4692 57.0158 18.4583 57.0024 18.439C56.9892 18.4196 56.9863 18.3945 56.9946 18.3726L60.9937 8.05127L61.02 8.01807C61.0317 8.01006 61.0462 8.00636 61.061 8.00635ZM69.5659 8.29248C69.5726 8.29258 69.5827 8.29309 69.5952 8.29346C69.6205 8.2942 69.6572 8.29545 69.7036 8.29834C69.797 8.30415 69.9299 8.3162 70.0894 8.33936C70.4079 8.38563 70.8343 8.47847 71.2612 8.66455C71.6879 8.85062 72.1182 9.13097 72.4419 9.5542C72.7665 9.97867 72.981 10.5428 72.981 11.2886C72.9809 12.1958 72.6658 12.8343 72.2222 13.2798C71.8071 13.6966 71.2827 13.939 70.811 14.0815L73.4858 18.3599C73.4996 18.382 73.5004 18.4103 73.4878 18.4331C73.4751 18.4557 73.4512 18.4692 73.4253 18.4692H71.4614C71.4368 18.4692 71.414 18.4569 71.4009 18.436L68.813 14.2847H67.9644V18.3979C67.9644 18.4375 67.9317 18.4692 67.8921 18.4692H66.2153C66.1758 18.4692 66.144 18.4375 66.144 18.3979V12.5503C66.144 12.5107 66.1758 12.478 66.2153 12.478H67.6753L66.1548 10.0796C66.1476 10.0682 66.1441 10.055 66.144 10.0415V8.36475C66.144 8.32516 66.1758 8.29248 66.2153 8.29248H69.5659ZM59.9438 15.7173H62.1782L61.061 12.522L59.9438 15.7173ZM25.2427 15.7173H27.4771L26.3599 12.522L25.2427 15.7173ZM69.8052 12.4575C70.0247 12.4326 70.353 12.3687 70.6313 12.2046C70.9243 12.0318 71.1606 11.7523 71.1606 11.2886C71.1606 10.9947 71.062 10.778 70.9165 10.6157C70.7696 10.4519 70.5717 10.3397 70.3687 10.2642C70.1659 10.1888 69.9619 10.1514 69.8081 10.1323C69.7316 10.1228 69.6679 10.1181 69.6235 10.1157C69.6013 10.1145 69.5834 10.1141 69.5718 10.1138C69.5662 10.1136 69.5619 10.1128 69.5591 10.1128H68.3364L69.8052 12.4575Z" fill="url(#paint0_linear_55_149)" stroke="url(#paint1_linear_55_149)" stroke-width="0.143339" stroke-linejoin="round"/>
<path d="M36.2163 8.20264C37.6115 8.20275 38.8628 8.76446 39.769 9.68506C39.7759 9.69208 39.776 9.70352 39.769 9.71045L38.5933 10.8853C38.5899 10.8885 38.5853 10.8911 38.5806 10.8911C38.576 10.891 38.5711 10.8885 38.5679 10.8853C37.9692 10.2868 37.1285 9.91564 36.2163 9.91553C35.296 9.91553 34.4649 10.2366 33.8647 10.8296C33.2647 11.4225 32.894 12.2891 32.894 13.3813C32.8941 14.603 33.2654 15.4686 33.8647 16.0288C34.4644 16.5893 35.2949 16.8462 36.2163 16.8462C37.2121 16.8461 38.0937 16.42 38.7065 15.7241V14.3022H37.0474C37.0376 14.3022 37.03 14.2943 37.0298 14.2847V12.6929C37.0299 12.6831 37.0376 12.6753 37.0474 12.6753H40.4019C40.4114 12.6755 40.4193 12.6833 40.4194 12.6929V18.4409C40.4194 18.4507 40.4115 18.4582 40.4019 18.4585H38.939C38.9299 18.4583 38.9223 18.4519 38.9214 18.4429L38.8384 17.5317C38.0257 18.2767 37.1812 18.5591 36.0005 18.5591C34.649 18.559 33.4439 18.0881 32.5767 17.2046C31.7093 16.321 31.1812 15.0264 31.1812 13.3813C31.1812 10.3902 33.4398 8.20264 36.2163 8.20264ZM26.3765 8.0708L30.3901 18.3911C30.3922 18.3965 30.3914 18.4029 30.3882 18.4077C30.3849 18.4126 30.3794 18.4155 30.3735 18.4155H28.5679C28.5605 18.4155 28.553 18.4116 28.5503 18.4048L28.1108 17.2554H24.6099L24.1841 18.4038C24.1815 18.4108 24.174 18.4155 24.1665 18.4155H22.3608C22.3549 18.4155 22.3495 18.4126 22.3462 18.4077C22.343 18.4029 22.3421 18.3965 22.3442 18.3911L26.3433 8.0708L26.3599 8.06006C26.3671 8.06005 26.3737 8.06412 26.3765 8.0708ZM49.2808 8.34619C49.2905 8.34641 49.2983 8.35499 49.2983 8.36475V10.0415C49.2983 10.0512 49.2904 10.0589 49.2808 10.0591H44.2817V12.5317H48.4351C48.4448 12.532 48.4526 12.5405 48.4526 12.5503V14.2124C48.4526 14.2222 48.4448 14.2298 48.4351 14.23H44.2817V16.7026H49.2808C49.2905 16.7029 49.2983 16.7114 49.2983 16.7212V18.3979C49.2983 18.4077 49.2905 18.4153 49.2808 18.4155H42.5864C42.5765 18.4155 42.5688 18.4078 42.5688 18.3979V8.36475C42.5688 8.35485 42.5765 8.34619 42.5864 8.34619H49.2808ZM52.6899 8.34619C52.6998 8.34619 52.7085 8.35485 52.7085 8.36475V16.7026H56.4028C56.4127 16.7027 56.4204 16.7113 56.4204 16.7212V18.3979C56.4204 18.4078 56.4127 18.4155 56.4028 18.4155H51.0132C51.0033 18.4155 50.9956 18.4078 50.9956 18.3979V8.36475C50.9956 8.35485 51.0033 8.34619 51.0132 8.34619H52.6899ZM61.0776 8.0708L65.0913 18.3911C65.0934 18.3965 65.0925 18.4029 65.0894 18.4077C65.0861 18.4125 65.0805 18.4154 65.0747 18.4155H63.2681C63.2608 18.4154 63.2542 18.4115 63.2515 18.4048L62.812 17.2554H59.311L58.8843 18.4038C58.8817 18.4108 58.8752 18.4155 58.8677 18.4155H57.062C57.0561 18.4155 57.0507 18.4126 57.0474 18.4077C57.0441 18.4029 57.0433 18.3966 57.0454 18.3911L61.0444 8.0708L61.061 8.06006C61.0683 8.06011 61.0749 8.06411 61.0776 8.0708ZM69.5649 8.34619C69.5714 8.34628 69.5809 8.34681 69.5933 8.34717C69.618 8.34789 69.6546 8.34918 69.7007 8.35205C69.7928 8.35779 69.9241 8.36922 70.0815 8.39209C70.397 8.43793 70.8186 8.52979 71.2397 8.71338C71.6608 8.89697 72.0822 9.17324 72.3989 9.5874C72.7159 10.0019 72.9272 10.5539 72.9272 11.2886C72.9272 12.1818 72.6174 12.8065 72.1841 13.2417C71.7578 13.6698 71.2125 13.9124 70.729 14.0503L73.4399 18.3882C73.4434 18.3937 73.4441 18.401 73.4409 18.4067C73.4378 18.4124 73.4318 18.4155 73.4253 18.4155H71.4614C71.4553 18.4155 71.4491 18.4129 71.4458 18.4077L68.8423 14.23H67.9106V18.3979C67.9106 18.4078 67.902 18.4155 67.8921 18.4155H66.2153C66.2054 18.4155 66.1978 18.4078 66.1978 18.3979V12.5503C66.1978 12.5404 66.2054 12.5317 66.2153 12.5317H67.7739L66.1997 10.0513L66.1938 10.0415H66.1978V8.36475C66.1978 8.35485 66.2054 8.34619 66.2153 8.34619H69.5649ZM59.8687 15.771H62.2534L61.061 12.3589L59.8687 15.771ZM25.1675 15.771H27.5522L26.3599 12.3589L25.1675 15.771ZM69.7788 12.5161C70.0008 12.4937 70.3568 12.4294 70.6587 12.2515C70.9644 12.0712 71.2143 11.7753 71.2144 11.2886C71.2144 10.9813 71.1108 10.7517 70.9565 10.5796C70.8019 10.4071 70.5952 10.2917 70.3872 10.2144C70.1793 10.1371 69.9713 10.098 69.8149 10.0786C69.737 10.069 69.672 10.0644 69.6265 10.062C69.6039 10.0608 69.5859 10.0604 69.5737 10.0601C69.5679 10.0599 69.5632 10.0591 69.5601 10.0591H68.2407L69.7788 12.5161Z" fill="url(#paint2_linear_55_149)" stroke="url(#paint3_linear_55_149)" stroke-width="0.0358347" stroke-linejoin="round"/>
<mask id="path-3-outside-1_55_149" maskUnits="userSpaceOnUse" x="21.2175" y="6.93457" width="53" height="12" fill="black">
<rect fill="white" x="21.2175" y="6.93457" width="53" height="12"/>
<path fill-rule="evenodd" clip-rule="evenodd" d="M28.5674 18.5417C28.508 18.5417 28.4548 18.505 28.4336 18.4495L28.0245 17.3806H24.6967L24.3014 18.4481C24.2805 18.5043 24.2269 18.5417 24.1669 18.5417H22.3609C22.3136 18.5417 22.2693 18.5183 22.2426 18.4793C22.2159 18.4403 22.2101 18.3906 22.2272 18.3465L26.2264 8.02612C26.2477 7.97097 26.3008 7.93461 26.3599 7.93457C26.4191 7.93453 26.4722 7.97083 26.4936 8.02596L30.5071 18.3464C30.5243 18.3905 30.5185 18.4402 30.4918 18.4792C30.4651 18.5183 30.4208 18.5417 30.3735 18.5417H28.5674ZM24.597 17.2373H28.1231L28.5674 18.3983H30.3735L26.36 8.07791L22.3609 18.3983H24.1669L24.597 17.2373ZM26.36 12.3064L25.1416 15.7895H27.5784L26.36 12.3064ZM26.36 12.7405L25.3436 15.6462H27.3764L26.36 12.7405ZM36.9039 12.6934C36.9039 12.6143 36.9681 12.5501 37.0473 12.5501H40.4014C40.4806 12.5501 40.5448 12.6143 40.5448 12.6934V18.4413C40.5448 18.5205 40.4806 18.5847 40.4014 18.5847H38.9394C38.8652 18.5847 38.8033 18.5281 38.7966 18.4543L38.7361 17.7888C37.9524 18.4362 37.1181 18.685 36.0009 18.685C34.6197 18.685 33.3808 18.2032 32.4872 17.2929C31.5932 16.3823 31.0557 15.0541 31.0557 13.3815C31.0557 10.3222 33.369 8.07791 36.2159 8.07791C37.6458 8.07791 38.9294 8.65314 39.8585 9.59708C39.9138 9.65319 39.9134 9.74333 39.8577 9.79899L38.6824 10.9744C38.6264 11.0304 38.5356 11.0304 38.4797 10.9744C37.9038 10.3986 37.0943 10.0417 36.2159 10.0417C35.325 10.0417 34.5276 10.352 33.9534 10.9194C33.3799 11.4861 33.0195 12.3187 33.0195 13.3815C33.0195 14.5771 33.3821 15.4062 33.9505 15.9375C34.5207 16.4705 35.3168 16.7212 36.2159 16.7212C37.1577 16.7212 37.9927 16.3262 38.581 15.6776V14.4278H37.0473C36.9681 14.4278 36.9039 14.3636 36.9039 14.2845V12.6934ZM38.7244 15.7322C38.108 16.4346 37.2193 16.8646 36.2159 16.8646C34.3668 16.8646 32.8761 15.8325 32.8761 13.3815C32.8761 11.1884 34.3668 9.89831 36.2159 9.89831C37.133 9.89831 37.9785 10.2708 38.5805 10.8725C38.5806 10.8726 38.5808 10.8728 38.581 10.873L39.7564 9.69768C39.7563 9.69767 39.7564 9.69769 39.7564 9.69768C39.738 9.67899 39.7194 9.66037 39.7007 9.64198C39.6854 9.62686 39.6699 9.61185 39.6544 9.59694C38.7605 8.73952 37.5547 8.22125 36.2159 8.22125C33.4495 8.22125 31.1991 10.4 31.1991 13.3815C31.1991 16.6639 33.3061 18.5417 36.0009 18.5417C37.1262 18.5417 37.9437 18.2852 38.7203 17.6146C38.7648 17.5762 38.8091 17.5364 38.8534 17.4953L38.9394 18.4413H40.4014V12.6934H37.0473V14.2845H38.7244V15.7322ZM49.4237 10.0417C49.4237 10.1208 49.3595 10.185 49.2804 10.185H44.4068V12.4067H48.4347C48.5138 12.4067 48.578 12.4709 48.578 12.5501V14.2128C48.578 14.292 48.5138 14.3562 48.4347 14.3562H44.4068V16.5779H49.2804C49.3595 16.5779 49.4237 16.6421 49.4237 16.7212V18.3983C49.4237 18.4775 49.3595 18.5417 49.2804 18.5417H42.5864C42.5073 18.5417 42.4431 18.4775 42.4431 18.3983V8.36459C42.4431 8.28542 42.5073 8.22125 42.5864 8.22125H49.2804C49.3595 8.22125 49.4237 8.28542 49.4237 8.36459V10.0417ZM49.2804 16.7212V18.3983H42.5864V8.36459H49.2804V10.0417H44.2635V12.5501H48.4347V14.2128H44.2635V16.7212H49.2804ZM56.4027 16.7212V18.3983H51.0132V8.36459H52.6903V16.7212H56.4027ZM52.8336 16.5779H56.4027C56.4819 16.5779 56.5461 16.6421 56.5461 16.7212V18.3983C56.5461 18.4775 56.4819 18.5417 56.4027 18.5417H51.0132C50.934 18.5417 50.8699 18.4775 50.8699 18.3983V8.36459C50.8699 8.28542 50.934 8.22125 51.0132 8.22125H52.6903C52.7694 8.22125 52.8336 8.28542 52.8336 8.36459V16.5779ZM63.2683 18.5417C63.209 18.5417 63.1557 18.505 63.1345 18.4495L62.7254 17.3806H59.3976L59.0023 18.4481C58.9814 18.5043 58.9278 18.5417 58.8678 18.5417H57.0618C57.0145 18.5417 56.9702 18.5183 56.9435 18.4793C56.9168 18.4403 56.911 18.3906 56.9281 18.3465L60.9273 8.02612C60.9486 7.97097 61.0017 7.93461 61.0608 7.93457C61.12 7.93453 61.1731 7.97083 61.1945 8.02596L65.208 18.3464C65.2252 18.3905 65.2194 18.4402 65.1927 18.4792C65.166 18.5183 65.1217 18.5417 65.0744 18.5417H63.2683ZM59.2979 17.2373H62.824L63.2683 18.3983H65.0744L61.0609 8.07791L57.0618 18.3983H58.8678L59.2979 17.2373ZM61.0609 12.3064L59.8425 15.7895H62.2793L61.0609 12.3064ZM61.0609 12.7405L60.0445 15.6462H62.0773L61.0609 12.7405ZM73.5506 18.4678C73.5254 18.5134 73.4774 18.5417 73.4253 18.5417H71.4615C71.412 18.5417 71.366 18.5161 71.3399 18.4741L68.7732 14.3562H68.0357V18.3983C68.0357 18.4775 67.9715 18.5417 67.8924 18.5417H66.2153C66.1361 18.5417 66.072 18.4775 66.072 18.3983V12.5501C66.072 12.4709 66.1361 12.4067 66.2153 12.4067H67.5457L66.0943 10.1184C66.0797 10.0955 66.072 10.0688 66.072 10.0417V8.36459C66.072 8.28542 66.1361 8.22125 66.2153 8.22125H69.5551V8.36459H66.2153V10.0417L67.8064 12.5501H66.2153V18.3983H67.8924V14.2128H68.8527L71.4615 18.3983H73.4253L70.7018 14.0408C70.7488 14.0277 70.7963 14.0136 70.8443 13.9984C71.7924 13.6983 72.9092 12.9805 72.9092 11.2887C72.9092 8.36459 69.5551 8.36459 69.5551 8.36459C69.5551 8.22125 69.5552 8.22125 69.5553 8.22125L69.5555 8.22125L69.5562 8.22125L69.5585 8.22126L69.5667 8.22135C69.5738 8.22145 69.5839 8.22164 69.5969 8.22202C69.623 8.22278 69.6606 8.22428 69.7081 8.22724C69.8032 8.23315 69.9381 8.24494 70.0998 8.26843C70.4224 8.3153 70.8549 8.4093 71.2894 8.5987C71.724 8.78813 72.1657 9.0753 72.499 9.51113C72.8338 9.94887 73.0526 10.5282 73.0526 11.2887C73.0526 12.2145 72.7299 12.8711 72.2726 13.3303C71.8731 13.7315 71.3775 13.9756 70.9227 14.1238L73.5468 18.3223C73.5744 18.3665 73.5759 18.4222 73.5506 18.4678ZM69.5551 10.0417H68.2077L69.7701 12.5358C70.2145 12.4927 71.2322 12.2777 71.2322 11.2887C71.2322 10.0417 69.5551 10.0417 69.5551 10.0417ZM69.8436 12.3831C70.0559 12.355 70.3474 12.2895 70.595 12.1435C70.8712 11.9807 71.0888 11.7219 71.0888 11.2887C71.0888 11.0125 70.9972 10.8127 70.8634 10.6634C70.7269 10.5111 70.5402 10.405 70.3437 10.3319C70.1478 10.2591 69.9499 10.222 69.7995 10.2034C69.7247 10.1941 69.6626 10.1895 69.6196 10.1872C69.5981 10.1861 69.5814 10.1855 69.5704 10.1853C69.5649 10.1851 69.5608 10.1851 69.5582 10.185L69.5555 10.185L69.5551 10.185H68.4667L69.8436 12.3831Z"/>
</mask>
<path fill-rule="evenodd" clip-rule="evenodd" d="M28.5674 18.5417C28.508 18.5417 28.4548 18.505 28.4336 18.4495L28.0245 17.3806H24.6967L24.3014 18.4481C24.2805 18.5043 24.2269 18.5417 24.1669 18.5417H22.3609C22.3136 18.5417 22.2693 18.5183 22.2426 18.4793C22.2159 18.4403 22.2101 18.3906 22.2272 18.3465L26.2264 8.02612C26.2477 7.97097 26.3008 7.93461 26.3599 7.93457C26.4191 7.93453 26.4722 7.97083 26.4936 8.02596L30.5071 18.3464C30.5243 18.3905 30.5185 18.4402 30.4918 18.4792C30.4651 18.5183 30.4208 18.5417 30.3735 18.5417H28.5674ZM24.597 17.2373H28.1231L28.5674 18.3983H30.3735L26.36 8.07791L22.3609 18.3983H24.1669L24.597 17.2373ZM26.36 12.3064L25.1416 15.7895H27.5784L26.36 12.3064ZM26.36 12.7405L25.3436 15.6462H27.3764L26.36 12.7405ZM36.9039 12.6934C36.9039 12.6143 36.9681 12.5501 37.0473 12.5501H40.4014C40.4806 12.5501 40.5448 12.6143 40.5448 12.6934V18.4413C40.5448 18.5205 40.4806 18.5847 40.4014 18.5847H38.9394C38.8652 18.5847 38.8033 18.5281 38.7966 18.4543L38.7361 17.7888C37.9524 18.4362 37.1181 18.685 36.0009 18.685C34.6197 18.685 33.3808 18.2032 32.4872 17.2929C31.5932 16.3823 31.0557 15.0541 31.0557 13.3815C31.0557 10.3222 33.369 8.07791 36.2159 8.07791C37.6458 8.07791 38.9294 8.65314 39.8585 9.59708C39.9138 9.65319 39.9134 9.74333 39.8577 9.79899L38.6824 10.9744C38.6264 11.0304 38.5356 11.0304 38.4797 10.9744C37.9038 10.3986 37.0943 10.0417 36.2159 10.0417C35.325 10.0417 34.5276 10.352 33.9534 10.9194C33.3799 11.4861 33.0195 12.3187 33.0195 13.3815C33.0195 14.5771 33.3821 15.4062 33.9505 15.9375C34.5207 16.4705 35.3168 16.7212 36.2159 16.7212C37.1577 16.7212 37.9927 16.3262 38.581 15.6776V14.4278H37.0473C36.9681 14.4278 36.9039 14.3636 36.9039 14.2845V12.6934ZM38.7244 15.7322C38.108 16.4346 37.2193 16.8646 36.2159 16.8646C34.3668 16.8646 32.8761 15.8325 32.8761 13.3815C32.8761 11.1884 34.3668 9.89831 36.2159 9.89831C37.133 9.89831 37.9785 10.2708 38.5805 10.8725C38.5806 10.8726 38.5808 10.8728 38.581 10.873L39.7564 9.69768C39.7563 9.69767 39.7564 9.69769 39.7564 9.69768C39.738 9.67899 39.7194 9.66037 39.7007 9.64198C39.6854 9.62686 39.6699 9.61185 39.6544 9.59694C38.7605 8.73952 37.5547 8.22125 36.2159 8.22125C33.4495 8.22125 31.1991 10.4 31.1991 13.3815C31.1991 16.6639 33.3061 18.5417 36.0009 18.5417C37.1262 18.5417 37.9437 18.2852 38.7203 17.6146C38.7648 17.5762 38.8091 17.5364 38.8534 17.4953L38.9394 18.4413H40.4014V12.6934H37.0473V14.2845H38.7244V15.7322ZM49.4237 10.0417C49.4237 10.1208 49.3595 10.185 49.2804 10.185H44.4068V12.4067H48.4347C48.5138 12.4067 48.578 12.4709 48.578 12.5501V14.2128C48.578 14.292 48.5138 14.3562 48.4347 14.3562H44.4068V16.5779H49.2804C49.3595 16.5779 49.4237 16.6421 49.4237 16.7212V18.3983C49.4237 18.4775 49.3595 18.5417 49.2804 18.5417H42.5864C42.5073 18.5417 42.4431 18.4775 42.4431 18.3983V8.36459C42.4431 8.28542 42.5073 8.22125 42.5864 8.22125H49.2804C49.3595 8.22125 49.4237 8.28542 49.4237 8.36459V10.0417ZM49.2804 16.7212V18.3983H42.5864V8.36459H49.2804V10.0417H44.2635V12.5501H48.4347V14.2128H44.2635V16.7212H49.2804ZM56.4027 16.7212V18.3983H51.0132V8.36459H52.6903V16.7212H56.4027ZM52.8336 16.5779H56.4027C56.4819 16.5779 56.5461 16.6421 56.5461 16.7212V18.3983C56.5461 18.4775 56.4819 18.5417 56.4027 18.5417H51.0132C50.934 18.5417 50.8699 18.4775 50.8699 18.3983V8.36459C50.8699 8.28542 50.934 8.22125 51.0132 8.22125H52.6903C52.7694 8.22125 52.8336 8.28542 52.8336 8.36459V16.5779ZM63.2683 18.5417C63.209 18.5417 63.1557 18.505 63.1345 18.4495L62.7254 17.3806H59.3976L59.0023 18.4481C58.9814 18.5043 58.9278 18.5417 58.8678 18.5417H57.0618C57.0145 18.5417 56.9702 18.5183 56.9435 18.4793C56.9168 18.4403 56.911 18.3906 56.9281 18.3465L60.9273 8.02612C60.9486 7.97097 61.0017 7.93461 61.0608 7.93457C61.12 7.93453 61.1731 7.97083 61.1945 8.02596L65.208 18.3464C65.2252 18.3905 65.2194 18.4402 65.1927 18.4792C65.166 18.5183 65.1217 18.5417 65.0744 18.5417H63.2683ZM59.2979 17.2373H62.824L63.2683 18.3983H65.0744L61.0609 8.07791L57.0618 18.3983H58.8678L59.2979 17.2373ZM61.0609 12.3064L59.8425 15.7895H62.2793L61.0609 12.3064ZM61.0609 12.7405L60.0445 15.6462H62.0773L61.0609 12.7405ZM73.5506 18.4678C73.5254 18.5134 73.4774 18.5417 73.4253 18.5417H71.4615C71.412 18.5417 71.366 18.5161 71.3399 18.4741L68.7732 14.3562H68.0357V18.3983C68.0357 18.4775 67.9715 18.5417 67.8924 18.5417H66.2153C66.1361 18.5417 66.072 18.4775 66.072 18.3983V12.5501C66.072 12.4709 66.1361 12.4067 66.2153 12.4067H67.5457L66.0943 10.1184C66.0797 10.0955 66.072 10.0688 66.072 10.0417V8.36459C66.072 8.28542 66.1361 8.22125 66.2153 8.22125H69.5551V8.36459H66.2153V10.0417L67.8064 12.5501H66.2153V18.3983H67.8924V14.2128H68.8527L71.4615 18.3983H73.4253L70.7018 14.0408C70.7488 14.0277 70.7963 14.0136 70.8443 13.9984C71.7924 13.6983 72.9092 12.9805 72.9092 11.2887C72.9092 8.36459 69.5551 8.36459 69.5551 8.36459C69.5551 8.22125 69.5552 8.22125 69.5553 8.22125L69.5555 8.22125L69.5562 8.22125L69.5585 8.22126L69.5667 8.22135C69.5738 8.22145 69.5839 8.22164 69.5969 8.22202C69.623 8.22278 69.6606 8.22428 69.7081 8.22724C69.8032 8.23315 69.9381 8.24494 70.0998 8.26843C70.4224 8.3153 70.8549 8.4093 71.2894 8.5987C71.724 8.78813 72.1657 9.0753 72.499 9.51113C72.8338 9.94887 73.0526 10.5282 73.0526 11.2887C73.0526 12.2145 72.7299 12.8711 72.2726 13.3303C71.8731 13.7315 71.3775 13.9756 70.9227 14.1238L73.5468 18.3223C73.5744 18.3665 73.5759 18.4222 73.5506 18.4678ZM69.5551 10.0417H68.2077L69.7701 12.5358C70.2145 12.4927 71.2322 12.2777 71.2322 11.2887C71.2322 10.0417 69.5551 10.0417 69.5551 10.0417ZM69.8436 12.3831C70.0559 12.355 70.3474 12.2895 70.595 12.1435C70.8712 11.9807 71.0888 11.7219 71.0888 11.2887C71.0888 11.0125 70.9972 10.8127 70.8634 10.6634C70.7269 10.5111 70.5402 10.405 70.3437 10.3319C70.1478 10.2591 69.9499 10.222 69.7995 10.2034C69.7247 10.1941 69.6626 10.1895 69.6196 10.1872C69.5981 10.1861 69.5814 10.1855 69.5704 10.1853C69.5649 10.1851 69.5608 10.1851 69.5582 10.185L69.5555 10.185L69.5551 10.185H68.4667L69.8436 12.3831Z" fill="url(#paint4_linear_55_149)"/>
<path d="M28.4336 18.4495L28.467 18.4367H28.467L28.4336 18.4495ZM28.0245 17.3806L28.0579 17.3678C28.0526 17.3539 28.0393 17.3448 28.0245 17.3448V17.3806ZM24.6967 17.3806V17.3448C24.6817 17.3448 24.6683 17.3541 24.6631 17.3682L24.6967 17.3806ZM24.3014 18.4481L24.2678 18.4357L24.3014 18.4481ZM22.2272 18.3465L22.2606 18.3595H22.2606L22.2272 18.3465ZM26.2264 8.02612L26.193 8.01317V8.01317L26.2264 8.02612ZM26.3599 7.93457L26.36 7.97041L26.3599 7.93457ZM26.4936 8.02596L26.4602 8.03894V8.03894L26.4936 8.02596ZM30.5071 18.3464L30.5405 18.3334L30.5071 18.3464ZM30.4918 18.4792L30.5214 18.4995V18.4995L30.4918 18.4792ZM24.597 17.2373V17.2014C24.582 17.2014 24.5686 17.2108 24.5634 17.2248L24.597 17.2373ZM28.1231 17.2373L28.1566 17.2245C28.1513 17.2106 28.1379 17.2014 28.1231 17.2014V17.2373ZM28.5674 18.3983L28.534 18.4111C28.5393 18.425 28.5526 18.4341 28.5674 18.4341V18.3983ZM30.3735 18.3983V18.4341C30.3853 18.4341 30.3964 18.4283 30.4031 18.4185C30.4098 18.4088 30.4112 18.3964 30.4069 18.3853L30.3735 18.3983ZM26.36 8.07791L26.3934 8.06492C26.3881 8.05114 26.3748 8.04207 26.36 8.04207C26.3452 8.04208 26.332 8.05117 26.3266 8.06496L26.36 8.07791ZM22.3609 18.3983L22.3275 18.3854C22.3232 18.3964 22.3246 18.4088 22.3313 18.4186C22.338 18.4283 22.349 18.4341 22.3609 18.4341V18.3983ZM24.1669 18.3983V18.4341C24.1819 18.4341 24.1953 18.4248 24.2005 18.4108L24.1669 18.3983ZM26.36 12.3064L26.3939 12.2946C26.3888 12.2802 26.3753 12.2706 26.36 12.2706C26.3448 12.2706 26.3312 12.2802 26.3262 12.2946L26.36 12.3064ZM25.1416 15.7895L25.1078 15.7777C25.104 15.7887 25.1057 15.8008 25.1124 15.8103C25.1191 15.8198 25.13 15.8254 25.1416 15.8254V15.7895ZM27.5784 15.7895V15.8254C27.59 15.8254 27.6009 15.8198 27.6076 15.8103C27.6144 15.8008 27.6161 15.7887 27.6122 15.7777L27.5784 15.7895ZM25.3436 15.6462L25.3098 15.6344C25.306 15.6453 25.3077 15.6575 25.3144 15.6669C25.3211 15.6764 25.332 15.682 25.3436 15.682V15.6462ZM26.36 12.7405L26.3939 12.7287C26.3888 12.7143 26.3753 12.7047 26.36 12.7047C26.3448 12.7047 26.3312 12.7143 26.3262 12.7287L26.36 12.7405ZM27.3764 15.6462V15.682C27.388 15.682 27.3989 15.6764 27.4056 15.6669C27.4124 15.6575 27.4141 15.6453 27.4102 15.6344L27.3764 15.6462ZM38.7966 18.4543L38.8323 18.451L38.7966 18.4543ZM38.7361 17.7888L38.7718 17.7856C38.7706 17.7724 38.7622 17.7609 38.7499 17.7558C38.7376 17.7507 38.7235 17.7528 38.7133 17.7612L38.7361 17.7888ZM32.4872 17.2929L32.5127 17.2678L32.4872 17.2929ZM39.8585 9.59708L39.833 9.62222L39.8585 9.59708ZM39.8577 9.79899L39.8324 9.77366L39.8577 9.79899ZM38.6824 10.9744L38.7077 10.9997V10.9997L38.6824 10.9744ZM38.4797 10.9744L38.4543 10.9997V10.9997L38.4797 10.9744ZM33.9534 10.9194L33.9786 10.9449L33.9534 10.9194ZM33.9505 15.9375L33.975 15.9113L33.9505 15.9375ZM38.581 15.6776L38.6076 15.7016C38.6135 15.6951 38.6168 15.6865 38.6168 15.6776H38.581ZM38.581 14.4278H38.6168C38.6168 14.408 38.6008 14.392 38.581 14.392V14.4278ZM38.7244 15.7322L38.7513 15.7558C38.757 15.7493 38.7602 15.7409 38.7602 15.7322H38.7244ZM38.5805 10.8725L38.5551 10.8978L38.5551 10.8978L38.5805 10.8725ZM38.581 10.873L38.5557 10.8984C38.5697 10.9124 38.5924 10.9123 38.6064 10.8984L38.581 10.873ZM39.7007 9.64198L39.6756 9.66751V9.66751L39.7007 9.64198ZM39.6544 9.59694L39.6296 9.6228V9.6228L39.6544 9.59694ZM38.7203 17.6146L38.6969 17.5875L38.7203 17.6146ZM38.8534 17.4953L38.889 17.492C38.8878 17.4784 38.8789 17.4667 38.8662 17.4618C38.8534 17.4569 38.839 17.4597 38.829 17.469L38.8534 17.4953ZM38.9394 18.4413L38.9037 18.4446C38.9054 18.463 38.9208 18.4771 38.9394 18.4771V18.4413ZM40.4014 18.4413V18.4771C40.4212 18.4771 40.4373 18.4611 40.4373 18.4413H40.4014ZM40.4014 12.6934H40.4373C40.4373 12.6736 40.4212 12.6576 40.4014 12.6576V12.6934ZM37.0473 12.6934V12.6576C37.0275 12.6576 37.0115 12.6736 37.0115 12.6934H37.0473ZM37.0473 14.2845H37.0115C37.0115 14.3043 37.0275 14.3203 37.0473 14.3203V14.2845ZM38.7244 14.2845H38.7602C38.7602 14.2647 38.7441 14.2487 38.7244 14.2487V14.2845ZM44.4068 10.185V10.1492C44.3871 10.1492 44.371 10.1652 44.371 10.185H44.4068ZM44.4068 12.4067H44.371C44.371 12.4265 44.3871 12.4426 44.4068 12.4426V12.4067ZM44.4068 14.3562V14.3203C44.3871 14.3203 44.371 14.3364 44.371 14.3562H44.4068ZM44.4068 16.5779H44.371C44.371 16.5977 44.3871 16.6137 44.4068 16.6137V16.5779ZM49.2804 16.7212H49.3162C49.3162 16.7015 49.3002 16.6854 49.2804 16.6854V16.7212ZM49.2804 18.3983V18.4341C49.3002 18.4341 49.3162 18.4181 49.3162 18.3983H49.2804ZM42.5864 18.3983H42.5506C42.5506 18.4181 42.5667 18.4341 42.5864 18.4341V18.3983ZM42.5864 8.36459V8.32875C42.5667 8.32875 42.5506 8.3448 42.5506 8.36459H42.5864ZM49.2804 8.36459H49.3162C49.3162 8.3448 49.3002 8.32875 49.2804 8.32875V8.36459ZM49.2804 10.0417V10.0775C49.3002 10.0775 49.3162 10.0614 49.3162 10.0417H49.2804ZM44.2635 10.0417V10.0058C44.2437 10.0058 44.2277 10.0219 44.2277 10.0417H44.2635ZM44.2635 12.5501H44.2277C44.2277 12.5699 44.2437 12.5859 44.2635 12.5859V12.5501ZM48.4347 12.5501H48.4705C48.4705 12.5303 48.4545 12.5142 48.4347 12.5142V12.5501ZM48.4347 14.2128V14.2487C48.4545 14.2487 48.4705 14.2326 48.4705 14.2128H48.4347ZM44.2635 14.2128V14.177C44.2437 14.177 44.2277 14.193 44.2277 14.2128H44.2635ZM44.2635 16.7212H44.2277C44.2277 16.741 44.2437 16.7571 44.2635 16.7571V16.7212ZM56.4027 16.7212H56.4386C56.4386 16.7015 56.4225 16.6854 56.4027 16.6854V16.7212ZM56.4027 18.3983V18.4341C56.4225 18.4341 56.4386 18.4181 56.4386 18.3983H56.4027ZM51.0132 18.3983H50.9774C50.9774 18.4181 50.9934 18.4341 51.0132 18.4341V18.3983ZM51.0132 8.36459V8.32875C50.9934 8.32875 50.9774 8.3448 50.9774 8.36459H51.0132ZM52.6903 8.36459H52.7261C52.7261 8.3448 52.7101 8.32875 52.6903 8.32875V8.36459ZM52.6903 16.7212H52.6544C52.6544 16.741 52.6705 16.7571 52.6903 16.7571V16.7212ZM52.8336 16.5779H52.7978C52.7978 16.5977 52.8138 16.6137 52.8336 16.6137V16.5779ZM63.1345 18.4495L63.101 18.4624L63.101 18.4624L63.1345 18.4495ZM62.7254 17.3806L62.7588 17.3678C62.7535 17.3539 62.7402 17.3448 62.7254 17.3448V17.3806ZM59.3976 17.3806V17.3448C59.3826 17.3448 59.3692 17.3541 59.364 17.3682L59.3976 17.3806ZM59.0023 18.4481L58.9687 18.4357L59.0023 18.4481ZM56.9281 18.3465L56.9615 18.3595V18.3595L56.9281 18.3465ZM60.9273 8.02612L60.9607 8.03907L60.9607 8.03906L60.9273 8.02612ZM61.0608 7.93457L61.0609 7.97041L61.0608 7.93457ZM61.1945 8.02596L61.2279 8.01297L61.2279 8.01297L61.1945 8.02596ZM65.208 18.3464L65.1746 18.3593V18.3593L65.208 18.3464ZM65.1927 18.4792L65.2223 18.4995L65.2223 18.4995L65.1927 18.4792ZM59.2979 17.2373V17.2014C59.2829 17.2014 59.2695 17.2108 59.2643 17.2248L59.2979 17.2373ZM62.824 17.2373L62.8575 17.2245C62.8522 17.2106 62.8388 17.2014 62.824 17.2014V17.2373ZM63.2683 18.3983L63.2349 18.4111C63.2402 18.425 63.2535 18.4341 63.2683 18.4341V18.3983ZM65.0744 18.3983V18.4341C65.0862 18.4341 65.0973 18.4283 65.104 18.4185C65.1107 18.4088 65.1121 18.3964 65.1078 18.3853L65.0744 18.3983ZM61.0609 8.07791L61.0943 8.06492C61.089 8.05114 61.0757 8.04207 61.0609 8.04207C61.0461 8.04208 61.0329 8.05117 61.0275 8.06496L61.0609 8.07791ZM57.0618 18.3983L57.0284 18.3854C57.0241 18.3964 57.0255 18.4088 57.0322 18.4186C57.0389 18.4283 57.0499 18.4341 57.0618 18.4341V18.3983ZM58.8678 18.3983V18.4341C58.8828 18.4341 58.8962 18.4248 58.9014 18.4108L58.8678 18.3983ZM61.0609 12.3064L61.0948 12.2946C61.0897 12.2802 61.0762 12.2706 61.0609 12.2706C61.0457 12.2706 61.0321 12.2802 61.0271 12.2946L61.0609 12.3064ZM59.8425 15.7895L59.8087 15.7777C59.8049 15.7887 59.8066 15.8008 59.8133 15.8103C59.82 15.8198 59.8309 15.8254 59.8425 15.8254V15.7895ZM62.2793 15.7895V15.8254C62.2909 15.8254 62.3018 15.8198 62.3085 15.8103C62.3153 15.8008 62.317 15.7887 62.3131 15.7777L62.2793 15.7895ZM60.0445 15.6462L60.0107 15.6344C60.0069 15.6453 60.0086 15.6575 60.0153 15.6669C60.022 15.6764 60.0329 15.682 60.0445 15.682V15.6462ZM61.0609 12.7405L61.0948 12.7287C61.0897 12.7143 61.0762 12.7047 61.0609 12.7047C61.0457 12.7047 61.0321 12.7143 61.0271 12.7287L61.0609 12.7405ZM62.0773 15.6462V15.682C62.0889 15.682 62.0998 15.6764 62.1065 15.6669C62.1133 15.6575 62.115 15.6453 62.1111 15.6344L62.0773 15.6462ZM73.5506 18.4678L73.582 18.4852V18.4852L73.5506 18.4678ZM71.3399 18.4741L71.3095 18.4931V18.4931L71.3399 18.4741ZM68.7732 14.3562L68.8036 14.3372C68.7971 14.3267 68.7856 14.3203 68.7732 14.3203V14.3562ZM68.0357 14.3562V14.3203C68.0159 14.3203 67.9999 14.3364 67.9999 14.3562H68.0357ZM67.5457 12.4067V12.4426C67.5588 12.4426 67.5708 12.4355 67.5771 12.424C67.5834 12.4126 67.583 12.3986 67.576 12.3876L67.5457 12.4067ZM66.0943 10.1184L66.064 10.1376V10.1376L66.0943 10.1184ZM69.5551 8.22125H69.5909C69.5909 8.20146 69.5749 8.18541 69.5551 8.18541V8.22125ZM66.2153 8.36459V8.32875C66.1955 8.32875 66.1795 8.3448 66.1795 8.36459H66.2153ZM66.2153 10.0417H66.1795C66.1795 10.0485 66.1814 10.0551 66.185 10.0608L66.2153 10.0417ZM67.8064 12.5501V12.5859C67.8194 12.5859 67.8315 12.5788 67.8378 12.5674C67.8441 12.5559 67.8436 12.5419 67.8366 12.5309L67.8064 12.5501ZM66.2153 12.5501V12.5142C66.1955 12.5142 66.1795 12.5303 66.1795 12.5501H66.2153ZM66.2153 18.3983H66.1795C66.1795 18.4181 66.1955 18.4341 66.2153 18.4341V18.3983ZM67.8924 18.3983V18.4341C67.9122 18.4341 67.9282 18.4181 67.9282 18.3983H67.8924ZM67.8924 14.2128V14.177C67.8726 14.177 67.8565 14.193 67.8565 14.2128H67.8924ZM68.8527 14.2128L68.8832 14.1939C68.8766 14.1834 68.8651 14.177 68.8527 14.177V14.2128ZM71.4615 18.3983L71.4311 18.4173C71.4376 18.4278 71.4491 18.4341 71.4615 18.4341V18.3983ZM73.4253 18.3983V18.4341C73.4383 18.4341 73.4503 18.4271 73.4566 18.4157C73.4629 18.4043 73.4625 18.3904 73.4556 18.3793L73.4253 18.3983ZM70.7018 14.0408L70.6922 14.0063C70.6813 14.0093 70.6725 14.0173 70.6684 14.0279C70.6643 14.0384 70.6654 14.0502 70.6714 14.0598L70.7018 14.0408ZM70.8443 13.9984L70.8335 13.9642L70.8443 13.9984ZM69.5553 8.22125L69.5553 8.18541L69.5553 8.18541L69.5553 8.22125ZM69.5555 8.22125L69.5556 8.18541L69.5555 8.18541L69.5555 8.22125ZM69.5562 8.22125L69.5564 8.18542L69.5563 8.18542L69.5562 8.22125ZM69.5585 8.22126L69.5589 8.18543L69.5587 8.18543L69.5585 8.22126ZM69.5667 8.22135L69.5672 8.18552L69.5671 8.18552L69.5667 8.22135ZM69.5969 8.22202L69.5959 8.25784L69.5969 8.22202ZM69.7081 8.22724L69.7059 8.263L69.7081 8.22724ZM70.0998 8.26843L70.0946 8.30389L70.0998 8.26843ZM71.2894 8.5987L71.2751 8.63155L71.2894 8.5987ZM72.499 9.51113L72.4706 9.53289V9.53289L72.499 9.51113ZM72.2726 13.3303L72.2472 13.305V13.305L72.2726 13.3303ZM70.9227 14.1238L70.9116 14.0897C70.9011 14.0931 70.8928 14.1012 70.889 14.1115C70.8852 14.1219 70.8865 14.1334 70.8923 14.1428L70.9227 14.1238ZM73.5468 18.3223L73.5772 18.3034V18.3034L73.5468 18.3223ZM69.5551 10.0417V10.0775V10.0417ZM68.2077 10.0417V10.0058C68.1947 10.0058 68.1827 10.0129 68.1764 10.0243C68.1701 10.0357 68.1704 10.0496 68.1773 10.0607L68.2077 10.0417ZM69.7701 12.5358L69.7397 12.5548C69.747 12.5663 69.76 12.5727 69.7736 12.5714L69.7701 12.5358ZM70.595 12.1435L70.5768 12.1126L70.595 12.1435ZM69.8436 12.3831L69.8132 12.4021C69.8207 12.414 69.8344 12.4204 69.8483 12.4186L69.8436 12.3831ZM70.8634 10.6634L70.8901 10.6395L70.8634 10.6634ZM70.3437 10.3319L70.3562 10.2983L70.3437 10.3319ZM69.7995 10.2034L69.7951 10.239L69.7995 10.2034ZM69.6196 10.1872L69.6177 10.223L69.6196 10.1872ZM69.5704 10.1853L69.5695 10.2211L69.5704 10.1853ZM69.5582 10.185L69.5586 10.1492L69.5585 10.1492L69.5582 10.185ZM69.5555 10.185L69.5558 10.1492L69.5557 10.1492L69.5555 10.185ZM69.5551 10.185L69.5553 10.1492H69.5551V10.185ZM68.4667 10.185V10.1492C68.4536 10.1492 68.4416 10.1562 68.4353 10.1676C68.429 10.179 68.4294 10.193 68.4363 10.204L68.4667 10.185ZM28.4001 18.4624C28.4266 18.5317 28.4932 18.5775 28.5674 18.5775V18.5058C28.5229 18.5058 28.483 18.4783 28.467 18.4367L28.4001 18.4624ZM27.991 17.3934L28.4001 18.4624L28.467 18.4367L28.0579 17.3678L27.991 17.3934ZM24.6967 17.4164H28.0245V17.3448H24.6967V17.4164ZM24.335 18.4605L24.7303 17.3931L24.6631 17.3682L24.2678 18.4357L24.335 18.4605ZM24.1669 18.5775C24.2419 18.5775 24.3089 18.5308 24.335 18.4605L24.2678 18.4357C24.2521 18.4778 24.2119 18.5058 24.1669 18.5058V18.5775ZM22.3609 18.5775H24.1669V18.5058H22.3609V18.5775ZM22.213 18.4996C22.2465 18.5483 22.3018 18.5775 22.3609 18.5775V18.5058C22.3254 18.5058 22.2922 18.4883 22.2722 18.4591L22.213 18.4996ZM22.1938 18.3336C22.1724 18.3887 22.1796 18.4508 22.213 18.4996L22.2722 18.4591C22.2521 18.4298 22.2478 18.3925 22.2606 18.3595L22.1938 18.3336ZM26.193 8.01317L22.1938 18.3336L22.2606 18.3595L26.2598 8.03907L26.193 8.01317ZM26.3599 7.89874C26.286 7.89878 26.2197 7.94423 26.193 8.01317L26.2598 8.03907C26.2758 7.9977 26.3156 7.97043 26.36 7.97041L26.3599 7.89874ZM26.527 8.01297C26.5002 7.94406 26.4339 7.89869 26.3599 7.89874L26.36 7.97041C26.4043 7.97038 26.4441 7.9976 26.4602 8.03894L26.527 8.01297ZM30.5405 18.3334L26.527 8.01297L26.4602 8.03894L30.4737 18.3593L30.5405 18.3334ZM30.5214 18.4995C30.5548 18.4507 30.5619 18.3885 30.5405 18.3334L30.4737 18.3593C30.4866 18.3924 30.4823 18.4297 30.4622 18.459L30.5214 18.4995ZM30.3735 18.5775C30.4327 18.5775 30.488 18.5483 30.5214 18.4995L30.4622 18.459C30.4422 18.4883 30.409 18.5058 30.3735 18.5058V18.5775ZM28.5674 18.5775H30.3735V18.5058H28.5674V18.5775ZM24.597 17.2731H28.1231V17.2014H24.597V17.2731ZM28.0896 17.2501L28.534 18.4111L28.6009 18.3855L28.1566 17.2245L28.0896 17.2501ZM24.2005 18.4108L24.6306 17.2497L24.5634 17.2248L24.1333 18.3859L24.2005 18.4108ZM25.3775 15.658L26.3939 12.7524L26.3262 12.7287L25.3098 15.6344L25.3775 15.658ZM27.3764 15.6104H25.3436V15.682H27.3764V15.6104ZM26.3262 12.7524L27.3426 15.658L27.4102 15.6344L26.3939 12.7287L26.3262 12.7524ZM37.0473 12.5142C36.9483 12.5142 36.8681 12.5945 36.8681 12.6934H36.9398C36.9398 12.6341 36.9879 12.5859 37.0473 12.5859V12.5142ZM40.4014 12.5142H37.0473V12.5859H40.4014V12.5142ZM40.5806 12.6934C40.5806 12.5945 40.5004 12.5142 40.4014 12.5142V12.5859C40.4608 12.5859 40.5089 12.6341 40.5089 12.6934H40.5806ZM40.5806 18.4413V12.6934H40.5089V18.4413H40.5806ZM40.4014 18.6205C40.5004 18.6205 40.5806 18.5403 40.5806 18.4413H40.5089C40.5089 18.5007 40.4608 18.5488 40.4014 18.5488V18.6205ZM38.9394 18.6205H40.4014V18.5488H38.9394V18.6205ZM38.7609 18.4575C38.7693 18.5498 38.8467 18.6205 38.9394 18.6205V18.5488C38.8838 18.5488 38.8373 18.5064 38.8323 18.451L38.7609 18.4575ZM38.7004 17.7921L38.7609 18.4575L38.8323 18.451L38.7718 17.7856L38.7004 17.7921ZM36.0009 18.7208C37.1246 18.7208 37.9675 18.4703 38.7589 17.8165L38.7133 17.7612C37.9373 18.4022 37.1117 18.6492 36.0009 18.6492V18.7208ZM32.4616 17.318C33.3627 18.236 34.6112 18.7208 36.0009 18.7208V18.6492C34.6281 18.6492 33.3989 18.1705 32.5127 17.2678L32.4616 17.318ZM31.0199 13.3815C31.0199 15.062 31.5601 16.3997 32.4616 17.318L32.5127 17.2678C31.6264 16.3649 31.0916 15.0463 31.0916 13.3815H31.0199ZM36.2159 8.04207C33.3489 8.04207 31.0199 10.3027 31.0199 13.3815H31.0916C31.0916 10.3416 33.3891 8.11374 36.2159 8.11374V8.04207ZM39.8841 9.57195C38.9483 8.62136 37.6557 8.04207 36.2159 8.04207V8.11374C37.6359 8.11374 38.9104 8.68492 39.833 9.62222L39.8841 9.57195ZM39.8831 9.82433C39.9527 9.75475 39.9531 9.64207 39.8841 9.57195L39.833 9.62222C39.8744 9.6643 39.8742 9.73191 39.8324 9.77366L39.8831 9.82433ZM38.7077 10.9997L39.8831 9.82433L39.8324 9.77366L38.657 10.949L38.7077 10.9997ZM38.4543 10.9997C38.5243 11.0697 38.6377 11.0697 38.7077 10.9997L38.657 10.949C38.615 10.991 38.547 10.991 38.505 10.949L38.4543 10.9997ZM36.2159 10.0775C37.0846 10.0775 37.885 10.4304 38.4543 10.9997L38.505 10.949C37.9226 10.3667 37.1041 10.0058 36.2159 10.0058V10.0775ZM33.9786 10.9449C34.5454 10.3849 35.3334 10.0775 36.2159 10.0775V10.0058C35.3166 10.0058 34.5098 10.3192 33.9282 10.8939L33.9786 10.9449ZM33.0553 13.3815C33.0553 12.3271 33.4126 11.5041 33.9786 10.9449L33.9282 10.8939C33.3471 11.4681 32.9836 12.3102 32.9836 13.3815H33.0553ZM33.975 15.9113C33.4155 15.3883 33.0553 14.5696 33.0553 13.3815H32.9836C32.9836 14.5846 33.3488 15.4241 33.926 15.9636L33.975 15.9113ZM36.2159 16.6854C35.3232 16.6854 34.5368 16.4364 33.975 15.9113L33.926 15.9636C34.5047 16.5045 35.3104 16.7571 36.2159 16.7571V16.6854ZM38.5545 15.6535C37.9728 16.2948 37.1473 16.6854 36.2159 16.6854V16.7571C37.1681 16.7571 38.0127 16.3575 38.6076 15.7016L38.5545 15.6535ZM38.5452 14.4278V15.6776H38.6168V14.4278H38.5452ZM37.0473 14.4637H38.581V14.392H37.0473V14.4637ZM36.8681 14.2845C36.8681 14.3834 36.9483 14.4637 37.0473 14.4637V14.392C36.9879 14.392 36.9398 14.3439 36.9398 14.2845H36.8681ZM36.8681 12.6934V14.2845H36.9398V12.6934H36.8681ZM38.6974 15.7086C38.0877 16.4034 37.2087 16.8288 36.2159 16.8288V16.9004C37.2299 16.9004 38.1283 16.4657 38.7513 15.7558L38.6974 15.7086ZM36.2159 16.8288C35.2977 16.8288 34.4725 16.5725 33.8771 16.016C33.2821 15.4599 32.912 14.5995 32.912 13.3815H32.8403C32.8403 14.6145 33.2155 15.4957 33.8282 16.0684C34.4404 16.6406 35.285 16.9004 36.2159 16.9004V16.8288ZM32.912 13.3815C32.912 12.2933 33.2816 11.4321 33.8778 10.843C34.4742 10.2536 35.2998 9.93415 36.2159 9.93415V9.86248C35.283 9.86248 34.4387 10.188 33.8274 10.792C33.216 11.3961 32.8403 12.2765 32.8403 13.3815H32.912ZM36.2159 9.93415C37.1233 9.93415 37.9597 10.3027 38.5551 10.8978L38.6058 10.8471C37.9972 10.2389 37.1427 9.86248 36.2159 9.86248V9.93415ZM38.5551 10.8978C38.5552 10.8979 38.5553 10.898 38.5554 10.8981C38.5555 10.8982 38.5556 10.8983 38.5557 10.8984L38.6063 10.8477C38.6062 10.8476 38.6062 10.8475 38.6061 10.8474C38.606 10.8473 38.6059 10.8472 38.6058 10.8471L38.5551 10.8978ZM39.7823 9.67296C39.7823 9.67296 39.7823 9.67297 39.7823 9.67296C39.7823 9.67296 39.7823 9.67296 39.7823 9.67296C39.7823 9.67296 39.7823 9.67296 39.7823 9.67296C39.7823 9.67296 39.7823 9.67296 39.7823 9.67296C39.7823 9.67296 39.7823 9.67296 39.7823 9.67296C39.7316 9.67173 39.7304 9.72239 39.7304 9.72239C39.7304 9.72239 39.7304 9.72239 39.7304 9.72239C39.7304 9.72239 39.7304 9.72239 39.7304 9.72239C39.7304 9.72239 39.7304 9.72239 39.7304 9.72239C39.7304 9.72239 39.7304 9.72239 39.7304 9.72239C39.7304 9.72239 39.7304 9.72239 39.7304 9.72239C39.7304 9.72239 39.7304 9.72239 39.7304 9.72239C39.7304 9.72239 39.7304 9.72239 39.7304 9.72239V9.72239C39.7304 9.72239 39.7304 9.72239 39.7304 9.72239C39.7304 9.72239 39.7304 9.72239 39.7304 9.72239C39.7304 9.72239 39.7304 9.72239 39.7304 9.72239V9.72239C39.7304 9.72239 39.7304 9.72239 39.7304 9.72239C39.7304 9.72239 39.7304 9.72239 39.7304 9.72239C39.7304 9.72239 39.7304 9.72239 39.7304 9.72239C39.7304 9.7224 39.7304 9.72239 39.7304 9.72239C39.7304 9.72239 39.7304 9.72239 39.7304 9.72239C39.7304 9.72239 39.7304 9.72239 39.7304 9.72239C39.7304 9.72239 39.7304 9.72239 39.7304 9.72239C39.7304 9.72239 39.7304 9.72239 39.7304 9.72239C39.7304 9.72239 39.7316 9.67173 39.7823 9.67297C39.7823 9.67297 39.7823 9.67297 39.7823 9.67297C39.7823 9.67297 39.7823 9.67297 39.7823 9.67297C39.7823 9.67297 39.7823 9.67297 39.7823 9.67297C39.7823 9.67297 39.7823 9.67297 39.7823 9.67297C39.7823 9.67297 39.7823 9.67297 39.7823 9.67297C39.7823 9.67297 39.7823 9.67297 39.7823 9.67296L39.7304 9.72239C39.7304 9.72239 39.7304 9.72239 39.7304 9.72239C39.7304 9.72239 39.7304 9.72239 39.7304 9.72239C39.7304 9.72239 39.7304 9.72239 39.7304 9.72239C39.7304 9.72239 39.7304 9.72239 39.7304 9.72239C39.7304 9.72239 39.7304 9.72239 39.7304 9.72239C39.7811 9.72363 39.7823 9.67297 39.7823 9.67297C39.7823 9.67297 39.7823 9.67297 39.7823 9.67297C39.7823 9.67297 39.7823 9.67297 39.7823 9.67297C39.7823 9.67297 39.7823 9.67297 39.7823 9.67297C39.7823 9.67297 39.7823 9.67297 39.7823 9.67297C39.7823 9.67297 39.7823 9.67297 39.7823 9.67297C39.7823 9.67297 39.7823 9.67297 39.7823 9.67297C39.7823 9.67296 39.7823 9.67296 39.7823 9.67296C39.7823 9.67296 39.7823 9.67296 39.7823 9.67296C39.7823 9.67296 39.7823 9.67297 39.7823 9.67296C39.7823 9.67296 39.7823 9.67296 39.7823 9.67296V9.67296C39.7823 9.67296 39.7823 9.67296 39.7823 9.67296C39.7823 9.67296 39.7823 9.67296 39.7823 9.67296C39.7823 9.67296 39.7823 9.67296 39.7823 9.67296C39.7823 9.67296 39.7823 9.67296 39.7823 9.67296C39.7823 9.67296 39.7823 9.67296 39.7823 9.67296C39.7823 9.67296 39.7823 9.67296 39.7823 9.67296C39.7823 9.67296 39.7823 9.67296 39.7823 9.67296C39.7823 9.67296 39.7823 9.67296 39.7823 9.67296C39.7823 9.67296 39.7811 9.72362 39.7304 9.72239C39.7304 9.72239 39.7304 9.72239 39.7304 9.72239C39.7304 9.72239 39.7304 9.72239 39.7304 9.72239C39.7304 9.72239 39.7304 9.72239 39.7304 9.72239C39.7304 9.72239 39.7304 9.72239 39.7304 9.72239C39.7304 9.72239 39.7304 9.72239 39.7304 9.72239L39.7823 9.67296ZM39.7819 9.67254C39.7634 9.65375 39.7447 9.635 39.7259 9.61644L39.6756 9.66751C39.6941 9.68574 39.7125 9.70422 39.7308 9.72282L39.7819 9.67254ZM39.7259 9.61644C39.7104 9.60122 39.6948 9.58609 39.6792 9.57108L39.6296 9.6228C39.645 9.6376 39.6603 9.65251 39.6756 9.66751L39.7259 9.61644ZM39.6792 9.57108C38.7789 8.70744 37.5642 8.18541 36.2159 8.18541V8.25708C37.5452 8.25708 38.7422 8.77161 39.6296 9.6228L39.6792 9.57108ZM36.2159 8.18541C33.4294 8.18541 31.1632 10.3805 31.1632 13.3815H31.2349C31.2349 10.4195 33.4696 8.25708 36.2159 8.25708V8.18541ZM31.1632 13.3815C31.1632 15.0305 31.6927 16.3301 32.5639 17.2176C33.435 18.105 34.6451 18.5775 36.0009 18.5775V18.5058C34.662 18.5058 33.4711 18.0395 32.615 17.1674C31.759 16.2953 31.2349 15.0148 31.2349 13.3815H31.1632ZM36.0009 18.5775C37.133 18.5775 37.9594 18.319 38.7437 17.6417L38.6969 17.5875C37.928 18.2514 37.1193 18.5058 36.0009 18.5058V18.5775ZM38.7437 17.6417C38.7885 17.603 38.8332 17.563 38.8778 17.5215L38.829 17.469C38.785 17.5099 38.741 17.5494 38.6969 17.5875L38.7437 17.6417ZM49.2804 10.2208C49.3793 10.2208 49.4595 10.1406 49.4595 10.0417H49.3879C49.3879 10.101 49.3397 10.1492 49.2804 10.1492V10.2208ZM44.4068 10.2208H49.2804V10.1492H44.4068V10.2208ZM44.4427 12.4067V10.185H44.371V12.4067H44.4427ZM48.4347 12.3709H44.4068V12.4426H48.4347V12.3709ZM48.6138 12.5501C48.6138 12.4511 48.5336 12.3709 48.4347 12.3709V12.4426C48.494 12.4426 48.5422 12.4907 48.5422 12.5501H48.6138ZM48.6138 14.2128V12.5501H48.5422V14.2128H48.6138ZM48.4347 14.392C48.5336 14.392 48.6138 14.3118 48.6138 14.2128H48.5422C48.5422 14.2722 48.494 14.3203 48.4347 14.3203V14.392ZM44.4068 14.392H48.4347V14.3203H44.4068V14.392ZM44.4427 16.5779V14.3562H44.371V16.5779H44.4427ZM49.2804 16.5421H44.4068V16.6137H49.2804V16.5421ZM49.4595 16.7212C49.4595 16.6223 49.3793 16.5421 49.2804 16.5421V16.6137C49.3397 16.6137 49.3879 16.6619 49.3879 16.7212H49.4595ZM49.4595 18.3983V16.7212H49.3879V18.3983H49.4595ZM49.2804 18.5775C49.3793 18.5775 49.4595 18.4973 49.4595 18.3983H49.3879C49.3879 18.4577 49.3397 18.5058 49.2804 18.5058V18.5775ZM42.5864 18.5775H49.2804V18.5058H42.5864V18.5775ZM42.4073 18.3983C42.4073 18.4973 42.4875 18.5775 42.5864 18.5775V18.5058C42.5271 18.5058 42.4789 18.4577 42.4789 18.3983H42.4073ZM42.4073 8.36459V18.3983H42.4789V8.36459H42.4073ZM42.5864 8.18541C42.4875 8.18541 42.4073 8.26563 42.4073 8.36459H42.4789C42.4789 8.30521 42.5271 8.25708 42.5864 8.25708V8.18541ZM49.2804 8.18541H42.5864V8.25708H49.2804V8.18541ZM49.4595 8.36459C49.4595 8.26563 49.3793 8.18541 49.2804 8.18541V8.25708C49.3397 8.25708 49.3879 8.30521 49.3879 8.36459H49.4595ZM49.4595 10.0417V8.36459H49.3879V10.0417H49.4595ZM56.4027 16.5421H52.8336V16.6137H56.4027V16.5421ZM56.5819 16.7212C56.5819 16.6223 56.5017 16.5421 56.4027 16.5421V16.6137C56.4621 16.6137 56.5103 16.6619 56.5103 16.7212H56.5819ZM56.5819 18.3983V16.7212H56.5103V18.3983H56.5819ZM56.4027 18.5775C56.5017 18.5775 56.5819 18.4973 56.5819 18.3983H56.5103C56.5103 18.4577 56.4621 18.5058 56.4027 18.5058V18.5775ZM51.0132 18.5775H56.4027V18.5058H51.0132V18.5775ZM50.834 18.3983C50.834 18.4973 50.9142 18.5775 51.0132 18.5775V18.5058C50.9538 18.5058 50.9057 18.4577 50.9057 18.3983H50.834ZM50.834 8.36459V18.3983H50.9057V8.36459H50.834ZM51.0132 8.18541C50.9142 8.18541 50.834 8.26563 50.834 8.36459H50.9057C50.9057 8.30521 50.9538 8.25708 51.0132 8.25708V8.18541ZM52.6903 8.18541H51.0132V8.25708H52.6903V8.18541ZM52.8694 8.36459C52.8694 8.26563 52.7892 8.18541 52.6903 8.18541V8.25708C52.7496 8.25708 52.7978 8.30521 52.7978 8.36459H52.8694ZM52.8694 16.5779V8.36459H52.7978V16.5779H52.8694ZM63.101 18.4624C63.1276 18.5317 63.1941 18.5775 63.2683 18.5775V18.5058C63.2238 18.5058 63.1839 18.4783 63.1679 18.4367L63.101 18.4624ZM62.6919 17.3934L63.101 18.4624L63.1679 18.4367L62.7588 17.3678L62.6919 17.3934ZM59.3976 17.4164H62.7254V17.3448H59.3976V17.4164ZM59.0359 18.4605L59.4312 17.3931L59.364 17.3682L58.9687 18.4357L59.0359 18.4605ZM58.8678 18.5775C58.9428 18.5775 59.0098 18.5308 59.0359 18.4605L58.9687 18.4357C58.953 18.4778 58.9128 18.5058 58.8678 18.5058V18.5775ZM57.0618 18.5775H58.8678V18.5058H57.0618V18.5775ZM56.9139 18.4996C56.9474 18.5483 57.0027 18.5775 57.0618 18.5775V18.5058C57.0263 18.5058 56.9931 18.4883 56.9731 18.4591L56.9139 18.4996ZM56.8947 18.3336C56.8733 18.3887 56.8805 18.4508 56.9139 18.4996L56.9731 18.4591C56.953 18.4298 56.9487 18.3925 56.9615 18.3595L56.8947 18.3336ZM60.8939 8.01317L56.8947 18.3336L56.9615 18.3595L60.9607 8.03907L60.8939 8.01317ZM61.0608 7.89874C60.9869 7.89878 60.9206 7.94423 60.8939 8.01317L60.9607 8.03906C60.9767 7.9977 61.0165 7.97043 61.0609 7.97041L61.0608 7.89874ZM61.2279 8.01297C61.2011 7.94406 61.1348 7.89869 61.0608 7.89874L61.0609 7.97041C61.1052 7.97038 61.145 7.9976 61.1611 8.03895L61.2279 8.01297ZM65.2414 18.3334L61.2279 8.01297L61.1611 8.03894L65.1746 18.3593L65.2414 18.3334ZM65.2223 18.4995C65.2557 18.4507 65.2628 18.3885 65.2414 18.3334L65.1746 18.3593C65.1875 18.3924 65.1832 18.4297 65.1632 18.459L65.2223 18.4995ZM65.0744 18.5775C65.1336 18.5775 65.1889 18.5483 65.2223 18.4995L65.1632 18.459C65.1431 18.4883 65.1099 18.5058 65.0744 18.5058V18.5775ZM63.2683 18.5775H65.0744V18.5058H63.2683V18.5775ZM59.2979 17.2731H62.824V17.2014H59.2979V17.2731ZM62.7905 17.2501L63.2349 18.4111L63.3018 18.3855L62.8575 17.2245L62.7905 17.2501ZM58.9014 18.4108L59.3315 17.2497L59.2643 17.2248L58.8342 18.3859L58.9014 18.4108ZM60.0784 15.658L61.0948 12.7524L61.0271 12.7287L60.0107 15.6344L60.0784 15.658ZM62.0773 15.6104H60.0445V15.682H62.0773V15.6104ZM61.0271 12.7524L62.0435 15.658L62.1111 15.6344L61.0948 12.7287L61.0271 12.7524ZM73.4253 18.5775C73.4904 18.5775 73.5504 18.5421 73.582 18.4852L73.5193 18.4504C73.5003 18.4846 73.4643 18.5058 73.4253 18.5058V18.5775ZM71.4615 18.5775H73.4253V18.5058H71.4615V18.5775ZM71.3095 18.4931C71.3422 18.5456 71.3997 18.5775 71.4615 18.5775V18.5058C71.4244 18.5058 71.3899 18.4867 71.3703 18.4552L71.3095 18.4931ZM68.7428 14.3751L71.3095 18.4931L71.3703 18.4552L68.8036 14.3372L68.7428 14.3751ZM68.0357 14.392H68.7732V14.3203H68.0357V14.392ZM68.0715 18.3983V14.3562H67.9999V18.3983H68.0715ZM67.8924 18.5775C67.9913 18.5775 68.0715 18.4973 68.0715 18.3983H67.9999C67.9999 18.4577 67.9517 18.5058 67.8924 18.5058V18.5775ZM66.2153 18.5775H67.8924V18.5058H66.2153V18.5775ZM66.0361 18.3983C66.0361 18.4973 66.1164 18.5775 66.2153 18.5775V18.5058C66.1559 18.5058 66.1078 18.4577 66.1078 18.3983H66.0361ZM66.0361 12.5501V18.3983H66.1078V12.5501H66.0361ZM66.2153 12.3709C66.1164 12.3709 66.0361 12.4511 66.0361 12.5501H66.1078C66.1078 12.4907 66.1559 12.4426 66.2153 12.4426V12.3709ZM67.5457 12.3709H66.2153V12.4426H67.5457V12.3709ZM66.064 10.1376L67.5154 12.4259L67.576 12.3876L66.1245 10.0992L66.064 10.1376ZM66.0361 10.0417C66.0361 10.0756 66.0458 10.1089 66.064 10.1376L66.1245 10.0992C66.1136 10.082 66.1078 10.062 66.1078 10.0417H66.0361ZM66.0361 8.36459V10.0417H66.1078V8.36459H66.0361ZM66.2153 8.18541C66.1164 8.18541 66.0361 8.26563 66.0361 8.36459H66.1078C66.1078 8.30521 66.1559 8.25708 66.2153 8.25708V8.18541ZM69.5551 8.18541H66.2153V8.25708H69.5551V8.18541ZM69.5909 8.36459V8.22125H69.5193V8.36459H69.5909ZM68.8223 14.2318L71.4311 18.4173L71.4919 18.3794L68.8832 14.1939L68.8223 14.2318ZM70.7115 14.0753C70.7588 14.0621 70.8068 14.0479 70.8551 14.0325L70.8335 13.9642C70.7859 13.9793 70.7388 13.9933 70.6922 14.0063L70.7115 14.0753ZM70.8551 14.0325C71.3328 13.8814 71.8553 13.6243 72.2586 13.1898C72.6627 12.7545 72.9451 12.1433 72.9451 11.2887H72.8734C72.8734 12.1259 72.5974 12.7195 72.2061 13.141C71.814 13.5634 71.304 13.8153 70.8335 13.9642L70.8551 14.0325ZM72.9451 11.2887C72.9451 10.5503 72.7331 9.99427 72.4136 9.57643C72.0945 9.15907 71.6696 8.88168 71.2465 8.69725C70.8234 8.51283 70.4008 8.4208 70.0843 8.37481C69.926 8.35181 69.794 8.3403 69.7015 8.33453C69.6552 8.33165 69.6187 8.33021 69.5938 8.32948C69.5813 8.32912 69.5717 8.32894 69.5652 8.32884C69.562 8.3288 69.5595 8.32878 69.5578 8.32876C69.5569 8.32876 69.5563 8.32876 69.5558 8.32875C69.5556 8.32875 69.5554 8.32875 69.5553 8.32875C69.5553 8.32875 69.5552 8.32875 69.5552 8.32875C69.5551 8.32875 69.5551 8.32875 69.5551 8.36459C69.5551 8.40042 69.5551 8.40042 69.5551 8.40042C69.5551 8.40042 69.5552 8.40042 69.5552 8.40042C69.5553 8.40042 69.5554 8.40042 69.5556 8.40042C69.556 8.40042 69.5565 8.40043 69.5573 8.40043C69.5588 8.40044 69.5611 8.40046 69.5642 8.40051C69.5704 8.40059 69.5796 8.40077 69.5917 8.40112C69.6159 8.40182 69.6516 8.40323 69.697 8.40606C69.7879 8.41172 69.9179 8.42305 70.074 8.44574C70.3865 8.49113 70.8024 8.58186 71.2179 8.76295C71.6333 8.94404 72.0469 9.21492 72.3567 9.61997C72.6661 10.0245 72.8734 10.565 72.8734 11.2887H72.9451ZM69.5553 8.18541C69.5553 8.18541 69.5552 8.18541 69.5551 8.18541C69.555 8.18541 69.5546 8.18542 69.5544 8.18542C69.5538 8.18544 69.5529 8.18547 69.5517 8.18559C69.5493 8.18583 69.5458 8.18641 69.5419 8.18799C69.5332 8.19149 69.5278 8.19756 69.5248 8.20239C69.5222 8.20656 69.5211 8.21028 69.5207 8.21181C69.5202 8.21363 69.5199 8.2151 69.5198 8.21587C69.5196 8.21739 69.5195 8.2186 69.5195 8.21897C69.5195 8.2195 69.5194 8.21994 69.5194 8.2202C69.5194 8.22107 69.5194 8.22213 69.5194 8.22318C69.5193 8.22556 69.5193 8.23017 69.5193 8.23911C69.5193 8.25706 69.5193 8.29292 69.5193 8.36459H69.5909C69.5909 8.29291 69.591 8.25711 69.591 8.23922C69.591 8.23025 69.591 8.22589 69.591 8.2238C69.591 8.22261 69.5911 8.22255 69.591 8.22286C69.591 8.22298 69.591 8.22331 69.591 8.22376C69.591 8.22406 69.5909 8.22521 69.5907 8.2267C69.5906 8.22745 69.5903 8.22891 69.5898 8.23072C69.5894 8.23223 69.5883 8.23595 69.5857 8.24011C69.5827 8.24494 69.5773 8.251 69.5686 8.25451C69.5612 8.25747 69.5543 8.25708 69.5552 8.25708L69.5553 8.18541ZM69.5555 8.18541L69.5553 8.18541L69.5552 8.25708L69.5555 8.25708L69.5555 8.18541ZM69.5563 8.18542L69.5556 8.18541L69.5554 8.25708L69.5561 8.25708L69.5563 8.18542ZM69.5587 8.18543L69.5564 8.18542L69.556 8.25708L69.5583 8.2571L69.5587 8.18543ZM69.5671 8.18552L69.5589 8.18543L69.5581 8.2571L69.5664 8.25718L69.5671 8.18552ZM69.598 8.1862C69.5848 8.18582 69.5745 8.18562 69.5672 8.18552L69.5662 8.25718C69.5731 8.25728 69.5831 8.25747 69.5959 8.25784L69.598 8.1862ZM69.7104 8.19147C69.6624 8.18848 69.6244 8.18697 69.598 8.1862L69.5959 8.25784C69.6216 8.25859 69.6588 8.26007 69.7059 8.263L69.7104 8.19147ZM70.1049 8.23296C69.9422 8.20932 69.8062 8.19744 69.7104 8.19147L69.7059 8.263C69.8001 8.26887 69.9341 8.28056 70.0946 8.30389L70.1049 8.23296ZM71.3038 8.56585C70.8654 8.37479 70.4296 8.28013 70.1049 8.23296L70.0946 8.30389C70.4152 8.35046 70.8444 8.44381 71.2751 8.63155L71.3038 8.56585ZM72.5275 9.48936C72.1895 9.04737 71.7422 8.75695 71.3038 8.56585L71.2751 8.63155C71.7059 8.81932 72.142 9.10322 72.4706 9.53289L72.5275 9.48936ZM73.0884 11.2887C73.0884 10.5208 72.8673 9.93373 72.5275 9.48936L72.4706 9.53289C72.8002 9.964 73.0167 10.5356 73.0167 11.2887H73.0884ZM72.298 13.3556C72.7621 12.8895 73.0884 12.2238 73.0884 11.2887H73.0167C73.0167 12.2053 72.6977 12.8527 72.2472 13.305L72.298 13.3556ZM70.9338 14.1578C71.392 14.0085 71.8932 13.762 72.298 13.3556L72.2472 13.305C71.853 13.7009 71.363 13.9426 70.9116 14.0897L70.9338 14.1578ZM73.5772 18.3034L70.9531 14.1048L70.8923 14.1428L73.5164 18.3413L73.5772 18.3034ZM73.582 18.4852C73.6135 18.4282 73.6117 18.3586 73.5772 18.3034L73.5164 18.3413C73.5371 18.3745 73.5382 18.4162 73.5193 18.4504L73.582 18.4852ZM71.1963 11.2887C71.1963 11.7679 70.9511 12.0583 70.6496 12.2361C70.3462 12.415 69.9867 12.4788 69.7667 12.5001L69.7736 12.5714C69.9978 12.5497 70.3694 12.4845 70.686 12.2979C71.0044 12.1101 71.268 11.7986 71.268 11.2887H71.1963ZM69.5551 10.0417C69.5551 10.0775 69.5551 10.0775 69.5551 10.0775C69.5551 10.0775 69.5551 10.0775 69.5551 10.0775C69.5552 10.0775 69.5552 10.0775 69.5553 10.0775C69.5555 10.0775 69.5557 10.0775 69.5561 10.0775C69.5568 10.0775 69.558 10.0775 69.5595 10.0775C69.5625 10.0776 69.5671 10.0776 69.5731 10.0778C69.585 10.0781 69.6027 10.0787 69.6253 10.0799C69.6704 10.0823 69.7351 10.0871 69.8127 10.0967C69.9682 10.116 70.175 10.1545 70.3811 10.2311C70.5875 10.3078 70.7914 10.4221 70.9434 10.5917C71.0948 10.7605 71.1963 10.9858 71.1963 11.2887H71.268C71.268 10.968 71.1599 10.7257 70.9968 10.5438C70.8344 10.3627 70.619 10.2431 70.4061 10.1639C70.1931 10.0847 69.9805 10.0453 69.8216 10.0256C69.742 10.0157 69.6756 10.0108 69.6291 10.0083C69.6058 10.0071 69.5874 10.0064 69.5748 10.0061C69.5685 10.006 69.5637 10.0059 69.5603 10.0059C69.5587 10.0058 69.5574 10.0058 69.5565 10.0058C69.5561 10.0058 69.5558 10.0058 69.5555 10.0058C69.5554 10.0058 69.5553 10.0058 69.5552 10.0058C69.5552 10.0058 69.5552 10.0058 69.5551 10.0058C69.5551 10.0058 69.5551 10.0058 69.5551 10.0417ZM70.5768 12.1126C70.3351 12.2551 70.049 12.3198 69.8389 12.3475L69.8483 12.4186C70.0628 12.3902 70.3597 12.3238 70.6132 12.1744L70.5768 12.1126ZM71.053 11.2887C71.053 11.7066 70.8445 11.9548 70.5768 12.1126L70.6132 12.1744C70.8979 12.0065 71.1247 11.7372 71.1247 11.2887H71.053ZM70.8367 10.6874C70.9647 10.8301 71.053 11.0214 71.053 11.2887H71.1247C71.1247 11.0036 71.0298 10.7953 70.8901 10.6395L70.8367 10.6874ZM70.3312 10.3655C70.5244 10.4373 70.7054 10.5408 70.8367 10.6874L70.8901 10.6395C70.7484 10.4815 70.556 10.3726 70.3562 10.2983L70.3312 10.3655ZM69.7951 10.239C69.9438 10.2574 70.1388 10.2939 70.3312 10.3655L70.3562 10.2983C70.1569 10.2242 69.956 10.1867 69.8039 10.1678L69.7951 10.239ZM69.6177 10.223C69.66 10.2253 69.7213 10.2298 69.7951 10.239L69.8039 10.1678C69.7282 10.1584 69.6652 10.1538 69.6215 10.1514L69.6177 10.223ZM69.5695 10.2211C69.5802 10.2213 69.5965 10.2219 69.6177 10.223L69.6215 10.1514C69.5996 10.1503 69.5826 10.1497 69.5713 10.1494L69.5695 10.2211ZM69.5578 10.2209C69.5602 10.2209 69.5641 10.2209 69.5695 10.2211L69.5713 10.1494C69.5656 10.1493 69.5614 10.1492 69.5586 10.1492L69.5578 10.2209ZM69.5551 10.2208L69.5579 10.2209L69.5585 10.1492L69.5558 10.1492L69.5551 10.2208ZM69.5549 10.2208L69.5552 10.2208L69.5557 10.1492L69.5553 10.1492L69.5549 10.2208ZM69.874 12.364L68.497 10.166L68.4363 10.204L69.8132 12.4021L69.874 12.364ZM28.5674 18.4341H30.3735V18.3625H28.5674V18.4341ZM30.4069 18.3853L26.3934 8.06492L26.3266 8.0909L30.3401 18.4113L30.4069 18.3853ZM26.3266 8.06496L22.3275 18.3854L22.3943 18.4113L26.3934 8.09086L26.3266 8.06496ZM22.3609 18.4341H24.1669V18.3625H22.3609V18.4341ZM25.1755 15.8014L26.3939 12.3182L26.3262 12.2946L25.1078 15.7777L25.1755 15.8014ZM27.5784 15.7537H25.1416V15.8254H27.5784V15.7537ZM26.3262 12.3182L27.5446 15.8014L27.6122 15.7777L26.3939 12.2946L26.3262 12.3182ZM38.6064 10.8984L39.7817 9.72302L39.731 9.67234L38.5557 10.8477L38.6064 10.8984ZM38.8177 17.4985L38.9037 18.4446L38.975 18.4381L38.889 17.492L38.8177 17.4985ZM38.9394 18.4771H40.4014V18.4055H38.9394V18.4771ZM40.4373 18.4413V12.6934H40.3656V18.4413H40.4373ZM40.4014 12.6576H37.0473V12.7293H40.4014V12.6576ZM37.0115 12.6934V14.2845H37.0831V12.6934H37.0115ZM37.0473 14.3203H38.7244V14.2487H37.0473V14.3203ZM38.6885 14.2845V15.7322H38.7602V14.2845H38.6885ZM49.2804 16.6854H44.2635V16.7571H49.2804V16.6854ZM49.3162 18.3983V16.7212H49.2445V18.3983H49.3162ZM42.5864 18.4341H49.2804V18.3625H42.5864V18.4341ZM42.5506 8.36459V18.3983H42.6223V8.36459H42.5506ZM49.2804 8.32875H42.5864V8.40042H49.2804V8.32875ZM49.3162 10.0417V8.36459H49.2445V10.0417H49.3162ZM44.2635 10.0775H49.2804V10.0058H44.2635V10.0775ZM44.2993 12.5501V10.0417H44.2277V12.5501H44.2993ZM48.4347 12.5142H44.2635V12.5859H48.4347V12.5142ZM48.4705 14.2128V12.5501H48.3988V14.2128H48.4705ZM44.2635 14.2487H48.4347V14.177H44.2635V14.2487ZM44.2993 16.7212V14.2128H44.2277V16.7212H44.2993ZM56.4027 16.6854H52.6903V16.7571H56.4027V16.6854ZM56.4386 18.3983V16.7212H56.3669V18.3983H56.4386ZM51.0132 18.4341H56.4027V18.3625H51.0132V18.4341ZM50.9774 8.36459V18.3983H51.049V8.36459H50.9774ZM52.6903 8.32875H51.0132V8.40042H52.6903V8.32875ZM52.7261 16.7212V8.36459H52.6544V16.7212H52.7261ZM63.2683 18.4341H65.0744V18.3625H63.2683V18.4341ZM65.1078 18.3853L61.0943 8.06492L61.0275 8.0909L65.041 18.4113L65.1078 18.3853ZM61.0275 8.06496L57.0284 18.3854L57.0952 18.4113L61.0943 8.09086L61.0275 8.06496ZM57.0618 18.4341H58.8678V18.3625H57.0618V18.4341ZM59.8764 15.8014L61.0948 12.3182L61.0271 12.2946L59.8087 15.7777L59.8764 15.8014ZM62.2793 15.7537H59.8425V15.8254H62.2793V15.7537ZM61.0271 12.3182L62.2455 15.8014L62.3131 15.7777L61.0948 12.2946L61.0271 12.3182ZM69.5551 8.32875H66.2153V8.40042H69.5551V8.32875ZM66.1795 8.36459V10.0417H66.2511V8.36459H66.1795ZM66.185 10.0608L67.7761 12.5693L67.8366 12.5309L66.2456 10.0225L66.185 10.0608ZM67.8064 12.5142H66.2153V12.5859H67.8064V12.5142ZM66.1795 12.5501V18.3983H66.2511V12.5501H66.1795ZM66.2153 18.4341H67.8924V18.3625H66.2153V18.4341ZM67.9282 18.3983V14.2128H67.8565V18.3983H67.9282ZM67.8924 14.2487H68.8527V14.177H67.8924V14.2487ZM71.4615 18.4341H73.4253V18.3625H71.4615V18.4341ZM73.4556 18.3793L70.7322 14.0218L70.6714 14.0598L73.3949 18.4173L73.4556 18.3793ZM68.2077 10.0775H69.5551V10.0058H68.2077V10.0775ZM69.8005 12.5167L68.2381 10.0226L68.1773 10.0607L69.7397 12.5548L69.8005 12.5167ZM68.4667 10.2208H69.5551V10.1492H68.4667V10.2208Z" fill="url(#paint5_linear_55_149)" mask="url(#path-3-outside-1_55_149)"/>
<path d="M36.2163 7.91602C37.6115 7.91613 38.8628 8.47784 39.769 9.39844C39.7759 9.40546 39.776 9.4169 39.769 9.42383L38.5933 10.5986C38.5899 10.6019 38.5853 10.6045 38.5806 10.6045C38.576 10.6044 38.5711 10.6019 38.5679 10.5986C37.9692 10.0002 37.1285 9.62902 36.2163 9.62891C35.296 9.62891 34.4649 9.94998 33.8647 10.543C33.2647 11.1359 32.894 12.0024 32.894 13.0947C32.8941 14.3164 33.2654 15.182 33.8647 15.7422C34.4644 16.3027 35.2949 16.5596 36.2163 16.5596C37.2121 16.5595 38.0937 16.1334 38.7065 15.4375V14.0156H37.0474C37.0376 14.0156 37.03 14.0077 37.0298 13.998V12.4062C37.0299 12.3965 37.0376 12.3887 37.0474 12.3887H40.4019C40.4114 12.3889 40.4193 12.3966 40.4194 12.4062V18.1543C40.4194 18.164 40.4115 18.1716 40.4019 18.1719H38.939C38.9299 18.1717 38.9223 18.1653 38.9214 18.1562L38.8384 17.2451C38.0257 17.9901 37.1812 18.2725 36.0005 18.2725C34.649 18.2724 33.4439 17.8014 32.5767 16.918C31.7093 16.0344 31.1812 14.7398 31.1812 13.0947C31.1812 10.1035 33.4398 7.91602 36.2163 7.91602ZM26.3765 7.78418L30.3901 18.1045C30.3922 18.1099 30.3914 18.1163 30.3882 18.1211C30.3849 18.126 30.3794 18.1289 30.3735 18.1289H28.5679C28.5605 18.1289 28.553 18.125 28.5503 18.1182L28.1108 16.9688H24.6099L24.1841 18.1172C24.1815 18.1242 24.174 18.1289 24.1665 18.1289H22.3608C22.3549 18.1289 22.3495 18.126 22.3462 18.1211C22.343 18.1163 22.3421 18.1099 22.3442 18.1045L26.3433 7.78418L26.3599 7.77344C26.3671 7.77343 26.3737 7.7775 26.3765 7.78418ZM49.2808 8.05957C49.2905 8.05979 49.2983 8.06837 49.2983 8.07812V9.75488C49.2983 9.76458 49.2904 9.77224 49.2808 9.77246H44.2817V12.2451H48.4351C48.4448 12.2453 48.4526 12.2539 48.4526 12.2637V13.9258C48.4526 13.9355 48.4448 13.9431 48.4351 13.9434H44.2817V16.416H49.2808C49.2905 16.4162 49.2983 16.4248 49.2983 16.4346V18.1113C49.2983 18.1211 49.2905 18.1287 49.2808 18.1289H42.5864C42.5765 18.1289 42.5688 18.1212 42.5688 18.1113V8.07812C42.5688 8.06823 42.5765 8.05957 42.5864 8.05957H49.2808ZM52.6899 8.05957C52.6998 8.05957 52.7085 8.06823 52.7085 8.07812V16.416H56.4028C56.4127 16.4161 56.4204 16.4247 56.4204 16.4346V18.1113C56.4204 18.1212 56.4127 18.1288 56.4028 18.1289H51.0132C51.0033 18.1289 50.9956 18.1212 50.9956 18.1113V8.07812C50.9956 8.06823 51.0033 8.05957 51.0132 8.05957H52.6899ZM61.0776 7.78418L65.0913 18.1045C65.0934 18.1099 65.0925 18.1163 65.0894 18.1211C65.0861 18.1259 65.0805 18.1288 65.0747 18.1289H63.2681C63.2608 18.1288 63.2542 18.1249 63.2515 18.1182L62.812 16.9688H59.311L58.8843 18.1172C58.8817 18.1242 58.8752 18.1289 58.8677 18.1289H57.062C57.0561 18.1289 57.0507 18.126 57.0474 18.1211C57.0441 18.1162 57.0433 18.11 57.0454 18.1045L61.0444 7.78418L61.061 7.77344C61.0683 7.77349 61.0749 7.77749 61.0776 7.78418ZM69.5649 8.05957C69.5714 8.05966 69.5809 8.06019 69.5933 8.06055C69.618 8.06127 69.6546 8.06256 69.7007 8.06543C69.7928 8.07117 69.9241 8.08259 70.0815 8.10547C70.397 8.15131 70.8186 8.24317 71.2397 8.42676C71.6608 8.61035 72.0822 8.88662 72.3989 9.30078C72.7159 9.7153 72.9272 10.2672 72.9272 11.002C72.9272 11.8952 72.6174 12.5199 72.1841 12.9551C71.7578 13.3831 71.2125 13.6258 70.729 13.7637L73.4399 18.1016C73.4434 18.1071 73.4441 18.1144 73.4409 18.1201C73.4378 18.1258 73.4318 18.1289 73.4253 18.1289H71.4614C71.4553 18.1289 71.4491 18.1263 71.4458 18.1211L68.8423 13.9434H67.9106V18.1113C67.9106 18.1212 67.902 18.1289 67.8921 18.1289H66.2153C66.2054 18.1289 66.1978 18.1212 66.1978 18.1113V12.2637C66.1978 12.2538 66.2054 12.2451 66.2153 12.2451H67.7739L66.1997 9.76465L66.1938 9.75488H66.1978V8.07812C66.1978 8.06823 66.2054 8.05957 66.2153 8.05957H69.5649ZM59.8687 15.4844H62.2534L61.061 12.0723L59.8687 15.4844ZM25.1675 15.4844H27.5522L26.3599 12.0723L25.1675 15.4844ZM69.7788 12.2295C70.0008 12.2071 70.3568 12.1428 70.6587 11.9648C70.9644 11.7846 71.2143 11.4887 71.2144 11.002C71.2144 10.6946 71.1108 10.4651 70.9565 10.293C70.8019 10.1205 70.5952 10.0051 70.3872 9.92773C70.1793 9.85045 69.9713 9.81137 69.8149 9.79199C69.737 9.78233 69.672 9.77781 69.6265 9.77539C69.6039 9.77419 69.5859 9.77374 69.5737 9.77344C69.5679 9.77329 69.5632 9.7725 69.5601 9.77246H68.2407L69.7788 12.2295Z" fill="url(#paint6_linear_55_149)" stroke="url(#paint7_linear_55_149)" stroke-width="0.0358347" stroke-linejoin="round"/>
<path d="M28.5674 17.8248H30.3735L26.36 7.50439L22.3608 17.8248H24.1669L24.5969 16.6638H28.1231L28.5674 17.8248ZM26.36 11.7329L27.5784 15.216H25.1416L26.36 11.7329Z" fill="url(#paint8_linear_55_149)"/>
<path d="M37.0473 12.1199V13.711H38.7243V15.1587C38.108 15.8611 37.2193 16.2911 36.2159 16.2911C34.3668 16.2911 32.8761 15.259 32.8761 12.8079C32.8761 10.6148 34.3668 9.3248 36.2159 9.3248C37.1333 9.3248 37.979 9.69748 38.581 10.2995L39.7564 9.12412C38.8533 8.20676 37.6063 7.64773 36.2159 7.64773C33.4495 7.64773 31.199 9.82649 31.199 12.8079C31.199 16.0904 33.3061 17.9681 36.0009 17.9681C37.1906 17.9681 38.0363 17.6815 38.8533 16.9218L38.9393 17.8678H40.4014V12.1199H37.0473Z" fill="url(#paint9_linear_55_149)"/>
<path d="M49.2803 9.46814V7.79107H42.5864V17.8248H49.2803V16.1477H44.2635V13.6393H48.4346V11.9766H44.2635V9.46814H49.2803Z" fill="url(#paint10_linear_55_149)"/>
<path d="M52.6902 16.1477V7.79107H51.0132V17.8248H56.4027V16.1477H52.6902Z" fill="url(#paint11_linear_55_149)"/>
<path d="M63.2683 17.8248H65.0744L61.0609 7.50439L57.0617 17.8248H58.8678L59.2978 16.6638H62.824L63.2683 17.8248ZM61.0609 11.7329L62.2793 15.216H59.8425L61.0609 11.7329Z" fill="url(#paint12_linear_55_149)"/>
<path d="M73.4252 17.8248L70.7018 13.4673C71.6765 13.195 72.9092 12.4926 72.9092 10.7152C72.9092 7.79107 69.5551 7.79107 69.5551 7.79107H66.2153V9.46814L67.8063 11.9766H66.2153V17.8248H67.8923V13.6393H68.8527L71.4615 17.8248H73.4252ZM68.2077 9.46814H69.5551C69.5551 9.46814 71.2321 9.46814 71.2321 10.7152C71.2321 11.7042 70.2144 11.9192 69.7701 11.9622L68.2077 9.46814Z" fill="url(#paint13_linear_55_149)"/>
<path d="M28.5674 17.8248H30.3735L26.36 7.50439L22.3608 17.8248H24.1669L24.5969 16.6638H28.1231L28.5674 17.8248ZM26.36 11.7329L27.5784 15.216H25.1416L26.36 11.7329Z" stroke="url(#paint14_linear_55_149)" stroke-width="0.0358347" stroke-linejoin="round"/>
<path d="M37.0473 12.1199V13.711H38.7243V15.1587C38.108 15.8611 37.2193 16.2911 36.2159 16.2911C34.3668 16.2911 32.8761 15.259 32.8761 12.8079C32.8761 10.6148 34.3668 9.3248 36.2159 9.3248C37.1333 9.3248 37.979 9.69748 38.581 10.2995L39.7564 9.12412C38.8533 8.20676 37.6063 7.64773 36.2159 7.64773C33.4495 7.64773 31.199 9.82649 31.199 12.8079C31.199 16.0904 33.3061 17.9681 36.0009 17.9681C37.1906 17.9681 38.0363 17.6815 38.8533 16.9218L38.9393 17.8678H40.4014V12.1199H37.0473Z" stroke="url(#paint15_linear_55_149)" stroke-width="0.0358347" stroke-linejoin="round"/>
<path d="M49.2803 9.46814V7.79107H42.5864V17.8248H49.2803V16.1477H44.2635V13.6393H48.4346V11.9766H44.2635V9.46814H49.2803Z" stroke="url(#paint16_linear_55_149)" stroke-width="0.0358347" stroke-linejoin="round"/>
<path d="M52.6902 16.1477V7.79107H51.0132V17.8248H56.4027V16.1477H52.6902Z" stroke="url(#paint17_linear_55_149)" stroke-width="0.0358347" stroke-linejoin="round"/>
<path d="M63.2683 17.8248H65.0744L61.0609 7.50439L57.0617 17.8248H58.8678L59.2978 16.6638H62.824L63.2683 17.8248ZM61.0609 11.7329L62.2793 15.216H59.8425L61.0609 11.7329Z" stroke="url(#paint18_linear_55_149)" stroke-width="0.0358347" stroke-linejoin="round"/>
<path d="M73.4252 17.8248L70.7018 13.4673C71.6765 13.195 72.9092 12.4926 72.9092 10.7152C72.9092 7.79107 69.5551 7.79107 69.5551 7.79107H66.2153V9.46814L67.8063 11.9766H66.2153V17.8248H67.8923V13.6393H68.8527L71.4615 17.8248H73.4252ZM68.2077 9.46814H69.5551C69.5551 9.46814 71.2321 9.46814 71.2321 10.7152C71.2321 11.7042 70.2144 11.9192 69.7701 11.9622L68.2077 9.46814Z" stroke="url(#paint19_linear_55_149)" stroke-width="0.0358347" stroke-linejoin="round"/>
<mask id="mask0_55_149" style="mask-type:alpha" maskUnits="userSpaceOnUse" x="0" y="0" width="29" height="25">
<path d="M14.9073 7.21794L16.3406 3.92115L2.29342 0.194336L0 12.6648L5.94857 20.8351L7.38196 18.3984L14.9073 7.21794Z" fill="#828282"/>
<path d="M17.6307 12.1631L17.4157 5.49788H25.9444L28.1661 18.8284L20.7125 24.6336L10.4637 23.7019L12.1121 19.6884L13.1155 19.1151L17.6307 12.1631Z" fill="#828282"/>
</mask>
<g mask="url(#mask0_55_149)">
<path d="M5.75889 13.7899L6.14966 13.5457L6.08929 12.6484L5.75889 13.7899ZM6.60971 16.2543L6.99212 15.986L6.60895 15.2224L6.60971 16.2543ZM6.22274 15.4832L6.60895 15.2224L6.32551 14.4063L6.22274 15.4832ZM5.69792 12.8836L6.08929 12.6484L6.14966 11.7511L5.69792 12.8836ZM5.93648 14.659L6.32551 14.4063L6.14966 13.5457L5.93648 14.659ZM20.5358 14.001L20.7813 13.7548L20.8558 12.6484L20.5358 14.001ZM5.75889 11.9774L6.14966 11.7511L6.32551 10.8905L5.75889 11.9774ZM20.611 12.8836L20.8558 12.6484L20.7813 11.542L20.611 12.8836ZM20.5358 11.7662L20.7813 11.542L20.5645 10.4808L20.5358 11.7662ZM5.93648 11.1083L6.32551 10.8905L6.60895 10.0744L5.93648 11.1083ZM20.3168 10.6945L20.5645 10.4808L20.215 9.47458L20.3168 10.6945ZM19.9639 9.67833L20.215 9.47458L19.7425 8.53303L19.9639 9.67833ZM6.22274 10.2841L6.60895 10.0744L6.99212 9.31082L6.22274 10.2841ZM19.4867 8.72743L19.7425 8.53303L19.1568 7.66587L19.4867 8.72743ZM18.8952 7.85167L19.1568 7.66587L18.4676 6.88281L18.8952 7.85167ZM6.60971 9.51295L6.99212 9.31082L7.46714 8.60755L6.60971 9.51295ZM18.1991 7.06083L18.4676 6.88281L17.6845 6.19357L18.1991 7.06083ZM17.4083 6.36475L17.6845 6.19357L16.8174 5.60786L17.4083 6.36475ZM7.08944 8.8027L7.46714 8.60755L8.02611 7.97249L7.08944 8.8027ZM16.5325 5.77323L16.8174 5.60786L15.8758 5.13539L16.5325 5.77323ZM15.5816 5.29607L15.8758 5.13539L14.8696 4.78589L15.5816 5.29607ZM7.65397 8.16133L8.02611 7.97249L8.66118 7.41351L7.65397 8.16133ZM14.5654 4.9431L14.8696 4.78589L13.8084 4.56906L14.5654 4.9431ZM13.4937 4.72412L13.8084 4.56906L12.702 4.49463L13.4937 4.72412ZM8.29534 7.5968L8.66118 7.41351L9.36445 6.9385L8.29534 7.5968ZM12.3763 4.64895L12.702 4.49463L11.5956 4.56906L12.3763 4.64895ZM11.2589 4.72412L11.5956 4.56906L10.5344 4.78589L11.2589 4.72412ZM9.00559 7.11708L9.36445 6.9385L10.128 6.55533L9.00559 7.11708ZM10.1872 4.9431L10.5344 4.78589L9.5282 5.13539L10.1872 4.9431ZM18.1991 18.7064L18.4676 18.414L19.1568 17.6309L18.1991 18.7064ZM17.0986 17.606L17.3779 17.3243L16.7429 17.8833L17.0986 17.606ZM18.8952 17.9156L19.1568 17.6309L19.7425 16.7637L18.8952 17.9156ZM19.4867 17.0398L19.7425 16.7637L20.215 15.8222L19.4867 17.0398ZM19.9639 16.089L20.215 15.8222L20.5645 14.816L19.9639 16.089ZM16.4572 18.1705L16.7429 17.8833L16.0396 18.3583L16.4572 18.1705ZM20.3168 15.0727L20.5645 14.816L20.7813 13.7548L20.3168 15.0727ZM7.08944 16.9646L7.46714 16.6892L6.99212 15.986L7.08944 16.9646ZM7.65397 17.606L8.02611 17.3243L7.46714 16.6892L7.65397 17.606ZM15.747 18.6502L16.0396 18.3583L15.276 18.7414L15.747 18.6502ZM8.29534 18.1705L8.66118 17.8833L8.02611 17.3243L8.29534 18.1705ZM9.00559 18.6502L9.36445 18.3583L8.66118 17.8833L9.00559 18.6502ZM9.77676 19.0372L10.128 18.7414L9.36445 18.3583L9.77676 19.0372ZM14.9758 19.0372L15.276 18.7414L14.4599 19.0249L14.9758 19.0372ZM10.6009 19.3234L10.9441 19.0249L10.128 18.7414L10.6009 19.3234ZM11.4701 19.501L11.8047 19.2007L10.9441 19.0249L11.4701 19.501ZM12.3763 19.562L12.702 19.2611L11.8047 19.2007L12.3763 19.562ZM14.1517 19.3234L14.4599 19.0249L13.5993 19.2007L14.1517 19.3234ZM13.2825 19.501L13.5993 19.2007L12.702 19.2611L13.2825 19.501ZM8.29534 18.1705L9.00559 18.6502L8.66118 17.8833L8.29534 18.1705ZM6.60971 16.2543L7.08944 16.9646L6.99212 15.986L6.60971 16.2543ZM12.3763 19.562L13.2825 19.501L12.702 19.2611L12.3763 19.562ZM6.22274 15.4832L6.60971 16.2543L6.60895 15.2224L6.22274 15.4832ZM5.93648 14.659L6.22274 15.4832L6.32551 14.4063L5.93648 14.659ZM11.4701 19.501L12.3763 19.562L11.8047 19.2007L11.4701 19.501ZM5.75889 13.7899L5.93648 14.659L6.14966 13.5457L5.75889 13.7899ZM10.6009 19.3234L11.4701 19.501L10.9441 19.0249L10.6009 19.3234ZM14.1517 19.3234L14.9758 19.0372L14.4599 19.0249L14.1517 19.3234ZM9.77676 19.0372L10.6009 19.3234L10.128 18.7414L9.77676 19.0372ZM9.00559 18.6502L9.77676 19.0372L9.36445 18.3583L9.00559 18.6502ZM13.2825 19.501L14.1517 19.3234L13.5993 19.2007L13.2825 19.501ZM14.9758 19.0372L15.747 18.6502L15.276 18.7414L14.9758 19.0372ZM7.65397 17.606L8.29534 18.1705L8.02611 17.3243L7.65397 17.606ZM7.08944 16.9646L7.65397 17.606L7.46714 16.6892L7.08944 16.9646ZM20.5358 14.001L20.3168 15.0727L20.7813 13.7548L20.5358 14.001ZM15.747 18.6502L16.4572 18.1705L16.0396 18.3583L15.747 18.6502ZM20.3168 15.0727L19.9639 16.089L20.5645 14.816L20.3168 15.0727ZM18.8952 17.9156L18.1991 18.7064L19.1568 17.6309L18.8952 17.9156ZM16.4572 18.1705L17.0986 17.606L16.7429 17.8833L16.4572 18.1705ZM19.4867 17.0398L18.8952 17.9156L19.7425 16.7637L19.4867 17.0398ZM19.9639 16.089L19.4867 17.0398L20.215 15.8222L19.9639 16.089ZM18.1991 7.06083L18.8952 7.85167L18.4676 6.88281L18.1991 7.06083ZM9.77676 6.7301L9.00559 7.11708L10.128 6.55533L9.77676 6.7301ZM7.08944 8.8027L6.60971 9.51295L7.46714 8.60755L7.08944 8.8027ZM17.4083 6.36475L18.1991 7.06083L17.6845 6.19357L17.4083 6.36475ZM20.5358 11.7662L20.611 12.8836L20.7813 11.542L20.5358 11.7662ZM20.3168 10.6945L20.5358 11.7662L20.5645 10.4808L20.3168 10.6945ZM16.5325 5.77323L17.4083 6.36475L16.8174 5.60786L16.5325 5.77323ZM7.65397 8.16133L7.08944 8.8027L8.02611 7.97249L7.65397 8.16133ZM15.5816 5.29607L16.5325 5.77323L15.8758 5.13539L15.5816 5.29607ZM5.75889 11.9774L5.69792 12.8836L6.14966 11.7511L5.75889 11.9774ZM14.5654 4.9431L15.5816 5.29607L14.8696 4.78589L14.5654 4.9431ZM8.29534 7.5968L7.65397 8.16133L8.66118 7.41351L8.29534 7.5968ZM13.4937 4.72412L14.5654 4.9431L13.8084 4.56906L13.4937 4.72412ZM5.69792 12.8836L5.75889 13.7899L6.08929 12.6484L5.69792 12.8836ZM12.3763 4.64895L13.4937 4.72412L12.702 4.49463L12.3763 4.64895ZM9.00559 7.11708L8.29534 7.5968L9.36445 6.9385L9.00559 7.11708ZM11.2589 4.72412L12.3763 4.64895L11.5956 4.56906L11.2589 4.72412ZM20.611 12.8836L20.5358 14.001L20.8558 12.6484L20.611 12.8836ZM6.22274 10.2841L5.93648 11.1083L6.60895 10.0744L6.22274 10.2841ZM10.1872 4.9431L11.2589 4.72412L10.5344 4.78589L10.1872 4.9431ZM9.17097 5.29607L10.1872 4.9431L9.5282 5.13539L9.17097 5.29607ZM19.9639 9.67833L20.3168 10.6945L20.215 9.47458L19.9639 9.67833ZM19.4867 8.72743L19.9639 9.67833L19.7425 8.53303L19.4867 8.72743ZM5.93648 11.1083L5.75889 11.9774L6.32551 10.8905L5.93648 11.1083ZM6.60971 9.51295L6.22274 10.2841L6.99212 9.31082L6.60971 9.51295ZM18.8952 7.85167L19.4867 8.72743L19.1568 7.66587L18.8952 7.85167ZM16.8137 17.8933L17.0986 17.606L16.4572 18.1705L16.8137 17.8933ZM13.8372 19.628L14.1517 19.3234L13.2825 19.501L13.8372 19.628ZM18.6283 18.206L18.8952 17.9156L19.4867 17.0398L18.6283 18.206ZM19.2257 17.3215L19.4867 17.0398L19.9639 16.089L19.2257 17.3215ZM12.9593 19.8073L13.2825 19.501L12.3763 19.562L12.9593 19.8073ZM6.21964 16.5281L6.60971 16.2543L6.22274 15.4832L6.21964 16.5281ZM17.9252 19.0048L18.1991 18.7064L18.8952 17.9156L17.9252 19.0048ZM5.82879 15.7492L6.22274 15.4832L5.93648 14.659L5.82879 15.7492ZM12.044 19.8689L12.3763 19.562L11.4701 19.501L12.044 19.8689ZM5.53965 14.9168L5.93648 14.659L5.75889 13.7899L5.53965 14.9168ZM19.7077 16.3611L19.9639 16.089L20.3168 15.0727L19.7077 16.3611ZM14.6696 19.3388L14.9758 19.0372L14.1517 19.3234L14.6696 19.3388ZM11.1287 19.8073L11.4701 19.501L10.6009 19.3234L11.1287 19.8073ZM10.2508 19.628L10.6009 19.3234L9.77676 19.0372L10.2508 19.628ZM9.41844 19.3388L9.77676 19.0372L9.00559 18.6502L9.41844 19.3388ZM15.4485 18.948L15.747 18.6502L14.9758 19.0372L15.4485 18.948ZM20.0642 15.3347L20.3168 15.0727L20.5358 14.001L20.0642 15.3347ZM8.63953 18.948L9.00559 18.6502L8.29534 18.1705L8.63953 18.948ZM7.92216 18.4634L8.29534 18.1705L7.65397 17.606L7.92216 18.4634ZM6.70418 17.2455L7.08944 16.9646L6.60971 16.2543L6.70418 17.2455ZM7.27436 17.8933L7.65397 17.606L7.08944 16.9646L7.27436 17.8933ZM16.1659 18.4634L16.4572 18.1705L15.747 18.6502L16.1659 18.4634ZM20.0642 10.9126L20.3168 10.6945L19.9639 9.67833L20.0642 10.9126ZM14.2551 5.10346L14.5654 4.9431L13.4937 4.72412L14.2551 5.10346ZM15.2815 5.45997L15.5816 5.29607L14.5654 4.9431L15.2815 5.45997ZM7.27436 8.35396L7.65397 8.16133L8.29534 7.5968L7.27436 8.35396ZM6.70418 9.00175L7.08944 8.8027L7.65397 8.16133L6.70418 9.00175ZM16.2419 5.94191L16.5325 5.77323L15.5816 5.29607L16.2419 5.94191ZM5.36028 14.0389L5.75889 13.7899L5.69792 12.8836L5.36028 14.0389ZM8.63953 7.29923L9.00559 7.11708L9.77676 6.7301L8.63953 7.29923ZM9.83296 5.10346L10.1872 4.9431L9.17097 5.29607L9.83296 5.10346ZM17.1264 6.53937L17.4083 6.36475L16.5325 5.77323L17.1264 6.53937ZM13.1726 4.88229L13.4937 4.72412L12.3763 4.64895L13.1726 4.88229ZM6.21964 9.71912L6.60971 9.51295L7.08944 8.8027L6.21964 9.71912ZM17.9252 7.24243L18.1991 7.06083L17.4083 6.36475L17.9252 7.24243ZM5.29871 13.1236L5.69792 12.8836L5.75889 11.9774L5.29871 13.1236ZM20.2853 14.2522L20.5358 14.001L20.611 12.8836L20.2853 14.2522ZM18.6283 8.04119L18.8952 7.85167L18.1991 7.06083L18.6283 8.04119ZM12.044 4.80636L12.3763 4.64895L11.2589 4.72412L12.044 4.80636ZM5.82879 10.498L6.22274 10.2841L6.60971 9.51295L5.82879 10.498ZM19.2257 8.92574L19.4867 8.72743L18.8952 7.85167L19.2257 8.92574ZM10.9154 4.88229L11.2589 4.72412L10.1872 4.9431L10.9154 4.88229ZM7.92216 7.78377L8.29534 7.5968L9.00559 7.11708L7.92216 7.78377ZM19.7077 9.88616L19.9639 9.67833L19.4867 8.72743L19.7077 9.88616ZM20.3613 13.1236L20.611 12.8836L20.5358 11.7662L20.3613 13.1236ZM5.53965 11.3304L5.93648 11.1083L6.22274 10.2841L5.53965 11.3304ZM5.36028 12.2083L5.75889 11.9774L5.93648 11.1083L5.36028 12.2083ZM20.2853 11.995L20.5358 11.7662L20.3168 10.6945L20.2853 11.995ZM6.21964 16.5281L6.70418 17.2455L6.60971 16.2543L6.21964 16.5281ZM20.0642 15.3347L19.7077 16.3611L20.3168 15.0727L20.0642 15.3347ZM10.2508 19.628L11.1287 19.8073L10.6009 19.3234L10.2508 19.628ZM6.70418 17.2455L7.27436 17.8933L7.08944 16.9646L6.70418 17.2455ZM14.6696 19.3388L15.4485 18.948L14.9758 19.0372L14.6696 19.3388ZM8.63953 18.948L9.41844 19.3388L9.00559 18.6502L8.63953 18.948ZM12.9593 19.8073L13.8372 19.628L13.2825 19.501L12.9593 19.8073ZM20.2853 14.2522L20.0642 15.3347L20.5358 14.001L20.2853 14.2522ZM11.1287 19.8073L12.044 19.8689L11.4701 19.501L11.1287 19.8073ZM19.2257 17.3215L18.6283 18.206L19.4867 17.0398L19.2257 17.3215ZM5.36028 14.0389L5.53965 14.9168L5.75889 13.7899L5.36028 14.0389ZM9.41844 19.3388L10.2508 19.628L9.77676 19.0372L9.41844 19.3388ZM7.27436 17.8933L7.92216 18.4634L7.65397 17.606L7.27436 17.8933ZM13.8372 19.628L14.6696 19.3388L14.1517 19.3234L13.8372 19.628ZM5.53965 14.9168L5.82879 15.7492L5.93648 14.659L5.53965 14.9168ZM16.1659 18.4634L16.8137 17.8933L16.4572 18.1705L16.1659 18.4634ZM12.044 19.8689L12.9593 19.8073L12.3763 19.562L12.044 19.8689ZM15.4485 18.948L16.1659 18.4634L15.747 18.6502L15.4485 18.948ZM5.82879 15.7492L6.21964 16.5281L6.22274 15.4832L5.82879 15.7492ZM18.6283 18.206L17.9252 19.0048L18.8952 17.9156L18.6283 18.206ZM19.7077 16.3611L19.2257 17.3215L19.9639 16.089L19.7077 16.3611ZM7.92216 18.4634L8.63953 18.948L8.29534 18.1705L7.92216 18.4634ZM5.29871 13.1236L5.36028 14.0389L5.69792 12.8836L5.29871 13.1236ZM16.2419 5.94191L17.1264 6.53937L16.5325 5.77323L16.2419 5.94191ZM20.0642 10.9126L20.2853 11.995L20.3168 10.6945L20.0642 10.9126ZM8.63953 7.29923L7.92216 7.78377L9.00559 7.11708L8.63953 7.29923ZM12.044 4.80636L13.1726 4.88229L12.3763 4.64895L12.044 4.80636ZM6.21964 9.71912L5.82879 10.498L6.60971 9.51295L6.21964 9.71912ZM20.2853 11.995L20.3613 13.1236L20.5358 11.7662L20.2853 11.995ZM17.1264 6.53937L17.9252 7.24243L17.4083 6.36475L17.1264 6.53937ZM7.27436 8.35396L6.70418 9.00175L7.65397 8.16133L7.27436 8.35396ZM8.80657 5.45997L9.83296 5.10346L9.17097 5.29607L8.80657 5.45997ZM20.3613 13.1236L20.2853 14.2522L20.611 12.8836L20.3613 13.1236ZM13.1726 4.88229L14.2551 5.10346L13.4937 4.72412L13.1726 4.88229ZM17.9252 7.24243L18.6283 8.04119L18.1991 7.06083L17.9252 7.24243ZM5.36028 12.2083L5.29871 13.1236L5.75889 11.9774L5.36028 12.2083ZM9.41844 6.90838L8.63953 7.29923L9.77676 6.7301L9.41844 6.90838ZM5.82879 10.498L5.53965 11.3304L6.22274 10.2841L5.82879 10.498ZM18.6283 8.04119L19.2257 8.92574L18.8952 7.85167L18.6283 8.04119ZM14.2551 5.10346L15.2815 5.45997L14.5654 4.9431L14.2551 5.10346ZM9.83296 5.10346L10.9154 4.88229L10.1872 4.9431L9.83296 5.10346ZM5.53965 11.3304L5.36028 12.2083L5.93648 11.1083L5.53965 11.3304ZM19.2257 8.92574L19.7077 9.88616L19.4867 8.72743L19.2257 8.92574ZM7.92216 7.78377L7.27436 8.35396L8.29534 7.5968L7.92216 7.78377ZM15.2815 5.45997L16.2419 5.94191L15.5816 5.29607L15.2815 5.45997ZM6.70418 9.00175L6.21964 9.71912L7.08944 8.8027L6.70418 9.00175ZM19.7077 9.88616L20.0642 10.9126L19.9639 9.67833L19.7077 9.88616ZM10.9154 4.88229L12.044 4.80636L11.2589 4.72412L10.9154 4.88229Z" fill="url(#paint20_linear_55_149)"/>
<path d="M5.82883 15.749L3.72681 13.1234L7.84618 20.3051L5.82883 15.749ZM19.2258 17.3213L19.7077 16.3608L20.0642 15.3345L19.2258 17.3213ZM18.7894 13.1234L18.7278 14.0387L20.3613 13.1234H18.7894ZM20.3613 13.1234L18.5484 11.3302L18.7278 12.2081L20.3613 13.1234ZM18.7278 14.0387L18.5484 14.9166L20.3613 13.1234L18.7278 14.0387ZM20.3613 13.1234L18.2593 10.4978L18.5484 11.3302L20.3613 13.1234ZM18.5484 14.9166L18.2593 15.749L20.3613 13.1234L18.5484 14.9166ZM20.3613 13.1234L16.2419 5.9417L18.2593 10.4978L20.3613 13.1234ZM18.2593 15.749L17.8684 16.5279L20.3613 13.1234L18.2593 15.749ZM16.2419 5.9417L17.8684 9.71891L18.2593 10.4978L16.2419 5.9417ZM17.8684 16.5279L17.3839 17.2453L20.3613 13.1234L17.8684 16.5279ZM16.2419 5.9417L17.3839 9.00154L17.8684 9.71891L16.2419 5.9417ZM17.3839 17.2453L16.2419 20.3051L20.3613 13.1234L17.3839 17.2453ZM16.2419 5.9417L16.8137 8.35375L17.3839 9.00154L16.2419 5.9417ZM17.3839 17.2453L16.8137 17.8931L16.2419 20.3051L17.3839 17.2453ZM16.2419 5.9417L16.1659 7.78356L16.8137 8.35375L16.2419 5.9417ZM16.8137 17.8931L16.1659 18.4632L16.2419 20.3051L16.8137 17.8931ZM16.2419 5.9417L15.4485 7.29902L16.1659 7.78356L16.2419 5.9417ZM16.1659 18.4632L15.4485 18.9478L16.2419 20.3051L16.1659 18.4632ZM16.2419 5.9417L14.6696 6.90817L15.4485 7.29902L16.2419 5.9417ZM15.4485 18.9478L14.6696 19.3386L16.2419 20.3051L15.4485 18.9478ZM16.2419 5.9417L13.8372 6.61904L14.6696 6.90817L16.2419 5.9417ZM14.6696 19.3386L13.8372 19.6278L16.2419 20.3051L14.6696 19.3386ZM16.2419 5.9417L12.9594 6.43967L13.8372 6.61904L16.2419 5.9417ZM13.8372 19.6278L12.9594 19.8071L16.2419 20.3051L13.8372 19.6278ZM16.2419 5.9417H7.84618L12.9594 6.43967L16.2419 5.9417ZM12.9594 19.8071L12.0441 19.8687L16.2419 20.3051L12.9594 19.8071ZM7.84618 5.9417L12.0441 6.37809L12.9594 6.43967L7.84618 5.9417ZM12.0441 19.8687L11.1288 19.8071L16.2419 20.3051L12.0441 19.8687ZM7.84618 5.9417L11.1288 6.43967L12.0441 6.37809L7.84618 5.9417ZM11.1288 19.8071L7.84618 20.3051H16.2419L11.1288 19.8071ZM7.84618 5.9417L10.2509 6.61904L11.1288 6.43967L7.84618 5.9417ZM11.1288 19.8071L10.2509 19.6278L7.84618 20.3051L11.1288 19.8071ZM7.84618 5.9417L9.41848 6.90817L10.2509 6.61904L7.84618 5.9417ZM10.2509 19.6278L9.41848 19.3386L7.84618 20.3051L10.2509 19.6278ZM7.84618 5.9417L8.63957 7.29902L9.41848 6.90817L7.84618 5.9417ZM9.41848 19.3386L8.63957 18.9478L7.84618 20.3051L9.41848 19.3386ZM7.84618 5.9417L7.9222 7.78356L8.63957 7.29902L7.84618 5.9417ZM8.63957 18.9478L7.9222 18.4632L7.84618 20.3051L8.63957 18.9478ZM7.84618 5.9417L7.2744 8.35375L7.9222 7.78356L7.84618 5.9417ZM7.9222 18.4632L7.2744 17.8931L7.84618 20.3051L7.9222 18.4632ZM7.84618 5.9417L6.70422 9.00154L7.2744 8.35375L7.84618 5.9417ZM7.2744 17.8931L6.70422 17.2453L7.84618 20.3051L7.2744 17.8931ZM7.84618 5.9417L3.72681 13.1234L6.70422 9.00154L7.84618 5.9417ZM6.70422 17.2453L6.21968 16.5279L7.84618 20.3051L6.70422 17.2453ZM3.72681 13.1234L6.21968 9.71891L6.70422 9.00154L3.72681 13.1234ZM6.21968 16.5279L5.82883 15.749L7.84618 20.3051L6.21968 16.5279ZM3.72681 13.1234L5.82883 10.4978L6.21968 9.71891L3.72681 13.1234ZM20.3613 13.1234L18.7278 12.2081L18.7894 13.1234H20.3613ZM20.3613 13.1234L19.2258 8.92553L16.2419 5.9417L20.3613 13.1234ZM16.2419 5.9417L12.0441 4.80615L7.84618 5.9417H16.2419ZM7.84618 5.9417L4.86235 8.92553L3.72681 13.1234L7.84618 5.9417ZM3.72681 13.1234L5.53969 11.3302L5.82883 10.4978L3.72681 13.1234ZM5.82883 15.749L5.53969 14.9166L3.72681 13.1234L5.82883 15.749ZM3.72681 13.1234L4.86235 17.3213L7.84618 20.3051L3.72681 13.1234ZM7.84618 20.3051L12.0441 21.4406L16.2419 20.3051H7.84618ZM16.2419 20.3051L19.2258 17.3213L20.3613 13.1234L16.2419 20.3051ZM20.3613 13.1234L20.0642 10.9123L19.2258 8.92553L20.3613 13.1234ZM19.2258 8.92553L17.9252 7.24222L16.2419 5.9417L19.2258 8.92553ZM16.2419 5.9417L14.2551 5.10325L12.0441 4.80615L16.2419 5.9417ZM12.0441 4.80615L9.833 5.10325L7.84618 5.9417L12.0441 4.80615ZM7.84618 5.9417L6.16287 7.24222L4.86235 8.92553L7.84618 5.9417ZM4.86235 8.92553L4.02391 10.9123L3.72681 13.1234L4.86235 8.92553ZM3.72681 13.1234L5.36032 12.2081L5.53969 11.3302L3.72681 13.1234ZM5.53969 14.9166L5.36032 14.0387L3.72681 13.1234L5.53969 14.9166ZM3.72681 13.1234L4.02391 15.3345L4.86235 17.3213L3.72681 13.1234ZM4.86235 17.3213L6.16287 19.0046L7.84618 20.3051L4.86235 17.3213ZM7.84618 20.3051L9.833 21.1435L12.0441 21.4406L7.84618 20.3051ZM12.0441 21.4406L14.2551 21.1435L16.2419 20.3051L12.0441 21.4406ZM16.2419 20.3051L17.9252 19.0046L19.2258 17.3213L16.2419 20.3051ZM19.2258 17.3213L20.0642 15.3345L20.3613 13.1234L19.2258 17.3213ZM20.3613 13.1234L20.2854 11.9948L20.0642 10.9123L20.3613 13.1234ZM20.0642 10.9123L19.7077 9.88595L19.2258 8.92553L20.0642 10.9123ZM19.2258 8.92553L18.6283 8.04098L17.9252 7.24222L19.2258 8.92553ZM17.9252 7.24222L17.1265 6.53916L16.2419 5.9417L17.9252 7.24222ZM16.2419 5.9417L15.2815 5.45976L14.2551 5.10325L16.2419 5.9417ZM14.2551 5.10325L13.1727 4.88208L12.0441 4.80615L14.2551 5.10325ZM12.0441 4.80615L10.9155 4.88208L9.833 5.10325L12.0441 4.80615ZM9.833 5.10325L8.80661 5.45976L7.84618 5.9417L9.833 5.10325ZM7.84618 5.9417L6.96163 6.53916L6.16287 7.24222L7.84618 5.9417ZM6.16287 7.24222L5.45981 8.04098L4.86235 8.92553L6.16287 7.24222ZM4.86235 8.92553L4.38042 9.88595L4.02391 10.9123L4.86235 8.92553ZM4.02391 10.9123L3.80273 11.9948L3.72681 13.1234L4.02391 10.9123ZM3.72681 13.1234H5.29875L5.36032 12.2081L3.72681 13.1234ZM5.36032 14.0387L5.29875 13.1234H3.72681L5.36032 14.0387ZM3.72681 13.1234L3.80273 14.252L4.02391 15.3345L3.72681 13.1234ZM4.02391 15.3345L4.38042 16.3608L4.86235 17.3213L4.02391 15.3345ZM4.86235 17.3213L5.45981 18.2058L6.16287 19.0046L4.86235 17.3213ZM6.16287 19.0046L6.96163 19.7076L7.84618 20.3051L6.16287 19.0046ZM7.84618 20.3051L8.80661 20.787L9.833 21.1435L7.84618 20.3051ZM9.833 21.1435L10.9155 21.3647L12.0441 21.4406L9.833 21.1435ZM12.0441 21.4406L13.1727 21.3647L14.2551 21.1435L12.0441 21.4406ZM14.2551 21.1435L15.2815 20.787L16.2419 20.3051L14.2551 21.1435ZM16.2419 20.3051L17.1265 19.7076L17.9252 19.0046L16.2419 20.3051ZM17.9252 19.0046L18.6283 18.2058L19.2258 17.3213L17.9252 19.0046ZM20.0642 15.3345L20.2854 14.252L20.3613 13.1234L20.0642 15.3345Z" fill="url(#paint21_linear_55_149)"/>
</g>
<path fill-rule="evenodd" clip-rule="evenodd" d="M17.3315 16.2026L16.6572 2.27344L15.2189 4.0611L15.8023 17.8825C16.1895 17.5843 16.9907 16.7421 17.3315 16.2026Z" fill="url(#paint22_linear_55_149)"/>
<path fill-rule="evenodd" clip-rule="evenodd" d="M13.6491 16.3568C13.6176 16.3806 13.5804 16.3944 13.5408 16.3944H13.4914H10.4692C10.3563 16.3944 10.2631 16.282 10.2631 16.1447V14.654C10.2631 14.5166 10.3559 14.4043 10.4692 14.4043H13.5408C13.5925 14.4043 13.64 14.4277 13.6763 14.4663C13.6825 14.4699 13.6884 14.4737 13.6941 14.4778L14.8006 15.2698C14.9023 15.3427 14.9023 15.4623 14.8006 15.5352L13.6766 16.3397C13.6679 16.346 13.6587 16.3516 13.6491 16.3568Z" fill="#B2230C"/>
<path fill-rule="evenodd" clip-rule="evenodd" d="M10.8649 16.3872H9.96201C9.84994 16.3872 9.75586 16.2748 9.75586 16.1375V14.6883C9.75586 14.551 9.84866 14.4405 9.96201 14.4387L11.6924 14.4111C11.9842 14.4065 11.3083 16.3872 10.8649 16.3872Z" fill="#962212"/>
<path fill-rule="evenodd" clip-rule="evenodd" d="M15.3872 7.34334H14.4843C14.3731 7.34334 14.2552 7.24823 14.2782 7.13719L14.7248 4.97842C14.7478 4.86738 14.8177 4.77375 14.931 4.77227L16.6614 4.74952C16.9532 4.74567 15.8306 7.34334 15.3872 7.34334Z" fill="#962212"/>
<path fill-rule="evenodd" clip-rule="evenodd" d="M13.5286 3.30824L16.0956 1.31664L16.0958 1.31658C16.3551 1.05884 16.7214 1.25233 16.7253 1.5915L16.7614 4.76588L8.25877 21.4359C8.21087 21.5298 8.09326 21.6077 7.99927 21.6077H5.57094C5.47713 21.6077 5.43849 21.5303 5.48683 21.4359L14.3792 4.08046L13.5569 3.81512C13.2973 3.73134 13.3467 3.44935 13.5286 3.30824Z" fill="#FC3110"/>
<path fill-rule="evenodd" clip-rule="evenodd" d="M13.5096 3.31898L16.0767 1.32738L16.0769 1.32732C16.3362 1.06958 16.7025 1.26307 16.7064 1.60224L16.7424 4.77662L8.23985 21.4466C8.19195 21.5406 8.07434 21.6184 7.98035 21.6184H5.55202C5.45821 21.6184 5.41957 21.541 5.46791 21.4466L14.3602 4.09121L13.538 3.82586C13.2784 3.74208 13.3277 3.46009 13.5096 3.31898Z" fill="#FC3110"/>
<mask id="mask1_55_149" style="mask-type:alpha" maskUnits="userSpaceOnUse" x="5" y="1" width="12" height="21">
<path fill-rule="evenodd" clip-rule="evenodd" d="M13.5096 3.31898L16.0767 1.32738L16.0769 1.32732C16.3362 1.06958 16.7025 1.26307 16.7064 1.60224L16.7424 4.77662L8.23985 21.4466C8.19195 21.5406 8.07434 21.6184 7.98035 21.6184H5.55202C5.45821 21.6184 5.41957 21.541 5.46791 21.4466L14.3602 4.09121L13.538 3.82586C13.2784 3.74208 13.3277 3.46009 13.5096 3.31898Z" fill="#FC3110"/>
</mask>
<g mask="url(#mask1_55_149)">
<path d="M17.3977 3.02201L7.06892 23.168L7.03442 23.1504L17.3632 3.00439L17.3977 3.02201Z" fill="#F8B670"/>
<path d="M18.0045 1.28324L6.0146 24.6692L5.9801 24.6516L17.97 1.26562L18.0045 1.28324Z" fill="#E5097F"/>
<path d="M18.6115 -0.455526L4.9604 26.1705L4.9259 26.1529L18.577 -0.473145L18.6115 -0.455526Z" fill="#009846"/>
<path d="M19.2183 -2.19478L3.90608 27.6712L3.87158 27.6536L19.1838 -2.2124L19.2183 -2.19478Z" fill="#9089B0"/>
<path d="M19.8252 -3.93355L2.85188 29.1724L2.81738 29.1548L19.7907 -3.95117L19.8252 -3.93355Z" fill="#CB5499"/>
<path d="M20.4322 -5.67232L1.79768 30.6736L1.76318 30.656L20.3977 -5.68994L20.4322 -5.67232Z" fill="#F08683"/>
<path d="M21.039 -7.41109L0.74336 32.1749L0.708862 32.1572L21.0045 -7.42871L21.039 -7.41109Z" fill="#A8D4AF"/>
<path d="M21.6459 -9.14986L-0.310839 33.6761L-0.345337 33.6585L21.6114 -9.16748L21.6459 -9.14986Z" fill="#F08143"/>
<path d="M22.2527 -10.8886L-1.36516 35.1773L-1.39966 35.1597L22.2182 -10.9062L22.2527 -10.8886Z" fill="#A79ECD"/>
<path d="M22.8597 -12.6274L-2.41936 36.6785L-2.45386 36.6609L22.8252 -12.645L22.8597 -12.6274Z" fill="#57A7B3"/>
<path d="M23.4666 -14.3667L-3.47356 38.1793L-3.50806 38.1616L23.4321 -14.3843L23.4666 -14.3667Z" fill="#CE82B5"/>
<path d="M24.0734 -16.1054L-4.52788 39.6805L-4.56238 39.6629L24.0389 -16.123L24.0734 -16.1054Z" fill="#A79ECD"/>
<path d="M24.6803 -17.8442L-5.58208 41.1817L-5.61658 41.1641L24.6458 -17.8618L24.6803 -17.8442Z" fill="#F8B670"/>
<path d="M25.2872 -19.583L-6.6364 42.6829L-6.6709 42.6653L25.2527 -19.6006L25.2872 -19.583Z" fill="#A79ECD"/>
</g>
<defs>
<linearGradient id="paint0_linear_55_149" x1="68.0464" y1="18.5413" x2="67.6092" y2="6.71824" gradientUnits="userSpaceOnUse">
<stop stop-color="#6B4500"/>
<stop offset="0.322917" stop-color="#D5B26B"/>
<stop offset="0.546875" stop-color="#F8F9D0"/>
<stop offset="1" stop-color="#997A3D"/>
</linearGradient>
<linearGradient id="paint1_linear_55_149" x1="79.5531" y1="22.8415" x2="79.3923" y2="7.69991" gradientUnits="userSpaceOnUse">
<stop stop-color="#6B4500"/>
<stop offset="0.322917" stop-color="#D5B26B"/>
<stop offset="0.546875" stop-color="#F8F9D0"/>
<stop offset="1" stop-color="#997A3D"/>
</linearGradient>
<linearGradient id="paint2_linear_55_149" x1="53.9671" y1="8.57932" x2="51.8205" y2="17.3395" gradientUnits="userSpaceOnUse">
<stop stop-color="#202020"/>
<stop offset="1" stop-color="#616161"/>
</linearGradient>
<linearGradient id="paint3_linear_55_149" x1="68.0669" y1="15.7397" x2="63.9577" y2="0.551874" gradientUnits="userSpaceOnUse">
<stop stop-color="#202020"/>
<stop offset="1" stop-color="#616161"/>
</linearGradient>
<linearGradient id="paint4_linear_55_149" x1="77.6573" y1="20.243" x2="68.98" y2="-3.36085" gradientUnits="userSpaceOnUse">
<stop stop-color="#202020"/>
<stop offset="1" stop-color="#616161"/>
</linearGradient>
<linearGradient id="paint5_linear_55_149" x1="68.1802" y1="15.8065" x2="63.8798" y2="0.249094" gradientUnits="userSpaceOnUse">
<stop stop-color="#202020"/>
<stop offset="1" stop-color="#616161"/>
</linearGradient>
<linearGradient id="paint6_linear_55_149" x1="58.4969" y1="23.6174" x2="31.0076" y2="0.322075" gradientUnits="userSpaceOnUse">
<stop stop-color="#FF0000"/>
<stop offset="1"/>
</linearGradient>
<linearGradient id="paint7_linear_55_149" x1="58.4969" y1="23.6174" x2="31.0076" y2="0.322075" gradientUnits="userSpaceOnUse">
<stop stop-color="#FF0000"/>
<stop offset="1"/>
</linearGradient>
<linearGradient id="paint8_linear_55_149" x1="50.742" y1="5.92767" x2="53.3221" y2="27.4285" gradientUnits="userSpaceOnUse">
<stop stop-color="#FC3110"/>
<stop offset="0.979167"/>
</linearGradient>
<linearGradient id="paint9_linear_55_149" x1="50.742" y1="5.92767" x2="53.3221" y2="27.4285" gradientUnits="userSpaceOnUse">
<stop stop-color="#FC3110"/>
<stop offset="0.979167"/>
</linearGradient>
<linearGradient id="paint10_linear_55_149" x1="50.742" y1="5.92767" x2="53.3221" y2="27.4285" gradientUnits="userSpaceOnUse">
<stop stop-color="#FC3110"/>
<stop offset="0.979167"/>
</linearGradient>
<linearGradient id="paint11_linear_55_149" x1="50.742" y1="5.92767" x2="53.3221" y2="27.4285" gradientUnits="userSpaceOnUse">
<stop stop-color="#FC3110"/>
<stop offset="0.979167"/>
</linearGradient>
<linearGradient id="paint12_linear_55_149" x1="50.742" y1="5.92767" x2="53.3221" y2="27.4285" gradientUnits="userSpaceOnUse">
<stop stop-color="#FC3110"/>
<stop offset="0.979167"/>
</linearGradient>
<linearGradient id="paint13_linear_55_149" x1="50.742" y1="5.92767" x2="53.3221" y2="27.4285" gradientUnits="userSpaceOnUse">
<stop stop-color="#FC3110"/>
<stop offset="0.979167"/>
</linearGradient>
<linearGradient id="paint14_linear_55_149" x1="50.742" y1="5.92767" x2="53.3221" y2="27.4285" gradientUnits="userSpaceOnUse">
<stop stop-color="#FC3110"/>
<stop offset="0.979167"/>
</linearGradient>
<linearGradient id="paint15_linear_55_149" x1="50.742" y1="5.92767" x2="53.3221" y2="27.4285" gradientUnits="userSpaceOnUse">
<stop stop-color="#FC3110"/>
<stop offset="0.979167"/>
</linearGradient>
<linearGradient id="paint16_linear_55_149" x1="50.742" y1="5.92767" x2="53.3221" y2="27.4285" gradientUnits="userSpaceOnUse">
<stop stop-color="#FC3110"/>
<stop offset="0.979167"/>
</linearGradient>
<linearGradient id="paint17_linear_55_149" x1="50.742" y1="5.92767" x2="53.3221" y2="27.4285" gradientUnits="userSpaceOnUse">
<stop stop-color="#FC3110"/>
<stop offset="0.979167"/>
</linearGradient>
<linearGradient id="paint18_linear_55_149" x1="50.742" y1="5.92767" x2="53.3221" y2="27.4285" gradientUnits="userSpaceOnUse">
<stop stop-color="#FC3110"/>
<stop offset="0.979167"/>
</linearGradient>
<linearGradient id="paint19_linear_55_149" x1="50.742" y1="5.92767" x2="53.3221" y2="27.4285" gradientUnits="userSpaceOnUse">
<stop stop-color="#FC3110"/>
<stop offset="0.979167"/>
</linearGradient>
<linearGradient id="paint20_linear_55_149" x1="19.2171" y1="19.8689" x2="16.2098" y2="3.00993" gradientUnits="userSpaceOnUse">
<stop stop-color="#6B4500"/>
<stop offset="0.322917" stop-color="#D5B26B"/>
<stop offset="0.546875" stop-color="#F8F9D0"/>
<stop offset="1" stop-color="#997A3D"/>
</linearGradient>
<linearGradient id="paint21_linear_55_149" x1="18.6158" y1="16.9867" x2="6.1446" y2="7.54158" gradientUnits="userSpaceOnUse">
<stop stop-color="#110303"/>
<stop offset="1" stop-color="#616161"/>
</linearGradient>
<linearGradient id="paint22_linear_55_149" x1="16.2724" y1="2.27344" x2="16.2724" y2="17.8825" gradientUnits="userSpaceOnUse">
<stop stop-color="#FF0000"/>
<stop offset="1"/>
</linearGradient>
</defs>
</svg>
