<svg width="71" height="51" viewBox="0 0 71 51" fill="none" xmlns="http://www.w3.org/2000/svg">
<path d="M15.0645 17.8813C14.7313 16.5336 13.9548 16 12.7351 16.2805C12.225 16.3977 11.8283 16.6524 11.5448 17.0445C11.2785 17.4092 11.0778 17.8056 10.9427 18.2336C10.7786 18.7383 10.6826 19.2858 10.6549 19.8759C10.5531 19.1287 10.5801 18.4337 10.7358 17.7909C10.8676 17.2469 11.1315 16.7192 11.5276 16.2079C11.9237 15.6965 12.5542 15.3414 13.4191 15.1425C13.8848 15.0354 14.3043 15.0324 14.6778 15.1333C15.0734 15.2291 15.4152 15.3957 15.7033 15.633C16.0084 15.843 16.2572 16.1127 16.4497 16.442C16.6592 16.7441 16.7997 17.0503 16.8711 17.3608C17.0666 18.1097 17.1035 18.9301 16.9817 19.822C16.877 20.6867 16.6665 21.599 16.3502 22.559C16.0339 23.5189 15.634 24.5215 15.1505 25.5666C14.6619 26.5896 14.1426 27.6313 13.5926 28.6917C13.1007 29.5987 12.6973 30.6371 12.3826 31.8068C12.0849 32.9493 11.922 34.1192 11.8937 35.3165C11.8826 36.4865 12.0403 37.6294 12.3669 38.7451C12.7105 39.8335 13.2888 40.7746 14.1018 41.5683C13.737 41.302 13.3816 40.9751 13.0357 40.5876C12.7273 40.2616 12.401 39.858 12.0568 39.3768C11.7076 38.8733 11.3925 38.3154 11.1115 37.7029C10.6042 36.512 10.3973 35.0535 10.4908 33.3276C10.5842 31.6016 11.1477 29.6858 12.1812 27.5803C12.6989 26.4806 13.1704 25.4849 13.5958 24.5932C14.0434 23.6965 14.3988 22.8559 14.6621 22.0715C14.9475 21.2821 15.1297 20.5514 15.2087 19.8795C15.3099 19.2024 15.2618 18.5364 15.0645 17.8813Z" fill="#5E710C"/>
<path d="M57.6965 42.6447V24.6764H59.2367V29.8102H68.9909V24.6764H70.531V42.6447H68.9909V31.3503H59.2367V42.6447H57.6965Z" fill="#5E710C"/>
<path d="M46.7411 22.5972C46.7411 21.9554 47.1775 21.5191 47.8192 21.5191C48.4609 21.5191 48.8973 21.9554 48.8973 22.5972C48.8973 23.2389 48.4609 23.6753 47.8192 23.6753C47.1775 23.6753 46.7411 23.2389 46.7411 22.5972ZM49.7444 22.5972C49.7444 21.9554 50.1808 21.5191 50.8225 21.5191C51.4642 21.5191 51.9006 21.9554 51.9006 22.5972C51.9006 23.2389 51.4642 23.6753 50.8225 23.6753C50.1808 23.6753 49.7444 23.2389 49.7444 22.5972ZM45.7144 42.6447V24.6764H52.8247V26.2165H47.2545V29.8102H53.5947V31.3503H47.2545V41.1045H54.1081V42.6447H45.7144Z" fill="#5E710C"/>
<path d="M24.8507 42.6447H20.9971C25.4144 42.2136 33.6919 41.8554 35.6727 24.6764H40.5755V42.6447H39.0353V26.2165H37.0331C35.9807 33.4808 32.7054 42.6447 24.8507 42.6447Z" fill="#5E710C"/>
<path fill-rule="evenodd" clip-rule="evenodd" d="M13.1355 2.79672C12.9882 3.12025 12.8115 3.50456 12.5936 3.94372C12.1919 4.75368 12.0625 5.5383 12.0033 6.15456C11.9884 6.309 11.9781 6.45203 11.9686 6.58415L11.9672 6.6039C11.9584 6.72647 11.9501 6.84363 11.9394 6.94537C11.9285 7.04942 11.9132 7.15946 11.885 7.25547C11.8614 7.33536 11.8036 7.49886 11.6417 7.59371C11.4398 7.71192 11.2451 7.63615 11.1506 7.58046C11.0551 7.52419 10.9754 7.44295 10.9157 7.3745C10.792 7.23286 10.6622 7.03731 10.5473 6.85944C10.5463 6.85793 10.5454 6.85642 10.5444 6.8549C10.5615 7.0512 10.5771 7.27641 10.5854 7.52631C10.6037 8.07294 10.7539 8.44951 10.8818 8.76997L10.8905 8.792C10.95 8.94095 11.0201 9.11675 11.0452 9.28655C11.0749 9.48746 11.0459 9.70034 10.8974 9.8989C10.7479 10.0987 10.5247 10.1229 10.3741 10.1052C10.2287 10.0882 10.0838 10.0289 9.9596 9.96635C9.70517 9.83815 9.41462 9.63158 9.14928 9.42764C8.97484 9.29357 8.80203 9.15331 8.64765 9.02662C8.75111 9.36282 8.92718 9.84154 9.21175 10.5118C9.42367 11.0109 9.6416 11.4852 9.84465 11.9247C9.85906 11.9559 9.8734 11.9869 9.88767 12.0178C10.0733 12.4195 10.2465 12.7942 10.3852 13.1238C10.5326 13.4741 10.6525 13.7994 10.7044 14.0691C10.7303 14.2041 10.7441 14.3485 10.7232 14.4868C10.7015 14.6307 10.6383 14.7873 10.4959 14.9028C10.389 14.9894 10.2538 15.0493 10.0941 15.0457C9.94697 15.0424 9.82144 14.9858 9.72453 14.9272C9.54212 14.817 9.33699 14.6195 9.11269 14.4022C9.08955 14.3798 9.06582 14.3568 9.04146 14.3331C8.5704 13.8761 7.86531 13.1919 6.7017 12.346C5.50226 11.4741 4.4478 11.1215 3.67858 10.9942C3.31036 10.9333 3.0065 10.9239 2.7823 10.9343C2.81155 10.9737 2.8436 11.0163 2.87841 11.0624C2.88584 11.0723 2.89337 11.0823 2.90098 11.0924C3.15976 11.4354 3.52103 11.9142 3.7553 12.4231C3.97765 12.9061 4.24071 13.5131 4.39601 14.001C4.47128 14.2375 4.53336 14.482 4.53755 14.6799C4.53952 14.7727 4.53125 14.9167 4.4507 15.0459C4.4058 15.1179 4.33888 15.1841 4.24781 15.2263C4.17376 15.2606 4.09952 15.2718 4.03315 15.2708C4.07058 15.3236 4.12468 15.3894 4.20144 15.4683C4.46056 15.7349 4.99445 16.0716 5.52334 16.4024L5.52817 16.4054C5.7784 16.5619 6.02476 16.716 6.20983 16.8478C6.30223 16.9137 6.39157 16.9825 6.46203 17.0502C6.49717 17.084 6.53624 17.1257 6.56965 17.174C6.59966 17.2175 6.64753 17.2979 6.65753 17.4051C6.68037 17.6497 6.49018 17.7752 6.45314 17.7988C6.38835 17.8401 6.31601 17.8668 6.26007 17.8847C6.14184 17.9225 5.98679 17.9548 5.82193 17.9839C5.55244 18.0315 5.20867 18.0784 4.85773 18.1263C4.77433 18.1377 4.69052 18.1491 4.6072 18.1607C4.53175 18.1711 4.45663 18.1816 4.38231 18.1922C4.79385 18.2933 5.30673 18.4259 5.77097 18.5555C6.11283 18.6509 6.43467 18.7465 6.67207 18.8278C6.78885 18.8678 6.89613 18.9081 6.97759 18.9463C7.01571 18.9642 7.06607 18.9898 7.11162 19.0235C7.13328 19.0395 7.17229 19.0706 7.20734 19.1183C7.24034 19.1632 7.3049 19.2722 7.27732 19.4194C7.27504 19.4315 7.27232 19.4433 7.26919 19.4546C7.37468 19.4674 7.4836 19.4803 7.59423 19.4933C7.66757 19.5019 7.74159 19.5105 7.81566 19.5191C8.1674 19.5599 8.52013 19.6009 8.80512 19.6408C8.97698 19.6649 9.13288 19.6898 9.25308 19.7155C9.31214 19.7282 9.37259 19.7432 9.42564 19.7615C9.45189 19.7705 9.48531 19.7834 9.51936 19.8016C9.54561 19.8156 9.61149 19.8528 9.6648 19.9253C9.71748 19.9971 9.7511 20.0889 9.74767 20.1913C9.74446 20.2868 9.71009 20.3623 9.67908 20.4124C9.62237 20.5039 9.54024 20.5686 9.48492 20.6084C9.36492 20.6945 9.19074 20.7862 9.00327 20.8801C8.9051 20.9293 8.79812 20.9817 8.6834 21.0378C8.33812 21.2067 7.92267 21.4099 7.46595 21.6653C6.91336 21.9744 6.36733 22.5438 5.96794 23.0969C5.77027 23.3706 5.61741 23.6281 5.52232 23.8307C5.50154 23.875 5.48429 23.915 5.47024 23.9506C5.5732 23.9302 5.69658 23.899 5.85663 23.8586C5.90139 23.8473 5.94901 23.8353 5.99987 23.8226C6.22689 23.7658 6.50201 23.6995 6.83047 23.6354C8.11534 23.3847 9.11978 23.2526 9.28355 23.2373C9.30462 23.2354 9.33942 23.2335 9.38088 23.2393C9.41897 23.2447 9.49474 23.2608 9.56826 23.32C9.65481 23.3897 9.70132 23.4892 9.70795 23.5885C9.70988 23.6173 9.70836 23.6438 9.70499 23.6675C10.1034 23.5416 10.9188 23.5184 11.4841 23.251C13.3488 22.3289 13.2891 21.563 13.5956 21.1681C13.3774 23.1873 11.2621 24.0484 9.50498 24.4945C9.26373 24.5558 9.05655 24.5931 8.9028 24.6014C8.83496 24.6051 8.73558 24.6062 8.64217 24.5773C8.59821 24.5637 8.49905 24.5267 8.42506 24.4259C8.3504 24.3242 8.33807 24.2107 8.35656 24.1162C7.97082 24.1779 7.49638 24.2596 6.97227 24.3619C6.66189 24.4225 6.40079 24.4853 6.17945 24.5407C6.1354 24.5517 6.09218 24.5626 6.04998 24.5733C5.88599 24.6147 5.73725 24.6523 5.61358 24.6768C5.46948 24.7054 5.28725 24.7333 5.11944 24.6896C5.02383 24.6647 4.92894 24.6161 4.84989 24.5338C4.77328 24.4541 4.72976 24.3618 4.70431 24.2767C4.66029 24.1295 4.68905 23.9784 4.71476 23.8801C4.74452 23.7663 4.79308 23.6423 4.85227 23.5162C4.9713 23.2626 5.14998 22.9653 5.36786 22.6636C5.79958 22.0657 6.42081 21.4018 7.10462 21.0193C7.58113 20.7528 8.02386 20.5363 8.37128 20.3664C8.39107 20.3567 8.41056 20.3471 8.42972 20.3378C8.21476 20.3106 7.97646 20.2829 7.73338 20.2547C7.65859 20.246 7.58335 20.2373 7.50819 20.2285C7.08526 20.179 6.66236 20.1275 6.36182 20.0754C6.21749 20.0504 6.07538 20.0211 5.97324 19.9843C5.94582 19.9745 5.91272 19.9611 5.8793 19.9429C5.85082 19.9275 5.79517 19.8945 5.74633 19.8356C5.69057 19.7684 5.62679 19.6421 5.66802 19.4863C5.68729 19.4135 5.72358 19.3594 5.75858 19.3211C5.69777 19.3037 5.63544 19.2861 5.57197 19.2684C4.89744 19.0801 4.11856 18.8855 3.71715 18.795C3.39914 18.7234 3.1703 18.7598 2.99562 18.7876C2.98704 18.789 2.97859 18.7904 2.97027 18.7917C2.92814 18.7983 2.86807 18.8077 2.81101 18.8095C2.76487 18.8111 2.64151 18.8128 2.52447 18.7352C2.37602 18.6368 2.33745 18.4853 2.33351 18.3854C2.33008 18.2984 2.34953 18.2156 2.36592 18.1566C2.40503 18.0158 2.50154 17.9295 2.56194 17.8851C2.62784 17.8367 2.70184 17.8008 2.76885 17.7735C2.90405 17.7183 3.07337 17.6729 3.25057 17.6339C3.60849 17.5552 4.06715 17.4881 4.50587 17.4274C4.59342 17.4153 4.68012 17.4035 4.76532 17.3919C5.04396 17.3538 5.30656 17.318 5.53014 17.2823C5.41071 17.2051 5.27584 17.1206 5.13087 17.03L5.09526 17.0077C4.60832 16.7033 3.99972 16.3228 3.67067 15.9842C3.50612 15.8149 3.38178 15.6512 3.30625 15.492C3.2316 15.3346 3.18742 15.1428 3.25245 14.9509C3.3205 14.7501 3.47798 14.6361 3.62455 14.5812C3.67408 14.5627 3.72505 14.5495 3.77629 14.5408C3.75914 14.458 3.73116 14.3527 3.69069 14.2255C3.55012 13.7839 3.30354 13.2119 3.08293 12.7326C2.8825 12.2972 2.56204 11.8723 2.29285 11.5153L2.28523 11.5052C2.15914 11.338 2.03185 11.1692 1.95437 11.0346C1.91899 10.9731 1.86673 10.8742 1.85175 10.763C1.84355 10.7022 1.84239 10.6086 1.88903 10.5104C1.9398 10.4036 2.02591 10.3358 2.11216 10.3002C2.22807 10.2524 2.4424 10.2121 2.70916 10.197C2.98953 10.181 3.35915 10.1911 3.7994 10.264C4.6819 10.41 5.84408 10.8075 7.13693 11.7473C8.34324 12.6242 9.07867 13.3379 9.5559 13.8009C9.5805 13.8248 9.60442 13.848 9.62768 13.8706C9.77964 14.0178 9.89012 14.122 9.97451 14.1938C9.93633 14.0065 9.84429 13.7467 9.70297 13.4109C9.56948 13.0937 9.40163 12.7305 9.21401 12.3246C9.20035 12.295 9.18657 12.2652 9.1727 12.2352C8.96961 11.7956 8.74732 11.312 8.53042 10.8011C8.09979 9.78678 7.89085 9.1526 7.81561 8.76312C7.77985 8.57802 7.76341 8.39786 7.80318 8.24727C7.82463 8.16605 7.87128 8.06031 7.97378 7.98131C8.08315 7.89702 8.20646 7.88107 8.30345 7.89331C8.3679 7.90145 8.41743 7.92418 8.43703 7.93352C8.4628 7.9458 8.48584 7.95934 8.50389 7.97061C8.54022 7.9933 8.57887 8.02104 8.61583 8.04881C8.69067 8.10503 8.78418 8.18078 8.88529 8.2637C8.92235 8.29409 8.96086 8.3258 9.00059 8.35851C9.18239 8.50819 9.38963 8.67881 9.60034 8.84076C9.85995 9.04029 10.1035 9.20978 10.2913 9.30466C10.2725 9.24363 10.2423 9.16478 10.1978 9.05319C10.1953 9.04689 10.1928 9.04053 10.1902 9.03412C10.0581 8.70323 9.86828 8.22753 9.84564 7.55107C9.83096 7.11233 9.79506 6.77895 9.76658 6.51453C9.7555 6.41163 9.74554 6.31916 9.7384 6.235C9.73224 6.16253 9.72779 6.09019 9.72865 6.02399C9.72945 5.96289 9.73468 5.87787 9.76389 5.79357C9.79624 5.7002 9.87066 5.57644 10.0234 5.51593C10.1575 5.46281 10.2817 5.48821 10.3499 5.50835C10.4859 5.54857 10.5849 5.64515 10.6365 5.69947C10.6999 5.76606 10.7618 5.84628 10.8187 5.92584C10.9074 6.04969 11.0039 6.20038 11.0952 6.34288C11.1203 6.38204 11.145 6.42059 11.1691 6.4578C11.1895 6.48947 11.2095 6.52017 11.229 6.54978C11.2291 6.54802 11.2292 6.54626 11.2294 6.5445L11.2303 6.53138C11.2397 6.39923 11.2507 6.24813 11.2665 6.08375C11.3298 5.42477 11.472 4.53925 11.9305 3.61481C12.1428 3.18677 12.3156 2.81129 12.4618 2.49005C12.4815 2.44685 12.5008 2.40443 12.5197 2.36286C12.6396 2.09893 12.7441 1.86894 12.8369 1.68549C12.9381 1.48525 13.0512 1.28548 13.19 1.1574C13.2656 1.08765 13.3739 1.01516 13.5161 0.996058C13.6646 0.97611 13.7939 1.02167 13.8928 1.0848C14.0411 1.17939 14.1135 1.33126 14.1521 1.43455C14.1952 1.54986 14.2241 1.68372 14.2454 1.82053C14.2882 2.09542 14.3092 2.44526 14.3232 2.81998C14.3315 3.04249 14.3375 3.27554 14.3437 3.51351C14.3588 4.09638 14.3746 4.70882 14.4269 5.26843C14.4576 5.59786 14.4747 5.88016 14.4887 6.11205C14.4921 6.1673 14.4952 6.21968 14.4984 6.26916C14.5153 6.5359 14.5306 6.69267 14.5559 6.78996C14.5916 6.7857 14.6505 6.77535 14.7418 6.75018C14.8656 6.71604 15.0293 6.61533 15.2269 6.44845C15.411 6.29291 15.5917 6.10891 15.7657 5.93175L15.7995 5.89732C15.9593 5.73458 16.1427 5.54785 16.2968 5.45048C16.3407 5.42275 16.3998 5.3905 16.4694 5.37058C16.5393 5.35058 16.6473 5.33558 16.7642 5.3807C17.016 5.4779 17.0536 5.73246 17.0619 5.82161C17.0743 5.95443 17.0512 6.11415 17.0236 6.25817C16.994 6.41276 16.9502 6.59201 16.9002 6.78104C16.8486 6.97601 16.7841 7.20392 16.719 7.43429C16.6632 7.63172 16.6068 7.83096 16.5576 8.01283C16.4589 8.37794 16.3795 8.70572 16.3433 8.95312C16.4163 8.90079 16.4977 8.83802 16.5864 8.76616C16.8092 8.58556 17.0552 8.3666 17.3036 8.14538C17.3729 8.08373 17.4423 8.02191 17.5115 7.96069C17.8159 7.69137 18.1303 7.42005 18.3686 7.27278C18.4305 7.23454 18.4988 7.19726 18.569 7.17045C18.6318 7.14646 18.7375 7.1144 18.8579 7.13287C19.0098 7.15617 19.1364 7.25265 19.1989 7.3957C19.2485 7.5094 19.2452 7.62407 19.2369 7.70025C19.1857 8.16985 19 8.7052 18.7712 9.22713C18.5399 9.75466 18.2525 10.2949 17.9788 10.7801C17.8287 11.0463 17.7293 11.25 17.6651 11.4044C17.7237 11.3928 17.7979 11.3874 17.8793 11.4054C17.9841 11.4286 18.0755 11.4852 18.1443 11.5662C18.278 11.7238 18.2514 11.9105 18.2383 11.979C18.2243 12.0521 18.1983 12.1249 18.1701 12.191C18.2632 12.0764 18.351 11.9695 18.4308 11.8745C18.5462 11.737 18.6506 11.617 18.7327 11.5322C18.772 11.4916 18.8169 11.4479 18.8614 11.4135C18.8815 11.398 18.9199 11.3698 18.97 11.3482L18.9706 11.348C18.9954 11.3373 19.1691 11.2626 19.3429 11.3819C19.4325 11.4434 19.4752 11.5244 19.4958 11.5895C19.9234 11.0607 20.491 10.4988 21.1798 10.2613C21.3864 10.1901 21.5895 10.1219 21.7865 10.0558C22.2749 9.89184 22.7259 9.74046 23.1005 9.58604C23.3619 9.47826 23.5631 9.37791 23.7006 9.2836C23.8369 9.19006 23.858 9.13804 23.8587 9.13829C23.8587 9.13829 23.8587 9.13852 23.8586 9.13893C23.8893 9.00735 23.9395 8.8403 24.0468 8.72288C24.1103 8.65345 24.2209 8.57305 24.3756 8.57213C24.5227 8.57127 24.6289 8.64327 24.6876 8.6964C24.7955 8.79412 24.8646 8.9372 24.9111 9.05068C24.9637 9.17911 25.013 9.3364 25.0588 9.51319C25.0999 9.6713 25.0879 9.84255 25.0632 9.99233C25.0374 10.1491 24.9908 10.3202 24.9339 10.4948C24.8202 10.8438 24.6528 11.2431 24.4828 11.6305C24.4159 11.783 24.3491 11.9326 24.2842 12.0778C24.1807 12.3096 24.0819 12.5306 23.9951 12.7359C23.8541 13.0695 23.7705 13.304 23.7496 13.4298C23.8122 13.4607 23.9208 13.4853 24.0996 13.5144C24.1159 13.517 24.1331 13.5197 24.1511 13.5226C24.3007 13.5462 24.5064 13.5787 24.666 13.6478C24.7623 13.6895 24.8843 13.761 24.9701 13.8899C25.0637 14.0304 25.0826 14.1905 25.0536 14.3417C25.0297 14.4666 24.964 14.5629 24.9071 14.6287C24.848 14.697 24.7772 14.7565 24.7066 14.808C24.5656 14.9109 24.3851 15.0103 24.1932 15.1044C23.814 15.2903 23.3304 15.4837 22.8786 15.6643L22.8563 15.6732C22.4526 15.8346 22.0799 15.9842 21.8016 16.1164C21.8362 16.1258 21.8725 16.1352 21.9103 16.1448C22.1261 16.1993 22.3696 16.2513 22.6257 16.3061C22.7461 16.3318 22.8694 16.3582 22.9938 16.3857C23.3689 16.4685 23.7567 16.5619 24.0478 16.6754C24.1905 16.731 24.3408 16.8027 24.4572 16.9006C24.5743 16.999 24.7205 17.1831 24.675 17.4388C24.6458 17.6034 24.5396 17.7083 24.4641 17.7654C24.3854 17.825 24.2943 17.8679 24.2103 17.9003C24.0407 17.9658 23.8236 18.017 23.5934 18.0602C23.1785 18.1382 22.6539 18.2017 22.1443 18.2634C22.0841 18.2707 22.0241 18.2779 21.9645 18.2852C21.3939 18.3547 20.8651 18.4234 20.4996 18.5092C20.575 18.546 20.6613 18.5843 20.7577 18.6243C21.0093 18.7287 21.3001 18.8325 21.6082 18.9424C21.7323 18.9867 21.8592 19.0319 21.9875 19.0786C22.42 19.2362 22.8684 19.4103 23.2068 19.6049C23.3754 19.7019 23.5395 19.8165 23.6621 19.9541C23.7867 20.0939 23.8953 20.2892 23.8744 20.5292C23.607 22.6356 19.4079 19.4352 18.042 23.3455C18.546 19.87 22.3839 20.6948 22.7118 20.6041C22.8991 20.5522 23.0282 20.4993 23.1048 20.4512C23.1067 20.45 23.1086 20.4488 23.1105 20.4476C23.1102 20.4473 23.1099 20.447 23.1096 20.4467C23.0629 20.3943 22.9763 20.3263 22.8378 20.2466C22.5618 20.0879 22.1699 19.9328 21.7342 19.7741C21.618 19.7318 21.4984 19.6892 21.3783 19.6463C21.0629 19.5338 20.7441 19.42 20.4741 19.308C20.2861 19.23 20.1072 19.1471 19.9584 19.0583C19.8196 18.9756 19.6611 18.8615 19.5657 18.7042C19.4921 18.5829 19.4608 18.4232 19.5272 18.2626C19.5833 18.127 19.6882 18.0441 19.7624 17.9969C19.9118 17.9018 20.1182 17.839 20.3172 17.7917C20.7315 17.6932 21.3099 17.6193 21.875 17.5504C21.9345 17.5432 21.9939 17.536 22.0531 17.5288C22.5687 17.4663 23.0674 17.4059 23.4567 17.3328C23.5085 17.3231 23.5571 17.3133 23.6026 17.3036C23.3907 17.2366 23.1255 17.1728 22.8342 17.1084C22.7217 17.0836 22.6051 17.0587 22.4879 17.0336C22.2245 16.9773 21.9583 16.9203 21.7291 16.8625C21.5619 16.8203 21.4019 16.7746 21.2662 16.7239C21.1423 16.6777 20.9916 16.6108 20.8826 16.5069C20.7792 16.4082 20.7123 16.2573 20.7467 16.0863C20.7741 15.9502 20.8564 15.8554 20.909 15.8035C21.0189 15.695 21.1807 15.6007 21.336 15.5208C21.6596 15.3545 22.1237 15.1689 22.5787 14.987L22.5855 14.9843C23.0511 14.7982 23.5135 14.6133 23.8674 14.4398C23.9884 14.3805 24.0896 14.3258 24.1702 14.2764C24.1235 14.2682 24.0694 14.2594 24.0067 14.2492L23.9808 14.245C23.8166 14.2183 23.5727 14.1785 23.3796 14.0714C23.2746 14.0131 23.1632 13.9241 23.0885 13.7874C23.0119 13.6474 22.9932 13.4926 23.0147 13.3392C23.0478 13.1038 23.1751 12.7747 23.3134 12.4477C23.4024 12.2372 23.5072 12.0025 23.6135 11.7643C23.6778 11.6203 23.7427 11.4751 23.805 11.3331C23.9741 10.9477 24.1286 10.5771 24.2302 10.2654C24.281 10.1096 24.3155 9.97765 24.3329 9.87199C24.3415 9.81962 24.3452 9.77829 24.3455 9.74695C24.3457 9.73155 24.3451 9.71988 24.3442 9.71153C24.3442 9.71087 24.3441 9.71024 24.344 9.70964C24.2732 9.78115 24.1949 9.84214 24.1194 9.89392C23.9179 10.0322 23.6603 10.1559 23.3826 10.2704C22.9834 10.4349 22.4951 10.5988 21.9962 10.7663C21.8046 10.8306 21.6113 10.8955 21.421 10.9611C20.8345 11.1633 20.3028 11.7325 19.8641 12.3227C19.7034 12.5388 19.565 12.7436 19.4433 12.9237C19.402 12.9849 19.3626 13.0433 19.3249 13.0982C19.2539 13.2017 19.1836 13.301 19.1203 13.3762C19.0892 13.4131 19.0494 13.4567 19.0034 13.494C18.9709 13.5203 18.8699 13.5996 18.7237 13.6011C18.5877 13.6024 18.4551 13.5368 18.3767 13.4131C18.3247 13.3312 18.3126 13.2483 18.3096 13.1981C18.2935 13.2181 18.2774 13.2382 18.2613 13.2584C18.232 13.2949 18.2026 13.3317 18.173 13.3685C17.8699 13.7469 17.5562 14.1369 17.2975 14.4404C17.1685 14.5917 17.0491 14.7265 16.949 14.8292C16.8992 14.8803 16.8497 14.9282 16.8032 14.9677C16.7664 14.9989 16.6977 15.0548 16.6138 15.0868C16.5553 15.1091 16.4549 15.1409 16.3407 15.1263C16.2769 15.1181 16.2017 15.0943 16.1323 15.0403C16.0621 14.9856 16.0191 14.9163 15.9954 14.8508C15.9537 14.7352 15.9698 14.6266 15.9805 14.572C15.9934 14.5068 16.0154 14.4422 16.0382 14.3844C16.1256 14.1628 16.3058 13.8461 16.4921 13.522C16.616 13.3063 16.7901 13.0401 16.9562 12.7861C17.0514 12.6406 17.1439 12.499 17.2229 12.3733C17.2308 12.3607 17.2386 12.3482 17.2463 12.3359C17.1752 12.3261 17.0975 12.2984 17.0265 12.2395C16.8053 12.0561 16.7928 11.7754 16.8497 11.5192C16.9075 11.2583 17.0581 10.9059 17.3341 10.4165C17.6027 9.94033 17.8764 9.42459 18.0933 8.92991C18.2076 8.66935 18.3029 8.42159 18.3735 8.19361C18.2611 8.28754 18.1363 8.39619 18.002 8.51505C17.9374 8.57215 17.8712 8.63116 17.8039 8.69102C17.5537 8.91389 17.29 9.14864 17.0524 9.34121C16.9012 9.46375 16.7512 9.57698 16.6137 9.66316C16.4904 9.74039 16.325 9.83048 16.1552 9.84632C16.0374 9.85732 15.907 9.83078 15.7962 9.74196C15.6941 9.6601 15.6445 9.55388 15.6194 9.47203C15.5719 9.31741 15.5779 9.13704 15.5936 8.98369C15.6266 8.6606 15.7305 8.23618 15.8431 7.81959C15.8995 7.61123 15.956 7.41174 16.0106 7.21898C16.072 7.00241 16.131 6.79435 16.1846 6.59177C16.1883 6.57782 16.1919 6.56401 16.1955 6.55034C16.0473 6.70032 15.8789 6.86661 15.7045 7.01388C15.487 7.19763 15.2224 7.38549 14.9385 7.46375C14.734 7.52014 14.4938 7.56857 14.2777 7.49632C14.0076 7.40603 13.8941 7.17979 13.8422 6.98623C13.7934 6.80441 13.7757 6.56887 13.7597 6.316C13.7563 6.26359 13.753 6.20917 13.7496 6.15255C13.7356 5.92125 13.7194 5.6534 13.6899 5.33723C13.6352 4.75128 13.6182 4.09718 13.6029 3.50521C13.5969 3.27396 13.5912 3.05219 13.5835 2.84767C13.5704 2.49637 13.5519 2.19926 13.5201 1.97516C13.5128 1.98929 13.5052 2.00407 13.4974 2.01953C13.4122 2.18801 13.3152 2.40151 13.1941 2.66778C13.1752 2.70946 13.1557 2.75243 13.1355 2.79672ZM13.4446 1.66205C13.4446 1.66205 13.4452 1.66286 13.4463 1.66485C13.4451 1.66311 13.4446 1.66205 13.4446 1.66205ZM16.6981 6.07275C16.6981 6.07275 16.6977 6.07297 16.6971 6.0733C16.6978 6.07289 16.6981 6.07275 16.6981 6.07275ZM16.3246 5.88732C16.3231 5.88095 16.3227 5.87718 16.3229 5.8769C16.3231 5.87661 16.3238 5.87979 16.3246 5.88732ZM18.8372 7.86057C18.8371 7.86065 18.8358 7.86116 18.8332 7.86186C18.8359 7.86084 18.8372 7.86049 18.8372 7.86057ZM18.5015 7.61533C18.5015 7.61254 18.5017 7.6111 18.5017 7.6111C18.5017 7.6111 18.5018 7.61248 18.5015 7.61533ZM18.7771 11.708C18.7773 11.7064 18.7774 11.7057 18.7774 11.7058C18.7774 11.7058 18.7773 11.7066 18.7771 11.708ZM24.6144 9.19386C24.6144 9.19394 24.6141 9.19441 24.6137 9.19522C24.6142 9.1942 24.6144 9.19377 24.6144 9.19386ZM24.3506 14.1402C24.3506 14.1402 24.3503 14.1408 24.3493 14.142C24.3501 14.1408 24.3506 14.1402 24.3506 14.1402ZM23.1391 20.4879C23.139 20.4879 23.1387 20.4871 23.1383 20.4857C23.139 20.4872 23.1391 20.4879 23.1391 20.4879ZM23.1523 20.4155C23.1534 20.4139 23.1542 20.4131 23.1543 20.4131C23.1544 20.4131 23.1538 20.4139 23.1523 20.4155ZM20.1553 18.6246C20.1551 18.6246 20.1561 18.6238 20.1583 18.6224C20.1565 18.6238 20.1554 18.6245 20.1553 18.6246ZM21.429 16.3303C21.4291 16.3302 21.4291 16.3301 21.4292 16.33C21.4257 16.3342 21.4249 16.3343 21.429 16.3303ZM16.3074 14.4166C16.3074 14.4166 16.3081 14.416 16.3096 14.4151C16.3081 14.4162 16.3074 14.4166 16.3074 14.4166ZM16.7071 14.7136C16.7065 14.7183 16.706 14.7192 16.7067 14.7155C16.7068 14.7151 16.7069 14.7144 16.7071 14.7136ZM17.2349 11.6119C17.2324 11.6131 17.2326 11.6128 17.2352 11.6118C17.2351 11.6118 17.235 11.6119 17.2349 11.6119ZM17.5601 11.7636C17.5605 11.7662 17.5605 11.7676 17.5604 11.7677C17.5603 11.7677 17.5601 11.7665 17.5601 11.7636ZM11.1703 7.05914C11.1702 7.05892 11.1711 7.05613 11.1733 7.05145C11.1715 7.05703 11.1704 7.05937 11.1703 7.05914ZM10.3079 9.45127C10.3068 9.45264 10.3058 9.45404 10.3047 9.45546C10.3053 9.45463 10.3059 9.45384 10.3065 9.45306C10.307 9.45246 10.3075 9.45186 10.3079 9.45127ZM3.79671 14.7187C3.79665 14.7186 3.79675 14.7172 3.7972 14.7147C3.79699 14.7175 3.79677 14.7187 3.79671 14.7187ZM6.74469 19.0479C6.74643 19.0474 6.74742 19.0473 6.74742 19.0473C6.74742 19.0473 6.74658 19.0475 6.74469 19.0479ZM9.18673 20.4621C9.18688 20.4621 9.18662 20.462 9.18597 20.4618C9.18639 20.4619 9.18663 20.462 9.18673 20.4621ZM9.07414 19.9908C9.07459 19.9904 9.07485 19.9902 9.07485 19.9902C9.07485 19.9902 9.07464 19.9904 9.07414 19.9908ZM9.03727 24.3693C9.03713 24.3694 9.03799 24.3682 9.04015 24.3656C9.03846 24.368 9.03741 24.3692 9.03727 24.3693ZM3.96061 15.1366C3.96061 15.1366 3.96076 15.1372 3.9609 15.1382C3.96065 15.1371 3.96061 15.1366 3.96061 15.1366ZM10.0782 6.18876C10.0782 6.18868 10.0792 6.18941 10.0813 6.19119C10.0793 6.18973 10.0782 6.18885 10.0782 6.18876Z" fill="url(#paint0_linear_287_1070)"/>
<path d="M26.4291 22.9511C23.0728 31.2158 14.8611 33.5309 14.7146 34.0447C14.5681 34.5584 17.274 38.2297 20.607 39.3795C25.3705 41.0228 28.9697 39.2464 28.3348 39.5342C24.8558 41.1981 17.2593 42.6067 12.5561 33.7618C12.7869 32.8195 21.0958 31.373 25.9283 22.1606C25.9283 22.1606 27.9534 19.1637 26.4291 22.9511Z" fill="#5E710C"/>
<defs>
<linearGradient id="paint0_linear_287_1070" x1="15.9968" y1="-2.67583" x2="14.6455" y2="24.0665" gradientUnits="userSpaceOnUse">
<stop stop-color="#FBD81D"/>
<stop offset="0.438089" stop-color="#969300"/>
<stop offset="1" stop-color="#5E710C"/>
</linearGradient>
</defs>
</svg>
