<svg width="160" height="116" viewBox="0 0 160 116" fill="none" xmlns="http://www.w3.org/2000/svg">
<path d="M32.5589 40.8715C31.7972 37.7911 30.0224 36.5714 27.2345 37.2125C26.0687 37.4805 25.1618 38.0626 24.514 38.9588C23.9052 39.7926 23.4464 40.6986 23.1376 41.6769C22.7625 42.8305 22.5432 44.0817 22.4797 45.4306C22.2472 43.7228 22.3089 42.1343 22.6648 40.6648C22.9659 39.4215 23.5692 38.2154 24.4746 37.0466C25.3799 35.8777 26.821 35.066 28.7979 34.6115C29.8624 34.3667 30.8214 34.3597 31.675 34.5904C32.5793 34.8094 33.3606 35.1901 34.019 35.7325C34.7164 36.2126 35.2851 36.829 35.7251 37.5817C36.204 38.2721 36.5251 38.9722 36.6883 39.6818C37.1352 41.3936 37.2195 43.2688 36.9411 45.3075C36.7018 47.2838 36.2206 49.3691 35.4977 51.5633C34.7747 53.7576 33.8607 56.0492 32.7555 58.438C31.6387 60.7762 30.4517 63.1572 29.1945 65.5811C28.0701 67.6542 27.1482 70.0276 26.4288 72.7014C25.7484 75.3128 25.376 77.9868 25.3114 80.7235C25.2859 83.3978 25.6464 86.0101 26.3929 88.5602C27.1784 91.0481 28.5003 93.1991 30.3584 95.0133C29.5246 94.4045 28.7124 93.6573 27.9217 92.7717C27.2166 92.0266 26.4708 91.104 25.6842 90.004C24.8859 88.8534 24.1657 87.578 23.5236 86.178C22.364 83.4559 21.891 80.1224 22.1046 76.1773C22.3183 72.2323 23.6062 67.8534 25.9686 63.0406C27.1518 60.5271 28.2296 58.2512 29.2019 56.2131C30.2249 54.1633 31.0373 52.242 31.6391 50.4492C32.2916 48.6448 32.7081 46.9746 32.8886 45.4388C33.1198 43.8913 33.0099 42.3688 32.5589 40.8715Z" fill="#5E710C"/>
<path d="M130.003 97.4736V56.4031H133.524V68.1375H155.819V56.4031H159.339V97.4736H155.819V71.6579H133.524V97.4736H130.003Z" fill="#5E710C"/>
<path d="M104.962 51.6507C104.962 50.1839 105.96 49.1864 107.426 49.1864C108.893 49.1864 109.891 50.1839 109.891 51.6507C109.891 53.1175 108.893 54.1149 107.426 54.1149C105.96 54.1149 104.962 53.1175 104.962 51.6507ZM111.827 51.6507C111.827 50.1839 112.824 49.1864 114.291 49.1864C115.758 49.1864 116.755 50.1839 116.755 51.6507C116.755 53.1175 115.758 54.1149 114.291 54.1149C112.824 54.1149 111.827 53.1175 111.827 51.6507ZM102.615 97.4735V56.4031H118.867V59.9234H106.136V68.1375H120.628V71.6578H106.136V93.9532H121.801V97.4735H102.615Z" fill="#5E710C"/>
<path d="M54.9271 97.4736H46.1188C56.2156 96.4882 75.1356 95.6696 79.6631 56.4031H90.8694V97.4736H87.3491V59.9234H82.7727C80.3671 76.5276 72.8808 97.4736 54.9271 97.4736Z" fill="#5E710C"/>
<path fill-rule="evenodd" clip-rule="evenodd" d="M28.1496 6.39249C27.813 7.13201 27.4089 8.01042 26.911 9.01421C25.9927 10.8656 25.697 12.659 25.5616 14.0676C25.5277 14.4206 25.504 14.7475 25.4824 15.0495L25.4792 15.0946C25.4591 15.3748 25.44 15.6426 25.4157 15.8751C25.3908 16.113 25.3558 16.3645 25.2912 16.5839C25.2374 16.7665 25.1053 17.1403 24.7351 17.357C24.2736 17.6273 23.8287 17.4541 23.6127 17.3268C23.3945 17.1981 23.2123 17.0125 23.0757 16.856C22.793 16.5323 22.4964 16.0853 22.2337 15.6787C22.2315 15.6753 22.2293 15.6718 22.227 15.6684C22.2661 16.117 22.3017 16.6318 22.3208 17.203C22.3626 18.4524 22.706 19.3132 22.9981 20.0456L23.0182 20.096C23.1541 20.4365 23.3145 20.8383 23.3717 21.2264C23.4395 21.6856 23.3734 22.1722 23.0338 22.6261C22.6921 23.0827 22.1821 23.138 21.8377 23.0977C21.5055 23.0588 21.1743 22.9233 20.8904 22.7802C20.3088 22.4872 19.6447 22.015 19.0382 21.5489C18.6395 21.2424 18.2445 20.9218 17.8916 20.6323C18.1281 21.4007 18.5305 22.4949 19.181 24.027C19.6654 25.1679 20.1635 26.2519 20.6276 27.2565C20.6606 27.3278 20.6933 27.3987 20.7259 27.4693C21.1503 28.3875 21.5461 29.2439 21.8632 29.9972C22.2001 30.7979 22.4742 31.5415 22.5927 32.158C22.652 32.4665 22.6835 32.7966 22.6358 33.1126C22.5861 33.4417 22.4417 33.7996 22.1161 34.0635C21.872 34.2614 21.5627 34.3983 21.1978 34.3902C20.8615 34.3827 20.5746 34.2532 20.3531 34.1194C19.9361 33.8674 19.4673 33.416 18.9546 32.9194C18.9017 32.8681 18.8474 32.8155 18.7917 32.7615C17.715 31.7167 16.1034 30.1529 13.4437 28.2195C10.7022 26.2266 8.29197 25.4205 6.53375 25.1296C5.69209 24.9904 4.99756 24.9688 4.4851 24.9928C4.55196 25.0826 4.62521 25.1801 4.70478 25.2856C4.72177 25.3081 4.73897 25.3309 4.75638 25.354C5.34787 26.138 6.17362 27.2324 6.70911 28.3957C7.21733 29.4997 7.81862 30.8871 8.17358 32.0024C8.34563 32.5429 8.48752 33.1018 8.49711 33.554C8.5016 33.7661 8.48269 34.0953 8.29859 34.3906C8.19597 34.5552 8.043 34.7065 7.83484 34.803C7.66559 34.8814 7.49589 34.907 7.34419 34.9047C7.42974 35.0254 7.55341 35.1757 7.72886 35.3562C8.32112 35.9655 9.54145 36.7352 10.7503 37.4912L10.7614 37.4981C11.3333 37.8558 11.8964 38.2079 12.3194 38.5093C12.5307 38.6598 12.7349 38.8171 12.8959 38.972C12.9762 39.0492 13.0655 39.1445 13.1419 39.255C13.2105 39.3542 13.3199 39.538 13.3428 39.7831C13.395 40.3421 12.9603 40.6291 12.8756 40.683C12.7275 40.7774 12.5622 40.8383 12.4343 40.8792C12.164 40.9657 11.8097 41.0396 11.4328 41.1062C10.8169 41.2149 10.0311 41.3222 9.22895 41.4316C9.0383 41.4576 8.84674 41.4838 8.6563 41.5101C8.48384 41.5339 8.31214 41.5579 8.14227 41.5821C9.08294 41.8133 10.2552 42.1163 11.3164 42.4125C12.0978 42.6306 12.8334 42.849 13.376 43.035C13.6429 43.1265 13.8881 43.2185 14.0743 43.3059C14.1615 43.3468 14.2766 43.4054 14.3807 43.4823C14.4302 43.5189 14.5194 43.59 14.5995 43.699C14.6749 43.8016 14.8225 44.0507 14.7594 44.3872C14.7542 44.4149 14.748 44.4418 14.7408 44.4677C14.982 44.497 15.2309 44.5265 15.4838 44.5561C15.6514 44.5757 15.8206 44.5954 15.9899 44.615C16.7939 44.7084 17.6001 44.8021 18.2515 44.8933C18.6444 44.9484 19.0007 45.0052 19.2754 45.0641C19.4105 45.0931 19.5486 45.1272 19.6699 45.169C19.7299 45.1897 19.8063 45.2192 19.8841 45.2608C19.9441 45.2928 20.0947 45.3777 20.2165 45.5436C20.3369 45.7076 20.4138 45.9176 20.4059 46.1516C20.3986 46.3699 20.3201 46.5425 20.2492 46.6569C20.1195 46.8661 19.9318 47.0141 19.8054 47.1048C19.5311 47.3017 19.133 47.5113 18.7045 47.726C18.4801 47.8385 18.2356 47.9581 17.9733 48.0863C17.1841 48.4724 16.2345 48.9368 15.1906 49.5207C13.9275 50.2272 12.6795 51.5288 11.7666 52.7929C11.3147 53.4186 10.9654 54.0071 10.748 54.4702C10.7005 54.5714 10.6611 54.6629 10.629 54.7443C10.8643 54.6976 11.1463 54.6263 11.5121 54.534C11.6144 54.5082 11.7233 54.4807 11.8395 54.4516C12.3584 54.3218 12.9873 54.1704 13.7381 54.0239C16.6749 53.4507 18.9708 53.1488 19.3451 53.1139C19.3933 53.1094 19.4728 53.1051 19.5676 53.1185C19.6546 53.1307 19.8278 53.1676 19.9959 53.3029C20.1937 53.4621 20.3 53.6896 20.3152 53.9167C20.3196 53.9825 20.3161 54.0431 20.3084 54.0971C21.2189 53.8093 23.0827 53.7564 24.375 53.1451C28.6372 51.0375 28.5006 49.2868 29.2013 48.3842C28.7025 52.9996 23.8674 54.9677 19.8512 55.9875C19.2998 56.1276 18.8263 56.2128 18.4748 56.2319C18.3198 56.2403 18.0926 56.2428 17.8791 56.1767C17.7786 56.1455 17.5519 56.061 17.3828 55.8306C17.2122 55.5981 17.184 55.3388 17.2263 55.1228C16.3446 55.2637 15.2601 55.4506 14.0622 55.6844C13.3527 55.8229 12.7559 55.9664 12.25 56.0929C12.1493 56.1181 12.0506 56.1431 11.9541 56.1674C11.5793 56.2622 11.2393 56.3481 10.9566 56.4042C10.6272 56.4695 10.2107 56.5332 9.82714 56.4333C9.6086 56.3764 9.3917 56.2653 9.21102 56.0773C9.03591 55.8952 8.93643 55.6842 8.87826 55.4896C8.77766 55.153 8.84338 54.8078 8.90215 54.583C8.97017 54.3229 9.08117 54.0395 9.21647 53.7513C9.48854 53.1717 9.89694 52.4921 10.395 51.8024C11.3818 50.436 12.8017 48.9184 14.3647 48.0442C15.4539 47.4349 16.4658 46.94 17.2599 46.5517C17.3052 46.5295 17.3497 46.5078 17.3935 46.4863C16.9021 46.4243 16.3575 46.361 15.8019 46.2964C15.6309 46.2766 15.4589 46.2566 15.2871 46.2365C14.3204 46.1233 13.3538 46.0057 12.6669 45.8867C12.337 45.8295 12.0121 45.7626 11.7787 45.6785C11.716 45.6559 11.6403 45.6253 11.564 45.5838C11.4989 45.5485 11.3717 45.473 11.26 45.3385C11.1326 45.185 10.9868 44.8963 11.081 44.5401C11.1251 44.3737 11.208 44.25 11.288 44.1626C11.149 44.1228 11.0066 44.0826 10.8615 44.0421C9.3197 43.6117 7.5394 43.1668 6.62191 42.9601C5.89502 42.7962 5.37196 42.8796 4.97269 42.9432C4.95308 42.9463 4.93377 42.9494 4.91475 42.9524C4.81846 42.9676 4.68115 42.9889 4.55073 42.9932C4.44527 42.9967 4.16331 43.0006 3.89577 42.8233C3.55646 42.5985 3.46829 42.252 3.45929 42.0237C3.45146 41.825 3.49592 41.6357 3.53336 41.5008C3.62278 41.1789 3.84337 40.9818 3.98141 40.8803C4.13205 40.7695 4.30119 40.6876 4.45435 40.6251C4.76339 40.4989 5.15041 40.3952 5.55544 40.3061C6.37353 40.1261 7.4219 39.9727 8.42469 39.8341C8.62479 39.8065 8.82297 39.7794 9.01772 39.7528C9.65461 39.6659 10.2548 39.584 10.7659 39.5024C10.4929 39.3258 10.1846 39.1329 9.85327 38.9257L9.77186 38.8747C8.65886 38.1789 7.26778 37.3092 6.51567 36.5354C6.13955 36.1485 5.85534 35.7742 5.68269 35.4102C5.51207 35.0505 5.41108 34.6121 5.55972 34.1735C5.71528 33.7146 6.07522 33.454 6.41024 33.3285C6.52344 33.2861 6.63995 33.2561 6.75708 33.2362C6.71787 33.0468 6.65391 32.8061 6.56141 32.5155C6.24013 31.5061 5.6765 30.1986 5.17226 29.1032C4.71413 28.1079 3.98166 27.1366 3.36637 26.3207L3.34895 26.2976C3.06073 25.9154 2.76978 25.5296 2.59268 25.2219C2.51182 25.0815 2.39238 24.8553 2.35814 24.6012C2.33939 24.4621 2.33675 24.2481 2.44335 24.0239C2.55939 23.7797 2.75622 23.6248 2.95335 23.5434C3.21828 23.434 3.70819 23.3419 4.31793 23.3073C4.95878 23.271 5.80361 23.294 6.8099 23.4605C8.82705 23.7942 11.4834 24.7029 14.4385 26.851C17.1958 28.8554 18.8768 30.4865 19.9676 31.545C20.0238 31.5996 20.0785 31.6526 20.1317 31.7041C20.479 32.0406 20.7315 32.279 20.9244 32.443C20.8372 32.0148 20.6268 31.4211 20.3038 30.6535C19.9987 29.9285 19.615 29.0983 19.1862 28.1704C19.1549 28.1028 19.1234 28.0347 19.0917 27.9661C18.6275 26.9613 18.1194 25.8559 17.6237 24.6881C16.6394 22.3698 16.1618 20.9202 15.9898 20.03C15.9081 19.6069 15.8705 19.1951 15.9614 18.8509C16.0104 18.6653 16.117 18.4236 16.3513 18.243C16.6013 18.0503 16.8832 18.0139 17.1049 18.0419C17.2522 18.0604 17.3654 18.1124 17.4102 18.1338C17.4691 18.1618 17.5218 18.1928 17.563 18.2185C17.6461 18.2704 17.7344 18.3338 17.8189 18.3973C17.9899 18.5258 18.2037 18.6989 18.4348 18.8884C18.5195 18.9579 18.6075 19.0304 18.6983 19.1052C19.1139 19.4473 19.5876 19.8373 20.0692 20.2075C20.6626 20.6635 21.2192 21.0509 21.6486 21.2678C21.6056 21.1283 21.5366 20.9481 21.4349 20.693C21.4291 20.6786 21.4233 20.6641 21.4175 20.6494C21.1156 19.8931 20.6816 18.8058 20.6299 17.2596C20.5963 16.2568 20.5143 15.4947 20.4492 14.8904C20.4238 14.6551 20.4011 14.4438 20.3847 14.2514C20.3707 14.0858 20.3605 13.9204 20.3625 13.7691C20.3643 13.6295 20.3762 13.4351 20.443 13.2424C20.517 13.029 20.6871 12.7461 21.0361 12.6078C21.3427 12.4864 21.6267 12.5445 21.7825 12.5905C22.0934 12.6824 22.3195 12.9032 22.4377 13.0274C22.5825 13.1796 22.7238 13.3629 22.854 13.5448C23.0567 13.8279 23.2774 14.1723 23.4861 14.498C23.5435 14.5875 23.5999 14.6756 23.6549 14.7607C23.7016 14.8331 23.7473 14.9032 23.7918 14.9709C23.7921 14.9669 23.7924 14.9629 23.7927 14.9588L23.7948 14.9289C23.8164 14.6268 23.8414 14.2814 23.8775 13.9057C24.0223 12.3995 24.3473 10.3754 25.3953 8.26243C25.8806 7.28405 26.2755 6.42581 26.6098 5.69155C26.6547 5.59279 26.6988 5.49585 26.7419 5.40082C27.016 4.79757 27.2549 4.27187 27.4669 3.85255C27.6984 3.39486 27.9568 2.93825 28.2741 2.64548C28.4469 2.48605 28.6945 2.32036 29.0195 2.2767C29.3589 2.23111 29.6544 2.33524 29.8806 2.47955C30.2194 2.69576 30.3851 3.04289 30.4732 3.27898C30.5717 3.54253 30.6379 3.84851 30.6866 4.1612C30.7844 4.78954 30.8322 5.58917 30.8643 6.44567C30.8833 6.95426 30.8971 7.48694 30.9112 8.03089C30.9457 9.36315 30.9819 10.763 31.1013 12.0421C31.1716 12.7951 31.2106 13.4404 31.2426 13.9704C31.2503 14.0967 31.2575 14.2164 31.2647 14.3295C31.3033 14.9392 31.3383 15.2975 31.3962 15.5199C31.4777 15.5102 31.6123 15.4865 31.821 15.429C32.104 15.351 32.4783 15.1207 32.9298 14.7393C33.3507 14.3838 33.7637 13.9632 34.1614 13.5583L34.2387 13.4796C34.604 13.1076 35.0232 12.6808 35.3755 12.4582C35.4758 12.3949 35.6107 12.3211 35.7698 12.2756C35.9297 12.2299 36.1764 12.1956 36.4436 12.2987C37.0193 12.5209 37.1051 13.1028 37.1241 13.3065C37.1525 13.6101 37.0998 13.9752 37.0367 14.3044C36.969 14.6577 36.8688 15.0675 36.7545 15.4995C36.6366 15.9452 36.4893 16.4661 36.3404 16.9927C36.2128 17.4439 36.084 17.8993 35.9716 18.315C35.7459 19.1496 35.5645 19.8988 35.4816 20.4643C35.6486 20.3447 35.8346 20.2012 36.0373 20.0369C36.5467 19.6241 37.1088 19.1237 37.6767 18.618C37.835 18.4771 37.9937 18.3358 38.1518 18.1959C38.8476 17.5803 39.5662 16.9601 40.1109 16.6235C40.2523 16.5361 40.4084 16.4509 40.569 16.3896C40.7126 16.3348 40.9541 16.2615 41.2293 16.3037C41.5765 16.357 41.866 16.5775 42.0087 16.9045C42.1222 17.1643 42.1147 17.4265 42.0957 17.6006C41.9786 18.6739 41.5542 19.8976 41.0312 21.0906C40.5025 22.2964 39.8455 23.5312 39.2201 24.6402C38.8769 25.2486 38.6497 25.7144 38.5029 26.0671C38.6369 26.0407 38.8064 26.0283 38.9925 26.0695C39.2322 26.1225 39.441 26.2518 39.5982 26.437C39.9039 26.7972 39.843 27.2239 39.813 27.3805C39.781 27.5476 39.7216 27.7141 39.6571 27.8652C39.8701 27.6032 40.0708 27.359 40.2531 27.1417C40.5168 26.8274 40.7554 26.5532 40.9432 26.3593C41.033 26.2666 41.1357 26.1665 41.2374 26.088C41.2833 26.0526 41.3711 25.9881 41.4857 25.9388L41.4869 25.9383C41.5435 25.9139 41.9406 25.743 42.3379 26.0158C42.5427 26.1564 42.6403 26.3414 42.6873 26.4902C43.6648 25.2817 44.9622 23.9973 46.5365 23.4545C47.0088 23.2916 47.473 23.1358 47.9233 22.9846C49.0396 22.6099 50.0704 22.2639 50.9267 21.9109C51.5243 21.6646 51.9842 21.4352 52.2983 21.2197C52.6099 21.0058 52.6582 20.8869 52.6597 20.8875C52.6597 20.8875 52.6597 20.888 52.6595 20.889C52.7296 20.5882 52.8444 20.2064 53.0898 19.938C53.2349 19.7793 53.4876 19.5955 53.8413 19.5935C54.1774 19.5915 54.4202 19.7561 54.5543 19.8775C54.801 20.1009 54.959 20.4279 55.0652 20.6873C55.1855 20.9808 55.2981 21.3403 55.4029 21.7444C55.4967 22.1058 55.4693 22.4973 55.4129 22.8396C55.3539 23.1979 55.2475 23.589 55.1174 23.988C54.8574 24.7858 54.4748 25.6986 54.0863 26.584C53.9333 26.9327 53.7806 27.2744 53.6323 27.6065C53.3957 28.1363 53.17 28.6414 52.9716 29.1107C52.6493 29.8731 52.4581 30.4091 52.4104 30.6967C52.5534 30.7672 52.8016 30.8235 53.2104 30.89C53.2475 30.896 53.2868 30.9023 53.328 30.9088C53.67 30.9628 54.1401 31.037 54.5049 31.1949C54.7251 31.2903 55.0039 31.4537 55.2002 31.7485C55.4139 32.0695 55.4573 32.4353 55.391 32.7811C55.3362 33.0665 55.1861 33.2867 55.056 33.4371C54.921 33.5931 54.7591 33.7292 54.5977 33.8469C54.2754 34.082 53.863 34.3093 53.4244 34.5244C52.5576 34.9494 51.4521 35.3913 50.4196 35.8041L50.3686 35.8244C49.4457 36.1934 48.5938 36.5352 47.9577 36.8375C48.0369 36.8589 48.1197 36.8806 48.2062 36.9024C48.6994 37.0269 49.2561 37.1459 49.8414 37.271C50.1167 37.3299 50.3984 37.3901 50.6828 37.4529C51.5402 37.6422 52.4265 37.8559 53.092 38.1151C53.4181 38.2422 53.7617 38.4062 54.0278 38.6299C54.2954 38.8549 54.6296 39.2756 54.5256 39.8602C54.4587 40.2363 54.2161 40.4761 54.0436 40.6067C53.8636 40.7429 53.6553 40.8409 53.4634 40.915C53.0757 41.0646 52.5794 41.1818 52.0532 41.2806C51.1051 41.4586 49.9059 41.6038 48.7411 41.7449C48.6035 41.7615 48.4664 41.7781 48.3302 41.7947C47.026 41.9536 45.8171 42.1107 44.9818 42.3067C45.1542 42.3908 45.3514 42.4785 45.5718 42.5699C46.1468 42.8085 46.8115 43.0456 47.5158 43.2969C47.7994 43.3981 48.0895 43.5016 48.3827 43.6083C49.3712 43.9684 50.3961 44.3665 51.1696 44.8113C51.555 45.0329 51.93 45.2948 52.2105 45.6094C52.4953 45.9288 52.7433 46.3754 52.6956 46.9239C52.0845 51.7384 42.4864 44.4234 39.3645 53.3612C40.5164 45.4171 49.2888 47.3024 50.0382 47.095C50.4663 46.9765 50.7614 46.8556 50.9365 46.7457C50.941 46.7429 50.9453 46.7401 50.9495 46.7374C50.9489 46.7367 50.9482 46.736 50.9476 46.7353C50.8408 46.6156 50.6429 46.46 50.3262 46.2779C49.6954 45.9152 48.7995 45.5608 47.8037 45.198C47.538 45.1013 47.2647 45.0038 46.9903 44.9059C46.2693 44.6487 45.5406 44.3887 44.9235 44.1326C44.4937 43.9543 44.0848 43.7648 43.7447 43.5619C43.4275 43.3727 43.0653 43.1121 42.8471 42.7525C42.679 42.4753 42.6074 42.1103 42.7593 41.743C42.8874 41.4332 43.1273 41.2437 43.2967 41.1358C43.6382 40.9183 44.11 40.7749 44.5649 40.6668C45.5119 40.4416 46.8338 40.2727 48.1256 40.1153C48.2616 40.0987 48.3974 40.0822 48.5327 40.0658C49.7111 39.923 50.8511 39.7849 51.741 39.6178C51.8592 39.5956 51.9704 39.5733 52.0744 39.551C51.59 39.3981 50.9839 39.252 50.318 39.105C50.0608 39.0482 49.7943 38.9912 49.5265 38.9339C48.9244 38.8052 48.3159 38.675 47.7921 38.5428C47.41 38.4463 47.0443 38.342 46.7339 38.2261C46.4509 38.1204 46.1064 37.9676 45.8573 37.73C45.6209 37.5044 45.468 37.1596 45.5466 36.7687C45.6092 36.4576 45.7973 36.2409 45.9176 36.1222C46.1687 35.8744 46.5386 35.6586 46.8935 35.4762C47.6332 35.096 48.6939 34.6719 49.7341 34.2561L49.7496 34.2499C50.8137 33.8244 51.8707 33.4019 52.6795 33.0053C52.9561 32.8697 53.1876 32.7447 53.3717 32.6319C53.2649 32.6129 53.1414 32.5929 52.998 32.5695L52.9388 32.5599C52.5636 32.4989 52.006 32.4079 51.5647 32.1631C51.3247 32.0299 51.0701 31.8265 50.8993 31.5141C50.7243 31.194 50.6814 30.8403 50.7307 30.4895C50.8062 29.9516 51.0972 29.1994 51.4133 28.4518C51.6167 27.9707 51.8563 27.4342 52.0994 26.8899C52.2463 26.5607 52.3946 26.2287 52.537 25.9042C52.9235 25.0233 53.2767 24.1761 53.5089 23.4637C53.6249 23.1076 53.7038 22.8061 53.7436 22.5646C53.7633 22.4448 53.7716 22.3504 53.7725 22.2787C53.7729 22.2435 53.7715 22.2169 53.7696 22.1978C53.7694 22.1963 53.7692 22.1948 53.7691 22.1935C53.6071 22.3569 53.4281 22.4963 53.2556 22.6147C52.795 22.9308 52.2062 23.2135 51.5715 23.4751C50.6591 23.8512 49.5429 24.2259 48.4027 24.6086C47.9646 24.7557 47.5229 24.904 47.0879 25.0539C45.7473 25.5162 44.532 26.8172 43.5293 28.1661C43.162 28.6602 42.8456 29.1283 42.5675 29.54C42.473 29.6798 42.3829 29.8132 42.2967 29.9388C42.1345 30.1753 41.9738 30.4023 41.8291 30.5741C41.758 30.6584 41.6671 30.7581 41.5619 30.8434C41.4877 30.9036 41.2567 31.0849 40.9226 31.0882C40.6117 31.0913 40.3087 30.9413 40.1294 30.6586C40.0106 30.4713 39.9828 30.2818 39.976 30.1671C39.9393 30.2129 39.9025 30.2588 39.8656 30.3049C39.7987 30.3884 39.7314 30.4724 39.6639 30.5567C38.9711 31.4214 38.254 32.3129 37.6628 33.0066C37.3679 33.3525 37.0949 33.6605 36.866 33.8954C36.7522 34.0122 36.6392 34.1216 36.5328 34.2118C36.4488 34.2831 36.2917 34.411 36.1 34.484C35.9662 34.535 35.7367 34.6078 35.4758 34.5744C35.33 34.5557 35.1579 34.5014 34.9995 34.3779C34.8389 34.2529 34.7406 34.0944 34.6865 33.9447C34.5911 33.6803 34.6279 33.4321 34.6525 33.3074C34.6819 33.1585 34.7321 33.0108 34.7842 32.8787C34.9841 32.372 35.3961 31.6481 35.8217 30.9075C36.105 30.4144 36.5029 29.8059 36.8826 29.2253C37.1001 28.8927 37.3116 28.5693 37.4921 28.2819C37.5103 28.2531 37.5281 28.2246 37.5456 28.1964C37.3831 28.174 37.2056 28.1106 37.0432 27.9759C36.5376 27.5567 36.5091 26.9152 36.639 26.3296C36.7713 25.7333 37.1154 24.9279 37.7464 23.8091C38.3602 22.7208 38.9859 21.5419 39.4817 20.4112C39.7428 19.8157 39.9607 19.2494 40.122 18.7283C39.8652 18.943 39.58 19.1913 39.2729 19.463C39.1254 19.5935 38.9739 19.7284 38.8203 19.8652C38.2482 20.3746 37.6457 20.9112 37.1026 21.3513C36.757 21.6314 36.4141 21.8902 36.0997 22.0872C35.8179 22.2638 35.4397 22.4697 35.0518 22.5059C34.7825 22.531 34.4844 22.4703 34.2311 22.2673C33.9978 22.0802 33.8844 21.8374 33.827 21.6504C33.7185 21.2969 33.7322 20.8847 33.768 20.5342C33.8436 19.7957 34.0809 18.8255 34.3384 17.8734C34.4672 17.3971 34.5964 16.9411 34.7213 16.5005C34.8616 16.0055 34.9964 15.53 35.1189 15.0669C35.1273 15.035 35.1356 15.0035 35.1438 14.9722C34.8052 15.315 34.4201 15.6951 34.0216 16.0317C33.5245 16.4517 32.9195 16.8811 32.2707 17.06C31.8032 17.1889 31.2543 17.2996 30.7603 17.1344C30.143 16.9281 29.8835 16.411 29.7648 15.9685C29.6533 15.5529 29.6129 15.0146 29.5762 14.4366C29.5686 14.3168 29.5611 14.1924 29.5533 14.063C29.5213 13.5343 29.4842 12.9221 29.4168 12.1994C29.2917 10.8601 29.253 9.36498 29.2179 8.01192C29.2042 7.48334 29.1911 6.97643 29.1736 6.50896C29.1435 5.70598 29.1013 5.02689 29.0287 4.51466C29.0119 4.54694 28.9946 4.58072 28.9767 4.61606C28.782 5.00115 28.5602 5.48917 28.2836 6.09779C28.2403 6.19305 28.1957 6.29126 28.1496 6.39249ZM28.8561 3.79897C28.8561 3.79897 28.8575 3.80082 28.8599 3.80537C28.8572 3.80139 28.8561 3.79897 28.8561 3.79897ZM36.2927 13.8806C36.2927 13.8806 36.2918 13.8811 36.2903 13.8818C36.2919 13.8809 36.2927 13.8806 36.2927 13.8806ZM35.4389 13.4567C35.4356 13.4422 35.4347 13.4336 35.435 13.4329C35.4354 13.4322 35.4371 13.4395 35.4389 13.4567ZM41.1819 17.967C41.1818 17.9672 41.1788 17.9684 41.173 17.97C41.1791 17.9676 41.1821 17.9668 41.1819 17.967ZM40.4148 17.4065C40.4147 17.4001 40.4151 17.3968 40.4151 17.3968C40.4151 17.3968 40.4153 17.3999 40.4148 17.4065ZM41.0447 26.7611C41.0451 26.7576 41.0454 26.7558 41.0454 26.756C41.0454 26.7562 41.0452 26.7579 41.0447 26.7611ZM54.387 21.0145C54.387 21.0147 54.3864 21.0158 54.3854 21.0176C54.3865 21.0153 54.3871 21.0143 54.387 21.0145ZM53.7842 32.3205C53.7842 32.3205 53.7834 32.3218 53.7811 32.3246C53.783 32.3219 53.7842 32.3205 53.7842 32.3205ZM51.0149 46.8295C51.0148 46.8294 51.014 46.8278 51.0131 46.8245C51.0147 46.8279 51.0149 46.8295 51.0149 46.8295ZM51.045 46.6641C51.0477 46.6603 51.0494 46.6584 51.0496 46.6584C51.0498 46.6584 51.0485 46.6604 51.045 46.6641ZM44.1947 42.5704C44.1945 42.5705 44.1965 42.5688 44.2016 42.5654C44.1975 42.5688 44.195 42.5704 44.1947 42.5704ZM47.1061 37.3263C47.1063 37.3261 47.1064 37.326 47.1066 37.3258C47.0985 37.3353 47.0967 37.3355 47.1061 37.3263ZM35.3996 32.9523C35.3996 32.9523 35.4013 32.9509 35.4046 32.9488C35.4012 32.9513 35.3996 32.9523 35.3996 32.9523ZM36.3132 33.6311C36.3117 33.6419 36.3106 33.6439 36.3123 33.6354C36.3125 33.6344 36.3128 33.633 36.3132 33.6311ZM37.5195 26.5415C37.5138 26.5441 37.5143 26.5435 37.5203 26.5412C37.52 26.5413 37.5198 26.5414 37.5195 26.5415ZM38.2629 26.8882C38.2638 26.8941 38.2638 26.8973 38.2636 26.8975C38.2634 26.8977 38.263 26.8947 38.2629 26.8882ZM23.6578 16.1352C23.6575 16.1347 23.6596 16.1283 23.6646 16.1176C23.6605 16.1304 23.658 16.1357 23.6578 16.1352ZM21.6865 21.6029C21.684 21.606 21.6816 21.6092 21.6791 21.6125C21.6806 21.6106 21.682 21.6088 21.6833 21.607C21.6844 21.6056 21.6854 21.6043 21.6865 21.6029ZM6.80375 33.6426C6.80361 33.6425 6.80385 33.6394 6.80487 33.6336C6.8044 33.6399 6.80389 33.6428 6.80375 33.6426ZM13.542 43.5381C13.546 43.537 13.5482 43.5366 13.5482 43.5366C13.5482 43.5366 13.5463 43.5372 13.542 43.5381ZM19.1238 46.7704C19.1241 46.7706 19.1235 46.7704 19.1221 46.7698C19.123 46.7701 19.1236 46.7704 19.1238 46.7704ZM18.8665 45.6933C18.8675 45.6923 18.8681 45.6918 18.8681 45.6918C18.8681 45.6918 18.8676 45.6923 18.8665 45.6933ZM18.7822 55.7012C18.7819 55.7014 18.7838 55.6986 18.7888 55.6928C18.7849 55.6982 18.7825 55.701 18.7822 55.7012ZM7.17838 34.598C7.17838 34.598 7.17873 34.5993 7.17905 34.6017C7.17848 34.5992 7.17838 34.598 7.17838 34.598ZM21.1615 14.1457C21.1615 14.1456 21.1638 14.1472 21.1685 14.1513C21.1639 14.148 21.1615 14.1459 21.1615 14.1457Z" fill="url(#paint0_linear_2_118)"/>
<path d="M154.681 101.303C154.82 102.54 155.778 103.297 156.954 103.297C158.191 103.297 159.088 102.509 159.227 101.303C158.979 101.272 158.655 101.225 158.407 101.21C158.268 101.968 157.665 102.354 156.938 102.354C156.15 102.339 155.624 101.937 155.516 101.21L154.681 101.303ZM153.799 111.833H153.443V104.38H154.619V107.024L154.526 109.607L159.598 104.364H160V111.833H158.825V109.344L158.948 106.514L153.799 111.833Z" fill="#969300"/>
<path d="M149.884 106.514L144.735 111.833H144.379V104.38H145.554V107.024L145.462 109.607L150.534 104.364H150.936V111.833H149.76V109.344L149.884 106.514Z" fill="#969300"/>
<path d="M140.697 104.38H141.872V111.833H140.697V108.509H136.475V111.833H135.285V104.38H136.475V107.457H140.697V104.38Z" fill="#969300"/>
<path d="M129.908 104.21C132.444 104.225 133.635 105.772 133.217 108.23H127.295C127.217 109.947 128.578 110.998 130.264 110.998C131.114 110.998 131.918 110.813 132.784 110.457L132.97 111.369C132.088 111.787 131.145 112.003 130.233 112.003C127.759 112.003 126.011 110.442 126.088 107.906C126.166 105.555 127.867 104.21 129.908 104.21ZM129.908 105.169C128.547 105.169 127.542 105.957 127.341 107.302H132.197C132.274 105.895 131.238 105.169 129.908 105.169Z" fill="#969300"/>
<path d="M122.451 111.818H121.276V105.447H118.647V104.38H125.08V105.447H122.451V111.818Z" fill="#969300"/>
<path d="M117.481 106.653H116.321C115.919 105.725 115.022 105.277 114.079 105.277C112.718 105.277 111.295 106.22 111.295 108.076C111.295 109.916 112.672 110.89 114.017 110.89C115.007 110.89 115.981 110.38 116.383 109.328H117.558C117.11 111.091 115.563 111.957 114.001 111.957C112.053 111.957 110.074 110.643 110.074 108.076C110.074 105.478 112.084 104.179 114.032 104.194C115.548 104.21 117.017 105.029 117.481 106.653Z" fill="#969300"/>
<path d="M107.013 110.488C106.472 111.524 105.204 111.957 104.075 111.957C102.699 111.957 101.446 111.153 101.4 109.653C101.353 107.952 102.745 107.071 104.291 107.071C105.142 107.071 106.116 107.272 106.858 107.689V106.777C106.858 105.524 105.528 105.184 104.508 105.184C103.657 105.184 102.822 105.354 102.188 105.725L101.987 104.797C102.714 104.426 103.704 104.21 104.693 104.21C106.379 104.21 108.002 104.859 107.956 106.808V109.916C107.956 110.735 107.91 111.215 108.822 111.091L108.837 111.88C107.6 112.081 107.013 111.849 107.013 110.488ZM106.843 109.313V108.601C106.162 108.215 105.25 107.998 104.492 107.998C103.503 107.998 102.544 108.54 102.59 109.607C102.637 110.55 103.456 110.921 104.291 110.921C105.265 110.921 106.595 110.426 106.843 109.313Z" fill="#969300"/>
<path d="M93.8753 105.617C94.5711 104.488 95.5298 104.179 96.5968 104.179C98.7772 104.179 99.9679 105.926 99.9679 108.06C99.9679 111.385 96.7051 112.947 94.0454 111.153V115.668H92.8392V106.87C92.8392 105.911 92.9474 105.138 91.9578 105.261L91.9423 104.364C93.1175 104.163 93.9216 104.442 93.8753 105.617ZM94.0144 107.751V110.055C96.0401 111.632 98.7308 110.797 98.7308 108.06C98.7308 106.576 98.0349 105.277 96.3649 105.277C94.9422 105.277 94.0608 106.467 94.0144 107.751Z" fill="#969300"/>
<path d="M81.2112 107.534H82.2008C84.2111 107.534 85.1389 106.39 85.1389 104.364H86.2832C86.3141 106.034 85.7884 107.457 84.1647 108.076L86.6543 111.694V111.833H85.3554L83.0977 108.447C82.8194 108.509 82.4946 108.524 82.1854 108.524H81.2112V111.833H79.9896V104.364H81.2112V107.534Z" fill="#969300"/>
<path d="M76.4303 106.514L71.281 111.833H70.9253V104.38H72.1005V107.024L72.0077 109.607L77.0798 104.364H77.4818V111.833H76.3066V109.344L76.4303 106.514Z" fill="#969300"/>
<path d="M67.2431 104.38H68.4183V111.833H67.2431V108.509H63.0215V111.833H61.8308V104.38H63.0215V107.457H67.2431V104.38Z" fill="#969300"/>
<path d="M55.6045 109.978H55.4807L52.9602 106.931V111.802C52.5736 111.802 52.187 111.802 51.785 111.802C51.785 109.498 51.785 106.483 51.785 104.38H52.187L55.5581 108.462L58.9446 104.38H59.3311C59.3311 106.483 59.3311 109.498 59.3311 111.802C58.9446 111.802 58.558 111.802 58.1714 111.802V106.931L55.6045 109.978Z" fill="#969300"/>
<path d="M49.7646 108.091C49.7646 113.24 41.9091 113.271 41.9091 108.091C41.9091 102.911 49.7646 102.911 49.7646 108.091ZM43.1308 108.091C43.1308 111.895 48.5584 111.895 48.5584 108.091C48.5584 104.303 43.1308 104.303 43.1308 108.091Z" fill="#969300"/>
<path d="M38.2715 111.818H37.0963V105.447H34.4675V104.38H40.9003V105.447H38.2715V111.818Z" fill="#969300"/>
<path d="M31.7432 106.514L26.5939 111.833H26.2382V104.38H27.4134V107.024L27.3207 109.607L32.3927 104.364H32.7947V111.833H31.6195V109.344L31.7432 106.514Z" fill="#969300"/>
<path d="M17.1589 104.38H23.7309V111.833H22.5247V105.462H18.3805V111.833H17.1589V104.38Z" fill="#969300"/>
<path d="M58.5351 52.4597C50.8635 71.3505 32.0938 76.6421 31.759 77.8164C31.4242 78.9907 37.6091 87.3822 45.2273 90.0103C56.1154 93.7664 64.342 89.706 62.8909 90.3638C54.9389 94.167 37.5755 97.3868 26.8254 77.1697C27.3528 75.0159 46.3447 71.7097 57.3903 50.6529C57.3903 50.6529 62.0192 43.8028 58.5351 52.4597Z" fill="#5E710C"/>
<defs>
<linearGradient id="paint0_linear_2_118" x1="34.6897" y1="-6.11619" x2="31.6009" y2="55.0091" gradientUnits="userSpaceOnUse">
<stop stop-color="#FBD81D"/>
<stop offset="0.438089" stop-color="#969300"/>
<stop offset="1" stop-color="#5E710C"/>
</linearGradient>
</defs>
</svg>
