<svg width="160" height="117" viewBox="0 0 160 117" fill="none" xmlns="http://www.w3.org/2000/svg">
<path d="M32.5589 41.3978C31.7972 38.3174 30.0224 37.0977 27.2345 37.7388C26.0687 38.0068 25.1618 38.5889 24.514 39.4851C23.9052 40.3189 23.4464 41.2249 23.1376 42.2032C22.7625 43.3568 22.5432 44.608 22.4797 45.9568C22.2472 44.2491 22.3089 42.6606 22.6648 41.1911C22.9659 39.9478 23.5692 38.7417 24.4746 37.5728C25.3799 36.404 26.821 35.5923 28.7979 35.1378C29.8624 34.893 30.8214 34.886 31.675 35.1167C32.5793 35.3357 33.3606 35.7164 34.019 36.2588C34.7164 36.7389 35.2851 37.3553 35.7251 38.108C36.204 38.7984 36.5251 39.4984 36.6883 40.2081C37.1352 41.9199 37.2195 43.7951 36.9411 45.8337C36.7018 47.8101 36.2206 49.8954 35.4977 52.0896C34.7747 54.2839 33.8607 56.5754 32.7555 58.9643C31.6387 61.3025 30.4517 63.6835 29.1945 66.1074C28.0701 68.1805 27.1482 70.5539 26.4288 73.2277C25.7484 75.8391 25.376 78.5131 25.3114 81.2498C25.2859 83.9241 25.6464 86.5363 26.3929 89.0865C27.1784 91.5743 28.5003 93.7254 30.3584 95.5396C29.5246 94.9308 28.7124 94.1836 27.9217 93.298C27.2166 92.5529 26.4708 91.6303 25.6842 90.5303C24.8859 89.3797 24.1657 88.1043 23.5236 86.7042C22.364 83.9822 21.891 80.6487 22.1046 76.7036C22.3183 72.7585 23.6062 68.3797 25.9686 63.5669C27.1518 61.0534 28.2296 58.7775 29.2019 56.7394C30.2249 54.6896 31.0373 52.7683 31.6391 50.9755C32.2916 49.171 32.7081 47.5009 32.8886 45.965C33.1198 44.4175 33.0099 42.8951 32.5589 41.3978Z" fill="white"/>
<path d="M130.003 98.0001V56.9297H133.524V68.6641H155.819V56.9297H159.339V98.0001H155.819V72.1844H133.524V98.0001H130.003Z" fill="white"/>
<path d="M104.962 52.1771C104.962 50.7103 105.96 49.7129 107.426 49.7129C108.893 49.7129 109.891 50.7103 109.891 52.1771C109.891 53.6439 108.893 54.6413 107.426 54.6413C105.96 54.6413 104.962 53.6439 104.962 52.1771ZM111.827 52.1771C111.827 50.7103 112.824 49.7129 114.291 49.7129C115.758 49.7129 116.755 50.7103 116.755 52.1771C116.755 53.6439 115.758 54.6413 114.291 54.6413C112.824 54.6413 111.827 53.6439 111.827 52.1771ZM102.615 98V56.9296H118.867V60.4499H106.136V68.664H120.628V72.1843H106.136V94.4797H121.801V98H102.615Z" fill="white"/>
<path d="M54.9271 98.0001H46.1188C56.2156 97.0148 75.1356 96.1962 79.6631 56.9297H90.8694V98.0001H87.3491V60.45H82.7727C80.3671 77.0542 72.8808 98.0001 54.9271 98.0001Z" fill="white"/>
<path fill-rule="evenodd" clip-rule="evenodd" d="M28.1496 6.91893C27.813 7.65845 27.4089 8.53686 26.911 9.54065C25.9927 11.392 25.697 13.1854 25.5616 14.594C25.5277 14.947 25.504 15.2739 25.4824 15.5759L25.4792 15.6211C25.4591 15.9012 25.44 16.169 25.4157 16.4016C25.3908 16.6394 25.3558 16.8909 25.2912 17.1104C25.2374 17.293 25.1053 17.6667 24.7351 17.8835C24.2736 18.1537 23.8287 17.9805 23.6127 17.8532C23.3945 17.7246 23.2123 17.5389 23.0757 17.3824C22.793 17.0587 22.4964 16.6117 22.2337 16.2052C22.2315 16.2017 22.2293 16.1982 22.227 16.1948C22.2661 16.6435 22.3017 17.1582 22.3208 17.7294C22.3626 18.9789 22.706 19.8396 22.9981 20.5721L23.0182 20.6224C23.1541 20.9629 23.3145 21.3647 23.3717 21.7528C23.4395 22.2121 23.3734 22.6987 23.0338 23.1525C22.6921 23.6092 22.1821 23.6644 21.8377 23.6241C21.5055 23.5852 21.1743 23.4497 20.8904 23.3067C20.3088 23.0136 19.6447 22.5415 19.0382 22.0753C18.6395 21.7689 18.2445 21.4483 17.8916 21.1587C18.1281 21.9272 18.5305 23.0214 19.181 24.5534C19.6654 25.6943 20.1635 26.7783 20.6276 27.783C20.6606 27.8543 20.6933 27.9252 20.7259 27.9957C21.1503 28.914 21.5461 29.7703 21.8632 30.5237C22.2001 31.3244 22.4742 32.0679 22.5927 32.6844C22.652 32.9929 22.6835 33.3231 22.6358 33.639C22.5861 33.9681 22.4417 34.3261 22.1161 34.59C21.872 34.7878 21.5627 34.9248 21.1978 34.9166C20.8615 34.9091 20.5746 34.7797 20.3531 34.6458C19.9361 34.3938 19.4673 33.9424 18.9546 33.4458C18.9017 33.3946 18.8474 33.3419 18.7917 33.2879C17.715 32.2431 16.1034 30.6794 13.4437 28.746C10.7022 26.753 8.29197 25.947 6.53375 25.6561C5.69209 25.5168 4.99756 25.4953 4.4851 25.5192C4.55196 25.6091 4.62521 25.7065 4.70478 25.812C4.72177 25.8345 4.73897 25.8574 4.75638 25.8804C5.34787 26.6644 6.17362 27.7589 6.70911 28.9221C7.21733 30.0262 7.81862 31.4136 8.17358 32.5288C8.34563 33.0693 8.48752 33.6283 8.49711 34.0804C8.5016 34.2925 8.48269 34.6217 8.29859 34.917C8.19597 35.0816 8.043 35.2329 7.83484 35.3294C7.66559 35.4079 7.49589 35.4335 7.34419 35.4312C7.42974 35.5518 7.55341 35.7021 7.72886 35.8826C8.32112 36.4919 9.54145 37.2616 10.7503 38.0176L10.7614 38.0245C11.3333 38.3822 11.8964 38.7344 12.3194 39.0357C12.5307 39.1862 12.7349 39.3435 12.8959 39.4984C12.9762 39.5756 13.0655 39.6709 13.1419 39.7814C13.2105 39.8807 13.3199 40.0645 13.3428 40.3095C13.395 40.8685 12.9603 41.1555 12.8756 41.2095C12.7275 41.3039 12.5622 41.3648 12.4343 41.4057C12.164 41.4922 11.8097 41.5661 11.4328 41.6326C10.8169 41.7414 10.0311 41.8486 9.22895 41.958C9.0383 41.9841 8.84674 42.0102 8.6563 42.0365C8.48384 42.0604 8.31214 42.0843 8.14227 42.1086C9.08294 42.3397 10.2552 42.6428 11.3164 42.939C12.0978 43.1571 12.8334 43.3755 13.376 43.5614C13.6429 43.6529 13.8881 43.7449 14.0743 43.8323C14.1615 43.8732 14.2766 43.9318 14.3807 44.0088C14.4302 44.0453 14.5194 44.1164 14.5995 44.2254C14.6749 44.328 14.8225 44.5771 14.7594 44.9136C14.7542 44.9414 14.748 44.9682 14.7408 44.9941C14.982 45.0235 15.2309 45.0529 15.4838 45.0825C15.6514 45.1021 15.8206 45.1218 15.9899 45.1415C16.7939 45.2349 17.6001 45.3285 18.2515 45.4198C18.6444 45.4748 19.0007 45.5317 19.2754 45.5906C19.4105 45.6195 19.5486 45.6537 19.6699 45.6955C19.7299 45.7162 19.8063 45.7456 19.8841 45.7872C19.9441 45.8193 20.0947 45.9042 20.2165 46.0701C20.3369 46.234 20.4138 46.444 20.4059 46.6781C20.3986 46.8963 20.3201 47.0689 20.2492 47.1833C20.1195 47.3926 19.9318 47.5405 19.8054 47.6313C19.5311 47.8282 19.133 48.0377 18.7045 48.2525C18.4801 48.3649 18.2356 48.4845 17.9733 48.6128C17.1841 48.9988 16.2345 49.4633 15.1906 50.0472C13.9275 50.7537 12.6795 52.0552 11.7666 53.3194C11.3147 53.945 10.9654 54.5336 10.748 54.9966C10.7005 55.0978 10.6611 55.1893 10.629 55.2708C10.8643 55.224 11.1463 55.1528 11.5121 55.0604C11.6144 55.0346 11.7233 55.0071 11.8395 54.978C12.3584 54.8483 12.9873 54.6968 13.7381 54.5503C16.6749 53.9771 18.9708 53.6753 19.3451 53.6403C19.3933 53.6358 19.4728 53.6316 19.5676 53.6449C19.6546 53.6571 19.8278 53.6941 19.9959 53.8293C20.1937 53.9886 20.3 54.216 20.3152 54.4431C20.3196 54.5089 20.3161 54.5695 20.3084 54.6235C21.2189 54.3358 23.0827 54.2829 24.375 53.6715C28.6372 51.564 28.5006 49.8132 29.2013 48.9106C28.7025 53.526 23.8674 55.4941 19.8512 56.514C19.2998 56.654 18.8263 56.7392 18.4748 56.7583C18.3198 56.7667 18.0926 56.7693 17.8791 56.7031C17.7786 56.672 17.5519 56.5874 17.3828 56.357C17.2122 56.1245 17.184 55.8653 17.2263 55.6492C16.3446 55.7901 15.2601 55.977 14.0622 56.2108C13.3527 56.3493 12.7559 56.4928 12.25 56.6194C12.1493 56.6445 12.0506 56.6695 11.9541 56.6939C11.5793 56.7886 11.2393 56.8745 10.9566 56.9306C10.6272 56.996 10.2107 57.0597 9.82714 56.9598C9.6086 56.9029 9.3917 56.7917 9.21102 56.6038C9.03591 56.4216 8.93643 56.2106 8.87826 56.016C8.77766 55.6795 8.84338 55.3342 8.90215 55.1095C8.97017 54.8493 9.08117 54.566 9.21647 54.2777C9.48854 53.6981 9.89694 53.0185 10.395 52.3289C11.3818 50.9624 12.8017 49.4448 14.3647 48.5706C15.4539 47.9614 16.4658 47.4665 17.2599 47.0781C17.3052 47.056 17.3497 47.0342 17.3935 47.0128C16.9021 46.9507 16.3575 46.8874 15.8019 46.8229C15.6309 46.803 15.4589 46.783 15.2871 46.7629C14.3204 46.6498 13.3538 46.5321 12.6669 46.4131C12.337 46.356 12.0121 46.289 11.7787 46.2049C11.716 46.1823 11.6403 46.1517 11.564 46.1103C11.4989 46.0749 11.3717 45.9995 11.26 45.865C11.1326 45.7114 10.9868 45.4227 11.081 45.0665C11.1251 44.9001 11.208 44.7764 11.288 44.689C11.149 44.6493 11.0066 44.609 10.8615 44.5685C9.3197 44.1382 7.5394 43.6933 6.62191 43.4865C5.89502 43.3227 5.37196 43.406 4.97269 43.4696C4.95308 43.4727 4.93377 43.4758 4.91475 43.4788C4.81846 43.494 4.68115 43.5154 4.55073 43.5197C4.44527 43.5232 4.16331 43.527 3.89577 43.3497C3.55646 43.1249 3.46829 42.7785 3.45929 42.5502C3.45146 42.3514 3.49592 42.1621 3.53336 42.0273C3.62278 41.7053 3.84337 41.5082 3.98141 41.4067C4.13205 41.296 4.30119 41.214 4.45435 41.1515C4.76339 41.0254 5.15041 40.9217 5.55544 40.8325C6.37353 40.6525 7.4219 40.4992 8.42469 40.3606C8.62479 40.3329 8.82297 40.3059 9.01772 40.2793C9.65461 40.1923 10.2548 40.1104 10.7659 40.0289C10.4929 39.8523 10.1846 39.6593 9.85327 39.4521L9.77186 39.4012C8.65886 38.7053 7.26778 37.8356 6.51567 37.0618C6.13955 36.6749 5.85534 36.3007 5.68269 35.9367C5.51207 35.5769 5.41108 35.1385 5.55972 34.7C5.71528 34.241 6.07522 33.9805 6.41024 33.855C6.52344 33.8126 6.63995 33.7825 6.75708 33.7626C6.71787 33.5733 6.65391 33.3326 6.56141 33.042C6.24013 32.0326 5.6765 30.725 5.17226 29.6296C4.71413 28.6344 3.98166 27.6631 3.36637 26.8472L3.34895 26.8241C3.06073 26.4419 2.76978 26.056 2.59268 25.7484C2.51182 25.6079 2.39238 25.3818 2.35814 25.1277C2.33939 24.9885 2.33675 24.7746 2.44335 24.5503C2.55939 24.3062 2.75622 24.1512 2.95335 24.0698C3.21828 23.9604 3.70819 23.8683 4.31793 23.8338C4.95878 23.7974 5.80361 23.8204 6.8099 23.9869C8.82705 24.3206 11.4834 25.2293 14.4385 27.3775C17.1958 29.3818 18.8768 31.013 19.9676 32.0715C20.0238 32.126 20.0785 32.1791 20.1317 32.2306C20.479 32.567 20.7315 32.8054 20.9244 32.9695C20.8372 32.5412 20.6268 31.9475 20.3038 31.1799C19.9987 30.455 19.615 29.6248 19.1862 28.6969C19.1549 28.6293 19.1234 28.5612 19.0917 28.4925C18.6275 27.4877 18.1194 26.3823 17.6237 25.2146C16.6394 22.8962 16.1618 21.4467 15.9898 20.5564C15.9081 20.1333 15.8705 19.7216 15.9614 19.3773C16.0104 19.1917 16.117 18.95 16.3513 18.7694C16.6013 18.5768 16.8832 18.5403 17.1049 18.5683C17.2522 18.5869 17.3654 18.6389 17.4102 18.6602C17.4691 18.6883 17.5218 18.7192 17.563 18.745C17.6461 18.7968 17.7344 18.8602 17.8189 18.9237C17.9899 19.0522 18.2037 19.2254 18.4348 19.4149C18.5195 19.4844 18.6075 19.5568 18.6983 19.6316C19.1139 19.9737 19.5876 20.3637 20.0692 20.7339C20.6626 21.19 21.2192 21.5774 21.6486 21.7942C21.6056 21.6547 21.5366 21.4745 21.4349 21.2195C21.4291 21.205 21.4233 21.1905 21.4175 21.1759C21.1156 20.4195 20.6816 19.3322 20.6299 17.786C20.5963 16.7832 20.5143 16.0212 20.4492 15.4168C20.4238 15.1816 20.4011 14.9702 20.3847 14.7779C20.3707 14.6122 20.3605 14.4469 20.3625 14.2956C20.3643 14.1559 20.3762 13.9616 20.443 13.7689C20.517 13.5555 20.6871 13.2726 21.0361 13.1343C21.3427 13.0129 21.6267 13.0709 21.7825 13.117C22.0934 13.2089 22.3195 13.4296 22.4377 13.5538C22.5825 13.706 22.7238 13.8894 22.854 14.0712C23.0567 14.3543 23.2774 14.6987 23.4861 15.0244C23.5435 15.114 23.5999 15.2021 23.6549 15.2871C23.7016 15.3595 23.7473 15.4297 23.7918 15.4974C23.7921 15.4934 23.7924 15.4893 23.7927 15.4853L23.7948 15.4553C23.8164 15.1532 23.8414 14.8079 23.8775 14.4322C24.0223 12.9259 24.3473 10.9019 25.3953 8.78887C25.8806 7.81049 26.2755 6.95225 26.6098 6.21799C26.6547 6.11923 26.6988 6.02229 26.7419 5.92726C27.016 5.324 27.2549 4.79831 27.4669 4.37899C27.6984 3.9213 27.9568 3.46469 28.2741 3.17192C28.4469 3.01249 28.6945 2.8468 29.0195 2.80314C29.3589 2.75755 29.6544 2.86168 29.8806 3.00599C30.2194 3.2222 30.3851 3.56933 30.4732 3.80542C30.5717 4.06897 30.6379 4.37495 30.6866 4.68764C30.7844 5.31598 30.8322 6.11561 30.8643 6.97211C30.8833 7.4807 30.8971 8.01338 30.9112 8.55733C30.9457 9.88959 30.9819 11.2895 31.1013 12.5686C31.1716 13.3215 31.2106 13.9668 31.2426 14.4968C31.2503 14.6231 31.2575 14.7429 31.2647 14.8559C31.3033 15.4656 31.3383 15.824 31.3962 16.0464C31.4777 16.0366 31.6123 16.013 31.821 15.9554C32.104 15.8774 32.4783 15.6472 32.9298 15.2657C33.3507 14.9102 33.7637 14.4897 34.1614 14.0847L34.2387 14.006C34.604 13.6341 35.0232 13.2072 35.3755 12.9847C35.4758 12.9213 35.6107 12.8476 35.7698 12.8021C35.9297 12.7563 36.1764 12.7221 36.4436 12.8252C37.0193 13.0473 37.1051 13.6292 37.1241 13.833C37.1525 14.1366 37.0998 14.5016 37.0367 14.8308C36.969 15.1842 36.8688 15.5939 36.7545 16.026C36.6366 16.4716 36.4893 16.9925 36.3404 17.5191C36.2128 17.9704 36.084 18.4258 35.9716 18.8415C35.7459 19.676 35.5645 20.4252 35.4816 20.9907C35.6486 20.8711 35.8346 20.7276 36.0373 20.5634C36.5467 20.1506 37.1088 19.6501 37.6767 19.1444C37.835 19.0035 37.9937 18.8622 38.1518 18.7223C38.8476 18.1067 39.5662 17.4866 40.1109 17.1499C40.2523 17.0625 40.4084 16.9773 40.569 16.916C40.7126 16.8612 40.9541 16.7879 41.2293 16.8301C41.5765 16.8834 41.866 17.1039 42.0087 17.4309C42.1222 17.6908 42.1147 17.9529 42.0957 18.127C41.9786 19.2004 41.5542 20.424 41.0312 21.617C40.5025 22.8228 39.8455 24.0577 39.2201 25.1666C38.8769 25.7751 38.6497 26.2408 38.5029 26.5936C38.6369 26.5672 38.8064 26.5548 38.9925 26.5959C39.2322 26.6489 39.441 26.7782 39.5982 26.9635C39.9039 27.3237 39.843 27.7504 39.813 27.907C39.781 28.074 39.7216 28.2405 39.6571 28.3916C39.8701 28.1296 40.0708 27.8854 40.2531 27.6681C40.5168 27.3538 40.7554 27.0797 40.9432 26.8858C41.033 26.793 41.1357 26.693 41.2374 26.6145C41.2833 26.5791 41.3711 26.5145 41.4857 26.4653L41.4869 26.4648C41.5435 26.4404 41.9406 26.2694 42.3379 26.5422C42.5427 26.6828 42.6403 26.8679 42.6873 27.0166C43.6648 25.8081 44.9622 24.5237 46.5365 23.9809C47.0088 23.8181 47.473 23.6622 47.9233 23.5111C49.0396 23.1364 50.0704 22.7904 50.9267 22.4374C51.5243 22.191 51.9842 21.9617 52.2983 21.7461C52.6099 21.5323 52.6582 21.4134 52.6597 21.414C52.6597 21.414 52.6597 21.4145 52.6595 21.4154C52.7296 21.1147 52.8444 20.7328 53.0898 20.4645C53.2349 20.3057 53.4876 20.122 53.8413 20.1199C54.1774 20.1179 54.4202 20.2825 54.5543 20.4039C54.801 20.6273 54.959 20.9543 55.0652 21.2137C55.1855 21.5073 55.2981 21.8668 55.4029 22.2709C55.4967 22.6323 55.4693 23.0237 55.4129 23.366C55.3539 23.7243 55.2475 24.1155 55.1174 24.5145C54.8574 25.3123 54.4748 26.225 54.0863 27.1104C53.9333 27.4591 53.7806 27.8009 53.6323 28.1329C53.3957 28.6627 53.17 29.1678 52.9716 29.6371C52.6493 30.3995 52.4581 30.9355 52.4104 31.2231C52.5534 31.2937 52.8016 31.3499 53.2104 31.4165C53.2475 31.4225 53.2868 31.4287 53.328 31.4352C53.67 31.4892 54.1401 31.5635 54.5049 31.7214C54.7251 31.8167 55.0039 31.9802 55.2002 32.2749C55.4139 32.596 55.4573 32.9618 55.391 33.3075C55.3362 33.593 55.1861 33.8132 55.056 33.9635C54.921 34.1195 54.7591 34.2556 54.5977 34.3733C54.2754 34.6084 53.863 34.8357 53.4244 35.0508C52.5576 35.4758 51.4521 35.9177 50.4196 36.3305L50.3686 36.3509C49.4457 36.7198 48.5938 37.0617 47.9577 37.364C48.0369 37.3854 48.1197 37.407 48.2062 37.4288C48.6994 37.5533 49.2561 37.6724 49.8414 37.7975C50.1167 37.8564 50.3984 37.9166 50.6828 37.9794C51.5402 38.1687 52.4265 38.3823 53.092 38.6416C53.4181 38.7686 53.7617 38.9327 54.0278 39.1563C54.2954 39.3813 54.6296 39.8021 54.5256 40.3867C54.4587 40.7628 54.2161 41.0025 54.0436 41.1331C53.8636 41.2694 53.6553 41.3674 53.4634 41.4414C53.0757 41.591 52.5794 41.7082 52.0532 41.807C51.1051 41.9851 49.9059 42.1303 48.7411 42.2713C48.6035 42.288 48.4664 42.3046 48.3302 42.3212C47.026 42.4801 45.8171 42.6371 44.9818 42.8331C45.1542 42.9172 45.3514 43.0049 45.5718 43.0964C46.1468 43.3349 46.8115 43.5721 47.5158 43.8233C47.7994 43.9245 48.0895 44.028 48.3827 44.1348C49.3712 44.4948 50.3961 44.893 51.1696 45.3377C51.555 45.5593 51.93 45.8213 52.2105 46.1358C52.4953 46.4553 52.7433 46.9018 52.6956 47.4504C52.0845 52.2649 42.4864 44.9498 39.3645 53.8877C40.5164 45.9435 49.2888 47.8289 50.0382 47.6215C50.4663 47.503 50.7614 47.382 50.9365 47.2721C50.941 47.2693 50.9453 47.2665 50.9495 47.2638C50.9489 47.2631 50.9482 47.2624 50.9476 47.2617C50.8408 47.142 50.6429 46.9865 50.3262 46.8044C49.6954 46.4417 48.7995 46.0872 47.8037 45.7245C47.538 45.6277 47.2647 45.5302 46.9903 45.4323C46.2693 45.1751 45.5406 44.9151 44.9235 44.6591C44.4937 44.4807 44.0848 44.2912 43.7447 44.0883C43.4275 43.8991 43.0653 43.6385 42.8471 43.2789C42.679 43.0017 42.6074 42.6367 42.7593 42.2695C42.8874 41.9596 43.1273 41.7702 43.2967 41.6623C43.6382 41.4448 44.11 41.3014 44.5649 41.1932C45.5119 40.968 46.8338 40.7991 48.1256 40.6417C48.2616 40.6251 48.3974 40.6087 48.5327 40.5923C49.7111 40.4495 50.8511 40.3113 51.741 40.1442C51.8592 40.122 51.9704 40.0997 52.0744 40.0775C51.59 39.9245 50.9839 39.7785 50.318 39.6314C50.0608 39.5747 49.7943 39.5177 49.5265 39.4604C48.9244 39.3316 48.3159 39.2014 47.7921 39.0692C47.41 38.9728 47.0443 38.8684 46.7339 38.7525C46.4509 38.6468 46.1064 38.4941 45.8573 38.2564C45.6209 38.0308 45.468 37.6861 45.5466 37.2951C45.6092 36.9841 45.7973 36.7674 45.9176 36.6486C46.1687 36.4008 46.5386 36.1851 46.8935 36.0026C47.6332 35.6224 48.6939 35.1983 49.7341 34.7825L49.7496 34.7763C50.8137 34.3509 51.8707 33.9283 52.6795 33.5317C52.9561 33.3961 53.1876 33.2712 53.3717 33.1583C53.2649 33.1394 53.1414 33.1193 52.998 33.096L52.9388 33.0864C52.5636 33.0253 52.006 32.9343 51.5647 32.6895C51.3247 32.5564 51.0701 32.3529 50.8993 32.0405C50.7243 31.7204 50.6814 31.3667 50.7307 31.0159C50.8062 30.4781 51.0972 29.7258 51.4133 28.9783C51.6167 28.4971 51.8563 27.9607 52.0994 27.4163C52.2463 27.0872 52.3946 26.7551 52.537 26.4306C52.9235 25.5498 53.2767 24.7026 53.5089 23.9902C53.6249 23.6341 53.7038 23.3325 53.7436 23.091C53.7633 22.9713 53.7716 22.8768 53.7725 22.8052C53.7729 22.77 53.7715 22.7433 53.7696 22.7242C53.7694 22.7227 53.7692 22.7213 53.7691 22.7199C53.6071 22.8833 53.4281 23.0228 53.2556 23.1411C52.795 23.4572 52.2062 23.7399 51.5715 24.0016C50.6591 24.3777 49.5429 24.7523 48.4027 25.1351C47.9646 25.2822 47.5229 25.4304 47.0879 25.5804C45.7473 26.0426 44.532 27.3437 43.5293 28.6926C43.162 29.1866 42.8456 29.6548 42.5675 30.0664C42.473 30.2063 42.3829 30.3396 42.2967 30.4652C42.1345 30.7017 41.9738 30.9288 41.8291 31.1005C41.758 31.1849 41.6671 31.2845 41.5619 31.3699C41.4877 31.43 41.2567 31.6113 40.9226 31.6147C40.6117 31.6178 40.3087 31.4678 40.1294 31.185C40.0106 30.9977 39.9828 30.8083 39.976 30.6935C39.9393 30.7393 39.9025 30.7852 39.8656 30.8313C39.7987 30.9148 39.7314 30.9988 39.6639 31.0831C38.9711 31.9478 38.254 32.8394 37.6628 33.533C37.3679 33.8789 37.0949 34.1869 36.866 34.4218C36.7522 34.5387 36.6392 34.648 36.5328 34.7382C36.4488 34.8095 36.2917 34.9374 36.1 35.0105C35.9662 35.0614 35.7367 35.1342 35.4758 35.1008C35.33 35.0821 35.1579 35.0278 34.9995 34.9044C34.8389 34.7793 34.7406 34.6208 34.6865 34.4711C34.5911 34.2068 34.6279 33.9586 34.6525 33.8338C34.6819 33.6849 34.7321 33.5373 34.7842 33.4052C34.9841 32.8985 35.3961 32.1746 35.8217 31.4339C36.105 30.9408 36.5029 30.3323 36.8826 29.7517C37.1001 29.4191 37.3116 29.0957 37.4921 28.8084C37.5103 28.7795 37.5281 28.751 37.5456 28.7229C37.3831 28.7004 37.2056 28.637 37.0432 28.5024C36.5376 28.0831 36.5091 27.4417 36.639 26.856C36.7713 26.2597 37.1154 25.4543 37.7464 24.3355C38.3602 23.2472 38.9859 22.0684 39.4817 20.9377C39.7428 20.3421 39.9607 19.7758 40.122 19.2547C39.8652 19.4694 39.58 19.7177 39.2729 19.9894C39.1254 20.1199 38.9739 20.2548 38.8203 20.3916C38.2482 20.9011 37.6457 21.4376 37.1026 21.8778C36.757 22.1579 36.4141 22.4167 36.0997 22.6137C35.8179 22.7902 35.4397 22.9961 35.0518 23.0323C34.7825 23.0575 34.4844 22.9968 34.2311 22.7938C33.9978 22.6067 33.8844 22.3639 33.827 22.1768C33.7185 21.8234 33.7322 21.4111 33.768 21.0606C33.8436 20.3221 34.0809 19.352 34.3384 18.3998C34.4672 17.9235 34.5964 17.4676 34.7213 17.027C34.8616 16.532 34.9964 16.0564 35.1189 15.5933C35.1273 15.5615 35.1356 15.5299 35.1438 15.4986C34.8052 15.8415 34.4201 16.2215 34.0216 16.5582C33.5245 16.9782 32.9195 17.4076 32.2707 17.5864C31.8032 17.7153 31.2543 17.826 30.7603 17.6609C30.143 17.4545 29.8835 16.9374 29.7648 16.495C29.6533 16.0794 29.6129 15.541 29.5762 14.963C29.5686 14.8432 29.5611 14.7188 29.5533 14.5894C29.5213 14.0607 29.4842 13.4485 29.4168 12.7258C29.2917 11.3865 29.253 9.89142 29.2179 8.53836C29.2042 8.00978 29.1911 7.50287 29.1736 7.0354C29.1435 6.23242 29.1013 5.55333 29.0287 5.0411C29.0119 5.07338 28.9946 5.10716 28.9767 5.1425C28.782 5.52759 28.5602 6.01561 28.2836 6.62423C28.2403 6.71949 28.1957 6.8177 28.1496 6.91893ZM28.8561 4.32541C28.8561 4.32541 28.8575 4.32726 28.8599 4.33181C28.8572 4.32783 28.8561 4.32541 28.8561 4.32541ZM36.2927 14.407C36.2927 14.407 36.2918 14.4075 36.2903 14.4083C36.2919 14.4073 36.2927 14.407 36.2927 14.407ZM35.4389 13.9832C35.4356 13.9686 35.4347 13.96 35.435 13.9593C35.4354 13.9587 35.4371 13.966 35.4389 13.9832ZM41.1819 18.4935C41.1818 18.4936 41.1788 18.4948 41.173 18.4964C41.1791 18.4941 41.1821 18.4933 41.1819 18.4935ZM40.4148 17.9329C40.4147 17.9265 40.4151 17.9232 40.4151 17.9232C40.4151 17.9232 40.4153 17.9264 40.4148 17.9329ZM41.0447 27.2876C41.0451 27.284 41.0454 27.2822 41.0454 27.2825C41.0454 27.2827 41.0452 27.2843 41.0447 27.2876ZM54.387 21.541C54.387 21.5412 54.3864 21.5422 54.3854 21.5441C54.3865 21.5417 54.3871 21.5408 54.387 21.541ZM53.7842 32.847C53.7842 32.847 53.7834 32.8483 53.7811 32.851C53.783 32.8484 53.7842 32.847 53.7842 32.847ZM51.0149 47.3559C51.0148 47.3559 51.014 47.3542 51.0131 47.3509C51.0147 47.3543 51.0149 47.3559 51.0149 47.3559ZM51.045 47.1905C51.0477 47.1867 51.0494 47.1848 51.0496 47.1849C51.0498 47.1849 51.0485 47.1868 51.045 47.1905ZM44.1947 43.0969C44.1945 43.0969 44.1965 43.0952 44.2016 43.0919C44.1975 43.0952 44.195 43.0968 44.1947 43.0969ZM47.1061 37.8528C47.1063 37.8526 47.1064 37.8524 47.1066 37.8522C47.0985 37.8618 47.0967 37.862 47.1061 37.8528ZM35.3996 33.4787C35.3996 33.4787 35.4013 33.4774 35.4046 33.4753C35.4012 33.4777 35.3996 33.4787 35.3996 33.4787ZM36.3132 34.1575C36.3117 34.1683 36.3106 34.1704 36.3123 34.1619C36.3125 34.1609 36.3128 34.1594 36.3132 34.1575ZM37.5195 27.068C37.5138 27.0706 37.5143 27.07 37.5203 27.0676C37.52 27.0678 37.5198 27.0679 37.5195 27.068ZM38.2629 27.4146C38.2638 27.4205 38.2638 27.4238 38.2636 27.424C38.2634 27.4241 38.263 27.4212 38.2629 27.4146ZM23.6578 16.6616C23.6575 16.6611 23.6596 16.6547 23.6646 16.644C23.6605 16.6568 23.658 16.6621 23.6578 16.6616ZM21.6865 22.1293C21.684 22.1325 21.6816 22.1357 21.6791 22.1389C21.6806 22.137 21.682 22.1352 21.6833 22.1334C21.6844 22.1321 21.6854 22.1307 21.6865 22.1293ZM6.80375 34.1691C6.80361 34.1689 6.80385 34.1658 6.80487 34.1601C6.8044 34.1664 6.80389 34.1692 6.80375 34.1691ZM13.542 44.0645C13.546 44.0634 13.5482 44.063 13.5482 44.063C13.5482 44.063 13.5463 44.0636 13.542 44.0645ZM19.1238 47.2969C19.1241 47.297 19.1235 47.2968 19.1221 47.2962C19.123 47.2966 19.1236 47.2968 19.1238 47.2969ZM18.8665 46.2198C18.8675 46.2188 18.8681 46.2183 18.8681 46.2183C18.8681 46.2183 18.8676 46.2187 18.8665 46.2198ZM18.7822 56.2276C18.7819 56.2278 18.7838 56.2251 18.7888 56.2193C18.7849 56.2246 18.7825 56.2275 18.7822 56.2276ZM7.17838 35.1244C7.17838 35.1244 7.17873 35.1257 7.17905 35.1282C7.17848 35.1256 7.17838 35.1244 7.17838 35.1244ZM21.1615 14.6722C21.1615 14.672 21.1638 14.6737 21.1685 14.6777C21.1639 14.6744 21.1615 14.6724 21.1615 14.6722Z" fill="white"/>
<path d="M154.681 101.829C154.82 103.066 155.778 103.824 156.954 103.824C158.191 103.824 159.088 103.035 159.227 101.829C158.979 101.798 158.655 101.752 158.407 101.736C158.268 102.494 157.665 102.881 156.938 102.881C156.15 102.865 155.624 102.463 155.516 101.736L154.681 101.829ZM153.799 112.36H153.443V104.906H154.619V107.551L154.526 110.133L159.598 104.891H160V112.36H158.825V109.87L158.948 107.04L153.799 112.36Z" fill="white"/>
<path d="M149.884 107.04L144.735 112.359H144.379V104.906H145.554V107.55L145.462 110.133L150.534 104.891H150.936V112.359H149.76V109.87L149.884 107.04Z" fill="white"/>
<path d="M140.697 104.906H141.872V112.36H140.697V109.035H136.475V112.36H135.285V104.906H136.475V107.983H140.697V104.906Z" fill="white"/>
<path d="M129.908 104.736C132.444 104.752 133.635 106.298 133.217 108.757H127.295C127.217 110.473 128.578 111.525 130.264 111.525C131.114 111.525 131.918 111.339 132.784 110.984L132.97 111.896C132.088 112.313 131.145 112.53 130.233 112.53C127.759 112.53 126.011 110.968 126.088 108.432C126.166 106.082 127.867 104.736 129.908 104.736ZM129.908 105.695C128.547 105.695 127.542 106.484 127.341 107.829H132.197C132.274 106.422 131.238 105.695 129.908 105.695Z" fill="white"/>
<path d="M122.451 112.344H121.276V105.973H118.647V104.906H125.08V105.973H122.451V112.344Z" fill="white"/>
<path d="M117.481 107.18H116.321C115.919 106.252 115.022 105.803 114.079 105.803C112.718 105.803 111.295 106.747 111.295 108.602C111.295 110.442 112.672 111.417 114.017 111.417C115.007 111.417 115.981 110.906 116.383 109.855H117.558C117.11 111.618 115.563 112.484 114.001 112.484C112.053 112.484 110.074 111.169 110.074 108.602C110.074 106.004 112.084 104.705 114.032 104.721C115.548 104.736 117.017 105.556 117.481 107.18Z" fill="white"/>
<path d="M107.013 111.015C106.472 112.051 105.204 112.484 104.075 112.484C102.699 112.484 101.446 111.679 101.4 110.179C101.353 108.478 102.745 107.597 104.291 107.597C105.142 107.597 106.116 107.798 106.858 108.216V107.303C106.858 106.051 105.528 105.711 104.508 105.711C103.657 105.711 102.822 105.881 102.188 106.252L101.987 105.324C102.714 104.953 103.704 104.736 104.693 104.736C106.379 104.736 108.002 105.386 107.956 107.334V110.442C107.956 111.262 107.91 111.741 108.822 111.618L108.837 112.406C107.6 112.607 107.013 112.375 107.013 111.015ZM106.843 109.839V109.128C106.162 108.741 105.25 108.525 104.492 108.525C103.503 108.525 102.544 109.066 102.59 110.133C102.637 111.076 103.456 111.447 104.291 111.447C105.265 111.447 106.595 110.953 106.843 109.839Z" fill="white"/>
<path d="M93.8753 106.143C94.5711 105.014 95.5298 104.705 96.5968 104.705C98.7772 104.705 99.9679 106.452 99.9679 108.586C99.9679 111.911 96.7051 113.473 94.0454 111.679V116.194H92.8392V107.396C92.8392 106.437 92.9474 105.664 91.9578 105.788L91.9423 104.891C93.1175 104.69 93.9216 104.968 93.8753 106.143ZM94.0144 108.277V110.581C96.0401 112.158 98.7308 111.323 98.7308 108.586C98.7308 107.102 98.0349 105.803 96.3649 105.803C94.9422 105.803 94.0608 106.994 94.0144 108.277Z" fill="white"/>
<path d="M81.2112 108.061H82.2008C84.2111 108.061 85.1389 106.916 85.1389 104.891H86.2832C86.3141 106.561 85.7884 107.983 84.1647 108.602L86.6543 112.22V112.359H85.3554L83.0977 108.973C82.8194 109.035 82.4946 109.05 82.1854 109.05H81.2112V112.359H79.9896V104.891H81.2112V108.061Z" fill="white"/>
<path d="M76.4303 107.04L71.281 112.359H70.9253V104.906H72.1005V107.55L72.0077 110.133L77.0798 104.891H77.4818V112.359H76.3066V109.87L76.4303 107.04Z" fill="white"/>
<path d="M67.2431 104.906H68.4183V112.36H67.2431V109.035H63.0215V112.36H61.8308V104.906H63.0215V107.983H67.2431V104.906Z" fill="white"/>
<path d="M55.6045 110.504H55.4807L52.9602 107.458V112.329C52.5736 112.329 52.187 112.329 51.785 112.329C51.785 110.025 51.785 107.009 51.785 104.906H52.187L55.5581 108.989L58.9446 104.906H59.3311C59.3311 107.009 59.3311 110.025 59.3311 112.329C58.9446 112.329 58.558 112.329 58.1714 112.329V107.458L55.6045 110.504Z" fill="white"/>
<path d="M49.7646 108.618C49.7646 113.767 41.9091 113.798 41.9091 108.618C41.9091 103.437 49.7646 103.437 49.7646 108.618ZM43.1308 108.618C43.1308 112.422 48.5584 112.422 48.5584 108.618C48.5584 104.829 43.1308 104.829 43.1308 108.618Z" fill="white"/>
<path d="M38.2715 112.344H37.0963V105.973H34.4675V104.906H40.9003V105.973H38.2715V112.344Z" fill="white"/>
<path d="M31.7432 107.04L26.5939 112.359H26.2382V104.906H27.4134V107.55L27.3207 110.133L32.3927 104.891H32.7947V112.359H31.6195V109.87L31.7432 107.04Z" fill="white"/>
<path d="M17.1589 104.906H23.7309V112.36H22.5247V105.989H18.3805V112.36H17.1589V104.906Z" fill="white"/>
<path d="M58.5351 52.9864C50.8635 71.8772 32.0938 77.1688 31.759 78.3431C31.4242 79.5174 37.6091 87.9089 45.2273 90.537C56.1154 94.2931 64.342 90.2327 62.8909 90.8905C54.9389 94.6937 37.5755 97.9135 26.8254 77.6964C27.3528 75.5426 46.3447 72.2364 57.3903 51.1796C57.3903 51.1796 62.0192 44.3295 58.5351 52.9864Z" fill="white"/>
</svg>
