<svg width="24" height="25" viewBox="0 0 24 25" fill="none" xmlns="http://www.w3.org/2000/svg">
<g id="Black">
<path id="Vector" d="M11.131 0.722222C10.9869 0.794256 10.9509 0.881297 10.9509 1.17844C10.9509 2.28596 11.5061 3.57056 12.3465 4.39295C12.4696 4.516 12.5716 4.62406 12.5716 4.63606C12.5716 4.64807 12.4936 4.67208 12.4006 4.69009C11.332 4.90018 10.6327 5.19432 9.94239 5.72857C9.48618 6.07974 9.33011 6.32886 9.42915 6.53595C9.54921 6.79107 10.4706 7.39436 11.146 7.66148C11.8333 7.93461 12.2805 8.01865 13.1659 8.04266C13.5321 8.05167 13.8322 8.06667 13.8322 8.07268C13.8322 8.07868 13.7572 8.18973 13.6671 8.32179C13.4751 8.59192 13.2169 9.12317 13.0999 9.47733C12.9738 9.87052 12.9258 10.1436 12.9108 10.6029C12.8838 11.3562 12.9708 11.6323 13.271 11.7194C13.4781 11.7794 14.3695 11.7674 14.6726 11.7044C15.2459 11.5813 16.0323 11.2512 16.3984 10.978C16.4975 10.903 16.5845 10.843 16.5965 10.843C16.6085 10.843 16.6235 11.1761 16.6325 11.5843C16.6505 12.3917 16.6686 12.5238 16.8456 13.07C17.1428 13.9825 17.7821 15.054 18.1362 15.222C18.2533 15.2821 18.2893 15.2851 18.3764 15.255C18.5084 15.213 18.8566 14.8469 19.1117 14.4897C19.5049 13.9284 19.8921 12.962 19.9701 12.3287C20.0031 12.0706 20.0241 12.0645 20.2192 12.2716C20.6694 12.7519 21.4018 13.2231 22.0741 13.4632C22.3382 13.5593 22.8995 13.6763 23.3047 13.7273C23.5748 13.7573 23.6168 13.7573 23.7159 13.7093C23.8509 13.6463 24.007 13.4752 24.007 13.3912C24.007 13.3071 23.8629 13.034 23.5598 12.5448C22.7434 11.2302 22.1341 10.0176 21.7139 8.87705C21.3027 7.76053 21.2277 7.57444 21.0026 7.12123C20.8735 6.86611 20.6664 6.49994 20.5434 6.31085C20.4173 6.12176 20.3153 5.94768 20.3153 5.92967C20.3153 5.90866 20.7655 5.43444 21.3147 4.87918C21.864 4.32091 22.3442 3.82268 22.3802 3.76865C22.4223 3.71163 22.4463 3.63059 22.4463 3.55555C22.4463 3.45651 22.4193 3.40848 22.2572 3.21639C22.0801 3.0093 21.4018 2.35799 21.2697 2.26195C21.1767 2.19892 20.9936 2.21092 20.8975 2.28596C20.7535 2.40001 20.3603 2.77819 19.5469 3.58257C19.1147 4.01177 18.7425 4.35993 18.7215 4.35993C18.6975 4.35993 18.5114 4.25188 18.3043 4.11982C17.8361 3.81668 17.3079 3.55855 16.5935 3.27942C15.2429 2.74817 15.0208 2.65813 14.5376 2.43303C13.8832 2.13288 13.1029 1.70368 12.2295 1.16943C11.5812 0.773246 11.3891 0.671198 11.281 0.668197C11.257 0.668197 11.188 0.692208 11.131 0.722222Z" fill="#FFFA00"/>
<path id="Vector_2" d="M8.65489 2.46906C7.58939 2.5471 6.55391 2.94929 5.60846 3.65162C5.29031 3.88873 4.57297 4.59105 4.22181 5.01426C3.19533 6.24183 1.81768 9.03014 1.03131 11.4733C0.30797 13.7123 -0.046196 15.8373 0.00482796 17.5962C0.0288392 18.3225 0.0588533 18.6647 0.163903 19.2319C0.695152 22.1943 2.51101 24.0012 5.4734 24.5144C8.2527 24.9976 11.9624 24.3313 15.7382 22.6685C16.3145 22.4164 17.6381 21.7561 18.0943 21.498C19.1898 20.8737 20.0753 20.1714 20.7236 19.418C21.4859 18.5296 21.9181 17.6472 22.1372 16.5307C22.2123 16.1465 22.2123 15.054 22.1372 14.6698C22.0622 14.2946 22.0712 14.3066 21.9121 14.2526C21.4709 14.0935 20.8466 13.8024 20.6245 13.6523C20.4925 13.5623 20.4354 13.5533 20.4354 13.6283C20.4354 13.6973 20.0573 14.4687 19.8952 14.7298C19.6821 15.072 19.4119 15.4021 19.1178 15.6813C18.7787 16.0054 18.6646 16.0474 18.2174 16.0294C17.9743 16.0204 17.9022 16.0024 17.7552 15.9304C17.365 15.7383 16.8307 15.018 16.4015 14.1115C16.2184 13.7303 16.0474 13.2021 15.9303 12.6648C15.8703 12.3947 15.8193 12.2236 15.7952 12.2236C15.7772 12.2236 15.6272 12.2657 15.4651 12.3137C14.4686 12.6228 13.3431 12.6558 12.8269 12.3947C12.5057 12.2326 12.2776 11.9445 12.1755 11.5723C12.1215 11.3742 12.1125 11.2572 12.1125 10.813C12.1155 10.2037 12.1725 9.82852 12.3466 9.23724C12.4097 9.03014 12.4547 8.85606 12.4487 8.84705C12.4397 8.84105 12.2656 8.79903 12.0615 8.75701C11.098 8.55292 10.2006 8.16273 9.40825 7.59847C8.90401 7.2383 8.70592 6.98318 8.63388 6.58999C8.59186 6.36789 8.63388 6.07675 8.72993 5.87566C8.81097 5.71058 9.20715 5.30239 9.5253 5.06228C9.90048 4.77714 10.8789 4.23989 11.026 4.23989C11.107 4.23989 11.104 4.17386 11.017 4.0358C10.8819 3.8257 10.6148 3.27344 10.4888 2.94328C10.4257 2.78421 10.3597 2.63714 10.3387 2.62213C10.2697 2.5651 9.21616 2.42404 9.00006 2.44505C8.97604 2.44505 8.81997 2.45705 8.65489 2.46906Z" fill="#FFFA00"/>
</g>
</svg>
