<svg width="23" height="25" viewBox="0 0 23 25" fill="none" xmlns="http://www.w3.org/2000/svg">
<g id="Black">
<path id="Vector" d="M10.2134 0.697567C9.88464 0.753923 9.40091 0.922997 9.02989 1.10616C8.16105 1.52884 7.37205 2.34132 6.97285 3.22895C6.80378 3.59527 6.60653 4.34201 6.60653 4.6144C6.60653 4.94315 6.56426 4.96194 6.19324 4.79287C5.54983 4.50638 4.82658 4.39367 4.05166 4.45942C2.14021 4.6191 0.632651 5.91062 0.116043 7.82677C-0.0295473 8.36686 -0.0248508 9.35311 0.120739 9.92608C0.252239 10.4474 0.604473 11.1847 0.928527 11.6074C1.17274 11.9268 1.67526 12.3964 1.95235 12.5608C2.03219 12.6077 2.09794 12.6594 2.09794 12.6735C2.09794 12.6876 2.03219 12.7392 1.95235 12.7862C1.67057 12.9506 1.16805 13.4202 0.928527 13.7396C-0.362995 15.4538 -0.301941 17.7738 1.07881 19.38C2.32807 20.8312 4.47434 21.3243 6.19324 20.5541C6.56426 20.3851 6.60653 20.4038 6.60653 20.7326C6.60653 21.005 6.80378 21.7517 6.97285 22.118C7.1654 22.5454 7.45658 22.9681 7.82291 23.3532C8.3583 23.9074 8.94066 24.269 9.75314 24.5367C10.1336 24.6635 10.1946 24.6682 11.0212 24.6682C11.8478 24.6682 11.9088 24.6635 12.2892 24.5367C13.1017 24.269 13.6841 23.9074 14.2195 23.3532C14.5858 22.9681 14.877 22.5454 15.0695 22.118C15.2386 21.7517 15.4358 21.005 15.4358 20.7326C15.4358 20.4038 15.4781 20.3851 15.8491 20.5541C16.4925 20.8406 17.2158 20.9533 17.9907 20.8876C19.9069 20.7279 21.4097 19.4364 21.9263 17.5202C22.0719 16.9801 22.0672 15.9939 21.9216 15.4209C21.7901 14.8996 21.4379 14.1623 21.1138 13.7396C20.8696 13.4202 20.3671 12.9506 20.09 12.7862C20.0102 12.7392 19.9444 12.6876 19.9444 12.6735C19.9444 12.6594 20.0102 12.6077 20.09 12.5608C20.3718 12.3964 20.8743 11.9268 21.1138 11.6074C22.4054 9.8932 22.3443 7.57316 20.9636 5.96698C19.7143 4.51578 17.568 4.02265 15.8491 4.79287C15.4781 4.96194 15.4358 4.94315 15.4358 4.6144C15.4358 4.34201 15.2386 3.59527 15.0695 3.22895C14.877 2.80157 14.5858 2.37889 14.2195 1.99379C13.6841 1.43491 13.0876 1.07328 12.2892 0.814978C11.937 0.702263 11.8008 0.683477 11.1621 0.669388C10.7629 0.664692 10.3355 0.674084 10.2134 0.697567ZM11.984 8.77545C13.4352 9.14647 14.5294 10.236 14.9239 11.7107C15.0648 12.2367 15.0648 13.1056 14.9239 13.6363C14.7173 14.4347 14.2195 15.2237 13.5807 15.7685C13.2285 16.069 12.4818 16.4494 11.984 16.5762C11.458 16.7171 10.5844 16.7171 10.0584 16.5762C9.56059 16.4494 8.81386 16.069 8.46162 15.7685C7.82291 15.2237 7.32508 14.4347 7.11844 13.6363C6.97755 13.1056 6.97755 12.2367 7.11844 11.7107C7.55051 10.0905 8.83264 8.93982 10.4811 8.68152C10.8709 8.62516 11.5519 8.66273 11.984 8.77545Z" fill="#FF8300"/>
</g>
</svg>
